VertexCount: 8
-0.076200 1.066799 0.609600 -1.000000 0.000000 0.000000 0.000000 -0.000000 1.000000 1.000000 0.000000 0 0 0 0 0.000000 0.000000 0.000000 0.000000
-0.076200 -1.066801 0.609600 -1.000000 0.000000 0.000000 0.000000 -0.000000 1.000000 1.000000 1.000000 0 0 0 0 0.000000 0.000000 0.000000 0.000000
-0.076200 -1.066801 -0.609600 -1.000000 0.000000 0.000000 0.000000 0.000000 1.000000 0.000000 1.000000 0 0 0 0 0.000000 0.000000 0.000000 0.000000
-0.076200 1.066800 -0.609600 -1.000000 0.000000 0.000000 0.000000 -0.000000 1.000000 0.000000 0.000000 0 0 0 0 0.000000 0.000000 0.000000 0.000000
0.076200 1.066800 -0.609600 1.000000 0.000000 0.000000 0.000000 -0.000000 1.000000 0.000000 0.000000 0 0 0 0 0.000000 0.000000 0.000000 0.000000
0.076200 -1.066801 -0.609600 1.000000 0.000000 0.000000 0.000000 -0.000000 1.000000 0.000000 1.000000 0 0 0 0 0.000000 0.000000 0.000000 0.000000
0.076200 -1.066801 0.609600 1.000000 0.000000 0.000000 0.000000 0.000000 1.000000 1.000000 1.000000 0 0 0 0 0.000000 0.000000 0.000000 0.000000
0.076200 1.066799 0.609600 1.000000 0.000000 0.000000 0.000000 -0.000000 1.000000 1.000000 0.000000 0 0 0 0 0.000000 0.000000 0.000000 0.000000
IndexCount: 12
3 1 0
3 2 1
7 5 4
7 6 5