VertexCount: 16
0.304800 0.609600 1.524000 0.000000 -0.000000 1.000000 0.000000 -1.000000 -0.000000 5.468750 7.696429 0 0 0 0 0.000000 0.000000 0.000000 0.000000
0.304800 -0.609600 1.524000 0.000000 -0.000000 1.000000 0.000000 -1.000000 -0.000000 7.468750 7.696429 0 0 0 0 0.000000 0.000000 0.000000 0.000000
-0.304800 -0.609600 1.524000 0.000000 -0.000000 1.000000 0.000000 -1.000000 -0.000000 7.468750 6.982143 0 0 0 0 0.000000 0.000000 0.000000 0.000000
-0.304800 0.609600 1.524000 0.000000 -0.000000 1.000000 0.000000 -1.000000 -0.000000 5.468750 6.982143 0 0 0 0 0.000000 0.000000 0.000000 0.000000
-0.304800 0.609600 -1.524000 0.000000 0.000000 -1.000000 0.000000 -1.000000 -0.000000 5.468750 6.982143 0 0 0 0 0.000000 0.000000 0.000000 0.000000
-0.304800 -0.609600 -1.524000 0.000000 0.000000 -1.000000 0.000000 -1.000000 -0.000000 7.468750 6.982143 0 0 0 0 0.000000 0.000000 0.000000 0.000000
0.304800 -0.609600 -1.524000 0.000000 0.000000 -1.000000 0.000000 -1.000000 -0.000000 7.468750 7.696429 0 0 0 0 0.000000 0.000000 0.000000 0.000000
0.304800 0.609600 -1.524000 0.000000 0.000000 -1.000000 0.000000 -1.000000 -0.000000 5.468750 7.696429 0 0 0 0 0.000000 0.000000 0.000000 0.000000
0.304800 -0.609600 -1.524000 0.000000 -1.000000 -0.000000 0.000000 0.000000 -1.000000 -7.406250 7.696429 0 0 0 0 0.000000 0.000000 0.000000 0.000000
-0.304800 -0.609600 -1.524000 0.000000 -1.000000 -0.000000 0.000000 0.000000 -1.000000 -7.406250 6.982143 0 0 0 0 0.000000 0.000000 0.000000 0.000000
-0.304800 -0.609600 1.524000 0.000000 -1.000000 -0.000000 0.000000 0.000000 -1.000000 -12.406250 6.982143 0 0 0 0 0.000000 0.000000 0.000000 0.000000
0.304800 -0.609600 1.524000 0.000000 -1.000000 -0.000000 0.000000 0.000000 -1.000000 -12.406250 7.696429 0 0 0 0 0.000000 0.000000 0.000000 0.000000
0.304800 0.609600 1.524000 0.000000 1.000000 0.000000 0.000000 0.000000 -1.000000 -12.406250 7.696429 0 0 0 0 0.000000 0.000000 0.000000 0.000000
-0.304800 0.609600 1.524000 0.000000 1.000000 0.000000 0.000000 0.000000 -1.000000 -12.406250 6.982143 0 0 0 0 0.000000 0.000000 0.000000 0.000000
-0.304800 0.609600 -1.524000 0.000000 1.000000 0.000000 0.000000 0.000000 -1.000000 -7.406250 6.982143 0 0 0 0 0.000000 0.000000 0.000000 0.000000
0.304800 0.609600 -1.524000 0.000000 1.000000 0.000000 0.000000 0.000000 -1.000000 -7.406250 7.696429 0 0 0 0 0.000000 0.000000 0.000000 0.000000
IndexCount: 24
3 1 0
3 2 1
7 5 4
7 6 5
11 9 8
11 10 9
15 13 12
15 14 13