VertexCount: 16
-0.076200 -0.457200 0.304800 0.000000 -1.000000 -0.000000 0.000000 -0.000000 1.000000 -14.500000 10.000000 0 0 0 0 0.000000 0.000000 0.000000 0.000000
0.076200 -0.457200 0.304800 0.000000 -1.000000 -0.000000 0.000000 -0.000000 1.000000 -14.500000 9.750000 0 0 0 0 0.000000 0.000000 0.000000 0.000000
0.076200 -0.457200 -0.304800 0.000000 -1.000000 -0.000000 0.000000 -0.000000 1.000000 -15.000000 9.750000 0 0 0 0 0.000000 0.000000 0.000000 0.000000
-0.076200 -0.457200 -0.304800 0.000000 -1.000000 -0.000000 0.000000 -0.000000 1.000000 -15.000000 10.000000 0 0 0 0 0.000000 0.000000 0.000000 0.000000
-0.076200 0.457200 0.304800 0.000000 -0.000000 1.000000 0.000000 1.000000 0.000000 -1.500000 10.000000 0 0 0 0 0.000000 0.000000 0.000000 0.000000
0.076200 0.457200 0.304800 0.000000 -0.000000 1.000000 0.000000 1.000000 0.000000 -1.500000 9.750000 0 0 0 0 0.000000 0.000000 0.000000 0.000000
0.076200 -0.457200 0.304800 0.000000 -0.000000 1.000000 0.000000 1.000000 0.000000 -2.250000 9.750000 0 0 0 0 0.000000 0.000000 0.000000 0.000000
-0.076200 -0.457200 0.304800 0.000000 -0.000000 1.000000 0.000000 1.000000 0.000000 -2.250000 10.000000 0 0 0 0 0.000000 0.000000 0.000000 0.000000
-0.076200 0.457200 -0.304800 0.000000 1.000000 0.000000 0.000000 -0.000000 1.000000 -15.000000 10.000000 0 0 0 0 0.000000 0.000000 0.000000 0.000000
0.076200 0.457200 -0.304800 0.000000 1.000000 0.000000 0.000000 -0.000000 1.000000 -15.000000 9.750000 0 0 0 0 0.000000 0.000000 0.000000 0.000000
0.076200 0.457200 0.304800 0.000000 1.000000 0.000000 0.000000 -0.000000 1.000000 -14.500000 9.750000 0 0 0 0 0.000000 0.000000 0.000000 0.000000
-0.076200 0.457200 0.304800 0.000000 1.000000 0.000000 0.000000 -0.000000 1.000000 -14.500000 10.000000 0 0 0 0 0.000000 0.000000 0.000000 0.000000
-0.076200 0.457200 -0.304800 0.000000 0.000000 -1.000000 0.000000 1.000000 0.000000 -1.500000 10.000000 0 0 0 0 0.000000 0.000000 0.000000 0.000000
-0.076200 -0.457200 -0.304800 0.000000 0.000000 -1.000000 0.000000 1.000000 0.000000 -2.250000 10.000000 0 0 0 0 0.000000 0.000000 0.000000 0.000000
0.076200 -0.457200 -0.304800 0.000000 0.000000 -1.000000 0.000000 1.000000 0.000000 -2.250000 9.750000 0 0 0 0 0.000000 0.000000 0.000000 0.000000
0.076200 0.457200 -0.304800 0.000000 0.000000 -1.000000 0.000000 1.000000 0.000000 -1.500000 9.750000 0 0 0 0 0.000000 0.000000 0.000000 0.000000
IndexCount: 24
3 1 0
3 2 1
7 5 4
7 6 5
11 9 8
11 10 9
15 13 12
15 14 13