VertexCount: 4
0.000000 0.457200 0.304800 1.000000 0.000000 0.000000 0.000000 -0.000000 1.000000 1.000000 0.000000 0 0 0 0 0.000000 0.000000 0.000000 0.000000
0.000000 0.457200 -0.304800 1.000000 0.000000 0.000000 0.000000 -0.000000 1.000000 0.000000 0.000000 0 0 0 0 0.000000 0.000000 0.000000 0.000000
0.000000 -0.457200 -0.304800 1.000000 0.000000 0.000000 0.000000 0.000000 1.000000 0.000000 1.000000 0 0 0 0 0.000000 0.000000 0.000000 0.000000
0.000000 -0.457200 0.304800 1.000000 0.000000 0.000000 0.000000 -0.000000 1.000000 1.000000 1.000000 0 0 0 0 0.000000 0.000000 0.000000 0.000000
IndexCount: 6
3 2 1
3 1 0