VertexCount: 20
0.152400 1.371600 -0.914400 1.000000 0.000000 0.000001 -0.000001 -0.000000 1.000000 -6.000000 1.000000 0 0 0 0 0.000000 0.000000 0.000000 0.000000
0.152400 -1.066800 -0.914400 1.000000 0.000000 0.000001 -0.000001 -0.000000 1.000000 -6.000000 2.000000 0 0 0 0 0.000000 0.000000 0.000000 0.000000
0.152400 -1.066800 -0.609600 1.000000 0.000000 0.000001 -0.000001 -0.000000 1.000000 -5.833333 2.000000 0 0 0 0 0.000000 0.000000 0.000000 0.000000
0.152400 1.066800 -0.609600 1.000000 0.000000 0.000001 -0.000001 0.000000 1.000000 -5.833333 1.125000 0 0 0 0 0.000000 0.000000 0.000000 0.000000
0.152400 1.371600 -0.609599 1.000000 0.000000 0.000001 -0.000001 -0.000000 1.000000 -5.833333 1.000000 0 0 0 0 0.000000 0.000000 0.000000 0.000000
0.152400 1.066800 0.609600 1.000000 0.000000 0.000000 -0.000000 -0.000000 1.000000 -5.166667 1.125000 0 0 0 0 0.000000 0.000000 0.000000 0.000000
0.152400 1.371600 0.609601 1.000000 0.000000 0.000000 -0.000000 -0.000000 1.000000 -5.166667 1.000000 0 0 0 0 0.000000 0.000000 0.000000 0.000000
0.152400 -1.066800 0.609600 1.000000 0.000000 0.000000 -0.000000 1.000000 0.000000 -5.166667 2.000000 0 0 0 0 0.000000 0.000000 0.000000 0.000000
0.152400 -1.066800 0.914400 1.000000 0.000000 0.000000 -0.000000 -0.000000 1.000000 -5.000000 2.000000 0 0 0 0 0.000000 0.000000 0.000000 0.000000
0.152400 1.371600 0.914400 1.000000 0.000000 0.000000 -0.000000 -0.000000 1.000000 -5.000000 1.000000 0 0 0 0 0.000000 0.000000 0.000000 0.000000
-0.152400 1.371600 -0.609599 -1.000000 -0.000000 -0.000003 -0.000002 -0.000000 1.000000 -5.833333 1.000000 0 0 0 0 0.000000 0.000000 0.000000 0.000000
-0.152400 1.066800 -0.609600 -1.000000 -0.000000 -0.000003 -0.000002 -0.000000 1.000000 -5.833333 1.125000 0 0 0 0 0.000000 0.000000 0.000000 0.000000
-0.152399 -1.066800 -0.609600 -1.000000 -0.000000 -0.000003 -0.000003 -0.000000 1.000000 -5.833333 2.000000 0 0 0 0 0.000000 0.000000 0.000000 0.000000
-0.152399 -1.066800 -0.914400 -1.000000 -0.000000 -0.000003 -0.000003 -0.000000 1.000000 -6.000000 2.000000 0 0 0 0 0.000000 0.000000 0.000000 0.000000
-0.152400 1.371600 -0.914400 -1.000000 -0.000000 -0.000003 -0.000003 -0.000001 1.000000 -6.000000 1.000000 0 0 0 0 0.000000 0.000000 0.000000 0.000000
-0.152400 1.371600 0.609601 -1.000000 -0.000000 -0.000000 0.000001 -0.000000 1.000000 -5.166667 1.000000 0 0 0 0 0.000000 0.000000 0.000000 0.000000
-0.152400 1.066800 0.609600 -1.000000 -0.000000 -0.000000 0.000001 -0.000000 1.000000 -5.166667 1.125000 0 0 0 0 0.000000 0.000000 0.000000 0.000000
-0.152400 1.371600 0.914400 -1.000000 -0.000000 0.000003 0.000003 0.000000 1.000000 -5.000000 1.000000 0 0 0 0 0.000000 0.000000 0.000000 0.000000
-0.152399 -1.066800 0.914400 -1.000000 -0.000000 0.000003 0.000003 0.000000 1.000000 -5.000000 2.000000 0 0 0 0 0.000000 0.000000 0.000000 0.000000
-0.152399 -1.066800 0.609600 -1.000000 -0.000000 0.000003 0.000003 0.000000 1.000000 -5.166667 2.000000 0 0 0 0 0.000000 0.000000 0.000000 0.000000
IndexCount: 36
0 2 1
0 4 2
4 5 3
4 6 5
6 8 7
6 9 8
17 19 18
17 15 19
15 11 16
15 10 11
10 14 13
10 13 12