VertexCount: 12
0.152401 1.066800 0.609600 0.000000 -1.000000 -0.000000 1.000000 0.000000 0.000000 -48.500000 12.000000 0 0 0 0 0.000000 0.000000 0.000000 0.000000
0.152401 1.066800 -0.609599 0.000000 -1.000000 -0.000000 1.000000 0.000000 0.000000 -48.500000 13.000000 0 0 0 0 0.000000 0.000000 0.000000 0.000000
-0.152401 1.066800 -0.609599 0.000000 -1.000000 -0.000000 1.000000 0.000000 0.000000 -49.500000 13.000000 0 0 0 0 0.000000 0.000000 0.000000 0.000000
-0.152401 1.066800 0.609600 0.000000 -1.000000 -0.000000 1.000000 0.000000 0.000000 -49.500000 12.000000 0 0 0 0 0.000000 0.000000 0.000000 0.000000
0.152401 1.066800 -0.609599 -0.000000 -0.000000 1.000000 1.000000 -0.000000 0.000000 -48.500000 2.000000 0 0 0 0 0.000000 0.000000 0.000000 0.000000
0.152401 -1.066800 -0.609600 -0.000000 -0.000000 1.000000 1.000000 -0.000000 0.000000 -48.500000 3.750000 0 0 0 0 0.000000 0.000000 0.000000 0.000000
-0.152401 -1.066800 -0.609600 -0.000000 -0.000000 1.000000 1.000000 -0.000000 0.000000 -49.500000 3.750000 0 0 0 0 0.000000 0.000000 0.000000 0.000000
-0.152401 1.066800 -0.609599 -0.000000 -0.000000 1.000000 1.000000 -0.000000 0.000000 -49.500000 2.000000 0 0 0 0 0.000000 0.000000 0.000000 0.000000
-0.152401 1.066800 0.609600 0.000000 0.000000 -1.000000 1.000000 -0.000000 0.000000 -49.500000 2.000000 0 0 0 0 0.000000 0.000000 0.000000 0.000000
-0.152401 -1.066800 0.609599 0.000000 0.000000 -1.000000 1.000000 -0.000000 0.000000 -49.500000 3.750000 0 0 0 0 0.000000 0.000000 0.000000 0.000000
0.152401 -1.066800 0.609599 0.000000 0.000000 -1.000000 1.000000 -0.000000 0.000000 -48.500000 3.750000 0 0 0 0 0.000000 0.000000 0.000000 0.000000
0.152401 1.066800 0.609600 0.000000 0.000000 -1.000000 1.000000 -0.000000 0.000000 -48.500000 2.000000 0 0 0 0 0.000000 0.000000 0.000000 0.000000
IndexCount: 18
3 1 0
3 2 1
7 5 4
7 6 5
10 9 8
11 10 8