VertexCount: 48
0.000000 0.114300 1.524000 0.000000 -0.000000 1.000000 1.000000 -0.000005 -0.000000 18.500000 1.765625 0 0 0 0 0.000000 0.000000 0.000000 0.000000
0.076200 0.076200 1.524000 0.000000 -0.000000 1.000000 1.000000 -0.000005 -0.000000 18.750000 1.796875 0 0 0 0 0.000000 0.000000 0.000000 0.000000
0.114300 -0.000001 1.524000 0.000000 -0.000000 1.000000 1.000000 -0.000005 -0.000000 18.875000 1.859375 0 0 0 0 0.000000 0.000000 0.000000 0.000000
0.076200 -0.076200 1.524000 0.000000 -0.000000 1.000000 1.000000 0.000001 0.000000 18.750000 1.921875 0 0 0 0 0.000000 0.000000 0.000000 0.000000
0.000000 -0.114300 1.524000 0.000000 -0.000000 1.000000 1.000000 -0.000005 -0.000000 18.500000 1.953125 0 0 0 0 0.000000 0.000000 0.000000 0.000000
-0.076200 -0.076200 1.524000 0.000000 -0.000000 1.000000 1.000000 0.000005 0.000000 18.250000 1.921875 0 0 0 0 0.000000 0.000000 0.000000 0.000000
-0.114300 -0.000001 1.524000 0.000000 -0.000000 1.000000 1.000000 -0.000001 -0.000000 18.125000 1.859375 0 0 0 0 0.000000 0.000000 0.000000 0.000000
-0.076200 0.076200 1.524000 0.000000 -0.000000 1.000000 1.000000 0.000005 0.000000 18.250000 1.796875 0 0 0 0 0.000000 0.000000 0.000000 0.000000
0.076200 -0.076200 -1.524000 0.000000 -0.000001 -1.000000 1.000000 0.000004 -0.000000 18.750000 1.921875 0 0 0 0 0.000000 0.000000 0.000000 0.000000
0.114300 -0.000001 -1.524000 0.000000 -0.000001 -1.000000 1.000000 0.000004 -0.000000 18.875000 1.859375 0 0 0 0 0.000000 0.000000 0.000000 0.000000
0.076200 0.076200 -1.524000 0.000000 -0.000001 -1.000000 1.000000 0.000004 -0.000000 18.750000 1.796875 0 0 0 0 0.000000 0.000000 0.000000 0.000000
0.000000 0.114300 -1.524000 0.000000 -0.000001 -1.000000 1.000000 -0.000003 0.000000 18.500000 1.765625 0 0 0 0 0.000000 0.000000 0.000000 0.000000
-0.076200 0.076200 -1.524000 0.000000 -0.000001 -1.000000 1.000000 0.000002 -0.000000 18.250000 1.796875 0 0 0 0 0.000000 0.000000 0.000000 0.000000
-0.114300 -0.000001 -1.524000 0.000000 -0.000001 -1.000000 1.000000 -0.000001 0.000000 18.125000 1.859375 0 0 0 0 0.000000 0.000000 0.000000 0.000000
-0.076200 -0.076200 -1.524000 0.000000 -0.000001 -1.000000 1.000000 0.000000 0.000000 18.250000 1.921875 0 0 0 0 0.000000 0.000000 0.000000 0.000000
0.000000 -0.114300 -1.524000 0.000000 -0.000001 -1.000000 1.000000 0.000000 0.000000 18.500000 1.953125 0 0 0 0 0.000000 0.000000 0.000000 0.000000
0.000000 -0.114300 1.524000 -0.447211 -0.894428 -0.000000 0.894428 -0.447211 -0.000000 18.500000 -6.218750 0 0 0 0 0.000000 0.000000 0.000000 0.000000
0.000000 -0.114300 -1.524000 -0.447211 -0.894428 -0.000000 0.894428 -0.447211 -0.000000 18.500000 -3.718750 0 0 0 0 0.000000 0.000000 0.000000 0.000000
-0.076200 -0.076200 -1.524000 -0.447211 -0.894428 -0.000000 0.894428 -0.447211 -0.000000 18.250000 -3.718750 0 0 0 0 0.000000 0.000000 0.000000 0.000000
-0.076200 -0.076200 1.524000 -0.447211 -0.894428 -0.000000 0.894428 -0.447211 -0.000000 18.250000 -6.218750 0 0 0 0 0.000000 0.000000 0.000000 0.000000
0.076200 -0.076200 1.524000 0.447211 -0.894428 -0.000000 0.894428 0.447211 0.000000 18.750000 -6.218750 0 0 0 0 0.000000 0.000000 0.000000 0.000000
0.076200 -0.076200 -1.524000 0.447211 -0.894428 -0.000000 0.894428 0.447211 0.000000 18.750000 -3.718750 0 0 0 0 0.000000 0.000000 0.000000 0.000000
0.000000 -0.114300 -1.524000 0.447211 -0.894428 -0.000000 0.894428 0.447211 0.000000 18.500000 -3.718750 0 0 0 0 0.000000 0.000000 0.000000 0.000000
0.000000 -0.114300 1.524000 0.447211 -0.894428 -0.000000 0.894428 0.447211 0.000000 18.500000 -6.218750 0 0 0 0 0.000000 0.000000 0.000000 0.000000
-0.114300 -0.000001 -1.524000 -0.894428 -0.447211 -0.000000 -0.447211 0.894429 0.000000 -8.625000 3.750000 0 0 0 0 0.000000 0.000000 0.000000 0.000000
-0.114300 -0.000001 1.524000 -0.894428 -0.447211 -0.000000 -0.447211 0.894429 0.000000 -8.625000 6.250000 0 0 0 0 0.000000 0.000000 0.000000 0.000000
-0.076200 -0.076200 1.524000 -0.894428 -0.447211 -0.000000 -0.447211 0.894429 0.000000 -8.875000 6.250000 0 0 0 0 0.000000 0.000000 0.000000 0.000000
-0.076200 -0.076200 -1.524000 -0.894428 -0.447211 -0.000000 -0.447211 0.894429 0.000000 -8.875000 3.750000 0 0 0 0 0.000000 0.000000 0.000000 0.000000
0.114300 -0.000001 1.524000 0.894426 -0.447216 -0.000000 0.447215 0.894426 -0.000000 -8.625000 6.250000 0 0 0 0 0.000000 0.000000 0.000000 0.000000
0.114300 -0.000001 -1.524000 0.894426 -0.447216 -0.000000 0.447215 0.894426 -0.000000 -8.625000 3.750000 0 0 0 0 0.000000 0.000000 0.000000 0.000000
0.076200 -0.076200 -1.524000 0.894426 -0.447216 -0.000000 0.447215 0.894426 -0.000000 -8.875000 3.750000 0 0 0 0 0.000000 0.000000 0.000000 0.000000
0.076200 -0.076200 1.524000 0.894426 -0.447216 -0.000000 0.447215 0.894426 -0.000000 -8.875000 6.250000 0 0 0 0 0.000000 0.000000 0.000000 0.000000
-0.076200 0.076200 -1.524000 -0.894428 0.447211 0.000000 0.447211 0.894429 0.000000 -8.375000 3.750000 0 0 0 0 0.000000 0.000000 0.000000 0.000000
-0.076200 0.076200 1.524000 -0.894428 0.447211 0.000000 0.447211 0.894429 0.000000 -8.375000 6.250000 0 0 0 0 0.000000 0.000000 0.000000 0.000000
-0.114300 -0.000001 1.524000 -0.894428 0.447211 0.000000 0.447211 0.894429 0.000000 -8.625000 6.250000 0 0 0 0 0.000000 0.000000 0.000000 0.000000
-0.114300 -0.000001 -1.524000 -0.894428 0.447211 0.000000 0.447211 0.894429 0.000000 -8.625000 3.750000 0 0 0 0 0.000000 0.000000 0.000000 0.000000
0.076200 0.076200 1.524000 0.894426 0.447216 0.000000 -0.447215 0.894426 -0.000000 -8.375000 6.250000 0 0 0 0 0.000000 0.000000 0.000000 0.000000
0.076200 0.076200 -1.524000 0.894426 0.447216 0.000000 -0.447215 0.894426 -0.000000 -8.375000 3.750000 0 0 0 0 0.000000 0.000000 0.000000 0.000000
0.114300 -0.000001 -1.524000 0.894426 0.447216 0.000000 -0.447215 0.894426 -0.000000 -8.625000 3.750000 0 0 0 0 0.000000 0.000000 0.000000 0.000000
0.114300 -0.000001 1.524000 0.894426 0.447216 0.000000 -0.447215 0.894426 -0.000000 -8.625000 6.250000 0 0 0 0 0.000000 0.000000 0.000000 0.000000
0.000000 0.114300 -1.524000 -0.447214 0.894427 0.000000 0.894427 0.447214 -0.000000 18.500000 -3.718750 0 0 0 0 0.000000 0.000000 0.000000 0.000000
0.000000 0.114300 1.524000 -0.447214 0.894427 0.000000 0.894427 0.447214 -0.000000 18.500000 -6.218750 0 0 0 0 0.000000 0.000000 0.000000 0.000000
-0.076200 0.076200 1.524000 -0.447214 0.894427 0.000000 0.894427 0.447214 -0.000000 18.250000 -6.218750 0 0 0 0 0.000000 0.000000 0.000000 0.000000
-0.076200 0.076200 -1.524000 -0.447214 0.894427 0.000000 0.894427 0.447214 -0.000000 18.250000 -3.718750 0 0 0 0 0.000000 0.000000 0.000000 0.000000
0.076200 0.076200 -1.524000 0.447214 0.894427 0.000000 0.894427 -0.447214 0.000000 18.750000 -3.718750 0 0 0 0 0.000000 0.000000 0.000000 0.000000
0.076200 0.076200 1.524000 0.447214 0.894427 0.000000 0.894427 -0.447214 0.000000 18.750000 -6.218750 0 0 0 0 0.000000 0.000000 0.000000 0.000000
0.000000 0.114300 1.524000 0.447214 0.894427 0.000000 0.894427 -0.447214 0.000000 18.500000 -6.218750 0 0 0 0 0.000000 0.000000 0.000000 0.000000
0.000000 0.114300 -1.524000 0.447214 0.894427 0.000000 0.894427 -0.447214 0.000000 18.500000 -3.718750 0 0 0 0 0.000000 0.000000 0.000000 0.000000
IndexCount: 84
0 7 6
0 6 5
0 5 4
0 4 3
0 3 2
2 1 0
8 15 14
8 14 13
8 13 12
8 12 11
8 11 10
10 9 8
19 17 16
19 18 17
23 21 20
23 22 21
27 25 24
27 26 25
31 29 28
31 30 29
35 33 32
35 34 33
39 37 36
39 38 37
43 41 40
43 42 41
47 45 44
47 46 45