VertexCount: 24
0.076200 0.304800 0.000000 1.000000 0.000000 -0.000000 0.000000 -0.000001 1.000000 7.468750 7.000000 0 0 0 0 0.000000 0.000000 0.000000 0.000000
0.076200 0.266700 -0.152400 1.000000 0.000000 -0.000000 0.000000 -0.000001 1.000000 7.218750 7.062500 0 0 0 0 0.000000 0.000000 0.000000 0.000000
0.076200 0.152400 -0.266700 1.000000 0.000000 -0.000000 0.000000 -0.000001 1.000000 7.031250 7.250000 0 0 0 0 0.000000 0.000000 0.000000 0.000000
0.076200 0.000000 -0.304800 1.000000 0.000000 -0.000000 0.000000 0.000001 1.000000 6.968750 7.500000 0 0 0 0 0.000000 0.000000 0.000000 0.000000
0.076200 -0.152400 -0.266700 1.000000 0.000000 -0.000000 0.000000 0.000001 1.000000 7.031250 7.750000 0 0 0 0 0.000000 0.000000 0.000000 0.000000
0.076200 -0.266700 -0.152400 1.000000 0.000000 -0.000000 0.000000 0.000001 1.000000 7.218750 7.937500 0 0 0 0 0.000000 0.000000 0.000000 0.000000
0.076200 -0.304800 0.000000 1.000000 0.000000 -0.000000 0.000000 -0.000002 1.000000 7.468750 8.000000 0 0 0 0 0.000000 0.000000 0.000000 0.000000
0.076200 -0.266700 0.152400 1.000000 0.000000 -0.000000 0.000000 -0.000000 1.000000 7.718750 7.937500 0 0 0 0 0.000000 0.000000 0.000000 0.000000
0.076200 -0.152400 0.266701 1.000000 0.000000 -0.000000 0.000000 0.000001 1.000000 7.906250 7.750000 0 0 0 0 0.000000 0.000000 0.000000 0.000000
0.076200 0.000000 0.304800 1.000000 0.000000 -0.000000 0.000000 -0.000001 1.000000 7.968750 7.500000 0 0 0 0 0.000000 0.000000 0.000000 0.000000
0.076200 0.152400 0.266701 1.000000 0.000000 -0.000000 0.000000 -0.000001 1.000000 7.906250 7.250000 0 0 0 0 0.000000 0.000000 0.000000 0.000000
0.076200 0.266700 0.152400 1.000000 0.000000 -0.000000 0.000000 -0.000003 1.000000 7.718750 7.062500 0 0 0 0 0.000000 0.000000 0.000000 0.000000
-0.076200 -0.266700 -0.152400 -1.000000 0.000000 -0.000000 -0.000000 0.000000 1.000000 7.218750 7.937500 0 0 0 0 0.000000 0.000000 0.000000 0.000000
-0.076200 -0.152400 -0.266700 -1.000000 0.000000 -0.000000 -0.000000 0.000000 1.000000 7.031250 7.750000 0 0 0 0 0.000000 0.000000 0.000000 0.000000
-0.076200 0.000000 -0.304800 -1.000000 0.000000 -0.000000 -0.000000 0.000000 1.000000 6.968750 7.500000 0 0 0 0 0.000000 0.000000 0.000000 0.000000
-0.076200 0.152400 -0.266700 -1.000000 0.000000 -0.000000 -0.000000 0.000000 1.000000 7.031250 7.250000 0 0 0 0 0.000000 0.000000 0.000000 0.000000
-0.076200 0.266700 -0.152400 -1.000000 0.000000 -0.000000 -0.000000 0.000002 1.000000 7.218750 7.062500 0 0 0 0 0.000000 0.000000 0.000000 0.000000
-0.076200 0.304800 0.000000 -1.000000 0.000000 -0.000000 -0.000000 -0.000000 1.000000 7.468750 7.000000 0 0 0 0 0.000000 0.000000 0.000000 0.000000
-0.076200 0.266700 0.152400 -1.000000 0.000000 -0.000000 -0.000000 -0.000002 1.000000 7.718750 7.062500 0 0 0 0 0.000000 0.000000 0.000000 0.000000
-0.076200 0.152400 0.266701 -1.000000 0.000000 -0.000000 -0.000000 0.000000 1.000000 7.906250 7.250000 0 0 0 0 0.000000 0.000000 0.000000 0.000000
-0.076200 0.000000 0.304800 -1.000000 0.000000 -0.000000 -0.000000 0.000000 1.000000 7.968750 7.500000 0 0 0 0 0.000000 0.000000 0.000000 0.000000
-0.076200 -0.152400 0.266701 -1.000000 0.000000 -0.000000 -0.000000 0.000000 1.000000 7.906250 7.750000 0 0 0 0 0.000000 0.000000 0.000000 0.000000
-0.076200 -0.266700 0.152400 -1.000000 0.000000 -0.000000 -0.000000 -0.000001 1.000000 7.718750 7.937500 0 0 0 0 0.000000 0.000000 0.000000 0.000000
-0.076200 -0.304800 0.000000 -1.000000 0.000000 -0.000000 -0.000000 -0.000001 1.000000 7.468750 8.000000 0 0 0 0 0.000000 0.000000 0.000000 0.000000
IndexCount: 60
0 11 10
0 10 9
0 9 8
0 8 7
0 7 6
0 6 5
0 5 4
0 4 3
0 3 2
2 1 0
12 23 22
12 22 21
12 21 20
12 20 19
12 19 18
12 18 17
12 17 16
12 16 15
12 15 14
14 13 12