VertexCount: 8
-0.304800 0.609600 1.524000 -1.000000 0.000000 0.000000 0.000000 0.000000 1.000000 1.993750 1.492188 0 0 0 0 0.000000 0.000000 0.000000 0.000000
-0.304800 -0.609600 1.524000 -1.000000 0.000000 0.000000 0.000000 0.000000 1.000000 1.993750 1.992188 0 0 0 0 0.000000 0.000000 0.000000 0.000000
-0.304800 -0.609600 -1.524000 -1.000000 0.000000 0.000000 0.000000 0.000000 1.000000 0.993750 1.992188 0 0 0 0 0.000000 0.000000 0.000000 0.000000
-0.304800 0.609600 -1.524000 -1.000000 0.000000 0.000000 0.000000 0.000000 1.000000 0.993750 1.492188 0 0 0 0 0.000000 0.000000 0.000000 0.000000
0.304800 0.609600 -1.524000 1.000000 0.000000 0.000000 0.000000 0.000000 1.000000 0.993750 1.492188 0 0 0 0 0.000000 0.000000 0.000000 0.000000
0.304800 -0.609600 -1.524000 1.000000 0.000000 0.000000 0.000000 0.000000 1.000000 0.993750 1.992188 0 0 0 0 0.000000 0.000000 0.000000 0.000000
0.304800 -0.609600 1.524000 1.000000 0.000000 0.000000 0.000000 0.000000 1.000000 1.993750 1.992188 0 0 0 0 0.000000 0.000000 0.000000 0.000000
0.304800 0.609600 1.524000 1.000000 0.000000 0.000000 0.000000 0.000000 1.000000 1.993750 1.492188 0 0 0 0 0.000000 0.000000 0.000000 0.000000
IndexCount: 12
3 1 0
3 2 1
7 5 4
7 6 5