VertexCount: 48
0.076200 -0.304800 0.000000 0.000000 -0.970143 0.242536 1.000000 0.000000 0.000000 20.500000 -15.312500 0 0 0 0 0.000000 0.000000 0.000000 0.000000
-0.076200 -0.304800 0.000000 0.000000 -0.970143 0.242536 1.000000 0.000000 0.000000 20.000000 -15.312500 0 0 0 0 0.000000 0.000000 0.000000 0.000000
-0.076200 -0.266700 0.152400 0.000000 -0.970143 0.242536 1.000000 0.000000 0.000000 20.000000 -15.812500 0 0 0 0 0.000000 0.000000 0.000000 0.000000
0.076200 -0.266700 0.152400 0.000000 -0.970143 0.242536 1.000000 0.000000 0.000000 20.500000 -15.812500 0 0 0 0 0.000000 0.000000 0.000000 0.000000
0.076200 -0.266700 -0.152400 0.000000 -0.970142 -0.242536 1.000000 0.000000 0.000000 20.500000 -14.812500 0 0 0 0 0.000000 0.000000 0.000000 0.000000
-0.076200 -0.266700 -0.152400 0.000000 -0.970142 -0.242536 1.000000 0.000000 0.000000 20.000000 -14.812500 0 0 0 0 0.000000 0.000000 0.000000 0.000000
-0.076200 -0.304800 0.000000 0.000000 -0.970142 -0.242536 1.000000 0.000000 0.000000 20.000000 -15.312500 0 0 0 0 0.000000 0.000000 0.000000 0.000000
0.076200 -0.304800 0.000000 0.000000 -0.970142 -0.242536 1.000000 0.000000 0.000000 20.500000 -15.312500 0 0 0 0 0.000000 0.000000 0.000000 0.000000
-0.076200 -0.152400 0.266701 0.000000 -0.707107 0.707107 1.000000 0.000000 0.000000 20.000000 -16.000000 0 0 0 0 0.000000 0.000000 0.000000 0.000000
0.076200 -0.152400 0.266701 0.000000 -0.707107 0.707107 1.000000 0.000000 0.000000 20.500000 -16.000000 0 0 0 0 0.000000 0.000000 0.000000 0.000000
0.076200 -0.266700 0.152400 0.000000 -0.707107 0.707107 1.000000 0.000000 0.000000 20.500000 -15.625000 0 0 0 0 0.000000 0.000000 0.000000 0.000000
-0.076200 -0.266700 0.152400 0.000000 -0.707107 0.707107 1.000000 0.000000 0.000000 20.000000 -15.625000 0 0 0 0 0.000000 0.000000 0.000000 0.000000
0.076200 -0.152400 -0.266700 0.000000 -0.707107 -0.707107 1.000000 0.000000 0.000000 20.500000 -14.250000 0 0 0 0 0.000000 0.000000 0.000000 0.000000
-0.076200 -0.152400 -0.266700 0.000000 -0.707107 -0.707107 1.000000 0.000000 0.000000 20.000000 -14.250000 0 0 0 0 0.000000 0.000000 0.000000 0.000000
-0.076200 -0.266700 -0.152400 0.000000 -0.707107 -0.707107 1.000000 0.000000 0.000000 20.000000 -14.625000 0 0 0 0 0.000000 0.000000 0.000000 0.000000
0.076200 -0.266700 -0.152400 0.000000 -0.707107 -0.707107 1.000000 0.000000 0.000000 20.500000 -14.625000 0 0 0 0 0.000000 0.000000 0.000000 0.000000
-0.076200 0.000000 0.304800 0.000000 -0.242536 0.970142 1.000000 0.000000 0.000000 20.000000 14.625000 0 0 0 0 0.000000 0.000000 0.000000 0.000000
0.076200 0.000000 0.304800 0.000000 -0.242536 0.970142 1.000000 0.000000 0.000000 20.500000 14.625000 0 0 0 0 0.000000 0.000000 0.000000 0.000000
0.076200 -0.152400 0.266701 0.000000 -0.242536 0.970142 1.000000 0.000000 0.000000 20.500000 15.125000 0 0 0 0 0.000000 0.000000 0.000000 0.000000
-0.076200 -0.152400 0.266701 0.000000 -0.242536 0.970142 1.000000 0.000000 0.000000 20.000000 15.125000 0 0 0 0 0.000000 0.000000 0.000000 0.000000
0.076200 0.000000 -0.304800 0.000000 -0.242535 -0.970143 1.000000 0.000000 0.000000 20.500000 14.625000 0 0 0 0 0.000000 0.000000 0.000000 0.000000
-0.076200 0.000000 -0.304800 0.000000 -0.242535 -0.970143 1.000000 0.000000 0.000000 20.000000 14.625000 0 0 0 0 0.000000 0.000000 0.000000 0.000000
-0.076200 -0.152400 -0.266700 0.000000 -0.242535 -0.970143 1.000000 0.000000 0.000000 20.000000 15.125000 0 0 0 0 0.000000 0.000000 0.000000 0.000000
0.076200 -0.152400 -0.266700 0.000000 -0.242535 -0.970143 1.000000 0.000000 0.000000 20.500000 15.125000 0 0 0 0 0.000000 0.000000 0.000000 0.000000
-0.076200 0.152400 0.266701 0.000000 0.242535 0.970143 1.000000 0.000000 0.000000 20.000000 14.125000 0 0 0 0 0.000000 0.000000 0.000000 0.000000
0.076200 0.152400 0.266701 0.000000 0.242535 0.970143 1.000000 0.000000 0.000000 20.500000 14.125000 0 0 0 0 0.000000 0.000000 0.000000 0.000000
0.076200 0.000000 0.304800 0.000000 0.242535 0.970143 1.000000 0.000000 0.000000 20.500000 14.625000 0 0 0 0 0.000000 0.000000 0.000000 0.000000
-0.076200 0.000000 0.304800 0.000000 0.242535 0.970143 1.000000 0.000000 0.000000 20.000000 14.625000 0 0 0 0 0.000000 0.000000 0.000000 0.000000
0.076200 0.152400 -0.266700 0.000000 0.242536 -0.970142 1.000000 0.000000 0.000000 20.500000 14.125000 0 0 0 0 0.000000 0.000000 0.000000 0.000000
-0.076200 0.152400 -0.266700 0.000000 0.242536 -0.970142 1.000000 0.000000 0.000000 20.000000 14.125000 0 0 0 0 0.000000 0.000000 0.000000 0.000000
-0.076200 0.000000 -0.304800 0.000000 0.242536 -0.970142 1.000000 0.000000 0.000000 20.000000 14.625000 0 0 0 0 0.000000 0.000000 0.000000 0.000000
0.076200 0.000000 -0.304800 0.000000 0.242536 -0.970142 1.000000 0.000000 0.000000 20.500000 14.625000 0 0 0 0 0.000000 0.000000 0.000000 0.000000
-0.076200 0.266700 0.152400 0.000000 0.707107 0.707107 1.000000 0.000000 0.000000 20.000000 -15.625000 0 0 0 0 0.000000 0.000000 0.000000 0.000000
0.076200 0.266700 0.152400 0.000000 0.707107 0.707107 1.000000 0.000000 0.000000 20.500000 -15.625000 0 0 0 0 0.000000 0.000000 0.000000 0.000000
0.076200 0.152400 0.266701 0.000000 0.707107 0.707107 1.000000 0.000000 0.000000 20.500000 -16.000000 0 0 0 0 0.000000 0.000000 0.000000 0.000000
-0.076200 0.152400 0.266701 0.000000 0.707107 0.707107 1.000000 0.000000 0.000000 20.000000 -16.000000 0 0 0 0 0.000000 0.000000 0.000000 0.000000
0.076200 0.266700 -0.152400 0.000000 0.707107 -0.707107 1.000000 0.000000 0.000000 20.500000 -14.812500 0 0 0 0 0.000000 0.000000 0.000000 0.000000
-0.076200 0.266700 -0.152400 0.000000 0.707107 -0.707107 1.000000 0.000000 0.000000 20.000000 -14.812500 0 0 0 0 0.000000 0.000000 0.000000 0.000000
-0.076200 0.152400 -0.266700 0.000000 0.707107 -0.707107 1.000000 0.000000 0.000000 20.000000 -14.437500 0 0 0 0 0.000000 0.000000 0.000000 0.000000
0.076200 0.152400 -0.266700 0.000000 0.707107 -0.707107 1.000000 0.000000 0.000000 20.500000 -14.437500 0 0 0 0 0.000000 0.000000 0.000000 0.000000
0.076200 0.266700 0.152400 0.000000 0.970142 0.242536 1.000000 0.000000 0.000000 20.500000 -15.812500 0 0 0 0 0.000000 0.000000 0.000000 0.000000
-0.076200 0.266700 0.152400 0.000000 0.970142 0.242536 1.000000 0.000000 0.000000 20.000000 -15.812500 0 0 0 0 0.000000 0.000000 0.000000 0.000000
-0.076200 0.304800 0.000000 0.000000 0.970142 0.242536 1.000000 0.000000 0.000000 20.000000 -15.312500 0 0 0 0 0.000000 0.000000 0.000000 0.000000
0.076200 0.304800 0.000000 0.000000 0.970142 0.242536 1.000000 0.000000 0.000000 20.500000 -15.312500 0 0 0 0 0.000000 0.000000 0.000000 0.000000
0.076200 0.304800 0.000000 0.000000 0.970143 -0.242536 1.000000 0.000000 0.000000 20.500000 -15.312500 0 0 0 0 0.000000 0.000000 0.000000 0.000000
-0.076200 0.304800 0.000000 0.000000 0.970143 -0.242536 1.000000 0.000000 0.000000 20.000000 -15.312500 0 0 0 0 0.000000 0.000000 0.000000 0.000000
-0.076200 0.266700 -0.152400 0.000000 0.970143 -0.242536 1.000000 0.000000 0.000000 20.000000 -14.812500 0 0 0 0 0.000000 0.000000 0.000000 0.000000
0.076200 0.266700 -0.152400 0.000000 0.970143 -0.242536 1.000000 0.000000 0.000000 20.500000 -14.812500 0 0 0 0 0.000000 0.000000 0.000000 0.000000
IndexCount: 72
3 1 0
3 2 1
7 5 4
7 6 5
11 9 8
11 10 9
15 13 12
15 14 13
19 17 16
19 18 17
23 21 20
23 22 21
27 25 24
27 26 25
31 29 28
31 30 29
35 33 32
35 34 33
39 37 36
39 38 37
43 41 40
43 42 41
47 45 44
47 46 45