VertexCount: 192
-0.419100 -0.685800 1.524000 0.000000 -0.000000 1.000000 1.000000 -0.000005 -0.000000 18.500000 3.078125 0 0 0 0 0.000000 0.000000 0.000000 0.000000 
-0.342900 -0.723900 1.524000 0.000000 -0.000000 1.000000 1.000000 -0.000005 -0.000000 18.750000 3.109375 0 0 0 0 0.000000 0.000000 0.000000 0.000000 
-0.304800 -0.800100 1.524000 0.000000 -0.000000 1.000000 1.000000 -0.000005 -0.000000 18.875000 3.171875 0 0 0 0 0.000000 0.000000 0.000000 0.000000 
-0.342900 -0.876301 1.524000 0.000000 -0.000000 1.000000 1.000000 0.000001 0.000000 18.750000 3.234375 0 0 0 0 0.000000 0.000000 0.000000 0.000000 
-0.419100 -0.914400 1.524000 0.000000 -0.000000 1.000000 1.000000 -0.000005 -0.000000 18.500000 3.265625 0 0 0 0 0.000000 0.000000 0.000000 0.000000 
-0.495300 -0.876301 1.524000 0.000000 -0.000000 1.000000 1.000000 0.000005 0.000000 18.250000 3.234375 0 0 0 0 0.000000 0.000000 0.000000 0.000000 
-0.533400 -0.800100 1.524000 0.000000 -0.000000 1.000000 1.000000 -0.000001 -0.000000 18.125000 3.171875 0 0 0 0 0.000000 0.000000 0.000000 0.000000 
-0.495300 -0.723900 1.524000 0.000000 -0.000000 1.000000 1.000000 0.000005 0.000000 18.250000 3.109375 0 0 0 0 0.000000 0.000000 0.000000 0.000000 
-0.342900 -0.876300 -1.524000 0.000000 -0.000001 -1.000000 1.000000 0.000004 -0.000000 18.750000 3.234375 0 0 0 0 0.000000 0.000000 0.000000 0.000000 
-0.304800 -0.800100 -1.524000 0.000000 -0.000001 -1.000000 1.000000 0.000004 -0.000000 18.875000 3.171875 0 0 0 0 0.000000 0.000000 0.000000 0.000000 
-0.342900 -0.723900 -1.524000 0.000000 -0.000001 -1.000000 1.000000 0.000004 -0.000000 18.750000 3.109375 0 0 0 0 0.000000 0.000000 0.000000 0.000000 
-0.419100 -0.685800 -1.524000 0.000000 -0.000001 -1.000000 1.000000 -0.000003 0.000000 18.500000 3.078125 0 0 0 0 0.000000 0.000000 0.000000 0.000000 
-0.495300 -0.723900 -1.524000 0.000000 -0.000001 -1.000000 1.000000 0.000002 -0.000000 18.250000 3.109375 0 0 0 0 0.000000 0.000000 0.000000 0.000000 
-0.533400 -0.800100 -1.524000 0.000000 -0.000001 -1.000000 1.000000 -0.000001 0.000000 18.125000 3.171875 0 0 0 0 0.000000 0.000000 0.000000 0.000000 
-0.495300 -0.876300 -1.524000 0.000000 -0.000001 -1.000000 1.000000 0.000000 0.000000 18.250000 3.234375 0 0 0 0 0.000000 0.000000 0.000000 0.000000 
-0.419100 -0.914400 -1.524000 0.000000 -0.000001 -1.000000 1.000000 0.000000 0.000000 18.500000 3.265625 0 0 0 0 0.000000 0.000000 0.000000 0.000000 
-0.419100 -0.914400 1.524000 -0.447211 -0.894428 -0.000000 0.894428 -0.447211 -0.000000 18.187500 -6.218750 0 0 0 0 0.000000 0.000000 0.000000 0.000000 
-0.419100 -0.914400 -1.524000 -0.447211 -0.894428 -0.000000 0.894428 -0.447211 -0.000000 18.187500 -3.718750 0 0 0 0 0.000000 0.000000 0.000000 0.000000 
-0.495300 -0.876300 -1.524000 -0.447211 -0.894428 -0.000000 0.894428 -0.447211 -0.000000 17.937500 -3.718750 0 0 0 0 0.000000 0.000000 0.000000 0.000000 
-0.495300 -0.876301 1.524000 -0.447211 -0.894428 -0.000000 0.894428 -0.447211 -0.000000 17.937500 -6.218750 0 0 0 0 0.000000 0.000000 0.000000 0.000000 
-0.342900 -0.876301 1.524000 0.447211 -0.894428 -0.000000 0.894428 0.447211 0.000000 18.750000 -6.218750 0 0 0 0 0.000000 0.000000 0.000000 0.000000 
-0.342900 -0.876300 -1.524000 0.447211 -0.894428 -0.000000 0.894428 0.447211 0.000000 18.750000 -3.718750 0 0 0 0 0.000000 0.000000 0.000000 0.000000 
-0.419100 -0.914400 -1.524000 0.447211 -0.894428 -0.000000 0.894428 0.447211 0.000000 18.500000 -3.718750 0 0 0 0 0.000000 0.000000 0.000000 0.000000 
-0.419100 -0.914400 1.524000 0.447211 -0.894428 -0.000000 0.894428 0.447211 0.000000 18.500000 -6.218750 0 0 0 0 0.000000 0.000000 0.000000 0.000000 
-0.533400 -0.800100 -1.524000 -0.894428 -0.447211 -0.000000 -0.447211 0.894429 0.000000 -13.875000 3.750000 0 0 0 0 0.000000 0.000000 0.000000 0.000000 
-0.533400 -0.800100 1.524000 -0.894428 -0.447211 -0.000000 -0.447211 0.894429 0.000000 -13.875000 6.250000 0 0 0 0 0.000000 0.000000 0.000000 0.000000 
-0.495300 -0.876301 1.524000 -0.894428 -0.447211 -0.000000 -0.447211 0.894429 0.000000 -14.125000 6.250000 0 0 0 0 0.000000 0.000000 0.000000 0.000000 
-0.495300 -0.876300 -1.524000 -0.894428 -0.447211 -0.000000 -0.447211 0.894429 0.000000 -14.125000 3.750000 0 0 0 0 0.000000 0.000000 0.000000 0.000000 
-0.304800 -0.800100 1.524000 0.894426 -0.447216 -0.000000 0.447215 0.894426 -0.000000 -13.875000 6.250000 0 0 0 0 0.000000 0.000000 0.000000 0.000000 
-0.304800 -0.800100 -1.524000 0.894426 -0.447216 -0.000000 0.447215 0.894426 -0.000000 -13.875000 3.750000 0 0 0 0 0.000000 0.000000 0.000000 0.000000 
-0.342900 -0.876300 -1.524000 0.894426 -0.447216 -0.000000 0.447215 0.894426 -0.000000 -14.125000 3.750000 0 0 0 0 0.000000 0.000000 0.000000 0.000000 
-0.342900 -0.876301 1.524000 0.894426 -0.447216 -0.000000 0.447215 0.894426 -0.000000 -14.125000 6.250000 0 0 0 0 0.000000 0.000000 0.000000 0.000000 
-0.495300 -0.723900 -1.524000 -0.894428 0.447211 0.000000 0.447211 0.894429 0.000000 -13.625000 3.750000 0 0 0 0 0.000000 0.000000 0.000000 0.000000 
-0.495300 -0.723900 1.524000 -0.894428 0.447211 0.000000 0.447211 0.894429 0.000000 -13.625000 6.250000 0 0 0 0 0.000000 0.000000 0.000000 0.000000 
-0.533400 -0.800100 1.524000 -0.894428 0.447211 0.000000 0.447211 0.894429 0.000000 -13.875000 6.250000 0 0 0 0 0.000000 0.000000 0.000000 0.000000 
-0.533400 -0.800100 -1.524000 -0.894428 0.447211 0.000000 0.447211 0.894429 0.000000 -13.875000 3.750000 0 0 0 0 0.000000 0.000000 0.000000 0.000000 
-0.342900 -0.723900 1.524000 0.894426 0.447216 0.000000 -0.447215 0.894426 -0.000000 -13.625000 6.250000 0 0 0 0 0.000000 0.000000 0.000000 0.000000 
-0.342900 -0.723900 -1.524000 0.894426 0.447216 0.000000 -0.447215 0.894426 -0.000000 -13.625000 3.750000 0 0 0 0 0.000000 0.000000 0.000000 0.000000 
-0.304800 -0.800100 -1.524000 0.894426 0.447216 0.000000 -0.447215 0.894426 -0.000000 -13.875000 3.750000 0 0 0 0 0.000000 0.000000 0.000000 0.000000 
-0.304800 -0.800100 1.524000 0.894426 0.447216 0.000000 -0.447215 0.894426 -0.000000 -13.875000 6.250000 0 0 0 0 0.000000 0.000000 0.000000 0.000000 
-0.419100 -0.685799 -1.524000 -0.447214 0.894427 0.000000 0.894427 0.447214 -0.000000 18.500000 -3.718750 0 0 0 0 0.000000 0.000000 0.000000 0.000000 
-0.419100 -0.685800 1.524000 -0.447214 0.894427 0.000000 0.894427 0.447214 -0.000000 18.500000 -6.218750 0 0 0 0 0.000000 0.000000 0.000000 0.000000 
-0.495300 -0.723900 1.524000 -0.447214 0.894427 0.000000 0.894427 0.447214 -0.000000 18.250000 -6.218750 0 0 0 0 0.000000 0.000000 0.000000 0.000000 
-0.495300 -0.723900 -1.524000 -0.447214 0.894427 0.000000 0.894427 0.447214 -0.000000 18.250000 -3.718750 0 0 0 0 0.000000 0.000000 0.000000 0.000000 
-0.342900 -0.723900 -1.524000 0.447214 0.894427 0.000000 0.894427 -0.447214 0.000000 18.750000 -3.718750 0 0 0 0 0.000000 0.000000 0.000000 0.000000 
-0.342900 -0.723900 1.524000 0.447214 0.894427 0.000000 0.894427 -0.447214 0.000000 18.750000 -6.218750 0 0 0 0 0.000000 0.000000 0.000000 0.000000 
-0.419100 -0.685800 1.524000 0.447214 0.894427 0.000000 0.894427 -0.447214 0.000000 18.500000 -6.218750 0 0 0 0 0.000000 0.000000 0.000000 0.000000 
-0.419100 -0.685799 -1.524000 0.447214 0.894427 0.000000 0.894427 -0.447214 0.000000 18.500000 -3.718750 0 0 0 0 0.000000 0.000000 0.000000 0.000000 
-0.419100 0.914400 1.524000 0.000000 -0.000000 1.000000 1.000000 -0.000003 -0.000000 18.500000 1.765625 0 0 0 0 0.000000 0.000000 0.000000 0.000000 
-0.342900 0.876300 1.524000 0.000000 -0.000000 1.000000 1.000000 -0.000003 -0.000000 18.750000 1.796875 0 0 0 0 0.000000 0.000000 0.000000 0.000000 
-0.304800 0.800100 1.524000 0.000000 -0.000000 1.000000 1.000000 -0.000003 -0.000000 18.875000 1.859375 0 0 0 0 0.000000 0.000000 0.000000 0.000000 
-0.342900 0.723900 1.524000 0.000000 -0.000000 1.000000 1.000000 0.000000 0.000000 18.750000 1.921875 0 0 0 0 0.000000 0.000000 0.000000 0.000000 
-0.419100 0.685800 1.524000 0.000000 -0.000000 1.000000 1.000000 -0.000001 -0.000000 18.500000 1.953125 0 0 0 0 0.000000 0.000000 0.000000 0.000000 
-0.495300 0.723900 1.524000 0.000000 -0.000000 1.000000 1.000000 0.000001 0.000000 18.250000 1.921875 0 0 0 0 0.000000 0.000000 0.000000 0.000000 
-0.533400 0.800100 1.524000 0.000000 -0.000000 1.000000 1.000000 -0.000000 -0.000000 18.125000 1.859375 0 0 0 0 0.000000 0.000000 0.000000 0.000000 
-0.495300 0.876300 1.524000 0.000000 -0.000000 1.000000 1.000000 0.000003 0.000000 18.250000 1.796875 0 0 0 0 0.000000 0.000000 0.000000 0.000000 
-0.342900 0.723900 -1.524000 0.000000 -0.000001 -1.000000 1.000000 0.000000 0.000000 18.750000 1.921875 0 0 0 0 0.000000 0.000000 0.000000 0.000000 
-0.304800 0.800100 -1.524000 0.000000 -0.000001 -1.000000 1.000000 0.000000 0.000000 18.875000 1.859375 0 0 0 0 0.000000 0.000000 0.000000 0.000000 
-0.342900 0.876300 -1.524000 0.000000 -0.000001 -1.000000 1.000000 0.000000 0.000000 18.750000 1.796875 0 0 0 0 0.000000 0.000000 0.000000 0.000000 
-0.419100 0.914400 -1.524000 0.000000 -0.000001 -1.000000 1.000000 -0.000002 0.000000 18.500000 1.765625 0 0 0 0 0.000000 0.000000 0.000000 0.000000 
-0.495300 0.876300 -1.524000 0.000000 -0.000001 -1.000000 1.000000 0.000001 -0.000000 18.250000 1.796875 0 0 0 0 0.000000 0.000000 0.000000 0.000000 
-0.533400 0.800100 -1.524000 0.000000 -0.000001 -1.000000 1.000000 0.000000 0.000000 18.125000 1.859375 0 0 0 0 0.000000 0.000000 0.000000 0.000000 
-0.495300 0.723900 -1.524000 0.000000 -0.000001 -1.000000 1.000000 0.000000 0.000000 18.250000 1.921875 0 0 0 0 0.000000 0.000000 0.000000 0.000000 
-0.419100 0.685800 -1.524000 0.000000 -0.000001 -1.000000 1.000000 0.000000 0.000000 18.500000 1.953125 0 0 0 0 0.000000 0.000000 0.000000 0.000000 
-0.419100 0.685800 1.524000 -0.447214 -0.894427 -0.000000 0.894427 -0.447214 -0.000000 18.500000 -6.218750 0 0 0 0 0.000000 0.000000 0.000000 0.000000 
-0.419100 0.685800 -1.524000 -0.447214 -0.894427 -0.000000 0.894427 -0.447214 -0.000000 18.500000 -3.718750 0 0 0 0 0.000000 0.000000 0.000000 0.000000 
-0.495300 0.723900 -1.524000 -0.447214 -0.894427 -0.000000 0.894427 -0.447214 -0.000000 18.250000 -3.718750 0 0 0 0 0.000000 0.000000 0.000000 0.000000 
-0.495300 0.723900 1.524000 -0.447214 -0.894427 -0.000000 0.894427 -0.447214 -0.000000 18.250000 -6.218750 0 0 0 0 0.000000 0.000000 0.000000 0.000000 
-0.342900 0.723900 1.524000 0.447214 -0.894427 -0.000000 0.894427 0.447214 0.000000 18.750000 -6.218750 0 0 0 0 0.000000 0.000000 0.000000 0.000000 
-0.342900 0.723900 -1.524000 0.447214 -0.894427 -0.000000 0.894427 0.447214 0.000000 18.750000 -3.718750 0 0 0 0 0.000000 0.000000 0.000000 0.000000 
-0.419100 0.685800 -1.524000 0.447214 -0.894427 -0.000000 0.894427 0.447214 0.000000 18.500000 -3.718750 0 0 0 0 0.000000 0.000000 0.000000 0.000000 
-0.419100 0.685800 1.524000 0.447214 -0.894427 -0.000000 0.894427 0.447214 0.000000 18.500000 -6.218750 0 0 0 0 0.000000 0.000000 0.000000 0.000000 
-0.533400 0.800100 -1.524000 -0.894428 -0.447211 -0.000000 -0.447211 0.894429 0.000000 -8.625000 3.750000 0 0 0 0 0.000000 0.000000 0.000000 0.000000 
-0.533400 0.800100 1.524000 -0.894428 -0.447211 -0.000000 -0.447211 0.894429 0.000000 -8.625000 6.250000 0 0 0 0 0.000000 0.000000 0.000000 0.000000 
-0.495300 0.723900 1.524000 -0.894428 -0.447211 -0.000000 -0.447211 0.894428 0.000000 -8.875000 6.250000 0 0 0 0 0.000000 0.000000 0.000000 0.000000 
-0.495300 0.723900 -1.524000 -0.894428 -0.447211 -0.000000 -0.447211 0.894429 0.000000 -8.875000 3.750000 0 0 0 0 0.000000 0.000000 0.000000 0.000000 
-0.304800 0.800100 1.524000 0.894426 -0.447216 -0.000000 0.447216 0.894426 -0.000000 -8.625000 6.250000 0 0 0 0 0.000000 0.000000 0.000000 0.000000 
-0.304800 0.800100 -1.524000 0.894426 -0.447216 -0.000000 0.447216 0.894426 -0.000000 -8.625000 3.750000 0 0 0 0 0.000000 0.000000 0.000000 0.000000 
-0.342900 0.723900 -1.524000 0.894426 -0.447216 -0.000000 0.447215 0.894426 -0.000000 -8.875000 3.750000 0 0 0 0 0.000000 0.000000 0.000000 0.000000 
-0.342900 0.723900 1.524000 0.894426 -0.447216 -0.000000 0.447216 0.894426 -0.000000 -8.875000 6.250000 0 0 0 0 0.000000 0.000000 0.000000 0.000000 
-0.495300 0.876300 -1.524000 -0.894428 0.447212 0.000000 0.447212 0.894428 0.000000 -8.375000 3.750000 0 0 0 0 0.000000 0.000000 0.000000 0.000000 
-0.495300 0.876300 1.524000 -0.894428 0.447212 0.000000 0.447212 0.894428 0.000000 -8.375000 6.250000 0 0 0 0 0.000000 0.000000 0.000000 0.000000 
-0.533400 0.800100 1.524000 -0.894428 0.447212 0.000000 0.447212 0.894428 0.000000 -8.625000 6.250000 0 0 0 0 0.000000 0.000000 0.000000 0.000000 
-0.533400 0.800100 -1.524000 -0.894428 0.447212 0.000000 0.447212 0.894428 0.000000 -8.625000 3.750000 0 0 0 0 0.000000 0.000000 0.000000 0.000000 
-0.342900 0.876300 1.524000 0.894426 0.447216 0.000000 -0.447216 0.894426 -0.000000 -8.375000 6.250000 0 0 0 0 0.000000 0.000000 0.000000 0.000000 
-0.342900 0.876300 -1.524000 0.894426 0.447216 0.000000 -0.447216 0.894426 -0.000000 -8.375000 3.750000 0 0 0 0 0.000000 0.000000 0.000000 0.000000 
-0.304800 0.800100 -1.524000 0.894426 0.447216 0.000000 -0.447216 0.894426 -0.000000 -8.625000 3.750000 0 0 0 0 0.000000 0.000000 0.000000 0.000000 
-0.304800 0.800100 1.524000 0.894426 0.447216 0.000000 -0.447216 0.894426 -0.000000 -8.625000 6.250000 0 0 0 0 0.000000 0.000000 0.000000 0.000000 
-0.419100 0.914400 -1.524000 -0.447214 0.894427 0.000000 0.894427 0.447214 -0.000000 18.500000 -3.718750 0 0 0 0 0.000000 0.000000 0.000000 0.000000 
-0.419100 0.914400 1.524000 -0.447214 0.894427 0.000000 0.894427 0.447214 -0.000000 18.500000 -6.218750 0 0 0 0 0.000000 0.000000 0.000000 0.000000 
-0.495300 0.876300 1.524000 -0.447214 0.894427 0.000000 0.894427 0.447214 -0.000000 18.250000 -6.218750 0 0 0 0 0.000000 0.000000 0.000000 0.000000 
-0.495300 0.876300 -1.524000 -0.447214 0.894427 0.000000 0.894427 0.447214 -0.000000 18.250000 -3.718750 0 0 0 0 0.000000 0.000000 0.000000 0.000000 
-0.342900 0.876300 -1.524000 0.447214 0.894427 0.000000 0.894427 -0.447214 0.000000 18.750000 -3.718750 0 0 0 0 0.000000 0.000000 0.000000 0.000000 
-0.342900 0.876300 1.524000 0.447214 0.894427 0.000000 0.894427 -0.447214 0.000000 18.750000 -6.218750 0 0 0 0 0.000000 0.000000 0.000000 0.000000 
-0.419100 0.914400 1.524000 0.447214 0.894427 0.000000 0.894427 -0.447214 0.000000 18.500000 -6.218750 0 0 0 0 0.000000 0.000000 0.000000 0.000000 
-0.419100 0.914400 -1.524000 0.447214 0.894427 0.000000 0.894427 -0.447214 0.000000 18.500000 -3.718750 0 0 0 0 0.000000 0.000000 0.000000 0.000000 
0.342900 -0.876301 1.524000 0.000000 0.000002 1.000000 1.000000 -0.000004 0.000000 20.875000 3.234375 0 0 0 0 0.000000 0.000000 0.000000 0.000000 
0.304800 -0.800100 1.524000 0.000000 0.000002 1.000000 1.000000 -0.000004 0.000000 20.750000 3.171875 0 0 0 0 0.000000 0.000000 0.000000 0.000000 
0.342900 -0.723900 1.524000 0.000000 0.000002 1.000000 1.000000 -0.000004 0.000000 20.875000 3.109375 0 0 0 0 0.000000 0.000000 0.000000 0.000000 
0.419100 -0.685800 1.524000 0.000000 0.000002 1.000000 1.000000 0.000003 -0.000000 21.125000 3.078125 0 0 0 0 0.000000 0.000000 0.000000 0.000000 
0.495300 -0.723900 1.524000 0.000000 0.000002 1.000000 1.000000 -0.000002 0.000000 21.375000 3.109375 0 0 0 0 0.000000 0.000000 0.000000 0.000000 
0.533400 -0.800100 1.524000 0.000000 0.000002 1.000000 1.000000 0.000001 -0.000000 21.500000 3.171875 0 0 0 0 0.000000 0.000000 0.000000 0.000000 
0.495300 -0.876301 1.524000 0.000000 0.000002 1.000000 1.000000 0.000000 0.000000 21.375000 3.234375 0 0 0 0 0.000000 0.000000 0.000000 0.000000 
0.419100 -0.914400 1.524000 0.000000 0.000002 1.000000 1.000000 0.000000 0.000000 21.125000 3.265625 0 0 0 0 0.000000 0.000000 0.000000 0.000000 
0.419100 -0.685799 -1.524000 0.000000 0.000000 -1.000000 1.000000 0.000005 0.000000 21.125000 3.078125 0 0 0 0 0.000000 0.000000 0.000000 0.000000 
0.342900 -0.723900 -1.524000 0.000000 0.000000 -1.000000 1.000000 0.000005 0.000000 20.875000 3.109375 0 0 0 0 0.000000 0.000000 0.000000 0.000000 
0.304800 -0.800100 -1.524000 0.000000 0.000000 -1.000000 1.000000 0.000005 0.000000 20.750000 3.171875 0 0 0 0 0.000000 0.000000 0.000000 0.000000 
0.342900 -0.876300 -1.524000 0.000000 0.000000 -1.000000 1.000000 -0.000001 -0.000000 20.875000 3.234375 0 0 0 0 0.000000 0.000000 0.000000 0.000000 
0.419100 -0.914399 -1.524000 0.000000 0.000000 -1.000000 1.000000 0.000005 0.000000 21.125000 3.265625 0 0 0 0 0.000000 0.000000 0.000000 0.000000 
0.495300 -0.876300 -1.524000 0.000000 0.000000 -1.000000 1.000000 -0.000005 -0.000000 21.375000 3.234375 0 0 0 0 0.000000 0.000000 0.000000 0.000000 
0.533400 -0.800100 -1.524000 0.000000 0.000000 -1.000000 1.000000 0.000001 0.000000 21.500000 3.171875 0 0 0 0 0.000000 0.000000 0.000000 0.000000 
0.495300 -0.723900 -1.524000 0.000000 0.000000 -1.000000 1.000000 -0.000005 -0.000000 21.375000 3.109375 0 0 0 0 0.000000 0.000000 0.000000 0.000000 
0.495300 -0.876301 1.524000 0.447211 -0.894428 -0.000000 0.894428 0.447211 0.000000 21.062500 -6.218750 0 0 0 0 0.000000 0.000000 0.000000 0.000000 
0.495300 -0.876300 -1.524000 0.447211 -0.894428 -0.000000 0.894428 0.447211 0.000000 21.062500 -3.718750 0 0 0 0 0.000000 0.000000 0.000000 0.000000 
0.419100 -0.914399 -1.524000 0.447211 -0.894428 -0.000000 0.894428 0.447211 0.000000 20.812500 -3.718750 0 0 0 0 0.000000 0.000000 0.000000 0.000000 
0.419100 -0.914400 1.524000 0.447211 -0.894428 -0.000000 0.894428 0.447211 0.000000 20.812500 -6.218750 0 0 0 0 0.000000 0.000000 0.000000 0.000000 
0.419100 -0.914400 1.524000 -0.447211 -0.894428 -0.000000 0.894428 -0.447211 -0.000000 21.125000 -6.218750 0 0 0 0 0.000000 0.000000 0.000000 0.000000 
0.419100 -0.914399 -1.524000 -0.447211 -0.894428 -0.000000 0.894428 -0.447211 -0.000000 21.125000 -3.718750 0 0 0 0 0.000000 0.000000 0.000000 0.000000 
0.342900 -0.876300 -1.524000 -0.447211 -0.894428 -0.000000 0.894428 -0.447211 -0.000000 20.875000 -3.718750 0 0 0 0 0.000000 0.000000 0.000000 0.000000 
0.342900 -0.876301 1.524000 -0.447211 -0.894428 -0.000000 0.894428 -0.447211 -0.000000 20.875000 -6.218750 0 0 0 0 0.000000 0.000000 0.000000 0.000000 
0.533400 -0.800100 1.524000 0.894426 -0.447216 -0.000000 0.447215 0.894426 -0.000000 -13.875000 6.250000 0 0 0 0 0.000000 0.000000 0.000000 0.000000 
0.533400 -0.800100 -1.524000 0.894426 -0.447216 -0.000000 0.447215 0.894426 -0.000000 -13.875000 3.750000 0 0 0 0 0.000000 0.000000 0.000000 0.000000 
0.495300 -0.876300 -1.524000 0.894426 -0.447216 -0.000000 0.447215 0.894426 -0.000000 -14.125000 3.750000 0 0 0 0 0.000000 0.000000 0.000000 0.000000 
0.495300 -0.876301 1.524000 0.894426 -0.447216 -0.000000 0.447215 0.894426 -0.000000 -14.125000 6.250000 0 0 0 0 0.000000 0.000000 0.000000 0.000000 
0.304800 -0.800100 -1.524000 -0.894428 -0.447211 -0.000000 -0.447211 0.894429 0.000000 -13.875000 3.750000 0 0 0 0 0.000000 0.000000 0.000000 0.000000 
0.304800 -0.800100 1.524000 -0.894428 -0.447211 -0.000000 -0.447211 0.894429 0.000000 -13.875000 6.250000 0 0 0 0 0.000000 0.000000 0.000000 0.000000 
0.342900 -0.876301 1.524000 -0.894428 -0.447211 -0.000000 -0.447211 0.894429 0.000000 -14.125000 6.250000 0 0 0 0 0.000000 0.000000 0.000000 0.000000 
0.342900 -0.876300 -1.524000 -0.894428 -0.447211 -0.000000 -0.447211 0.894429 0.000000 -14.125000 3.750000 0 0 0 0 0.000000 0.000000 0.000000 0.000000 
0.495300 -0.723900 1.524000 0.894426 0.447216 0.000000 -0.447215 0.894426 -0.000000 -13.625000 6.250000 0 0 0 0 0.000000 0.000000 0.000000 0.000000 
0.495300 -0.723900 -1.524000 0.894426 0.447216 0.000000 -0.447215 0.894426 -0.000000 -13.625000 3.750000 0 0 0 0 0.000000 0.000000 0.000000 0.000000 
0.533400 -0.800100 -1.524000 0.894426 0.447216 0.000000 -0.447215 0.894426 -0.000000 -13.875000 3.750000 0 0 0 0 0.000000 0.000000 0.000000 0.000000 
0.533400 -0.800100 1.524000 0.894426 0.447216 0.000000 -0.447215 0.894426 -0.000000 -13.875000 6.250000 0 0 0 0 0.000000 0.000000 0.000000 0.000000 
0.342900 -0.723900 -1.524000 -0.894428 0.447211 0.000000 0.447211 0.894429 0.000000 -13.625000 3.750000 0 0 0 0 0.000000 0.000000 0.000000 0.000000 
0.342900 -0.723900 1.524000 -0.894428 0.447211 0.000000 0.447211 0.894429 0.000000 -13.625000 6.250000 0 0 0 0 0.000000 0.000000 0.000000 0.000000 
0.304800 -0.800100 1.524000 -0.894428 0.447211 0.000000 0.447211 0.894429 0.000000 -13.875000 6.250000 0 0 0 0 0.000000 0.000000 0.000000 0.000000 
0.304800 -0.800100 -1.524000 -0.894428 0.447211 0.000000 0.447211 0.894429 0.000000 -13.875000 3.750000 0 0 0 0 0.000000 0.000000 0.000000 0.000000 
0.495300 -0.723900 -1.524000 0.447214 0.894427 0.000000 0.894427 -0.447214 0.000000 21.375000 -3.718750 0 0 0 0 0.000000 0.000000 0.000000 0.000000 
0.495300 -0.723900 1.524000 0.447214 0.894427 0.000000 0.894427 -0.447214 0.000000 21.375000 -6.218750 0 0 0 0 0.000000 0.000000 0.000000 0.000000 
0.419100 -0.685800 1.524000 0.447214 0.894427 0.000000 0.894427 -0.447214 0.000000 21.125000 -6.218750 0 0 0 0 0.000000 0.000000 0.000000 0.000000 
0.419100 -0.685799 -1.524000 0.447214 0.894427 0.000000 0.894427 -0.447214 0.000000 21.125000 -3.718750 0 0 0 0 0.000000 0.000000 0.000000 0.000000 
0.419100 -0.685799 -1.524000 -0.447214 0.894427 0.000000 0.894427 0.447214 -0.000000 21.125000 -3.718750 0 0 0 0 0.000000 0.000000 0.000000 0.000000 
0.419100 -0.685800 1.524000 -0.447214 0.894427 0.000000 0.894427 0.447214 -0.000000 21.125000 -6.218750 0 0 0 0 0.000000 0.000000 0.000000 0.000000 
0.342900 -0.723900 1.524000 -0.447214 0.894427 0.000000 0.894427 0.447214 -0.000000 20.875000 -6.218750 0 0 0 0 0.000000 0.000000 0.000000 0.000000 
0.342900 -0.723900 -1.524000 -0.447214 0.894427 0.000000 0.894427 0.447214 -0.000000 20.875000 -3.718750 0 0 0 0 0.000000 0.000000 0.000000 0.000000 
0.342900 0.723900 1.524000 0.000000 0.000002 1.000000 1.000000 -0.000002 0.000000 20.875000 1.921875 0 0 0 0 0.000000 0.000000 0.000000 0.000000 
0.304800 0.800100 1.524000 0.000000 0.000002 1.000000 1.000000 -0.000002 0.000000 20.750000 1.859375 0 0 0 0 0.000000 0.000000 0.000000 0.000000 
0.342900 0.876300 1.524000 0.000000 0.000002 1.000000 1.000000 -0.000002 0.000000 20.875000 1.796875 0 0 0 0 0.000000 0.000000 0.000000 0.000000 
0.419100 0.914400 1.524000 0.000000 0.000002 1.000000 1.000000 0.000002 -0.000000 21.125000 1.765625 0 0 0 0 0.000000 0.000000 0.000000 0.000000 
0.495300 0.876300 1.524000 0.000000 0.000002 1.000000 1.000000 -0.000001 0.000000 21.375000 1.796875 0 0 0 0 0.000000 0.000000 0.000000 0.000000 
0.533400 0.800100 1.524000 0.000000 0.000002 1.000000 1.000000 0.000001 -0.000000 21.500000 1.859375 0 0 0 0 0.000000 0.000000 0.000000 0.000000 
0.495300 0.723900 1.524000 0.000000 0.000002 1.000000 1.000000 0.000000 0.000000 21.375000 1.921875 0 0 0 0 0.000000 0.000000 0.000000 0.000000 
0.419100 0.685800 1.524000 0.000000 0.000002 1.000000 1.000000 0.000000 0.000000 21.125000 1.953125 0 0 0 0 0.000000 0.000000 0.000000 0.000000 
0.419100 0.914400 -1.524000 0.000000 0.000000 -1.000000 1.000000 0.000003 0.000000 21.125000 1.765625 0 0 0 0 0.000000 0.000000 0.000000 0.000000 
0.342900 0.876300 -1.524000 0.000000 0.000000 -1.000000 1.000000 0.000003 0.000000 20.875000 1.796875 0 0 0 0 0.000000 0.000000 0.000000 0.000000 
0.304800 0.800100 -1.524000 0.000000 0.000000 -1.000000 1.000000 0.000003 0.000000 20.750000 1.859375 0 0 0 0 0.000000 0.000000 0.000000 0.000000 
0.342900 0.723900 -1.524000 0.000000 0.000000 -1.000000 1.000000 0.000001 0.000000 20.875000 1.921875 0 0 0 0 0.000000 0.000000 0.000000 0.000000 
0.419100 0.685800 -1.524000 0.000000 0.000000 -1.000000 1.000000 0.000000 0.000000 21.125000 1.953125 0 0 0 0 0.000000 0.000000 0.000000 0.000000 
0.495300 0.723900 -1.524000 0.000000 0.000000 -1.000000 1.000000 -0.000000 -0.000000 21.375000 1.921875 0 0 0 0 0.000000 0.000000 0.000000 0.000000 
0.533400 0.800100 -1.524000 0.000000 0.000000 -1.000000 1.000000 -0.000001 -0.000000 21.500000 1.859375 0 0 0 0 0.000000 0.000000 0.000000 0.000000 
0.495300 0.876300 -1.524000 0.000000 0.000000 -1.000000 1.000000 -0.000003 -0.000000 21.375000 1.796875 0 0 0 0 0.000000 0.000000 0.000000 0.000000 
0.495300 0.723900 1.524000 0.447214 -0.894427 -0.000000 0.894427 0.447214 0.000000 21.375000 -6.218750 0 0 0 0 0.000000 0.000000 0.000000 0.000000 
0.495300 0.723900 -1.524000 0.447214 -0.894427 -0.000000 0.894427 0.447214 0.000000 21.375000 -3.718750 0 0 0 0 0.000000 0.000000 0.000000 0.000000 
0.419100 0.685800 -1.524000 0.447214 -0.894427 -0.000000 0.894427 0.447214 0.000000 21.125000 -3.718750 0 0 0 0 0.000000 0.000000 0.000000 0.000000 
0.419100 0.685800 1.524000 0.447214 -0.894427 -0.000000 0.894427 0.447214 0.000000 21.125000 -6.218750 0 0 0 0 0.000000 0.000000 0.000000 0.000000 
0.419100 0.685800 1.524000 -0.447214 -0.894427 -0.000000 0.894427 -0.447214 -0.000000 21.125000 -6.218750 0 0 0 0 0.000000 0.000000 0.000000 0.000000 
0.419100 0.685800 -1.524000 -0.447214 -0.894427 -0.000000 0.894427 -0.447214 -0.000000 21.125000 -3.718750 0 0 0 0 0.000000 0.000000 0.000000 0.000000 
0.342900 0.723900 -1.524000 -0.447214 -0.894427 -0.000000 0.894427 -0.447214 -0.000000 20.875000 -3.718750 0 0 0 0 0.000000 0.000000 0.000000 0.000000 
0.342900 0.723900 1.524000 -0.447214 -0.894427 -0.000000 0.894427 -0.447214 -0.000000 20.875000 -6.218750 0 0 0 0 0.000000 0.000000 0.000000 0.000000 
0.533400 0.800100 1.524000 0.894426 -0.447216 -0.000000 0.447216 0.894426 -0.000000 -8.625000 6.250000 0 0 0 0 0.000000 0.000000 0.000000 0.000000 
0.533400 0.800100 -1.524000 0.894426 -0.447216 -0.000000 0.447216 0.894426 -0.000000 -8.625000 3.750000 0 0 0 0 0.000000 0.000000 0.000000 0.000000 
0.495300 0.723900 -1.524000 0.894426 -0.447216 -0.000000 0.447215 0.894426 -0.000000 -8.875000 3.750000 0 0 0 0 0.000000 0.000000 0.000000 0.000000 
0.495300 0.723900 1.524000 0.894426 -0.447216 -0.000000 0.447216 0.894426 -0.000000 -8.875000 6.250000 0 0 0 0 0.000000 0.000000 0.000000 0.000000 
0.304800 0.800100 -1.524000 -0.894428 -0.447211 -0.000000 -0.447211 0.894429 0.000000 -8.625000 3.750000 0 0 0 0 0.000000 0.000000 0.000000 0.000000 
0.304800 0.800100 1.524000 -0.894428 -0.447211 -0.000000 -0.447211 0.894429 0.000000 -8.625000 6.250000 0 0 0 0 0.000000 0.000000 0.000000 0.000000 
0.342900 0.723900 1.524000 -0.894428 -0.447211 -0.000000 -0.447211 0.894428 0.000000 -8.875000 6.250000 0 0 0 0 0.000000 0.000000 0.000000 0.000000 
0.342900 0.723900 -1.524000 -0.894428 -0.447211 -0.000000 -0.447211 0.894429 0.000000 -8.875000 3.750000 0 0 0 0 0.000000 0.000000 0.000000 0.000000 
0.495300 0.876300 1.524000 0.894426 0.447216 0.000000 -0.447216 0.894426 -0.000000 -8.375000 6.250000 0 0 0 0 0.000000 0.000000 0.000000 0.000000 
0.495300 0.876300 -1.524000 0.894426 0.447216 0.000000 -0.447216 0.894426 -0.000000 -8.375000 3.750000 0 0 0 0 0.000000 0.000000 0.000000 0.000000 
0.533400 0.800100 -1.524000 0.894426 0.447216 0.000000 -0.447216 0.894426 -0.000000 -8.625000 3.750000 0 0 0 0 0.000000 0.000000 0.000000 0.000000 
0.533400 0.800100 1.524000 0.894426 0.447216 0.000000 -0.447216 0.894426 -0.000000 -8.625000 6.250000 0 0 0 0 0.000000 0.000000 0.000000 0.000000 
0.342900 0.876300 -1.524000 -0.894428 0.447212 0.000000 0.447212 0.894428 0.000000 -8.375000 3.750000 0 0 0 0 0.000000 0.000000 0.000000 0.000000 
0.342900 0.876300 1.524000 -0.894428 0.447212 0.000000 0.447212 0.894428 0.000000 -8.375000 6.250000 0 0 0 0 0.000000 0.000000 0.000000 0.000000 
0.304800 0.800100 1.524000 -0.894428 0.447212 0.000000 0.447212 0.894428 0.000000 -8.625000 6.250000 0 0 0 0 0.000000 0.000000 0.000000 0.000000 
0.304800 0.800100 -1.524000 -0.894428 0.447212 0.000000 0.447212 0.894428 0.000000 -8.625000 3.750000 0 0 0 0 0.000000 0.000000 0.000000 0.000000 
0.495300 0.876300 -1.524000 0.447214 0.894427 0.000000 0.894427 -0.447214 0.000000 21.375000 -3.718750 0 0 0 0 0.000000 0.000000 0.000000 0.000000 
0.495300 0.876300 1.524000 0.447214 0.894427 0.000000 0.894427 -0.447214 0.000000 21.375000 -6.218750 0 0 0 0 0.000000 0.000000 0.000000 0.000000 
0.419100 0.914400 1.524000 0.447214 0.894427 0.000000 0.894427 -0.447214 0.000000 21.125000 -6.218750 0 0 0 0 0.000000 0.000000 0.000000 0.000000 
0.419100 0.914400 -1.524000 0.447214 0.894427 0.000000 0.894427 -0.447214 0.000000 21.125000 -3.718750 0 0 0 0 0.000000 0.000000 0.000000 0.000000 
0.419100 0.914400 -1.524000 -0.447214 0.894427 0.000000 0.894427 0.447214 -0.000000 21.125000 -3.718750 0 0 0 0 0.000000 0.000000 0.000000 0.000000 
0.419100 0.914400 1.524000 -0.447214 0.894427 0.000000 0.894427 0.447214 -0.000000 21.125000 -6.218750 0 0 0 0 0.000000 0.000000 0.000000 0.000000 
0.342900 0.876300 1.524000 -0.447214 0.894427 0.000000 0.894427 0.447214 -0.000000 20.875000 -6.218750 0 0 0 0 0.000000 0.000000 0.000000 0.000000 
0.342900 0.876300 -1.524000 -0.447214 0.894427 0.000000 0.894427 0.447214 -0.000000 20.875000 -3.718750 0 0 0 0 0.000000 0.000000 0.000000 0.000000 
IndexCount: 336
0 7 6
0 6 5
0 5 4
0 4 3
0 3 2
2 1 0
8 15 14
8 14 13
8 13 12
8 12 11
8 11 10
10 9 8
19 17 16
19 18 17
23 21 20
23 22 21
27 25 24
27 26 25
31 29 28
31 30 29
35 33 32
35 34 33
39 37 36
39 38 37
43 41 40
43 42 41
47 45 44
47 46 45
48 55 54
48 54 53
48 53 52
48 52 51
48 51 50
50 49 48
56 63 62
56 62 61
56 61 60
56 60 59
56 59 58
58 57 56
67 65 64
67 66 65
71 69 68
71 70 69
75 73 72
75 74 73
79 77 76
79 78 77
83 81 80
83 82 81
87 85 84
87 86 85
91 89 88
91 90 89
95 93 92
95 94 93
96 103 102
96 102 101
96 101 100
96 100 99
96 99 98
98 97 96
104 111 110
104 110 109
104 109 108
104 108 107
104 107 106
106 105 104
115 113 112
115 114 113
119 117 116
119 118 117
123 121 120
123 122 121
127 125 124
127 126 125
131 129 128
131 130 129
135 133 132
135 134 133
139 137 136
139 138 137
143 141 140
143 142 141
144 151 150
144 150 149
144 149 148
144 148 147
144 147 146
146 145 144
152 159 158
152 158 157
152 157 156
152 156 155
152 155 154
154 153 152
163 161 160
163 162 161
167 165 164
167 166 165
171 169 168
171 170 169
175 173 172
175 174 173
179 177 176
179 178 177
183 181 180
183 182 181
187 185 184
187 186 185
191 189 188
191 190 189