VertexCount: 4
-21.602699 -2.247898 -14.935200 1.000000 0.000000 0.000000 0.000000 -0.000000 1.000000 -11.002348 1.987456 0 0 0 0 0.000000 0.000000 0.000000 0.000000
-21.602699 -3.124198 -14.935200 1.000000 0.000000 0.000000 0.000000 -0.000000 1.000000 -11.002348 2.999780 0 0 0 0 0.000000 0.000000 0.000000 0.000000
-21.602699 -3.124198 -13.639799 1.000000 0.000000 0.000000 0.000000 -0.000000 1.000000 -10.004695 2.999780 0 0 0 0 0.000000 0.000000 0.000000 0.000000
-21.602699 -2.247898 -13.639799 1.000000 0.000000 0.000000 0.000000 -0.000000 1.000000 -10.004695 1.987456 0 0 0 0 0.000000 0.000000 0.000000 0.000000
IndexCount: 6
3 2 1
3 1 0