VertexCount: 263
2.667000 -1.143000 0.762000 -0.000000 1.000000 0.000000 1.000000 0.000000 0.000000 2.187500 -0.875000 0 0 0 0 0.000000 0.000000 0.000000 0.000000
2.667000 -1.143000 0.609600 -0.000000 1.000000 0.000000 1.000000 0.000000 0.000000 2.187500 -0.750000 0 0 0 0 0.000000 0.000000 0.000000 0.000000
4.267200 -1.143000 0.609600 -0.000000 1.000000 0.000000 1.000000 0.000000 0.000000 3.500000 -0.750000 0 0 0 0 0.000000 0.000000 0.000000 0.000000
4.267200 -1.143000 0.762000 -0.000000 1.000000 0.000000 1.000000 0.000000 0.000000 3.500000 -0.875000 0 0 0 0 0.000000 0.000000 0.000000 0.000000
2.667000 -1.295400 0.762000 -0.000000 -0.000000 1.000000 1.000000 0.000000 0.000000 2.187500 0.125000 0 0 0 0 0.000000 0.000000 0.000000 0.000000
2.667000 -1.143000 0.762000 -0.000000 -0.000000 1.000000 1.000000 0.000000 0.000000 2.187500 0.000000 0 0 0 0 0.000000 0.000000 0.000000 0.000000
4.267200 -1.143000 0.762000 -0.000000 -0.000000 1.000000 1.000000 0.000000 0.000000 3.500000 0.000000 0 0 0 0 0.000000 0.000000 0.000000 0.000000
4.267200 -1.295400 0.762000 -0.000000 -0.000000 1.000000 1.000000 0.000000 0.000000 3.500000 0.125000 0 0 0 0 0.000000 0.000000 0.000000 0.000000
2.667000 -1.295400 0.762000 -0.000000 -0.554700 0.832050 1.000000 0.000000 0.000000 2.187500 0.125000 0 0 0 0 0.000000 0.000000 0.000000 0.000000
4.267200 -1.295400 0.762000 -0.000000 -0.554700 0.832050 1.000000 0.000000 0.000000 3.500000 0.125000 0 0 0 0 0.000000 0.000000 0.000000 0.000000
4.267200 -1.524000 0.609600 -0.000000 -0.554700 0.832050 1.000000 0.000000 0.000000 3.500000 0.312500 0 0 0 0 0.000000 0.000000 0.000000 0.000000
3.600450 -1.524000 0.609600 -0.000000 -0.554700 0.832050 1.000000 0.000000 0.000000 2.953125 0.312500 0 0 0 0 0.000000 0.000000 0.000000 0.000000
2.667000 -1.524000 0.609600 -0.000000 -0.554700 0.832050 1.000000 0.000000 0.000000 2.187500 0.312500 0 0 0 0 0.000000 0.000000 0.000000 0.000000
-5.181601 -0.914402 8.458200 -0.000000 -0.000000 1.000000 1.000000 -0.000000 0.000000 -4.250000 0.750000 0 0 0 0 0.000000 0.000000 0.000000 0.000000
-5.029201 -0.914402 8.458200 -0.000000 -0.000000 1.000000 1.000000 -0.000000 0.000000 -4.125000 0.750000 0 0 0 0 0.000000 0.000000 0.000000 0.000000
-5.029201 -1.219202 8.458200 -0.000000 -0.000000 1.000000 1.000000 0.000001 0.000000 -4.125000 1.000000 0 0 0 0 0.000000 0.000000 0.000000 0.000000
-5.029201 -3.657602 8.458200 -0.000000 -0.000000 1.000000 1.000000 0.000001 0.000000 -4.125000 3.000000 0 0 0 0 0.000000 0.000000 0.000000 0.000000
-5.181600 -3.657602 8.458200 -0.000000 -0.000000 1.000000 1.000000 -0.000000 0.000000 -4.250000 3.000000 0 0 0 0 0.000000 0.000000 0.000000 0.000000
-5.181601 -1.524002 8.458200 -0.000000 -0.000000 1.000000 1.000000 -0.000000 0.000000 -4.250000 1.250000 0 0 0 0 0.000000 0.000000 0.000000 0.000000
-4.876801 -0.914402 7.467599 0.000000 -1.000000 -0.000000 1.000000 0.000000 0.000000 -4.000000 -6.125000 0 0 0 0 0.000000 0.000000 0.000000 0.000000
-5.029201 -0.914402 7.467599 0.000000 -1.000000 -0.000000 1.000000 0.000000 0.000000 -4.125000 -6.125000 0 0 0 0 0.000000 0.000000 0.000000 0.000000
-5.029201 -0.914402 8.458200 0.000000 -1.000000 -0.000000 1.000000 0.000000 0.000000 -4.125000 -6.937500 0 0 0 0 0.000000 0.000000 0.000000 0.000000
-4.876801 -0.914402 8.458200 0.000000 -1.000000 -0.000000 1.000000 0.000000 0.000000 -4.000000 -6.937500 0 0 0 0 0.000000 0.000000 0.000000 0.000000
-4.876801 -0.914402 7.543799 0.000000 -1.000000 -0.000000 0.000000 -0.000000 1.000000 -4.000000 -6.187500 0 0 0 0 0.000000 0.000000 0.000000 0.000000
-4.876800 -3.657602 8.458200 -0.000000 1.000000 0.000000 1.000000 0.000000 0.000000 -4.000000 -6.937500 0 0 0 0 0.000000 0.000000 0.000000 0.000000
-5.029201 -3.657602 8.458200 -0.000000 1.000000 0.000000 1.000000 0.000000 0.000000 -4.125000 -6.937500 0 0 0 0 0.000000 0.000000 0.000000 0.000000
-5.029201 -3.657601 7.467599 -0.000000 1.000000 0.000000 1.000000 0.000000 0.000000 -4.125000 -6.125000 0 0 0 0 0.000000 0.000000 0.000000 0.000000
-4.876800 -3.657601 7.467599 -0.000000 1.000000 0.000000 1.000000 0.000000 0.000000 -4.000000 -6.125000 0 0 0 0 0.000000 0.000000 0.000000 0.000000
-10.629901 -3.962403 10.667997 -0.000000 -0.000000 1.000000 1.000000 0.000000 0.000000 -7.843750 3.875000 0 0 0 0 0.000000 0.000000 0.000000 0.000000
-9.601200 -3.962402 10.667997 -0.000000 -0.000000 1.000000 1.000000 0.000000 0.000000 -7.000000 3.875000 0 0 0 0 0.000000 0.000000 0.000000 0.000000
-9.601200 -4.114802 10.667997 -0.000000 -0.000000 1.000000 1.000000 0.000000 0.000000 -7.000000 4.000000 0 0 0 0 0.000000 0.000000 0.000000 0.000000
-10.629901 -4.114803 10.667997 -0.000000 -0.000000 1.000000 1.000000 0.000000 0.000000 -7.843750 4.000000 0 0 0 0 0.000000 0.000000 0.000000 0.000000
-10.629901 -4.114803 10.820397 -0.000000 -0.000000 1.000000 1.000000 -0.000000 0.000000 -7.843750 4.125000 0 0 0 0 0.000000 0.000000 0.000000 0.000000
-9.601200 -4.114803 10.820397 -0.000000 -0.000000 1.000000 1.000000 -0.000000 0.000000 -7.000000 4.125000 0 0 0 0 0.000000 0.000000 0.000000 0.000000
-9.601200 -4.572003 10.820397 -0.000000 -0.000000 1.000000 1.000000 -0.000000 0.000000 -7.000000 4.500000 0 0 0 0 0.000000 0.000000 0.000000 0.000000
-10.629901 -4.572003 10.820397 -0.000000 -0.000000 1.000000 1.000000 -0.000000 0.000000 -7.843750 4.500000 0 0 0 0 0.000000 0.000000 0.000000 0.000000
-5.029201 -0.914401 3.581400 0.000000 0.000000 -1.000000 1.000000 0.000001 0.000000 -4.125000 0.750000 0 0 0 0 0.000000 0.000000 0.000000 0.000000
-5.181601 -0.914401 3.581400 0.000000 0.000000 -1.000000 1.000000 0.000001 0.000000 -4.250000 0.750000 0 0 0 0 0.000000 0.000000 0.000000 0.000000
-5.181601 -1.524001 3.581399 0.000000 0.000000 -1.000000 1.000000 0.000001 0.000000 -4.250000 1.250000 0 0 0 0 0.000000 0.000000 0.000000 0.000000
-5.181600 -3.657601 3.581399 0.000000 0.000000 -1.000000 1.000000 0.000002 0.000000 -4.250000 3.000000 0 0 0 0 0.000000 0.000000 0.000000 0.000000
-5.029200 -3.657601 3.581399 0.000000 0.000000 -1.000000 1.000000 -0.000000 0.000000 -4.125000 3.000000 0 0 0 0 0.000000 0.000000 0.000000 0.000000
-5.029201 -1.219201 3.581399 0.000000 0.000000 -1.000000 1.000000 0.000001 0.000000 -4.125000 1.000000 0 0 0 0 0.000000 0.000000 0.000000 0.000000
-1.219200 -3.886201 4.419599 -0.242536 -0.000000 0.970143 0.970143 -0.000000 0.242536 -1.000000 2.078125 0 0 0 0 0.000000 0.000000 0.000000 0.000000
-1.219200 -4.572001 4.419599 -0.242536 -0.000000 0.970143 0.970143 -0.000000 0.242536 -1.000000 2.640625 0 0 0 0 0.000000 0.000000 0.000000 0.000000
-1.676400 -4.572001 4.305300 -0.242536 -0.000000 0.970143 0.970143 -0.000000 0.242536 -1.375000 2.640625 0 0 0 0 0.000000 0.000000 0.000000 0.000000
-1.752600 -4.572001 4.286249 -0.242536 -0.000000 0.970143 0.970143 0.000000 0.242536 -1.437500 2.640625 0 0 0 0 0.000000 0.000000 0.000000 0.000000
-1.752600 -3.886201 4.286249 -0.242536 -0.000000 0.970143 0.970143 0.000000 0.242536 -1.437500 2.078125 0 0 0 0 0.000000 0.000000 0.000000 0.000000
-4.876800 -0.914401 3.581400 0.000000 -1.000000 -0.000000 1.000000 0.000000 0.000000 -4.000000 -2.937500 0 0 0 0 0.000000 0.000000 0.000000 0.000000
-5.029201 -0.914401 3.581400 0.000000 -1.000000 -0.000000 1.000000 0.000000 0.000000 -4.125000 -2.937500 0 0 0 0 0.000000 0.000000 0.000000 0.000000
-5.029201 -0.914401 4.572000 0.000000 -1.000000 -0.000000 1.000000 0.000000 0.000000 -4.125000 -3.750000 0 0 0 0 0.000000 0.000000 0.000000 0.000000
-4.876800 -0.914401 4.572000 0.000000 -1.000000 -0.000000 1.000000 0.000000 -0.000000 -4.000000 -3.750000 0 0 0 0 0.000000 0.000000 0.000000 0.000000
-4.876800 -0.914401 4.495800 0.000000 -1.000000 -0.000000 0.000000 -0.000000 1.000000 -4.000000 -3.687500 0 0 0 0 0.000000 0.000000 0.000000 0.000000
-4.876800 -0.914401 4.876800 0.000000 -1.000000 -0.000000 1.000000 0.000000 0.000000 -4.000000 -4.000000 0 0 0 0 0.000000 0.000000 0.000000 0.000000
-5.029201 -0.914401 4.876800 0.000000 -1.000000 -0.000000 1.000000 0.000000 0.000000 -4.125000 -4.000000 0 0 0 0 0.000000 0.000000 0.000000 0.000000
-5.029201 -0.914401 5.714999 0.000000 -1.000000 -0.000000 1.000000 0.000000 0.000000 -4.125000 -4.687500 0 0 0 0 0.000000 0.000000 0.000000 0.000000
-5.029201 -0.914401 5.867399 0.000000 -1.000000 -0.000000 1.000000 0.000000 -0.000000 -4.125000 -4.812500 0 0 0 0 0.000000 0.000000 0.000000 0.000000
-4.876801 -0.914401 5.867399 0.000000 -1.000000 -0.000000 1.000000 0.000000 0.000000 -4.000000 -4.812500 0 0 0 0 0.000000 0.000000 0.000000 0.000000
-4.876801 -0.914401 6.172200 0.000000 -1.000000 -0.000000 1.000000 0.000000 0.000000 -4.000000 -5.062500 0 0 0 0 0.000000 0.000000 0.000000 0.000000
-5.029201 -0.914401 6.172200 0.000000 -1.000000 -0.000000 1.000000 0.000000 0.000000 -4.125000 -5.062500 0 0 0 0 0.000000 0.000000 0.000000 0.000000
-5.029201 -0.914402 7.162799 0.000000 -1.000000 -0.000000 1.000000 0.000000 0.000000 -4.125000 -5.875000 0 0 0 0 0.000000 0.000000 0.000000 0.000000
-4.876801 -0.914402 7.162799 0.000000 -1.000000 -0.000000 1.000000 0.000000 0.000000 -4.000000 -5.875000 0 0 0 0 0.000000 0.000000 0.000000 0.000000
-4.876800 -3.657601 4.571999 -0.000000 1.000000 0.000000 1.000000 0.000000 0.000000 -4.000000 -3.750000 0 0 0 0 0.000000 0.000000 0.000000 0.000000
-5.029200 -3.657601 4.571999 -0.000000 1.000000 0.000000 1.000000 0.000000 0.000000 -4.125000 -3.750000 0 0 0 0 0.000000 0.000000 0.000000 0.000000
-5.029200 -3.657601 3.581399 -0.000000 1.000000 0.000000 1.000000 0.000000 0.000000 -4.125000 -2.937500 0 0 0 0 0.000000 0.000000 0.000000 0.000000
-4.876800 -3.657601 3.581399 -0.000000 1.000000 0.000000 1.000000 0.000000 0.000000 -4.000000 -2.937500 0 0 0 0 0.000000 0.000000 0.000000 0.000000
-4.876800 -3.657601 5.867399 -0.000000 1.000000 0.000000 1.000000 0.000000 0.000000 -4.000000 -4.812500 0 0 0 0 0.000000 0.000000 0.000000 0.000000
-5.029201 -3.657601 5.867399 -0.000000 1.000000 0.000000 1.000000 0.000000 0.000000 -4.125000 -4.812500 0 0 0 0 0.000000 0.000000 0.000000 0.000000
-5.029200 -3.657601 4.876799 -0.000000 1.000000 0.000000 1.000000 0.000000 0.000000 -4.125000 -4.000000 0 0 0 0 0.000000 0.000000 0.000000 0.000000
-4.876800 -3.657601 4.876799 -0.000000 1.000000 0.000000 1.000000 0.000000 0.000000 -4.000000 -4.000000 0 0 0 0 0.000000 0.000000 0.000000 0.000000
-4.876800 -3.657601 7.162799 -0.000000 1.000000 0.000000 1.000000 0.000000 0.000000 -4.000000 -5.875000 0 0 0 0 0.000000 0.000000 0.000000 0.000000
-5.029201 -3.657601 7.162799 -0.000000 1.000000 0.000000 1.000000 0.000000 0.000000 -4.125000 -5.875000 0 0 0 0 0.000000 0.000000 0.000000 0.000000
-5.029201 -3.657601 6.172199 -0.000000 1.000000 0.000000 1.000000 0.000000 0.000000 -4.125000 -5.062500 0 0 0 0 0.000000 0.000000 0.000000 0.000000
-4.876800 -3.657601 6.172199 -0.000000 1.000000 0.000000 1.000000 0.000000 0.000000 -4.000000 -5.062500 0 0 0 0 0.000000 0.000000 0.000000 0.000000
-0.914400 -1.143000 0.762000 -0.000000 1.000000 0.000000 1.000000 0.000000 0.000000 -0.750000 -0.875000 0 0 0 0 0.000000 0.000000 0.000000 0.000000
-0.914400 -1.143000 0.609600 -0.000000 1.000000 0.000000 1.000000 0.000000 0.000000 -0.750000 -0.750000 0 0 0 0 0.000000 0.000000 0.000000 0.000000
-5.181600 -1.143001 0.761999 -0.000000 1.000000 0.000000 1.000000 0.000000 0.000000 -4.250000 -0.875000 0 0 0 0 0.000000 0.000000 0.000000 0.000000
-5.181600 -1.143000 0.609599 -0.000000 1.000000 0.000000 1.000000 0.000000 0.000000 -4.250000 -0.750000 0 0 0 0 0.000000 0.000000 0.000000 0.000000
2.667000 -1.295400 0.762000 -0.000000 -0.000000 1.000000 1.000000 0.000000 0.000000 2.187500 0.125000 0 0 0 0 0.000000 0.000000 0.000000 0.000000
1.828800 -1.295400 0.762000 -0.000000 -0.000000 1.000000 1.000000 0.000000 0.000000 1.500000 0.125000 0 0 0 0 0.000000 0.000000 0.000000 0.000000
0.609600 -1.295400 0.762000 -0.000000 -0.000000 1.000000 1.000000 0.000000 0.000000 0.500000 0.125000 0 0 0 0 0.000000 0.000000 0.000000 0.000000
-0.914400 -1.295400 0.762000 -0.000000 -0.000000 1.000000 1.000000 0.000000 0.000000 -0.750000 0.125000 0 0 0 0 0.000000 0.000000 0.000000 0.000000
-0.914400 -1.143000 0.762000 -0.000000 -0.000000 1.000000 1.000000 0.000000 0.000000 -0.750000 0.000000 0 0 0 0 0.000000 0.000000 0.000000 0.000000
-2.438400 -1.295400 0.762000 -0.000000 -0.000000 1.000000 1.000000 0.000000 0.000000 -2.000000 0.125000 0 0 0 0 0.000000 0.000000 0.000000 0.000000
-3.657600 -1.295401 0.761999 -0.000000 -0.000000 1.000000 1.000000 0.000000 0.000000 -3.000000 0.125000 0 0 0 0 0.000000 0.000000 0.000000 0.000000
-5.181600 -1.295401 0.761999 -0.000000 -0.000000 1.000000 1.000000 0.000000 0.000000 -4.250000 0.125000 0 0 0 0 0.000000 0.000000 0.000000 0.000000
-5.181600 -1.143001 0.761999 -0.000000 -0.000000 1.000000 1.000000 0.000000 0.000000 -4.250000 0.000000 0 0 0 0 0.000000 0.000000 0.000000 0.000000
-5.181600 -1.295401 0.761999 -0.000000 -0.554700 0.832050 1.000000 0.000000 0.000000 -4.250000 0.125000 0 0 0 0 0.000000 0.000000 0.000000 0.000000
-3.657600 -1.295401 0.761999 -0.000000 -0.554700 0.832050 1.000000 0.000000 0.000000 -3.000000 0.125000 0 0 0 0 0.000000 0.000000 0.000000 0.000000
-3.657600 -1.524001 0.609599 -0.000000 -0.554700 0.832050 1.000000 0.000000 0.000000 -3.000000 0.312500 0 0 0 0 0.000000 0.000000 0.000000 0.000000
-5.181600 -1.524001 0.609599 -0.000000 -0.554700 0.832050 1.000000 0.000000 0.000000 -4.250000 0.312500 0 0 0 0 0.000000 0.000000 0.000000 0.000000
-2.438400 -1.295400 0.762000 -0.000000 -0.554700 0.832050 -1.000000 -0.000000 -0.000000 -2.000000 0.125000 0 0 0 0 0.000000 0.000000 0.000000 0.000000
-0.914400 -1.295400 0.762000 -0.000000 -0.554700 0.832050 -1.000000 -0.000000 -0.000000 -0.750000 0.125000 0 0 0 0 0.000000 0.000000 0.000000 0.000000
0.609600 -1.295400 0.762000 -0.000000 -0.554700 0.832050 -1.000000 -0.000000 -0.000000 0.500000 0.125000 0 0 0 0 0.000000 0.000000 0.000000 0.000000
0.609600 -1.524000 0.609600 -0.000000 -0.554700 0.832050 1.000000 0.000000 0.000000 0.500000 0.312500 0 0 0 0 0.000000 0.000000 0.000000 0.000000
-2.438400 -1.524000 0.609599 -0.000000 -0.554700 0.832050 1.000000 0.000000 0.000000 -2.000000 0.312500 0 0 0 0 0.000000 0.000000 0.000000 0.000000
1.828800 -1.295400 0.762000 -0.000000 -0.554700 0.832050 1.000000 0.000000 0.000000 1.500000 0.125000 0 0 0 0 0.000000 0.000000 0.000000 0.000000
1.828800 -1.524000 0.609600 -0.000000 -0.554700 0.832050 1.000000 0.000000 0.000000 1.500000 0.312500 0 0 0 0 0.000000 0.000000 0.000000 0.000000
-6.362700 -0.609601 5.257800 0.000000 0.000000 -1.000000 -0.000000 1.000000 0.000000 -0.984375 -10.437500 0 0 0 0 0.000000 0.000000 0.000000 0.000000
-6.362700 -1.219201 5.257800 0.000000 0.000000 -1.000000 -0.000000 1.000000 0.000000 -1.984375 -10.437500 0 0 0 0 0.000000 0.000000 0.000000 0.000000
-5.791201 -1.219201 5.257800 0.000000 0.000000 -1.000000 -0.000000 1.000000 0.000000 -1.984375 -9.500000 0 0 0 0 0.000000 0.000000 0.000000 0.000000
-5.791201 -0.609601 5.257800 0.000000 0.000000 -1.000000 -0.000000 1.000000 0.000000 -0.984375 -9.500000 0 0 0 0 0.000000 0.000000 0.000000 0.000000
-8.496301 -0.609602 5.257800 0.000000 0.000000 -1.000000 -0.000000 1.000000 0.000000 -0.984375 -13.937500 0 0 0 0 0.000000 0.000000 0.000000 0.000000
-8.496301 -1.219202 5.257800 0.000000 0.000000 -1.000000 -0.000000 1.000000 0.000000 -1.984375 -13.937500 0 0 0 0 0.000000 0.000000 0.000000 0.000000
-10.629900 -0.609602 5.257799 0.000000 0.000000 -1.000000 -0.000000 1.000000 0.000000 -0.984375 -17.437500 0 0 0 0 0.000000 0.000000 0.000000 0.000000
-10.629900 -1.219202 5.257799 0.000000 0.000000 -1.000000 -0.000000 1.000000 0.000000 -1.984375 -17.437500 0 0 0 0 0.000000 0.000000 0.000000 0.000000
-6.362700 -0.609602 6.172200 -0.000000 -0.000000 1.000000 -0.000000 1.000000 0.000000 -0.984375 -10.437500 0 0 0 0 0.000000 0.000000 0.000000 0.000000
-5.791201 -0.609601 6.172200 -0.000000 -0.000000 1.000000 -0.000000 1.000000 0.000000 -0.984375 -9.500000 0 0 0 0 0.000000 0.000000 0.000000 0.000000
-5.791201 -1.219201 6.172200 -0.000000 -0.000000 1.000000 -0.000000 1.000000 0.000000 -1.984375 -9.500000 0 0 0 0 0.000000 0.000000 0.000000 0.000000
-6.362700 -1.219201 6.172200 -0.000000 -0.000000 1.000000 -0.000000 1.000000 0.000000 -1.984375 -10.437500 0 0 0 0 0.000000 0.000000 0.000000 0.000000
-8.496301 -0.609602 6.172200 -0.000000 -0.000000 1.000000 -0.000000 1.000000 0.000000 -0.984375 -13.937500 0 0 0 0 0.000000 0.000000 0.000000 0.000000
-8.496301 -1.219202 6.172200 -0.000000 -0.000000 1.000000 -0.000000 1.000000 0.000000 -1.984375 -13.937500 0 0 0 0 0.000000 0.000000 0.000000 0.000000
-10.629900 -0.609602 6.172199 -0.000000 -0.000000 1.000000 -0.000000 1.000000 0.000000 -0.984375 -17.437500 0 0 0 0 0.000000 0.000000 0.000000 0.000000
-10.629900 -1.219202 6.172199 -0.000000 -0.000000 1.000000 -0.000000 1.000000 0.000000 -1.984375 -17.437500 0 0 0 0 0.000000 0.000000 0.000000 0.000000
-6.362700 -1.219201 6.172200 0.000000 -1.000000 -0.000000 0.000000 -0.000000 1.000000 10.140625 -10.437500 0 0 0 0 0.000000 0.000000 0.000000 0.000000
-5.791201 -1.219201 6.172200 0.000000 -1.000000 -0.000000 0.000000 -0.000000 1.000000 10.140625 -9.500000 0 0 0 0 0.000000 0.000000 0.000000 0.000000
-5.791201 -1.219201 5.257800 0.000000 -1.000000 -0.000000 -0.000000 -0.000000 1.000000 8.640625 -9.500000 0 0 0 0 0.000000 0.000000 0.000000 0.000000
-6.362700 -1.219201 5.257800 0.000000 -1.000000 -0.000000 0.000000 -0.000000 1.000000 8.640625 -10.437500 0 0 0 0 0.000000 0.000000 0.000000 0.000000
-8.496301 -1.219202 6.172200 0.000000 -1.000000 -0.000000 -0.000000 -0.000000 1.000000 10.140625 -13.937500 0 0 0 0 0.000000 0.000000 0.000000 0.000000
-8.496301 -1.219202 5.257800 0.000000 -1.000000 -0.000000 -0.000000 -0.000000 1.000000 8.640625 -13.937500 0 0 0 0 0.000000 0.000000 0.000000 0.000000
-10.629900 -1.219202 6.172199 0.000000 -1.000000 -0.000000 -0.000000 -0.000000 1.000000 10.140625 -17.437500 0 0 0 0 0.000000 0.000000 0.000000 0.000000
-10.629900 -1.219202 5.257799 0.000000 -1.000000 -0.000000 -0.000000 -0.000000 1.000000 8.640625 -17.437500 0 0 0 0 0.000000 0.000000 0.000000 0.000000
-7.239000 -2.743201 0.533399 0.000000 -1.000000 -0.000000 1.000000 0.000000 0.000000 0.890625 -11.875000 0 0 0 0 0.000000 0.000000 0.000000 0.000000
-7.848600 -2.743201 0.533399 0.000000 -1.000000 -0.000000 1.000000 0.000000 0.000000 0.890625 -12.875000 0 0 0 0 0.000000 0.000000 0.000000 0.000000
-8.496300 -2.743201 0.533399 0.000000 -1.000000 -0.000000 1.000000 0.000000 0.000000 0.890625 -13.937500 0 0 0 0 0.000000 0.000000 0.000000 0.000000
-8.496300 -2.743201 0.609599 0.000000 -1.000000 -0.000000 0.000000 -0.000000 1.000000 1.015625 -13.937500 0 0 0 0 0.000000 0.000000 0.000000 0.000000
-7.162800 -2.743201 0.609599 0.000000 -1.000000 -0.000000 -0.000000 -0.000000 1.000000 1.015625 -11.750000 0 0 0 0 0.000000 0.000000 0.000000 0.000000
-8.534400 -2.743201 0.533399 0.000000 -1.000000 -0.000000 1.000000 0.000000 0.000000 0.890625 -14.000000 0 0 0 0 0.000000 0.000000 0.000000 0.000000
-10.058400 -2.743201 0.533399 0.000000 -1.000000 -0.000000 1.000000 0.000000 0.000000 0.890625 -16.500000 0 0 0 0 0.000000 0.000000 0.000000 0.000000
-10.629900 -2.743201 0.533399 0.000000 -1.000000 -0.000000 -1.000000 -0.000000 -0.000000 0.890625 -17.437500 0 0 0 0 0.000000 0.000000 0.000000 0.000000
-10.629900 -2.743201 0.609599 0.000000 -1.000000 -0.000000 0.000000 -0.000000 1.000000 1.015625 -17.437500 0 0 0 0 0.000000 0.000000 0.000000 0.000000
-8.496300 -2.743201 0.380999 0.000000 -1.000000 -0.000000 0.000003 -0.000000 1.000000 0.640625 -13.937500 0 0 0 0 0.000000 0.000000 0.000000 0.000000
-7.848600 -2.743201 0.380999 0.000000 -1.000000 -0.000000 0.000003 -0.000000 1.000000 0.640625 -12.875000 0 0 0 0 0.000000 0.000000 0.000000 0.000000
-7.391400 -2.743201 0.380999 0.000000 -1.000000 -0.000000 0.000000 -0.000000 1.000000 0.640625 -12.125000 0 0 0 0 0.000000 0.000000 0.000000 0.000000
-7.467600 -2.743201 0.304799 0.000000 -1.000000 -0.000000 0.000005 -0.000000 1.000000 0.515625 -12.250000 0 0 0 0 0.000000 0.000000 0.000000 0.000000
-8.496300 -2.743201 0.304799 0.000000 -1.000000 -0.000000 0.000000 -0.000000 1.000000 0.515625 -13.937500 0 0 0 0 0.000000 0.000000 0.000000 0.000000
-10.629900 -2.743201 0.380999 0.000000 -1.000000 -0.000000 0.000000 -0.000000 1.000000 0.640625 -17.437500 0 0 0 0 0.000000 0.000000 0.000000 0.000000
-10.629900 -2.743201 0.304799 0.000000 -1.000000 -0.000000 0.000000 -0.000000 1.000000 0.515625 -17.437500 0 0 0 0 0.000000 0.000000 0.000000 0.000000
-7.848600 -2.743201 0.533399 0.000000 -1.000000 -0.000000 -0.000000 -0.000000 1.000000 0.890625 -12.875000 0 0 0 0 0.000000 0.000000 0.000000 0.000000
-7.239000 -2.743201 0.533399 0.000000 -1.000000 -0.000000 -0.000000 -0.000000 1.000000 0.890625 -11.875000 0 0 0 0 0.000000 0.000000 0.000000 0.000000
-10.058400 -2.743201 0.533399 0.000000 -1.000000 -0.000000 0.000000 -0.000000 1.000000 0.890625 -16.500000 0 0 0 0 0.000000 0.000000 0.000000 0.000000
-8.534400 -2.743201 0.533399 0.000000 -1.000000 -0.000000 0.000000 -0.000000 1.000000 0.890625 -14.000000 0 0 0 0 0.000000 0.000000 0.000000 0.000000
-8.534400 -2.743201 0.380999 0.000000 -1.000000 -0.000000 -nan(ind) -nan(ind) -nan(ind) 0.640625 -14.000000 0 0 0 0 0.000000 0.000000 0.000000 0.000000
-10.058400 -2.743201 0.380999 0.000000 -1.000000 -0.000000 -nan(ind) -nan(ind) -nan(ind) 0.640625 -16.500000 0 0 0 0 0.000000 0.000000 0.000000 0.000000
-7.162799 -3.962400 0.609599 -0.000000 1.000000 0.000000 -0.000000 -0.000000 1.000000 1.015625 -11.750000 0 0 0 0 0.000000 0.000000 0.000000 0.000000
-8.496299 -3.962401 0.609599 -0.000000 1.000000 0.000000 -0.000000 -0.000000 1.000000 1.015625 -13.937500 0 0 0 0 0.000000 0.000000 0.000000 0.000000
-8.496299 -3.962401 0.304799 -0.000000 1.000000 0.000000 0.000000 -0.000000 1.000000 0.515625 -13.937500 0 0 0 0 0.000000 0.000000 0.000000 0.000000
-7.467599 -3.962400 0.304799 -0.000000 1.000000 0.000000 -0.000000 -0.000000 1.000000 0.515625 -12.250000 0 0 0 0 0.000000 0.000000 0.000000 0.000000
-10.629900 -3.962401 0.609598 -0.000000 1.000000 0.000000 -0.000000 -0.000000 1.000000 1.015625 -17.437500 0 0 0 0 0.000000 0.000000 0.000000 0.000000
-10.629900 -3.962401 0.304798 -0.000000 1.000000 0.000000 0.000000 -0.000000 1.000000 0.515625 -17.437500 0 0 0 0 0.000000 0.000000 0.000000 0.000000
-13.868402 -3.962403 10.667997 -0.000000 -0.000000 1.000000 1.000000 -0.000000 0.000000 -10.687500 3.875000 0 0 0 0 0.000000 0.000000 0.000000 0.000000
-13.868402 -4.114803 10.667997 -0.000000 -0.000000 1.000000 1.000000 -0.000000 0.000000 -10.687500 4.000000 0 0 0 0 0.000000 0.000000 0.000000 0.000000
-15.697201 -4.114803 10.667997 -0.000000 -0.000000 1.000000 1.000000 -0.000000 0.000000 -12.187500 4.000000 0 0 0 0 0.000000 0.000000 0.000000 0.000000
-15.697201 -3.962403 10.667997 -0.000000 -0.000000 1.000000 1.000000 -0.000000 0.000000 -12.187500 3.875000 0 0 0 0 0.000000 0.000000 0.000000 0.000000
-11.430001 -4.114803 10.667997 -0.000000 0.000002 1.000000 1.000000 0.000000 0.000000 -8.500000 4.000000 0 0 0 0 0.000000 0.000000 0.000000 0.000000
-13.487401 -4.114803 10.667997 -0.000000 0.000002 1.000000 1.000000 0.000000 0.000000 -10.187500 4.000000 0 0 0 0 0.000000 0.000000 0.000000 0.000000
-13.487401 -3.962403 10.667997 -0.000000 0.000002 1.000000 1.000000 0.000000 0.000000 -10.187500 3.875000 0 0 0 0 0.000000 0.000000 0.000000 0.000000
-12.710162 -3.962403 10.667997 -0.000000 0.000002 1.000000 -1.000000 -0.000000 -0.000000 -9.550001 3.875000 0 0 0 0 0.000000 0.000000 0.000000 0.000000
-11.430001 -4.114803 10.820397 -0.000000 -0.000000 1.000000 1.000000 0.000000 0.000000 -8.500000 4.125000 0 0 0 0 0.000000 0.000000 0.000000 0.000000
-11.430001 -4.572003 10.820397 -0.000000 -0.000000 1.000000 1.000000 0.000000 0.000000 -8.500000 4.500000 0 0 0 0 0.000000 0.000000 0.000000 0.000000
-15.697201 -4.572003 10.820397 -0.000000 -0.000000 1.000000 1.000000 0.000000 0.000000 -12.000000 4.500000 0 0 0 0 0.000000 0.000000 0.000000 0.000000
-15.697201 -4.114803 10.820397 -0.000000 -0.000000 1.000000 1.000000 0.000000 0.000000 -12.000000 4.125000 0 0 0 0 0.000000 0.000000 0.000000 0.000000
-13.868402 -4.114803 10.210798 0.000000 -1.000000 -0.000000 1.000000 0.000000 -0.000000 -10.937500 -7.437500 0 0 0 0 0.000000 0.000000 0.000000 0.000000
-15.697201 -4.114803 10.210798 0.000000 -1.000000 -0.000000 1.000000 0.000000 -0.000000 -12.437500 -7.437500 0 0 0 0 0.000000 0.000000 0.000000 0.000000
-15.697201 -4.114803 10.667997 0.000000 -1.000000 -0.000000 1.000000 0.000000 0.000000 -12.437500 -7.812500 0 0 0 0 0.000000 0.000000 0.000000 0.000000
-13.868402 -4.114803 10.667997 0.000000 -1.000000 -0.000000 1.000000 0.000000 -0.000000 -10.937500 -7.812500 0 0 0 0 0.000000 0.000000 0.000000 0.000000
-10.972800 -0.609602 5.257799 0.000000 0.000000 -1.000000 -0.000000 1.000000 0.000000 -0.984375 -18.000000 0 0 0 0 0.000000 0.000000 0.000000 0.000000
-10.972800 -1.219202 5.257799 0.000000 0.000000 -1.000000 -0.000000 1.000000 0.000000 -1.984375 -18.000000 0 0 0 0 0.000000 0.000000 0.000000 0.000000
-13.106400 -0.609602 5.257799 0.000000 0.000000 -1.000000 -0.000000 1.000000 0.000000 -0.984375 -21.500000 0 0 0 0 0.000000 0.000000 0.000000 0.000000
-13.106400 -1.219202 5.257799 0.000000 0.000000 -1.000000 -0.000000 1.000000 0.000000 -1.984375 -21.500000 0 0 0 0 0.000000 0.000000 0.000000 0.000000
-15.240000 -0.609602 5.257799 0.000000 0.000000 -1.000000 -0.000000 1.000000 0.000000 -0.984375 -25.000000 0 0 0 0 0.000000 0.000000 0.000000 0.000000
-15.240000 -1.219202 5.257799 0.000000 0.000000 -1.000000 -0.000000 1.000000 0.000000 -1.984375 -25.000000 0 0 0 0 0.000000 0.000000 0.000000 0.000000
-17.373600 -0.609602 5.257799 0.000000 0.000000 -1.000000 -0.000000 1.000000 0.000000 -0.984375 -28.500000 0 0 0 0 0.000000 0.000000 0.000000 0.000000
-17.373600 -1.219202 5.257799 0.000000 0.000000 -1.000000 -0.000000 1.000000 0.000000 -1.984375 -28.500000 0 0 0 0 0.000000 0.000000 0.000000 0.000000
-10.972800 -0.609602 6.172199 -0.000000 -0.000000 1.000000 -0.000000 1.000000 0.000000 -0.984375 -18.000000 0 0 0 0 0.000000 0.000000 0.000000 0.000000
-10.972800 -1.219202 6.172199 -0.000000 -0.000000 1.000000 -0.000000 1.000000 0.000000 -1.984375 -18.000000 0 0 0 0 0.000000 0.000000 0.000000 0.000000
-13.106400 -0.609602 6.172199 -0.000000 -0.000000 1.000000 -0.000000 1.000000 0.000000 -0.984375 -21.500000 0 0 0 0 0.000000 0.000000 0.000000 0.000000
-13.106400 -1.219202 6.172199 -0.000000 -0.000000 1.000000 -0.000000 1.000000 0.000000 -1.984375 -21.500000 0 0 0 0 0.000000 0.000000 0.000000 0.000000
-15.240000 -0.609602 6.172199 -0.000000 -0.000000 1.000000 -0.000000 1.000000 0.000000 -0.984375 -25.000000 0 0 0 0 0.000000 0.000000 0.000000 0.000000
-15.240000 -1.219202 6.172199 -0.000000 -0.000000 1.000000 -0.000000 1.000000 0.000000 -1.984375 -25.000000 0 0 0 0 0.000000 0.000000 0.000000 0.000000
-17.373600 -1.219203 6.172199 -0.000000 -0.000000 1.000000 -0.000000 1.000000 0.000000 -1.984375 -28.500000 0 0 0 0 0.000000 0.000000 0.000000 0.000000
-17.373600 -0.609603 6.172199 -0.000000 -0.000000 1.000000 -0.000000 1.000000 0.000000 -0.984375 -28.500000 0 0 0 0 0.000000 0.000000 0.000000 0.000000
-10.972800 -1.219202 6.172199 0.000000 -1.000000 -0.000000 -0.000000 -0.000000 1.000000 10.140625 -18.000000 0 0 0 0 0.000000 0.000000 0.000000 0.000000
-10.972800 -1.219202 5.257799 0.000000 -1.000000 -0.000000 -0.000000 -0.000000 1.000000 8.640625 -18.000000 0 0 0 0 0.000000 0.000000 0.000000 0.000000
-13.106400 -1.219202 6.172199 0.000000 -1.000000 -0.000000 -0.000000 -0.000000 1.000000 10.140625 -21.500000 0 0 0 0 0.000000 0.000000 0.000000 0.000000
-13.106400 -1.219202 5.257799 0.000000 -1.000000 -0.000000 -0.000000 -0.000000 1.000000 8.640625 -21.500000 0 0 0 0 0.000000 0.000000 0.000000 0.000000
-15.240000 -1.219202 6.172199 0.000000 -1.000000 -0.000000 -0.000000 -0.000000 1.000000 10.140625 -25.000000 0 0 0 0 0.000000 0.000000 0.000000 0.000000
-15.240000 -1.219202 5.257799 0.000000 -1.000000 -0.000000 -0.000000 -0.000000 1.000000 8.640625 -25.000000 0 0 0 0 0.000000 0.000000 0.000000 0.000000
-17.373600 -1.219202 5.257799 0.000000 -1.000000 -0.000000 -0.000000 -0.000000 1.000000 8.640625 -28.500000 0 0 0 0 0.000000 0.000000 0.000000 0.000000
-17.373600 -1.219203 6.172199 0.000000 -1.000000 -0.000000 -0.000000 -0.000000 1.000000 10.140625 -28.500000 0 0 0 0 0.000000 0.000000 0.000000 0.000000
-10.629900 -2.743201 0.533399 0.000000 -1.000000 -0.000000 1.000000 0.000000 0.000000 0.890625 -17.437500 0 0 0 0 0.000000 0.000000 0.000000 0.000000
-10.744199 -2.743201 0.533399 0.000000 -1.000000 -0.000000 1.000000 0.000000 0.000000 0.890625 -17.625000 0 0 0 0 0.000000 0.000000 0.000000 0.000000
-12.268199 -2.743201 0.533398 0.000000 -1.000000 -0.000000 1.000000 0.000000 0.000000 0.890625 -20.125000 0 0 0 0 0.000000 0.000000 0.000000 0.000000
-12.649200 -2.743201 0.533398 0.000000 -1.000000 -0.000000 1.000000 0.000000 0.000000 0.890625 -20.750000 0 0 0 0 0.000000 0.000000 0.000000 0.000000
-12.649200 -2.743201 0.609598 0.000000 -1.000000 -0.000000 0.000000 -0.000000 1.000000 1.015625 -20.750000 0 0 0 0 0.000000 0.000000 0.000000 0.000000
-12.954000 -2.743201 0.533398 0.000000 -1.000000 -0.000000 1.000000 0.000000 0.000000 0.890625 -21.250000 0 0 0 0 0.000000 0.000000 0.000000 0.000000
-14.478001 -2.743201 0.533398 0.000000 -1.000000 -0.000000 1.000000 0.000000 0.000000 0.890625 -23.750000 0 0 0 0 0.000000 0.000000 0.000000 0.000000
-14.782800 -2.743201 0.533398 0.000000 -1.000000 -0.000000 1.000000 0.000000 0.000000 0.890625 -24.250000 0 0 0 0 0.000000 0.000000 0.000000 0.000000
-14.782800 -2.743201 0.609598 0.000000 -1.000000 -0.000000 0.000000 -0.000000 1.000000 1.015625 -24.250000 0 0 0 0 0.000000 0.000000 0.000000 0.000000
-12.649200 -2.743201 0.380998 0.000000 -1.000000 -0.000000 1.000000 0.000000 0.000000 0.640625 -20.750000 0 0 0 0 0.000000 0.000000 0.000000 0.000000
-12.268199 -2.743201 0.380998 0.000000 -1.000000 -0.000000 -1.000000 -0.000000 -0.000000 0.640625 -20.125000 0 0 0 0 0.000000 0.000000 0.000000 0.000000
-10.744199 -2.743201 0.380999 0.000000 -1.000000 -0.000000 -1.000000 -0.000000 -0.000000 0.640625 -17.625000 0 0 0 0 0.000000 0.000000 0.000000 0.000000
-10.629900 -2.743201 0.380999 0.000000 -1.000000 -0.000000 -1.000000 -0.000000 -0.000000 0.640625 -17.437500 0 0 0 0 0.000000 0.000000 0.000000 0.000000
-11.353800 -2.743201 0.304799 0.000000 -1.000000 -0.000000 -0.000000 -0.000000 1.000000 0.515625 -18.625000 0 0 0 0 0.000000 0.000000 0.000000 0.000000
-12.649200 -2.743201 0.304798 0.000000 -1.000000 -0.000000 0.000000 -0.000000 1.000000 0.515625 -20.750000 0 0 0 0 0.000000 0.000000 0.000000 0.000000
-12.649200 -2.743201 0.380998 0.000000 -1.000000 -0.000000 0.000000 -0.000000 1.000000 0.640625 -20.750000 0 0 0 0 0.000000 0.000000 0.000000 0.000000
-14.782800 -2.743201 0.304798 0.000000 -1.000000 -0.000000 0.000002 -0.000000 1.000000 0.515625 -24.250000 0 0 0 0 0.000000 0.000000 0.000000 0.000000
-14.782800 -2.743201 0.380998 0.000000 -1.000000 -0.000000 0.000000 -0.000000 1.000000 0.640625 -24.250000 0 0 0 0 0.000000 0.000000 0.000000 0.000000
-14.478001 -2.743201 0.380998 0.000000 -1.000000 -0.000000 -1.000000 -0.000000 -0.000000 0.640625 -23.750000 0 0 0 0 0.000000 0.000000 0.000000 0.000000
-12.954000 -2.743201 0.380998 0.000000 -1.000000 -0.000000 0.000000 -0.000000 1.000000 0.640625 -21.250000 0 0 0 0 0.000000 0.000000 0.000000 0.000000
-12.268199 -2.743201 0.533398 0.000000 -1.000000 -0.000000 0.000000 -0.000000 1.000000 0.890625 -20.125000 0 0 0 0 0.000000 0.000000 0.000000 0.000000
-10.744199 -2.743201 0.533399 0.000000 -1.000000 -0.000000 0.000000 -0.000000 1.000000 0.890625 -17.625000 0 0 0 0 0.000000 0.000000 0.000000 0.000000
-10.744199 -2.743201 0.380999 0.000000 -1.000000 -0.000000 0.000000 -0.000000 1.000000 0.640625 -17.625000 0 0 0 0 0.000000 0.000000 0.000000 0.000000
-12.268199 -2.743201 0.380998 0.000000 -1.000000 -0.000000 0.000000 -0.000000 1.000000 0.640625 -20.125000 0 0 0 0 0.000000 0.000000 0.000000 0.000000
-14.478001 -2.743201 0.533398 0.000000 -1.000000 -0.000000 0.000000 -0.000000 1.000000 0.890625 -23.750000 0 0 0 0 0.000000 0.000000 0.000000 0.000000
-12.954000 -2.743201 0.533398 0.000000 -1.000000 -0.000000 0.000000 -0.000000 1.000000 0.890625 -21.250000 0 0 0 0 0.000000 0.000000 0.000000 0.000000
-14.478001 -2.743201 0.380998 0.000000 -1.000000 -0.000000 0.000000 -0.000000 1.000000 0.640625 -23.750000 0 0 0 0 0.000000 0.000000 0.000000 0.000000
-11.544300 -3.962401 0.609598 -0.000000 1.000000 0.000000 -0.000000 -0.000000 1.000000 1.015625 -18.937500 0 0 0 0 0.000000 0.000000 0.000000 0.000000
-11.544300 -3.962401 0.304798 -0.000000 1.000000 0.000000 -0.000000 -0.000000 1.000000 0.515625 -18.937500 0 0 0 0 0.000000 0.000000 0.000000 0.000000
-11.353800 -3.962401 0.304798 -0.000000 1.000000 0.000000 -0.000006 -0.000000 1.000000 0.515625 -18.625000 0 0 0 0 0.000000 0.000000 0.000000 0.000000
-11.544300 -3.962401 0.609598 -0.000000 1.000000 0.000000 1.000000 0.000000 0.000000 1.015625 -18.937500 0 0 0 0 0.000000 0.000000 0.000000 0.000000
-12.954000 -3.962401 0.609598 -0.000000 1.000000 0.000000 1.000000 0.000000 0.000000 1.015625 -21.250000 0 0 0 0 0.000000 0.000000 0.000000 0.000000
-13.677900 -3.962401 0.609598 -0.000000 1.000000 0.000000 1.000000 0.000000 0.000000 1.015625 -22.437500 0 0 0 0 0.000000 0.000000 0.000000 0.000000
-13.677900 -3.962401 0.304798 -0.000000 1.000000 0.000000 0.000000 -0.000000 1.000000 0.515625 -22.437500 0 0 0 0 0.000000 0.000000 0.000000 0.000000
-13.677900 -3.962401 0.609598 -0.000000 1.000000 0.000000 0.000000 -0.000000 1.000000 1.015625 -22.437500 0 0 0 0 0.000000 0.000000 0.000000 0.000000
-15.811500 -3.962401 0.609598 -0.000000 1.000000 0.000000 0.000000 -0.000000 1.000000 1.015625 -25.937500 0 0 0 0 0.000000 0.000000 0.000000 0.000000
-15.620999 -3.962401 0.304798 -0.000000 1.000000 0.000000 -0.000002 -0.000000 1.000000 0.515625 -25.625000 0 0 0 0 0.000000 0.000000 0.000000 0.000000
-32.308800 -3.505204 8.839196 0.000000 -1.000000 -0.000000 1.000000 -0.000000 -0.000000 -26.500000 -9.312500 0 0 0 0 0.000000 0.000000 0.000000 0.000000
-32.308800 -3.505204 8.077196 0.000000 -1.000000 -0.000000 1.000000 0.000000 0.000000 -26.500000 -8.687500 0 0 0 0 0.000000 0.000000 0.000000 0.000000
-32.461201 -3.505204 8.077196 0.000000 -1.000000 -0.000000 1.000000 0.000000 0.000000 -26.625000 -8.687500 0 0 0 0 0.000000 0.000000 0.000000 0.000000
-32.461201 -3.505204 8.839196 0.000000 -1.000000 -0.000000 1.000000 -0.000000 -0.000000 -26.625000 -9.312500 0 0 0 0 0.000000 0.000000 0.000000 0.000000
-32.308800 -3.505205 13.106398 -0.000001 -1.000000 -0.000000 1.000000 -0.000001 -0.000000 -26.500000 -12.812500 0 0 0 0 0.000000 0.000000 0.000000 0.000000
-32.461201 -3.505205 12.344398 -0.000001 -1.000000 -0.000000 1.000000 -0.000001 -0.000006 -26.625000 -12.187500 0 0 0 0 0.000000 0.000000 0.000000 0.000000
-32.461201 -3.505205 13.106398 -0.000001 -1.000000 -0.000000 1.000000 -0.000001 -0.000000 -26.625000 -12.812500 0 0 0 0 0.000000 0.000000 0.000000 0.000000
-32.308800 -4.876804 8.077196 -0.000000 1.000000 0.000000 1.000000 0.000000 0.000000 -26.500000 -8.687500 0 0 0 0 0.000000 0.000000 0.000000 0.000000
-32.308800 -4.876804 8.839196 -0.000000 1.000000 0.000000 1.000000 0.000000 0.000000 -26.500000 -9.312500 0 0 0 0 0.000000 0.000000 0.000000 0.000000
-32.461201 -4.876804 8.839196 -0.000000 1.000000 0.000000 1.000000 0.000000 0.000000 -26.625000 -9.312500 0 0 0 0 0.000000 0.000000 0.000000 0.000000
-32.461201 -4.876804 8.077196 -0.000000 1.000000 0.000000 1.000000 0.000000 0.000000 -26.625000 -8.687500 0 0 0 0 0.000000 0.000000 0.000000 0.000000
-32.308800 -4.876805 13.106396 -0.000000 1.000000 0.000000 1.000000 0.000000 0.000000 -26.500000 -12.812500 0 0 0 0 0.000000 0.000000 0.000000 0.000000
-32.461201 -4.876805 13.106396 -0.000000 1.000000 0.000000 1.000000 0.000000 0.000000 -26.625000 -12.812500 0 0 0 0 0.000000 0.000000 0.000000 0.000000
-32.461201 -4.876805 12.344397 -0.000000 1.000000 0.000000 1.000000 0.000000 -0.000026 -26.625000 -12.187500 0 0 0 0 0.000000 0.000000 0.000000 0.000000
-36.804600 -3.657604 7.315196 0.000000 -1.000000 -0.000000 0.000000 0.000000 -1.000000 -30.187500 -6.062500 0 0 0 0 0.000000 0.000000 0.000000 0.000000
-36.804600 -3.657604 7.391397 0.000000 -1.000000 -0.000000 0.000000 0.000000 -1.000000 -30.187500 -6.125000 0 0 0 0 0.000000 0.000000 0.000000 0.000000
-36.804600 -3.657605 10.667996 0.000000 -1.000000 -0.000000 0.000000 0.000000 -1.000000 -30.187500 -8.812500 0 0 0 0 0.000000 0.000000 0.000000 0.000000
-36.728401 -3.657605 10.667996 0.000000 -1.000000 -0.000000 1.000000 0.000000 0.000000 -30.125000 -8.812500 0 0 0 0 0.000000 0.000000 0.000000 0.000000
-36.728401 -3.657604 7.315196 0.000000 -1.000000 -0.000000 1.000000 0.000000 0.000000 -30.125000 -6.062500 0 0 0 0 0.000000 0.000000 0.000000 0.000000
-36.804600 -4.876804 7.315196 -0.000004 1.000000 0.000000 1.000000 0.000003 0.000000 -30.187500 -6.062500 0 0 0 0 0.000000 0.000000 0.000000 0.000000
-36.728401 -4.876804 7.315196 -0.000004 1.000000 0.000000 1.000000 0.000003 0.000000 -30.125000 -6.062500 0 0 0 0 0.000000 0.000000 0.000000 0.000000
-36.728401 -4.876805 10.667995 -0.000004 1.000000 0.000000 1.000000 0.000004 0.000000 -30.125000 -8.812500 0 0 0 0 0.000000 0.000000 0.000000 0.000000
-36.804600 -4.876805 10.667995 -0.000004 1.000000 0.000000 1.000000 0.000004 0.000000 -30.187500 -8.812500 0 0 0 0 0.000000 0.000000 0.000000 0.000000
-36.804600 -4.876804 7.391397 -0.000004 1.000000 0.000000 -0.000000 -0.000000 1.000000 -30.187500 -6.125000 0 0 0 0 0.000000 0.000000 0.000000 0.000000
-32.308800 -3.505203 4.114797 0.000000 -1.000000 -0.000000 1.000000 0.000000 0.000000 -26.500000 -5.437500 0 0 0 0 0.000000 0.000000 0.000000 0.000000
-32.308800 -3.505203 -0.304803 0.000000 -1.000000 -0.000000 1.000000 0.000000 0.000000 -26.500000 -1.812500 0 0 0 0 0.000000 0.000000 0.000000 0.000000
-32.461201 -3.505203 -0.304803 0.000000 -1.000000 -0.000000 1.000000 0.000000 0.000000 -26.625000 -1.812500 0 0 0 0 0.000000 0.000000 0.000000 0.000000
-32.461201 -3.505203 4.114797 0.000000 -1.000000 -0.000000 1.000000 0.000000 0.000000 -26.625000 -5.437500 0 0 0 0 0.000000 0.000000 0.000000 0.000000
-32.308800 -4.876802 -0.304804 -0.000000 1.000000 0.000000 1.000000 0.000000 0.000000 -26.500000 -1.812500 0 0 0 0 0.000000 0.000000 0.000000 0.000000
-32.308800 -4.876803 4.114796 -0.000000 1.000000 0.000000 1.000000 0.000000 0.000000 -26.500000 -5.437500 0 0 0 0 0.000000 0.000000 0.000000 0.000000
-32.461201 -4.876803 4.114796 -0.000000 1.000000 0.000000 1.000000 0.000000 0.000000 -26.625000 -5.437500 0 0 0 0 0.000000 0.000000 0.000000 0.000000
-32.461201 -4.876802 -0.304804 -0.000000 1.000000 0.000000 1.000000 0.000000 0.000000 -26.625000 -1.812500 0 0 0 0 0.000000 0.000000 0.000000 0.000000
-36.804600 -3.657604 7.315196 0.000000 -1.000000 -0.000000 1.000000 0.000000 0.000000 -30.187500 -6.062500 0 0 0 0 0.000000 0.000000 0.000000 0.000000
-36.728401 -3.657604 4.114796 0.000000 -1.000000 -0.000000 1.000000 0.000000 0.000000 -30.125000 -3.437500 0 0 0 0 0.000000 0.000000 0.000000 0.000000
-36.804600 -3.657604 4.114796 0.000000 -1.000000 -0.000000 1.000000 0.000000 0.000000 -30.187500 -3.437500 0 0 0 0 0.000000 0.000000 0.000000 0.000000
-36.804600 -4.876804 4.114796 -0.000000 1.000000 0.000000 1.000000 0.000000 0.000000 -30.187500 -3.437500 0 0 0 0 0.000000 0.000000 0.000000 0.000000
-36.728401 -4.876804 4.114796 -0.000000 1.000000 0.000000 1.000000 0.000000 0.000000 -30.125000 -3.437500 0 0 0 0 0.000000 0.000000 0.000000 0.000000
IndexCount: 561
3 1 0
1 73 0
3 2 1
1 74 73
74 75 73
74 76 75
7 5 4
7 6 5
77 5 81
77 81 80
79 78 77
80 79 77
80 81 85
80 85 84
84 82 80
84 83 82
8 12 11
8 11 10
10 9 8
96 12 8
96 8 95
18 14 13
18 17 16
18 16 15
18 15 14
19 23 22
19 22 21
21 20 19
27 25 24
27 26 25
31 29 28
28 156 155
28 155 154
28 154 153
153 31 28
31 30 29
35 33 32
158 35 32
158 32 157
35 34 33
160 158 157
160 159 158
41 37 36
41 40 39
41 39 38
41 38 37
42 46 45
42 45 44
44 43 42
47 51 50
47 50 49
49 48 47
52 56 55
52 55 54
54 53 52
60 58 57
60 59 58
64 62 61
64 63 62
68 66 65
68 67 66
72 70 69
72 71 70
89 87 86
89 88 87
90 94 93
90 93 92
92 91 90
100 98 97
98 101 97
100 99 98
98 102 101
102 103 101
102 104 103
104 165 103
104 166 165
166 167 165
166 168 167
168 169 167
168 170 169
170 171 169
170 172 171
108 106 105
110 108 105
110 105 109
108 107 106
112 110 109
112 109 111
174 112 111
174 111 173
176 174 173
176 173 175
178 176 175
178 175 177
180 179 178
180 178 177
116 114 113
118 116 113
118 113 117
116 115 114
120 118 117
120 117 119
182 120 119
182 119 181
184 182 181
184 181 183
186 184 183
186 183 185
188 187 186
188 186 185
121 125 124
121 124 123
123 122 121
123 124 129
123 129 128
123 128 127
127 126 123
189 129 193
189 193 192
191 190 189
192 191 189
192 193 197
192 197 196
195 194 192
196 195 192
130 134 133
133 131 130
135 134 130
135 136 134
198 202 136
198 136 201
198 203 202
199 198 201
201 200 199
208 205 203
208 203 204
208 207 206
208 206 205
215 208 214
215 214 213
133 132 131
131 132 138
131 138 137
142 140 139
142 141 140
146 144 143
146 145 144
145 147 144
145 148 147
147 148 218
147 218 217
217 216 147
219 217 222
219 222 221
221 220 219
222 225 224
222 224 223
152 150 149
152 151 150
164 162 161
164 163 162
212 210 209
212 211 210
229 227 226
229 226 230
229 228 227
230 231 229
230 232 231
236 234 233
236 235 234
234 235 239
234 239 238
238 237 234
240 244 243
240 243 242
242 241 240
260 259 244
260 244 258
245 249 248
245 248 247
247 246 245
246 261 245
246 262 261
253 251 250
253 252 251
257 255 254
257 256 255