VertexCount: 36
-17.221201 -2.171699 -7.029450 1.000000 0.000000 0.000000 0.000000 1.000000 0.000000 -0.087500 -2.796875 0 0 0 0 0.000000 0.000000 0.000000 0.000000
-17.221201 -2.171699 -7.105650 1.000000 0.000000 0.000000 0.000000 1.000000 0.000000 -0.087500 -2.828125 0 0 0 0 0.000000 0.000000 0.000000 0.000000
-17.221201 -3.047999 -7.105650 1.000000 0.000000 0.000000 0.000000 1.000000 0.000000 -0.375000 -2.828125 0 0 0 0 0.000000 0.000000 0.000000 0.000000
-17.221201 -3.047999 -7.029450 1.000000 0.000000 0.000000 0.000000 1.000000 0.000000 -0.375000 -2.796875 0 0 0 0 0.000000 0.000000 0.000000 0.000000
-18.745201 -2.171699 -7.029450 -1.000000 0.000000 0.000000 0.000000 1.000000 0.000000 -0.087500 -2.796875 0 0 0 0 0.000000 0.000000 0.000000 0.000000
-18.745201 -3.047999 -7.029450 -1.000000 0.000000 0.000000 0.000000 1.000000 0.000000 -0.375000 -2.796875 0 0 0 0 0.000000 0.000000 0.000000 0.000000
-18.745201 -3.047999 -7.105650 -1.000000 0.000000 0.000000 0.000000 1.000000 0.000000 -0.375000 -2.828125 0 0 0 0 0.000000 0.000000 0.000000 0.000000
-18.745201 -2.171699 -7.105650 -1.000000 0.000000 0.000000 0.000000 1.000000 0.000000 -0.087500 -2.828125 0 0 0 0 0.000000 0.000000 0.000000 0.000000
-17.221201 -3.047999 -7.029450 0.000000 -1.000000 -0.000000 0.000000 -0.000000 1.000000 -1.562500 -6.937500 0 0 0 0 0.000000 0.000000 0.000000 0.000000
-17.221201 -3.047999 -7.105650 0.000000 -1.000000 -0.000000 0.000000 -0.000000 1.000000 -1.587500 -6.937500 0 0 0 0 0.000000 0.000000 0.000000 0.000000
-18.745201 -3.047999 -7.105650 0.000000 -1.000000 -0.000000 0.000000 -0.000000 1.000000 -1.587500 -7.562500 0 0 0 0 0.000000 0.000000 0.000000 0.000000
-18.745201 -3.047999 -7.029450 0.000000 -1.000000 -0.000000 0.000000 -0.000000 1.000000 -1.562500 -7.562500 0 0 0 0 0.000000 0.000000 0.000000 0.000000
-17.221201 -2.171699 -7.029450 0.000000 1.000000 0.000000 0.000000 -0.000000 1.000000 -1.562500 -6.937500 0 0 0 0 0.000000 0.000000 0.000000 0.000000
-18.745201 -2.171699 -7.029450 0.000000 1.000000 0.000000 0.000000 -0.000000 1.000000 -1.562500 -7.562500 0 0 0 0 0.000000 0.000000 0.000000 0.000000
-18.745201 -2.171699 -7.105650 0.000000 1.000000 0.000000 0.000000 -0.000000 1.000000 -1.587500 -7.562500 0 0 0 0 0.000000 0.000000 0.000000 0.000000
-17.221201 -2.171699 -7.105650 0.000000 1.000000 0.000000 0.000000 -0.000000 1.000000 -1.587500 -6.937500 0 0 0 0 0.000000 0.000000 0.000000 0.000000
-17.221201 -2.171699 -7.029450 0.000000 -0.000000 1.000000 0.000000 1.000000 0.000000 -0.087500 -6.593750 0 0 0 0 0.000000 0.000000 0.000000 0.000000
-17.221201 -3.047999 -7.029450 0.000000 -0.000000 1.000000 0.000000 1.000000 0.000000 -0.375000 -6.593750 0 0 0 0 0.000000 0.000000 0.000000 0.000000
-18.745201 -3.047999 -7.029450 0.000000 -0.000000 1.000000 0.000000 1.000000 0.000000 -0.375000 -7.218750 0 0 0 0 0.000000 0.000000 0.000000 0.000000
-18.745201 -2.171699 -7.029450 0.000000 -0.000000 1.000000 0.000000 1.000000 0.000000 -0.087500 -7.218750 0 0 0 0 0.000000 0.000000 0.000000 0.000000
-19.202400 -3.428999 -7.048500 0.000000 -1.000000 -0.000000 0.000000 -0.000000 1.000000 -1.650000 -7.218750 0 0 0 0 0.000000 0.000000 0.000000 0.000000
-19.202400 -3.428999 -7.277101 0.000000 -1.000000 -0.000000 0.000000 -0.000000 1.000000 -1.725000 -7.218750 0 0 0 0 0.000000 0.000000 0.000000 0.000000
-19.697701 -3.428999 -7.277101 0.000000 -1.000000 -0.000000 0.000000 -0.000000 1.000000 -1.725000 -7.421875 0 0 0 0 0.000000 0.000000 0.000000 0.000000
-19.697701 -3.428999 -7.048500 0.000000 -1.000000 -0.000000 0.000000 -0.000000 1.000000 -1.650000 -7.421875 0 0 0 0 0.000000 0.000000 0.000000 0.000000
-19.202400 -3.047999 -7.048500 0.000000 -0.000000 1.000000 0.000000 1.000000 0.000000 -0.375000 -7.875000 0 0 0 0 0.000000 0.000000 0.000000 0.000000
-19.202400 -3.428999 -7.048500 0.000000 -0.000000 1.000000 0.000000 1.000000 0.000000 -0.500000 -7.875000 0 0 0 0 0.000000 0.000000 0.000000 0.000000
-19.697701 -3.428999 -7.048500 0.000000 -0.000000 1.000000 0.000000 1.000000 0.000000 -0.500000 -8.078125 0 0 0 0 0.000000 0.000000 0.000000 0.000000
-19.697701 -3.047999 -7.048500 0.000000 -0.000000 1.000000 0.000000 1.000000 0.000000 -0.375000 -8.078125 0 0 0 0 0.000000 0.000000 0.000000 0.000000
-18.783300 -3.428998 -17.068800 0.000000 -1.000000 -0.000000 0.000000 -0.000000 1.000000 -4.737500 -7.203125 0 0 0 0 0.000000 0.000000 0.000000 0.000000
-19.316700 -3.428998 -17.068800 0.000000 -1.000000 -0.000000 0.000000 -0.000000 1.000000 -4.737500 -7.421875 0 0 0 0 0.000000 0.000000 0.000000 0.000000
-19.316700 -3.428998 -16.840200 0.000000 -1.000000 -0.000000 0.000000 -0.000000 1.000000 -4.662500 -7.421875 0 0 0 0 0.000000 0.000000 0.000000 0.000000
-18.783300 -3.428998 -16.840200 0.000000 -1.000000 -0.000000 0.000000 -0.000000 1.000000 -4.662500 -7.203125 0 0 0 0 0.000000 0.000000 0.000000 0.000000
-19.316700 -3.047997 -17.068800 0.000000 0.000000 -1.000000 0.000000 1.000000 0.000000 -0.375000 -7.078125 0 0 0 0 0.000000 0.000000 0.000000 0.000000
-19.316700 -3.428998 -17.068800 0.000000 0.000000 -1.000000 0.000000 1.000000 0.000000 -0.500000 -7.078125 0 0 0 0 0.000000 0.000000 0.000000 0.000000
-18.783300 -3.428998 -17.068800 0.000000 0.000000 -1.000000 0.000000 1.000000 0.000000 -0.500000 -6.859375 0 0 0 0 0.000000 0.000000 0.000000 0.000000
-18.783300 -3.047997 -17.068800 0.000000 0.000000 -1.000000 0.000000 1.000000 0.000000 -0.375000 -6.859375 0 0 0 0 0.000000 0.000000 0.000000 0.000000
IndexCount: 96
3 1 0
3 1 0
3 2 1
3 2 1
7 5 4
7 5 4
7 6 5
7 6 5
11 9 8
11 9 8
11 10 9
11 10 9
15 13 12
15 13 12
15 14 13
15 14 13
19 17 16
19 17 16
19 18 17
19 18 17
23 21 20
23 21 20
23 22 21
23 22 21
27 25 24
27 25 24
27 26 25
27 26 25
31 29 28
31 30 29
35 33 32
35 34 33