VertexCount: 4
-21.602699 -1.981198 -12.877800 1.000000 0.000000 0.000000 0.000000 -0.000000 1.000000 -7.000000 1.000000 0 0 0 0 0.000000 0.000000 0.000000 0.000000
-21.602699 -3.200398 -12.877800 1.000000 0.000000 0.000000 0.000000 -0.000000 1.000000 -7.000000 2.000000 0 0 0 0 0.000000 0.000000 0.000000 0.000000
-21.602699 -3.200398 -11.049000 1.000000 0.000000 0.000000 0.000000 -0.000000 1.000000 -6.000000 2.000000 0 0 0 0 0.000000 0.000000 0.000000 0.000000
-21.602699 -1.981198 -11.049000 1.000000 0.000000 0.000000 0.000000 -0.000000 1.000000 -6.000000 1.000000 0 0 0 0 0.000000 0.000000 0.000000 0.000000
IndexCount: 6
3 2 1
3 1 0