VertexCount: 8
9.677402 -3.505196 -18.745199 -1.000000 -0.000000 -0.000000 -0.000000 1.000000 0.000002 -3.031250 -15.765625 0 0 0 0 0.000000 0.000000 0.000000 0.000000
9.677402 -3.505197 -17.983198 -1.000000 -0.000000 -0.000000 -0.000000 1.000000 0.000002 -3.031250 -15.140625 0 0 0 0 0.000000 0.000000 0.000000 0.000000
9.677402 -4.038596 -17.983200 -1.000000 -0.000000 -0.000000 -0.000000 1.000000 0.000002 -3.468750 -15.140625 0 0 0 0 0.000000 0.000000 0.000000 0.000000
9.677402 -4.038596 -18.745201 -1.000000 -0.000000 -0.000000 -0.000000 1.000000 0.000002 -3.468750 -15.765625 0 0 0 0 0.000000 0.000000 0.000000 0.000000
9.677402 -3.505196 -22.402800 -1.000000 -0.000000 -0.000000 -0.000000 1.000000 -0.000000 -3.031250 -18.765625 0 0 0 0 0.000000 0.000000 0.000000 0.000000
9.677402 -3.505196 -21.640800 -1.000000 -0.000000 -0.000000 -0.000000 1.000000 -0.000000 -3.031250 -18.140625 0 0 0 0 0.000000 0.000000 0.000000 0.000000
9.677402 -4.038596 -21.640800 -1.000000 -0.000000 -0.000000 -0.000000 1.000000 -0.000000 -3.468750 -18.140625 0 0 0 0 0.000000 0.000000 0.000000 0.000000
9.677402 -4.038595 -22.402800 -1.000000 -0.000000 -0.000000 -0.000000 1.000000 -0.000000 -3.468750 -18.765625 0 0 0 0 0.000000 0.000000 0.000000 0.000000
IndexCount: 12
3 2 1
3 1 0
7 6 5
7 5 4
