VertexCount: 16
-17.907000 -2.438401 5.486400 0.000000 0.000000 -1.000000 1.000000 0.000000 0.000000 -59.250000 2.375000 0 0 0 0 0.000000 0.000000 0.000000 0.000000
-17.907000 -4.572001 5.486400 0.000000 0.000000 -1.000000 1.000000 0.000000 0.000000 -59.250000 4.125000 0 0 0 0 0.000000 0.000000 0.000000 0.000000
-17.754601 -4.572001 5.486400 0.000000 0.000000 -1.000000 1.000000 0.000000 0.000000 -58.750000 4.125000 0 0 0 0 0.000000 0.000000 0.000000 0.000000
-17.754601 -2.438401 5.486400 0.000000 0.000000 -1.000000 1.000000 0.000000 0.000000 -58.750000 2.375000 0 0 0 0 0.000000 0.000000 0.000000 0.000000
-14.706600 -4.114798 -14.782802 0.000000 -1.000000 -0.000000 1.000000 0.000000 0.000000 -48.750000 12.500000 0 0 0 0 0.000000 0.000000 0.000000 0.000000
-14.706600 -4.114797 -16.002001 0.000000 -1.000000 -0.000000 1.000000 0.000000 0.000000 -48.750000 13.500000 0 0 0 0 0.000000 0.000000 0.000000 0.000000
-14.859000 -4.114797 -16.002001 0.000000 -1.000000 -0.000000 1.000000 0.000000 0.000000 -49.250000 13.500000 0 0 0 0 0.000000 0.000000 0.000000 0.000000
-14.859000 -4.114798 -14.782802 0.000000 -1.000000 -0.000000 1.000000 0.000000 0.000000 -49.250000 12.500000 0 0 0 0 0.000000 0.000000 0.000000 0.000000
-14.706600 -1.981197 -16.002001 0.000000 1.000000 0.000000 1.000000 0.000000 0.000000 -48.750000 13.500000 0 0 0 0 0.000000 0.000000 0.000000 0.000000
-14.706600 -1.981197 -14.782800 0.000000 1.000000 0.000000 1.000000 0.000000 0.000000 -48.750000 12.500000 0 0 0 0 0.000000 0.000000 0.000000 0.000000
-14.859000 -1.981197 -14.782800 0.000000 1.000000 0.000000 1.000000 0.000000 0.000000 -49.250000 12.500000 0 0 0 0 0.000000 0.000000 0.000000 0.000000
-14.859000 -1.981197 -16.002001 0.000000 1.000000 0.000000 1.000000 0.000000 0.000000 -49.250000 13.500000 0 0 0 0 0.000000 0.000000 0.000000 0.000000
-14.706600 -1.981197 -14.782800 0.000000 -0.000000 1.000000 1.000000 0.000000 0.000000 -48.750000 2.000000 0 0 0 0 0.000000 0.000000 0.000000 0.000000
-14.706600 -4.114798 -14.782802 0.000000 -0.000000 1.000000 1.000000 0.000000 0.000000 -48.750000 3.750000 0 0 0 0 0.000000 0.000000 0.000000 0.000000
-14.859000 -4.114798 -14.782802 0.000000 -0.000000 1.000000 1.000000 0.000000 0.000000 -49.250000 3.750000 0 0 0 0 0.000000 0.000000 0.000000 0.000000
-14.859000 -1.981197 -14.782800 0.000000 -0.000000 1.000000 1.000000 0.000000 0.000000 -49.250000 2.000000 0 0 0 0 0.000000 0.000000 0.000000 0.000000
IndexCount: 24
3 1 0
3 2 1
7 5 4
7 6 5
11 9 8
11 10 9
15 13 12
15 14 13