VertexCount: 4
-20.726400 0.914398 2.895598 0.000000 -1.000000 -0.000000 -0.000000 -0.000000 1.000000 9.500000 -17.000000 0 0 0 0 0.000000 0.000000 0.000000 0.000000
-20.726400 0.914398 2.590798 0.000000 -1.000000 -0.000000 -0.000000 -0.000000 1.000000 8.500000 -17.000000 0 0 0 0 0.000000 0.000000 0.000000 0.000000
-21.945601 0.914398 2.590798 0.000000 -1.000000 -0.000000 0.000000 -0.000000 1.000000 8.500000 -18.000000 0 0 0 0 0.000000 0.000000 0.000000 0.000000
-21.945601 0.914398 2.895598 0.000000 -1.000000 -0.000000 -0.000000 -0.000000 1.000000 9.500000 -18.000000 0 0 0 0 0.000000 0.000000 0.000000 0.000000
IndexCount: 6
3 2 1
3 1 0
