VertexCount: 8
-8.001000 -2.743202 11.429999 0.000000 0.000000 -1.000000 1.000000 0.000000 0.000000 -13.000000 3.000000 0 0 0 0 0.000000 0.000000 0.000000 0.000000
-8.610600 -2.743202 11.429999 0.000000 0.000000 -1.000000 1.000000 0.000000 0.000000 -14.000000 3.000000 0 0 0 0 0.000000 0.000000 0.000000 0.000000
-8.610600 -3.657602 11.429999 0.000000 0.000000 -1.000000 1.000000 0.000000 0.000000 -14.000000 4.000000 0 0 0 0 0.000000 0.000000 0.000000 0.000000
-8.001000 -3.657602 11.429999 0.000000 0.000000 -1.000000 1.000000 0.000000 0.000000 -13.000000 4.000000 0 0 0 0 0.000000 0.000000 0.000000 0.000000
-6.096000 -2.419347 -18.592800 1.000000 0.000000 0.000000 0.000000 -0.000000 1.000000 -30.000000 2.000000 0 0 0 0 0.000000 0.000000 0.000000 0.000000
-6.096000 -2.419347 -19.202400 1.000000 0.000000 0.000000 0.000000 -0.000000 1.000000 -31.000000 2.000000 0 0 0 0 0.000000 0.000000 0.000000 0.000000
-6.096000 -3.333747 -19.202400 1.000000 0.000000 0.000000 0.000000 0.000000 1.000000 -31.000000 3.000000 0 0 0 0 0.000000 0.000000 0.000000 0.000000
-6.096000 -3.333747 -18.592800 1.000000 0.000000 0.000000 0.000000 -0.000000 1.000000 -30.000000 3.000000 0 0 0 0 0.000000 0.000000 0.000000 0.000000
IndexCount: 12
3 2 1
3 1 0
7 6 5
7 5 4