VertexCount: 14
-2.743200 -2.743200 0.609599 -0.000000 -0.000000 1.000000 -1.000000 0.000000 -0.000000 3.000000 3.990385 0 0 0 0 0.000000 0.000000 0.000000 0.000000
-2.743200 -3.352800 0.609599 -0.000000 -0.000000 1.000000 -1.000000 0.000000 -0.000000 3.000000 5.016026 0 0 0 0 0.000000 0.000000 0.000000 0.000000
-3.657599 -3.352800 0.609599 -0.000000 -0.000000 1.000000 -1.000000 0.000000 -0.000000 4.000000 5.016026 0 0 0 0 0.000000 0.000000 0.000000 0.000000
-3.657599 -2.743200 0.609599 -0.000000 -0.000000 1.000000 -1.000000 0.000000 -0.000000 4.000000 3.990385 0 0 0 0 0.000000 0.000000 0.000000 0.000000
-1.828800 -2.743200 0.609599 -0.000000 -0.000000 1.000000 -1.000000 -0.000000 -0.000000 2.000000 3.990385 0 0 0 0 0.000000 0.000000 0.000000 0.000000
-1.828800 -2.133600 0.609599 -0.000000 -0.000000 1.000000 -1.000000 -0.000000 -0.000000 2.000000 2.964744 0 0 0 0 0.000000 0.000000 0.000000 0.000000
0.000000 -2.133600 0.609600 -0.000000 -0.000000 1.000000 -1.000000 -0.000000 -0.000000 0.000000 2.964744 0 0 0 0 0.000000 0.000000 0.000000 0.000000
0.000000 -2.743200 0.609600 -0.000000 -0.000000 1.000000 -1.000000 -0.000000 -0.000000 0.000000 3.990385 0 0 0 0 0.000000 0.000000 0.000000 0.000000
-0.914400 -2.743200 0.609599 -0.000000 -0.000000 1.000000 1.000000 0.000000 0.000000 1.000000 3.990385 0 0 0 0 0.000000 0.000000 0.000000 0.000000
0.914400 -3.352800 0.609600 -0.000000 -0.000000 1.000000 -1.000000 -0.000000 -0.000000 -1.000000 5.016026 0 0 0 0 0.000000 0.000000 0.000000 0.000000
0.914400 -3.962400 0.609599 -0.000000 -0.000000 1.000000 -1.000000 -0.000000 -0.000000 -1.000000 6.041667 0 0 0 0 0.000000 0.000000 0.000000 0.000000
0.609600 -3.962400 0.609599 -0.000000 -0.000000 1.000000 -1.000000 -0.000000 -0.000000 -0.666667 6.041667 0 0 0 0 0.000000 0.000000 0.000000 0.000000
0.000000 -3.962400 0.609599 -0.000000 -0.000000 1.000000 -1.000000 0.000000 -0.000000 0.000000 6.041667 0 0 0 0 0.000000 0.000000 0.000000 0.000000
0.000000 -3.352800 0.609599 -0.000000 -0.000000 1.000000 -1.000000 0.000000 -0.000000 0.000000 5.016026 0 0 0 0 0.000000 0.000000 0.000000 0.000000
IndexCount: 24
3 1 0
3 2 1
4 8 7
4 7 6
6 5 4
9 13 12
9 12 11
11 10 9
