VertexCount: 104
6.934200 -2.133600 7.315199 1.000000 0.000000 0.000000 0.000000 0.000000 -1.000000 6.785823 1.649771 0 0 0 0 0.000000 0.000000 0.000000 0.000000
6.934200 -2.133600 7.543800 1.000000 0.000000 0.000000 0.000000 0.000000 -1.000000 7.014482 1.649771 0 0 0 0 0.000000 0.000000 0.000000 0.000000
6.934200 -2.133600 7.924799 1.000000 0.000000 0.000000 0.000000 0.000000 -1.000000 7.395579 1.649771 0 0 0 0 0.000000 0.000000 0.000000 0.000000
6.934200 -1.981201 7.924799 1.000000 0.000000 0.000000 -0.000000 -0.000000 1.000000 7.395579 1.497332 0 0 0 0 0.000000 0.000000 0.000000 0.000000
6.934200 -1.981201 7.315199 1.000000 0.000000 0.000000 -0.000000 -0.000000 1.000000 6.785823 1.497332 0 0 0 0 0.000000 0.000000 0.000000 0.000000
14.325599 -2.133600 7.315200 -1.000000 -0.000000 -0.000000 -0.000000 -0.000000 1.000000 6.785823 1.649771 0 0 0 0 0.000000 0.000000 0.000000 0.000000
14.325599 -1.981200 7.315200 -1.000000 -0.000000 -0.000000 -0.000000 -0.000000 1.000000 6.785823 1.497332 0 0 0 0 0.000000 0.000000 0.000000 0.000000
14.325599 -1.981200 7.924800 -1.000000 -0.000000 -0.000000 -0.000000 -0.000000 1.000000 7.395579 1.497332 0 0 0 0 0.000000 0.000000 0.000000 0.000000
14.325599 -2.133600 7.924800 -1.000000 -0.000000 -0.000000 -0.000000 -0.000000 1.000000 7.395579 1.649771 0 0 0 0 0.000000 0.000000 0.000000 0.000000
14.325599 -2.133600 7.543800 -1.000000 -0.000000 -0.000000 -0.000000 -0.000000 1.000000 7.014482 1.649771 0 0 0 0 0.000000 0.000000 0.000000 0.000000
15.697198 -2.133600 7.543800 0.000000 -1.000000 -0.000000 0.000000 -0.000000 1.000000 7.014482 15.216845 0 0 0 0 0.000000 0.000000 0.000000 0.000000
15.697198 -2.133600 7.315200 0.000000 -1.000000 -0.000000 -0.000000 -0.000000 1.000000 6.785823 15.216845 0 0 0 0 0.000000 0.000000 0.000000 0.000000
14.325599 -2.133600 7.315200 0.000000 -1.000000 -0.000000 -0.000000 -0.000000 1.000000 6.785823 13.844893 0 0 0 0 0.000000 0.000000 0.000000 0.000000
14.325599 -2.133600 7.543800 0.000000 -1.000000 -0.000000 0.000000 -0.000000 1.000000 7.014482 13.844893 0 0 0 0 0.000000 0.000000 0.000000 0.000000
13.932407 -4.495800 7.543800 0.000000 0.000000 -1.000000 -0.000000 1.000000 0.000000 -5.043826 13.451601 0 0 0 0 0.000000 0.000000 0.000000 0.000000
13.932407 -4.572000 7.543800 0.000000 0.000000 -1.000000 -0.000000 1.000000 0.000000 -5.120046 13.451601 0 0 0 0 0.000000 0.000000 0.000000 0.000000
14.325599 -4.572000 7.543800 0.000000 0.000000 -1.000000 -0.000000 1.000000 0.000000 -5.120046 13.844893 0 0 0 0 0.000000 0.000000 0.000000 0.000000
14.325599 -4.495800 7.543800 0.000000 0.000000 -1.000000 -0.000000 1.000000 0.000000 -5.043826 13.844893 0 0 0 0 0.000000 0.000000 0.000000 0.000000
13.932407 -4.495800 7.543800 0.000000 0.000000 -1.000000 1.000000 0.000000 0.000000 -5.043826 13.451601 0 0 0 0 0.000000 0.000000 0.000000 0.000000
12.801599 -4.495800 7.543800 0.000000 0.000000 -1.000000 1.000000 0.000000 0.000000 -5.043826 12.320503 0 0 0 0 0.000000 0.000000 0.000000 0.000000
12.420598 -4.495800 7.543800 0.000000 0.000000 -1.000000 1.000000 0.000000 0.000000 -5.043826 11.939405 0 0 0 0 0.000000 0.000000 0.000000 0.000000
10.433302 -4.495800 7.543800 0.000000 0.000000 -1.000000 1.000000 0.000000 0.000000 -5.043826 9.951601 0 0 0 0 0.000000 0.000000 0.000000 0.000000
10.433302 -4.572001 7.543800 0.000000 0.000000 -1.000000 -0.000000 1.000000 0.000000 -5.120046 9.951601 0 0 0 0 0.000000 0.000000 0.000000 0.000000
8.915401 -4.495800 7.543800 0.000000 0.000000 -1.000000 1.000000 0.000000 0.000000 -5.043826 8.433308 0 0 0 0 0.000000 0.000000 0.000000 0.000000
8.534400 -4.495800 7.543800 0.000000 0.000000 -1.000000 1.000000 0.000000 0.000000 -5.043826 8.052211 0 0 0 0 0.000000 0.000000 0.000000 0.000000
6.934200 -4.495800 7.543800 0.000000 0.000000 -1.000000 1.000000 0.000000 0.000000 -5.043826 6.451601 0 0 0 0 0.000000 0.000000 0.000000 0.000000
6.934200 -4.572001 7.543800 0.000000 0.000000 -1.000000 -0.000000 1.000000 0.000000 -5.120046 6.451601 0 0 0 0 0.000000 0.000000 0.000000 0.000000
14.325599 -4.191000 7.924800 -0.000000 0.780869 -0.624695 0.000000 0.624695 0.780869 7.379954 13.844893 0 0 0 0 0.000000 0.000000 0.000000 0.000000
12.801599 -4.191000 7.924800 -0.000000 0.780869 -0.624695 0.000000 0.624695 0.780869 7.379954 12.320503 0 0 0 0 0.000000 0.000000 0.000000 0.000000
12.801599 -4.495800 7.543800 -0.000000 0.780869 -0.624695 0.000000 0.624695 0.780869 6.998857 12.320503 0 0 0 0 0.000000 0.000000 0.000000 0.000000
13.932407 -4.495800 7.543800 -0.000000 0.780869 -0.624695 0.000001 0.624695 0.780869 6.998857 13.451601 0 0 0 0 0.000000 0.000000 0.000000 0.000000
14.325599 -4.495800 7.543800 -0.000000 0.780869 -0.624695 0.000000 0.624695 0.780869 6.998857 13.844893 0 0 0 0 0.000000 0.000000 0.000000 0.000000
12.420598 -4.191000 7.924800 -0.000000 0.780869 -0.624695 1.000000 0.000000 0.000000 7.379954 11.939405 0 0 0 0 0.000000 0.000000 0.000000 0.000000
11.201399 -4.191000 7.924800 -0.000000 0.780869 -0.624695 1.000000 0.000000 0.000000 7.379954 10.719893 0 0 0 0 0.000000 0.000000 0.000000 0.000000
8.915401 -4.191000 7.924799 -0.000000 0.780869 -0.624695 1.000000 0.000000 0.000000 7.379954 8.433308 0 0 0 0 0.000000 0.000000 0.000000 0.000000
8.915401 -4.495800 7.543800 -0.000000 0.780869 -0.624695 -0.000000 0.624695 0.780869 6.998857 8.433308 0 0 0 0 0.000000 0.000000 0.000000 0.000000
10.433302 -4.495800 7.543800 -0.000000 0.780869 -0.624695 0.000009 0.624695 0.780869 6.998857 9.951601 0 0 0 0 0.000000 0.000000 0.000000 0.000000
12.420598 -4.495800 7.543800 -0.000000 0.780869 -0.624695 -0.000000 0.624695 0.780869 6.998857 11.939405 0 0 0 0 0.000000 0.000000 0.000000 0.000000
8.534400 -4.191000 7.924799 -0.000000 0.780868 -0.624695 -0.000000 0.624695 0.780869 7.379954 8.052211 0 0 0 0 0.000000 0.000000 0.000000 0.000000
6.934200 -4.191000 7.924799 -0.000000 0.780868 -0.624695 -0.000000 0.624695 0.780869 7.379954 6.451601 0 0 0 0 0.000000 0.000000 0.000000 0.000000
6.934200 -4.495800 7.543800 -0.000000 0.780868 -0.624695 -0.000000 0.624695 0.780869 6.998857 6.451601 0 0 0 0 0.000000 0.000000 0.000000 0.000000
8.534400 -4.495800 7.543800 -0.000000 0.780868 -0.624695 -0.000000 0.624695 0.780869 6.998857 8.052211 0 0 0 0 0.000000 0.000000 0.000000 0.000000
6.286500 -2.133600 7.315199 0.000000 -1.000000 -0.000000 0.000000 -0.000000 1.000000 6.785823 5.803735 0 0 0 0 0.000000 0.000000 0.000000 0.000000
6.248400 -2.133600 7.315199 0.000000 -1.000000 -0.000000 0.000000 -0.000000 1.000000 6.785823 5.765625 0 0 0 0 0.000000 0.000000 0.000000 0.000000
6.248400 -2.133600 7.543800 0.000000 -1.000000 -0.000000 0.000000 -0.000000 1.000000 7.014482 5.765625 0 0 0 0 0.000000 0.000000 0.000000 0.000000
6.286500 -2.133600 7.543800 0.000000 -1.000000 -0.000000 0.000000 -0.000000 1.000000 7.014482 5.803735 0 0 0 0 0.000000 0.000000 0.000000 0.000000
6.934200 -2.133600 7.315199 0.000000 -1.000000 -0.000000 0.000000 -0.000000 1.000000 6.785823 6.451601 0 0 0 0 0.000000 0.000000 0.000000 0.000000
6.515100 -2.133600 7.315199 0.000000 -1.000000 -0.000000 0.000000 -0.000000 1.000000 6.785823 6.032393 0 0 0 0 0.000000 0.000000 0.000000 0.000000
6.667499 -2.133600 7.543800 0.000000 -1.000000 -0.000000 -0.000003 -0.000000 1.000000 7.014482 6.184833 0 0 0 0 0.000000 0.000000 0.000000 0.000000
6.934200 -2.133600 7.543800 0.000000 -1.000000 -0.000000 0.000000 -0.000000 1.000000 7.014482 6.451601 0 0 0 0 0.000000 0.000000 0.000000 0.000000
6.934200 -1.676400 6.934201 1.000000 0.000000 0.000000 -0.000000 -0.000000 1.000000 6.404726 1.192454 0 0 0 0 0.000000 0.000000 0.000000 0.000000
6.934200 -1.066800 6.934201 1.000000 0.000000 0.000000 -0.000000 -0.000000 1.000000 6.404726 0.582698 0 0 0 0 0.000000 0.000000 0.000000 0.000000
6.934200 -1.066800 5.105400 1.000000 0.000000 0.000000 -0.000000 -0.000000 1.000000 4.575458 0.582698 0 0 0 0 0.000000 0.000000 0.000000 0.000000
6.934200 -1.676400 5.105400 1.000000 0.000000 0.000000 -0.000000 -0.000000 1.000000 4.575458 1.192454 0 0 0 0 0.000000 0.000000 0.000000 0.000000
6.934200 -2.133600 7.315199 1.000000 0.000000 0.000000 -0.000000 -0.000000 1.000000 6.785823 1.649771 0 0 0 0 0.000000 0.000000 0.000000 0.000000
6.934200 -1.981200 6.934200 1.000000 0.000000 0.000000 -0.000000 -0.000000 1.000000 6.404726 1.497332 0 0 0 0 0.000000 0.000000 0.000000 0.000000
6.934200 -1.981200 5.105400 1.000000 0.000000 0.000000 -0.000000 -0.000000 1.000000 4.575458 1.497332 0 0 0 0 0.000000 0.000000 0.000000 0.000000
6.934200 -1.981200 4.114800 1.000000 0.000000 0.000000 -0.000000 -0.000000 1.000000 3.584604 1.497332 0 0 0 0 0.000000 0.000000 0.000000 0.000000
6.934200 -2.133600 4.114800 1.000000 0.000000 0.000000 -0.000000 -0.000000 1.000000 3.584604 1.649771 0 0 0 0 0.000000 0.000000 0.000000 0.000000
6.934200 -2.133600 4.495800 1.000000 0.000000 0.000000 -0.000000 -0.000000 1.000000 3.965701 1.649771 0 0 0 0 0.000000 0.000000 0.000000 0.000000
14.325599 -2.133600 7.315200 -1.000000 -0.000000 -0.000000 -0.000000 -0.000000 1.000000 6.785823 1.649771 0 0 0 0 0.000000 0.000000 0.000000 0.000000
14.325601 -2.133600 4.495801 -1.000000 -0.000000 -0.000000 -0.000000 -0.000000 1.000000 3.965701 1.649771 0 0 0 0 0.000000 0.000000 0.000000 0.000000
14.325601 -2.133599 4.114801 -1.000000 -0.000000 -0.000000 -0.000000 -0.000000 1.000000 3.584604 1.649771 0 0 0 0 0.000000 0.000000 0.000000 0.000000
14.325601 -1.981199 4.114801 -1.000000 -0.000000 -0.000000 -0.000000 -0.000000 1.000000 3.584604 1.497332 0 0 0 0 0.000000 0.000000 0.000000 0.000000
14.325601 -1.981200 5.105401 -1.000000 -0.000000 -0.000000 -0.000000 -0.000000 1.000000 4.575458 1.497332 0 0 0 0 0.000000 0.000000 0.000000 0.000000
14.325601 -1.981200 6.934201 -1.000000 -0.000000 -0.000000 -0.000000 -0.000000 1.000000 6.404726 1.497332 0 0 0 0 0.000000 0.000000 0.000000 0.000000
14.325601 -0.762000 6.934202 -1.000000 -0.000000 -0.000000 -0.000000 -0.000000 1.000000 6.404726 0.277820 0 0 0 0 0.000000 0.000000 0.000000 0.000000
14.325601 -1.676400 6.934202 -1.000000 -0.000000 -0.000000 -0.000000 -0.000000 1.000000 6.404726 1.192454 0 0 0 0 0.000000 0.000000 0.000000 0.000000
14.325601 -1.676399 5.105401 -1.000000 -0.000000 -0.000000 -0.000000 -0.000000 1.000000 4.575458 1.192454 0 0 0 0 0.000000 0.000000 0.000000 0.000000
14.325601 -0.762000 5.105401 -1.000000 -0.000000 -0.000000 -0.000000 -0.000000 1.000000 4.575458 0.277820 0 0 0 0 0.000000 0.000000 0.000000 0.000000
15.697200 -2.133599 4.495801 0.000000 -1.000000 -0.000000 -0.000000 -0.000000 1.000000 3.965701 15.216845 0 0 0 0 0.000000 0.000000 0.000000 0.000000
14.325601 -2.133600 4.495801 0.000000 -1.000000 -0.000000 -0.000000 -0.000000 1.000000 3.965701 13.844893 0 0 0 0 0.000000 0.000000 0.000000 0.000000
13.932408 -4.572000 4.495800 -0.000000 -0.000000 1.000000 -0.000000 1.000000 0.000000 -5.120046 13.451601 0 0 0 0 0.000000 0.000000 0.000000 0.000000
13.932408 -4.495800 4.495800 -0.000000 -0.000000 1.000000 -0.000000 1.000000 0.000000 -5.043826 13.451601 0 0 0 0 0.000000 0.000000 0.000000 0.000000
14.325601 -4.495800 4.495800 -0.000000 -0.000000 1.000000 -0.000000 1.000000 0.000000 -5.043826 13.844893 0 0 0 0 0.000000 0.000000 0.000000 0.000000
14.325601 -4.572000 4.495800 -0.000000 -0.000000 1.000000 -0.000000 1.000000 0.000000 -5.120046 13.844893 0 0 0 0 0.000000 0.000000 0.000000 0.000000
10.433303 -4.572000 4.495800 -0.000000 -0.000000 1.000000 0.000000 1.000000 -0.000000 -5.120046 9.951601 0 0 0 0 0.000000 0.000000 0.000000 0.000000
10.433303 -4.495800 4.495800 -0.000000 -0.000000 1.000000 0.000000 1.000000 -0.000000 -5.043826 9.951601 0 0 0 0 0.000000 0.000000 0.000000 0.000000
12.420599 -4.495800 4.495800 -0.000000 -0.000000 1.000000 -0.000004 1.000000 0.000000 -5.043826 11.939405 0 0 0 0 0.000000 0.000000 0.000000 0.000000
12.801600 -4.495800 4.495800 -0.000000 -0.000000 1.000000 0.000032 1.000000 0.000000 -5.043826 12.320503 0 0 0 0 0.000000 0.000000 0.000000 0.000000
6.934200 -4.572000 4.495800 -0.000000 0.000002 1.000000 0.000000 1.000000 -0.000002 -5.120046 6.451601 0 0 0 0 0.000000 0.000000 0.000000 0.000000
6.934200 -4.495800 4.495800 -0.000000 0.000002 1.000000 0.000000 1.000000 -0.000002 -5.043826 6.451601 0 0 0 0 0.000000 0.000000 0.000000 0.000000
8.534400 -4.495800 4.495800 -0.000000 0.000002 1.000000 -0.000005 1.000000 -0.000002 -5.043826 8.052211 0 0 0 0 0.000000 0.000000 0.000000 0.000000
8.915401 -4.495800 4.495800 -0.000000 0.000002 1.000000 0.000074 1.000000 -0.000002 -5.043826 8.433308 0 0 0 0 0.000000 0.000000 0.000000 0.000000
12.420599 -4.495800 4.495800 -0.000000 0.780868 0.624696 1.000000 0.000000 0.000000 3.950076 11.939405 0 0 0 0 0.000000 0.000000 0.000000 0.000000
10.433303 -4.495800 4.495800 -0.000000 0.780868 0.624696 1.000000 0.000000 0.000000 3.950076 9.951601 0 0 0 0 0.000000 0.000000 0.000000 0.000000
8.915401 -4.495800 4.495800 -0.000000 0.780868 0.624696 1.000000 0.000000 0.000000 3.950076 8.433308 0 0 0 0 0.000000 0.000000 0.000000 0.000000
8.915401 -4.191000 4.114800 -0.000000 0.780868 0.624696 0.000000 -0.624696 0.780868 3.568979 8.433308 0 0 0 0 0.000000 0.000000 0.000000 0.000000
11.201400 -4.191000 4.114800 -0.000000 0.780868 0.624696 -0.000001 -0.624696 0.780868 3.568979 10.719893 0 0 0 0 0.000000 0.000000 0.000000 0.000000
12.420599 -4.191000 4.114800 -0.000000 0.780868 0.624696 0.000000 -0.624696 0.780868 3.568979 11.939405 0 0 0 0 0.000000 0.000000 0.000000 0.000000
14.325601 -4.495800 4.495800 -0.000000 0.780869 0.624695 1.000000 0.000000 -0.000000 3.950076 13.844893 0 0 0 0 0.000000 0.000000 0.000000 0.000000
13.932408 -4.495800 4.495800 -0.000000 0.780869 0.624695 1.000000 0.000000 -0.000000 3.950076 13.451601 0 0 0 0 0.000000 0.000000 0.000000 0.000000
12.801600 -4.495800 4.495800 -0.000000 0.780869 0.624695 1.000000 0.000000 -0.000000 3.950076 12.320503 0 0 0 0 0.000000 0.000000 0.000000 0.000000
12.801600 -4.191000 4.114800 -0.000000 0.780869 0.624695 0.000000 -0.624695 0.780869 3.568979 12.320503 0 0 0 0 0.000000 0.000000 0.000000 0.000000
14.325601 -4.191000 4.114800 -0.000000 0.780869 0.624695 0.000000 -0.624695 0.780869 3.568979 13.844893 0 0 0 0 0.000000 0.000000 0.000000 0.000000
8.534400 -4.495800 4.495800 -0.000000 0.780869 0.624695 0.000000 -0.624695 0.780869 3.950076 8.052211 0 0 0 0 0.000000 0.000000 0.000000 0.000000
6.934200 -4.495800 4.495800 -0.000000 0.780869 0.624695 0.000000 -0.624695 0.780869 3.950076 6.451601 0 0 0 0 0.000000 0.000000 0.000000 0.000000
6.934200 -4.191000 4.114800 -0.000000 0.780869 0.624695 0.000000 -0.624695 0.780869 3.568979 6.451601 0 0 0 0 0.000000 0.000000 0.000000 0.000000
8.534400 -4.191000 4.114800 -0.000000 0.780869 0.624695 0.000000 -0.624695 0.780869 3.568979 8.052211 0 0 0 0 0.000000 0.000000 0.000000 0.000000
6.934200 -2.133600 4.495800 0.000000 -1.000000 -0.000000 0.000000 -0.000000 1.000000 3.965701 6.451601 0 0 0 0 0.000000 0.000000 0.000000 0.000000
6.667499 -2.133600 4.495800 0.000000 -1.000000 -0.000000 0.000001 -0.000000 1.000000 3.965701 6.184833 0 0 0 0 0.000000 0.000000 0.000000 0.000000
6.553199 -2.133600 4.495800 0.000000 -1.000000 -0.000000 0.000000 -0.000000 1.000000 3.965701 6.070503 0 0 0 0 0.000000 0.000000 0.000000 0.000000
6.248400 -2.133600 4.495800 0.000000 -1.000000 -0.000000 0.000000 -0.000000 1.000000 3.965701 5.765625 0 0 0 0 0.000000 0.000000 0.000000 0.000000
6.515100 -2.133600 7.315199 0.000000 -1.000000 -0.000000 -1.000000 -0.000000 -0.000000 6.785823 6.032393 0 0 0 0 0.000000 0.000000 0.000000 0.000000
IndexCount: 216
0 4 3
0 3 2
2 1 0
59 55 4
59 4 54
59 58 57
59 57 56
59 56 55
5 9 8
5 8 7
7 6 5
60 6 65
60 65 64
60 64 63
60 63 62
62 61 60
13 11 10
13 12 11
12 70 11
12 71 70
17 15 14
17 16 15
18 15 22
18 22 21
21 19 18
21 22 26
21 20 19
21 26 25
24 23 21
25 24 21
27 31 30
27 30 29
29 28 27
32 37 36
32 36 35
32 35 34
34 33 32
41 39 38
41 40 39
45 43 42
46 103 42
42 43 102
42 102 101
42 101 100
42 100 99
42 99 46
45 44 43
49 47 46
49 48 47
53 51 50
53 52 51
69 67 66
69 68 67
75 73 72
72 73 79
72 79 78
72 78 77
77 76 72
75 74 73
76 77 83
76 83 82
76 82 81
81 80 76
84 89 88
84 88 87
84 87 86
86 85 84
90 94 93
90 93 92
92 91 90
98 96 95
98 97 96
