VertexCount: 54
-10.553699 -0.342900 -3.543301 0.000000 -1.000000 -0.000000 1.000000 0.000000 0.000000 -8.640625 2.525000 0 0 0 0 0.000000 0.000000 0.000000 0.000000
-10.629900 -0.342900 -3.543301 0.000000 -1.000000 -0.000000 1.000000 0.000000 0.000000 -8.703125 2.525000 0 0 0 0 0.000000 0.000000 0.000000 0.000000
-10.629900 -0.342900 -3.467101 0.000000 -1.000000 -0.000000 1.000000 0.000000 -0.000000 -8.703125 2.483333 0 0 0 0 0.000000 0.000000 0.000000 0.000000
-10.553699 -0.342900 -3.467101 0.000000 -1.000000 -0.000000 1.000000 0.000000 0.000000 -8.640625 2.483333 0 0 0 0 0.000000 0.000000 0.000000 0.000000
2.819402 -1.828796 -19.926300 0.000000 0.000000 -1.000000 -0.000000 1.000000 0.000000 -1.750000 1.887500 0 0 0 0 0.000000 0.000000 0.000000 0.000000
2.819402 -1.943096 -19.926300 0.000000 0.000000 -1.000000 0.000000 1.000000 -0.000004 -1.843750 1.887500 0 0 0 0 0.000000 0.000000 0.000000 0.000000
3.048002 -1.943096 -19.926300 0.000000 0.000000 -1.000000 -0.000000 1.000000 0.000000 -1.843750 2.037500 0 0 0 0 0.000000 0.000000 0.000000 0.000000
3.048002 -1.828796 -19.926300 0.000000 0.000000 -1.000000 -0.000000 1.000000 0.000000 -1.750000 2.037500 0 0 0 0 0.000000 0.000000 0.000000 0.000000
3.048002 -1.943096 -19.926300 0.000000 -1.000000 -0.000000 0.000000 -0.000000 1.000000 -16.593750 2.037500 0 0 0 0 0.000000 0.000000 0.000000 0.000000
2.819402 -1.943096 -19.926300 0.000000 -1.000000 -0.000000 0.000000 -0.000000 1.000000 -16.593750 1.887500 0 0 0 0 0.000000 0.000000 0.000000 0.000000
2.819402 -1.943096 -19.812000 0.000000 -1.000000 -0.000000 0.000000 -0.000000 1.000000 -16.500000 1.887500 0 0 0 0 0.000000 0.000000 0.000000 0.000000
3.048002 -1.943096 -19.812000 0.000000 -1.000000 -0.000000 0.000000 -0.000000 1.000000 -16.500000 2.037500 0 0 0 0 0.000000 0.000000 0.000000 0.000000
2.819402 -1.828796 -22.136101 -0.000000 -0.000000 1.000000 -0.000000 1.000000 0.000000 -1.750000 1.887500 0 0 0 0 0.000000 0.000000 0.000000 0.000000
3.048002 -1.828796 -22.136101 -0.000000 -0.000000 1.000000 -0.000000 1.000000 0.000000 -1.750000 2.037500 0 0 0 0 0.000000 0.000000 0.000000 0.000000
3.048002 -1.943096 -22.136101 -0.000000 -0.000000 1.000000 -0.000000 1.000000 0.000000 -1.843750 2.037500 0 0 0 0 0.000000 0.000000 0.000000 0.000000
2.819402 -1.943096 -22.136101 -0.000000 -0.000000 1.000000 -0.000000 1.000000 0.000000 -1.843750 1.887500 0 0 0 0 0.000000 0.000000 0.000000 0.000000
3.048002 -1.943096 -22.250401 0.000000 -1.000000 -0.000000 -0.000000 -0.000000 1.000000 -18.500000 2.037500 0 0 0 0 0.000000 0.000000 0.000000 0.000000
2.819402 -1.943096 -22.250401 0.000000 -1.000000 -0.000000 -0.000000 -0.000000 1.000000 -18.500000 1.887500 0 0 0 0 0.000000 0.000000 0.000000 0.000000
2.819402 -1.943096 -22.136101 0.000000 -1.000000 -0.000000 0.000000 -0.000000 1.000000 -18.406250 1.887500 0 0 0 0 0.000000 0.000000 0.000000 0.000000
3.048002 -1.943096 -22.136101 0.000000 -1.000000 -0.000000 -0.000000 -0.000000 1.000000 -18.406250 2.037500 0 0 0 0 0.000000 0.000000 0.000000 0.000000
-10.553699 -0.342899 -9.296401 0.000000 -1.000000 -0.000000 1.000000 0.000000 -0.000000 -8.640625 5.520833 0 0 0 0 0.000000 0.000000 0.000000 0.000000
-10.629898 -0.342899 -9.296401 0.000000 -1.000000 -0.000000 1.000000 0.000000 -0.000000 -8.703125 5.520833 0 0 0 0 0.000000 0.000000 0.000000 0.000000
-10.629898 -0.342899 -9.220201 0.000000 -1.000000 -0.000000 1.000000 0.000000 0.000000 -8.703125 5.479167 0 0 0 0 0.000000 0.000000 0.000000 0.000000
-10.553699 -0.342899 -9.220201 0.000000 -1.000000 -0.000000 1.000000 0.000000 -0.000000 -8.640625 5.479167 0 0 0 0 0.000000 0.000000 0.000000 0.000000
2.819402 -1.828796 -19.926300 0.000000 -0.000012 -1.000000 1.000000 0.000000 0.000000 -1.750000 1.887500 0 0 0 0 0.000000 0.000000 0.000000 0.000000
2.209802 -1.828796 -19.926300 0.000000 -0.000012 -1.000000 1.000000 0.000000 0.000000 -1.750000 1.487500 0 0 0 0 0.000000 0.000000 0.000000 0.000000
1.409702 -1.828797 -19.926300 0.000000 -0.000012 -1.000000 1.000000 0.000000 0.000000 -1.750000 0.962500 0 0 0 0 0.000000 0.000000 0.000000 0.000000
1.409702 -1.943097 -19.926300 0.000000 -0.000012 -1.000000 0.000000 1.000000 -0.000012 -1.843750 0.962500 0 0 0 0 0.000000 0.000000 0.000000 0.000000
2.819402 -1.943096 -19.926300 0.000000 -0.000012 -1.000000 0.000000 1.000000 -0.000004 -1.843750 1.887500 0 0 0 0 0.000000 0.000000 0.000000 0.000000
1.409702 -1.943097 -19.926300 0.000000 -1.000000 -0.000000 0.000000 -0.000000 1.000000 -16.593750 0.962500 0 0 0 0 0.000000 0.000000 0.000000 0.000000
1.409702 -1.943097 -19.812000 0.000000 -1.000000 -0.000000 0.000000 -0.000000 1.000000 -16.500000 0.962500 0 0 0 0 0.000000 0.000000 0.000000 0.000000
2.133602 -1.943097 -19.812000 0.000000 -1.000000 -0.000000 -0.000003 -0.000000 1.000000 -16.500000 1.437500 0 0 0 0 0.000000 0.000000 0.000000 0.000000
2.286002 -1.943097 -19.812000 0.000000 -1.000000 -0.000000 -0.000002 -0.000000 1.000000 -16.500000 1.537500 0 0 0 0 0.000000 0.000000 0.000000 0.000000
1.409702 -1.943096 -22.136101 -0.000000 -0.000000 1.000000 -0.000000 1.000000 0.000000 -1.843750 0.962500 0 0 0 0 0.000000 0.000000 0.000000 0.000000
1.409702 -1.828796 -22.136101 -0.000000 -0.000000 1.000000 -0.000000 1.000000 0.000000 -1.750000 0.962500 0 0 0 0 0.000000 0.000000 0.000000 0.000000
2.209802 -1.828796 -22.136101 -0.000000 -0.000000 1.000000 -1.000000 -0.000000 -0.000000 -1.750000 1.487500 0 0 0 0 0.000000 0.000000 0.000000 0.000000
1.409702 -1.943096 -22.250401 0.000000 -1.000000 -0.000000 0.000000 -0.000000 1.000000 -18.500000 0.962500 0 0 0 0 0.000000 0.000000 0.000000 0.000000
1.409702 -1.943096 -22.136101 0.000000 -1.000000 -0.000000 -0.000000 -0.000000 1.000000 -18.406250 0.962500 0 0 0 0 0.000000 0.000000 0.000000 0.000000
-10.553699 -0.342898 -15.011401 0.000000 -1.000000 -0.000000 1.000000 0.000000 0.000000 -8.640625 8.520833 0 0 0 0 0.000000 0.000000 0.000000 0.000000
-10.629898 -0.342898 -15.011401 0.000000 -1.000000 -0.000000 1.000000 0.000000 0.000000 -8.703125 8.520833 0 0 0 0 0.000000 0.000000 0.000000 0.000000
-10.629898 -0.342899 -14.935201 0.000000 -1.000000 -0.000000 1.000000 0.000000 -0.000000 -8.703125 8.479166 0 0 0 0 0.000000 0.000000 0.000000 0.000000
-10.553699 -0.342898 -14.935201 0.000000 -1.000000 -0.000000 1.000000 0.000000 0.000000 -8.640625 8.479166 0 0 0 0 0.000000 0.000000 0.000000 0.000000
-12.877800 -0.342901 -3.543301 0.000000 -1.000000 -0.000000 1.000000 0.000000 -0.000000 -9.640625 2.525000 0 0 0 0 0.000000 0.000000 0.000000 0.000000
-12.954000 -0.342901 -3.543301 0.000000 -1.000000 -0.000000 1.000000 0.000000 -0.000000 -9.703125 2.525000 0 0 0 0 0.000000 0.000000 0.000000 0.000000
-12.954000 -0.342901 -3.467101 0.000000 -1.000000 -0.000000 1.000000 0.000000 0.000000 -9.703125 2.483333 0 0 0 0 0.000000 0.000000 0.000000 0.000000
-12.877800 -0.342901 -3.467101 0.000000 -1.000000 -0.000000 1.000000 0.000000 -0.000000 -9.640625 2.483333 0 0 0 0 0.000000 0.000000 0.000000 0.000000
-12.877799 -0.342900 -9.296401 0.000000 -1.000000 -0.000000 1.000000 0.000000 0.000000 -9.640625 5.520833 0 0 0 0 0.000000 0.000000 0.000000 0.000000
-12.953999 -0.342900 -9.296401 0.000000 -1.000000 -0.000000 1.000000 0.000000 0.000000 -9.703125 5.520833 0 0 0 0 0.000000 0.000000 0.000000 0.000000
-12.953999 -0.342900 -9.220201 0.000000 -1.000000 -0.000000 1.000000 0.000000 0.000000 -9.703125 5.479167 0 0 0 0 0.000000 0.000000 0.000000 0.000000
-12.877799 -0.342900 -9.220201 0.000000 -1.000000 -0.000000 1.000000 0.000000 0.000000 -9.640625 5.479167 0 0 0 0 0.000000 0.000000 0.000000 0.000000
-12.877799 -0.342899 -15.011401 0.000000 -1.000000 -0.000000 1.000000 0.000000 -0.000000 -9.640625 8.520833 0 0 0 0 0.000000 0.000000 0.000000 0.000000
-12.953999 -0.342899 -15.011401 0.000000 -1.000000 -0.000000 1.000000 0.000000 -0.000000 -9.703125 8.520833 0 0 0 0 0.000000 0.000000 0.000000 0.000000
-12.953999 -0.342899 -14.935201 0.000000 -1.000000 -0.000000 1.000000 0.000000 0.000000 -9.703125 8.479166 0 0 0 0 0.000000 0.000000 0.000000 0.000000
-12.877799 -0.342899 -14.935201 0.000000 -1.000000 -0.000000 1.000000 0.000000 -0.000000 -9.640625 8.479166 0 0 0 0 0.000000 0.000000 0.000000 0.000000
IndexCount: 96
3 1 0
3 2 1
7 5 4
7 6 5
11 9 8
11 10 9
9 10 32
9 32 31
9 31 30
30 29 9
15 13 12
12 35 34
12 34 33
33 15 12
15 14 13
19 17 16
19 18 17
18 36 17
18 37 36
23 21 20
23 22 21
24 28 27
24 27 26
26 25 24
41 39 38
41 40 39
45 43 42
45 44 43
49 47 46
49 48 47
53 51 50
53 52 51
