VertexCount: 388
2.819402 -3.505197 -19.202400 1.000000 0.000000 0.000000 -0.000000 -0.000000 1.000000 -10.989583 1.859375 0 0 0 0 0.000000 0.000000 0.000000 0.000000
2.819402 -4.114797 -19.202400 1.000000 0.000000 0.000000 -0.000000 -0.000000 1.000000 -10.989583 2.109375 0 0 0 0 0.000000 0.000000 0.000000 0.000000
2.819402 -4.114797 -17.373600 1.000000 0.000000 0.000000 -0.000000 -0.000000 1.000000 -9.989583 2.109375 0 0 0 0 0.000000 0.000000 0.000000 0.000000
2.819402 -3.505197 -17.373600 1.000000 0.000000 0.000000 -0.000000 -0.000000 1.000000 -9.989583 1.859375 0 0 0 0 0.000000 0.000000 0.000000 0.000000
2.819402 -3.505196 -24.536398 1.000000 0.000000 0.000000 -0.000000 -0.000000 1.000000 -13.906250 1.859375 0 0 0 0 0.000000 0.000000 0.000000 0.000000
2.819402 -4.114796 -24.536398 1.000000 0.000000 0.000000 -0.000000 -0.000000 1.000000 -13.906250 2.109375 0 0 0 0 0.000000 0.000000 0.000000 0.000000
2.819402 -4.114796 -22.859999 1.000000 0.000000 0.000000 -0.000000 -0.000000 1.000000 -12.989583 2.109375 0 0 0 0 0.000000 0.000000 0.000000 0.000000
2.819402 -3.505196 -22.859999 1.000000 0.000000 0.000000 -0.000000 -0.000000 1.000000 -12.989583 1.859375 0 0 0 0 0.000000 0.000000 0.000000 0.000000
8.915402 -1.219195 -24.688801 -0.000000 -0.000000 1.000000 1.000000 0.000002 0.000000 5.583333 0.921875 0 0 0 0 0.000000 0.000000 0.000000 0.000000
9.525003 -3.657595 -24.688801 -0.000000 -0.000000 1.000000 1.000000 0.000003 0.000000 5.916667 1.921875 0 0 0 0 0.000000 0.000000 0.000000 0.000000
9.525003 -4.114795 -24.688801 -0.000000 -0.000000 1.000000 1.000000 0.000003 0.000000 5.916667 2.109375 0 0 0 0 0.000000 0.000000 0.000000 0.000000
8.915403 -4.114795 -24.688801 -0.000000 -0.000000 1.000000 1.000000 0.000000 0.000000 5.583333 2.109375 0 0 0 0 0.000000 0.000000 0.000000 0.000000
8.915402 -3.047995 -24.688801 -0.000000 -0.000000 1.000000 0.000000 -1.000000 -0.000000 5.583333 1.671875 0 0 0 0 0.000000 0.000000 0.000000 0.000000
4.648202 -3.047996 -24.688801 -0.000000 0.000001 1.000000 1.000000 0.000000 0.000000 3.250000 1.671875 0 0 0 0 0.000000 0.000000 0.000000 0.000000
8.915402 -3.047995 -24.688801 -0.000000 0.000001 1.000000 1.000000 0.000000 0.000000 5.583333 1.671875 0 0 0 0 0.000000 0.000000 0.000000 0.000000
4.953002 -4.114795 -24.688801 -0.000000 0.000001 1.000000 1.000000 0.000000 0.000000 3.416667 2.109375 0 0 0 0 0.000000 0.000000 0.000000 0.000000
4.648202 -4.114795 -24.688801 -0.000000 0.000001 1.000000 1.000000 0.000000 0.000000 3.250000 2.109375 0 0 0 0 0.000000 0.000000 0.000000 0.000000
4.648202 -3.047996 -24.688801 -0.000000 -0.000000 1.000000 0.000000 -1.000000 -0.000000 3.250000 1.671875 0 0 0 0 0.000000 0.000000 0.000000 0.000000
4.648202 -1.066796 -24.688801 -0.000000 -0.000000 1.000000 0.000000 -1.000000 -0.000000 3.250000 0.859375 0 0 0 0 0.000000 0.000000 0.000000 0.000000
4.648202 1.219204 -24.688801 -0.000000 -0.000000 1.000000 0.000000 -1.000000 -0.000000 3.250000 -0.078125 0 0 0 0 0.000000 0.000000 0.000000 0.000000
8.305802 1.219205 -24.688801 -0.000000 -0.000000 1.000000 1.000000 0.000000 0.000000 5.250000 -0.078125 0 0 0 0 0.000000 0.000000 0.000000 0.000000
8.915402 1.219205 -24.688801 -0.000000 -0.000001 1.000000 1.000000 0.000000 0.000000 5.583333 -0.078125 0 0 0 0 0.000000 0.000000 0.000000 0.000000
10.439402 1.219205 -24.688801 -0.000000 -0.000001 1.000000 1.000000 0.000000 0.000000 6.416667 -0.078125 0 0 0 0 0.000000 0.000000 0.000000 0.000000
10.439402 -1.219195 -24.688801 -0.000000 -0.000001 1.000000 1.000000 0.000000 0.000000 6.416667 0.921875 0 0 0 0 0.000000 0.000000 0.000000 0.000000
4.495801 -1.523997 -17.373600 0.000000 0.000001 -1.000000 1.000000 -0.000000 0.000000 2.895833 1.046875 0 0 0 0 0.000000 0.000000 0.000000 0.000000
3.438527 -1.523997 -17.373600 0.000000 0.000001 -1.000000 1.000000 -0.000000 0.000000 2.317708 1.046875 0 0 0 0 0.000000 0.000000 0.000000 0.000000
2.819402 -3.505197 -17.373600 0.000000 0.000001 -1.000000 1.000000 -0.000000 0.000000 1.979167 1.859375 0 0 0 0 0.000000 0.000000 0.000000 0.000000
2.819402 -4.114797 -17.373600 0.000000 0.000001 -1.000000 1.000000 0.000000 0.000000 1.979167 2.109375 0 0 0 0 0.000000 0.000000 0.000000 0.000000
4.495802 -4.114797 -17.373600 0.000000 0.000001 -1.000000 1.000000 0.000000 0.000000 2.895833 2.109375 0 0 0 0 0.000000 0.000000 0.000000 0.000000
10.439401 -1.219196 -17.373598 0.000000 0.000000 -1.000000 1.000000 0.000000 0.000000 6.062500 0.921875 0 0 0 0 0.000000 0.000000 0.000000 0.000000
10.439401 1.219204 -17.373598 0.000000 0.000000 -1.000000 1.000000 0.000000 0.000000 6.062500 -0.078125 0 0 0 0 0.000000 0.000000 0.000000 0.000000
9.829801 1.219204 -17.373598 0.000000 0.000000 -1.000000 1.000000 -0.000000 0.000000 5.729167 -0.078125 0 0 0 0 0.000000 0.000000 0.000000 0.000000
9.829801 -1.219196 -17.373598 0.000000 0.000000 -1.000000 1.000000 0.000000 0.000000 5.729167 0.921875 0 0 0 0 0.000000 0.000000 0.000000 0.000000
7.467601 -3.200397 -17.373598 0.000000 0.000000 -1.000000 1.000000 0.000000 0.000000 4.437500 1.734375 0 0 0 0 0.000000 0.000000 0.000000 0.000000
6.781802 -3.200397 -17.373600 0.000000 0.000000 -1.000000 1.000000 0.000000 0.000000 4.062500 1.734375 0 0 0 0 0.000000 0.000000 0.000000 0.000000
6.781802 -4.114797 -17.373600 0.000000 0.000000 -1.000000 1.000000 0.000000 0.000000 4.062500 2.109375 0 0 0 0 0.000000 0.000000 0.000000 0.000000
7.467602 -4.114797 -17.373600 0.000000 0.000000 -1.000000 1.000000 0.000000 0.000000 4.437500 2.109375 0 0 0 0 0.000000 0.000000 0.000000 0.000000
7.467601 -3.200397 -17.373598 0.000000 0.000000 -1.000000 0.000000 -1.000000 -0.000000 4.437500 1.734375 0 0 0 0 0.000000 0.000000 0.000000 0.000000
7.467601 -3.047997 -17.373598 0.000000 0.000000 -1.000000 0.000000 -1.000000 -0.000000 4.437500 1.671875 0 0 0 0 0.000000 0.000000 0.000000 0.000000
7.467601 1.066803 -17.373598 0.000000 0.000000 -1.000000 0.000000 -1.000000 -0.000000 4.437500 -0.015625 0 0 0 0 0.000000 0.000000 0.000000 0.000000
6.781802 1.066803 -17.373600 0.000000 0.000000 -1.000000 1.000000 0.000000 0.000000 4.062500 -0.015625 0 0 0 0 0.000000 0.000000 0.000000 0.000000
6.781802 -3.047997 -17.373600 0.000000 0.000000 -1.000000 1.000000 0.000000 0.000000 4.062500 1.671875 0 0 0 0 0.000000 0.000000 0.000000 0.000000
4.648202 -3.047997 -17.373600 0.000000 0.000000 -1.000000 1.000000 -0.000000 0.000000 2.895833 1.671875 0 0 0 0 0.000000 0.000000 0.000000 0.000000
4.648202 -4.114797 -17.373600 0.000000 0.000000 -1.000000 1.000000 0.000000 0.000000 2.895833 2.109375 0 0 0 0 0.000000 0.000000 0.000000 0.000000
4.953002 -4.114797 -17.373600 0.000000 0.000000 -1.000000 1.000000 -0.000000 0.000000 3.062500 2.109375 0 0 0 0 0.000000 0.000000 0.000000 0.000000
6.781802 -3.047997 -17.373600 0.000000 0.000000 -1.000000 0.000000 -1.000000 -0.000000 4.062500 1.671875 0 0 0 0 0.000000 0.000000 0.000000 0.000000
6.781802 1.066803 -17.373600 0.000000 0.000000 -1.000000 0.000000 -1.000000 -0.000000 4.062500 -0.015625 0 0 0 0 0.000000 0.000000 0.000000 0.000000
6.781802 1.219203 -17.373600 0.000000 0.000000 -1.000000 0.000000 -1.000000 -0.000000 4.062500 -0.078125 0 0 0 0 0.000000 0.000000 0.000000 0.000000
4.648201 1.219203 -17.373600 0.000000 0.000000 -1.000000 1.000000 0.000000 0.000000 2.895833 -0.078125 0 0 0 0 0.000000 0.000000 0.000000 0.000000
4.648201 -1.523997 -17.373600 0.000000 0.000000 -1.000000 1.000000 0.000000 0.000000 2.895833 1.046875 0 0 0 0 0.000000 0.000000 0.000000 0.000000
9.829801 -3.047997 -17.373598 0.000000 0.000000 -1.000000 1.000000 0.000000 0.000000 5.729167 1.671875 0 0 0 0 0.000000 0.000000 0.000000 0.000000
7.467601 -3.047997 -17.373598 0.000000 0.000000 -1.000000 1.000000 0.000000 0.000000 4.437500 1.671875 0 0 0 0 0.000000 0.000000 0.000000 0.000000
9.220202 -4.114796 -17.373600 0.000000 0.000000 -1.000000 1.000000 0.000000 0.000000 5.395833 2.109375 0 0 0 0 0.000000 0.000000 0.000000 0.000000
9.829802 -4.114796 -17.373600 0.000000 0.000000 -1.000000 1.000000 -0.000000 0.000000 5.729167 2.109375 0 0 0 0 0.000000 0.000000 0.000000 0.000000
9.829802 -4.038596 -17.373600 0.000000 0.000000 -1.000000 0.000001 -1.000000 -0.000000 5.729167 2.078125 0 0 0 0 0.000000 0.000000 0.000000 0.000000
9.829802 -3.505197 -17.373598 0.000000 0.000000 -1.000000 0.000001 -1.000000 -0.000000 5.729167 1.859375 0 0 0 0 0.000000 0.000000 0.000000 0.000000
9.829801 -3.047997 -17.373598 0.000000 0.000000 -1.000000 0.000000 -1.000000 -0.000000 5.729167 1.671875 0 0 0 0 0.000000 0.000000 0.000000 0.000000
9.829801 -1.219196 -17.373598 0.000000 0.000000 -1.000000 0.000000 -1.000000 -0.000000 5.729167 0.921875 0 0 0 0 0.000000 0.000000 0.000000 0.000000
9.829801 1.219204 -17.373598 0.000000 0.000000 -1.000000 0.000000 -1.000000 -0.000000 5.729167 -0.078125 0 0 0 0 0.000000 0.000000 0.000000 0.000000
7.467601 1.219203 -17.373598 0.000000 0.000000 -1.000000 1.000000 0.000000 0.000000 4.437500 -0.078125 0 0 0 0 0.000000 0.000000 0.000000 0.000000
7.467601 1.066803 -17.373598 0.000000 0.000000 -1.000000 1.000000 -0.000000 0.000000 4.437500 -0.015625 0 0 0 0 0.000000 0.000000 0.000000 0.000000
4.495801 -1.523997 -17.373600 0.000000 0.000000 -1.000000 1.000000 -0.000000 0.000000 2.812500 1.046875 0 0 0 0 0.000000 0.000000 0.000000 0.000000
4.495802 -4.114797 -17.373600 0.000000 0.000000 -1.000000 1.000000 0.000000 0.000000 2.812500 2.109375 0 0 0 0 0.000000 0.000000 0.000000 0.000000
4.648202 -3.047997 -17.373600 0.000000 0.000000 -1.000000 0.000000 -1.000000 -0.000000 2.895833 1.671875 0 0 0 0 0.000000 0.000000 0.000000 0.000000
10.439401 -1.219196 -20.421598 -1.000000 -0.000000 -0.000000 -0.000000 -0.000000 1.000000 -11.666667 0.921875 0 0 0 0 0.000000 0.000000 0.000000 0.000000
10.439401 1.219204 -20.421598 -1.000000 -0.000000 -0.000000 -0.000000 -0.000000 1.000000 -11.666667 -0.078125 0 0 0 0 0.000000 0.000000 0.000000 0.000000
10.439401 1.219204 -18.592798 -1.000000 -0.000000 -0.000000 -0.000000 -0.000000 1.000000 -10.666667 -0.078125 0 0 0 0 0.000000 0.000000 0.000000 0.000000
10.439401 1.219204 -17.373598 -1.000000 -0.000000 -0.000000 -0.000000 -0.000000 1.000000 -10.000000 -0.078125 0 0 0 0 0.000000 0.000000 0.000000 0.000000
10.439401 -1.219196 -17.373598 -1.000000 -0.000000 -0.000000 -0.000000 -0.000000 1.000000 -10.000000 0.921875 0 0 0 0 0.000000 0.000000 0.000000 0.000000
10.439401 -1.219196 -19.202398 -1.000000 -0.000000 -0.000000 -0.000000 -0.000000 1.000000 -11.000000 0.921875 0 0 0 0 0.000000 0.000000 0.000000 0.000000
10.439401 -1.219196 -20.421598 -1.000000 -0.000000 -0.000000 -0.000000 -0.000000 1.000000 -11.666667 0.921875 0 0 0 0 0.000000 0.000000 0.000000 0.000000
10.439402 -1.219196 -21.031200 -1.000000 -0.000000 -0.000000 -0.000000 -0.000000 1.000000 -12.000000 0.921875 0 0 0 0 0.000000 0.000000 0.000000 0.000000
10.439402 -1.219195 -22.859999 -1.000000 -0.000000 -0.000000 -0.000000 -0.000000 1.000000 -13.000000 0.921875 0 0 0 0 0.000000 0.000000 0.000000 0.000000
10.439402 -1.219195 -24.688801 -1.000000 -0.000000 -0.000000 0.000000 0.000000 -1.000000 -14.000000 0.921875 0 0 0 0 0.000000 0.000000 0.000000 0.000000
10.439402 1.219205 -24.688801 -1.000000 -0.000000 -0.000000 -0.000000 -0.000000 1.000000 -14.000000 -0.078125 0 0 0 0 0.000000 0.000000 0.000000 0.000000
10.439402 1.219205 -23.012400 -1.000000 -0.000000 -0.000000 -0.000000 -0.000000 1.000000 -13.083333 -0.078125 0 0 0 0 0.000000 0.000000 0.000000 0.000000
10.439402 1.219204 -21.793200 -1.000000 -0.000000 -0.000000 -0.000000 -0.000000 1.000000 -12.416667 -0.078125 0 0 0 0 0.000000 0.000000 0.000000 0.000000
10.439401 -1.219196 -19.202398 -0.000000 1.000000 0.000000 1.000000 0.000000 -0.000000 5.750000 8.234375 0 0 0 0 0.000000 0.000000 0.000000 0.000000
9.829802 -1.219196 -19.202398 -0.000000 1.000000 0.000000 1.000000 0.000000 -0.000000 5.416667 8.234375 0 0 0 0 0.000000 0.000000 0.000000 0.000000
8.915402 -1.219196 -19.202398 -0.000000 1.000000 0.000000 1.000000 0.000000 0.000000 4.916667 8.234375 0 0 0 0 0.000000 0.000000 0.000000 0.000000
8.915402 -1.219196 -21.031200 -0.000000 1.000000 0.000000 1.000000 0.000000 0.000001 4.916667 8.984375 0 0 0 0 0.000000 0.000000 0.000000 0.000000
9.829802 -1.219196 -21.031200 -0.000000 1.000000 0.000000 1.000000 0.000000 0.000000 5.416667 8.984375 0 0 0 0 0.000000 0.000000 0.000000 0.000000
10.439402 -1.219196 -21.031200 -0.000000 1.000000 0.000000 1.000000 0.000000 -0.000000 5.750000 8.984375 0 0 0 0 0.000000 0.000000 0.000000 0.000000
10.439401 -1.219196 -20.421598 -0.000000 1.000000 0.000000 1.000000 0.000000 -0.000000 5.750000 8.734375 0 0 0 0 0.000000 0.000000 0.000000 0.000000
10.439402 -1.219195 -22.859999 -0.000000 1.000000 0.000000 1.000000 0.000000 -0.000000 5.750000 10.234375 0 0 0 0 0.000000 0.000000 0.000000 0.000000
9.829802 -1.219195 -22.859999 -0.000000 1.000000 0.000000 1.000000 0.000000 -0.000000 5.416667 10.234375 0 0 0 0 0.000000 0.000000 0.000000 0.000000
8.915402 -1.219195 -22.859999 -0.000000 1.000000 0.000000 1.000000 0.000000 0.000000 4.916667 10.234375 0 0 0 0 0.000000 0.000000 0.000000 0.000000
8.915402 -1.219195 -24.688801 -0.000000 1.000000 0.000000 1.000000 0.000000 -0.000000 4.916667 10.984375 0 0 0 0 0.000000 0.000000 0.000000 0.000000
10.439402 -1.219195 -24.688801 -0.000000 1.000000 0.000000 1.000000 0.000000 -0.000000 5.750000 10.984375 0 0 0 0 0.000000 0.000000 0.000000 0.000000
7.467602 1.219204 -21.793200 -0.000000 -0.000000 1.000000 1.000000 0.000000 0.000000 4.385417 -0.093750 0 0 0 0 0.000000 0.000000 0.000000 0.000000
7.467602 1.066804 -21.793200 -0.000000 -0.000000 1.000000 1.000000 0.000000 0.000000 4.385417 -0.031250 0 0 0 0 0.000000 0.000000 0.000000 0.000000
6.781802 1.066804 -21.793200 -0.000000 -0.000000 1.000000 1.000000 0.000000 0.000000 4.010417 -0.031250 0 0 0 0 0.000000 0.000000 0.000000 0.000000
6.781802 1.219204 -21.793200 -0.000000 -0.000000 1.000000 1.000000 0.000000 0.000000 4.010417 -0.093750 0 0 0 0 0.000000 0.000000 0.000000 0.000000
7.467602 1.219204 -18.592798 1.000000 0.000000 0.000000 -0.000000 -0.000000 1.000000 -10.572917 -0.093750 0 0 0 0 0.000000 0.000000 0.000000 0.000000
7.467602 1.066804 -18.592798 1.000000 0.000000 0.000000 -0.000000 -0.000000 1.000000 -10.572917 -0.031250 0 0 0 0 0.000000 0.000000 0.000000 0.000000
7.467601 1.066803 -17.373598 1.000000 0.000000 0.000000 -0.000000 -0.000000 1.000000 -9.906250 -0.031250 0 0 0 0 0.000000 0.000000 0.000000 0.000000
7.467601 1.219203 -17.373598 1.000000 0.000000 0.000000 -0.000000 -0.000000 1.000000 -9.906250 -0.093750 0 0 0 0 0.000000 0.000000 0.000000 0.000000
6.781802 1.219204 -18.592800 0.000000 0.000000 -1.000000 1.000000 0.000000 0.000000 4.010417 -0.093750 0 0 0 0 0.000000 0.000000 0.000000 0.000000
6.781802 1.066804 -18.592800 0.000000 0.000000 -1.000000 1.000000 0.000000 0.000000 4.010417 -0.031250 0 0 0 0 0.000000 0.000000 0.000000 0.000000
7.467602 1.066804 -18.592798 0.000000 0.000000 -1.000000 1.000000 0.000000 0.000000 4.385417 -0.031250 0 0 0 0 0.000000 0.000000 0.000000 0.000000
7.467602 1.219204 -18.592798 0.000000 0.000000 -1.000000 1.000000 0.000000 0.000000 4.385417 -0.093750 0 0 0 0 0.000000 0.000000 0.000000 0.000000
6.781802 1.219203 -17.373600 -1.000000 -0.000000 -0.000000 -0.000000 -0.000000 1.000000 -9.906250 -0.093750 0 0 0 0 0.000000 0.000000 0.000000 0.000000
6.781802 1.066803 -17.373600 -1.000000 -0.000000 -0.000000 -0.000000 -0.000000 1.000000 -9.906250 -0.031250 0 0 0 0 0.000000 0.000000 0.000000 0.000000
6.781802 1.066804 -18.592800 -1.000000 -0.000000 -0.000000 -0.000000 -0.000000 1.000000 -10.572917 -0.031250 0 0 0 0 0.000000 0.000000 0.000000 0.000000
6.781802 1.219204 -18.592800 -1.000000 -0.000000 -0.000000 -0.000000 -0.000000 1.000000 -10.572917 -0.093750 0 0 0 0 0.000000 0.000000 0.000000 0.000000
7.467602 1.219204 -23.012400 1.000000 0.000000 0.000000 -0.000000 -0.000000 1.000000 -13.572917 -0.093750 0 0 0 0 0.000000 0.000000 0.000000 0.000000
7.467602 1.066804 -23.012400 1.000000 0.000000 0.000000 -0.000000 -0.000000 1.000000 -13.572917 -0.031250 0 0 0 0 0.000000 0.000000 0.000000 0.000000
7.467602 1.066804 -21.793200 1.000000 0.000000 0.000000 -0.000000 -0.000000 1.000000 -12.906250 -0.031250 0 0 0 0 0.000000 0.000000 0.000000 0.000000
7.467602 1.219204 -21.793200 1.000000 0.000000 0.000000 -0.000000 -0.000000 1.000000 -12.906250 -0.093750 0 0 0 0 0.000000 0.000000 0.000000 0.000000
6.781802 1.219204 -23.012400 0.000000 0.000000 -1.000000 1.000000 0.000000 0.000000 4.010417 -0.093750 0 0 0 0 0.000000 0.000000 0.000000 0.000000
6.781802 1.066804 -23.012400 0.000000 0.000000 -1.000000 1.000000 0.000000 0.000000 4.010417 -0.031250 0 0 0 0 0.000000 0.000000 0.000000 0.000000
7.467602 1.066804 -23.012400 0.000000 0.000000 -1.000000 1.000000 0.000000 0.000000 4.385417 -0.031250 0 0 0 0 0.000000 0.000000 0.000000 0.000000
7.467602 1.219204 -23.012400 0.000000 0.000000 -1.000000 1.000000 0.000000 0.000000 4.385417 -0.093750 0 0 0 0 0.000000 0.000000 0.000000 0.000000
6.781802 1.219204 -21.793200 -1.000000 -0.000000 -0.000000 -0.000000 -0.000000 1.000000 -12.906250 -0.093750 0 0 0 0 0.000000 0.000000 0.000000 0.000000
6.781802 1.066804 -21.793200 -1.000000 -0.000000 -0.000000 -0.000000 -0.000000 1.000000 -12.906250 -0.031250 0 0 0 0 0.000000 0.000000 0.000000 0.000000
6.781802 1.066804 -23.012400 -1.000000 -0.000000 -0.000000 -0.000000 -0.000000 1.000000 -13.572917 -0.031250 0 0 0 0 0.000000 0.000000 0.000000 0.000000
6.781802 1.219204 -23.012400 -1.000000 -0.000000 -0.000000 -0.000000 -0.000000 1.000000 -13.572917 -0.093750 0 0 0 0 0.000000 0.000000 0.000000 0.000000
9.829802 -1.219196 -21.031200 0.000000 0.000001 -1.000000 1.000000 0.000000 0.000000 5.677083 0.921875 0 0 0 0 0.000000 0.000000 0.000000 0.000000
8.915402 -1.219196 -21.031200 0.000000 0.000001 -1.000000 1.000000 0.000000 0.000000 5.177083 0.921875 0 0 0 0 0.000000 0.000000 0.000000 0.000000
9.525002 -3.657595 -21.031200 0.000000 0.000001 -1.000000 1.000000 0.000000 0.000000 5.510417 1.921875 0 0 0 0 0.000000 0.000000 0.000000 0.000000
9.829802 -3.657595 -21.031200 0.000000 0.000001 -1.000000 1.000000 -0.000000 0.000000 5.677083 1.921875 0 0 0 0 0.000000 0.000000 0.000000 0.000000
9.829802 -3.505196 -21.031200 0.000000 0.000001 -1.000000 0.000000 -1.000000 -0.000001 5.677083 1.859375 0 0 0 0 0.000000 0.000000 0.000000 0.000000
9.525002 -4.114796 -21.031200 0.000000 0.000000 -1.000000 1.000000 -0.000000 0.000000 5.510417 2.109375 0 0 0 0 0.000000 0.000000 0.000000 0.000000
9.829802 -4.114796 -21.031200 0.000000 0.000000 -1.000000 1.000000 -0.000000 0.000000 5.677083 2.109375 0 0 0 0 0.000000 0.000000 0.000000 0.000000
9.829802 -4.038596 -21.031200 0.000000 0.000000 -1.000000 1.000000 0.000004 0.000000 5.677083 2.078125 0 0 0 0 0.000000 0.000000 0.000000 0.000000
9.829801 -1.219196 -17.373598 -1.000000 -0.000000 -0.000001 -0.000000 1.000000 0.000000 -10.000000 0.921875 0 0 0 0 0.000000 0.000000 0.000000 0.000000
9.829801 -3.047997 -17.373598 -1.000000 -0.000000 -0.000001 -0.000000 1.000000 0.000000 -10.000000 1.671875 0 0 0 0 0.000000 0.000000 0.000000 0.000000
9.829802 -3.505197 -17.373598 -1.000000 -0.000000 -0.000001 -0.000000 1.000000 0.000000 -10.000000 1.859375 0 0 0 0 0.000000 0.000000 0.000000 0.000000
9.829802 -3.505197 -17.830799 -1.000000 -0.000000 -0.000001 -0.000000 0.000000 1.000000 -10.250000 1.859375 0 0 0 0 0.000000 0.000000 0.000000 0.000000
9.829802 -3.505196 -18.897598 -1.000000 -0.000000 -0.000001 -0.000001 -0.000000 1.000000 -10.833333 1.859375 0 0 0 0 0.000000 0.000000 0.000000 0.000000
9.829802 -3.505196 -19.202398 -1.000000 -0.000000 -0.000001 -0.000001 -0.000000 1.000000 -11.000000 1.859375 0 0 0 0 0.000000 0.000000 0.000000 0.000000
9.829802 -1.219196 -19.202398 -1.000000 -0.000000 -0.000001 -0.000001 -0.000000 1.000000 -11.000000 0.921875 0 0 0 0 0.000000 0.000000 0.000000 0.000000
9.829802 -4.038596 -17.373600 -1.000000 -0.000000 -0.000000 -0.000000 0.000000 1.000000 -10.000000 2.078125 0 0 0 0 0.000000 0.000000 0.000000 0.000000
9.829802 -4.114796 -17.373600 -1.000000 -0.000000 -0.000000 -0.000000 0.000000 1.000000 -10.000000 2.109375 0 0 0 0 0.000000 0.000000 0.000000 0.000000
9.829802 -4.114796 -19.202400 -1.000000 -0.000000 -0.000000 -0.000000 -0.000000 1.000000 -11.000000 2.109375 0 0 0 0 0.000000 0.000000 0.000000 0.000000
9.829802 -4.038596 -19.202400 -1.000000 -0.000000 -0.000000 -0.000001 -0.000000 1.000000 -11.000000 2.078125 0 0 0 0 0.000000 0.000000 0.000000 0.000000
9.829802 -4.038596 -18.897600 -1.000000 -0.000000 -0.000000 0.000000 0.000000 -1.000000 -10.833333 2.078125 0 0 0 0 0.000000 0.000000 0.000000 0.000000
9.829802 -4.038596 -17.830801 -1.000000 -0.000000 -0.000000 -0.000000 0.000000 1.000000 -10.250000 2.078125 0 0 0 0 0.000000 0.000000 0.000000 0.000000
9.829802 -4.038596 -18.897600 -1.000000 -0.000000 -0.000002 -0.000002 -0.000000 1.000000 -10.833333 2.078125 0 0 0 0 0.000000 0.000000 0.000000 0.000000
9.829802 -3.657596 -19.202398 -1.000000 -0.000000 -0.000002 -0.000002 -0.000001 1.000000 -11.000000 1.921875 0 0 0 0 0.000000 0.000000 0.000000 0.000000
9.829802 -3.505197 -17.373598 -1.000000 -0.000000 -0.000000 -0.000000 0.000000 1.000000 -10.000000 1.859375 0 0 0 0 0.000000 0.000000 0.000000 0.000000
9.829802 -3.657596 -19.202398 -0.000000 -0.000000 1.000000 -0.000000 1.000000 0.000000 5.677083 1.921875 0 0 0 0 0.000000 0.000000 0.000000 0.000000
9.829802 -4.038596 -19.202400 -0.000000 -0.000000 1.000000 0.000000 1.000000 0.000000 5.677083 2.078125 0 0 0 0 0.000000 0.000000 0.000000 0.000000
9.829802 -4.114796 -19.202400 -0.000000 -0.000000 1.000000 0.000000 1.000000 0.000000 5.677083 2.109375 0 0 0 0 0.000000 0.000000 0.000000 0.000000
9.525002 -4.114796 -19.202400 -0.000000 -0.000000 1.000000 1.000000 -0.000000 0.000000 5.510417 2.109375 0 0 0 0 0.000000 0.000000 0.000000 0.000000
9.525002 -3.657596 -19.202398 -0.000000 -0.000000 1.000000 1.000000 -0.000000 0.000000 5.510417 1.921875 0 0 0 0 0.000000 0.000000 0.000000 0.000000
9.829802 -1.219196 -19.202398 -0.000000 -0.000000 1.000000 -0.000000 1.000000 0.000000 5.677083 0.921875 0 0 0 0 0.000000 0.000000 0.000000 0.000000
9.829802 -3.505196 -19.202398 -0.000000 -0.000000 1.000000 -0.000000 1.000000 0.000000 5.677083 1.859375 0 0 0 0 0.000000 0.000000 0.000000 0.000000
8.915402 -1.219196 -19.202398 -0.000000 -0.000000 1.000000 1.000000 0.000000 0.000000 5.177083 0.921875 0 0 0 0 0.000000 0.000000 0.000000 0.000000
9.829802 -3.505197 -17.830799 -0.000000 1.000000 0.000000 1.000000 0.000000 -0.000000 6.166667 7.359375 0 0 0 0 0.000000 0.000000 0.000000 0.000000
9.677402 -3.505197 -17.983198 -0.000000 1.000000 0.000000 1.000000 0.000000 -0.000000 6.083333 7.421875 0 0 0 0 0.000000 0.000000 0.000000 0.000000
9.677402 -3.505196 -18.745199 -0.000000 1.000000 0.000000 1.000000 0.000000 0.000010 6.083333 7.734375 0 0 0 0 0.000000 0.000000 0.000000 0.000000
9.829802 -3.505196 -18.897598 -0.000000 1.000000 0.000000 1.000000 0.000000 -0.000000 6.166667 7.796875 0 0 0 0 0.000000 0.000000 0.000000 0.000000
9.829802 -4.038596 -18.897600 0.000003 -1.000000 -0.000000 1.000000 0.000003 0.000008 5.666667 8.109375 0 0 0 0 0.000000 0.000000 0.000000 0.000000
9.677402 -4.038596 -18.745201 0.000003 -1.000000 -0.000000 1.000000 0.000003 0.000008 5.583333 8.046875 0 0 0 0 0.000000 0.000000 0.000000 0.000000
9.677402 -4.038596 -17.983200 0.000003 -1.000000 -0.000000 1.000000 0.000003 -0.000002 5.583333 7.734375 0 0 0 0 0.000000 0.000000 0.000000 0.000000
9.829802 -4.038596 -17.830801 0.000003 -1.000000 -0.000000 1.000000 0.000003 0.000008 5.666667 7.671875 0 0 0 0 0.000000 0.000000 0.000000 0.000000
9.829802 -3.505196 -18.897598 -0.707108 0.000000 -0.707105 -0.707105 -0.000000 0.707108 -10.833333 1.859375 0 0 0 0 0.000000 0.000000 0.000000 0.000000
9.677402 -3.505196 -18.745199 -0.707108 0.000000 -0.707105 -0.707105 -0.000000 0.707108 -10.750000 1.859375 0 0 0 0 0.000000 0.000000 0.000000 0.000000
9.677402 -4.038596 -18.745201 -0.707108 0.000000 -0.707105 -0.707105 -0.000000 0.707108 -10.750000 2.078125 0 0 0 0 0.000000 0.000000 0.000000 0.000000
9.829802 -4.038596 -18.897600 -0.707108 0.000000 -0.707105 -0.707105 -0.000000 0.707108 -10.833333 2.078125 0 0 0 0 0.000000 0.000000 0.000000 0.000000
9.677402 -3.505197 -17.983198 -0.707108 -0.000000 0.707105 0.707105 -0.000000 0.707108 -9.041667 1.859375 0 0 0 0 0.000000 0.000000 0.000000 0.000000
9.829802 -3.505197 -17.830799 -0.707108 -0.000000 0.707105 0.707105 -0.000000 0.707108 -8.958333 1.859375 0 0 0 0 0.000000 0.000000 0.000000 0.000000
9.829802 -4.038596 -17.830801 -0.707108 -0.000000 0.707105 0.707105 -0.000000 0.707108 -8.958333 2.078125 0 0 0 0 0.000000 0.000000 0.000000 0.000000
9.677402 -4.038596 -17.983200 -0.707108 -0.000000 0.707105 0.707105 -0.000000 0.707108 -9.041667 2.078125 0 0 0 0 0.000000 0.000000 0.000000 0.000000
9.525002 -3.657596 -19.202398 -1.000000 -0.000000 -0.000000 -0.000000 -0.000000 1.000000 -11.489583 1.921875 0 0 0 0 0.000000 0.000000 0.000000 0.000000
9.525002 -4.114796 -19.202400 -1.000000 -0.000000 -0.000000 -0.000000 -0.000000 1.000000 -11.489583 2.109375 0 0 0 0 0.000000 0.000000 0.000000 0.000000
9.525002 -4.114796 -21.031200 -1.000000 -0.000000 -0.000000 -0.000000 -0.000000 1.000000 -12.489583 2.109375 0 0 0 0 0.000000 0.000000 0.000000 0.000000
9.525002 -3.657595 -21.031200 -1.000000 -0.000000 -0.000000 -0.000000 -0.000000 1.000000 -12.489583 1.921875 0 0 0 0 0.000000 0.000000 0.000000 0.000000
8.915402 -1.219196 -19.202398 -0.970142 -0.242536 -0.000000 -0.000000 -0.000000 1.000000 -11.000000 0.921875 0 0 0 0 0.000000 0.000000 0.000000 0.000000
9.525002 -3.657596 -19.202398 -0.970142 -0.242536 -0.000000 -0.000000 -0.000000 1.000000 -11.000000 1.921875 0 0 0 0 0.000000 0.000000 0.000000 0.000000
9.525002 -3.657595 -21.031200 -0.970142 -0.242536 -0.000000 -0.000000 -0.000000 1.000000 -12.000000 1.921875 0 0 0 0 0.000000 0.000000 0.000000 0.000000
8.915402 -1.219196 -21.031200 -0.970142 -0.242536 -0.000000 -0.000000 -0.000000 1.000000 -12.000000 0.921875 0 0 0 0 0.000000 0.000000 0.000000 0.000000
9.829802 -3.505196 -21.488398 -1.000000 -0.000000 0.000001 0.000001 0.000000 1.000000 -12.250000 1.859375 0 0 0 0 0.000000 0.000000 0.000000 0.000000
9.829802 -3.505196 -21.031200 -1.000000 -0.000000 0.000001 0.000001 0.000000 1.000000 -12.000000 1.859375 0 0 0 0 0.000000 0.000000 0.000000 0.000000
9.829802 -3.657595 -21.031200 -1.000000 -0.000000 0.000001 0.000001 0.000000 1.000000 -12.000000 1.921875 0 0 0 0 0.000000 0.000000 0.000000 0.000000
9.829802 -4.038596 -21.031200 -1.000000 -0.000000 0.000001 0.000001 0.000001 1.000000 -12.000000 2.078125 0 0 0 0 0.000000 0.000000 0.000000 0.000000
9.829802 -4.038596 -21.488398 -1.000000 -0.000000 0.000001 0.000001 0.000000 1.000000 -12.250000 2.078125 0 0 0 0 0.000000 0.000000 0.000000 0.000000
9.829802 -3.505196 -22.555201 -1.000000 -0.000000 -0.000002 -0.000001 -0.000000 1.000000 -12.833333 1.859375 0 0 0 0 0.000000 0.000000 0.000000 0.000000
9.829802 -4.038595 -22.555201 -1.000000 -0.000000 -0.000002 -0.000002 -0.000000 1.000000 -12.833333 2.078125 0 0 0 0 0.000000 0.000000 0.000000 0.000000
9.829802 -4.038595 -22.859999 -1.000000 -0.000000 -0.000002 -0.000001 -0.000000 1.000000 -13.000000 2.078125 0 0 0 0 0.000000 0.000000 0.000000 0.000000
9.829802 -3.657595 -22.859999 -1.000000 -0.000000 -0.000002 -0.000002 -0.000001 1.000000 -13.000000 1.921875 0 0 0 0 0.000000 0.000000 0.000000 0.000000
9.829802 -3.505196 -22.859999 -1.000000 -0.000000 -0.000002 -0.000001 -0.000000 1.000000 -13.000000 1.859375 0 0 0 0 0.000000 0.000000 0.000000 0.000000
9.829802 -4.114796 -21.031200 -1.000000 -0.000000 -0.000000 -0.000000 -0.000000 1.000000 -12.000000 2.109375 0 0 0 0 0.000000 0.000000 0.000000 0.000000
9.829802 -4.114795 -22.859999 -1.000000 -0.000000 -0.000000 -0.000000 -0.000000 1.000000 -13.000000 2.109375 0 0 0 0 0.000000 0.000000 0.000000 0.000000
9.829802 -4.038595 -22.555201 -1.000000 -0.000000 -0.000000 0.000000 0.000000 -1.000000 -12.833333 2.078125 0 0 0 0 0.000000 0.000000 0.000000 0.000000
9.829802 -1.219196 -21.031200 -1.000000 -0.000000 -0.000000 -0.000000 -0.000000 1.000000 -12.000000 0.921875 0 0 0 0 0.000000 0.000000 0.000000 0.000000
9.829802 -1.219195 -22.859999 -1.000000 -0.000000 -0.000000 -0.000000 -0.000000 1.000000 -13.000000 0.921875 0 0 0 0 0.000000 0.000000 0.000000 0.000000
9.829802 -3.657595 -22.859999 -0.000000 -0.000000 1.000000 -0.000000 1.000000 -0.000000 5.593750 1.921875 0 0 0 0 0.000000 0.000000 0.000000 0.000000
9.829802 -4.038595 -22.859999 -0.000000 -0.000000 1.000000 -0.000000 1.000000 0.000000 5.593750 2.078125 0 0 0 0 0.000000 0.000000 0.000000 0.000000
9.829802 -4.114795 -22.859999 -0.000000 -0.000000 1.000000 -0.000000 1.000000 0.000000 5.593750 2.109375 0 0 0 0 0.000000 0.000000 0.000000 0.000000
9.525002 -4.114795 -22.859999 -0.000000 -0.000000 1.000000 1.000000 -0.000000 0.000000 5.427083 2.109375 0 0 0 0 0.000000 0.000000 0.000000 0.000000
9.525002 -3.657595 -22.859999 -0.000000 -0.000000 1.000000 1.000000 0.000000 0.000000 5.427083 1.921875 0 0 0 0 0.000000 0.000000 0.000000 0.000000
9.829802 -1.219195 -22.859999 -0.000000 0.000000 1.000000 -0.000000 1.000000 -0.000000 5.677083 0.921875 0 0 0 0 0.000000 0.000000 0.000000 0.000000
9.829802 -3.505196 -22.859999 -0.000000 0.000000 1.000000 -0.000000 1.000000 -0.000000 5.677083 1.859375 0 0 0 0 0.000000 0.000000 0.000000 0.000000
9.829802 -3.657595 -22.859999 -0.000000 0.000000 1.000000 -0.000000 1.000000 -0.000000 5.677083 1.921875 0 0 0 0 0.000000 0.000000 0.000000 0.000000
9.525002 -3.657595 -22.859999 -0.000000 0.000000 1.000000 1.000000 0.000000 0.000000 5.510417 1.921875 0 0 0 0 0.000000 0.000000 0.000000 0.000000
8.915402 -1.219195 -22.859999 -0.000000 0.000000 1.000000 1.000000 0.000000 0.000000 5.177083 0.921875 0 0 0 0 0.000000 0.000000 0.000000 0.000000
9.829802 -3.505196 -21.488398 -0.000000 1.000000 0.000000 1.000000 0.000000 0.000014 6.166667 9.359375 0 0 0 0 0.000000 0.000000 0.000000 0.000000
9.677402 -3.505196 -21.640800 -0.000000 1.000000 0.000000 1.000000 0.000000 0.000014 6.083333 9.421875 0 0 0 0 0.000000 0.000000 0.000000 0.000000
9.677402 -3.505196 -22.402800 -0.000000 1.000000 0.000000 1.000000 0.000000 0.000000 6.083333 9.734375 0 0 0 0 0.000000 0.000000 0.000000 0.000000
9.829802 -3.505196 -22.555201 -0.000000 1.000000 0.000000 1.000000 0.000000 0.000014 6.166667 9.796875 0 0 0 0 0.000000 0.000000 0.000000 0.000000
9.829802 -4.038595 -22.555201 -0.000000 -1.000000 -0.000000 1.000000 -0.000000 0.000002 5.666667 10.109375 0 0 0 0 0.000000 0.000000 0.000000 0.000000
9.677402 -4.038595 -22.402800 -0.000000 -1.000000 -0.000000 1.000000 -0.000000 0.000002 5.583333 10.046875 0 0 0 0 0.000000 0.000000 0.000000 0.000000
9.677402 -4.038596 -21.640800 -0.000000 -1.000000 -0.000000 1.000000 -0.000000 0.000016 5.583333 9.734375 0 0 0 0 0.000000 0.000000 0.000000 0.000000
9.829802 -4.038596 -21.488398 -0.000000 -1.000000 -0.000000 1.000000 -0.000000 0.000002 5.666667 9.671875 0 0 0 0 0.000000 0.000000 0.000000 0.000000
9.829802 -3.505196 -22.555201 -0.707113 0.000000 -0.707101 -0.707101 -0.000000 0.707113 -12.833333 1.859375 0 0 0 0 0.000000 0.000000 0.000000 0.000000
9.677402 -3.505196 -22.402800 -0.707113 0.000000 -0.707101 -0.707101 -0.000000 0.707113 -12.750000 1.859375 0 0 0 0 0.000000 0.000000 0.000000 0.000000
9.677402 -4.038595 -22.402800 -0.707113 0.000000 -0.707101 -0.707101 -0.000000 0.707113 -12.750000 2.078125 0 0 0 0 0.000000 0.000000 0.000000 0.000000
9.829802 -4.038595 -22.555201 -0.707113 0.000000 -0.707101 -0.707101 -0.000000 0.707113 -12.833333 2.078125 0 0 0 0 0.000000 0.000000 0.000000 0.000000
9.677402 -3.505196 -21.640800 -0.707113 -0.000000 0.707101 0.707101 0.000000 0.707113 -11.041667 1.859375 0 0 0 0 0.000000 0.000000 0.000000 0.000000
9.829802 -3.505196 -21.488398 -0.707113 -0.000000 0.707101 0.707101 0.000000 0.707113 -10.958333 1.859375 0 0 0 0 0.000000 0.000000 0.000000 0.000000
9.829802 -4.038596 -21.488398 -0.707113 -0.000000 0.707101 0.707101 0.000000 0.707113 -10.958333 2.078125 0 0 0 0 0.000000 0.000000 0.000000 0.000000
9.677402 -4.038596 -21.640800 -0.707113 -0.000000 0.707101 0.707101 0.000000 0.707113 -11.041667 2.078125 0 0 0 0 0.000000 0.000000 0.000000 0.000000
9.525002 -3.657595 -22.859999 -1.000000 -0.000000 -0.000000 -0.000000 -0.000000 1.000000 -12.572917 1.921875 0 0 0 0 0.000000 0.000000 0.000000 0.000000
9.525002 -4.114795 -22.859999 -1.000000 -0.000000 -0.000000 -0.000000 -0.000000 1.000000 -12.572917 2.109375 0 0 0 0 0.000000 0.000000 0.000000 0.000000
9.525003 -4.114795 -24.688801 -1.000000 -0.000000 -0.000000 -0.000000 -0.000000 1.000000 -13.572917 2.109375 0 0 0 0 0.000000 0.000000 0.000000 0.000000
9.525003 -3.657595 -24.688801 -1.000000 -0.000000 -0.000000 -0.000000 -0.000000 1.000000 -13.572917 1.921875 0 0 0 0 0.000000 0.000000 0.000000 0.000000
8.915402 -1.219195 -22.859999 -0.970142 -0.242536 -0.000000 -0.000000 -0.000000 1.000000 -13.000000 0.921875 0 0 0 0 0.000000 0.000000 0.000000 0.000000
9.525002 -3.657595 -22.859999 -0.970142 -0.242536 -0.000000 -0.000000 -0.000000 1.000000 -13.000000 1.921875 0 0 0 0 0.000000 0.000000 0.000000 0.000000
9.525003 -3.657595 -24.688801 -0.970142 -0.242536 -0.000000 -0.000000 -0.000000 1.000000 -14.000000 1.921875 0 0 0 0 0.000000 0.000000 0.000000 0.000000
8.915402 -1.219195 -24.688801 -0.970142 -0.242536 -0.000000 -0.000000 -0.000000 1.000000 -14.000000 0.921875 0 0 0 0 0.000000 0.000000 0.000000 0.000000
3.438527 -1.523996 -22.859999 0.000000 -0.000001 -1.000000 1.000000 0.000001 0.000000 2.296875 1.046875 0 0 0 0 0.000000 0.000000 0.000000 0.000000
2.819402 -3.505196 -22.859999 0.000000 -0.000001 -1.000000 1.000000 0.000001 0.000000 1.958333 1.859375 0 0 0 0 0.000000 0.000000 0.000000 0.000000
2.819402 -4.114796 -22.859999 0.000000 -0.000001 -1.000000 1.000000 0.000001 0.000000 1.958333 2.109375 0 0 0 0 0.000000 0.000000 0.000000 0.000000
4.495802 -4.114796 -22.859999 0.000000 -0.000001 -1.000000 1.000000 0.000000 0.000000 2.875000 2.109375 0 0 0 0 0.000000 0.000000 0.000000 0.000000
4.953002 -4.114796 -22.859999 0.000000 -0.000001 -1.000000 1.000000 0.000001 0.000000 3.125000 2.109375 0 0 0 0 0.000000 0.000000 0.000000 0.000000
4.953002 -1.828796 -22.859999 0.000000 -0.000001 -1.000000 1.000000 0.000000 0.000000 3.125000 1.171875 0 0 0 0 0.000000 0.000000 0.000000 0.000000
4.648202 -1.523996 -22.859999 0.000000 -0.000001 -1.000000 1.000000 0.000000 0.000000 2.958333 1.046875 0 0 0 0 0.000000 0.000000 0.000000 0.000000
4.648202 -1.523996 -19.812000 1.000000 0.000000 0.000000 -0.000000 -0.000000 1.000000 -11.322917 1.031250 0 0 0 0 0.000000 0.000000 0.000000 0.000000
4.648202 -1.523996 -22.250401 1.000000 0.000000 0.000000 -0.000000 -0.000000 1.000000 -12.656250 1.031250 0 0 0 0 0.000000 0.000000 0.000000 0.000000
4.648202 -1.828796 -22.250401 1.000000 0.000000 0.000000 -0.000000 -0.000000 1.000000 -12.656250 1.156250 0 0 0 0 0.000000 0.000000 0.000000 0.000000
4.648202 -1.828796 -19.812000 1.000000 0.000000 0.000000 -0.000000 -0.000000 1.000000 -11.322917 1.156250 0 0 0 0 0.000000 0.000000 0.000000 0.000000
4.648201 -1.523997 -18.592800 1.000000 0.000000 0.000000 0.000000 0.000000 -1.000000 -10.562500 1.046875 0 0 0 0 0.000000 0.000000 0.000000 0.000000
4.648201 -1.523997 -18.516600 1.000000 0.000000 0.000000 0.000000 0.000000 -1.000000 -10.520833 1.046875 0 0 0 0 0.000000 0.000000 0.000000 0.000000
4.648201 -1.523997 -18.135601 1.000000 0.000000 0.000000 0.000000 0.000000 -1.000000 -10.312500 1.046875 0 0 0 0 0.000000 0.000000 0.000000 0.000000
4.648201 -1.523997 -17.373600 1.000000 0.000000 0.000000 0.000000 0.000000 -1.000000 -9.895833 1.046875 0 0 0 0 0.000000 0.000000 0.000000 0.000000
4.648201 1.219203 -17.373600 1.000000 0.000000 0.000000 -0.000000 -0.000000 1.000000 -9.895833 -0.078125 0 0 0 0 0.000000 0.000000 0.000000 0.000000
4.648201 1.219203 -18.592800 1.000000 0.000000 0.000000 -0.000000 -0.000000 1.000000 -10.562500 -0.078125 0 0 0 0 0.000000 0.000000 0.000000 0.000000
4.648202 -1.523996 -22.859999 1.000000 0.000000 0.000000 -0.000000 -0.000000 1.000000 -12.895833 1.046875 0 0 0 0 0.000000 0.000000 0.000000 0.000000
4.648202 -1.523996 -22.250401 1.000000 0.000000 0.000000 0.000000 0.000000 -1.000000 -12.562500 1.046875 0 0 0 0 0.000000 0.000000 0.000000 0.000000
4.648202 -1.523996 -19.812000 1.000000 0.000000 0.000000 0.000000 0.000000 -1.000000 -11.229167 1.046875 0 0 0 0 0.000000 0.000000 0.000000 0.000000
4.648202 -1.523997 -19.202400 1.000000 0.000000 0.000000 0.000000 0.000000 -1.000000 -10.895833 1.046875 0 0 0 0 0.000000 0.000000 0.000000 0.000000
4.648202 1.219204 -21.793200 1.000000 0.000000 0.000000 -0.000000 -0.000000 1.000000 -12.312500 -0.078125 0 0 0 0 0.000000 0.000000 0.000000 0.000000
4.648202 1.219204 -22.859999 1.000000 0.000000 0.000000 -0.000000 0.000000 1.000000 -12.895833 -0.078125 0 0 0 0 0.000000 0.000000 0.000000 0.000000
4.648202 -1.066796 -22.859999 1.000000 0.000000 0.000000 -0.000000 1.000000 -0.000000 -12.895833 0.859375 0 0 0 0 0.000000 0.000000 0.000000 0.000000
4.648202 -4.114796 -19.812002 0.000000 0.000000 -1.000000 1.000000 -0.000000 0.000000 3.343750 2.093750 0 0 0 0 0.000000 0.000000 0.000000 0.000000
4.953002 -4.114796 -19.812002 0.000000 0.000000 -1.000000 1.000000 -0.000000 0.000000 3.510417 2.093750 0 0 0 0 0.000000 0.000000 0.000000 0.000000
4.953002 -1.828796 -19.812000 0.000000 0.000000 -1.000000 1.000000 -0.000000 0.000000 3.510417 1.156250 0 0 0 0 0.000000 0.000000 0.000000 0.000000
4.648202 -1.523996 -19.812000 0.000000 0.000000 -1.000000 1.000000 -0.000000 0.000000 3.343750 1.031250 0 0 0 0 0.000000 0.000000 0.000000 0.000000
4.648202 -1.828796 -19.812000 0.000000 0.000000 -1.000000 1.000000 -0.000000 0.000000 3.343750 1.156250 0 0 0 0 0.000000 0.000000 0.000000 0.000000
4.648202 -4.114796 -19.202400 -0.000000 -0.000000 1.000000 1.000000 -0.000000 0.000000 2.958333 2.109375 0 0 0 0 0.000000 0.000000 0.000000 0.000000
4.648202 -1.523997 -19.202400 -0.000000 -0.000000 1.000000 1.000000 0.000000 0.000000 2.958333 1.046875 0 0 0 0 0.000000 0.000000 0.000000 0.000000
4.953002 -1.828796 -19.202400 -0.000000 -0.000000 1.000000 1.000000 0.000001 0.000000 3.125000 1.171875 0 0 0 0 0.000000 0.000000 0.000000 0.000000
4.953002 -4.114796 -19.202400 -0.000000 -0.000000 1.000000 1.000000 -0.000000 0.000000 3.125000 2.109375 0 0 0 0 0.000000 0.000000 0.000000 0.000000
4.648202 -4.114796 -22.250401 -0.000000 -0.000000 1.000000 0.000000 -1.000000 -0.000000 3.343750 2.093750 0 0 0 0 0.000000 0.000000 0.000000 0.000000
4.648202 -1.828796 -22.250401 -0.000000 -0.000000 1.000000 0.000000 -1.000000 -0.000000 3.343750 1.156250 0 0 0 0 0.000000 0.000000 0.000000 0.000000
4.648202 -1.523996 -22.250401 -0.000000 -0.000000 1.000000 0.000000 -1.000000 -0.000000 3.343750 1.031250 0 0 0 0 0.000000 0.000000 0.000000 0.000000
4.953002 -1.828796 -22.250401 -0.000000 -0.000000 1.000000 1.000000 0.000001 0.000000 3.510417 1.156250 0 0 0 0 0.000000 0.000000 0.000000 0.000000
4.953002 -4.114796 -22.250401 -0.000000 -0.000000 1.000000 1.000000 -0.000000 0.000000 3.510417 2.093750 0 0 0 0 0.000000 0.000000 0.000000 0.000000
4.648202 -4.114796 -19.202400 -0.000000 -0.000000 1.000000 1.000000 0.000000 0.000000 2.958333 2.109375 0 0 0 0 0.000000 0.000000 0.000000 0.000000
4.495802 -4.114796 -19.202400 -0.000000 -0.000000 1.000000 1.000000 0.000000 0.000000 2.875000 2.109375 0 0 0 0 0.000000 0.000000 0.000000 0.000000
2.819402 -4.114797 -19.202400 -0.000000 -0.000000 1.000000 1.000000 0.000000 0.000000 1.958333 2.109375 0 0 0 0 0.000000 0.000000 0.000000 0.000000
2.819402 -3.505197 -19.202400 -0.000000 -0.000000 1.000000 1.000000 0.000000 0.000000 1.958333 1.859375 0 0 0 0 0.000000 0.000000 0.000000 0.000000
3.438527 -1.523997 -19.202400 -0.000000 -0.000000 1.000000 1.000000 0.000000 0.000000 2.296875 1.046875 0 0 0 0 0.000000 0.000000 0.000000 0.000000
3.886201 -1.523997 -18.135601 -0.707106 -0.707107 -0.000000 0.707107 -0.707107 0.000009 1.583333 7.734375 0 0 0 0 0.000000 0.000000 0.000000 0.000000
3.962401 -1.600197 -18.211800 -0.707106 -0.707107 -0.000000 0.707107 -0.707107 0.000009 1.625000 7.765625 0 0 0 0 0.000000 0.000000 0.000000 0.000000
3.962401 -1.600197 -18.440401 -0.707106 -0.707107 -0.000000 0.707107 -0.707107 -0.000030 1.625000 7.859375 0 0 0 0 0.000000 0.000000 0.000000 0.000000
3.886201 -1.523997 -18.516600 -0.707106 -0.707107 -0.000000 0.707107 -0.707107 0.000009 1.583333 7.890625 0 0 0 0 0.000000 0.000000 0.000000 0.000000
3.438527 -1.523997 -19.202400 0.954480 -0.298275 0.000000 -0.000000 -0.000000 1.000000 -10.989583 1.046875 0 0 0 0 0.000000 0.000000 0.000000 0.000000
2.819402 -3.505197 -19.202400 0.954480 -0.298275 0.000000 -0.000000 -0.000000 1.000000 -10.989583 1.859375 0 0 0 0 0.000000 0.000000 0.000000 0.000000
2.819402 -3.505197 -17.373600 0.954480 -0.298275 0.000000 -0.000000 -0.000000 1.000000 -9.989583 1.859375 0 0 0 0 0.000000 0.000000 0.000000 0.000000
3.438527 -1.523997 -17.373600 0.954480 -0.298275 0.000000 -0.000000 0.000000 1.000000 -9.989583 1.046875 0 0 0 0 0.000000 0.000000 0.000000 0.000000
3.438527 -1.523997 -18.135601 0.954480 -0.298275 0.000000 -0.000000 -0.000000 1.000000 -10.406250 1.046875 0 0 0 0 0.000000 0.000000 0.000000 0.000000
3.438527 -1.523997 -18.516600 0.954480 -0.298275 0.000000 -0.000000 -0.000000 1.000000 -10.614583 1.046875 0 0 0 0 0.000000 0.000000 0.000000 0.000000
3.886201 -1.523997 -18.516600 0.000000 -0.707101 -0.707112 1.000000 0.000000 0.000000 2.250000 7.890625 0 0 0 0 0.000000 0.000000 0.000000 0.000000
3.962401 -1.600197 -18.440401 0.000000 -0.707101 -0.707112 1.000000 0.000000 0.000000 2.291667 7.859375 0 0 0 0 0.000000 0.000000 0.000000 0.000000
4.191001 -1.600197 -18.440401 0.000000 -0.707101 -0.707112 1.000000 0.000000 0.000000 2.416667 7.859375 0 0 0 0 0.000000 0.000000 0.000000 0.000000
4.267201 -1.523997 -18.516600 0.000000 -0.707101 -0.707112 1.000000 0.000000 0.000000 2.458333 7.890625 0 0 0 0 0.000000 0.000000 0.000000 0.000000
4.267201 -1.523997 -18.516600 0.707107 -0.707107 -0.000000 0.707107 0.707107 0.000020 1.833333 7.953125 0 0 0 0 0.000000 0.000000 0.000000 0.000000
4.191001 -1.600197 -18.440401 0.707107 -0.707107 -0.000000 0.707107 0.707107 0.000020 1.791667 7.921875 0 0 0 0 0.000000 0.000000 0.000000 0.000000
4.191001 -1.600197 -18.211800 0.707107 -0.707107 -0.000000 0.707107 0.707107 -0.000019 1.791667 7.828125 0 0 0 0 0.000000 0.000000 0.000000 0.000000
4.267201 -1.523997 -18.135601 0.707107 -0.707107 -0.000000 0.707107 0.707107 0.000020 1.833333 7.796875 0 0 0 0 0.000000 0.000000 0.000000 0.000000
4.267201 -1.523997 -18.135601 -0.000000 -0.707105 0.707108 1.000000 -0.000000 0.000000 2.458333 7.734375 0 0 0 0 0.000000 0.000000 0.000000 0.000000
4.191001 -1.600197 -18.211800 -0.000000 -0.707105 0.707108 1.000000 -0.000000 0.000000 2.416667 7.765625 0 0 0 0 0.000000 0.000000 0.000000 0.000000
3.962401 -1.600197 -18.211800 -0.000000 -0.707105 0.707108 1.000000 -0.000000 0.000000 2.291667 7.765625 0 0 0 0 0.000000 0.000000 0.000000 0.000000
3.886201 -1.523997 -18.135601 -0.000000 -0.707105 0.707108 1.000000 -0.000000 0.000000 2.250000 7.734375 0 0 0 0 0.000000 0.000000 0.000000 0.000000
4.648202 1.219204 -23.012400 1.000000 0.000000 0.000000 -0.000000 -0.000000 1.000000 -12.979167 -0.078125 0 0 0 0 0.000000 0.000000 0.000000 0.000000
4.648202 1.219204 -24.688801 1.000000 0.000000 0.000000 -0.000000 -0.000000 1.000000 -13.895833 -0.078125 0 0 0 0 0.000000 0.000000 0.000000 0.000000
4.648202 -1.066796 -24.688801 1.000000 0.000000 0.000000 -0.000000 -0.000000 1.000000 -13.895833 0.859375 0 0 0 0 0.000000 0.000000 0.000000 0.000000
4.648202 -1.066796 -24.536398 1.000000 0.000000 0.000000 -0.000000 -0.000000 1.000000 -13.812500 0.859375 0 0 0 0 0.000000 0.000000 0.000000 0.000000
4.648202 -1.066796 -22.859999 1.000000 0.000000 0.000000 -0.000000 -0.000000 1.000000 -12.895833 0.859375 0 0 0 0 0.000000 0.000000 0.000000 0.000000
4.648202 -1.066796 -24.688801 1.000000 0.000000 0.000000 -0.000000 1.000000 0.000000 -14.083333 0.859375 0 0 0 0 0.000000 0.000000 0.000000 0.000000
4.648202 -3.047996 -24.688801 1.000000 0.000000 0.000000 -0.000000 1.000000 0.000000 -14.083333 1.671875 0 0 0 0 0.000000 0.000000 0.000000 0.000000
4.648202 -4.114795 -24.688801 1.000000 0.000000 0.000000 -0.000000 1.000000 0.000000 -14.083333 2.109375 0 0 0 0 0.000000 0.000000 0.000000 0.000000
4.648202 -4.114796 -24.536398 1.000000 0.000000 0.000000 -0.000000 -0.000002 1.000000 -14.000000 2.109375 0 0 0 0 0.000000 0.000000 0.000000 0.000000
4.648202 -1.523996 -24.536398 1.000000 0.000000 0.000000 -0.000000 -0.000000 1.000000 -14.000000 1.046875 0 0 0 0 0.000000 0.000000 0.000000 0.000000
4.648202 -1.066796 -24.536398 1.000000 0.000000 0.000000 -0.000000 -0.000000 1.000000 -14.000000 0.859375 0 0 0 0 0.000000 0.000000 0.000000 0.000000
4.648202 -1.523996 -24.536398 1.000000 0.000000 0.000000 -0.000000 -0.000000 1.000000 -13.812500 1.046875 0 0 0 0 0.000000 0.000000 0.000000 0.000000
4.648202 -1.523996 -23.964899 1.000000 0.000000 0.000000 -0.000000 -0.000000 1.000000 -13.500000 1.046875 0 0 0 0 0.000000 0.000000 0.000000 0.000000
4.648202 -1.523996 -23.583900 1.000000 0.000000 0.000000 -0.000000 -0.000000 1.000000 -13.291667 1.046875 0 0 0 0 0.000000 0.000000 0.000000 0.000000
4.648202 -1.523996 -22.859999 1.000000 0.000000 0.000000 -0.000000 -0.000000 1.000000 -12.895833 1.046875 0 0 0 0 0.000000 0.000000 0.000000 0.000000
3.438527 -1.523996 -24.536398 0.954480 -0.298275 0.000000 -0.000000 -0.000000 1.000000 -13.906250 1.046875 0 0 0 0 0.000000 0.000000 0.000000 0.000000
2.819402 -3.505196 -24.536398 0.954480 -0.298275 0.000000 -0.000000 -0.000000 1.000000 -13.906250 1.859375 0 0 0 0 0.000000 0.000000 0.000000 0.000000
2.819402 -3.505196 -22.859999 0.954480 -0.298275 0.000000 -0.000000 -0.000000 1.000000 -12.989583 1.859375 0 0 0 0 0.000000 0.000000 0.000000 0.000000
3.438527 -1.523996 -22.859999 0.954480 -0.298275 0.000000 -0.000000 -0.000000 1.000000 -12.989583 1.046875 0 0 0 0 0.000000 0.000000 0.000000 0.000000
3.438527 -1.523996 -23.583900 0.954480 -0.298275 0.000000 -0.000000 -0.000000 1.000000 -13.385417 1.046875 0 0 0 0 0.000000 0.000000 0.000000 0.000000
3.438527 -1.523996 -23.964899 0.954480 -0.298275 0.000000 -0.000000 -0.000000 1.000000 -13.593750 1.046875 0 0 0 0 0.000000 0.000000 0.000000 0.000000
2.819402 -3.505196 -24.536398 -0.000000 -0.000000 1.000000 1.000000 0.000000 0.000000 2.333333 1.859375 0 0 0 0 0.000000 0.000000 0.000000 0.000000
3.438527 -1.523996 -24.536398 -0.000000 -0.000000 1.000000 1.000000 0.000000 0.000000 2.671875 1.046875 0 0 0 0 0.000000 0.000000 0.000000 0.000000
4.648202 -1.523996 -24.536398 -0.000000 -0.000000 1.000000 1.000000 0.000000 0.000000 3.333333 1.046875 0 0 0 0 0.000000 0.000000 0.000000 0.000000
4.648202 -4.114796 -24.536398 -0.000000 -0.000000 1.000000 1.000000 0.000000 0.000000 3.333333 2.109375 0 0 0 0 0.000000 0.000000 0.000000 0.000000
4.495802 -4.114796 -24.536398 -0.000000 -0.000000 1.000000 1.000000 -0.000000 0.000000 3.250000 2.109375 0 0 0 0 0.000000 0.000000 0.000000 0.000000
2.819402 -4.114796 -24.536398 -0.000000 -0.000000 1.000000 1.000000 -0.000000 0.000000 2.333333 2.109375 0 0 0 0 0.000000 0.000000 0.000000 0.000000
3.886202 -1.523996 -23.964899 0.000000 -0.707117 -0.707096 1.000000 0.000000 0.000000 2.250000 10.125000 0 0 0 0 0.000000 0.000000 0.000000 0.000000
3.962402 -1.600196 -23.888700 0.000000 -0.707117 -0.707096 1.000000 0.000000 0.000000 2.291667 10.093750 0 0 0 0 0.000000 0.000000 0.000000 0.000000
4.191002 -1.600196 -23.888700 0.000000 -0.707117 -0.707096 1.000000 0.000000 0.000000 2.416667 10.093750 0 0 0 0 0.000000 0.000000 0.000000 0.000000
4.267202 -1.523996 -23.964899 0.000000 -0.707117 -0.707096 1.000000 0.000000 0.000000 2.458333 10.125000 0 0 0 0 0.000000 0.000000 0.000000 0.000000
3.886202 -1.523996 -23.583900 -0.707109 -0.707105 -0.000000 0.707105 -0.707109 0.000009 1.562500 9.968750 0 0 0 0 0.000000 0.000000 0.000000 0.000000
3.962402 -1.600196 -23.660099 -0.707109 -0.707105 -0.000000 0.707105 -0.707109 0.000009 1.604167 10.000000 0 0 0 0 0.000000 0.000000 0.000000 0.000000
3.962402 -1.600196 -23.888700 -0.707109 -0.707105 -0.000000 0.707105 -0.707109 -0.000015 1.604167 10.093750 0 0 0 0 0.000000 0.000000 0.000000 0.000000
3.886202 -1.523996 -23.964899 -0.707109 -0.707105 -0.000000 0.707105 -0.707109 0.000009 1.562500 10.125000 0 0 0 0 0.000000 0.000000 0.000000 0.000000
4.267202 -1.523996 -23.583900 0.000000 -0.707112 0.707101 1.000000 0.000000 0.000000 2.458333 9.968750 0 0 0 0 0.000000 0.000000 0.000000 0.000000
4.191002 -1.600196 -23.660099 0.000000 -0.707112 0.707101 1.000000 0.000000 0.000000 2.416667 10.000000 0 0 0 0 0.000000 0.000000 0.000000 0.000000
3.962402 -1.600196 -23.660099 0.000000 -0.707112 0.707101 1.000000 0.000000 -0.000000 2.291667 10.000000 0 0 0 0 0.000000 0.000000 0.000000 0.000000
3.886202 -1.523996 -23.583900 0.000000 -0.707112 0.707101 1.000000 0.000000 0.000000 2.250000 9.968750 0 0 0 0 0.000000 0.000000 0.000000 0.000000
4.267202 -1.523996 -23.964899 0.707109 -0.707105 -0.000000 0.707105 0.707109 0.000009 1.812500 10.187500 0 0 0 0 0.000000 0.000000 0.000000 0.000000
4.191002 -1.600196 -23.888700 0.707109 -0.707105 -0.000000 0.707105 0.707109 0.000009 1.770833 10.156250 0 0 0 0 0.000000 0.000000 0.000000 0.000000
4.191002 -1.600196 -23.660099 0.707109 -0.707105 -0.000000 0.707105 0.707109 -0.000015 1.770833 10.062500 0 0 0 0 0.000000 0.000000 0.000000 0.000000
4.267202 -1.523996 -23.583900 0.707109 -0.707105 -0.000000 0.707105 0.707109 0.000009 1.812500 10.031250 0 0 0 0 0.000000 0.000000 0.000000 0.000000
-1.981198 1.219204 -24.384001 -0.000000 -0.000000 1.000000 1.000000 0.000000 0.000000 -0.270833 -0.500000 0 0 0 0 0.000000 0.000000 0.000000 0.000000
-0.457198 1.219204 -24.384001 -0.000000 -0.000000 1.000000 1.000000 0.000000 0.000000 0.562500 -0.500000 0 0 0 0 0.000000 0.000000 0.000000 0.000000
-0.457198 0.000004 -24.384001 -0.000000 -0.000000 1.000000 1.000000 0.000000 0.000000 0.562500 0.000000 0 0 0 0 0.000000 0.000000 0.000000 0.000000
-1.066798 0.000004 -24.384001 -0.000000 -0.000000 1.000000 1.000000 0.000000 0.000000 0.229167 0.000000 0 0 0 0 0.000000 0.000000 0.000000 0.000000
-1.981198 0.000004 -24.384001 -0.000000 -0.000000 1.000000 1.000000 0.000000 0.000000 -0.270833 0.000000 0 0 0 0 0.000000 0.000000 0.000000 0.000000
-1.981198 5.486403 -24.384001 -0.000000 -0.000000 1.000000 1.000000 0.000000 0.000000 -0.270833 -2.250000 0 0 0 0 0.000000 0.000000 0.000000 0.000000
-0.457198 5.486403 -24.384001 -0.000000 -0.000000 1.000000 1.000000 -0.000000 0.000000 0.562500 -2.250000 0 0 0 0 0.000000 0.000000 0.000000 0.000000
-1.981199 9.753603 -24.383999 -0.000000 -0.000000 1.000000 1.000000 -0.000000 0.000000 -0.270833 -4.000000 0 0 0 0 0.000000 0.000000 0.000000 0.000000
-0.457199 9.753603 -24.383999 -0.000000 -0.000000 1.000000 1.000000 -0.000000 0.000000 0.562500 -4.000000 0 0 0 0 0.000000 0.000000 0.000000 0.000000
-2.895598 0.000004 -24.384001 -0.000000 0.000002 1.000000 1.000000 0.000000 0.000000 -0.770833 0.000000 0 0 0 0 0.000000 0.000000 0.000000 0.000000
-3.505198 0.000004 -24.384001 -0.000000 0.000002 1.000000 1.000000 0.000000 0.000000 -1.104167 0.000000 0 0 0 0 0.000000 0.000000 0.000000 0.000000
-5.638798 0.000003 -24.384001 -0.000000 0.000002 1.000000 1.000000 0.000000 0.000000 -2.270833 0.000000 0 0 0 0 0.000000 0.000000 0.000000 0.000000
-6.248398 0.000003 -24.384001 -0.000000 0.000002 1.000000 1.000000 0.000000 0.000000 -2.604167 0.000000 0 0 0 0 0.000000 0.000000 0.000000 0.000000
-6.248398 1.219203 -24.384001 -0.000000 0.000002 1.000000 1.000000 0.000000 0.000000 -2.604167 -0.500000 0 0 0 0 0.000000 0.000000 0.000000 0.000000
-6.248399 5.486403 -24.384001 -0.000000 -0.000000 1.000000 1.000000 -0.000000 0.000000 -2.604167 -2.250000 0 0 0 0 0.000000 0.000000 0.000000 0.000000
-6.248399 9.753603 -24.383999 -0.000000 -0.000000 1.000000 1.000000 -0.000000 0.000000 -2.604167 -4.000000 0 0 0 0 0.000000 0.000000 0.000000 0.000000
-1.981199 1.219203 -17.678400 0.000000 0.000000 -1.000000 1.000000 0.000000 0.000000 -0.270833 -0.500000 0 0 0 0 0.000000 0.000000 0.000000 0.000000
-1.981198 0.000003 -17.678400 0.000000 0.000000 -1.000000 1.000000 0.000000 0.000000 -0.270833 0.000000 0 0 0 0 0.000000 0.000000 0.000000 0.000000
-1.066798 0.000003 -17.678400 0.000000 0.000000 -1.000000 1.000000 0.000000 0.000000 0.229167 0.000000 0 0 0 0 0.000000 0.000000 0.000000 0.000000
-0.457198 0.000003 -17.678400 0.000000 0.000000 -1.000000 1.000000 -0.000000 0.000000 0.562500 0.000000 0 0 0 0 0.000000 0.000000 0.000000 0.000000
-0.457199 1.219203 -17.678400 0.000000 0.000000 -1.000000 1.000000 0.000000 0.000000 0.562500 -0.500000 0 0 0 0 0.000000 0.000000 0.000000 0.000000
-1.981199 5.486403 -17.678398 0.000000 0.000000 -1.000000 1.000000 0.000000 0.000000 -0.270833 -2.250000 0 0 0 0 0.000000 0.000000 0.000000 0.000000
-0.457199 5.486403 -17.678398 0.000000 0.000000 -1.000000 1.000000 0.000000 0.000000 0.562500 -2.250000 0 0 0 0 0.000000 0.000000 0.000000 0.000000
-1.981199 9.753602 -17.678398 0.000000 0.000000 -1.000000 1.000000 0.000000 0.000000 -0.270833 -4.000000 0 0 0 0 0.000000 0.000000 0.000000 0.000000
-0.457199 9.753603 -17.678398 0.000000 0.000000 -1.000000 1.000000 0.000000 0.000000 0.562500 -4.000000 0 0 0 0 0.000000 0.000000 0.000000 0.000000
-6.248398 1.219202 -17.678400 0.000000 -0.000001 -1.000000 1.000000 0.000000 0.000000 -2.604167 -0.500000 0 0 0 0 0.000000 0.000000 0.000000 0.000000
-6.248398 0.000002 -17.678400 0.000000 -0.000001 -1.000000 1.000000 0.000000 0.000000 -2.604167 0.000000 0 0 0 0 0.000000 0.000000 0.000000 0.000000
-5.638798 0.000002 -17.678400 0.000000 -0.000001 -1.000000 1.000000 0.000000 0.000000 -2.270833 0.000000 0 0 0 0 0.000000 0.000000 0.000000 0.000000
-3.505198 0.000003 -17.678400 0.000000 -0.000001 -1.000000 1.000000 0.000000 0.000000 -1.104167 0.000000 0 0 0 0 0.000000 0.000000 0.000000 0.000000
-2.895598 0.000003 -17.678400 0.000000 -0.000001 -1.000000 1.000000 0.000000 0.000000 -0.770833 0.000000 0 0 0 0 0.000000 0.000000 0.000000 0.000000
-6.248399 5.486403 -17.678398 0.000000 0.000000 -1.000000 1.000000 -0.000000 0.000000 -2.604167 -2.250000 0 0 0 0 0.000000 0.000000 0.000000 0.000000
-6.248399 9.753602 -17.678398 0.000000 0.000000 -1.000000 1.000000 -0.000000 0.000000 -2.604167 -4.000000 0 0 0 0 0.000000 0.000000 0.000000 0.000000
-0.457198 1.219203 -20.116800 -1.000000 -0.000000 -0.000000 -0.000000 -0.000000 1.000000 -10.187500 -0.500000 0 0 0 0 0.000000 0.000000 0.000000 0.000000
-0.457199 1.219203 -17.678400 -1.000000 -0.000000 -0.000000 -0.000000 -0.000000 1.000000 -8.854167 -0.500000 0 0 0 0 0.000000 0.000000 0.000000 0.000000
-0.457198 0.000003 -17.678400 -1.000000 -0.000000 -0.000000 -0.000000 -0.000000 1.000000 -8.854167 0.000000 0 0 0 0 0.000000 0.000000 0.000000 0.000000
-0.457198 0.000003 -20.116800 -1.000000 -0.000000 -0.000000 -0.000000 -0.000000 1.000000 -10.187500 0.000000 0 0 0 0 0.000000 0.000000 0.000000 0.000000
-0.457199 5.486403 -20.116798 -1.000000 -0.000000 -0.000000 -0.000000 -0.000000 1.000000 -10.187500 -2.250000 0 0 0 0 0.000000 0.000000 0.000000 0.000000
-0.457199 5.486403 -17.678398 -1.000000 -0.000000 -0.000000 -0.000000 -0.000000 1.000000 -8.854167 -2.250000 0 0 0 0 0.000000 0.000000 0.000000 0.000000
-0.457199 9.753603 -20.116798 -1.000000 -0.000000 -0.000000 -0.000000 -0.000000 1.000000 -10.187500 -4.000000 0 0 0 0 0.000000 0.000000 0.000000 0.000000
-0.457199 9.753603 -17.678398 -1.000000 -0.000000 -0.000000 -0.000000 -0.000000 1.000000 -8.854167 -4.000000 0 0 0 0 0.000000 0.000000 0.000000 0.000000
-0.457198 1.219204 -24.384001 -1.000000 -0.000000 -0.000000 -0.000000 -0.000000 1.000000 -12.520833 -0.500000 0 0 0 0 0.000000 0.000000 0.000000 0.000000
-0.457198 0.000004 -21.945601 -1.000000 -0.000000 -0.000000 -0.000000 -0.000000 1.000000 -11.187500 0.000000 0 0 0 0 0.000000 0.000000 0.000000 0.000000
-0.457198 0.000004 -24.384001 -1.000000 -0.000000 -0.000000 -0.000000 -0.000000 1.000000 -12.520833 0.000000 0 0 0 0 0.000000 0.000000 0.000000 0.000000
-0.457198 5.486403 -24.384001 -1.000000 -0.000000 -0.000000 -0.000000 -0.000000 1.000000 -12.520833 -2.250000 0 0 0 0 0.000000 0.000000 0.000000 0.000000
-0.457199 9.753603 -24.383999 -1.000000 -0.000000 -0.000000 -0.000000 -0.000000 1.000000 -12.520833 -4.000000 0 0 0 0 0.000000 0.000000 0.000000 0.000000
-6.248398 1.219202 -17.678400 1.000000 0.000000 0.000000 -0.000000 -0.000000 1.000000 -8.854167 -0.500000 0 0 0 0 0.000000 0.000000 0.000000 0.000000
-6.248398 1.219203 -20.116800 1.000000 0.000000 0.000000 -0.000000 -0.000000 1.000000 -10.187500 -0.500000 0 0 0 0 0.000000 0.000000 0.000000 0.000000
-6.248398 0.000003 -20.116800 1.000000 0.000000 0.000000 -0.000000 -0.000000 1.000000 -10.187500 0.000000 0 0 0 0 0.000000 0.000000 0.000000 0.000000
-6.248398 0.000002 -17.678400 1.000000 0.000000 0.000000 -0.000000 -0.000000 1.000000 -8.854167 0.000000 0 0 0 0 0.000000 0.000000 0.000000 0.000000
-6.248399 5.486403 -17.678398 1.000000 0.000000 0.000000 -0.000000 -0.000000 1.000000 -8.854167 -2.250000 0 0 0 0 0.000000 0.000000 0.000000 0.000000
-6.248399 5.486403 -20.116798 1.000000 0.000000 0.000000 -0.000000 -0.000000 1.000000 -10.187500 -2.250000 0 0 0 0 0.000000 0.000000 0.000000 0.000000
-6.248399 9.753602 -17.678398 1.000000 0.000000 0.000000 -0.000000 -0.000000 1.000000 -8.854167 -4.000000 0 0 0 0 0.000000 0.000000 0.000000 0.000000
-6.248399 9.753602 -20.116798 1.000000 0.000000 0.000000 -0.000000 -0.000000 1.000000 -10.187500 -4.000000 0 0 0 0 0.000000 0.000000 0.000000 0.000000
-6.248398 1.219203 -24.384001 1.000000 0.000000 0.000000 -0.000000 -0.000000 1.000000 -12.520833 -0.500000 0 0 0 0 0.000000 0.000000 0.000000 0.000000
-6.248398 0.000003 -24.384001 1.000000 0.000000 0.000000 -0.000000 -0.000000 1.000000 -12.520833 0.000000 0 0 0 0 0.000000 0.000000 0.000000 0.000000
-6.248398 0.000003 -21.945601 1.000000 0.000000 0.000000 -0.000000 -0.000000 1.000000 -11.187500 0.000000 0 0 0 0 0.000000 0.000000 0.000000 0.000000
-6.248399 5.486403 -24.384001 1.000000 0.000000 0.000000 -0.000000 -0.000000 1.000000 -12.520833 -2.250000 0 0 0 0 0.000000 0.000000 0.000000 0.000000
-6.248399 9.753603 -24.383999 1.000000 0.000000 0.000000 -0.000000 -0.000000 1.000000 -12.520833 -4.000000 0 0 0 0 0.000000 0.000000 0.000000 0.000000
IndexCount: 837
3 1 0
3 2 1
7 5 4
7 6 5
8 12 11
8 11 10
10 9 8
17 14 8
17 8 20
8 23 22
8 22 21
21 20 8
17 20 19
19 18 17
11 14 13
13 16 15
13 15 11
24 28 27
24 27 26
26 25 24
32 30 29
32 31 30
36 34 33
50 36 33
33 51 50
36 35 34
50 52 36
50 55 54
50 54 53
50 53 52
37 34 41
34 35 44
34 44 43
34 43 42
34 42 41
37 41 40
37 40 39
39 38 37
45 42 49
45 49 48
45 48 47
47 46 45
49 63 43
49 43 62
62 61 49
56 51 60
56 60 59
56 59 58
58 57 56
64 69 68
68 65 64
68 67 66
68 66 65
70 65 76
70 76 75
70 75 74
70 74 73
70 73 72
72 71 70
83 78 77
83 82 81
83 81 80
83 80 79
83 79 78
84 88 87
87 85 84
87 86 85
92 90 89
92 91 90
96 94 93
96 95 94
100 98 97
100 99 98
104 102 101
104 103 102
108 106 105
108 107 106
112 110 109
112 111 110
116 114 113
116 115 114
117 121 120
117 120 119
119 118 117
119 120 124
119 124 123
123 122 119
125 131 130
125 130 129
125 129 128
125 128 127
127 126 125
129 130 139
129 139 135
135 138 129
137 136 135
137 135 134
137 134 133
137 133 132
137 132 140
137 140 128
141 145 144
141 144 143
143 142 141
146 145 141
141 147 146
146 148 145
152 150 149
152 151 150
156 154 153
156 155 154
160 158 157
160 159 158
164 162 161
164 163 162
168 166 165
168 167 166
172 170 169
172 171 170
173 177 176
173 176 175
175 174 173
186 178 173
173 174 186
177 183 176
177 184 183
177 185 180
177 180 184
178 181 180
180 179 178
178 182 181
186 182 178
186 187 182
188 192 191
188 191 190
190 189 188
193 197 196
193 196 195
195 194 193
201 199 198
201 200 199
205 203 202
205 204 203
209 207 206
209 208 207
213 211 210
213 212 211
217 215 214
217 216 215
221 219 218
221 220 219
222 228 227
222 227 226
222 226 225
222 225 224
224 223 222
232 230 229
232 231 230
233 238 237
233 237 236
235 234 233
236 235 233
239 238 233
233 242 241
240 239 233
233 241 240
239 243 238
239 245 244
239 244 243
244 291 290
244 290 289
289 287 244
291 301 300
291 300 299
291 299 298
298 290 291
289 288 287
250 247 246
250 249 248
250 248 247
254 252 251
254 253 252
260 252 264
260 264 263
260 263 262
262 261 260
255 259 258
255 258 257
257 256 255
268 266 265
268 267 266
269 274 273
273 270 269
273 272 271
273 271 270
278 276 275
278 277 276
282 280 279
282 281 280
286 284 283
286 285 284
292 297 296
292 296 295
292 295 294
294 293 292
302 307 306
306 303 302
306 305 304
306 304 303
308 313 312
308 312 311
308 311 310
310 309 308
317 315 314
317 316 315
321 319 318
321 320 319
325 323 322
325 324 323
329 327 326
329 328 327
330 334 333
330 333 332
332 331 330
331 335 330
330 343 342
330 342 341
330 341 340
330 340 339
339 334 330
344 343 330
344 330 335
331 336 335
336 338 337
336 337 335
345 335 337
345 344 335
346 350 349
346 349 348
348 347 346
352 350 346
352 346 351
346 347 359
346 359 358
346 358 357
346 357 356
356 355 346
355 351 346
354 352 351
354 351 353
355 360 351
360 353 351
360 361 353
365 363 362
363 366 362
365 362 370
362 366 373
362 373 370
365 364 363
370 371 365
363 367 366
367 368 366
366 368 374
366 374 373
367 369 368
370 372 371
378 376 375
376 379 375
378 377 376
376 377 385
376 385 384
376 380 379
384 383 376
383 380 376
380 381 379
380 382 381
383 386 380
386 382 380
386 387 382
