VertexCount: 188
-0.304801 -4.572002 11.887199 -0.000000 1.000000 0.000000 -0.000000 -0.000000 1.000000 39.031250 -0.250000 0 0 0 0 0.000000 0.000000 0.000000 0.000000
-0.914401 -4.572002 11.887199 -0.000000 1.000000 0.000000 -0.000000 -0.000000 1.000000 39.031250 -0.750000 0 0 0 0 0.000000 0.000000 0.000000 0.000000
-0.914401 -4.572002 11.582398 -0.000000 1.000000 0.000000 -0.000000 -0.000000 1.000000 38.031250 -0.750000 0 0 0 0 0.000000 0.000000 0.000000 0.000000
-0.304801 -4.572002 11.582398 -0.000000 1.000000 0.000000 -0.000000 -0.000000 1.000000 38.031250 -0.250000 0 0 0 0 0.000000 0.000000 0.000000 0.000000
-0.914401 -4.572002 11.887199 -0.000000 1.000000 0.000000 1.000000 0.000000 0.000000 39.031250 -0.750000 0 0 0 0 0.000000 0.000000 0.000000 0.000000
-2.260093 -4.572002 11.887199 -0.000000 1.000000 0.000000 1.000000 0.000000 0.000000 39.031250 -1.853750 0 0 0 0 0.000000 0.000000 0.000000 0.000000
-3.048001 -4.572002 11.887199 -0.000000 1.000000 0.000000 1.000000 0.000000 0.000000 39.031250 -2.500000 0 0 0 0 0.000000 0.000000 0.000000 0.000000
-3.048001 -4.572002 11.582398 -0.000000 1.000000 0.000000 0.000000 -0.000000 1.000000 38.031250 -2.500000 0 0 0 0 0.000000 0.000000 0.000000 0.000000
-3.048001 -4.572002 11.887199 -0.000000 1.000000 0.000000 0.000000 -0.000000 1.000000 39.031250 -2.500000 0 0 0 0 0.000000 0.000000 0.000000 0.000000
-5.181601 -4.572002 11.887199 -0.000000 1.000000 0.000000 0.000000 -0.000000 1.000000 39.031250 -4.250000 0 0 0 0 0.000000 0.000000 0.000000 0.000000
-5.181601 -4.572002 11.582398 -0.000000 1.000000 0.000000 0.000000 -0.000000 1.000000 38.031250 -4.250000 0 0 0 0 0.000000 0.000000 0.000000 0.000000
-1.066798 -4.114797 -20.421600 -0.000000 1.000000 0.000000 -0.000000 -0.000000 1.000000 -34.000000 -0.445312 0 0 0 0 0.000000 0.000000 0.000000 0.000000
-0.152398 -4.114797 -20.421600 -0.000000 1.000000 0.000000 -0.000000 -0.000000 1.000000 -34.000000 -0.070312 0 0 0 0 0.000000 0.000000 0.000000 0.000000
-0.152398 -4.114797 -20.269199 -0.000000 1.000000 0.000000 -0.000000 -0.000000 1.000000 -33.750000 -0.070312 0 0 0 0 0.000000 0.000000 0.000000 0.000000
-0.152398 -4.114797 -19.964399 -0.000000 1.000000 0.000000 -0.000000 -0.000000 1.000000 -33.250000 -0.070312 0 0 0 0 0.000000 0.000000 0.000000 0.000000
-0.152398 -4.114797 -19.812002 -0.000000 1.000000 0.000000 0.000000 -0.000000 1.000000 -33.000000 -0.070312 0 0 0 0 0.000000 0.000000 0.000000 0.000000
-0.457198 -4.114797 -19.812002 -0.000000 1.000000 0.000000 -0.000000 -0.000000 1.000000 -33.000000 -0.195312 0 0 0 0 0.000000 0.000000 0.000000 0.000000
-1.066798 -4.114797 -19.812002 -0.000000 1.000000 0.000000 -0.000000 -0.000000 1.000000 -33.000000 -0.445312 0 0 0 0 0.000000 0.000000 0.000000 0.000000
-1.066798 -4.114796 -22.250401 -0.000000 1.000000 0.000000 -1.000000 -0.000000 -0.000000 -37.000000 -0.445312 0 0 0 0 0.000000 0.000000 0.000000 0.000000
-0.457198 -4.114796 -22.250401 -0.000000 1.000000 0.000000 -1.000000 -0.000000 -0.000000 -37.000000 -0.195312 0 0 0 0 0.000000 0.000000 0.000000 0.000000
-0.152398 -4.114796 -22.250401 -0.000000 1.000000 0.000000 -1.000000 -0.000000 -0.000000 -37.000000 -0.070312 0 0 0 0 0.000000 0.000000 0.000000 0.000000
-0.152398 -4.114796 -22.098000 -0.000000 1.000000 0.000000 0.000000 -0.000000 1.000000 -36.750000 -0.070312 0 0 0 0 0.000000 0.000000 0.000000 0.000000
-0.152398 -4.114796 -21.793200 -0.000000 1.000000 0.000000 0.000000 -0.000000 1.000000 -36.250000 -0.070312 0 0 0 0 0.000000 0.000000 0.000000 0.000000
-0.152398 -4.114796 -21.640800 -0.000000 1.000000 0.000000 -0.000001 -0.000000 1.000000 -36.000000 -0.070312 0 0 0 0 0.000000 0.000000 0.000000 0.000000
-1.066798 -4.114797 -21.640800 -0.000000 1.000000 0.000000 -0.000000 -0.000000 1.000000 -36.000000 -0.445312 0 0 0 0 0.000000 0.000000 0.000000 0.000000
-1.981198 -4.114797 -19.812002 -0.000000 1.000000 0.000000 -0.000000 -0.000000 1.000000 -33.000000 -0.820312 0 0 0 0 0.000000 0.000000 0.000000 0.000000
-1.981198 -4.114797 -19.964399 -0.000000 1.000000 0.000000 0.000000 -0.000000 1.000000 -33.250000 -0.820312 0 0 0 0 0.000000 0.000000 0.000000 0.000000
-1.981198 -4.114797 -20.269199 -0.000000 1.000000 0.000000 -0.000000 -0.000000 1.000000 -33.750000 -0.820312 0 0 0 0 0.000000 0.000000 0.000000 0.000000
-1.981198 -4.114797 -20.421600 -0.000000 1.000000 0.000000 0.000000 -0.000000 1.000000 -34.000000 -0.820312 0 0 0 0 0.000000 0.000000 0.000000 0.000000
-1.066798 -4.114796 -22.250401 -0.000000 1.000000 0.000000 -0.000000 -0.000000 1.000000 -37.000000 -0.445312 0 0 0 0 0.000000 0.000000 0.000000 0.000000
-1.981198 -4.114797 -21.640800 -0.000000 1.000000 0.000000 -0.000000 -0.000000 1.000000 -36.000000 -0.820312 0 0 0 0 0.000000 0.000000 0.000000 0.000000
-1.981198 -4.114797 -21.793200 -0.000000 1.000000 0.000000 0.000000 -0.000000 1.000000 -36.250000 -0.820312 0 0 0 0 0.000000 0.000000 0.000000 0.000000
-1.981198 -4.114797 -22.098000 -0.000000 1.000000 0.000000 -0.000000 -0.000000 1.000000 -36.750000 -0.820312 0 0 0 0 0.000000 0.000000 0.000000 0.000000
-1.981198 -4.114797 -22.250401 -0.000000 1.000000 0.000000 0.000000 -0.000000 1.000000 -37.000000 -0.820312 0 0 0 0 0.000000 0.000000 0.000000 0.000000
-2.285998 -4.114797 -20.421600 -0.000000 1.000000 0.000000 0.000000 -0.000000 1.000000 -34.000000 -0.945312 0 0 0 0 0.000000 0.000000 0.000000 0.000000
-2.285998 -4.114797 -20.269199 -0.000000 1.000000 0.000000 0.000000 -0.000000 1.000000 -33.750000 -0.945312 0 0 0 0 0.000000 0.000000 0.000000 0.000000
-2.285998 -4.114797 -19.964399 -0.000000 1.000000 0.000000 -0.000000 -0.000000 1.000000 -33.250000 -0.945312 0 0 0 0 0.000000 0.000000 0.000000 0.000000
-2.285998 -4.114797 -19.812002 -0.000000 1.000000 0.000000 0.000000 -0.000000 1.000000 -33.000000 -0.945312 0 0 0 0 0.000000 0.000000 0.000000 0.000000
-4.114798 -4.114797 -19.812002 -0.000000 1.000000 0.000000 0.000000 -0.000000 1.000000 -33.000000 -1.695312 0 0 0 0 0.000000 0.000000 0.000000 0.000000
-4.114798 -4.114797 -19.964399 -0.000000 1.000000 0.000000 0.000000 -0.000000 1.000000 -33.250000 -1.695312 0 0 0 0 0.000000 0.000000 0.000000 0.000000
-4.114798 -4.114797 -20.269199 -0.000000 1.000000 0.000000 -0.000000 -0.000000 1.000000 -33.750000 -1.695312 0 0 0 0 0.000000 0.000000 0.000000 0.000000
-4.114798 -4.114797 -20.421600 -0.000000 1.000000 0.000000 0.000000 -0.000000 1.000000 -34.000000 -1.695312 0 0 0 0 0.000000 0.000000 0.000000 0.000000
-2.285998 -4.114797 -21.640800 -0.000000 1.000000 0.000000 0.000000 -0.000000 1.000000 -36.000000 -0.945312 0 0 0 0 0.000000 0.000000 0.000000 0.000000
-2.285998 -4.114797 -21.793200 -0.000000 1.000000 0.000000 -0.000000 -0.000000 1.000000 -36.250000 -0.945312 0 0 0 0 0.000000 0.000000 0.000000 0.000000
-2.285998 -4.114797 -22.098000 -0.000000 1.000000 0.000000 0.000000 -0.000000 1.000000 -36.750000 -0.945312 0 0 0 0 0.000000 0.000000 0.000000 0.000000
-2.285998 -4.114797 -22.250401 -0.000000 1.000000 0.000000 0.000000 -0.000000 1.000000 -37.000000 -0.945312 0 0 0 0 0.000000 0.000000 0.000000 0.000000
-4.114798 -4.114797 -21.640800 -0.000000 1.000000 0.000000 0.000000 -0.000000 1.000000 -36.000000 -1.695312 0 0 0 0 0.000000 0.000000 0.000000 0.000000
-4.114798 -4.114797 -21.793200 -0.000000 1.000000 0.000000 0.000000 -0.000000 1.000000 -36.250000 -1.695312 0 0 0 0 0.000000 0.000000 0.000000 0.000000
-4.114798 -4.114797 -22.098000 -0.000000 1.000000 0.000000 -0.000000 -0.000000 1.000000 -36.750000 -1.695312 0 0 0 0 0.000000 0.000000 0.000000 0.000000
-4.114798 -4.114797 -22.250401 -0.000000 1.000000 0.000000 0.000000 -0.000000 1.000000 -37.000000 -1.695312 0 0 0 0 0.000000 0.000000 0.000000 0.000000
-4.419598 -4.114797 -20.421600 -0.000000 1.000000 0.000000 0.000000 0.000000 -1.000000 -34.000000 -1.820312 0 0 0 0 0.000000 0.000000 0.000000 0.000000
-4.419598 -4.114797 -20.269199 -0.000000 1.000000 0.000000 0.000000 0.000000 -1.000000 -33.750000 -1.820312 0 0 0 0 0.000000 0.000000 0.000000 0.000000
-4.419598 -4.114797 -19.964399 -0.000000 1.000000 0.000000 0.000000 0.000000 -1.000000 -33.250000 -1.820312 0 0 0 0 0.000000 0.000000 0.000000 0.000000
-4.419598 -4.114797 -19.812002 -0.000000 1.000000 0.000000 0.000000 0.000000 -1.000000 -33.000000 -1.820312 0 0 0 0 0.000000 0.000000 0.000000 0.000000
-6.248398 -4.114797 -19.812002 -0.000000 1.000000 0.000000 -0.000000 -0.000000 1.000000 -33.000000 -2.570312 0 0 0 0 0.000000 0.000000 0.000000 0.000000
-6.248398 -4.114797 -19.964399 -0.000000 1.000000 0.000000 0.000000 -0.000000 1.000000 -33.250000 -2.570312 0 0 0 0 0.000000 0.000000 0.000000 0.000000
-6.248398 -4.114797 -20.269199 -0.000000 1.000000 0.000000 0.000000 -0.000000 1.000000 -33.750000 -2.570312 0 0 0 0 0.000000 0.000000 0.000000 0.000000
-6.248398 -4.114797 -20.421600 -0.000000 1.000000 0.000000 0.000000 -0.000000 1.000000 -34.000000 -2.570312 0 0 0 0 0.000000 0.000000 0.000000 0.000000
-4.419598 -4.114797 -19.812002 -0.000000 1.000000 0.000000 0.000000 -0.000000 1.000000 -33.000000 -1.820312 0 0 0 0 0.000000 0.000000 0.000000 0.000000
-4.419598 -4.114797 -19.964399 -0.000000 1.000000 0.000000 0.000000 -0.000000 1.000000 -33.250000 -1.820312 0 0 0 0 0.000000 0.000000 0.000000 0.000000
-4.419598 -4.114797 -20.269199 -0.000000 1.000000 0.000000 0.000000 -0.000000 1.000000 -33.750000 -1.820312 0 0 0 0 0.000000 0.000000 0.000000 0.000000
-4.419598 -4.114797 -20.421600 -0.000000 1.000000 0.000000 0.000000 -0.000000 1.000000 -34.000000 -1.820312 0 0 0 0 0.000000 0.000000 0.000000 0.000000
-4.419598 -4.114797 -21.640800 -0.000000 1.000000 0.000000 0.000000 -0.000000 1.000000 -36.000000 -1.820312 0 0 0 0 0.000000 0.000000 0.000000 0.000000
-4.419598 -4.114797 -21.793200 -0.000000 1.000000 0.000000 0.000000 -0.000000 1.000000 -36.250000 -1.820312 0 0 0 0 0.000000 0.000000 0.000000 0.000000
-4.419598 -4.114797 -22.098000 -0.000000 1.000000 0.000000 0.000000 -0.000000 1.000000 -36.750000 -1.820312 0 0 0 0 0.000000 0.000000 0.000000 0.000000
-4.419598 -4.114797 -22.250401 -0.000000 1.000000 0.000000 0.000000 -0.000000 1.000000 -37.000000 -1.820312 0 0 0 0 0.000000 0.000000 0.000000 0.000000
-4.419598 -4.114797 -22.250401 -0.000000 1.000000 0.000000 0.000000 0.000000 -1.000000 -37.000000 -1.820312 0 0 0 0 0.000000 0.000000 0.000000 0.000000
-4.419598 -4.114797 -22.098000 -0.000000 1.000000 0.000000 0.000000 0.000000 -1.000000 -36.750000 -1.820312 0 0 0 0 0.000000 0.000000 0.000000 0.000000
-4.419598 -4.114797 -21.793200 -0.000000 1.000000 0.000000 0.000000 0.000000 -1.000000 -36.250000 -1.820312 0 0 0 0 0.000000 0.000000 0.000000 0.000000
-4.419598 -4.114797 -21.640800 -0.000000 1.000000 0.000000 -0.000000 -0.000000 1.000000 -36.000000 -1.820312 0 0 0 0 0.000000 0.000000 0.000000 0.000000
-6.248398 -4.114797 -21.640800 -0.000000 1.000000 0.000000 -0.000000 -0.000000 1.000000 -36.000000 -2.570312 0 0 0 0 0.000000 0.000000 0.000000 0.000000
-6.248398 -4.114797 -21.793200 -0.000000 1.000000 0.000000 0.000000 -0.000000 1.000000 -36.250000 -2.570312 0 0 0 0 0.000000 0.000000 0.000000 0.000000
-6.248398 -4.114797 -22.098000 -0.000000 1.000000 0.000000 0.000000 -0.000000 1.000000 -36.750000 -2.570312 0 0 0 0 0.000000 0.000000 0.000000 0.000000
-6.248398 -4.114797 -22.250401 -0.000000 1.000000 0.000000 0.000000 -0.000000 1.000000 -37.000000 -2.570312 0 0 0 0 0.000000 0.000000 0.000000 0.000000
-6.553197 -4.114797 -22.098000 -0.000000 1.000000 0.000000 0.000000 -0.000000 1.000000 -36.750000 -2.695312 0 0 0 0 0.000000 0.000000 0.000000 0.000000
-6.553197 -4.114797 -22.250401 -0.000000 1.000000 0.000000 0.000000 -0.000000 1.000000 -37.000000 -2.695312 0 0 0 0 0.000000 0.000000 0.000000 0.000000
-6.553197 -4.114797 -21.640800 -0.000000 1.000000 0.000000 0.000000 -0.000000 1.000000 -36.000000 -2.695312 0 0 0 0 0.000000 0.000000 0.000000 0.000000
-6.553197 -4.114797 -21.793200 -0.000000 1.000000 0.000000 0.000000 -0.000000 1.000000 -36.250000 -2.695312 0 0 0 0 0.000000 0.000000 0.000000 0.000000
-6.553197 -4.114797 -20.269199 -0.000000 1.000000 0.000000 0.000000 -0.000000 1.000000 -33.750000 -2.695312 0 0 0 0 0.000000 0.000000 0.000000 0.000000
-6.553197 -4.114797 -20.421600 -0.000000 1.000000 0.000000 0.000000 -0.000000 1.000000 -34.000000 -2.695312 0 0 0 0 0.000000 0.000000 0.000000 0.000000
-6.553197 -4.114797 -19.812002 -0.000000 1.000000 0.000000 0.000000 -0.000000 1.000000 -33.000000 -2.695312 0 0 0 0 0.000000 0.000000 0.000000 0.000000
-6.553197 -4.114797 -19.964399 -0.000000 1.000000 0.000000 0.000000 -0.000000 1.000000 -33.250000 -2.695312 0 0 0 0 0.000000 0.000000 0.000000 0.000000
-10.629898 -4.114798 -19.812002 -0.000000 1.000000 0.000000 -1.000000 -0.000000 -0.000000 18.218750 -8.187500 0 0 0 0 0.000000 0.000000 0.000000 0.000000
-10.515599 -4.114798 -19.812002 -0.000000 1.000000 0.000000 -1.000000 -0.000000 -0.000000 18.031250 -8.187500 0 0 0 0 0.000000 0.000000 0.000000 0.000000
-10.515599 -4.114798 -17.983202 -0.000000 1.000000 0.000000 -1.000000 -0.000000 -0.000000 18.031250 -7.437500 0 0 0 0 0.000000 0.000000 0.000000 0.000000
-10.629898 -4.114798 -17.983202 -0.000000 1.000000 0.000000 -1.000000 -0.000000 0.000000 18.218750 -7.437500 0 0 0 0 0.000000 0.000000 0.000000 0.000000
-10.629898 -4.114798 -18.592802 -0.000000 1.000000 0.000000 -0.000000 -0.000000 1.000000 18.218750 -7.687500 0 0 0 0 0.000000 0.000000 0.000000 0.000000
-10.629898 -4.114798 -18.897602 -0.000000 1.000000 0.000000 -0.000000 -0.000000 1.000000 18.218750 -7.812500 0 0 0 0 0.000000 0.000000 0.000000 0.000000
-10.629897 -4.114797 -22.250401 -0.000000 1.000000 0.000000 -1.000000 -0.000000 -0.000000 -37.000000 -4.367188 0 0 0 0 0.000000 0.000000 0.000000 0.000000
-10.515598 -4.114797 -22.250401 -0.000000 1.000000 0.000000 -1.000000 -0.000000 -0.000000 -37.000000 -4.320312 0 0 0 0 0.000000 0.000000 0.000000 0.000000
-8.686797 -4.114797 -22.250401 -0.000000 1.000000 0.000000 -1.000000 -0.000000 -0.000000 -37.000000 -3.570312 0 0 0 0 0.000000 0.000000 0.000000 0.000000
-8.686797 -4.114797 -22.098000 -0.000000 1.000000 0.000000 0.000000 -0.000000 1.000000 -36.750000 -3.570312 0 0 0 0 0.000000 0.000000 0.000000 0.000000
-8.686797 -4.114797 -21.793200 -0.000000 1.000000 0.000000 0.000000 -0.000000 1.000000 -36.250000 -3.570312 0 0 0 0 0.000000 0.000000 0.000000 0.000000
-8.686797 -4.114797 -21.640800 -0.000000 1.000000 0.000000 0.000000 -0.000000 1.000000 -36.000000 -3.570312 0 0 0 0 0.000000 0.000000 0.000000 0.000000
-10.629897 -4.114797 -21.640800 -0.000000 1.000000 0.000000 0.000000 -0.000000 1.000000 -36.000000 -4.367188 0 0 0 0 0.000000 0.000000 0.000000 0.000000
-8.381997 -4.114798 -19.812002 -0.000000 1.000000 0.000000 0.000000 -0.000000 1.000000 -33.000000 -3.445312 0 0 0 0 0.000000 0.000000 0.000000 0.000000
-8.381997 -4.114798 -19.964401 -0.000000 1.000000 0.000000 0.000000 -0.000000 1.000000 -33.250000 -3.445312 0 0 0 0 0.000000 0.000000 0.000000 0.000000
-8.381997 -4.114798 -20.269201 -0.000000 1.000000 0.000000 -0.000000 -0.000000 1.000000 -33.750000 -3.445312 0 0 0 0 0.000000 0.000000 0.000000 0.000000
-8.381997 -4.114797 -20.421602 -0.000000 1.000000 0.000000 -0.000000 -0.000000 1.000000 -34.000000 -3.445312 0 0 0 0 0.000000 0.000000 0.000000 0.000000
-8.686797 -4.114798 -19.812002 -0.000000 1.000000 0.000000 0.000000 -0.000000 1.000000 -33.000000 -3.570312 0 0 0 0 0.000000 0.000000 0.000000 0.000000
-8.686797 -4.114798 -19.964401 -0.000000 1.000000 0.000000 0.000000 -0.000000 1.000000 -33.250000 -3.570312 0 0 0 0 0.000000 0.000000 0.000000 0.000000
-8.686797 -4.114798 -20.269201 -0.000000 1.000000 0.000000 0.000000 -0.000000 1.000000 -33.750000 -3.570312 0 0 0 0 0.000000 0.000000 0.000000 0.000000
-8.686797 -4.114798 -20.421602 -0.000000 1.000000 0.000000 -0.000000 -0.000000 1.000000 -34.000000 -3.570312 0 0 0 0 0.000000 0.000000 0.000000 0.000000
-10.629898 -4.114798 -20.421602 -0.000000 1.000000 0.000000 0.000000 -0.000000 1.000000 -34.000000 -4.367188 0 0 0 0 0.000000 0.000000 0.000000 0.000000
-10.515599 -4.114798 -19.812002 -0.000000 1.000000 0.000000 -0.000001 -0.000000 1.000000 -33.000000 -4.320312 0 0 0 0 0.000000 0.000000 0.000000 0.000000
-10.629898 -4.114798 -19.926302 -0.000000 1.000000 0.000000 0.000000 -0.000000 1.000000 -33.187500 -4.367188 0 0 0 0 0.000000 0.000000 0.000000 0.000000
-8.381997 -4.114797 -21.793200 -0.000000 1.000000 0.000000 0.000000 -0.000000 1.000000 -36.250000 -3.445312 0 0 0 0 0.000000 0.000000 0.000000 0.000000
-8.381997 -4.114797 -21.640800 -0.000000 1.000000 0.000000 0.000000 -0.000000 1.000000 -36.000000 -3.445312 0 0 0 0 0.000000 0.000000 0.000000 0.000000
-8.381997 -4.114797 -22.250401 -0.000000 1.000000 0.000000 0.000000 -0.000000 1.000000 -37.000000 -3.445312 0 0 0 0 0.000000 0.000000 0.000000 0.000000
-8.381997 -4.114797 -22.098000 -0.000000 1.000000 0.000000 0.000000 -0.000000 1.000000 -36.750000 -3.445312 0 0 0 0 0.000000 0.000000 0.000000 0.000000
-8.686797 -4.114797 -22.250401 -0.000000 1.000000 0.000000 0.000000 -0.000000 1.000000 -37.000000 -3.570312 0 0 0 0 0.000000 0.000000 0.000000 0.000000
-6.553197 -4.114797 -22.250401 -0.000000 1.000000 0.000000 -0.000000 0.000000 -1.000000 -37.000000 -2.695312 0 0 0 0 0.000000 0.000000 0.000000 0.000000
-6.553197 -4.114797 -22.098000 -0.000000 1.000000 0.000000 -0.000000 0.000000 -1.000000 -36.750000 -2.695312 0 0 0 0 0.000000 0.000000 0.000000 0.000000
-6.553197 -4.114797 -21.793200 -0.000000 1.000000 0.000000 -0.000000 0.000000 -1.000000 -36.250000 -2.695312 0 0 0 0 0.000000 0.000000 0.000000 0.000000
-6.553197 -4.114797 -21.640800 -0.000000 1.000000 0.000000 0.000000 -0.000000 1.000000 -36.000000 -2.695312 0 0 0 0 0.000000 0.000000 0.000000 0.000000
-10.629898 -4.114798 -19.926302 -0.000000 1.000000 0.000000 -1.000000 -0.000000 -0.000000 18.218750 -8.234375 0 0 0 0 0.000000 0.000000 0.000000 0.000000
-24.231598 -4.572003 7.315197 -0.000000 1.000000 0.000000 -0.000000 0.000000 -1.000000 11.125000 -9.492188 0 0 0 0 0.000000 0.000000 0.000000 0.000000
-24.231598 -4.572003 7.696198 -0.000000 1.000000 0.000000 -0.000000 0.000000 -1.000000 11.750000 -9.492188 0 0 0 0 0.000000 0.000000 0.000000 0.000000
-24.231598 -4.572003 7.772398 -0.000000 1.000000 0.000000 -0.000000 0.000000 -1.000000 11.875000 -9.492188 0 0 0 0 0.000000 0.000000 0.000000 0.000000
-26.822399 -4.572004 7.772397 -0.000000 1.000000 0.000000 0.000000 -0.000000 1.000000 11.875000 -10.554688 0 0 0 0 0.000000 0.000000 0.000000 0.000000
-26.822399 -4.572004 7.315197 -0.000000 1.000000 0.000000 0.000000 -0.000000 1.000000 11.125000 -10.554688 0 0 0 0 0.000000 0.000000 0.000000 0.000000
-27.889198 -4.754884 7.315197 -0.168976 0.985620 0.000029 -0.000005 -0.000030 1.000000 11.125000 -10.992188 0 0 0 0 0.000000 0.000000 0.000000 0.000000
-26.822399 -4.572004 7.315197 -0.168976 0.985620 0.000029 -0.000005 -0.000030 1.000000 11.125000 -10.554688 0 0 0 0 0.000000 0.000000 0.000000 0.000000
-26.822399 -4.572004 7.772397 -0.168976 0.985620 0.000029 0.000005 -0.000029 1.000000 11.875000 -10.554688 0 0 0 0 0.000000 0.000000 0.000000 0.000000
-27.889198 -4.754910 7.772397 -0.168976 0.985620 0.000029 -0.000005 -0.000030 1.000000 11.875000 -10.992188 0 0 0 0 0.000000 0.000000 0.000000 0.000000
-27.889198 -4.754884 7.315197 -0.168961 0.985623 0.000029 -0.000005 -0.000030 1.000000 11.125000 -10.992188 0 0 0 0 0.000000 0.000000 0.000000 0.000000
-27.889198 -4.754910 7.772397 -0.168961 0.985623 0.000029 -0.000005 -0.000030 1.000000 11.875000 -10.992188 0 0 0 0 0.000000 0.000000 0.000000 0.000000
-32.156399 -5.486404 7.772396 -0.168961 0.985623 0.000029 -0.000005 -0.000030 1.000000 11.875000 -12.742188 0 0 0 0 0.000000 0.000000 0.000000 0.000000
-32.156399 -5.486404 7.696196 -0.168961 0.985623 0.000029 0.000005 -0.000029 1.000000 11.750000 -12.742188 0 0 0 0 0.000000 0.000000 0.000000 0.000000
-32.156399 -5.486404 7.315196 -0.168961 0.985623 0.000029 0.000005 -0.000029 1.000000 11.125000 -12.742188 0 0 0 0 0.000000 0.000000 0.000000 0.000000
-24.231598 -4.572003 4.419597 -0.000000 1.000000 0.000000 0.000000 -0.000000 1.000000 7.156250 -9.492188 0 0 0 0 0.000000 0.000000 0.000000 0.000000
-24.231598 -4.572003 4.495797 -0.000000 1.000000 0.000000 0.000000 -0.000000 1.000000 7.281250 -9.492188 0 0 0 0 0.000000 0.000000 0.000000 0.000000
-24.231598 -4.572003 4.876797 -0.000000 1.000000 0.000000 -0.000000 -0.000000 1.000000 7.906250 -9.492188 0 0 0 0 0.000000 0.000000 0.000000 0.000000
-26.822399 -4.572003 4.876797 -0.000000 1.000000 0.000000 0.000000 -0.000000 1.000000 7.906250 -10.554688 0 0 0 0 0.000000 0.000000 0.000000 0.000000
-26.822399 -4.572003 4.419597 -0.000000 1.000000 0.000000 0.000000 -0.000000 1.000000 7.156250 -10.554688 0 0 0 0 0.000000 0.000000 0.000000 0.000000
-27.889198 -4.754883 4.419597 -0.168964 0.985622 0.000000 -0.000000 -0.000000 1.000000 7.156250 -10.992188 0 0 0 0 0.000000 0.000000 0.000000 0.000000
-26.822399 -4.572003 4.419597 -0.168964 0.985622 0.000000 -0.000000 -0.000000 1.000000 7.156250 -10.554688 0 0 0 0 0.000000 0.000000 0.000000 0.000000
-26.822399 -4.572003 4.876797 -0.168964 0.985622 0.000000 0.000000 -0.000000 1.000000 7.906250 -10.554688 0 0 0 0 0.000000 0.000000 0.000000 0.000000
-27.889198 -4.754883 4.876796 -0.168964 0.985622 0.000000 -0.000000 -0.000000 1.000000 7.906250 -10.992188 0 0 0 0 0.000000 0.000000 0.000000 0.000000
-32.156399 -5.486403 4.876796 -0.168964 0.985622 0.000000 -0.000000 -0.000000 1.000000 7.906250 -12.742188 0 0 0 0 0.000000 0.000000 0.000000 0.000000
-32.156399 -5.486403 4.495796 -0.168964 0.985622 0.000000 0.000000 -0.000000 1.000000 7.281250 -12.742188 0 0 0 0 0.000000 0.000000 0.000000 0.000000
-32.156399 -5.486403 4.419596 -0.168964 0.985622 0.000000 0.000000 -0.000000 1.000000 7.156250 -12.742188 0 0 0 0 0.000000 0.000000 0.000000 0.000000
-10.629897 -4.114797 -22.250401 -0.000000 1.000000 0.000000 0.000000 -0.000000 1.000000 -37.000000 -4.367188 0 0 0 0 0.000000 0.000000 0.000000 0.000000
-11.582397 -4.114798 -21.640800 -0.000000 1.000000 0.000000 0.000000 -0.000000 1.000000 -36.000000 -4.757812 0 0 0 0 0.000000 0.000000 0.000000 0.000000
-11.582397 -4.114798 -21.793200 -0.000000 1.000000 0.000000 0.000000 -0.000000 1.000000 -36.250000 -4.757812 0 0 0 0 0.000000 0.000000 0.000000 0.000000
-11.582397 -4.114798 -22.098000 -0.000000 1.000000 0.000000 -0.000000 -0.000000 1.000000 -36.750000 -4.757812 0 0 0 0 0.000000 0.000000 0.000000 0.000000
-11.582397 -4.114797 -22.250401 -0.000000 1.000000 0.000000 -0.000000 -0.000000 1.000000 -37.000000 -4.757812 0 0 0 0 0.000000 0.000000 0.000000 0.000000
-11.277597 -4.114797 -22.250401 -0.000000 1.000000 0.000000 -1.000000 -0.000000 -0.000000 -37.000000 -4.632812 0 0 0 0 0.000000 0.000000 0.000000 0.000000
-10.820397 -4.114797 -22.250401 -0.000000 1.000000 0.000000 -1.000000 -0.000000 -0.000000 -37.000000 -4.445312 0 0 0 0 0.000000 0.000000 0.000000 0.000000
-11.887198 -4.114798 -22.098000 -0.000000 1.000000 0.000000 0.000000 -0.000000 1.000000 -36.750000 -4.882812 0 0 0 0 0.000000 0.000000 0.000000 0.000000
-11.887198 -4.114798 -22.250401 -0.000000 1.000000 0.000000 -0.000000 -0.000000 1.000000 -37.000000 -4.882812 0 0 0 0 0.000000 0.000000 0.000000 0.000000
-11.887198 -4.114798 -21.640800 -0.000000 1.000000 0.000000 0.000000 -0.000000 1.000000 -36.000000 -4.882812 0 0 0 0 0.000000 0.000000 0.000000 0.000000
-11.887198 -4.114798 -21.793200 -0.000000 1.000000 0.000000 0.000000 -0.000000 1.000000 -36.250000 -4.882812 0 0 0 0 0.000000 0.000000 0.000000 0.000000
-11.125198 -4.114798 -20.421602 -0.000000 1.000000 0.000000 0.000000 -0.000000 1.000000 -34.000000 -4.570312 0 0 0 0 0.000000 0.000000 0.000000 0.000000
-11.887198 -4.114798 -22.250401 -0.000000 1.000000 0.000000 1.000000 0.000000 0.000000 -37.000000 -4.882812 0 0 0 0 0.000000 0.000000 0.000000 0.000000
-12.344398 -4.114798 -21.640800 -0.000000 1.000000 0.000000 0.000000 -0.000000 1.000000 -36.000000 -5.070312 0 0 0 0 0.000000 0.000000 0.000000 0.000000
-12.953998 -4.114798 -22.250401 -0.000000 1.000000 0.000000 1.000000 0.000000 0.000000 -37.000000 -5.320312 0 0 0 0 0.000000 0.000000 0.000000 0.000000
-12.649198 -4.114798 -22.250401 -0.000000 1.000000 0.000000 -1.000000 -0.000000 -0.000000 -37.000000 -5.195312 0 0 0 0 0.000000 0.000000 0.000000 0.000000
-12.191998 -4.114798 -22.250401 -0.000000 1.000000 0.000000 1.000000 0.000000 0.000000 -37.000000 -5.007812 0 0 0 0 0.000000 0.000000 0.000000 0.000000
-12.344399 -4.114798 -17.983202 -0.000000 1.000000 0.000000 -1.000000 -0.000000 -0.000000 21.031250 -7.437500 0 0 0 0 0.000000 0.000000 0.000000 0.000000
-12.953999 -4.114798 -17.983202 -0.000000 1.000000 0.000000 -1.000000 -0.000000 -0.000000 22.031250 -7.437500 0 0 0 0 0.000000 0.000000 0.000000 0.000000
-12.953999 -4.114798 -18.592802 -0.000000 1.000000 0.000000 -1.000000 -0.000000 -0.000000 22.031250 -7.687500 0 0 0 0 0.000000 0.000000 0.000000 0.000000
-12.801599 -4.114798 -18.592802 -0.000000 1.000000 0.000000 -1.000000 -0.000000 -0.000000 21.781250 -7.687500 0 0 0 0 0.000000 0.000000 0.000000 0.000000
-12.496799 -4.114798 -18.592802 -0.000000 1.000000 0.000000 -1.000000 -0.000000 -0.000000 21.281250 -7.687500 0 0 0 0 0.000000 0.000000 0.000000 0.000000
-12.344399 -4.114798 -18.592802 -0.000000 1.000000 0.000000 -1.000000 -0.000000 -0.000000 21.031250 -7.687500 0 0 0 0 0.000000 0.000000 0.000000 0.000000
-12.953999 -4.114798 -18.897602 -0.000000 1.000000 0.000000 -1.000000 -0.000000 -0.000000 22.031250 -7.812500 0 0 0 0 0.000000 0.000000 0.000000 0.000000
-12.801599 -4.114798 -18.897602 -0.000000 1.000000 0.000000 -1.000000 -0.000000 -0.000000 21.781250 -7.812500 0 0 0 0 0.000000 0.000000 0.000000 0.000000
-12.496799 -4.114798 -18.897602 -0.000000 1.000000 0.000000 -1.000000 -0.000000 -0.000000 21.281250 -7.812500 0 0 0 0 0.000000 0.000000 0.000000 0.000000
-12.344399 -4.114798 -18.897602 -0.000000 1.000000 0.000000 -1.000000 -0.000000 -0.000000 21.031250 -7.812500 0 0 0 0 0.000000 0.000000 0.000000 0.000000
-12.344399 -4.114798 -18.897602 0.000000 1.000000 0.000000 1.000000 -0.000000 -0.000000 21.031250 -7.812500 0 0 0 0 0.000000 0.000000 0.000000 0.000000
-12.496799 -4.114798 -18.897602 0.000000 1.000000 0.000000 1.000000 -0.000000 -0.000000 21.281250 -7.812500 0 0 0 0 0.000000 0.000000 0.000000 0.000000
-12.801599 -4.114798 -18.897602 0.000000 1.000000 0.000000 1.000000 -0.000000 -0.000000 21.781250 -7.812500 0 0 0 0 0.000000 0.000000 0.000000 0.000000
-12.953999 -4.114798 -18.897602 0.000000 1.000000 0.000000 -1.000000 0.000000 0.000000 22.031250 -7.812500 0 0 0 0 0.000000 0.000000 0.000000 0.000000
-12.953999 -4.114798 -19.812002 0.000000 1.000000 0.000000 -1.000000 0.000000 0.000000 22.031250 -8.187500 0 0 0 0 0.000000 0.000000 0.000000 0.000000
-12.953999 -4.114798 -20.116802 0.000000 1.000000 0.000000 -1.000000 0.000000 -0.000002 22.031250 -8.312500 0 0 0 0 0.000000 0.000000 0.000000 0.000000
-12.953998 -4.114798 -22.250401 0.000000 1.000000 0.000000 -1.000000 0.000000 -0.000003 22.031250 -9.187500 0 0 0 0 0.000000 0.000000 0.000000 0.000000
-12.344398 -4.114798 -21.640800 0.000000 1.000000 0.000000 -1.000000 0.000000 0.000000 21.031250 -8.937500 0 0 0 0 0.000000 0.000000 0.000000 0.000000
-10.629898 -4.114798 -18.897602 -0.000000 1.000000 0.000000 -1.000000 -0.000000 -0.000000 18.218750 -7.812500 0 0 0 0 0.000000 0.000000 0.000000 0.000000
-10.667999 -4.114798 -18.897602 -0.000000 1.000000 0.000000 -1.000000 -0.000000 -0.000000 18.281250 -7.812500 0 0 0 0 0.000000 0.000000 0.000000 0.000000
-10.972799 -4.114798 -18.897602 -0.000000 1.000000 0.000000 -1.000000 -0.000000 -0.000000 18.781250 -7.812500 0 0 0 0 0.000000 0.000000 0.000000 0.000000
-11.125198 -4.114798 -18.897602 -0.000000 1.000000 0.000000 -1.000000 -0.000000 -0.000000 19.031250 -7.812500 0 0 0 0 0.000000 0.000000 0.000000 0.000000
-11.125198 -4.114798 -20.421602 -0.000000 1.000000 0.000000 -1.000000 -0.000000 -0.000000 19.031250 -8.437500 0 0 0 0 0.000000 0.000000 0.000000 0.000000
-10.629898 -4.114798 -19.812002 -0.000000 1.000000 0.000000 0.000000 0.000000 -1.000000 18.218750 -8.187500 0 0 0 0 0.000000 0.000000 0.000000 0.000000
-10.972799 -4.114798 -18.592802 -0.000000 1.000000 0.000000 -1.000000 -0.000000 -0.000000 18.781250 -7.687500 0 0 0 0 0.000000 0.000000 0.000000 0.000000
-11.125198 -4.114798 -18.592802 -0.000000 1.000000 0.000000 -1.000000 -0.000000 0.000000 19.031250 -7.687500 0 0 0 0 0.000000 0.000000 0.000000 0.000000
-10.629898 -4.114798 -18.592802 -0.000000 1.000000 0.000000 -1.000000 -0.000000 -0.000000 18.218750 -7.687500 0 0 0 0 0.000000 0.000000 0.000000 0.000000
-10.667999 -4.114798 -18.592802 -0.000000 1.000000 0.000000 -1.000000 -0.000000 -0.000000 18.281250 -7.687500 0 0 0 0 0.000000 0.000000 0.000000 0.000000
-11.125198 -4.114798 -17.983202 -0.000000 1.000000 0.000000 -1.000000 -0.000000 0.000000 19.031250 -7.437500 0 0 0 0 0.000000 0.000000 0.000000 0.000000
IndexCount: 504
3 1 0
3 2 1
4 2 7
4 7 6
6 5 4
7 10 9
7 9 8
11 17 16
11 16 15
11 15 14
11 14 13
13 12 11
11 28 27
11 27 26
11 26 25
25 17 11
34 27 28
34 35 27
34 41 40
34 40 39
34 39 38
38 35 34
38 36 35
38 37 36
59 58 38
59 38 39
36 37 25
36 25 26
61 60 40
61 40 41
18 24 23
18 23 22
18 22 21
18 21 20
20 19 18
30 24 29
29 31 30
43 42 30
43 30 31
29 33 32
29 32 31
45 32 33
45 44 32
45 49 48
45 48 47
45 47 46
46 44 45
46 43 44
46 42 43
63 62 46
63 46 47
65 64 48
65 48 49
50 57 56
50 56 55
50 55 54
50 54 53
53 51 50
79 56 57
79 78 56
79 98 97
79 97 96
79 96 95
95 78 79
95 81 78
95 80 81
100 99 95
100 95 96
81 80 54
81 54 55
103 99 100
103 100 101
103 104 99
103 105 104
101 102 103
153 105 103
102 101 97
102 97 98
53 52 51
66 73 72
66 72 71
66 71 70
66 70 69
66 69 68
68 67 66
75 72 73
75 74 72
77 76 70
77 70 71
82 87 86
82 86 85
82 85 84
84 83 82
83 115 82
85 185 186
85 186 183
85 183 184
184 187 85
177 186 185
177 178 186
177 182 115
115 178 177
115 179 178
115 180 179
179 180 184
179 184 183
115 181 180
88 94 93
88 93 92
88 92 91
88 91 90
90 89 88
143 94 142
142 144 143
152 151 143
152 143 144
142 148 147
142 147 146
142 146 145
142 145 144
150 145 146
150 149 145
156 152 149
156 149 154
156 151 152
156 155 151
158 157 156
158 156 154
110 91 109
110 109 108
111 108 109
111 109 106
111 106 107
111 107 114
111 114 113
113 112 111
92 107 106
92 93 107
116 120 119
116 119 118
118 117 116
124 122 121
124 123 122
125 129 128
125 128 127
127 126 125
130 134 133
133 131 130
133 132 131
138 136 135
135 141 140
135 140 139
139 138 135
138 137 136
159 164 163
159 163 162
159 162 161
161 160 159
168 163 164
168 167 163
166 165 161
166 161 162
169 176 175
169 175 174
169 174 173
169 173 172
169 172 171
171 170 169
