VertexCount: 17
11.201400 -0.762000 6.934202 0.000000 -1.000000 -0.000000 -1.000000 -0.000000 -0.000000 4.742188 -2.921875 0 0 0 0 0.000000 0.000000 0.000000 0.000000
11.506200 -0.762000 6.934202 0.000000 -1.000000 -0.000000 -1.000000 -0.000000 -0.000000 4.867188 -2.921875 0 0 0 0 0.000000 0.000000 0.000000 0.000000
13.335000 -0.762000 6.934202 0.000000 -1.000000 -0.000000 -1.000000 -0.000000 -0.000000 5.617188 -2.921875 0 0 0 0 0.000000 0.000000 0.000000 0.000000
14.325601 -0.762000 6.934202 0.000000 -1.000000 -0.000000 1.000000 0.000000 0.000000 6.023438 -2.921875 0 0 0 0 0.000000 0.000000 0.000000 0.000000
14.325601 -0.762000 5.105401 0.000000 -1.000000 -0.000000 1.000000 0.000000 -0.000000 6.023438 -2.171875 0 0 0 0 0.000000 0.000000 0.000000 0.000000
13.335000 -0.762000 5.105401 0.000000 -1.000000 -0.000000 1.000000 0.000000 -0.000000 5.617188 -2.171875 0 0 0 0 0.000000 0.000000 0.000000 0.000000
11.506200 -0.762000 5.105401 0.000000 -1.000000 -0.000000 1.000000 0.000000 0.000000 4.867188 -2.171875 0 0 0 0 0.000000 0.000000 0.000000 0.000000
11.201400 -0.762000 5.105401 0.000000 -1.000000 -0.000000 1.000000 0.000000 0.000000 4.742188 -2.171875 0 0 0 0 0.000000 0.000000 0.000000 0.000000
11.201400 -0.762000 6.934202 0.000000 -1.000000 -0.000000 1.000000 0.000000 0.000000 4.742188 -2.921875 0 0 0 0 0.000000 0.000000 0.000000 0.000000
9.372600 -0.762000 5.105401 0.000000 -1.000000 -0.000000 1.000000 0.000000 0.000000 3.992188 -2.171875 0 0 0 0 0.000000 0.000000 0.000000 0.000000
9.067800 -0.762000 5.105401 0.000000 -1.000000 -0.000000 1.000000 0.000000 -0.000000 3.867188 -2.171875 0 0 0 0 0.000000 0.000000 0.000000 0.000000
7.238999 -0.762000 5.105401 0.000000 -1.000000 -0.000000 1.000000 0.000000 0.000000 3.117188 -2.171875 0 0 0 0 0.000000 0.000000 0.000000 0.000000
6.934200 -0.762000 5.105401 0.000000 -1.000000 -0.000000 1.000000 0.000000 0.000000 2.992188 -2.171875 0 0 0 0 0.000000 0.000000 0.000000 0.000000
6.934200 -0.762001 6.934201 0.000000 -1.000000 -0.000000 1.000000 0.000000 -0.000000 2.992188 -2.921875 0 0 0 0 0.000000 0.000000 0.000000 0.000000
7.238999 -0.762001 6.934201 0.000000 -1.000000 -0.000000 -1.000000 -0.000000 0.000000 3.117188 -2.921875 0 0 0 0 0.000000 0.000000 0.000000 0.000000
9.067800 -0.762000 6.934201 0.000000 -1.000000 -0.000000 -1.000000 -0.000000 0.000000 3.867188 -2.921875 0 0 0 0 0.000000 0.000000 0.000000 0.000000
9.372600 -0.762000 6.934201 0.000000 -1.000000 -0.000000 1.000000 0.000000 0.000000 3.992188 -2.921875 0 0 0 0 0.000000 0.000000 0.000000 0.000000
IndexCount: 42
0 7 6
0 6 5
0 5 4
0 4 3
0 3 2
2 1 0
16 9 7
16 7 8
16 10 9
16 11 10
16 12 11
16 15 14
16 14 13
16 13 12
