VertexCount: 4
4.171950 -3.676650 0.895349 -0.707107 -0.000000 0.707106 0.707106 0.000000 0.707107 2.797619 11.071429 0 0 0 0 0.000000 0.000000 0.000000 0.000000
4.171950 -3.943350 0.895349 -0.707107 -0.000000 0.707106 0.707106 0.000000 0.707107 2.797619 11.904762 0 0 0 0 0.000000 0.000000 0.000000 0.000000
3.981450 -3.943350 0.704849 -0.707107 -0.000000 0.707106 0.707106 0.000000 0.707107 2.202381 11.904762 0 0 0 0 0.000000 0.000000 0.000000 0.000000
3.981450 -3.676650 0.704849 -0.707107 -0.000000 0.707106 0.707106 0.000000 0.707107 2.202381 11.071429 0 0 0 0 0.000000 0.000000 0.000000 0.000000
IndexCount: 6
3 2 1
3 1 0