VertexCount: 147
-10.629900 1.371599 -1.371601 -0.000000 -0.000000 1.000000 1.000000 0.000000 0.000000 -8.515625 -1.000000 0 0 0 0 0.000000 0.000000 0.000000 0.000000
-8.839200 1.371599 -1.371601 -0.000000 -0.000000 1.000000 1.000000 0.000000 0.000000 -7.046875 -1.000000 0 0 0 0 0.000000 0.000000 0.000000 0.000000
-8.839200 0.457199 -1.371601 -0.000000 -0.000000 1.000000 1.000000 0.000000 0.000000 -7.046875 0.000000 0 0 0 0 0.000000 0.000000 0.000000 0.000000
-10.629900 0.457199 -1.371601 -0.000000 -0.000000 1.000000 1.000000 0.000000 0.000000 -8.515625 0.000000 0 0 0 0 0.000000 0.000000 0.000000 0.000000
-10.629900 1.371599 -2.286001 0.000000 0.000000 -1.000000 1.000000 0.000000 0.000000 -8.515625 -1.000000 0 0 0 0 0.000000 0.000000 0.000000 0.000000
-10.629900 0.457199 -2.286001 0.000000 0.000000 -1.000000 1.000000 0.000000 0.000000 -8.515625 0.000000 0 0 0 0 0.000000 0.000000 0.000000 0.000000
-8.839200 0.457200 -2.286001 0.000000 0.000000 -1.000000 1.000000 0.000000 0.000000 -7.046875 0.000000 0 0 0 0 0.000000 0.000000 0.000000 0.000000
-8.839200 1.371600 -2.286001 0.000000 0.000000 -1.000000 1.000000 0.000000 0.000000 -7.046875 -1.000000 0 0 0 0 0.000000 0.000000 0.000000 0.000000
-8.839200 0.457200 -2.286001 0.000000 -1.000000 -0.000000 1.000000 0.000000 0.000000 -7.046875 3.000000 0 0 0 0 0.000000 0.000000 0.000000 0.000000
-10.629900 0.457199 -2.286001 0.000000 -1.000000 -0.000000 1.000000 0.000000 0.000000 -8.515625 3.000000 0 0 0 0 0.000000 0.000000 0.000000 0.000000
-10.629900 0.457199 -1.371601 0.000000 -1.000000 -0.000000 1.000000 0.000000 0.000000 -8.515625 2.000000 0 0 0 0 0.000000 0.000000 0.000000 0.000000
-8.839200 0.457199 -1.371601 0.000000 -1.000000 -0.000000 1.000000 0.000000 0.000000 -7.046875 2.000000 0 0 0 0 0.000000 0.000000 0.000000 0.000000
-10.629898 1.371600 -7.010401 -0.000000 -0.000000 1.000000 1.000000 0.000000 0.000000 -8.515625 -1.000000 0 0 0 0 0.000000 0.000000 0.000000 0.000000
-8.839199 1.371600 -7.010401 -0.000000 -0.000000 1.000000 1.000000 0.000000 0.000000 -7.046875 -1.000000 0 0 0 0 0.000000 0.000000 0.000000 0.000000
-8.839199 0.457200 -7.010401 -0.000000 -0.000000 1.000000 1.000000 0.000000 0.000000 -7.046875 0.000000 0 0 0 0 0.000000 0.000000 0.000000 0.000000
-10.629898 0.457200 -7.010401 -0.000000 -0.000000 1.000000 1.000000 0.000000 0.000000 -8.515625 0.000000 0 0 0 0 0.000000 0.000000 0.000000 0.000000
-8.839199 0.457200 -7.924800 0.000000 -1.000000 -0.000000 1.000000 0.000000 0.000000 -7.046875 9.000000 0 0 0 0 0.000000 0.000000 0.000000 0.000000
-10.629898 0.457200 -7.924801 0.000000 -1.000000 -0.000000 1.000000 0.000000 0.000000 -8.515625 9.000000 0 0 0 0 0.000000 0.000000 0.000000 0.000000
-10.629898 0.457200 -7.010401 0.000000 -1.000000 -0.000000 1.000000 0.000000 0.000000 -8.515625 8.000000 0 0 0 0 0.000000 0.000000 0.000000 0.000000
-8.839199 0.457200 -7.010401 0.000000 -1.000000 -0.000000 1.000000 0.000000 0.000000 -7.046875 8.000000 0 0 0 0 0.000000 0.000000 0.000000 0.000000
-10.629898 1.371600 -7.924801 0.000000 0.000000 -1.000000 1.000000 0.000000 0.000000 -8.515625 -1.000000 0 0 0 0 0.000000 0.000000 0.000000 0.000000
-10.629898 0.457200 -7.924801 0.000000 0.000000 -1.000000 1.000000 0.000000 0.000000 -8.515625 0.000000 0 0 0 0 0.000000 0.000000 0.000000 0.000000
-8.839199 0.457200 -7.924800 0.000000 0.000000 -1.000000 1.000000 0.000000 0.000000 -7.046875 0.000000 0 0 0 0 0.000000 0.000000 0.000000 0.000000
-8.839199 1.371601 -7.924800 0.000000 0.000000 -1.000000 1.000000 0.000000 0.000000 -7.046875 -1.000000 0 0 0 0 0.000000 0.000000 0.000000 0.000000
-10.629898 1.371601 -12.192001 -0.000000 -0.000000 1.000000 1.000000 0.000000 0.000000 -8.484375 -1.000000 0 0 0 0 0.000000 0.000000 0.000000 0.000000
-9.143999 1.371601 -12.192001 -0.000000 -0.000000 1.000000 1.000000 0.000000 0.000000 -7.265625 -1.000000 0 0 0 0 0.000000 0.000000 0.000000 0.000000
-9.143999 0.457201 -12.192001 -0.000000 -0.000000 1.000000 1.000000 0.000000 0.000000 -7.265625 0.000000 0 0 0 0 0.000000 0.000000 0.000000 0.000000
-10.629898 0.457201 -12.192001 -0.000000 -0.000000 1.000000 1.000000 0.000000 0.000000 -8.484375 0.000000 0 0 0 0 0.000000 0.000000 0.000000 0.000000
-10.629898 1.066801 -12.192001 -0.000000 -0.000000 1.000000 0.000000 -1.000000 -0.000000 -8.484375 -0.666667 0 0 0 0 0.000000 0.000000 0.000000 0.000000
-10.058399 0.457201 -13.106401 0.000000 -1.000000 -0.000000 1.000000 0.000000 0.000000 -8.015625 14.000000 0 0 0 0 0.000000 0.000000 0.000000 0.000000
-10.629898 0.457201 -13.106401 0.000000 -1.000000 -0.000000 1.000000 0.000000 0.000000 -8.484375 14.000000 0 0 0 0 0.000000 0.000000 0.000000 0.000000
-10.629898 0.457201 -12.192001 0.000000 -1.000000 -0.000000 1.000000 0.000000 0.000000 -8.484375 13.000000 0 0 0 0 0.000000 0.000000 0.000000 0.000000
-9.143999 0.457201 -12.192001 0.000000 -1.000000 -0.000000 1.000000 0.000000 0.000000 -7.265625 13.000000 0 0 0 0 0.000000 0.000000 0.000000 0.000000
-9.143999 0.457201 -12.192001 0.000000 -1.000000 -0.000000 0.000000 -0.000000 1.000000 -9.812500 -10.000000 0 0 0 0 0.000000 0.000000 0.000000 0.000000
-9.143999 0.457201 -14.097000 0.000000 -1.000000 -0.000000 -0.000000 -0.000000 1.000000 -11.375000 -10.000000 0 0 0 0 0.000000 0.000000 0.000000 0.000000
-10.058399 0.457201 -14.097000 0.000000 -1.000000 -0.000000 -0.000000 -0.000000 1.000000 -11.375000 -11.000000 0 0 0 0 0.000000 0.000000 0.000000 0.000000
-10.058399 0.457201 -13.106401 0.000000 -1.000000 -0.000000 0.000000 -0.000000 1.000000 -10.562500 -11.000000 0 0 0 0 0.000000 0.000000 0.000000 0.000000
-10.058399 1.371601 -14.097000 -1.000000 -0.000000 -0.000000 -0.000000 -0.000000 1.000000 -11.375000 -1.083333 0 0 0 0 0.000000 0.000000 0.000000 0.000000
-10.058399 1.371601 -13.106401 -1.000000 -0.000000 -0.000000 -0.000000 -0.000000 1.000000 -10.562500 -1.083333 0 0 0 0 0.000000 0.000000 0.000000 0.000000
-10.058399 0.457201 -13.106401 -1.000000 -0.000000 -0.000000 -0.000000 -0.000000 1.000000 -10.562500 -0.083333 0 0 0 0 0.000000 0.000000 0.000000 0.000000
-10.058399 0.457201 -14.097000 -1.000000 -0.000000 -0.000000 -0.000000 -0.000000 1.000000 -11.375000 -0.083333 0 0 0 0 0.000000 0.000000 0.000000 0.000000
-9.143999 1.371602 -14.097000 1.000000 0.000000 0.000000 -0.000000 -0.000000 1.000000 -11.375000 -1.083333 0 0 0 0 0.000000 0.000000 0.000000 0.000000
-9.143999 0.457201 -14.097000 1.000000 0.000000 0.000000 -0.000000 -0.000000 1.000000 -11.375000 -0.083333 0 0 0 0 0.000000 0.000000 0.000000 0.000000
-9.143999 0.457201 -12.192001 1.000000 0.000000 0.000000 -0.000000 -0.000000 1.000000 -9.812500 -0.083333 0 0 0 0 0.000000 0.000000 0.000000 0.000000
-9.143999 1.371601 -12.192001 1.000000 0.000000 0.000000 -0.000000 -0.000000 1.000000 -9.812500 -1.083333 0 0 0 0 0.000000 0.000000 0.000000 0.000000
-10.629898 1.371601 -13.106401 0.000000 0.000000 -1.000000 1.000000 0.000000 0.000000 -8.484375 -1.000000 0 0 0 0 0.000000 0.000000 0.000000 0.000000
-10.629898 0.457201 -13.106401 0.000000 0.000000 -1.000000 1.000000 0.000000 0.000000 -8.484375 0.000000 0 0 0 0 0.000000 0.000000 0.000000 0.000000
-10.058399 0.457201 -13.106401 0.000000 0.000000 -1.000000 1.000000 -0.000000 0.000000 -8.015625 0.000000 0 0 0 0 0.000000 0.000000 0.000000 0.000000
-10.058399 1.371601 -13.106401 0.000000 0.000000 -1.000000 1.000000 -0.000000 0.000000 -8.015625 -1.000000 0 0 0 0 0.000000 0.000000 0.000000 0.000000
-10.058398 1.371602 -17.640301 0.000000 0.000000 -1.000000 1.000000 0.000000 0.000000 -8.000000 -1.083333 0 0 0 0 0.000000 0.000000 0.000000 0.000000
-10.058398 0.457202 -17.640301 0.000000 0.000000 -1.000000 1.000000 0.000000 0.000000 -8.000000 -0.083333 0 0 0 0 0.000000 0.000000 0.000000 0.000000
-9.143998 0.457202 -17.640301 0.000000 0.000000 -1.000000 1.000000 -0.000000 0.000000 -7.250000 -0.083333 0 0 0 0 0.000000 0.000000 0.000000 0.000000
-9.143998 1.371602 -17.640301 0.000000 0.000000 -1.000000 1.000000 0.000000 0.000000 -7.250000 -1.083333 0 0 0 0 0.000000 0.000000 0.000000 0.000000
-9.143998 0.457202 -17.640301 0.000000 -1.000000 -0.000000 -0.000000 -0.000000 1.000000 -14.281250 -10.000000 0 0 0 0 0.000000 0.000000 0.000000 0.000000
-10.058398 0.457202 -17.640301 0.000000 -1.000000 -0.000000 -0.000000 -0.000000 1.000000 -14.281250 -11.000000 0 0 0 0 0.000000 0.000000 0.000000 0.000000
-9.143998 1.371602 -17.640301 1.000000 0.000000 0.000000 -0.000000 -0.000000 1.000000 -14.281250 -1.083333 0 0 0 0 0.000000 0.000000 0.000000 0.000000
-9.143998 0.457202 -17.640301 1.000000 0.000000 0.000000 -0.000000 -0.000000 1.000000 -14.281250 -0.083333 0 0 0 0 0.000000 0.000000 0.000000 0.000000
-10.058398 0.457202 -17.640301 -1.000000 -0.000000 -0.000000 -0.000000 -0.000000 1.000000 -14.281250 -0.083333 0 0 0 0 0.000000 0.000000 0.000000 0.000000
-10.058398 1.371602 -17.640301 -1.000000 -0.000000 -0.000000 -0.000000 -0.000000 1.000000 -14.281250 -1.083333 0 0 0 0 0.000000 0.000000 0.000000 0.000000
-11.429999 1.371599 -2.286001 0.000000 0.000000 -1.000000 1.000000 0.000000 0.000000 -9.171875 -1.000000 0 0 0 0 0.000000 0.000000 0.000000 0.000000
-11.429999 0.457199 -2.286001 0.000000 0.000000 -1.000000 1.000000 0.000000 0.000000 -9.171875 0.000000 0 0 0 0 0.000000 0.000000 0.000000 0.000000
-12.344400 1.371599 -2.286001 0.000000 0.000000 -1.000000 1.000000 0.000000 0.000000 -9.921875 -1.000000 0 0 0 0 0.000000 0.000000 0.000000 0.000000
-14.630399 1.371599 -2.286001 0.000000 0.000000 -1.000000 1.000000 0.000000 0.000000 -11.796875 -1.000000 0 0 0 0 0.000000 0.000000 0.000000 0.000000
-14.630399 0.457199 -2.286001 0.000000 0.000000 -1.000000 1.000000 0.000000 0.000000 -11.796875 0.000000 0 0 0 0 0.000000 0.000000 0.000000 0.000000
-12.344400 0.457199 -2.286001 0.000000 0.000000 -1.000000 1.000000 0.000000 0.000000 -9.921875 0.000000 0 0 0 0 0.000000 0.000000 0.000000 0.000000
-10.629900 0.457199 -2.286001 0.000000 -1.000000 -0.000000 1.000000 0.000000 0.000000 -8.515625 3.000000 0 0 0 0 0.000000 0.000000 0.000000 0.000000
-11.429999 0.457199 -2.286001 0.000000 -1.000000 -0.000000 1.000000 0.000000 0.000000 -9.171875 3.000000 0 0 0 0 0.000000 0.000000 0.000000 0.000000
-12.344400 0.457199 -2.286001 0.000000 -1.000000 -0.000000 1.000000 0.000000 0.000000 -9.921875 3.000000 0 0 0 0 0.000000 0.000000 0.000000 0.000000
-14.630399 0.457199 -2.286001 0.000000 -1.000000 -0.000000 -1.000000 -0.000000 -0.000000 -11.796875 3.000000 0 0 0 0 0.000000 0.000000 0.000000 0.000000
-14.630399 0.457199 -1.371601 0.000000 -1.000000 -0.000000 1.000000 0.000000 0.000000 -11.796875 2.000000 0 0 0 0 0.000000 0.000000 0.000000 0.000000
-14.630399 0.457199 -1.371601 -0.000000 -0.000000 1.000000 1.000000 0.000000 0.000000 -11.796875 0.000000 0 0 0 0 0.000000 0.000000 0.000000 0.000000
-14.630399 1.371599 -1.371601 -0.000000 -0.000000 1.000000 1.000000 0.000000 0.000000 -11.796875 -1.000000 0 0 0 0 0.000000 0.000000 0.000000 0.000000
-12.344400 1.371600 -3.543301 -1.000000 -0.000000 -0.000000 -0.000000 -0.000000 1.000000 -2.828125 -1.000000 0 0 0 0 0.000000 0.000000 0.000000 0.000000
-12.344400 1.371599 -2.286001 -1.000000 -0.000000 -0.000000 -0.000000 -0.000000 1.000000 -1.796875 -1.000000 0 0 0 0 0.000000 0.000000 0.000000 0.000000
-12.344400 0.457199 -2.286001 -1.000000 -0.000000 -0.000000 -0.000000 -0.000000 1.000000 -1.796875 0.000000 0 0 0 0 0.000000 0.000000 0.000000 0.000000
-12.344400 0.457199 -3.543301 -1.000000 -0.000000 -0.000000 -0.000000 -0.000000 1.000000 -2.828125 0.000000 0 0 0 0 0.000000 0.000000 0.000000 0.000000
-11.429999 0.457199 -2.286001 0.000000 -1.000000 -0.000000 0.000000 -0.000000 1.000000 -1.812500 -12.000000 0 0 0 0 0.000000 0.000000 0.000000 0.000000
-11.429999 0.457200 -3.543301 0.000000 -1.000000 -0.000000 -0.000000 -0.000000 1.000000 -2.843750 -12.000000 0 0 0 0 0.000000 0.000000 0.000000 0.000000
-12.344400 0.457199 -3.543301 0.000000 -1.000000 -0.000000 -0.000000 -0.000000 1.000000 -2.843750 -13.000000 0 0 0 0 0.000000 0.000000 0.000000 0.000000
-12.344400 0.457199 -2.286001 0.000000 -1.000000 -0.000000 0.000000 -0.000000 1.000000 -1.812500 -13.000000 0 0 0 0 0.000000 0.000000 0.000000 0.000000
-11.429999 1.371600 -3.543301 1.000000 0.000000 0.000000 -0.000000 -0.000000 1.000000 -2.828125 -1.000000 0 0 0 0 0.000000 0.000000 0.000000 0.000000
-11.429999 0.457200 -3.543301 1.000000 0.000000 0.000000 -0.000000 -0.000000 1.000000 -2.828125 0.000000 0 0 0 0 0.000000 0.000000 0.000000 0.000000
-11.429999 0.457199 -2.286001 1.000000 0.000000 0.000000 -0.000000 -0.000000 1.000000 -1.796875 0.000000 0 0 0 0 0.000000 0.000000 0.000000 0.000000
-11.429999 1.371599 -2.286001 1.000000 0.000000 0.000000 -0.000000 -0.000000 1.000000 -1.796875 -1.000000 0 0 0 0 0.000000 0.000000 0.000000 0.000000
-14.325599 1.371601 -13.106401 0.000000 0.000000 -1.000000 1.000000 0.000000 0.000000 -11.515625 -1.000000 0 0 0 0 0.000000 0.000000 0.000000 0.000000
-14.325599 0.457201 -13.106401 0.000000 0.000000 -1.000000 1.000000 0.000000 0.000000 -11.515625 0.000000 0 0 0 0 0.000000 0.000000 0.000000 0.000000
-12.344399 1.371600 -7.010401 -0.000000 -0.000000 1.000000 1.000000 0.000000 0.000000 -9.921875 -1.000000 0 0 0 0 0.000000 0.000000 0.000000 0.000000
-12.344399 0.457200 -7.010401 -0.000000 -0.000000 1.000000 1.000000 0.000000 0.000000 -9.921875 0.000000 0 0 0 0 0.000000 0.000000 0.000000 0.000000
-14.325599 0.457200 -7.010401 -0.000000 -0.000000 1.000000 1.000000 0.000000 0.000000 -11.546875 0.000000 0 0 0 0 0.000000 0.000000 0.000000 0.000000
-14.325599 1.371600 -7.010401 -0.000000 -0.000000 1.000000 1.000000 0.000000 0.000000 -11.546875 -1.000000 0 0 0 0 0.000000 0.000000 0.000000 0.000000
-13.411199 1.371600 -7.010401 -0.000000 -0.000000 1.000000 -1.000000 -0.000000 -0.000000 -10.796875 -1.000000 0 0 0 0 0.000000 0.000000 0.000000 0.000000
-11.429998 1.371600 -7.010401 -0.000000 -0.000000 1.000000 1.000000 -0.000000 0.000000 -9.171875 -1.000000 0 0 0 0 0.000000 0.000000 0.000000 0.000000
-11.429998 0.457200 -7.010401 -0.000000 -0.000000 1.000000 1.000000 -0.000000 0.000000 -9.171875 0.000000 0 0 0 0 0.000000 0.000000 0.000000 0.000000
-11.429998 1.371600 -7.010401 1.000000 0.000000 0.000000 -0.000000 -0.000000 1.000000 -5.671875 -1.000000 0 0 0 0 0.000000 0.000000 0.000000 0.000000
-11.429998 0.457200 -7.010401 1.000000 0.000000 0.000000 -0.000000 -0.000000 1.000000 -5.671875 0.000000 0 0 0 0 0.000000 0.000000 0.000000 0.000000
-11.429998 0.457200 -7.010401 0.000000 -1.000000 -0.000000 -0.000000 -0.000000 1.000000 -5.687500 -12.000000 0 0 0 0 0.000000 0.000000 0.000000 0.000000
-12.344399 0.457200 -7.010401 0.000000 -1.000000 -0.000000 -0.000000 -0.000000 1.000000 -5.687500 -13.000000 0 0 0 0 0.000000 0.000000 0.000000 0.000000
-12.344399 0.457200 -7.010401 -1.000000 -0.000000 -0.000000 -0.000000 -0.000000 1.000000 -5.671875 0.000000 0 0 0 0 0.000000 0.000000 0.000000 0.000000
-12.344399 1.371600 -7.010401 -1.000000 -0.000000 -0.000000 -0.000000 -0.000000 1.000000 -5.671875 -1.000000 0 0 0 0 0.000000 0.000000 0.000000 0.000000
-14.325599 1.371600 -8.839201 -1.000000 -0.000000 -0.000000 -0.000000 -0.000000 1.000000 -7.015625 -1.083333 0 0 0 0 0.000000 0.000000 0.000000 0.000000
-14.325599 1.371600 -7.010401 -1.000000 -0.000000 -0.000000 -0.000000 -0.000000 1.000000 -5.515625 -1.083333 0 0 0 0 0.000000 0.000000 0.000000 0.000000
-14.325599 0.457200 -7.010401 -1.000000 -0.000000 -0.000000 -0.000000 -0.000000 1.000000 -5.515625 -0.083333 0 0 0 0 0.000000 0.000000 0.000000 0.000000
-14.325599 0.457200 -7.924801 -1.000000 -0.000000 -0.000000 -0.000000 -0.000000 1.000000 -6.265625 -0.083333 0 0 0 0 0.000000 0.000000 0.000000 0.000000
-14.325599 0.457200 -8.839201 -1.000000 -0.000000 -0.000000 -0.000000 -0.000000 1.000000 -7.015625 -0.083333 0 0 0 0 0.000000 0.000000 0.000000 0.000000
-14.325599 0.457201 -12.192001 -1.000000 -0.000000 -0.000000 -0.000000 -0.000000 1.000000 -9.765625 -0.083333 0 0 0 0 0.000000 0.000000 0.000000 0.000000
-14.325599 0.457201 -13.106401 -1.000000 -0.000000 -0.000000 -0.000000 -0.000000 1.000000 -10.515625 -0.083333 0 0 0 0 0.000000 0.000000 0.000000 0.000000
-14.325599 1.371601 -13.106401 -1.000000 -0.000000 -0.000000 -0.000000 -0.000000 1.000000 -10.515625 -1.083333 0 0 0 0 0.000000 0.000000 0.000000 0.000000
-14.325599 1.371601 -11.190541 -1.000000 -0.000000 -0.000000 0.000000 0.000000 -1.000000 -8.944219 -1.083333 0 0 0 0 0.000000 0.000000 0.000000 0.000000
-12.801599 0.685801 -12.192001 -0.000000 -0.000000 1.000000 1.000000 -0.000000 0.000000 -10.265625 -0.250000 0 0 0 0 0.000000 0.000000 0.000000 0.000000
-12.801599 0.457201 -12.192001 -0.000000 -0.000000 1.000000 1.000000 0.000000 0.000000 -10.265625 0.000000 0 0 0 0 0.000000 0.000000 0.000000 0.000000
-13.411199 0.457201 -12.192001 -0.000000 -0.000000 1.000000 1.000000 0.000000 0.000000 -10.765625 0.000000 0 0 0 0 0.000000 0.000000 0.000000 0.000000
-13.411199 0.685801 -12.192001 -0.000000 -0.000000 1.000000 1.000000 -0.000000 0.000000 -10.765625 -0.250000 0 0 0 0 0.000000 0.000000 0.000000 0.000000
-12.801599 1.066801 -12.192001 -0.000000 -0.000000 1.000000 1.000000 0.000000 0.000000 -10.265625 -0.666667 0 0 0 0 0.000000 0.000000 0.000000 0.000000
-10.629898 1.066801 -12.192001 -0.000000 -0.000000 1.000000 1.000000 0.000000 0.000000 -8.484375 -0.666667 0 0 0 0 0.000000 0.000000 0.000000 0.000000
-12.801599 0.685801 -12.192001 -0.000000 -0.000000 1.000000 0.000000 -1.000000 -0.000000 -10.265625 -0.250000 0 0 0 0 0.000000 0.000000 0.000000 0.000000
-13.411199 1.066801 -12.192001 -0.000000 0.000001 1.000000 1.000000 0.000000 0.000000 -10.765625 -0.666667 0 0 0 0 0.000000 0.000000 0.000000 0.000000
-13.411199 1.371601 -12.192001 -0.000000 0.000001 1.000000 1.000000 0.000000 0.000000 -10.765625 -1.000000 0 0 0 0 0.000000 0.000000 0.000000 0.000000
-13.411199 1.371600 -7.924801 0.000000 0.000000 -1.000000 1.000000 0.000000 0.000000 -10.796875 -1.000000 0 0 0 0 0.000000 0.000000 0.000000 0.000000
-13.411199 1.066800 -7.924801 0.000000 0.000000 -1.000000 1.000000 0.000000 0.000000 -10.796875 -0.666667 0 0 0 0 0.000000 0.000000 0.000000 0.000000
-13.411199 0.685800 -7.924801 0.000000 0.000000 -1.000000 1.000000 0.000000 0.000000 -10.796875 -0.250000 0 0 0 0 0.000000 0.000000 0.000000 0.000000
-13.411199 0.457200 -7.924801 0.000000 0.000000 -1.000000 1.000000 -0.000000 0.000000 -10.796875 0.000000 0 0 0 0 0.000000 0.000000 0.000000 0.000000
-13.411199 0.457200 -7.924801 0.000000 -1.000000 -0.000000 1.000000 0.000000 0.000000 -10.796875 9.000000 0 0 0 0 0.000000 0.000000 0.000000 0.000000
-14.325599 0.457200 -7.010401 0.000000 -1.000000 -0.000000 1.000000 0.000000 0.000000 -11.546875 8.000000 0 0 0 0 0.000000 0.000000 0.000000 0.000000
-12.344399 0.457200 -7.010401 0.000000 -1.000000 -0.000000 1.000000 0.000000 -0.000000 -9.921875 8.000000 0 0 0 0 0.000000 0.000000 0.000000 0.000000
-11.429998 0.457200 -7.010401 0.000000 -1.000000 -0.000000 1.000000 0.000000 0.000000 -9.171875 8.000000 0 0 0 0 0.000000 0.000000 0.000000 0.000000
-13.411199 0.457200 -7.924801 0.000000 -1.000000 -0.000000 -0.000000 -0.000000 1.000000 -6.265625 -14.000000 0 0 0 0 0.000000 0.000000 0.000000 0.000000
-14.325599 0.457200 -7.924801 0.000000 -1.000000 -0.000000 -0.000000 -0.000000 1.000000 -6.265625 -15.000000 0 0 0 0 0.000000 0.000000 0.000000 0.000000
-14.325599 0.457200 -7.010401 0.000000 -1.000000 -0.000000 -0.000000 -0.000000 1.000000 -5.515625 -15.000000 0 0 0 0 0.000000 0.000000 0.000000 0.000000
-13.411199 1.371601 -12.192001 1.000000 0.000000 0.000000 -0.000000 -0.000000 1.000000 -9.765625 -1.083333 0 0 0 0 0.000000 0.000000 0.000000 0.000000
-13.411199 1.066801 -12.192001 1.000000 0.000000 0.000000 -0.000000 -0.000000 1.000000 -9.765625 -0.750000 0 0 0 0 0.000000 0.000000 0.000000 0.000000
-13.411199 1.066801 -11.887202 1.000000 0.000000 0.000000 -0.000000 -0.000000 1.000000 -9.515625 -0.750000 0 0 0 0 0.000000 0.000000 0.000000 0.000000
-13.411199 1.066800 -7.924801 1.000000 0.000000 0.000000 -0.000000 -0.000000 1.000000 -6.265625 -0.750000 0 0 0 0 0.000000 0.000000 0.000000 0.000000
-13.411199 1.371600 -7.924801 1.000000 0.000000 0.000000 -0.000000 -0.000000 1.000000 -6.265625 -1.083333 0 0 0 0 0.000000 0.000000 0.000000 0.000000
-13.411199 0.838201 -11.887202 1.000000 0.000000 0.000000 -0.000000 -0.000000 1.000000 -9.515625 -0.500000 0 0 0 0 0.000000 0.000000 0.000000 0.000000
-13.411199 0.800101 -11.887202 1.000000 0.000000 0.000000 -0.000000 -0.000000 1.000000 -9.515625 -0.458333 0 0 0 0 0.000000 0.000000 0.000000 0.000000
-13.411199 0.685801 -11.887202 1.000000 0.000000 0.000000 -0.000000 -0.000000 1.000000 -9.515625 -0.333333 0 0 0 0 0.000000 0.000000 0.000000 0.000000
-13.411199 0.685800 -7.924801 1.000000 0.000000 0.000000 -0.000000 -0.000000 1.000000 -6.265625 -0.333333 0 0 0 0 0.000000 0.000000 0.000000 0.000000
-13.411199 0.685801 -12.192001 1.000000 0.000000 0.000000 -0.000000 -0.000000 1.000000 -9.765625 -0.333333 0 0 0 0 0.000000 0.000000 0.000000 0.000000
-13.411199 0.457201 -12.192001 1.000000 0.000000 0.000000 -0.000000 -0.000000 1.000000 -9.765625 -0.083333 0 0 0 0 0.000000 0.000000 0.000000 0.000000
-13.411199 0.457200 -7.924801 1.000000 0.000000 0.000000 -0.000000 -0.000000 1.000000 -6.265625 -0.083333 0 0 0 0 0.000000 0.000000 0.000000 0.000000
-13.411199 0.457201 -12.192001 0.000000 -1.000000 -0.000000 -0.000000 -0.000000 1.000000 -9.765625 -14.000000 0 0 0 0 0.000000 0.000000 0.000000 0.000000
-14.325599 0.457201 -12.192001 0.000000 -1.000000 -0.000000 -0.000000 -0.000000 1.000000 -9.765625 -15.000000 0 0 0 0 0.000000 0.000000 0.000000 0.000000
-14.325599 0.457200 -8.839201 0.000000 -1.000000 -0.000000 0.000000 -0.000000 1.000000 -7.015625 -15.000000 0 0 0 0 0.000000 0.000000 0.000000 0.000000
-14.325599 0.457201 -13.106401 0.000000 -1.000000 -0.000000 1.000000 0.000000 -0.000000 -11.515625 14.000000 0 0 0 0 0.000000 0.000000 0.000000 0.000000
-13.411199 0.457201 -12.192001 0.000000 -1.000000 -0.000000 1.000000 0.000000 -0.000000 -10.765625 13.000000 0 0 0 0 0.000000 0.000000 0.000000 0.000000
-12.801599 0.457201 -12.192001 0.000000 -1.000000 -0.000000 1.000000 0.000000 -0.000000 -10.265625 13.000000 0 0 0 0 0.000000 0.000000 0.000000 0.000000
-14.325599 0.457201 -13.106401 0.000000 -1.000000 -0.000000 -0.000000 -0.000000 1.000000 -10.515625 -15.000000 0 0 0 0 0.000000 0.000000 0.000000 0.000000
IndexCount: 309
3 1 0
71 3 0
3 2 1
71 70 3
7 5 4
5 59 4
7 6 5
5 60 59
11 9 8
11 10 9
65 10 69
65 69 68
65 68 67
67 66 65
15 13 12
92 15 12
92 12 91
15 14 13
19 17 16
19 18 17
17 18 124
17 124 123
17 123 122
122 121 17
23 21 20
20 21 120
20 120 119
20 119 118
118 117 20
23 22 21
24 28 27
27 25 24
24 116 115
24 115 112
112 113 24
27 26 25
109 27 113
109 113 112
112 114 109
111 110 109
111 109 108
32 30 29
32 31 30
30 31 145
30 145 144
144 143 30
36 34 33
36 35 34
35 53 34
35 54 53
40 38 37
58 40 37
40 39 38
58 57 40
44 42 41
42 55 41
44 43 42
42 56 55
48 46 45
46 84 45
48 47 46
46 85 84
52 50 49
52 51 50
64 62 61
64 63 62
75 73 72
98 75 72
75 74 73
98 97 75
79 77 76
79 78 77
78 95 77
78 96 95
83 81 80
81 93 80
83 82 81
81 94 93
86 90 89
86 89 88
88 87 86
99 103 102
99 102 101
101 100 99
99 107 106
99 106 105
99 105 104
104 103 99
127 126 125
125 126 142
125 142 141
141 140 125
141 146 140
128 132 131
128 131 130
130 129 128
130 131 136
136 133 130
136 135 134
136 134 133
135 136 139
135 139 138
135 138 137
