VertexCount: 20
-20.612099 -3.371849 -8.305800 0.000001 1.000000 0.000000 -0.707105 0.000001 -0.707108 41.772972 -22.447447 0 0 0 0 0.000000 0.000000 0.000000 0.000000
-20.516850 -3.371849 -8.401051 0.000001 1.000000 0.000000 -0.707105 0.000001 -0.707108 41.772972 -22.079161 0 0 0 0 0.000000 0.000000 0.000000 0.000000
-20.250149 -3.371849 -8.134351 0.000001 1.000000 0.000000 -0.707107 0.000001 -0.707107 40.999573 -22.079161 0 0 0 0 0.000000 0.000000 0.000000 0.000000
-20.345400 -3.371849 -8.039100 0.000001 1.000000 0.000000 -0.707105 0.000001 -0.707108 40.999573 -22.447447 0 0 0 0 0.000000 0.000000 0.000000 0.000000
-20.688301 -3.371849 -8.229601 0.000000 1.000000 0.000000 0.707108 -0.000000 0.707106 -41.976097 24.179573 0 0 0 0 0.000000 0.000000 0.000000 0.000000
-20.612099 -3.371849 -8.305800 0.000000 1.000000 0.000000 0.707108 -0.000000 0.707106 -41.976097 23.884947 0 0 0 0 0.000000 0.000000 0.000000 0.000000
-20.345400 -3.371849 -8.039100 0.000000 1.000000 0.000000 0.707105 -0.000000 0.707108 -41.202698 23.884947 0 0 0 0 0.000000 0.000000 0.000000 0.000000
-20.421600 -3.371849 -7.962901 0.000000 1.000000 0.000000 0.707108 -0.000000 0.707106 -41.202698 24.179573 0 0 0 0 0.000000 0.000000 0.000000 0.000000
-20.440651 -3.371847 -16.135349 -0.000000 1.000000 0.000000 0.707105 0.000000 -0.707108 -5.226802 -70.523178 0 0 0 0 0.000000 0.000000 0.000000 0.000000
-20.326351 -3.371847 -16.021049 -0.000000 1.000000 0.000000 0.707105 0.000000 -0.707108 -5.226802 -70.081238 0 0 0 0 0.000000 0.000000 0.000000 0.000000
-20.593048 -3.371847 -15.754351 -0.000000 1.000000 0.000000 0.707105 0.000000 -0.707108 -6.000200 -70.081238 0 0 0 0 0.000000 0.000000 0.000000 0.000000
-20.707348 -3.371847 -15.868649 -0.000000 1.000000 0.000000 0.707105 0.000000 -0.707108 -6.000200 -70.523178 0 0 0 0 0.000000 0.000000 0.000000 0.000000
-20.497799 -3.371847 -16.192501 0.000000 1.000000 0.000000 0.707105 -0.000000 -0.707108 -5.226802 -60.954807 0 0 0 0 0.000000 0.000000 0.000000 0.000000
-20.440651 -3.371847 -16.135349 0.000000 1.000000 0.000000 0.707105 0.000000 -0.707108 -5.226802 -60.765404 0 0 0 0 0.000000 0.000000 0.000000 0.000000
-20.707348 -3.371847 -15.868649 0.000000 1.000000 0.000000 0.707105 0.000000 -0.707108 -6.000200 -60.765404 0 0 0 0 0.000000 0.000000 0.000000 0.000000
-20.764500 -3.371847 -15.925800 0.000000 1.000000 0.000000 0.707105 -0.000000 -0.707108 -6.000200 -60.954807 0 0 0 0 0.000000 0.000000 0.000000 0.000000
4.076700 -3.676650 0.742950 0.000000 -1.000000 -0.000000 0.000000 0.000000 -1.000000 -2.000000 25.033653 0 0 0 0 0.000000 0.000000 0.000000 0.000000
3.905250 -3.676650 0.742950 0.000000 -1.000000 -0.000000 0.000000 0.000000 -1.000000 -2.000000 23.951921 0 0 0 0 0.000000 0.000000 0.000000 0.000000
3.905250 -3.676650 1.047750 0.000000 -1.000000 -0.000000 0.000000 0.000000 -1.000000 -3.000000 23.951921 0 0 0 0 0.000000 0.000000 0.000000 0.000000
4.076700 -3.676650 1.047750 0.000000 -1.000000 -0.000000 0.000000 0.000000 -1.000000 -3.000000 25.033653 0 0 0 0 0.000000 0.000000 0.000000 0.000000
IndexCount: 30
3 1 0
3 2 1
7 5 4
7 6 5
11 9 8
11 10 9
15 13 12
15 14 13
19 17 16
19 18 17