VertexCount: 4
-17.335501 -2.247901 7.658099 1.000000 0.000000 0.000000 0.000000 -0.000000 1.000000 8.004464 10.973214 0 0 0 0 0.000000 0.000000 0.000000 0.000000
-17.335501 -2.476501 7.658099 1.000000 0.000000 0.000000 0.000000 -0.000000 1.000000 8.004464 12.044643 0 0 0 0 0.000000 0.000000 0.000000 0.000000
-17.335501 -2.476501 8.496299 1.000000 0.000000 0.000000 0.000000 -0.000000 1.000000 8.986608 12.044643 0 0 0 0 0.000000 0.000000 0.000000 0.000000
-17.335501 -2.247901 8.496299 1.000000 0.000000 0.000000 0.000000 -0.000000 1.000000 8.986608 10.973214 0 0 0 0 0.000000 0.000000 0.000000 0.000000
IndexCount: 6
3 2 1
3 1 0