VertexCount: 86
-8.839200 -1.066800 -1.371601 -1.000000 -0.000000 -0.000000 0.000000 -1.000000 -0.000000 -0.562500 0.350000 0 0 0 0 0.000000 0.000000 0.000000 0.000000
-8.839200 0.457199 -1.371601 -1.000000 -0.000000 -0.000000 0.000000 -1.000000 -0.000000 -0.562500 -0.150000 0 0 0 0 0.000000 0.000000 0.000000 0.000000
-8.839200 1.371599 -1.371601 -1.000000 -0.000000 -0.000000 0.000000 -1.000000 -0.000000 -0.562500 -0.450000 0 0 0 0 0.000000 0.000000 0.000000 0.000000
-8.839200 1.371599 -1.219200 -1.000000 -0.000000 -0.000000 -0.000000 -0.000000 1.000000 -0.500000 -0.450000 0 0 0 0 0.000000 0.000000 0.000000 0.000000
-8.839200 -1.066801 -1.219201 -1.000000 -0.000000 -0.000000 -0.000000 -0.000001 1.000000 -0.500000 0.350000 0 0 0 0 0.000000 0.000000 0.000000 0.000000
-8.839200 1.371599 -1.219200 0.000000 0.000000 -1.000000 1.000000 -0.000000 0.000000 -3.625000 -0.450000 0 0 0 0 0.000000 0.000000 0.000000 0.000000
-10.629900 1.371599 -1.219201 0.000000 0.000000 -1.000000 1.000000 0.000000 0.000000 -4.359375 -0.450000 0 0 0 0 0.000000 0.000000 0.000000 0.000000
-10.629900 -1.066801 -1.219201 0.000000 0.000000 -1.000000 1.000000 0.000000 0.000000 -4.359375 0.350000 0 0 0 0 0.000000 0.000000 0.000000 0.000000
-8.839200 -1.066801 -1.219201 0.000000 0.000000 -1.000000 1.000000 -0.000000 0.000000 -3.625000 0.350000 0 0 0 0 0.000000 0.000000 0.000000 0.000000
-8.839200 0.457199 -1.371601 -1.000000 -0.000000 -0.000000 -0.000000 -0.000000 1.000000 -0.562500 -0.150000 0 0 0 0 0.000000 0.000000 0.000000 0.000000
-8.839200 -1.066800 -1.371601 -1.000000 -0.000000 -0.000000 -0.000000 -0.000000 1.000000 -0.562500 0.350000 0 0 0 0 0.000000 0.000000 0.000000 0.000000
-8.839200 -1.066800 -2.286001 -1.000000 -0.000000 -0.000000 -0.000000 -0.000000 1.000000 -0.937500 0.350000 0 0 0 0 0.000000 0.000000 0.000000 0.000000
-8.839200 0.457200 -2.286001 -1.000000 -0.000000 -0.000000 -0.000000 -0.000000 1.000000 -0.937500 -0.150000 0 0 0 0 0.000000 0.000000 0.000000 0.000000
-8.839199 1.371600 -3.543301 -1.000000 -0.000000 -0.000000 -0.000000 -0.000000 1.000000 -1.453125 -0.450000 0 0 0 0 0.000000 0.000000 0.000000 0.000000
-8.839200 1.371600 -2.286001 -1.000000 -0.000000 -0.000000 -0.000000 -0.000000 1.000000 -0.937500 -0.450000 0 0 0 0 0.000000 0.000000 0.000000 0.000000
-8.839199 -1.066800 -3.543301 -1.000000 -0.000000 -0.000000 -0.000000 -0.000000 1.000000 -1.453125 0.350000 0 0 0 0 0.000000 0.000000 0.000000 0.000000
-8.839199 0.457200 -7.010401 -1.000000 -0.000000 -0.000000 -0.000000 -0.000000 1.000000 -2.875000 -0.150000 0 0 0 0 0.000000 0.000000 0.000000 0.000000
-8.839199 -1.066800 -7.010401 -1.000000 -0.000000 -0.000000 -0.000000 -0.000000 1.000000 -2.875000 0.350000 0 0 0 0 0.000000 0.000000 0.000000 0.000000
-8.839199 -1.066800 -7.315200 -1.000000 -0.000000 -0.000000 -0.000000 -0.000000 1.000000 -3.000000 0.350000 0 0 0 0 0.000000 0.000000 0.000000 0.000000
-8.839199 -1.066799 -7.924800 -1.000000 -0.000000 -0.000000 -0.000000 -0.000000 1.000000 -3.250000 0.350000 0 0 0 0 0.000000 0.000000 0.000000 0.000000
-8.839199 0.457200 -7.924800 -1.000000 -0.000000 -0.000000 -0.000000 -0.000000 1.000000 -3.250000 -0.150000 0 0 0 0 0.000000 0.000000 0.000000 0.000000
-8.839199 -1.066800 -4.267201 -1.000000 -0.000000 0.000000 0.000000 -0.000000 1.000000 -1.750000 0.350000 0 0 0 0 0.000000 0.000000 0.000000 0.000000
-8.839199 1.371600 -7.010401 -1.000000 -0.000000 0.000000 0.000000 -0.000000 1.000000 -2.875000 -0.450000 0 0 0 0 0.000000 0.000000 0.000000 0.000000
-8.839199 1.371601 -9.829801 -1.000000 -0.000000 -0.000000 -0.000000 -0.000000 1.000000 -4.031250 -0.450000 0 0 0 0 0.000000 0.000000 0.000000 0.000000
-8.839199 1.371601 -7.924800 -1.000000 -0.000000 -0.000000 -0.000000 -0.000000 1.000000 -3.250000 -0.450000 0 0 0 0 0.000000 0.000000 0.000000 0.000000
-8.839199 -1.066799 -8.229601 -1.000000 -0.000000 -0.000000 -0.000000 -0.000000 1.000000 -3.375000 0.350000 0 0 0 0 0.000000 0.000000 0.000000 0.000000
-8.839199 -1.066799 -9.829801 -1.000000 -0.000000 -0.000000 -0.000000 -0.000000 1.000000 -4.031250 0.350000 0 0 0 0 0.000000 0.000000 0.000000 0.000000
-8.839198 1.371602 -14.097000 -1.000000 -0.000000 -0.000000 -0.000000 -0.000000 1.000000 -5.781250 -0.450000 0 0 0 0 0.000000 0.000000 0.000000 0.000000
-8.839198 1.371601 -12.192001 -1.000000 -0.000000 -0.000000 -0.000000 -0.000000 1.000000 -5.000000 -0.450000 0 0 0 0 0.000000 0.000000 0.000000 0.000000
-8.839199 -1.066799 -10.058401 -1.000000 -0.000000 -0.000000 -0.000000 -0.000000 1.000000 -4.125000 0.350000 0 0 0 0 0.000000 0.000000 0.000000 0.000000
-8.839198 -1.066798 -14.097000 -1.000000 -0.000000 -0.000000 -0.000000 -0.000000 1.000000 -5.781250 0.350000 0 0 0 0 0.000000 0.000000 0.000000 0.000000
-8.839198 -1.066798 -17.678400 -1.000000 -0.000000 -0.000000 -0.000000 -0.000000 1.000000 -7.250000 0.350000 0 0 0 0 0.000000 0.000000 0.000000 0.000000
-8.839198 1.371602 -17.678400 -1.000000 -0.000000 -0.000000 -0.000000 -0.000000 1.000000 -7.250000 -0.450000 0 0 0 0 0.000000 0.000000 0.000000 0.000000
-8.839198 1.371602 -17.678400 -0.000000 -0.000000 1.000000 1.000000 0.000000 0.000000 -3.625000 -0.450000 0 0 0 0 0.000000 0.000000 0.000000 0.000000
-8.839198 -1.066798 -17.678400 -0.000000 -0.000000 1.000000 1.000000 0.000000 0.000000 -3.625000 0.350000 0 0 0 0 0.000000 0.000000 0.000000 0.000000
-10.210798 -1.066798 -17.678400 -0.000000 -0.000000 1.000000 1.000000 -0.000000 0.000000 -4.187500 0.350000 0 0 0 0 0.000000 0.000000 0.000000 0.000000
-10.210798 1.371602 -17.678400 -0.000000 -0.000000 1.000000 1.000000 -0.000000 0.000000 -4.187500 -0.450000 0 0 0 0 0.000000 0.000000 0.000000 0.000000
-10.058398 1.371602 -17.678400 -0.000000 -0.000000 1.000000 1.000000 0.000000 0.000000 -4.125000 -0.450000 0 0 0 0 0.000000 0.000000 0.000000 0.000000
-9.143998 1.371602 -17.678400 -0.000000 -0.000000 1.000000 -1.000000 -0.000000 -0.000000 -3.750000 -0.450000 0 0 0 0 0.000000 0.000000 0.000000 0.000000
-14.630399 1.371599 -1.219201 0.000000 0.000000 -1.000000 1.000000 0.000000 0.000000 -6.000000 -0.450000 0 0 0 0 0.000000 0.000000 0.000000 0.000000
-14.630399 -1.066801 -1.219201 0.000000 0.000000 -1.000000 1.000000 0.000000 0.000000 -6.000000 0.350000 0 0 0 0 0.000000 0.000000 0.000000 0.000000
-14.630398 -1.066800 -9.982201 1.000000 0.000000 0.000000 0.000000 0.000000 -1.000000 -4.093750 0.350000 0 0 0 0 0.000000 0.000000 0.000000 0.000000
-14.630398 -1.066800 -8.534401 1.000000 0.000000 0.000000 0.000000 0.000000 -1.000000 -3.500000 0.350000 0 0 0 0 0.000000 0.000000 0.000000 0.000000
-14.630398 -1.066800 -7.010401 1.000000 0.000000 0.000000 0.000000 0.000000 -1.000000 -2.875000 0.350000 0 0 0 0 0.000000 0.000000 0.000000 0.000000
-14.630398 1.371600 -7.010401 1.000000 0.000000 0.000000 -0.000000 -0.000000 1.000000 -2.875000 -0.450000 0 0 0 0 0.000000 0.000000 0.000000 0.000000
-14.630398 1.371600 -9.982201 1.000000 0.000000 0.000000 -0.000000 -0.000000 1.000000 -4.093750 -0.450000 0 0 0 0 0.000000 0.000000 0.000000 0.000000
-14.630398 -1.066799 -14.249401 1.000000 0.000000 0.000000 -0.000000 -0.000000 1.000000 -5.843750 0.350000 0 0 0 0 0.000000 0.000000 0.000000 0.000000
-14.630398 -1.066799 -13.106401 1.000000 0.000000 0.000000 -0.000000 -0.000000 1.000000 -5.375000 0.350000 0 0 0 0 0.000000 0.000000 0.000000 0.000000
-14.630398 -1.066799 -11.582401 1.000000 0.000000 0.000000 -0.000000 -0.000000 1.000000 -4.750000 0.350000 0 0 0 0 0.000000 0.000000 0.000000 0.000000
-14.630398 -1.066800 -10.058401 1.000000 0.000000 0.000000 -0.000000 -0.000000 1.000000 -4.125000 0.350000 0 0 0 0 0.000000 0.000000 0.000000 0.000000
-14.630398 -1.066800 -9.982201 1.000000 0.000000 0.000000 -0.000000 -0.000000 1.000000 -4.093750 0.350000 0 0 0 0 0.000000 0.000000 0.000000 0.000000
-14.630398 1.371601 -11.190541 1.000000 0.000000 0.000000 -0.000000 -0.000000 1.000000 -4.589297 -0.450000 0 0 0 0 0.000000 0.000000 0.000000 0.000000
-14.630398 1.371601 -13.106401 1.000000 0.000000 0.000000 -0.000000 -0.000000 1.000000 -5.375000 -0.450000 0 0 0 0 0.000000 0.000000 0.000000 0.000000
-14.630398 1.371601 -14.249401 1.000000 0.000000 0.000000 -0.000000 -0.000000 1.000000 -5.843750 -0.450000 0 0 0 0 0.000000 0.000000 0.000000 0.000000
-14.630398 1.371600 -7.010401 0.274722 0.000000 -0.961524 0.961524 0.000000 0.274722 -6.000000 -0.450000 0 0 0 0 0.000000 0.000000 0.000000 0.000000
-14.630398 -1.066800 -7.010401 0.274722 0.000000 -0.961524 0.961524 0.000000 0.274722 -6.000000 0.350000 0 0 0 0 0.000000 0.000000 0.000000 0.000000
-14.096999 -1.066800 -6.858002 0.274722 0.000000 -0.961524 0.961524 0.000000 0.274722 -5.781250 0.350000 0 0 0 0 0.000000 0.000000 0.000000 0.000000
-14.096999 1.371600 -6.858002 0.274722 0.000000 -0.961524 0.961524 0.000000 0.274722 -5.781250 -0.450000 0 0 0 0 0.000000 0.000000 0.000000 0.000000
-14.096999 1.371600 -5.029201 0.274722 -0.000000 0.961524 0.961524 -0.000000 -0.274722 -5.781250 -0.450000 0 0 0 0 0.000000 0.000000 0.000000 0.000000
-14.096999 -1.066800 -5.029202 0.274722 -0.000000 0.961524 0.961524 -0.000000 -0.274722 -5.781250 0.350000 0 0 0 0 0.000000 0.000000 0.000000 0.000000
-14.630399 -1.066800 -4.876801 0.274722 -0.000000 0.961524 0.961524 -0.000000 -0.274722 -6.000000 0.350000 0 0 0 0 0.000000 0.000000 0.000000 0.000000
-14.630399 1.371600 -4.876801 0.274722 -0.000000 0.961524 0.961524 -0.000000 -0.274722 -6.000000 -0.450000 0 0 0 0 0.000000 0.000000 0.000000 0.000000
-14.096999 1.371600 -6.858002 0.707107 0.000000 -0.707107 0.707107 0.000000 0.707107 -2.812500 -0.450000 0 0 0 0 0.000000 0.000000 0.000000 0.000000
-14.096999 -1.066800 -6.858002 0.707107 0.000000 -0.707107 0.707107 0.000000 0.707107 -2.812500 0.350000 0 0 0 0 0.000000 0.000000 0.000000 0.000000
-13.716001 -1.066800 -6.477001 0.707107 0.000000 -0.707107 0.707107 0.000000 0.707107 -2.656250 0.350000 0 0 0 0 0.000000 0.000000 0.000000 0.000000
-13.716001 1.371600 -6.477001 0.707107 0.000000 -0.707107 0.707107 0.000000 0.707107 -2.656250 -0.450000 0 0 0 0 0.000000 0.000000 0.000000 0.000000
-13.716001 1.371600 -5.410201 0.707106 -0.000000 0.707107 -0.707107 -0.000000 0.707106 -2.218750 -0.450000 0 0 0 0 0.000000 0.000000 0.000000 0.000000
-13.716001 -1.066800 -5.410201 0.707106 -0.000000 0.707107 -0.707107 -0.000000 0.707106 -2.218750 0.350000 0 0 0 0 0.000000 0.000000 0.000000 0.000000
-14.096999 -1.066800 -5.029202 0.707106 -0.000000 0.707107 -0.707107 0.000000 0.707106 -2.062500 0.350000 0 0 0 0 0.000000 0.000000 0.000000 0.000000
-14.096999 1.371600 -5.029201 0.707106 -0.000000 0.707107 -0.707107 -0.000000 0.707106 -2.062500 -0.450000 0 0 0 0 0.000000 0.000000 0.000000 0.000000
-13.716001 1.371600 -6.477001 0.961524 0.000000 -0.274721 0.274721 0.000000 0.961524 -2.656250 -0.450000 0 0 0 0 0.000000 0.000000 0.000000 0.000000
-13.716001 -1.066800 -6.477001 0.961524 0.000000 -0.274721 0.274721 0.000000 0.961524 -2.656250 0.350000 0 0 0 0 0.000000 0.000000 0.000000 0.000000
-13.563601 -1.066800 -5.943602 0.961524 0.000000 -0.274721 0.274721 0.000000 0.961524 -2.437500 0.350000 0 0 0 0 0.000000 0.000000 0.000000 0.000000
-13.563601 1.371600 -5.943602 0.961524 0.000000 -0.274721 0.274721 0.000000 0.961524 -2.437500 -0.450000 0 0 0 0 0.000000 0.000000 0.000000 0.000000
-13.563601 1.371600 -5.943602 0.961524 0.000000 0.274721 -0.274721 -0.000000 0.961524 -2.437500 -0.450000 0 0 0 0 0.000000 0.000000 0.000000 0.000000
-13.563601 -1.066800 -5.943602 0.961524 0.000000 0.274721 -0.274721 -0.000000 0.961524 -2.437500 0.350000 0 0 0 0 0.000000 0.000000 0.000000 0.000000
-13.716001 -1.066800 -5.410201 0.961524 0.000000 0.274721 -0.274721 -0.000000 0.961524 -2.218750 0.350000 0 0 0 0 0.000000 0.000000 0.000000 0.000000
-13.716001 1.371600 -5.410201 0.961524 0.000000 0.274721 -0.274721 -0.000000 0.961524 -2.218750 -0.450000 0 0 0 0 0.000000 0.000000 0.000000 0.000000
-13.258799 1.371602 -17.678400 -0.000000 -0.000000 1.000000 1.000000 0.000000 0.000000 -5.437500 -0.450000 0 0 0 0 0.000000 0.000000 0.000000 0.000000
-13.258799 -1.066798 -17.678400 -0.000000 -0.000000 1.000000 1.000000 0.000000 0.000000 -5.437500 0.350000 0 0 0 0 0.000000 0.000000 0.000000 0.000000
-14.630398 -1.066798 -17.678400 -0.000000 -0.000000 1.000000 1.000000 0.000000 0.000000 -6.000000 0.350000 0 0 0 0 0.000000 0.000000 0.000000 0.000000
-14.630398 1.371602 -17.678400 -0.000000 -0.000000 1.000000 1.000000 0.000000 0.000000 -6.000000 -0.450000 0 0 0 0 0.000000 0.000000 0.000000 0.000000
-14.630398 1.371602 -17.678400 1.000000 0.000000 0.000000 -0.000000 -0.000000 1.000000 -7.250000 -0.450000 0 0 0 0 0.000000 0.000000 0.000000 0.000000
-14.630398 -1.066798 -17.678400 1.000000 0.000000 0.000000 -0.000000 -0.000000 1.000000 -7.250000 0.350000 0 0 0 0 0.000000 0.000000 0.000000 0.000000
-14.630398 -1.066799 -16.306801 1.000000 0.000000 0.000000 -0.000000 -0.000000 1.000000 -6.687500 0.350000 0 0 0 0 0.000000 0.000000 0.000000 0.000000
-14.630398 -1.066799 -14.478002 1.000000 0.000000 0.000000 0.000000 0.000000 -1.000000 -5.937500 0.350000 0 0 0 0 0.000000 0.000000 0.000000 0.000000
IndexCount: 183
0 4 3
0 3 2
2 1 0
8 6 5
8 7 6
7 39 6
7 40 39
12 10 9
12 11 10
13 11 12
12 14 13
13 15 11
13 22 16
13 16 17
13 17 21
21 15 13
16 20 19
16 19 18
18 17 16
23 19 20
20 24 23
23 25 19
23 26 25
26 23 28
27 29 26
26 28 27
27 30 29
32 30 27
32 31 30
33 38 37
37 34 33
37 36 35
37 35 34
41 45 44
41 44 43
43 42 41
46 51 45
45 50 49
45 49 48
45 48 47
45 47 46
46 52 51
46 53 52
46 85 84
84 53 46
84 82 53
84 83 82
57 55 54
57 56 55
61 59 58
61 60 59
65 63 62
65 64 63
69 67 66
69 68 67
73 71 70
73 72 71
77 75 74
77 76 75
81 79 78
81 80 79
