VertexCount: 8
-8.382000 -1.790701 0.533399 -0.000000 -0.000000 1.000000 1.000000 -0.000000 0.000000 -11.951389 2.968750 0 0 0 0 0.000000 0.000000 0.000000 0.000000
-7.010400 -1.790701 0.533399 -0.000000 -0.000000 1.000000 1.000000 -0.000000 0.000000 -9.951389 2.968750 0 0 0 0 0.000000 0.000000 0.000000 0.000000
-7.010400 -2.438401 0.533399 -0.000000 -0.000000 1.000000 1.000000 -0.000000 0.000000 -9.951389 4.031250 0 0 0 0 0.000000 0.000000 0.000000 0.000000
-8.382000 -2.438401 0.533399 -0.000000 -0.000000 1.000000 1.000000 -0.000000 0.000000 -11.951389 4.031250 0 0 0 0 0.000000 0.000000 0.000000 0.000000
-14.782800 -1.790701 0.533398 -0.000000 -0.000000 1.000000 1.000000 0.000000 0.000000 -20.951389 2.968750 0 0 0 0 0.000000 0.000000 0.000000 0.000000
-13.411200 -1.790701 0.533399 -0.000000 -0.000000 1.000000 1.000000 0.000000 0.000000 -18.951389 2.968750 0 0 0 0 0.000000 0.000000 0.000000 0.000000
-13.411200 -2.438401 0.533398 -0.000000 -0.000000 1.000000 1.000000 0.000000 0.000000 -18.951389 4.031250 0 0 0 0 0.000000 0.000000 0.000000 0.000000
-14.782800 -2.438401 0.533398 -0.000000 -0.000000 1.000000 1.000000 0.000000 0.000000 -20.951389 4.031250 0 0 0 0 0.000000 0.000000 0.000000 0.000000
IndexCount: 12
3 2 1
3 1 0
7 6 5
7 5 4
