VertexCount: 4
-11.696700 -1.295401 6.000750 0.000000 -1.000000 -0.000000 0.000000 -0.000000 1.000000 9.031250 -18.968750 0 0 0 0 0.000000 0.000000 0.000000 0.000000
-11.696700 -1.295401 5.391150 0.000000 -1.000000 -0.000000 0.000000 -0.000000 1.000000 8.031250 -18.968750 0 0 0 0 0.000000 0.000000 0.000000 0.000000
-12.306300 -1.295401 5.391150 0.000000 -1.000000 -0.000000 0.000000 -0.000000 1.000000 8.031250 -19.968750 0 0 0 0 0.000000 0.000000 0.000000 0.000000
-12.306300 -1.295401 6.000750 0.000000 -1.000000 -0.000000 0.000000 -0.000000 1.000000 9.031250 -19.968750 0 0 0 0 0.000000 0.000000 0.000000 0.000000
IndexCount: 6
3 2 1
3 1 0