VertexCount: 82
3.657600 -4.572000 0.762000 -0.707107 -0.000000 0.707107 0.707107 -0.000000 0.707107 0.998843 4.000000 0 0 0 0 0.000000 0.000000 0.000000 0.000000
3.657600 -3.657599 0.762000 -0.707107 -0.000000 0.707107 0.707107 -0.000000 0.707107 0.998843 3.250000 0 0 0 0 0.000000 0.000000 0.000000 0.000000
4.114800 -3.657599 1.219200 -0.707107 -0.000000 0.707107 0.707107 -0.000000 0.707107 1.554398 3.250000 0 0 0 0 0.000000 0.000000 0.000000 0.000000
4.114800 -4.572000 1.219200 -0.707107 -0.000000 0.707107 0.707107 -0.000000 0.707107 1.554398 4.000000 0 0 0 0 0.000000 0.000000 0.000000 0.000000
-9.601201 -2.209802 11.125198 0.000000 0.000000 -1.000000 1.000000 0.000000 0.000000 -4.604167 1.031250 0 0 0 0 0.000000 0.000000 0.000000 0.000000
-10.629901 -2.209803 11.125198 0.000000 0.000000 -1.000000 1.000000 0.000000 0.000000 -5.166667 1.031250 0 0 0 0 0.000000 0.000000 0.000000 0.000000
-10.629901 -2.743203 11.125198 0.000000 0.000000 -1.000000 1.000000 -0.000000 0.000000 -5.166667 1.250000 0 0 0 0 0.000000 0.000000 0.000000 0.000000
-9.601201 -2.743203 11.125198 0.000000 0.000000 -1.000000 1.000000 0.000000 0.000000 -4.604167 1.250000 0 0 0 0 0.000000 0.000000 0.000000 0.000000
-5.943601 -2.209802 7.296148 -1.000000 -0.000000 -0.000000 -0.000000 -0.000000 1.000000 5.626488 1.974330 0 0 0 0 0.000000 0.000000 0.000000 0.000000
-5.943601 -2.209802 7.467599 -1.000000 -0.000000 -0.000000 -0.000000 -0.000000 1.000000 5.760417 1.974330 0 0 0 0 0.000000 0.000000 0.000000 0.000000
-5.943601 -2.743202 7.467599 -1.000000 -0.000000 -0.000000 -0.000000 -0.000000 1.000000 5.760417 2.286830 0 0 0 0 0.000000 0.000000 0.000000 0.000000
-5.943601 -2.743202 7.296148 -1.000000 -0.000000 -0.000000 -0.000000 -0.000000 1.000000 5.626488 2.286830 0 0 0 0 0.000000 0.000000 0.000000 0.000000
-10.629900 -2.743201 0.304799 -0.000000 -0.000000 1.000000 -1.000000 -0.000000 -0.000000 -5.395833 1.250000 0 0 0 0 0.000000 0.000000 0.000000 0.000000
-8.496300 -2.743201 0.304799 -0.000000 -0.000000 1.000000 -1.000000 -0.000000 -0.000000 -4.229167 1.250000 0 0 0 0 0.000000 0.000000 0.000000 0.000000
-7.467600 -2.743201 0.304799 -0.000000 -0.000000 1.000000 -1.000000 -0.000000 -0.000000 -3.666667 1.250000 0 0 0 0 0.000000 0.000000 0.000000 0.000000
-7.467599 -3.962400 0.304799 -0.000000 -0.000000 1.000000 1.000000 0.000000 0.000000 -3.666667 1.750000 0 0 0 0 0.000000 0.000000 0.000000 0.000000
-8.496299 -3.962401 0.304799 -0.000000 -0.000000 1.000000 1.000000 0.000000 0.000000 -4.229167 1.750000 0 0 0 0 0.000000 0.000000 0.000000 0.000000
-10.629900 -3.962401 0.304798 -0.000000 -0.000000 1.000000 1.000000 -0.000000 0.000000 -5.395833 1.750000 0 0 0 0 0.000000 0.000000 0.000000 0.000000
-5.943601 -2.209801 5.882638 -1.000000 -0.000000 -0.000000 -0.000000 -0.000000 1.000000 4.522321 1.974330 0 0 0 0 0.000000 0.000000 0.000000 0.000000
-5.943601 -2.743201 7.010399 -1.000000 -0.000000 -0.000000 -0.000000 -0.000001 1.000000 5.403274 2.286830 0 0 0 0 0.000000 0.000000 0.000000 0.000000
-5.943601 -2.743201 5.882638 -1.000000 -0.000000 -0.000000 -0.000000 -0.000000 1.000000 4.522321 2.286830 0 0 0 0 0.000000 0.000000 0.000000 0.000000
-5.943600 -2.209801 2.895599 -1.000000 -0.000000 -0.000000 -0.000000 -0.000000 1.000000 2.188988 1.974330 0 0 0 0 0.000000 0.000000 0.000000 0.000000
-5.943601 -2.743201 5.600699 -1.000000 -0.000000 -0.000000 -0.000000 -0.000000 1.000000 4.302083 2.286830 0 0 0 0 0.000000 0.000000 0.000000 0.000000
-5.943601 -2.743201 4.952999 -1.000000 -0.000000 -0.000000 -0.000000 -0.000001 1.000000 3.796131 2.286830 0 0 0 0 0.000000 0.000000 0.000000 0.000000
-5.943601 -2.743201 3.581399 -1.000000 -0.000000 -0.000000 -0.000000 -0.000000 1.000000 2.724702 2.286830 0 0 0 0 0.000000 0.000000 0.000000 0.000000
-5.943600 -2.743201 2.895599 -1.000000 -0.000000 -0.000000 -0.000000 -0.000000 1.000000 2.188988 2.286830 0 0 0 0 0.000000 0.000000 0.000000 0.000000
-10.629901 -4.114802 7.010398 0.000000 0.000000 -1.000000 1.000000 0.000000 0.000000 -5.395833 1.812500 0 0 0 0 0.000000 0.000000 0.000000 0.000000
-9.448800 -4.114802 7.010399 0.000000 0.000000 -1.000000 1.000000 0.000000 0.000000 -4.750000 1.812500 0 0 0 0 0.000000 0.000000 0.000000 0.000000
-9.448800 -2.133602 7.010399 0.000000 0.000000 -1.000000 1.000000 0.000000 0.000000 -4.750000 1.000000 0 0 0 0 0.000000 0.000000 0.000000 0.000000
-10.020300 -2.133602 7.010399 0.000000 0.000000 -1.000000 1.000000 -0.000000 0.000000 -5.062500 1.000000 0 0 0 0 0.000000 0.000000 0.000000 0.000000
-10.629901 -2.133602 7.010398 0.000000 0.000000 -1.000000 1.000000 0.000000 0.000000 -5.395833 1.000000 0 0 0 0 0.000000 0.000000 0.000000 0.000000
-10.629900 -4.114801 3.657598 0.000000 0.000000 -1.000000 1.000000 -0.000000 0.000000 -5.312500 1.812500 0 0 0 0 0.000000 0.000000 0.000000 0.000000
-9.448800 -4.114801 3.657598 0.000000 0.000000 -1.000000 1.000000 -0.000000 0.000000 -4.666667 1.812500 0 0 0 0 0.000000 0.000000 0.000000 0.000000
-9.448800 -2.133601 3.657598 0.000000 0.000000 -1.000000 1.000000 -0.000000 0.000000 -4.666667 1.000000 0 0 0 0 0.000000 0.000000 0.000000 0.000000
-10.020300 -2.133601 3.657598 0.000000 0.000000 -1.000000 1.000000 0.000000 0.000000 -4.979167 1.000000 0 0 0 0 0.000000 0.000000 0.000000 0.000000
-10.629900 -2.133601 3.657598 0.000000 0.000000 -1.000000 1.000000 -0.000000 0.000000 -5.312500 1.000000 0 0 0 0 0.000000 0.000000 0.000000 0.000000
-11.430001 -2.209803 11.125198 0.000000 0.000001 -1.000000 1.000000 0.000000 0.000000 -5.604167 1.031250 0 0 0 0 0.000000 0.000000 0.000000 0.000000
-11.430001 -2.743203 11.125198 0.000000 0.000001 -1.000000 1.000000 0.000000 0.000000 -5.604167 1.250000 0 0 0 0 0.000000 0.000000 0.000000 0.000000
-10.820401 -2.743203 11.125198 0.000000 0.000001 -1.000000 1.000000 -0.000000 0.000000 -5.270833 1.250000 0 0 0 0 0.000000 0.000000 0.000000 0.000000
-15.697201 -2.209803 11.125198 0.000000 -0.000000 -1.000000 1.000000 0.000000 0.000000 -7.937500 1.031250 0 0 0 0 0.000000 0.000000 0.000000 0.000000
-15.697201 -2.743203 11.125198 0.000000 -0.000000 -1.000000 1.000000 0.000000 0.000000 -7.937500 1.250000 0 0 0 0 0.000000 0.000000 0.000000 0.000000
-13.792201 -2.743203 11.125198 0.000000 -0.000000 -1.000000 1.000000 0.000000 0.000000 -6.895833 1.250000 0 0 0 0 0.000000 0.000000 0.000000 0.000000
-12.725401 -2.743203 11.125198 0.000000 -0.000000 -1.000000 1.000000 0.000000 0.000000 -6.312500 1.250000 0 0 0 0 0.000000 0.000000 0.000000 0.000000
-10.706102 -2.133602 7.010398 0.000000 0.000000 -1.000000 1.000000 -0.000000 0.000000 -5.437500 1.000000 0 0 0 0 0.000000 0.000000 0.000000 0.000000
-11.277601 -2.133602 7.010398 0.000000 0.000000 -1.000000 1.000000 -0.000000 0.000000 -5.750000 1.000000 0 0 0 0 0.000000 0.000000 0.000000 0.000000
-11.277601 -4.114802 7.010398 0.000000 0.000000 -1.000000 1.000000 -0.000000 0.000000 -5.750000 1.812500 0 0 0 0 0.000000 0.000000 0.000000 0.000000
-10.706100 -2.133601 3.657598 0.000000 0.000000 -1.000000 1.000000 -0.000000 0.000000 -5.354167 1.000000 0 0 0 0 0.000000 0.000000 0.000000 0.000000
-11.277600 -2.133601 3.657598 0.000000 0.000000 -1.000000 1.000000 -0.000000 0.000000 -5.666667 1.000000 0 0 0 0 0.000000 0.000000 0.000000 0.000000
-11.277600 -4.114801 3.657598 0.000000 0.000000 -1.000000 1.000000 -0.000000 0.000000 -5.666667 1.812500 0 0 0 0 0.000000 0.000000 0.000000 0.000000
-13.258800 -4.114802 4.267198 -0.000000 -0.000000 1.000000 1.000000 -0.000000 0.000000 -6.750000 1.812500 0 0 0 0 0.000000 0.000000 0.000000 0.000000
-13.258800 -2.133602 4.267199 -0.000000 -0.000000 1.000000 1.000000 -0.000000 0.000000 -6.750000 1.000000 0 0 0 0 0.000000 0.000000 0.000000 0.000000
-12.687300 -2.133602 4.267199 -0.000000 -0.000000 1.000000 1.000000 -0.000000 0.000000 -6.437500 1.000000 0 0 0 0 0.000000 0.000000 0.000000 0.000000
-12.001500 -2.133602 4.267199 -0.000000 -0.000000 1.000000 1.000000 0.000000 0.000000 -6.062500 1.000000 0 0 0 0 0.000000 0.000000 0.000000 0.000000
-11.429999 -2.133602 4.267199 -0.000000 -0.000000 1.000000 1.000000 -0.000000 0.000000 -5.750000 1.000000 0 0 0 0 0.000000 0.000000 0.000000 0.000000
-11.429999 -4.114802 4.267199 -0.000000 -0.000000 1.000000 1.000000 0.000000 0.000000 -5.750000 1.812500 0 0 0 0 0.000000 0.000000 0.000000 0.000000
-13.411200 -4.114802 3.657598 0.000000 0.000000 -1.000000 1.000000 -0.000000 0.000000 -6.833333 1.812500 0 0 0 0 0.000000 0.000000 0.000000 0.000000
-13.411200 -2.133602 3.657598 0.000000 0.000000 -1.000000 1.000000 -0.000000 0.000000 -6.833333 1.000000 0 0 0 0 0.000000 0.000000 0.000000 0.000000
-13.982700 -2.133602 3.657598 0.000000 0.000000 -1.000000 1.000000 -0.000000 0.000000 -7.145833 1.000000 0 0 0 0 0.000000 0.000000 0.000000 0.000000
-14.668499 -2.133602 3.657598 0.000000 0.000000 -1.000000 1.000000 -0.000000 0.000000 -7.520833 1.000000 0 0 0 0 0.000000 0.000000 0.000000 0.000000
-15.240000 -2.133602 3.657598 0.000000 0.000000 -1.000000 1.000000 -0.000000 0.000000 -7.833333 1.000000 0 0 0 0 0.000000 0.000000 0.000000 0.000000
-15.240000 -4.114802 3.657598 0.000000 0.000000 -1.000000 1.000000 -0.000000 0.000000 -7.833333 1.812500 0 0 0 0 0.000000 0.000000 0.000000 0.000000
-11.353800 -2.743201 0.304799 -0.000000 -0.000000 1.000000 1.000000 0.000000 0.000000 -5.791667 1.250000 0 0 0 0 0.000000 0.000000 0.000000 0.000000
-10.629900 -2.743201 0.304799 -0.000000 -0.000000 1.000000 1.000000 -0.000000 0.000000 -5.395833 1.250000 0 0 0 0 0.000000 0.000000 0.000000 0.000000
-11.353800 -3.962401 0.304798 -0.000000 -0.000000 1.000000 1.000000 0.000000 0.000000 -5.791667 1.750000 0 0 0 0 0.000000 0.000000 0.000000 0.000000
-11.544300 -3.962401 0.304798 -0.000000 -0.000000 1.000000 1.000000 0.000000 0.000000 -5.895833 1.750000 0 0 0 0 0.000000 0.000000 0.000000 0.000000
-13.677900 -3.962401 0.304798 -0.000000 -0.000000 1.000000 1.000000 0.000000 0.000000 -7.062500 1.750000 0 0 0 0 0.000000 0.000000 0.000000 0.000000
-15.620999 -3.962401 0.304798 -0.000000 -0.000000 1.000000 1.000000 0.000000 0.000000 -8.125000 1.750000 0 0 0 0 0.000000 0.000000 0.000000 0.000000
-15.620999 -2.743201 0.304798 -0.000000 -0.000000 1.000000 1.000000 0.000000 0.000000 -8.125000 1.250000 0 0 0 0 0.000000 0.000000 0.000000 0.000000
-14.782800 -2.743201 0.304798 -0.000000 -0.000000 1.000000 -1.000000 -0.000000 -0.000000 -7.666667 1.250000 0 0 0 0 0.000000 0.000000 0.000000 0.000000
-12.649200 -2.743201 0.304798 -0.000000 -0.000000 1.000000 1.000000 0.000000 0.000000 -6.500000 1.250000 0 0 0 0 0.000000 0.000000 0.000000 0.000000
-32.308800 -3.505205 13.106398 -1.000000 -0.000000 -0.000000 -0.000000 -0.000000 1.000000 5.616987 1.218750 0 0 0 0 0.000000 0.000000 0.000000 0.000000
-32.308800 -4.876805 13.106396 -1.000000 -0.000000 -0.000000 -0.000000 -0.000000 1.000000 5.616987 1.781250 0 0 0 0 0.000000 0.000000 0.000000 0.000000
-32.308800 -4.876804 8.839196 -1.000000 -0.000000 -0.000000 -0.000000 -0.000000 1.000000 3.822115 1.781250 0 0 0 0 0.000000 0.000000 0.000000 0.000000
-32.308800 -4.876804 8.077196 -1.000000 -0.000000 -0.000000 -0.000000 -0.000000 1.000000 3.501603 1.781250 0 0 0 0 0.000000 0.000000 0.000000 0.000000
-32.308800 -3.505204 8.077196 -1.000000 -0.000000 -0.000000 -0.000000 -0.000000 1.000000 3.501603 1.218750 0 0 0 0 0.000000 0.000000 0.000000 0.000000
-32.308800 -3.505204 8.839196 -1.000000 -0.000000 -0.000000 0.000000 0.000000 -1.000000 3.822115 1.218750 0 0 0 0 0.000000 0.000000 0.000000 0.000000
-36.804600 -3.657604 7.315196 1.000000 0.000000 0.000000 -0.000000 -0.000000 1.000000 3.609954 1.250000 0 0 0 0 0.000000 0.000000 0.000000 0.000000
-36.804600 -4.876804 7.315196 1.000000 0.000000 0.000000 -0.000000 -0.000000 1.000000 3.609954 1.750000 0 0 0 0 0.000000 0.000000 0.000000 0.000000
-36.804600 -4.876804 7.391397 1.000000 0.000000 0.000000 -0.000000 -0.000000 1.000000 3.648534 1.750000 0 0 0 0 0.000000 0.000000 0.000000 0.000000
-36.804600 -3.657604 7.391397 1.000000 0.000000 0.000000 -0.000000 -0.000000 1.000000 3.648534 1.250000 0 0 0 0 0.000000 0.000000 0.000000 0.000000
-36.804600 -3.657604 4.114796 1.000000 0.000000 0.000000 -0.000000 -0.000000 1.000000 1.989583 1.250000 0 0 0 0 0.000000 0.000000 0.000000 0.000000
-36.804600 -4.876804 4.114796 1.000000 0.000000 0.000000 -0.000000 -0.000000 1.000000 1.989583 1.750000 0 0 0 0 0.000000 0.000000 0.000000 0.000000
IndexCount: 183
3 1 0
3 2 1
7 5 4
7 6 5
5 6 38
5 38 37
37 36 5
36 37 42
36 42 41
36 41 40
40 39 36
11 9 8
11 8 18
11 10 9
18 19 11
18 20 19
20 18 21
21 22 20
21 25 24
21 24 23
21 23 22
12 17 16
12 16 15
12 15 14
14 13 12
63 17 62
63 62 61
69 64 63
69 63 61
69 68 67
69 67 66
69 66 65
69 65 64
26 30 29
26 29 28
28 27 26
26 45 44
26 44 43
43 30 26
31 35 34
31 34 33
33 32 31
31 48 47
31 47 46
46 35 31
49 54 53
49 53 52
49 52 51
51 50 49
55 60 59
55 59 58
55 58 57
57 56 55
70 75 74
70 74 73
70 73 72
72 71 70
79 77 76
77 80 76
79 78 77
77 81 80
