VertexCount: 30
-10.629901 -3.352803 11.125198 0.000000 0.000000 -1.000000 1.000000 -0.000000 0.000000 -7.859375 5.968750 0 0 0 0 0.000000 0.000000 0.000000 0.000000
-9.601201 -3.352803 11.125198 0.000000 0.000000 -1.000000 1.000000 -0.000000 0.000000 -7.015625 5.968750 0 0 0 0 0.000000 0.000000 0.000000 0.000000
-9.601201 -2.743203 11.125198 0.000000 0.000000 -1.000000 1.000000 -0.000000 0.000000 -7.015625 4.968750 0 0 0 0 0.000000 0.000000 0.000000 0.000000
-10.629901 -2.743203 11.125198 0.000000 0.000000 -1.000000 1.000000 -0.000000 0.000000 -7.859375 4.968750 0 0 0 0 0.000000 0.000000 0.000000 0.000000
-5.791200 -3.962402 7.296148 0.000000 -1.000000 -0.000000 1.000000 0.000000 0.000000 -4.328125 -11.343750 0 0 0 0 0.000000 0.000000 0.000000 0.000000
-5.943600 -3.962402 7.296148 0.000000 -1.000000 -0.000000 1.000000 0.000000 0.000000 -4.453125 -11.343750 0 0 0 0 0.000000 0.000000 0.000000 0.000000
-5.943600 -3.962402 7.467599 0.000000 -1.000000 -0.000000 1.000000 0.000000 0.000000 -4.453125 -11.625000 0 0 0 0 0.000000 0.000000 0.000000 0.000000
-5.791200 -3.962402 7.467599 0.000000 -1.000000 -0.000000 1.000000 0.000000 0.000000 -4.328125 -11.625000 0 0 0 0 0.000000 0.000000 0.000000 0.000000
-5.943601 -3.352802 7.296148 -1.000000 -0.000000 -0.000000 -0.000000 -0.000000 1.000000 5.703125 6.000000 0 0 0 0 0.000000 0.000000 0.000000 0.000000
-5.943601 -2.743202 7.296148 -1.000000 -0.000000 -0.000000 -0.000000 -0.000000 1.000000 5.703125 5.000000 0 0 0 0 0.000000 0.000000 0.000000 0.000000
-5.943601 -2.743202 7.467599 -1.000000 -0.000000 -0.000000 -0.000000 -0.000000 1.000000 5.843750 5.000000 0 0 0 0 0.000000 0.000000 0.000000 0.000000
-5.943601 -3.352802 7.467599 -1.000000 -0.000000 -0.000000 -0.000000 -0.000000 1.000000 5.843750 6.000000 0 0 0 0 0.000000 0.000000 0.000000 0.000000
-5.791199 -3.962401 2.895599 0.000000 -1.000000 -0.000000 1.000000 0.000000 0.000000 -4.328125 -4.625000 0 0 0 0 0.000000 0.000000 0.000000 0.000000
-5.943600 -3.962401 2.895599 0.000000 -1.000000 -0.000000 1.000000 0.000000 0.000000 -4.453125 -4.625000 0 0 0 0 0.000000 0.000000 0.000000 0.000000
-5.943600 -3.962401 3.581399 0.000000 -1.000000 -0.000000 1.000000 0.000000 0.000000 -4.453125 -5.750000 0 0 0 0 0.000000 0.000000 0.000000 0.000000
-5.791200 -3.962401 3.581399 0.000000 -1.000000 -0.000000 1.000000 0.000000 0.000000 -4.328125 -5.750000 0 0 0 0 0.000000 0.000000 0.000000 0.000000
-5.791200 -3.962401 7.010399 0.000000 -1.000000 -0.000000 1.000000 0.000000 0.000000 -4.328125 -10.875000 0 0 0 0 0.000000 0.000000 0.000000 0.000000
-5.943600 -3.962401 7.010399 0.000000 -1.000000 -0.000000 1.000000 0.000000 0.000000 -4.453125 -10.875000 0 0 0 0 0.000000 0.000000 0.000000 0.000000
-5.943601 -3.352801 7.010399 -1.000000 -0.000000 -0.000000 -0.000000 -0.000001 1.000000 5.468750 6.000000 0 0 0 0 0.000000 0.000000 0.000000 0.000000
-5.943601 -2.743201 7.010399 -1.000000 -0.000000 -0.000000 -0.000000 -0.000001 1.000000 5.468750 5.000000 0 0 0 0 0.000000 0.000000 0.000000 0.000000
-5.943600 -3.352801 2.895599 -1.000000 -0.000000 -0.000000 -0.000000 -0.000000 1.000000 1.487216 6.000000 0 0 0 0 0.000000 0.000000 0.000000 0.000000
-5.943600 -2.743201 2.895599 -1.000000 -0.000000 -0.000000 -0.000000 -0.000000 1.000000 1.487216 5.000000 0 0 0 0 0.000000 0.000000 0.000000 0.000000
-5.943601 -2.743201 3.581399 -1.000000 -0.000000 -0.000000 -0.000000 -0.000000 1.000000 1.998580 5.000000 0 0 0 0 0.000000 0.000000 0.000000 0.000000
-5.943601 -3.352801 3.581399 -1.000000 -0.000000 -0.000000 -0.000000 -0.000000 1.000000 1.998580 6.000000 0 0 0 0 0.000000 0.000000 0.000000 0.000000
-10.820401 -2.743203 11.125198 0.000000 0.000000 -1.000000 1.000000 -0.000000 0.000000 -8.015625 4.968750 0 0 0 0 0.000000 0.000000 0.000000 0.000000
-10.820401 -3.352803 11.125198 0.000000 0.000000 -1.000000 1.000000 -0.000000 0.000000 -8.015625 5.968750 0 0 0 0 0.000000 0.000000 0.000000 0.000000
-13.487401 -3.810003 10.667997 -0.000000 0.948683 -0.316227 1.000000 0.000000 -0.000000 -10.203125 -17.000000 0 0 0 0 0.000000 0.000000 0.000000 0.000000
-13.868402 -3.810003 10.667997 -0.000000 0.948683 -0.316227 1.000000 0.000000 -0.000000 -10.515625 -17.000000 0 0 0 0 0.000000 0.000000 0.000000 0.000000
-13.868402 -3.962403 10.210798 -0.000000 0.948683 -0.316227 1.000000 0.000000 -0.000000 -10.515625 -16.250000 0 0 0 0 0.000000 0.000000 0.000000 0.000000
-13.487401 -3.962403 10.210798 -0.000000 0.948683 -0.316227 1.000000 0.000000 -0.000000 -10.203125 -16.250000 0 0 0 0 0.000000 0.000000 0.000000 0.000000
IndexCount: 54
3 1 0
25 3 0
3 2 1
25 24 3
7 5 4
5 16 4
7 6 5
5 17 16
11 9 8
9 18 8
11 10 9
9 19 18
15 13 12
15 14 13
23 21 20
23 22 21
29 27 26
29 28 27
