VertexCount: 16
0.152402 -1.828796 -21.259800 0.707108 -0.707105 -0.000000 -0.000000 -0.000000 1.000000 -8.296875 0.179688 0 0 0 0 0.000000 0.000000 0.000000 0.000000
0.076202 -1.904996 -21.183598 0.707108 -0.707105 -0.000000 -0.000000 -0.000000 1.000000 -8.265625 0.148438 0 0 0 0 0.000000 0.000000 0.000000 0.000000
0.076202 -1.904997 -20.878798 0.707108 -0.707105 -0.000000 -0.000000 -0.000000 1.000000 -8.140625 0.148438 0 0 0 0 0.000000 0.000000 0.000000 0.000000
0.152402 -1.828797 -20.802599 0.707108 -0.707105 -0.000000 -0.000000 -0.000000 1.000000 -8.109375 0.179688 0 0 0 0 0.000000 0.000000 0.000000 0.000000
-0.304798 -1.828796 -21.259800 0.000000 -0.707097 -0.707117 0.000000 -0.707117 0.707097 -8.101562 -0.773438 0 0 0 0 0.000000 0.000000 0.000000 0.000000
-0.228598 -1.904997 -21.183598 0.000000 -0.707097 -0.707117 0.000000 -0.707117 0.707097 -8.070312 -0.742188 0 0 0 0 0.000000 0.000000 0.000000 0.000000
0.076202 -1.904996 -21.183598 0.000000 -0.707097 -0.707117 -0.000000 -0.707117 0.707097 -8.070312 -0.617188 0 0 0 0 0.000000 0.000000 0.000000 0.000000
0.152402 -1.828796 -21.259800 0.000000 -0.707097 -0.707117 0.000000 -0.707117 0.707097 -8.101562 -0.585938 0 0 0 0 0.000000 0.000000 0.000000 0.000000
-0.304798 -1.828797 -20.802599 -0.707108 -0.707106 -0.000000 -0.000000 -0.000000 1.000000 -8.109375 -0.007812 0 0 0 0 0.000000 0.000000 0.000000 0.000000
-0.228598 -1.904997 -20.878798 -0.707108 -0.707106 -0.000000 -0.000000 -0.000000 1.000000 -8.140625 0.023438 0 0 0 0 0.000000 0.000000 0.000000 0.000000
-0.228598 -1.904997 -21.183598 -0.707108 -0.707106 -0.000000 -0.000000 -0.000000 1.000000 -8.265625 0.023438 0 0 0 0 0.000000 0.000000 0.000000 0.000000
-0.304798 -1.828796 -21.259800 -0.707108 -0.707106 -0.000000 -0.000000 -0.000000 1.000000 -8.296875 -0.007812 0 0 0 0 0.000000 0.000000 0.000000 0.000000
0.152402 -1.828797 -20.802599 -0.000000 -0.707104 0.707109 -0.000000 0.707109 0.707104 -7.640625 -0.273438 0 0 0 0 0.000000 0.000000 0.000000 0.000000
0.076202 -1.904997 -20.878798 -0.000000 -0.707104 0.707109 -0.000000 0.707109 0.707104 -7.671875 -0.304688 0 0 0 0 0.000000 0.000000 0.000000 0.000000
-0.228598 -1.904997 -20.878798 -0.000000 -0.707104 0.707109 -0.000000 0.707109 0.707104 -7.671875 -0.429688 0 0 0 0 0.000000 0.000000 0.000000 0.000000
-0.304798 -1.828797 -20.802599 -0.000000 -0.707104 0.707109 -0.000000 0.707109 0.707104 -7.640625 -0.460938 0 0 0 0 0.000000 0.000000 0.000000 0.000000
IndexCount: 24
3 1 0
3 2 1
7 5 4
7 6 5
11 9 8
11 10 9
15 13 12
15 14 13
