VertexCount: 9
-5.029201 -1.219202 7.296149 1.000000 0.000000 0.000000 -0.000000 -0.000000 1.000000 2.523438 4.000000 0 0 0 0 0.000000 0.000000 0.000000 0.000000
-5.029201 -1.219202 8.458200 1.000000 0.000000 0.000000 -0.000000 -0.000000 1.000000 3.000000 4.000000 0 0 0 0 0.000000 0.000000 0.000000 0.000000
-5.029201 -0.914402 8.458200 1.000000 0.000000 0.000000 -0.000000 -0.000000 1.000000 3.000000 3.000000 0 0 0 0 0.000000 0.000000 0.000000 0.000000
-5.029201 -0.914402 7.467599 1.000000 0.000000 0.000000 -0.000000 -0.000000 1.000000 2.593750 3.000000 0 0 0 0 0.000000 0.000000 0.000000 0.000000
-5.029201 -0.914402 7.296149 1.000000 0.000000 0.000000 -0.000000 -0.000000 1.000000 2.523438 3.000000 0 0 0 0 0.000000 0.000000 0.000000 0.000000
-5.029201 -0.914402 7.162799 1.000000 0.000000 0.000000 -0.000000 -0.000000 1.000000 2.468750 3.000000 0 0 0 0 0.000000 0.000000 0.000000 0.000000
-5.029201 -0.914401 6.172200 1.000000 0.000000 0.000000 -0.000000 -0.000000 1.000000 2.062500 3.000000 0 0 0 0 0.000000 0.000000 0.000000 0.000000
-5.029201 -0.914401 6.019800 1.000000 0.000000 0.000000 -0.000000 -0.000000 1.000000 2.000000 3.000000 0 0 0 0 0.000000 0.000000 0.000000 0.000000
-5.029201 -1.219201 6.019800 1.000000 0.000000 0.000000 -0.000000 -0.000000 1.000000 2.000000 4.000000 0 0 0 0 0.000000 0.000000 0.000000 0.000000
IndexCount: 21
0 4 3
0 3 2
2 1 0
0 8 7
0 7 6
0 6 5
5 4 0
