VertexCount: 84
-20.726398 -4.114799 -14.249403 0.000000 0.000000 -1.000000 1.000000 0.000000 0.000000 -16.234375 3.000000 0 0 0 0 0.000000 0.000000 0.000000 0.000000
-20.726398 -3.505199 -14.249401 0.000000 0.000000 -1.000000 1.000000 0.000000 0.000000 -16.234375 2.500000 0 0 0 0 0.000000 0.000000 0.000000 0.000000
-21.640799 -3.505200 -14.249403 0.000000 0.000000 -1.000000 1.000000 0.000000 0.000000 -16.984375 2.500000 0 0 0 0 0.000000 0.000000 0.000000 0.000000
-21.640799 -4.114799 -14.249404 0.000000 0.000000 -1.000000 1.000000 0.000000 0.000000 -16.984375 3.000000 0 0 0 0 0.000000 0.000000 0.000000 0.000000
-21.640800 -4.114800 -7.124702 -0.707106 -0.000000 0.707108 0.707108 0.000000 0.707106 -5.031250 3.000000 0 0 0 0 0.000000 0.000000 0.000000 0.000000
-21.640800 -3.505201 -7.124702 -0.707106 -0.000000 0.707108 0.707108 0.000000 0.707106 -5.031250 2.500000 0 0 0 0 0.000000 0.000000 0.000000 0.000000
-21.526501 -3.505201 -7.010403 -0.707106 -0.000000 0.707108 0.707108 0.000000 0.707106 -4.937500 2.500000 0 0 0 0 0.000000 0.000000 0.000000 0.000000
-21.526501 -4.114800 -7.010403 -0.707106 -0.000000 0.707108 0.707108 0.000000 0.707106 -4.937500 3.000000 0 0 0 0 0.000000 0.000000 0.000000 0.000000
-20.726400 -4.114800 -9.829802 1.000000 0.000000 0.000000 -0.000000 -0.000000 1.000000 -7.250000 3.000000 0 0 0 0 0.000000 0.000000 0.000000 0.000000
-20.726400 -3.505200 -9.829802 1.000000 0.000000 0.000000 -0.000000 -0.000000 1.000000 -7.250000 2.500000 0 0 0 0 0.000000 0.000000 0.000000 0.000000
-20.726400 -3.505200 -9.982202 1.000000 0.000000 0.000000 -0.000000 -0.000000 1.000000 -7.375000 2.500000 0 0 0 0 0.000000 0.000000 0.000000 0.000000
-20.726400 -4.114800 -9.982202 1.000000 0.000000 0.000000 -0.000000 -0.000000 1.000000 -7.375000 3.000000 0 0 0 0 0.000000 0.000000 0.000000 0.000000
-18.364199 -4.114800 -7.924802 0.000000 0.000000 -1.000000 1.000000 -0.000000 0.000000 -14.296875 3.000000 0 0 0 0 0.000000 0.000000 0.000000 0.000000
-18.364199 -3.505200 -7.924802 0.000000 0.000000 -1.000000 1.000000 -0.000000 0.000000 -14.296875 2.500000 0 0 0 0 0.000000 0.000000 0.000000 0.000000
-18.516598 -3.505200 -7.924802 0.000000 0.000000 -1.000000 1.000000 -0.000000 0.000000 -14.421875 2.500000 0 0 0 0 0.000000 0.000000 0.000000 0.000000
-18.516598 -4.114800 -7.924802 0.000000 0.000000 -1.000000 1.000000 -0.000000 0.000000 -14.421875 3.000000 0 0 0 0 0.000000 0.000000 0.000000 0.000000
-18.516598 -4.114800 -7.924802 -1.000000 -0.000000 -0.000000 -0.000000 -0.000000 1.000000 -5.687500 3.000000 0 0 0 0 0.000000 0.000000 0.000000 0.000000
-18.516598 -3.505200 -7.924802 -1.000000 -0.000000 -0.000000 -0.000000 -0.000000 1.000000 -5.687500 2.500000 0 0 0 0 0.000000 0.000000 0.000000 0.000000
-18.516598 -3.505201 -7.010403 -1.000000 -0.000000 -0.000000 -0.000000 -0.000000 1.000000 -4.937500 2.500000 0 0 0 0 0.000000 0.000000 0.000000 0.000000
-18.516598 -4.114800 -7.010403 -1.000000 -0.000000 -0.000000 -0.000000 -0.000000 1.000000 -4.937500 3.000000 0 0 0 0 0.000000 0.000000 0.000000 0.000000
-18.364199 -4.114800 -7.010403 1.000000 0.000000 0.000000 -0.000000 -0.000004 1.000000 -4.984375 3.000000 0 0 0 0 0.000000 0.000000 0.000000 0.000000
-18.364199 -3.505201 -7.010403 1.000000 0.000000 0.000000 -0.000000 -0.000004 1.000000 -4.984375 2.500000 0 0 0 0 0.000000 0.000000 0.000000 0.000000
-18.364199 -3.505200 -7.924802 1.000000 0.000000 0.000000 -0.000000 -0.000000 1.000000 -5.734375 2.500000 0 0 0 0 0.000000 0.000000 0.000000 0.000000
-18.364199 -4.114800 -7.924802 1.000000 0.000000 0.000000 -0.000000 -0.000000 1.000000 -5.734375 3.000000 0 0 0 0 0.000000 0.000000 0.000000 0.000000
-18.364199 -4.114800 -7.696202 1.000000 0.000000 0.000000 0.000000 0.000000 -1.000000 -5.546875 3.000000 0 0 0 0 0.000000 0.000000 0.000000 0.000000
-18.364199 -4.114800 -7.086603 1.000000 0.000000 0.000000 -0.000000 -0.000004 1.000000 -5.046875 3.000000 0 0 0 0 0.000000 0.000000 0.000000 0.000000
-21.640800 -4.114800 -9.829802 -0.000000 -0.000000 1.000000 1.000000 -0.000000 0.000000 -16.937500 3.000000 0 0 0 0 0.000000 0.000000 0.000000 0.000000
-21.640800 -3.505200 -9.829802 -0.000000 -0.000000 1.000000 1.000000 -0.000000 0.000000 -16.937500 2.500000 0 0 0 0 0.000000 0.000000 0.000000 0.000000
-20.726400 -3.505200 -9.829802 -0.000000 -0.000000 1.000000 1.000000 -0.000000 0.000000 -16.187500 2.500000 0 0 0 0 0.000000 0.000000 0.000000 0.000000
-20.726400 -4.114800 -9.829802 -0.000000 -0.000000 1.000000 1.000000 -0.000000 0.000000 -16.187500 3.000000 0 0 0 0 0.000000 0.000000 0.000000 0.000000
-20.878798 -4.114800 -7.658102 0.707101 -0.000000 -0.707113 0.707113 -0.000000 0.707101 -5.468750 3.000000 0 0 0 0 0.000000 0.000000 0.000000 0.000000
-20.878798 -3.505201 -7.658102 0.707101 -0.000000 -0.707113 0.707113 -0.000000 0.707101 -5.468750 2.500000 0 0 0 0 0.000000 0.000000 0.000000 0.000000
-20.935949 -3.505201 -7.715252 0.707101 -0.000000 -0.707113 0.707113 -0.000000 0.707101 -5.515625 2.500000 0 0 0 0 0.000000 0.000000 0.000000 0.000000
-20.993099 -3.505201 -7.772402 0.707101 -0.000000 -0.707113 0.707113 0.000000 0.707101 -5.562500 2.500000 0 0 0 0 0.000000 0.000000 0.000000 0.000000
-20.993099 -4.114800 -7.772402 0.707101 -0.000000 -0.707113 0.707113 -0.000000 0.707101 -5.562500 3.000000 0 0 0 0 0.000000 0.000000 0.000000 0.000000
-21.526501 -4.114800 -7.010403 0.707106 -0.000000 0.707107 -0.707107 -0.000000 0.707106 -4.937500 3.000000 0 0 0 0 0.000000 0.000000 0.000000 0.000000
-21.526501 -3.505201 -7.010403 0.707106 -0.000000 0.707107 -0.707107 -0.000000 0.707106 -4.937500 2.500000 0 0 0 0 0.000000 0.000000 0.000000 0.000000
-20.878798 -3.505201 -7.658102 0.707106 -0.000000 0.707107 -0.707107 -0.000000 0.707106 -5.468750 2.500000 0 0 0 0 0.000000 0.000000 0.000000 0.000000
-20.878798 -4.114800 -7.658102 0.707106 -0.000000 0.707107 -0.707107 -0.000000 0.707106 -5.468750 3.000000 0 0 0 0 0.000000 0.000000 0.000000 0.000000
-20.993099 -4.114800 -7.772402 -0.707107 0.000000 -0.707107 -0.707107 -0.000000 0.707107 -5.562500 3.000000 0 0 0 0 0.000000 0.000000 0.000000 0.000000
-20.993099 -3.505201 -7.772402 -0.707107 0.000000 -0.707107 -0.707107 -0.000000 0.707107 -5.562500 2.500000 0 0 0 0 0.000000 0.000000 0.000000 0.000000
-21.640800 -3.505201 -7.124702 -0.707107 0.000000 -0.707107 -0.707107 -0.000000 0.707107 -5.031250 2.500000 0 0 0 0 0.000000 0.000000 0.000000 0.000000
-21.640800 -4.114800 -7.124702 -0.707107 0.000000 -0.707107 -0.707107 -0.000000 0.707107 -5.031250 3.000000 0 0 0 0 0.000000 0.000000 0.000000 0.000000
-20.726400 -4.114800 -9.982202 0.000000 0.000000 -1.000000 1.000000 -0.000000 0.000000 -16.187500 3.000000 0 0 0 0 0.000000 0.000000 0.000000 0.000000
-20.726400 -3.505200 -9.982202 0.000000 0.000000 -1.000000 1.000000 -0.000000 0.000000 -16.187500 2.500000 0 0 0 0 0.000000 0.000000 0.000000 0.000000
-21.640800 -3.505200 -9.982202 0.000000 0.000000 -1.000000 1.000000 -0.000000 0.000000 -16.937500 2.500000 0 0 0 0 0.000000 0.000000 0.000000 0.000000
-21.640800 -4.114800 -9.982202 0.000000 0.000000 -1.000000 1.000000 -0.000000 0.000000 -16.937500 3.000000 0 0 0 0 0.000000 0.000000 0.000000 0.000000
-20.726398 -4.114799 -14.097002 1.000000 0.000000 0.000000 -0.000000 -0.000000 1.000000 -10.796875 3.000000 0 0 0 0 0.000000 0.000000 0.000000 0.000000
-20.726398 -3.505199 -14.097000 1.000000 0.000000 0.000000 -0.000000 -0.000000 1.000000 -10.796875 2.500000 0 0 0 0 0.000000 0.000000 0.000000 0.000000
-20.726398 -3.505199 -14.249401 1.000000 0.000000 0.000000 -0.000000 -0.000000 1.000000 -10.921875 2.500000 0 0 0 0 0.000000 0.000000 0.000000 0.000000
-20.726398 -4.114799 -14.249403 1.000000 0.000000 0.000000 -0.000000 -0.000000 1.000000 -10.921875 3.000000 0 0 0 0 0.000000 0.000000 0.000000 0.000000
-21.640799 -4.114799 -14.097003 -0.000000 -0.000000 1.000000 1.000000 0.000000 0.000000 -16.984375 3.000000 0 0 0 0 0.000000 0.000000 0.000000 0.000000
-21.640799 -3.505200 -14.097002 -0.000000 -0.000000 1.000000 1.000000 0.000000 0.000000 -16.984375 2.500000 0 0 0 0 0.000000 0.000000 0.000000 0.000000
-20.726398 -3.505199 -14.097000 -0.000000 -0.000000 1.000000 1.000000 0.000000 0.000000 -16.234375 2.500000 0 0 0 0 0.000000 0.000000 0.000000 0.000000
-20.726398 -4.114799 -14.097002 -0.000000 -0.000000 1.000000 1.000000 0.000000 0.000000 -16.234375 3.000000 0 0 0 0 0.000000 0.000000 0.000000 0.000000
-18.516598 -4.114799 -17.068802 -1.000000 -0.000000 -0.000000 -0.000000 -0.000000 1.000000 -13.234375 3.000000 0 0 0 0 0.000000 0.000000 0.000000 0.000000
-18.516598 -3.505199 -17.068800 -1.000000 -0.000000 -0.000000 -0.000000 -0.000000 1.000000 -13.234375 2.500000 0 0 0 0 0.000000 0.000000 0.000000 0.000000
-18.516598 -3.505199 -16.154400 -1.000000 -0.000000 -0.000000 -0.000000 -0.000000 1.000000 -12.484375 2.500000 0 0 0 0 0.000000 0.000000 0.000000 0.000000
-18.516598 -4.114799 -16.154402 -1.000000 -0.000000 -0.000000 -0.000000 -0.000000 1.000000 -12.484375 3.000000 0 0 0 0 0.000000 0.000000 0.000000 0.000000
-18.516598 -4.114799 -16.154402 -0.000000 -0.000000 1.000000 1.000000 -0.000000 0.000000 -14.421875 3.000000 0 0 0 0 0.000000 0.000000 0.000000 0.000000
-18.516598 -3.505199 -16.154400 -0.000000 -0.000000 1.000000 1.000000 -0.000000 0.000000 -14.421875 2.500000 0 0 0 0 0.000000 0.000000 0.000000 0.000000
-18.364199 -3.505199 -16.154400 -0.000000 -0.000000 1.000000 1.000000 -0.000000 0.000000 -14.296875 2.500000 0 0 0 0 0.000000 0.000000 0.000000 0.000000
-18.364199 -4.114799 -16.154402 -0.000000 -0.000000 1.000000 1.000000 -0.000000 0.000000 -14.296875 3.000000 0 0 0 0 0.000000 0.000000 0.000000 0.000000
-18.364199 -4.114799 -16.154402 1.000000 0.000000 0.000000 -0.000000 -0.000000 1.000000 -12.281250 3.000000 0 0 0 0 0.000000 0.000000 0.000000 0.000000
-18.364199 -3.505199 -16.154400 1.000000 0.000000 0.000000 -0.000000 -0.000000 1.000000 -12.281250 2.500000 0 0 0 0 0.000000 0.000000 0.000000 0.000000
-18.364199 -3.505199 -17.068800 1.000000 0.000000 0.000000 -0.000000 -0.000000 1.000000 -13.031250 2.500000 0 0 0 0 0.000000 0.000000 0.000000 0.000000
-18.364199 -4.114799 -17.068802 1.000000 0.000000 0.000000 -0.000000 -0.000000 1.000000 -13.031250 3.000000 0 0 0 0 0.000000 0.000000 0.000000 0.000000
-21.526499 -4.114799 -17.068804 -0.707106 0.000000 -0.707108 -0.707108 0.000000 0.707105 -13.234375 3.000000 0 0 0 0 0.000000 0.000000 0.000000 0.000000
-21.526499 -3.505199 -17.068802 -0.707106 0.000000 -0.707108 -0.707108 0.000000 0.707105 -13.234375 2.500000 0 0 0 0 0.000000 0.000000 0.000000 0.000000
-21.640799 -3.505199 -16.954502 -0.707106 0.000000 -0.707108 -0.707108 0.000000 0.707105 -13.140625 2.500000 0 0 0 0 0.000000 0.000000 0.000000 0.000000
-21.640799 -4.114799 -16.954504 -0.707106 0.000000 -0.707108 -0.707108 0.000000 0.707105 -13.140625 3.000000 0 0 0 0 0.000000 0.000000 0.000000 0.000000
-20.878796 -4.114799 -16.421103 0.707106 0.000000 -0.707108 0.707108 -0.000000 0.707106 -12.703125 3.000000 0 0 0 0 0.000000 0.000000 0.000000 0.000000
-20.878796 -3.505199 -16.421103 0.707106 0.000000 -0.707108 0.707108 -0.000000 0.707106 -12.703125 2.500000 0 0 0 0 0.000000 0.000000 0.000000 0.000000
-21.526499 -3.505199 -17.068802 0.707106 0.000000 -0.707108 0.707108 -0.000000 0.707106 -13.234375 2.500000 0 0 0 0 0.000000 0.000000 0.000000 0.000000
-21.526499 -4.114799 -17.068804 0.707106 0.000000 -0.707108 0.707108 -0.000000 0.707106 -13.234375 3.000000 0 0 0 0 0.000000 0.000000 0.000000 0.000000
-20.993097 -4.114799 -16.306805 0.707101 -0.000001 0.707113 -0.707113 -0.000000 0.707101 -12.609375 3.000000 0 0 0 0 0.000000 0.000000 0.000000 0.000000
-20.993097 -3.505199 -16.306803 0.707101 -0.000001 0.707113 -0.707113 -0.000000 0.707101 -12.609375 2.500000 0 0 0 0 0.000000 0.000000 0.000000 0.000000
-20.935947 -3.505199 -16.363951 0.707101 -0.000001 0.707113 -0.707113 -0.000000 0.707101 -12.656250 2.500000 0 0 0 0 0.000000 0.000000 0.000000 0.000000
-20.878796 -3.505199 -16.421103 0.707101 -0.000001 0.707113 -0.707113 0.000000 0.707101 -12.703125 2.500000 0 0 0 0 0.000000 0.000000 0.000000 0.000000
-20.878796 -4.114799 -16.421103 0.707101 -0.000001 0.707113 -0.707113 -0.000000 0.707101 -12.703125 3.000000 0 0 0 0 0.000000 0.000000 0.000000 0.000000
-21.640799 -4.114799 -16.954504 -0.707107 -0.000000 0.707107 0.707107 -0.000000 0.707107 -13.140625 3.000000 0 0 0 0 0.000000 0.000000 0.000000 0.000000
-21.640799 -3.505199 -16.954502 -0.707107 -0.000000 0.707107 0.707107 -0.000000 0.707107 -13.140625 2.500000 0 0 0 0 0.000000 0.000000 0.000000 0.000000
-20.993097 -3.505199 -16.306803 -0.707107 -0.000000 0.707107 0.707107 -0.000000 0.707107 -12.609375 2.500000 0 0 0 0 0.000000 0.000000 0.000000 0.000000
-20.993097 -4.114799 -16.306805 -0.707107 -0.000000 0.707107 0.707107 -0.000000 0.707107 -12.609375 3.000000 0 0 0 0 0.000000 0.000000 0.000000 0.000000
IndexCount: 132
3 1 0
3 2 1
7 5 4
7 6 5
11 9 8
11 10 9
15 13 12
15 14 13
19 17 16
19 18 17
25 21 20
25 24 23
25 23 22
25 22 21
29 27 26
29 28 27
30 34 33
30 33 32
32 31 30
38 36 35
38 37 36
42 40 39
42 41 40
46 44 43
46 45 44
50 48 47
50 49 48
54 52 51
54 53 52
58 56 55
58 57 56
62 60 59
62 61 60
66 64 63
66 65 64
70 68 67
70 69 68
74 72 71
74 73 72
75 79 78
75 78 77
77 76 75
83 81 80
83 82 81
