VertexCount: 9
-6.705599 -4.114800 -1.676401 0.000000 0.000000 -1.000000 1.000000 -0.000000 0.000000 -7.000000 2.000000 0 0 0 0 0.000000 0.000000 0.000000 0.000000
-6.705600 -1.524000 -1.676401 0.000000 0.000000 -1.000000 1.000000 -0.000000 0.000000 -7.000000 0.937500 0 0 0 0 0.000000 0.000000 0.000000 0.000000
-7.620000 -1.524001 -1.676401 0.000000 0.000000 -1.000000 1.000000 0.000000 0.000000 -8.000000 0.937500 0 0 0 0 0.000000 0.000000 0.000000 0.000000
-7.619999 -4.114800 -1.676401 0.000000 0.000000 -1.000000 1.000000 -0.000000 0.000000 -8.000000 2.000000 0 0 0 0 0.000000 0.000000 0.000000 0.000000
-3.962399 -4.114799 -4.267201 0.000000 0.000000 -1.000000 1.000000 -0.000000 0.000000 -4.000000 2.000000 0 0 0 0 0.000000 0.000000 0.000000 0.000000
-3.962399 -1.524000 -4.267200 0.000000 0.000000 -1.000000 1.000000 -0.000000 0.000000 -4.000000 0.937500 0 0 0 0 0.000000 0.000000 0.000000 0.000000
-4.876800 -1.524000 -4.267200 0.000000 0.000000 -1.000000 1.000000 -0.000000 0.000000 -5.000000 0.937500 0 0 0 0 0.000000 0.000000 0.000000 0.000000
-4.876799 -4.114799 -4.267201 0.000000 0.000000 -1.000000 1.000000 -0.000000 0.000000 -5.000000 2.000000 0 0 0 0 0.000000 0.000000 0.000000 0.000000
-4.267200 -4.114799 -4.267201 0.000000 0.000000 -1.000000 -1.000000 0.000000 -0.000000 -4.333333 2.000000 0 0 0 0 0.000000 0.000000 0.000000 0.000000
IndexCount: 15
3 2 1
3 1 0
4 8 7
7 6 5
7 5 4
