VertexCount: 4
-4.876799 -4.114799 -4.267201 0.000000 0.000000 -1.000000 1.000000 0.000000 0.000000 -5.000000 2.000000 0 0 0 0 0.000000 0.000000 0.000000 0.000000
-4.876800 -1.524000 -4.267200 0.000000 0.000000 -1.000000 1.000000 0.000000 0.000000 -5.000000 0.937500 0 0 0 0 0.000000 0.000000 0.000000 0.000000
-5.791199 -1.524000 -4.267201 0.000000 0.000000 -1.000000 1.000000 0.000000 0.000000 -6.000000 0.937500 0 0 0 0 0.000000 0.000000 0.000000 0.000000
-5.791199 -4.114799 -4.267201 0.000000 0.000000 -1.000000 1.000000 0.000000 0.000000 -6.000000 2.000000 0 0 0 0 0.000000 0.000000 0.000000 0.000000
IndexCount: 6
3 2 1
3 1 0
