VertexCount: 4
3.657600 -3.867150 4.229100 -1.000000 -0.000000 -0.000000 -0.000000 -0.000000 1.000000 13.531250 13.031250 0 0 0 0 0.000000 0.000000 0.000000 0.000000
3.657600 -3.695700 4.229100 -1.000000 -0.000000 -0.000000 -0.000000 -0.000000 1.000000 13.531250 12.468750 0 0 0 0 0.000000 0.000000 0.000000 0.000000
3.657600 -3.695700 4.381500 -1.000000 -0.000000 -0.000000 -0.000000 -0.000000 1.000000 14.031250 12.468750 0 0 0 0 0.000000 0.000000 0.000000 0.000000
3.657600 -3.867150 4.381500 -1.000000 -0.000000 -0.000000 -0.000000 -0.000000 1.000000 14.031250 13.031250 0 0 0 0 0.000000 0.000000 0.000000 0.000000
IndexCount: 6
3 2 1
3 1 0
