VertexCount: 16
-8.610600 -4.114799 -8.534400 0.000000 -1.000000 -0.000000 1.000000 0.000000 0.000000 -7.062500 4.250000 0 0 0 0 0.000000 0.000000 0.000000 0.000000
-8.610600 -4.114799 -9.753600 0.000000 -1.000000 -0.000000 1.000000 0.000000 0.000000 -7.062500 4.821428 0 0 0 0 0.000000 0.000000 0.000000 0.000000
-8.763000 -4.114799 -9.753600 0.000000 -1.000000 -0.000000 1.000000 0.000000 0.000000 -7.187500 4.821428 0 0 0 0 0.000000 0.000000 0.000000 0.000000
-8.763000 -4.114799 -8.534400 0.000000 -1.000000 -0.000000 1.000000 0.000000 0.000000 -7.187500 4.250000 0 0 0 0 0.000000 0.000000 0.000000 0.000000
-8.610600 -1.981198 -9.753600 0.000000 1.000000 0.000000 1.000000 0.000000 0.000000 -7.062500 4.821428 0 0 0 0 0.000000 0.000000 0.000000 0.000000
-8.610600 -1.981199 -8.534400 0.000000 1.000000 0.000000 1.000000 0.000000 0.000000 -7.062500 4.250000 0 0 0 0 0.000000 0.000000 0.000000 0.000000
-8.763000 -1.981199 -8.534400 0.000000 1.000000 0.000000 1.000000 0.000000 0.000000 -7.187500 4.250000 0 0 0 0 0.000000 0.000000 0.000000 0.000000
-8.763000 -1.981198 -9.753600 0.000000 1.000000 0.000000 1.000000 0.000000 0.000000 -7.187500 4.821428 0 0 0 0 0.000000 0.000000 0.000000 0.000000
-8.610600 -1.981199 -8.534400 0.000000 -0.000000 1.000000 1.000000 0.000000 0.000000 -7.062500 0.821429 0 0 0 0 0.000000 0.000000 0.000000 0.000000
-8.610600 -4.114799 -8.534400 0.000000 -0.000000 1.000000 1.000000 0.000000 0.000000 -7.062500 1.821429 0 0 0 0 0.000000 0.000000 0.000000 0.000000
-8.763000 -4.114799 -8.534400 0.000000 -0.000000 1.000000 1.000000 0.000000 0.000000 -7.187500 1.821429 0 0 0 0 0.000000 0.000000 0.000000 0.000000
-8.763000 -1.981199 -8.534400 0.000000 -0.000000 1.000000 1.000000 0.000000 0.000000 -7.187500 0.821429 0 0 0 0 0.000000 0.000000 0.000000 0.000000
-8.763000 -1.981198 -9.753600 0.000000 0.000000 -1.000000 1.000000 0.000000 0.000000 -7.187500 0.821429 0 0 0 0 0.000000 0.000000 0.000000 0.000000
-8.763000 -4.114799 -9.753600 0.000000 0.000000 -1.000000 1.000000 0.000000 0.000000 -7.187500 1.821429 0 0 0 0 0.000000 0.000000 0.000000 0.000000
-8.610600 -4.114799 -9.753600 0.000000 0.000000 -1.000000 1.000000 0.000000 0.000000 -7.062500 1.821429 0 0 0 0 0.000000 0.000000 0.000000 0.000000
-8.610600 -1.981198 -9.753600 0.000000 0.000000 -1.000000 1.000000 0.000000 0.000000 -7.062500 0.821429 0 0 0 0 0.000000 0.000000 0.000000 0.000000
IndexCount: 24
3 1 0
3 2 1
7 5 4
7 6 5
11 9 8
11 10 9
15 13 12
15 14 13