VertexCount: 192
6.438900 -4.762500 4.610100 0.000000 -0.970143 0.242536 1.000000 0.000000 0.000000 20.500000 -15.312500 0 0 0 0 0.000000 0.000000 0.000000 0.000000
6.286500 -4.762500 4.610100 0.000000 -0.970143 0.242536 1.000000 0.000000 0.000000 20.000000 -15.312500 0 0 0 0 0.000000 0.000000 0.000000 0.000000
6.286500 -4.724400 4.762500 0.000000 -0.970143 0.242536 1.000000 0.000000 0.000000 20.000000 -15.812500 0 0 0 0 0.000000 0.000000 0.000000 0.000000
6.438900 -4.724400 4.762500 0.000000 -0.970143 0.242536 1.000000 0.000000 0.000000 20.500000 -15.812500 0 0 0 0 0.000000 0.000000 0.000000 0.000000
6.438900 -4.724400 4.457700 0.000000 -0.970142 -0.242536 1.000000 0.000000 0.000000 20.500000 -14.812500 0 0 0 0 0.000000 0.000000 0.000000 0.000000
6.286500 -4.724400 4.457700 0.000000 -0.970142 -0.242536 1.000000 0.000000 0.000000 20.000000 -14.812500 0 0 0 0 0.000000 0.000000 0.000000 0.000000
6.286500 -4.762500 4.610100 0.000000 -0.970142 -0.242536 1.000000 0.000000 0.000000 20.000000 -15.312500 0 0 0 0 0.000000 0.000000 0.000000 0.000000
6.438900 -4.762500 4.610100 0.000000 -0.970142 -0.242536 1.000000 0.000000 0.000000 20.500000 -15.312500 0 0 0 0 0.000000 0.000000 0.000000 0.000000
6.286500 -4.610100 4.876801 0.000000 -0.707107 0.707107 1.000000 0.000000 0.000000 20.000000 -16.000000 0 0 0 0 0.000000 0.000000 0.000000 0.000000
6.438900 -4.610100 4.876801 0.000000 -0.707107 0.707107 1.000000 0.000000 0.000000 20.500000 -16.000000 0 0 0 0 0.000000 0.000000 0.000000 0.000000
6.438900 -4.724400 4.762500 0.000000 -0.707107 0.707107 1.000000 0.000000 0.000000 20.500000 -15.625000 0 0 0 0 0.000000 0.000000 0.000000 0.000000
6.286500 -4.724400 4.762500 0.000000 -0.707107 0.707107 1.000000 0.000000 0.000000 20.000000 -15.625000 0 0 0 0 0.000000 0.000000 0.000000 0.000000
6.438900 -4.610100 4.343400 0.000000 -0.707107 -0.707107 1.000000 0.000000 0.000000 20.500000 -14.250000 0 0 0 0 0.000000 0.000000 0.000000 0.000000
6.286500 -4.610100 4.343400 0.000000 -0.707107 -0.707107 1.000000 0.000000 0.000000 20.000000 -14.250000 0 0 0 0 0.000000 0.000000 0.000000 0.000000
6.286500 -4.724400 4.457700 0.000000 -0.707107 -0.707107 1.000000 0.000000 0.000000 20.000000 -14.625000 0 0 0 0 0.000000 0.000000 0.000000 0.000000
6.438900 -4.724400 4.457700 0.000000 -0.707107 -0.707107 1.000000 0.000000 0.000000 20.500000 -14.625000 0 0 0 0 0.000000 0.000000 0.000000 0.000000
6.286500 -4.457700 4.914900 0.000000 -0.242536 0.970142 1.000000 0.000000 0.000000 20.000000 14.625000 0 0 0 0 0.000000 0.000000 0.000000 0.000000
6.438900 -4.457700 4.914900 0.000000 -0.242536 0.970142 1.000000 0.000000 0.000000 20.500000 14.625000 0 0 0 0 0.000000 0.000000 0.000000 0.000000
6.438900 -4.610100 4.876801 0.000000 -0.242536 0.970142 1.000000 0.000000 0.000000 20.500000 15.125000 0 0 0 0 0.000000 0.000000 0.000000 0.000000
6.286500 -4.610100 4.876801 0.000000 -0.242536 0.970142 1.000000 0.000000 0.000000 20.000000 15.125000 0 0 0 0 0.000000 0.000000 0.000000 0.000000
6.438900 -4.457700 4.305300 0.000000 -0.242535 -0.970143 1.000000 0.000000 0.000000 20.500000 14.625000 0 0 0 0 0.000000 0.000000 0.000000 0.000000
6.286500 -4.457700 4.305300 0.000000 -0.242535 -0.970143 1.000000 0.000000 0.000000 20.000000 14.625000 0 0 0 0 0.000000 0.000000 0.000000 0.000000
6.286500 -4.610100 4.343400 0.000000 -0.242535 -0.970143 1.000000 0.000000 0.000000 20.000000 15.125000 0 0 0 0 0.000000 0.000000 0.000000 0.000000
6.438900 -4.610100 4.343400 0.000000 -0.242535 -0.970143 1.000000 0.000000 0.000000 20.500000 15.125000 0 0 0 0 0.000000 0.000000 0.000000 0.000000
6.286500 -4.305300 4.876801 0.000000 0.242535 0.970143 1.000000 0.000000 0.000000 20.000000 14.125000 0 0 0 0 0.000000 0.000000 0.000000 0.000000
6.438900 -4.305300 4.876801 0.000000 0.242535 0.970143 1.000000 0.000000 0.000000 20.500000 14.125000 0 0 0 0 0.000000 0.000000 0.000000 0.000000
6.438900 -4.457700 4.914900 0.000000 0.242535 0.970143 1.000000 0.000000 0.000000 20.500000 14.625000 0 0 0 0 0.000000 0.000000 0.000000 0.000000
6.286500 -4.457700 4.914900 0.000000 0.242535 0.970143 1.000000 0.000000 0.000000 20.000000 14.625000 0 0 0 0 0.000000 0.000000 0.000000 0.000000
6.438900 -4.305300 4.343400 0.000000 0.242536 -0.970142 1.000000 0.000000 0.000000 20.500000 14.125000 0 0 0 0 0.000000 0.000000 0.000000 0.000000
6.286500 -4.305300 4.343400 0.000000 0.242536 -0.970142 1.000000 0.000000 0.000000 20.000000 14.125000 0 0 0 0 0.000000 0.000000 0.000000 0.000000
6.286500 -4.457700 4.305300 0.000000 0.242536 -0.970142 1.000000 0.000000 0.000000 20.000000 14.625000 0 0 0 0 0.000000 0.000000 0.000000 0.000000
6.438900 -4.457700 4.305300 0.000000 0.242536 -0.970142 1.000000 0.000000 0.000000 20.500000 14.625000 0 0 0 0 0.000000 0.000000 0.000000 0.000000
6.286500 -4.191000 4.762500 0.000000 0.707107 0.707107 1.000000 0.000000 0.000000 20.000000 -15.625000 0 0 0 0 0.000000 0.000000 0.000000 0.000000
6.438900 -4.191000 4.762500 0.000000 0.707107 0.707107 1.000000 0.000000 0.000000 20.500000 -15.625000 0 0 0 0 0.000000 0.000000 0.000000 0.000000
6.438900 -4.305300 4.876801 0.000000 0.707107 0.707107 1.000000 0.000000 0.000000 20.500000 -16.000000 0 0 0 0 0.000000 0.000000 0.000000 0.000000
6.286500 -4.305300 4.876801 0.000000 0.707107 0.707107 1.000000 0.000000 0.000000 20.000000 -16.000000 0 0 0 0 0.000000 0.000000 0.000000 0.000000
6.438900 -4.191000 4.457700 0.000000 0.707107 -0.707107 1.000000 0.000000 0.000000 20.500000 -14.812500 0 0 0 0 0.000000 0.000000 0.000000 0.000000
6.286500 -4.191000 4.457700 0.000000 0.707107 -0.707107 1.000000 0.000000 0.000000 20.000000 -14.812500 0 0 0 0 0.000000 0.000000 0.000000 0.000000
6.286500 -4.305300 4.343400 0.000000 0.707107 -0.707107 1.000000 0.000000 0.000000 20.000000 -14.437500 0 0 0 0 0.000000 0.000000 0.000000 0.000000
6.438900 -4.305300 4.343400 0.000000 0.707107 -0.707107 1.000000 0.000000 0.000000 20.500000 -14.437500 0 0 0 0 0.000000 0.000000 0.000000 0.000000
6.438900 -4.191000 4.762500 0.000000 0.970142 0.242536 1.000000 0.000000 0.000000 20.500000 -15.812500 0 0 0 0 0.000000 0.000000 0.000000 0.000000
6.286500 -4.191000 4.762500 0.000000 0.970142 0.242536 1.000000 0.000000 0.000000 20.000000 -15.812500 0 0 0 0 0.000000 0.000000 0.000000 0.000000
6.286500 -4.152900 4.610100 0.000000 0.970142 0.242536 1.000000 0.000000 0.000000 20.000000 -15.312500 0 0 0 0 0.000000 0.000000 0.000000 0.000000
6.438900 -4.152900 4.610100 0.000000 0.970142 0.242536 1.000000 0.000000 0.000000 20.500000 -15.312500 0 0 0 0 0.000000 0.000000 0.000000 0.000000
6.438900 -4.152900 4.610100 0.000000 0.970143 -0.242536 1.000000 0.000000 0.000000 20.500000 -15.312500 0 0 0 0 0.000000 0.000000 0.000000 0.000000
6.286500 -4.152900 4.610100 0.000000 0.970143 -0.242536 1.000000 0.000000 0.000000 20.000000 -15.312500 0 0 0 0 0.000000 0.000000 0.000000 0.000000
6.286500 -4.191000 4.457700 0.000000 0.970143 -0.242536 1.000000 0.000000 0.000000 20.000000 -14.812500 0 0 0 0 0.000000 0.000000 0.000000 0.000000
6.438900 -4.191000 4.457700 0.000000 0.970143 -0.242536 1.000000 0.000000 0.000000 20.500000 -14.812500 0 0 0 0 0.000000 0.000000 0.000000 0.000000
6.438900 -2.552700 7.429499 0.000000 -0.970143 0.242535 1.000000 0.000000 0.000000 20.500000 -24.312500 0 0 0 0 0.000000 0.000000 0.000000 0.000000
6.286500 -2.552700 7.429499 0.000000 -0.970143 0.242535 1.000000 0.000000 0.000000 20.000000 -24.312500 0 0 0 0 0.000000 0.000000 0.000000 0.000000
6.286500 -2.514600 7.581900 0.000000 -0.970143 0.242535 1.000000 0.000000 0.000000 20.000000 -24.812500 0 0 0 0 0.000000 0.000000 0.000000 0.000000
6.438900 -2.514600 7.581900 0.000000 -0.970143 0.242535 1.000000 0.000000 0.000000 20.500000 -24.812500 0 0 0 0 0.000000 0.000000 0.000000 0.000000
6.438900 -2.400300 7.162799 0.000000 -0.707107 -0.707107 1.000000 0.000000 0.000000 20.500000 -23.250000 0 0 0 0 0.000000 0.000000 0.000000 0.000000
6.286500 -2.400300 7.162799 0.000000 -0.707107 -0.707107 1.000000 0.000000 0.000000 20.000000 -23.250000 0 0 0 0 0.000000 0.000000 0.000000 0.000000
6.286500 -2.514600 7.277100 0.000000 -0.707107 -0.707107 1.000000 0.000000 0.000000 20.000000 -23.625000 0 0 0 0 0.000000 0.000000 0.000000 0.000000
6.438900 -2.514600 7.277100 0.000000 -0.707107 -0.707107 1.000000 0.000000 0.000000 20.500000 -23.625000 0 0 0 0 0.000000 0.000000 0.000000 0.000000
6.286500 -2.400300 7.696200 0.000000 -0.707107 0.707107 1.000000 0.000000 0.000000 20.000000 -25.000000 0 0 0 0 0.000000 0.000000 0.000000 0.000000
6.438900 -2.400300 7.696200 0.000000 -0.707107 0.707107 1.000000 0.000000 0.000000 20.500000 -25.000000 0 0 0 0 0.000000 0.000000 0.000000 0.000000
6.438900 -2.514600 7.581900 0.000000 -0.707107 0.707107 1.000000 0.000000 0.000000 20.500000 -24.625000 0 0 0 0 0.000000 0.000000 0.000000 0.000000
6.286500 -2.514600 7.581900 0.000000 -0.707107 0.707107 1.000000 0.000000 0.000000 20.000000 -24.625000 0 0 0 0 0.000000 0.000000 0.000000 0.000000
6.286500 -1.981200 7.581900 0.000000 0.707107 0.707107 1.000000 0.000000 0.000000 20.000000 -24.625000 0 0 0 0 0.000000 0.000000 0.000000 0.000000
6.438900 -1.981200 7.581900 0.000000 0.707107 0.707107 1.000000 0.000000 0.000000 20.500000 -24.625000 0 0 0 0 0.000000 0.000000 0.000000 0.000000
6.438900 -2.095500 7.696200 0.000000 0.707107 0.707107 1.000000 0.000000 0.000000 20.500000 -25.000000 0 0 0 0 0.000000 0.000000 0.000000 0.000000
6.286500 -2.095500 7.696200 0.000000 0.707107 0.707107 1.000000 0.000000 0.000000 20.000000 -25.000000 0 0 0 0 0.000000 0.000000 0.000000 0.000000
6.286500 -2.247900 7.734300 0.000000 -0.242536 0.970142 1.000000 0.000000 0.000000 20.000000 7.625000 0 0 0 0 0.000000 0.000000 0.000000 0.000000
6.438900 -2.247900 7.734300 0.000000 -0.242536 0.970142 1.000000 0.000000 0.000000 20.500000 7.625000 0 0 0 0 0.000000 0.000000 0.000000 0.000000
6.438900 -2.400300 7.696200 0.000000 -0.242536 0.970142 1.000000 0.000000 0.000000 20.500000 8.125000 0 0 0 0 0.000000 0.000000 0.000000 0.000000
6.286500 -2.400300 7.696200 0.000000 -0.242536 0.970142 1.000000 0.000000 0.000000 20.000000 8.125000 0 0 0 0 0.000000 0.000000 0.000000 0.000000
6.438900 -2.514600 7.277100 0.000000 -0.970142 -0.242536 1.000000 0.000000 0.000000 20.500000 -23.812500 0 0 0 0 0.000000 0.000000 0.000000 0.000000
6.286500 -2.514600 7.277100 0.000000 -0.970142 -0.242536 1.000000 0.000000 0.000000 20.000000 -23.812500 0 0 0 0 0.000000 0.000000 0.000000 0.000000
6.286500 -2.552700 7.429499 0.000000 -0.970142 -0.242536 1.000000 0.000000 0.000000 20.000000 -24.312500 0 0 0 0 0.000000 0.000000 0.000000 0.000000
6.438900 -2.552700 7.429499 0.000000 -0.970142 -0.242536 1.000000 0.000000 0.000000 20.500000 -24.312500 0 0 0 0 0.000000 0.000000 0.000000 0.000000
6.286500 -2.095500 7.696200 0.000000 0.242536 0.970143 1.000000 0.000000 0.000000 20.000000 7.125000 0 0 0 0 0.000000 0.000000 0.000000 0.000000
6.438900 -2.095500 7.696200 0.000000 0.242536 0.970143 1.000000 0.000000 0.000000 20.500000 7.125000 0 0 0 0 0.000000 0.000000 0.000000 0.000000
6.438900 -2.247900 7.734300 0.000000 0.242536 0.970143 1.000000 0.000000 0.000000 20.500000 7.625000 0 0 0 0 0.000000 0.000000 0.000000 0.000000
6.286500 -2.247900 7.734300 0.000000 0.242536 0.970143 1.000000 0.000000 0.000000 20.000000 7.625000 0 0 0 0 0.000000 0.000000 0.000000 0.000000
6.438900 -2.247900 7.124700 0.000000 -0.242536 -0.970143 1.000000 0.000000 0.000000 20.500000 7.625000 0 0 0 0 0.000000 0.000000 0.000000 0.000000
6.286500 -2.247900 7.124700 0.000000 -0.242536 -0.970143 1.000000 0.000000 0.000000 20.000000 7.625000 0 0 0 0 0.000000 0.000000 0.000000 0.000000
6.286500 -2.400300 7.162799 0.000000 -0.242536 -0.970143 1.000000 0.000000 0.000000 20.000000 8.125000 0 0 0 0 0.000000 0.000000 0.000000 0.000000
6.438900 -2.400300 7.162799 0.000000 -0.242536 -0.970143 1.000000 0.000000 0.000000 20.500000 8.125000 0 0 0 0 0.000000 0.000000 0.000000 0.000000
6.438900 -1.981200 7.581900 0.000000 0.970142 0.242536 1.000000 0.000000 0.000000 20.500000 -24.812500 0 0 0 0 0.000000 0.000000 0.000000 0.000000
6.286500 -1.981200 7.581900 0.000000 0.970142 0.242536 1.000000 0.000000 0.000000 20.000000 -24.812500 0 0 0 0 0.000000 0.000000 0.000000 0.000000
6.286500 -1.943100 7.429500 0.000000 0.970142 0.242536 1.000000 0.000000 0.000000 20.000000 -24.312500 0 0 0 0 0.000000 0.000000 0.000000 0.000000
6.438900 -1.943100 7.429500 0.000000 0.970142 0.242536 1.000000 0.000000 0.000000 20.500000 -24.312500 0 0 0 0 0.000000 0.000000 0.000000 0.000000
6.438900 -2.095500 7.162799 0.000000 0.242536 -0.970142 1.000000 0.000000 0.000000 20.500000 7.125000 0 0 0 0 0.000000 0.000000 0.000000 0.000000
6.286500 -2.095500 7.162799 0.000000 0.242536 -0.970142 1.000000 0.000000 0.000000 20.000000 7.125000 0 0 0 0 0.000000 0.000000 0.000000 0.000000
6.286500 -2.247900 7.124700 0.000000 0.242536 -0.970142 1.000000 0.000000 0.000000 20.000000 7.625000 0 0 0 0 0.000000 0.000000 0.000000 0.000000
6.438900 -2.247900 7.124700 0.000000 0.242536 -0.970142 1.000000 0.000000 0.000000 20.500000 7.625000 0 0 0 0 0.000000 0.000000 0.000000 0.000000
6.438900 -1.943100 7.429500 0.000000 0.970143 -0.242536 1.000000 0.000000 0.000000 20.500000 -24.312500 0 0 0 0 0.000000 0.000000 0.000000 0.000000
6.286500 -1.943100 7.429500 0.000000 0.970143 -0.242536 1.000000 0.000000 0.000000 20.000000 -24.312500 0 0 0 0 0.000000 0.000000 0.000000 0.000000
6.286500 -1.981200 7.277100 0.000000 0.970143 -0.242536 1.000000 0.000000 0.000000 20.000000 -23.812500 0 0 0 0 0.000000 0.000000 0.000000 0.000000
6.438900 -1.981200 7.277100 0.000000 0.970143 -0.242536 1.000000 0.000000 0.000000 20.500000 -23.812500 0 0 0 0 0.000000 0.000000 0.000000 0.000000
6.438900 -1.981200 7.277100 0.000000 0.707107 -0.707107 1.000000 0.000000 0.000000 20.500000 -23.812500 0 0 0 0 0.000000 0.000000 0.000000 0.000000
6.286500 -1.981200 7.277100 0.000000 0.707107 -0.707107 1.000000 0.000000 0.000000 20.000000 -23.812500 0 0 0 0 0.000000 0.000000 0.000000 0.000000
6.286500 -2.095500 7.162799 0.000000 0.707107 -0.707107 1.000000 0.000000 0.000000 20.000000 -23.437500 0 0 0 0 0.000000 0.000000 0.000000 0.000000
6.438900 -2.095500 7.162799 0.000000 0.707107 -0.707107 1.000000 0.000000 0.000000 20.500000 -23.437500 0 0 0 0 0.000000 0.000000 0.000000 0.000000
5.600700 -2.552700 7.429499 0.000000 -0.970143 0.242535 1.000000 0.000000 0.000000 18.875000 -24.312500 0 0 0 0 0.000000 0.000000 0.000000 0.000000
5.448300 -2.552700 7.429499 0.000000 -0.970143 0.242535 1.000000 0.000000 0.000000 18.375000 -24.312500 0 0 0 0 0.000000 0.000000 0.000000 0.000000
5.448300 -2.514600 7.581900 0.000000 -0.970143 0.242535 1.000000 0.000000 0.000000 18.375000 -24.812500 0 0 0 0 0.000000 0.000000 0.000000 0.000000
5.600700 -2.514600 7.581900 0.000000 -0.970143 0.242535 1.000000 0.000000 0.000000 18.875000 -24.812500 0 0 0 0 0.000000 0.000000 0.000000 0.000000
5.600700 -2.400300 7.162799 0.000000 -0.707107 -0.707107 1.000000 0.000000 0.000000 18.875000 -23.250000 0 0 0 0 0.000000 0.000000 0.000000 0.000000
5.448300 -2.400300 7.162799 0.000000 -0.707107 -0.707107 1.000000 0.000000 0.000000 18.375000 -23.250000 0 0 0 0 0.000000 0.000000 0.000000 0.000000
5.448300 -2.514600 7.277100 0.000000 -0.707107 -0.707107 1.000000 0.000000 0.000000 18.375000 -23.625000 0 0 0 0 0.000000 0.000000 0.000000 0.000000
5.600700 -2.514600 7.277100 0.000000 -0.707107 -0.707107 1.000000 0.000000 0.000000 18.875000 -23.625000 0 0 0 0 0.000000 0.000000 0.000000 0.000000
5.448300 -2.400300 7.696200 0.000000 -0.707107 0.707107 1.000000 0.000000 0.000000 18.375000 -25.000000 0 0 0 0 0.000000 0.000000 0.000000 0.000000
5.600700 -2.400300 7.696200 0.000000 -0.707107 0.707107 1.000000 0.000000 0.000000 18.875000 -25.000000 0 0 0 0 0.000000 0.000000 0.000000 0.000000
5.600700 -2.514600 7.581900 0.000000 -0.707107 0.707107 1.000000 0.000000 0.000000 18.875000 -24.625000 0 0 0 0 0.000000 0.000000 0.000000 0.000000
5.448300 -2.514600 7.581900 0.000000 -0.707107 0.707107 1.000000 0.000000 0.000000 18.375000 -24.625000 0 0 0 0 0.000000 0.000000 0.000000 0.000000
5.448300 -1.981200 7.581900 0.000000 0.707107 0.707107 1.000000 0.000000 0.000000 18.375000 -24.625000 0 0 0 0 0.000000 0.000000 0.000000 0.000000
5.600700 -1.981200 7.581900 0.000000 0.707107 0.707107 1.000000 0.000000 0.000000 18.875000 -24.625000 0 0 0 0 0.000000 0.000000 0.000000 0.000000
5.600700 -2.095500 7.696200 0.000000 0.707107 0.707107 1.000000 0.000000 0.000000 18.875000 -25.000000 0 0 0 0 0.000000 0.000000 0.000000 0.000000
5.448300 -2.095500 7.696200 0.000000 0.707107 0.707107 1.000000 0.000000 0.000000 18.375000 -25.000000 0 0 0 0 0.000000 0.000000 0.000000 0.000000
5.448300 -2.247900 7.734300 0.000000 -0.242536 0.970142 1.000000 0.000000 0.000000 18.375000 7.625000 0 0 0 0 0.000000 0.000000 0.000000 0.000000
5.600700 -2.247900 7.734300 0.000000 -0.242536 0.970142 1.000000 0.000000 0.000000 18.875000 7.625000 0 0 0 0 0.000000 0.000000 0.000000 0.000000
5.600700 -2.400300 7.696200 0.000000 -0.242536 0.970142 1.000000 0.000000 0.000000 18.875000 8.125000 0 0 0 0 0.000000 0.000000 0.000000 0.000000
5.448300 -2.400300 7.696200 0.000000 -0.242536 0.970142 1.000000 0.000000 0.000000 18.375000 8.125000 0 0 0 0 0.000000 0.000000 0.000000 0.000000
5.600700 -2.514600 7.277100 0.000000 -0.970142 -0.242536 1.000000 0.000000 0.000000 18.875000 -23.812500 0 0 0 0 0.000000 0.000000 0.000000 0.000000
5.448300 -2.514600 7.277100 0.000000 -0.970142 -0.242536 1.000000 0.000000 0.000000 18.375000 -23.812500 0 0 0 0 0.000000 0.000000 0.000000 0.000000
5.448300 -2.552700 7.429499 0.000000 -0.970142 -0.242536 1.000000 0.000000 0.000000 18.375000 -24.312500 0 0 0 0 0.000000 0.000000 0.000000 0.000000
5.600700 -2.552700 7.429499 0.000000 -0.970142 -0.242536 1.000000 0.000000 0.000000 18.875000 -24.312500 0 0 0 0 0.000000 0.000000 0.000000 0.000000
5.448300 -2.095500 7.696200 0.000000 0.242536 0.970143 1.000000 0.000000 0.000000 18.375000 7.125000 0 0 0 0 0.000000 0.000000 0.000000 0.000000
5.600700 -2.095500 7.696200 0.000000 0.242536 0.970143 1.000000 0.000000 0.000000 18.875000 7.125000 0 0 0 0 0.000000 0.000000 0.000000 0.000000
5.600700 -2.247900 7.734300 0.000000 0.242536 0.970143 1.000000 0.000000 0.000000 18.875000 7.625000 0 0 0 0 0.000000 0.000000 0.000000 0.000000
5.448300 -2.247900 7.734300 0.000000 0.242536 0.970143 1.000000 0.000000 0.000000 18.375000 7.625000 0 0 0 0 0.000000 0.000000 0.000000 0.000000
5.600700 -2.247900 7.124700 0.000000 -0.242536 -0.970143 1.000000 0.000000 0.000000 18.875000 7.625000 0 0 0 0 0.000000 0.000000 0.000000 0.000000
5.448300 -2.247900 7.124700 0.000000 -0.242536 -0.970143 1.000000 0.000000 0.000000 18.375000 7.625000 0 0 0 0 0.000000 0.000000 0.000000 0.000000
5.448300 -2.400300 7.162799 0.000000 -0.242536 -0.970143 1.000000 0.000000 0.000000 18.375000 8.125000 0 0 0 0 0.000000 0.000000 0.000000 0.000000
5.600700 -2.400300 7.162799 0.000000 -0.242536 -0.970143 1.000000 0.000000 0.000000 18.875000 8.125000 0 0 0 0 0.000000 0.000000 0.000000 0.000000
5.600700 -1.981200 7.581900 0.000000 0.970142 0.242536 1.000000 0.000000 0.000000 18.875000 -24.812500 0 0 0 0 0.000000 0.000000 0.000000 0.000000
5.448300 -1.981200 7.581900 0.000000 0.970142 0.242536 1.000000 0.000000 0.000000 18.375000 -24.812500 0 0 0 0 0.000000 0.000000 0.000000 0.000000
5.448300 -1.943100 7.429500 0.000000 0.970142 0.242536 1.000000 0.000000 0.000000 18.375000 -24.312500 0 0 0 0 0.000000 0.000000 0.000000 0.000000
5.600700 -1.943100 7.429500 0.000000 0.970142 0.242536 1.000000 0.000000 0.000000 18.875000 -24.312500 0 0 0 0 0.000000 0.000000 0.000000 0.000000
5.600700 -2.095500 7.162799 0.000000 0.242536 -0.970142 1.000000 0.000000 0.000000 18.875000 7.125000 0 0 0 0 0.000000 0.000000 0.000000 0.000000
5.448300 -2.095500 7.162799 0.000000 0.242536 -0.970142 1.000000 0.000000 0.000000 18.375000 7.125000 0 0 0 0 0.000000 0.000000 0.000000 0.000000
5.448300 -2.247900 7.124700 0.000000 0.242536 -0.970142 1.000000 0.000000 0.000000 18.375000 7.625000 0 0 0 0 0.000000 0.000000 0.000000 0.000000
5.600700 -2.247900 7.124700 0.000000 0.242536 -0.970142 1.000000 0.000000 0.000000 18.875000 7.625000 0 0 0 0 0.000000 0.000000 0.000000 0.000000
5.600700 -1.943100 7.429500 0.000000 0.970143 -0.242536 1.000000 0.000000 0.000000 18.875000 -24.312500 0 0 0 0 0.000000 0.000000 0.000000 0.000000
5.448300 -1.943100 7.429500 0.000000 0.970143 -0.242536 1.000000 0.000000 0.000000 18.375000 -24.312500 0 0 0 0 0.000000 0.000000 0.000000 0.000000
5.448300 -1.981200 7.277100 0.000000 0.970143 -0.242536 1.000000 0.000000 0.000000 18.375000 -23.812500 0 0 0 0 0.000000 0.000000 0.000000 0.000000
5.600700 -1.981200 7.277100 0.000000 0.970143 -0.242536 1.000000 0.000000 0.000000 18.875000 -23.812500 0 0 0 0 0.000000 0.000000 0.000000 0.000000
5.600700 -1.981200 7.277100 0.000000 0.707107 -0.707107 1.000000 0.000000 0.000000 18.875000 -23.812500 0 0 0 0 0.000000 0.000000 0.000000 0.000000
5.448300 -1.981200 7.277100 0.000000 0.707107 -0.707107 1.000000 0.000000 0.000000 18.375000 -23.812500 0 0 0 0 0.000000 0.000000 0.000000 0.000000
5.448300 -2.095500 7.162799 0.000000 0.707107 -0.707107 1.000000 0.000000 0.000000 18.375000 -23.437500 0 0 0 0 0.000000 0.000000 0.000000 0.000000
5.600700 -2.095500 7.162799 0.000000 0.707107 -0.707107 1.000000 0.000000 0.000000 18.875000 -23.437500 0 0 0 0 0.000000 0.000000 0.000000 0.000000
5.600700 -4.762500 4.610100 0.000000 -0.970143 0.242536 1.000000 0.000000 0.000000 18.875000 -15.312500 0 0 0 0 0.000000 0.000000 0.000000 0.000000
5.448300 -4.762500 4.610100 0.000000 -0.970143 0.242536 1.000000 0.000000 0.000000 18.375000 -15.312500 0 0 0 0 0.000000 0.000000 0.000000 0.000000
5.448300 -4.724400 4.762500 0.000000 -0.970143 0.242536 1.000000 0.000000 0.000000 18.375000 -15.812500 0 0 0 0 0.000000 0.000000 0.000000 0.000000
5.600700 -4.724400 4.762500 0.000000 -0.970143 0.242536 1.000000 0.000000 0.000000 18.875000 -15.812500 0 0 0 0 0.000000 0.000000 0.000000 0.000000
5.600700 -4.724400 4.457700 0.000000 -0.970142 -0.242536 1.000000 0.000000 0.000000 18.875000 -14.812500 0 0 0 0 0.000000 0.000000 0.000000 0.000000
5.448300 -4.724400 4.457700 0.000000 -0.970142 -0.242536 1.000000 0.000000 0.000000 18.375000 -14.812500 0 0 0 0 0.000000 0.000000 0.000000 0.000000
5.448300 -4.762500 4.610100 0.000000 -0.970142 -0.242536 1.000000 0.000000 0.000000 18.375000 -15.312500 0 0 0 0 0.000000 0.000000 0.000000 0.000000
5.600700 -4.762500 4.610100 0.000000 -0.970142 -0.242536 1.000000 0.000000 0.000000 18.875000 -15.312500 0 0 0 0 0.000000 0.000000 0.000000 0.000000
5.448300 -4.610100 4.876801 0.000000 -0.707107 0.707107 1.000000 0.000000 0.000000 18.375000 -16.000000 0 0 0 0 0.000000 0.000000 0.000000 0.000000
5.600700 -4.610100 4.876801 0.000000 -0.707107 0.707107 1.000000 0.000000 0.000000 18.875000 -16.000000 0 0 0 0 0.000000 0.000000 0.000000 0.000000
5.600700 -4.724400 4.762500 0.000000 -0.707107 0.707107 1.000000 0.000000 0.000000 18.875000 -15.625000 0 0 0 0 0.000000 0.000000 0.000000 0.000000
5.448300 -4.724400 4.762500 0.000000 -0.707107 0.707107 1.000000 0.000000 0.000000 18.375000 -15.625000 0 0 0 0 0.000000 0.000000 0.000000 0.000000
5.600700 -4.610100 4.343400 0.000000 -0.707107 -0.707107 1.000000 0.000000 0.000000 18.875000 -14.250000 0 0 0 0 0.000000 0.000000 0.000000 0.000000
5.448300 -4.610100 4.343400 0.000000 -0.707107 -0.707107 1.000000 0.000000 0.000000 18.375000 -14.250000 0 0 0 0 0.000000 0.000000 0.000000 0.000000
5.448300 -4.724400 4.457700 0.000000 -0.707107 -0.707107 1.000000 0.000000 0.000000 18.375000 -14.625000 0 0 0 0 0.000000 0.000000 0.000000 0.000000
5.600700 -4.724400 4.457700 0.000000 -0.707107 -0.707107 1.000000 0.000000 0.000000 18.875000 -14.625000 0 0 0 0 0.000000 0.000000 0.000000 0.000000
5.448300 -4.457700 4.914900 0.000000 -0.242536 0.970142 1.000000 0.000000 0.000000 18.375000 14.625000 0 0 0 0 0.000000 0.000000 0.000000 0.000000
5.600700 -4.457700 4.914900 0.000000 -0.242536 0.970142 1.000000 0.000000 0.000000 18.875000 14.625000 0 0 0 0 0.000000 0.000000 0.000000 0.000000
5.600700 -4.610100 4.876801 0.000000 -0.242536 0.970142 1.000000 0.000000 0.000000 18.875000 15.125000 0 0 0 0 0.000000 0.000000 0.000000 0.000000
5.448300 -4.610100 4.876801 0.000000 -0.242536 0.970142 1.000000 0.000000 0.000000 18.375000 15.125000 0 0 0 0 0.000000 0.000000 0.000000 0.000000
5.600700 -4.457700 4.305300 0.000000 -0.242535 -0.970143 1.000000 0.000000 0.000000 18.875000 14.625000 0 0 0 0 0.000000 0.000000 0.000000 0.000000
5.448300 -4.457700 4.305300 0.000000 -0.242535 -0.970143 1.000000 0.000000 0.000000 18.375000 14.625000 0 0 0 0 0.000000 0.000000 0.000000 0.000000
5.448300 -4.610100 4.343400 0.000000 -0.242535 -0.970143 1.000000 0.000000 0.000000 18.375000 15.125000 0 0 0 0 0.000000 0.000000 0.000000 0.000000
5.600700 -4.610100 4.343400 0.000000 -0.242535 -0.970143 1.000000 0.000000 0.000000 18.875000 15.125000 0 0 0 0 0.000000 0.000000 0.000000 0.000000
5.448300 -4.305300 4.876801 0.000000 0.242535 0.970143 1.000000 0.000000 0.000000 18.375000 14.125000 0 0 0 0 0.000000 0.000000 0.000000 0.000000
5.600700 -4.305300 4.876801 0.000000 0.242535 0.970143 1.000000 0.000000 0.000000 18.875000 14.125000 0 0 0 0 0.000000 0.000000 0.000000 0.000000
5.600700 -4.457700 4.914900 0.000000 0.242535 0.970143 1.000000 0.000000 0.000000 18.875000 14.625000 0 0 0 0 0.000000 0.000000 0.000000 0.000000
5.448300 -4.457700 4.914900 0.000000 0.242535 0.970143 1.000000 0.000000 0.000000 18.375000 14.625000 0 0 0 0 0.000000 0.000000 0.000000 0.000000
5.600700 -4.305300 4.343400 0.000000 0.242536 -0.970142 1.000000 0.000000 0.000000 18.875000 14.125000 0 0 0 0 0.000000 0.000000 0.000000 0.000000
5.448300 -4.305300 4.343400 0.000000 0.242536 -0.970142 1.000000 0.000000 0.000000 18.375000 14.125000 0 0 0 0 0.000000 0.000000 0.000000 0.000000
5.448300 -4.457700 4.305300 0.000000 0.242536 -0.970142 1.000000 0.000000 0.000000 18.375000 14.625000 0 0 0 0 0.000000 0.000000 0.000000 0.000000
5.600700 -4.457700 4.305300 0.000000 0.242536 -0.970142 1.000000 0.000000 0.000000 18.875000 14.625000 0 0 0 0 0.000000 0.000000 0.000000 0.000000
5.448300 -4.191000 4.762500 0.000000 0.707107 0.707107 1.000000 0.000000 0.000000 18.375000 -15.625000 0 0 0 0 0.000000 0.000000 0.000000 0.000000
5.600700 -4.191000 4.762500 0.000000 0.707107 0.707107 1.000000 0.000000 0.000000 18.875000 -15.625000 0 0 0 0 0.000000 0.000000 0.000000 0.000000
5.600700 -4.305300 4.876801 0.000000 0.707107 0.707107 1.000000 0.000000 0.000000 18.875000 -16.000000 0 0 0 0 0.000000 0.000000 0.000000 0.000000
5.448300 -4.305300 4.876801 0.000000 0.707107 0.707107 1.000000 0.000000 0.000000 18.375000 -16.000000 0 0 0 0 0.000000 0.000000 0.000000 0.000000
5.600700 -4.191000 4.457700 0.000000 0.707107 -0.707107 1.000000 0.000000 0.000000 18.875000 -14.812500 0 0 0 0 0.000000 0.000000 0.000000 0.000000
5.448300 -4.191000 4.457700 0.000000 0.707107 -0.707107 1.000000 0.000000 0.000000 18.375000 -14.812500 0 0 0 0 0.000000 0.000000 0.000000 0.000000
5.448300 -4.305300 4.343400 0.000000 0.707107 -0.707107 1.000000 0.000000 0.000000 18.375000 -14.437500 0 0 0 0 0.000000 0.000000 0.000000 0.000000
5.600700 -4.305300 4.343400 0.000000 0.707107 -0.707107 1.000000 0.000000 0.000000 18.875000 -14.437500 0 0 0 0 0.000000 0.000000 0.000000 0.000000
5.600700 -4.191000 4.762500 0.000000 0.970142 0.242536 1.000000 0.000000 0.000000 18.875000 -15.812500 0 0 0 0 0.000000 0.000000 0.000000 0.000000
5.448300 -4.191000 4.762500 0.000000 0.970142 0.242536 1.000000 0.000000 0.000000 18.375000 -15.812500 0 0 0 0 0.000000 0.000000 0.000000 0.000000
5.448300 -4.152900 4.610100 0.000000 0.970142 0.242536 1.000000 0.000000 0.000000 18.375000 -15.312500 0 0 0 0 0.000000 0.000000 0.000000 0.000000
5.600700 -4.152900 4.610100 0.000000 0.970142 0.242536 1.000000 0.000000 0.000000 18.875000 -15.312500 0 0 0 0 0.000000 0.000000 0.000000 0.000000
5.600700 -4.152900 4.610100 0.000000 0.970143 -0.242536 1.000000 0.000000 0.000000 18.875000 -15.312500 0 0 0 0 0.000000 0.000000 0.000000 0.000000
5.448300 -4.152900 4.610100 0.000000 0.970143 -0.242536 1.000000 0.000000 0.000000 18.375000 -15.312500 0 0 0 0 0.000000 0.000000 0.000000 0.000000
5.448300 -4.191000 4.457700 0.000000 0.970143 -0.242536 1.000000 0.000000 0.000000 18.375000 -14.812500 0 0 0 0 0.000000 0.000000 0.000000 0.000000
5.600700 -4.191000 4.457700 0.000000 0.970143 -0.242536 1.000000 0.000000 0.000000 18.875000 -14.812500 0 0 0 0 0.000000 0.000000 0.000000 0.000000
IndexCount: 288
3 1 0
3 2 1
7 5 4
7 6 5
11 9 8
11 10 9
15 13 12
15 14 13
19 17 16
19 18 17
23 21 20
23 22 21
27 25 24
27 26 25
31 29 28
31 30 29
35 33 32
35 34 33
39 37 36
39 38 37
43 41 40
43 42 41
47 45 44
47 46 45
51 49 48
51 50 49
55 53 52
55 54 53
59 57 56
59 58 57
63 61 60
63 62 61
67 65 64
67 66 65
71 69 68
71 70 69
75 73 72
75 74 73
79 77 76
79 78 77
83 81 80
83 82 81
87 85 84
87 86 85
91 89 88
91 90 89
95 93 92
95 94 93
99 97 96
99 98 97
103 101 100
103 102 101
107 105 104
107 106 105
111 109 108
111 110 109
115 113 112
115 114 113
119 117 116
119 118 117
123 121 120
123 122 121
127 125 124
127 126 125
131 129 128
131 130 129
135 133 132
135 134 133
139 137 136
139 138 137
143 141 140
143 142 141
147 145 144
147 146 145
151 149 148
151 150 149
155 153 152
155 154 153
159 157 156
159 158 157
163 161 160
163 162 161
167 165 164
167 166 165
171 169 168
171 170 169
175 173 172
175 174 173
179 177 176
179 178 177
183 181 180
183 182 181
187 185 184
187 186 185
191 189 188
191 190 189