VertexCount: 40
3.657600 -3.409950 4.229100 0.000000 0.000000 -1.000000 1.000000 0.000000 0.000000 3.375000 0.523438 0 0 0 0 0.000000 0.000000 0.000000 0.000000
3.657600 -3.600451 4.229100 0.000000 0.000000 -1.000000 1.000000 0.000000 0.000000 3.375000 0.601562 0 0 0 0 0.000000 0.000000 0.000000 0.000000
3.771900 -3.600451 4.229100 0.000000 0.000000 -1.000000 1.000000 0.000000 0.000000 3.468750 0.601562 0 0 0 0 0.000000 0.000000 0.000000 0.000000
3.771900 -3.409950 4.229100 0.000000 0.000000 -1.000000 1.000000 0.000000 0.000000 3.468750 0.523438 0 0 0 0 0.000000 0.000000 0.000000 0.000000
3.657600 -3.409950 4.229100 0.000000 1.000000 0.000000 1.000000 0.000000 0.000000 3.375000 -1.625000 0 0 0 0 0.000000 0.000000 0.000000 0.000000
3.771900 -3.409950 4.229100 0.000000 1.000000 0.000000 1.000000 0.000000 0.000000 3.468750 -1.625000 0 0 0 0 0.000000 0.000000 0.000000 0.000000
3.771900 -3.409950 4.381500 0.000000 1.000000 0.000000 1.000000 0.000000 0.000000 3.468750 -1.687500 0 0 0 0 0.000000 0.000000 0.000000 0.000000
3.657600 -3.409950 4.381500 0.000000 1.000000 0.000000 1.000000 0.000000 0.000000 3.375000 -1.687500 0 0 0 0 0.000000 0.000000 0.000000 0.000000
3.657600 -3.409950 4.381500 0.000000 -0.000000 1.000000 1.000000 0.000000 0.000000 3.375000 0.523438 0 0 0 0 0.000000 0.000000 0.000000 0.000000
3.771900 -3.409950 4.381500 0.000000 -0.000000 1.000000 1.000000 0.000000 0.000000 3.468750 0.523438 0 0 0 0 0.000000 0.000000 0.000000 0.000000
3.771900 -3.600451 4.381500 0.000000 -0.000000 1.000000 1.000000 0.000000 0.000000 3.468750 0.601562 0 0 0 0 0.000000 0.000000 0.000000 0.000000
3.657600 -3.600451 4.381500 0.000000 -0.000000 1.000000 1.000000 0.000000 0.000000 3.375000 0.601562 0 0 0 0 0.000000 0.000000 0.000000 0.000000
15.582900 -3.352801 4.495800 1.000000 0.000000 0.000000 0.000000 -0.000000 1.000000 2.484375 1.468750 0 0 0 0 0.000000 0.000000 0.000000 0.000000
15.582900 -4.572001 4.495800 1.000000 0.000000 0.000000 0.000000 -0.000000 1.000000 2.484375 1.968750 0 0 0 0 0.000000 0.000000 0.000000 0.000000
15.582900 -4.572001 7.543799 1.000000 0.000000 0.000000 0.000000 -0.000000 1.000000 4.984375 1.968750 0 0 0 0 0.000000 0.000000 0.000000 0.000000
15.582900 -3.352801 7.543799 1.000000 0.000000 0.000000 0.000000 -0.000000 1.000000 4.984375 1.468750 0 0 0 0 0.000000 0.000000 0.000000 0.000000
15.582900 -2.133601 4.495800 1.000000 0.000000 0.000000 0.000000 -0.000000 1.000000 2.484375 0.937500 0 0 0 0 0.000000 0.000000 0.000000 0.000000
15.582900 -3.352801 4.495800 1.000000 0.000000 0.000000 0.000000 -0.000000 1.000000 2.484375 1.437500 0 0 0 0 0.000000 0.000000 0.000000 0.000000
15.582900 -3.352801 7.543799 1.000000 0.000000 0.000000 0.000000 -0.000000 1.000000 4.984375 1.437500 0 0 0 0 0.000000 0.000000 0.000000 0.000000
15.582900 -2.133601 7.543799 1.000000 0.000000 0.000000 0.000000 -0.000000 1.000000 4.984375 0.937500 0 0 0 0 0.000000 0.000000 0.000000 0.000000
3.657600 -3.409950 3.905249 0.000000 1.000000 0.000000 1.000000 0.000000 0.000000 2.796875 -2.500000 0 0 0 0 0.000000 0.000000 0.000000 0.000000
3.771900 -3.409950 3.905249 0.000000 1.000000 0.000000 1.000000 0.000000 0.000000 2.890625 -2.500000 0 0 0 0 0.000000 0.000000 0.000000 0.000000
3.771900 -3.409950 4.210049 0.000000 1.000000 0.000000 1.000000 0.000000 0.000000 2.890625 -2.625000 0 0 0 0 0.000000 0.000000 0.000000 0.000000
3.657600 -3.409950 4.210049 0.000000 1.000000 0.000000 1.000000 0.000000 0.000000 2.796875 -2.625000 0 0 0 0 0.000000 0.000000 0.000000 0.000000
3.657600 -3.409950 3.905249 0.000000 0.000000 -1.000000 1.000000 0.000000 0.000000 3.375000 0.500000 0 0 0 0 0.000000 0.000000 0.000000 0.000000
3.657600 -3.714751 3.905249 0.000000 0.000000 -1.000000 1.000000 0.000000 0.000000 3.375000 0.625000 0 0 0 0 0.000000 0.000000 0.000000 0.000000
3.771900 -3.714751 3.905249 0.000000 0.000000 -1.000000 1.000000 0.000000 0.000000 3.468750 0.625000 0 0 0 0 0.000000 0.000000 0.000000 0.000000
3.771900 -3.409950 3.905249 0.000000 0.000000 -1.000000 1.000000 0.000000 0.000000 3.468750 0.500000 0 0 0 0 0.000000 0.000000 0.000000 0.000000
3.657600 -3.714751 4.210049 0.000000 -1.000000 -0.000000 1.000000 0.000000 0.000000 3.375000 -1.625000 0 0 0 0 0.000000 0.000000 0.000000 0.000000
3.771900 -3.714751 4.210049 0.000000 -1.000000 -0.000000 1.000000 0.000000 0.000000 3.468750 -1.625000 0 0 0 0 0.000000 0.000000 0.000000 0.000000
3.771900 -3.714751 3.905249 0.000000 -1.000000 -0.000000 1.000000 0.000000 0.000000 3.468750 -1.500000 0 0 0 0 0.000000 0.000000 0.000000 0.000000
3.657600 -3.714751 3.905249 0.000000 -1.000000 -0.000000 1.000000 0.000000 0.000000 3.375000 -1.500000 0 0 0 0 0.000000 0.000000 0.000000 0.000000
3.657600 -3.409950 4.210049 0.000000 -0.000000 1.000000 1.000000 0.000000 0.000000 3.375000 0.500000 0 0 0 0 0.000000 0.000000 0.000000 0.000000
3.771900 -3.409950 4.210049 0.000000 -0.000000 1.000000 1.000000 0.000000 0.000000 3.468750 0.500000 0 0 0 0 0.000000 0.000000 0.000000 0.000000
3.771900 -3.714751 4.210049 0.000000 -0.000000 1.000000 1.000000 0.000000 0.000000 3.468750 0.625000 0 0 0 0 0.000000 0.000000 0.000000 0.000000
3.657600 -3.714751 4.210049 0.000000 -0.000000 1.000000 1.000000 0.000000 0.000000 3.375000 0.625000 0 0 0 0 0.000000 0.000000 0.000000 0.000000
3.771900 -3.714751 4.210049 1.000000 0.000000 0.000000 0.000000 0.000000 1.000000 3.250000 0.625000 0 0 0 0 0.000000 0.000000 0.000000 0.000000
3.771900 -3.409950 4.210049 1.000000 0.000000 0.000000 0.000000 0.000000 1.000000 3.250000 0.500000 0 0 0 0 0.000000 0.000000 0.000000 0.000000
3.771900 -3.409950 3.905249 1.000000 0.000000 0.000000 0.000000 0.000000 1.000000 3.000000 0.500000 0 0 0 0 0.000000 0.000000 0.000000 0.000000
3.771900 -3.714751 3.905249 1.000000 0.000000 0.000000 0.000000 0.000000 1.000000 3.000000 0.625000 0 0 0 0 0.000000 0.000000 0.000000 0.000000
IndexCount: 60
3 1 0
3 2 1
7 5 4
7 6 5
11 9 8
11 10 9
15 13 12
15 14 13
19 17 16
19 18 17
23 21 20
23 22 21
27 25 24
27 26 25
31 29 28
31 30 29
35 33 32
35 34 33
39 37 36
39 38 37