VertexCount: 12
-1.828800 -2.133600 0.609599 -0.000000 -0.000000 1.000000 -1.000000 0.000000 -0.000000 2.000000 1.000000 0 0 0 0 0.000000 0.000000 0.000000 0.000000
-1.828800 -2.743200 0.609599 -0.000000 -0.000000 1.000000 -1.000000 0.000000 -0.000000 2.000000 2.000000 0 0 0 0 0.000000 0.000000 0.000000 0.000000
-2.743200 -2.743200 0.609599 -0.000000 -0.000000 1.000000 -1.000000 0.000000 -0.000000 3.000000 2.000000 0 0 0 0 0.000000 0.000000 0.000000 0.000000
-2.743200 -2.133600 0.609599 -0.000000 -0.000000 1.000000 -1.000000 0.000000 -0.000000 3.000000 1.000000 0 0 0 0 0.000000 0.000000 0.000000 0.000000
-0.914400 -2.743200 0.609599 -0.000000 -0.000000 1.000000 -1.000000 0.000000 -0.000000 1.000000 2.000000 0 0 0 0 0.000000 0.000000 0.000000 0.000000
-0.914400 -3.962400 0.609599 -0.000000 -0.000000 1.000000 -1.000000 0.000000 -0.000000 1.000000 4.000000 0 0 0 0 0.000000 0.000000 0.000000 0.000000
-1.828800 -3.962400 0.609599 -0.000000 -0.000000 1.000000 -1.000000 0.000000 -0.000000 2.000000 4.000000 0 0 0 0 0.000000 0.000000 0.000000 0.000000
-1.828800 -3.352800 0.609599 -0.000000 -0.000000 1.000000 0.000000 -1.000000 -0.000000 2.000000 3.000000 0 0 0 0 0.000000 0.000000 0.000000 0.000000
1.828800 -2.743200 0.609600 -0.000000 -0.000000 1.000000 -1.000000 0.000000 -0.000000 -2.000000 2.000000 0 0 0 0 0.000000 0.000000 0.000000 0.000000
1.828800 -3.352800 0.609600 -0.000000 -0.000000 1.000000 -1.000000 0.000000 -0.000000 -2.000000 3.000000 0 0 0 0 0.000000 0.000000 0.000000 0.000000
0.914400 -3.352800 0.609600 -0.000000 -0.000000 1.000000 -1.000000 0.000000 -0.000000 -1.000000 3.000000 0 0 0 0 0.000000 0.000000 0.000000 0.000000
0.914400 -2.743200 0.609600 -0.000000 -0.000000 1.000000 -1.000000 0.000000 -0.000000 -1.000000 2.000000 0 0 0 0 0.000000 0.000000 0.000000 0.000000
IndexCount: 21
3 2 1
3 1 0
1 7 6
1 6 5
5 4 1
11 10 9
11 9 8
