VertexCount: 16
-6.553198 0.000003 -21.945601 0.000000 -1.000000 -0.000000 1.000000 0.000000 0.000000 -3.000000 8.875000 0 0 0 0 0.000000 0.000000 0.000000 0.000000
-10.515598 0.000003 -21.945601 0.000000 -1.000000 -0.000000 1.000000 0.000000 -0.000000 -4.625000 8.875000 0 0 0 0 0.000000 0.000000 0.000000 0.000000
-10.515599 0.000002 -19.812002 0.000000 -1.000000 -0.000000 1.000000 0.000000 0.000000 -4.625000 8.000000 0 0 0 0 0.000000 0.000000 0.000000 0.000000
-6.553198 0.000003 -19.812000 0.000000 -1.000000 -0.000000 1.000000 0.000000 0.000000 -3.000000 8.000000 0 0 0 0 0.000000 0.000000 0.000000 0.000000
-10.515598 0.000003 -21.945601 0.000000 -1.000000 -0.000000 1.000000 0.000000 -0.000000 -5.000000 8.875000 0 0 0 0 0.000000 0.000000 0.000000 0.000000
-10.629897 0.000003 -21.945601 0.000000 -1.000000 -0.000000 1.000000 0.000000 -0.000000 -5.046875 8.875000 0 0 0 0 0.000000 0.000000 0.000000 0.000000
-10.629898 0.000002 -17.983202 0.000000 -1.000000 -0.000000 1.000000 0.000000 -0.000004 -5.046875 7.250000 0 0 0 0 0.000000 0.000000 0.000000 0.000000
-10.515599 0.000002 -17.983202 0.000000 -1.000000 -0.000000 1.000000 0.000000 0.000000 -5.000000 7.250000 0 0 0 0 0.000000 0.000000 0.000000 0.000000
-10.515599 0.000002 -19.812002 0.000000 -1.000000 -0.000000 1.000000 0.000000 0.000000 -5.000000 8.000000 0 0 0 0 0.000000 0.000000 0.000000 0.000000
-6.553198 0.000003 -22.250401 0.000000 -1.000000 -0.000000 1.000000 0.000000 0.000000 -3.000000 9.000000 0 0 0 0 0.000000 0.000000 0.000000 0.000000
-10.515598 0.000003 -22.250401 0.000000 -1.000000 -0.000000 1.000000 0.000000 -0.000000 -4.625000 9.000000 0 0 0 0 0.000000 0.000000 0.000000 0.000000
-10.515598 0.000003 -22.250401 0.000000 -1.000000 -0.000000 1.000000 0.000000 -0.000000 -5.000000 9.000000 0 0 0 0 0.000000 0.000000 0.000000 0.000000
-10.629897 0.000003 -22.250401 0.000000 -1.000000 -0.000000 1.000000 0.000000 0.000000 -5.046875 9.000000 0 0 0 0 0.000000 0.000000 0.000000 0.000000
-12.953998 0.000002 -22.250401 0.000000 -1.000000 -0.000000 1.000000 0.000000 -0.000000 -6.000000 9.000000 0 0 0 0 0.000000 0.000000 0.000000 0.000000
-12.953999 0.000002 -17.983202 0.000000 -1.000000 -0.000000 1.000000 0.000000 -0.000000 -6.000000 7.250000 0 0 0 0 0.000000 0.000000 0.000000 0.000000
-10.629897 0.000003 -21.945601 0.000000 -1.000000 -0.000000 -0.000000 -0.000000 1.000000 -5.046875 8.875000 0 0 0 0 0.000000 0.000000 0.000000 0.000000
IndexCount: 36
3 1 0
1 9 0
3 2 1
1 10 9
8 5 4
5 11 4
8 7 6
8 6 5
5 12 11
12 15 6
12 6 14
14 13 12
