VertexCount: 8
-0.457198 -2.285997 -18.592800 -1.000000 -0.000000 -0.000000 0.000000 0.000000 -1.000000 20.983334 3.968750 0 0 0 0 0.000000 0.000000 0.000000 0.000000
-0.457198 -3.047997 -18.592800 -1.000000 -0.000000 -0.000000 0.000000 0.000000 -1.000000 20.983334 5.010417 0 0 0 0 0.000000 0.000000 0.000000 0.000000
-0.457198 -3.047997 -19.507198 -1.000000 -0.000000 -0.000000 0.000000 0.000000 -1.000000 21.983334 5.010417 0 0 0 0 0.000000 0.000000 0.000000 0.000000
-0.457198 -2.285997 -19.507198 -1.000000 -0.000000 -0.000000 0.000000 0.000000 -1.000000 21.983334 3.968750 0 0 0 0 0.000000 0.000000 0.000000 0.000000
-0.457198 -2.285996 -22.555201 -1.000000 -0.000000 -0.000000 0.000000 0.000000 -1.000000 23.991667 3.968750 0 0 0 0 0.000000 0.000000 0.000000 0.000000
-0.457198 -3.047997 -22.555201 -1.000000 -0.000000 -0.000000 0.000000 0.000000 -1.000000 23.991667 5.010417 0 0 0 0 0.000000 0.000000 0.000000 0.000000
-0.457198 -3.047997 -23.469599 -1.000000 -0.000000 -0.000000 0.000000 0.000000 -1.000000 24.991667 5.010417 0 0 0 0 0.000000 0.000000 0.000000 0.000000
-0.457198 -2.285996 -23.469599 -1.000000 -0.000000 -0.000000 0.000000 0.000000 -1.000000 24.991667 3.968750 0 0 0 0 0.000000 0.000000 0.000000 0.000000
IndexCount: 12
3 2 1
3 1 0
7 6 5
7 5 4
