VertexCount: 517
-19.640551 -3.695698 -15.468599 0.577358 -0.577338 -0.577354 0.707104 0.707109 0.000019 -7.273438 6.085938 0 0 0 0 0.000000 0.000000 0.000000 0.000000
-19.678650 -3.714747 -15.487650 0.577358 -0.577338 -0.577354 0.707104 0.707109 0.000019 -7.289062 6.093750 0 0 0 0 0.000000 0.000000 0.000000 0.000000
-19.697701 -3.752847 -15.468600 0.577358 -0.577338 -0.577354 0.707101 0.707113 0.000012 -7.296875 6.085938 0 0 0 0 0.000000 0.000000 0.000000 0.000000
-19.678650 -3.752847 -15.449552 0.577358 -0.577338 -0.577354 0.707104 0.707109 0.000019 -7.289062 6.078125 0 0 0 0 0.000000 0.000000 0.000000 0.000000
-20.059650 -3.676648 -15.068549 0.707071 0.000000 -0.707142 0.707142 0.000000 0.707071 -5.914062 0.859375 0 0 0 0 0.000000 0.000000 0.000000 0.000000
-20.059650 -3.524247 -15.068549 0.707071 0.000000 -0.707142 0.707142 0.000000 0.707071 -5.914062 0.796875 0 0 0 0 0.000000 0.000000 0.000000 0.000000
-20.078701 -3.524247 -15.087600 0.707071 0.000000 -0.707142 0.707142 0.000000 0.707071 -5.921875 0.796875 0 0 0 0 0.000000 0.000000 0.000000 0.000000
-20.078701 -3.676648 -15.087600 0.707071 0.000000 -0.707142 0.707142 0.000000 0.707071 -5.921875 0.859375 0 0 0 0 0.000000 0.000000 0.000000 0.000000
-19.697701 -3.676648 -15.468599 -0.707071 -0.000000 0.707142 0.707142 0.000000 0.707071 -5.851562 0.859375 0 0 0 0 0.000000 0.000000 0.000000 0.000000
-19.697701 -3.524247 -15.468599 -0.707071 -0.000000 0.707142 0.707142 0.000000 0.707071 -5.851562 0.796875 0 0 0 0 0.000000 0.000000 0.000000 0.000000
-19.678650 -3.524247 -15.449551 -0.707071 -0.000000 0.707142 0.707142 0.000000 0.707071 -5.843750 0.796875 0 0 0 0 0.000000 0.000000 0.000000 0.000000
-19.678650 -3.676648 -15.449551 -0.707071 -0.000000 0.707142 0.707142 0.000000 0.707071 -5.843750 0.859375 0 0 0 0 0.000000 0.000000 0.000000 0.000000
-19.783424 -3.600448 -15.059024 0.683489 -0.256316 0.683480 -0.707102 -0.000000 0.707112 -6.113281 0.828125 0 0 0 0 0.000000 0.000000 0.000000 0.000000
-19.669125 -3.600448 -15.173325 0.683489 -0.256316 0.683480 -0.707102 -0.000000 0.707112 -6.160156 0.828125 0 0 0 0 0.000000 0.000000 0.000000 0.000000
-19.683413 -3.676648 -15.187612 0.683489 -0.256316 0.683480 -0.707102 -0.000002 0.707111 -6.166016 0.859375 0 0 0 0 0.000000 0.000000 0.000000 0.000000
-19.797712 -3.676648 -15.073313 0.683489 -0.256316 0.683480 -0.707102 -0.000000 0.707112 -6.119141 0.859375 0 0 0 0 0.000000 0.000000 0.000000 0.000000
-19.721510 -3.676648 -15.206662 0.445408 0.083772 -0.891400 0.894543 0.000024 0.446981 -7.712891 0.859375 0 0 0 0 0.000000 0.000000 0.000000 0.000000
-19.683413 -3.676648 -15.187612 0.445408 0.083772 -0.891400 0.894543 0.000024 0.446981 -7.697266 0.859375 0 0 0 0 0.000000 0.000000 0.000000 0.000000
-19.669125 -3.600448 -15.173325 0.445408 0.083772 -0.891400 0.894545 -0.000034 0.446977 -7.691406 0.828125 0 0 0 0 0.000000 0.000000 0.000000 0.000000
-19.703985 -3.583493 -15.189137 0.445408 0.083772 -0.891400 0.894543 0.000024 0.446981 -7.705703 0.821172 0 0 0 0 0.000000 0.000000 0.000000 0.000000
-19.799236 -3.583493 -15.093886 -0.891420 0.083778 0.445368 0.446938 -0.000020 0.894565 -6.026016 0.821172 0 0 0 0 0.000000 0.000000 0.000000 0.000000
-19.783424 -3.600448 -15.059024 -0.891420 0.083778 0.445368 0.446938 -0.000020 0.894565 -6.011719 0.828125 0 0 0 0 0.000000 0.000000 0.000000 0.000000
-19.797712 -3.676648 -15.073313 -0.891420 0.083778 0.445368 0.446941 0.000026 0.894563 -6.017578 0.859375 0 0 0 0 0.000000 0.000000 0.000000 0.000000
-19.816763 -3.676648 -15.111413 -0.891420 0.083778 0.445368 0.446938 -0.000020 0.894565 -6.033203 0.859375 0 0 0 0 0.000000 0.000000 0.000000 0.000000
-19.704748 -3.587113 -15.189898 -0.683553 0.255974 -0.683544 -0.707102 -0.000002 0.707111 -6.166953 0.822656 0 0 0 0 0.000000 0.000000 0.000000 0.000000
-19.799999 -3.587113 -15.094648 -0.683553 0.255974 -0.683544 -0.707102 -0.000002 0.707111 -6.127891 0.822656 0 0 0 0 0.000000 0.000000 0.000000 0.000000
-19.816763 -3.676648 -15.111413 -0.683553 0.255974 -0.683544 -0.707103 -0.000005 0.707111 -6.134766 0.859375 0 0 0 0 0.000000 0.000000 0.000000 0.000000
-19.721510 -3.676648 -15.206662 -0.683553 0.255974 -0.683544 -0.707102 -0.000002 0.707111 -6.173828 0.859375 0 0 0 0 0.000000 0.000000 0.000000 0.000000
-19.678650 -3.524247 -15.487650 -0.707066 0.000000 -0.707148 -0.707148 0.000000 0.707066 -5.656250 0.796875 0 0 0 0 0.000000 0.000000 0.000000 0.000000
-19.697701 -3.524247 -15.468599 -0.707066 0.000000 -0.707148 -0.707148 0.000000 0.707066 -5.648438 0.796875 0 0 0 0 0.000000 0.000000 0.000000 0.000000
-19.697701 -3.676648 -15.468599 -0.707066 0.000000 -0.707148 -0.707148 0.000000 0.707066 -5.648438 0.859375 0 0 0 0 0.000000 0.000000 0.000000 0.000000
-19.697701 -3.752847 -15.468600 -0.707066 0.000000 -0.707148 -0.707148 -0.000011 0.707066 -5.648438 0.890625 0 0 0 0 0.000000 0.000000 0.000000 0.000000
-19.678650 -3.714747 -15.487650 -0.707066 0.000000 -0.707148 -0.707148 0.000002 0.707066 -5.656250 0.875000 0 0 0 0 0.000000 0.000000 0.000000 0.000000
-19.640551 -3.524247 -15.468599 0.447214 0.000000 -0.894427 0.894427 0.000000 0.447214 -7.570312 0.796875 0 0 0 0 0.000000 0.000000 0.000000 0.000000
-19.678650 -3.524247 -15.487650 0.447214 0.000000 -0.894427 0.894427 0.000000 0.447214 -7.585938 0.796875 0 0 0 0 0.000000 0.000000 0.000000 0.000000
-19.678650 -3.714747 -15.487650 0.447214 0.000000 -0.894427 0.894427 -0.000001 0.447214 -7.585938 0.875000 0 0 0 0 0.000000 0.000000 0.000000 0.000000
-19.640551 -3.695698 -15.468599 0.447214 0.000000 -0.894427 0.894427 0.000000 0.447214 -7.570312 0.867188 0 0 0 0 0.000000 0.000000 0.000000 0.000000
-19.678650 -3.524247 -15.449551 0.447214 -0.000000 0.894427 0.894427 0.000000 -0.447214 -7.164062 0.796875 0 0 0 0 0.000000 0.000000 0.000000 0.000000
-19.640551 -3.524247 -15.468599 0.447214 -0.000000 0.894427 0.894427 0.000000 -0.447214 -7.148438 0.796875 0 0 0 0 0.000000 0.000000 0.000000 0.000000
-19.640551 -3.695698 -15.468599 0.447214 -0.000000 0.894427 0.894427 -0.000002 -0.447214 -7.148438 0.867188 0 0 0 0 0.000000 0.000000 0.000000 0.000000
-19.678650 -3.752847 -15.449552 0.447214 -0.000000 0.894427 0.894427 0.000000 -0.447214 -7.164062 0.890625 0 0 0 0 0.000000 0.000000 0.000000 0.000000
-19.678650 -3.676648 -15.449551 0.447214 -0.000000 0.894427 0.000002 -1.000000 -0.000001 -7.164062 0.859375 0 0 0 0 0.000000 0.000000 0.000000 0.000000
-20.078701 -3.524247 -15.087600 -0.707129 0.000000 -0.707085 -0.707085 0.000000 0.707129 -5.742188 0.796875 0 0 0 0 0.000000 0.000000 0.000000 0.000000
-20.097750 -3.524247 -15.068549 -0.707129 0.000000 -0.707085 -0.707085 0.000000 0.707129 -5.734375 0.796875 0 0 0 0 0.000000 0.000000 0.000000 0.000000
-20.097750 -3.676648 -15.068549 -0.707129 0.000000 -0.707085 -0.707085 -0.000004 0.707129 -5.734375 0.859375 0 0 0 0 0.000000 0.000000 0.000000 0.000000
-20.078701 -3.733798 -15.087600 -0.707129 0.000000 -0.707085 -0.707085 0.000000 0.707129 -5.742188 0.882812 0 0 0 0 0.000000 0.000000 0.000000 0.000000
-20.078701 -3.676648 -15.087600 -0.707129 0.000000 -0.707085 -0.000000 -1.000000 -0.000000 -5.742188 0.859375 0 0 0 0 0.000000 0.000000 0.000000 0.000000
-20.059650 -3.752847 -15.068551 -0.816512 -0.408245 0.408222 0.447192 -0.000019 0.894438 -5.390625 1.281250 0 0 0 0 0.000000 0.000000 0.000000 0.000000
-20.078701 -3.733798 -15.087600 -0.816512 -0.408245 0.408222 0.447192 -0.000019 0.894438 -5.398438 1.273438 0 0 0 0 0.000000 0.000000 0.000000 0.000000
-20.097750 -3.676648 -15.068549 -0.816512 -0.408245 0.408222 0.447187 -0.000007 0.894440 -5.390625 1.250000 0 0 0 0 0.000000 0.000000 0.000000 0.000000
-20.078701 -3.676648 -15.030450 -0.816512 -0.408245 0.408222 0.447192 -0.000019 0.894438 -5.375000 1.250000 0 0 0 0 0.000000 0.000000 0.000000 0.000000
-20.078701 -3.524247 -15.030450 0.894414 -0.000000 0.447241 -0.447241 0.000000 0.894414 -5.718750 0.796875 0 0 0 0 0.000000 0.000000 0.000000 0.000000
-20.059650 -3.524247 -15.068549 0.894414 -0.000000 0.447241 -0.447241 0.000000 0.894414 -5.734375 0.796875 0 0 0 0 0.000000 0.000000 0.000000 0.000000
-20.059650 -3.676648 -15.068549 0.894414 -0.000000 0.447241 -0.447241 0.000000 0.894414 -5.734375 0.859375 0 0 0 0 0.000000 0.000000 0.000000 0.000000
-20.059650 -3.752847 -15.068551 0.894414 -0.000000 0.447241 -0.447241 0.000007 0.894414 -5.734375 0.890625 0 0 0 0 0.000000 0.000000 0.000000 0.000000
-20.078701 -3.676648 -15.030450 0.894414 -0.000000 0.447241 -0.447241 -0.000004 0.894414 -5.718750 0.859375 0 0 0 0 0.000000 0.000000 0.000000 0.000000
-20.097750 -3.524247 -15.068549 -0.894443 -0.000000 0.447182 0.447182 -0.000000 0.894443 -5.906250 0.796875 0 0 0 0 0.000000 0.000000 0.000000 0.000000
-20.078701 -3.524247 -15.030450 -0.894443 -0.000000 0.447182 0.447182 -0.000000 0.894443 -5.890625 0.796875 0 0 0 0 0.000000 0.000000 0.000000 0.000000
-20.078701 -3.676648 -15.030450 -0.894443 -0.000000 0.447182 0.447182 -0.000000 0.894443 -5.890625 0.859375 0 0 0 0 0.000000 0.000000 0.000000 0.000000
-20.097750 -3.676648 -15.068549 -0.894443 -0.000000 0.447182 0.447182 -0.000000 0.894443 -5.906250 0.859375 0 0 0 0 0.000000 0.000000 0.000000 0.000000
-19.678650 -4.095747 -15.449552 0.000000 -1.000000 -0.000000 1.000000 0.000000 -0.000008 -7.164062 6.078125 0 0 0 0 0.000000 0.000000 0.000000 0.000000
-19.735800 -4.095747 -15.487651 0.000000 -1.000000 -0.000000 1.000000 0.000000 -0.000008 -7.187500 6.093750 0 0 0 0 0.000000 0.000000 0.000000 0.000000
-19.897726 -4.095747 -15.325726 0.000000 -1.000000 -0.000000 1.000000 0.000000 0.000009 -7.253906 6.027344 0 0 0 0 0.000000 0.000000 0.000000 0.000000
-19.935825 -4.095747 -15.287626 0.000000 -1.000000 -0.000000 1.000000 0.000000 0.000011 -7.269531 6.011719 0 0 0 0 0.000000 0.000000 0.000000 0.000000
-20.097750 -4.095747 -15.125700 0.000000 -1.000000 -0.000000 1.000000 0.000000 0.000004 -7.335938 5.945312 0 0 0 0 0.000000 0.000000 0.000000 0.000000
-20.059650 -4.095747 -15.068551 0.000000 -1.000000 -0.000000 1.000000 0.000000 -0.000004 -7.320312 5.921875 0 0 0 0 0.000000 0.000000 0.000000 0.000000
-19.888201 -4.095747 -15.240001 0.000000 -1.000000 -0.000000 1.000000 0.000000 -0.000016 -7.250000 5.992188 0 0 0 0 0.000000 0.000000 0.000000 0.000000
-19.850100 -4.095747 -15.278102 0.000000 -1.000000 -0.000000 -0.707107 -0.000000 0.707107 -7.234375 6.007812 0 0 0 0 0.000000 0.000000 0.000000 0.000000
-20.097750 -4.095747 -15.449552 0.000000 -1.000000 -0.000000 1.000000 -0.000000 0.000002 -7.335938 6.078125 0 0 0 0 0.000000 0.000000 0.000000 0.000000
-19.726274 -4.095747 -15.078075 0.000000 -1.000000 -0.000000 1.000000 0.000000 -0.000008 -7.183594 5.925781 0 0 0 0 0.000000 0.000000 0.000000 0.000000
-19.688175 -4.095747 -15.116177 0.000000 -1.000000 -0.000000 1.000000 -0.000000 0.000002 -7.167969 5.941406 0 0 0 0 0.000000 0.000000 0.000000 0.000000
-19.850100 -4.095747 -15.278102 0.000000 -1.000000 -0.000000 1.000000 -0.000000 0.000002 -7.234375 6.007812 0 0 0 0 0.000000 0.000000 0.000000 0.000000
-20.059650 -4.095747 -15.487651 0.000000 -1.000000 -0.000000 1.000000 -0.000000 0.000008 -7.320312 6.093750 0 0 0 0 0.000000 0.000000 0.000000 0.000000
-19.888201 -3.981448 -15.220950 0.000000 1.000000 0.000000 1.000000 -0.000000 0.000012 -7.250000 5.984375 0 0 0 0 0.000000 0.000000 0.000000 0.000000
-19.899630 -3.981448 -15.209521 0.000000 1.000000 0.000000 1.000000 -0.000000 0.000012 -7.254687 5.979688 0 0 0 0 0.000000 0.000000 0.000000 0.000000
-19.945351 -3.981448 -15.278102 0.000000 1.000000 0.000000 1.000000 -0.000000 0.000012 -7.273438 6.007812 0 0 0 0 0.000000 0.000000 0.000000 0.000000
-19.888201 -3.752847 -15.220950 -0.707096 -0.000000 0.707118 0.707118 0.000000 0.707096 -5.750000 0.890625 0 0 0 0 0.000000 0.000000 0.000000 0.000000
-19.888201 -3.981448 -15.220950 -0.707096 -0.000000 0.707118 0.707118 0.000000 0.707096 -5.750000 0.984375 0 0 0 0 0.000000 0.000000 0.000000 0.000000
-19.945351 -3.981448 -15.278102 -0.707096 -0.000000 0.707118 0.707118 0.000000 0.707096 -5.773438 0.984375 0 0 0 0 0.000000 0.000000 0.000000 0.000000
-19.945351 -3.752847 -15.278102 -0.707096 -0.000000 0.707118 0.707118 0.000000 0.707096 -5.773438 0.890625 0 0 0 0 0.000000 0.000000 0.000000 0.000000
-19.831051 -3.752847 -15.278102 0.707109 -0.000000 0.707105 -0.707105 0.000000 0.707109 -5.570312 0.890625 0 0 0 0 0.000000 0.000000 0.000000 0.000000
-19.831051 -3.981448 -15.278102 0.707109 -0.000000 0.707105 -0.707105 0.000000 0.707109 -5.570312 0.984375 0 0 0 0 0.000000 0.000000 0.000000 0.000000
-19.888201 -3.981448 -15.220950 0.707109 -0.000000 0.707105 -0.707105 0.000000 0.707109 -5.546875 0.984375 0 0 0 0 0.000000 0.000000 0.000000 0.000000
-19.888201 -3.752847 -15.220950 0.707109 -0.000000 0.707105 -0.707105 0.000000 0.707109 -5.546875 0.890625 0 0 0 0 0.000000 0.000000 0.000000 0.000000
-19.888201 -3.752847 -15.335251 0.707109 0.000000 -0.707105 0.707105 -0.000000 0.707109 -6.023438 0.890625 0 0 0 0 0.000000 0.000000 0.000000 0.000000
-19.888201 -3.981448 -15.335251 0.707109 0.000000 -0.707105 0.707105 -0.000000 0.707109 -6.023438 0.984375 0 0 0 0 0.000000 0.000000 0.000000 0.000000
-19.831051 -3.981448 -15.278102 0.707109 0.000000 -0.707105 0.707105 -0.000000 0.707109 -6.000000 0.984375 0 0 0 0 0.000000 0.000000 0.000000 0.000000
-19.831051 -3.752847 -15.278102 0.707109 0.000000 -0.707105 0.707105 -0.000000 0.707109 -6.000000 0.890625 0 0 0 0 0.000000 0.000000 0.000000 0.000000
-19.945351 -3.752847 -15.278102 -0.707096 0.000000 -0.707118 -0.707118 0.000000 0.707096 -5.570312 0.890625 0 0 0 0 0.000000 0.000000 0.000000 0.000000
-19.945351 -3.981448 -15.278102 -0.707096 0.000000 -0.707118 -0.707114 0.000000 0.707100 -5.570312 0.984375 0 0 0 0 0.000000 0.000000 0.000000 0.000000
-19.888201 -3.981448 -15.335251 -0.707096 0.000000 -0.707118 -0.707118 0.000000 0.707096 -5.593750 0.984375 0 0 0 0 0.000000 0.000000 0.000000 0.000000
-19.888201 -3.752847 -15.335251 -0.707096 0.000000 -0.707118 -0.707118 0.000000 0.707096 -5.593750 0.890625 0 0 0 0 0.000000 0.000000 0.000000 0.000000
-19.945351 -3.981448 -15.278102 -0.707107 0.000000 -0.707107 -0.707114 0.000000 0.707100 -5.632812 0.953125 0 0 0 0 0.000000 0.000000 0.000000 0.000000
-20.097750 -4.095747 -15.125700 -0.707107 0.000000 -0.707107 -0.707107 0.000000 0.707107 -5.570312 1.000000 0 0 0 0 0.000000 0.000000 0.000000 0.000000
-19.935825 -4.095747 -15.287626 -0.707107 0.000000 -0.707107 -0.707107 0.000000 0.707107 -5.636719 1.000000 0 0 0 0 0.000000 0.000000 0.000000 0.000000
-19.888773 -3.989067 -15.334679 -0.707099 0.000000 -0.707114 -0.707114 0.000000 0.707099 -5.656015 0.956250 0 0 0 0 0.000000 0.000000 0.000000 0.000000
-19.897726 -4.095747 -15.325726 -0.707099 0.000000 -0.707114 -0.707114 0.000000 0.707099 -5.652344 1.000000 0 0 0 0 0.000000 0.000000 0.000000 0.000000
-19.735800 -4.095747 -15.487651 -0.707099 0.000000 -0.707114 -0.707114 0.000000 0.707099 -5.718750 1.000000 0 0 0 0 0.000000 0.000000 0.000000 0.000000
-20.059650 -4.095747 -15.487651 0.702248 -0.117029 -0.702248 0.707107 0.000000 0.707107 -6.101562 1.000000 0 0 0 0 0.000000 0.000000 0.000000 0.000000
-19.897726 -4.095747 -15.325726 0.702248 -0.117029 -0.702248 0.707107 0.000000 0.707107 -6.035156 1.000000 0 0 0 0 0.000000 0.000000 0.000000 0.000000
-19.888201 -3.981448 -15.335251 0.702248 -0.117029 -0.702248 0.707107 0.000000 0.707107 -6.039062 0.953125 0 0 0 0 0.000000 0.000000 0.000000 0.000000
-20.097750 -4.095747 -15.449552 -0.315792 0.894738 -0.315785 0.942989 0.332825 0.000008 -7.335938 6.078125 0 0 0 0 0.000000 0.000000 0.000000 0.000000
-20.059650 -4.095747 -15.487651 -0.315792 0.894738 -0.315785 0.942989 0.332825 0.000008 -7.320312 6.093750 0 0 0 0 0.000000 0.000000 0.000000 0.000000
-19.888201 -3.981448 -15.335251 -0.315792 0.894738 -0.315785 0.942989 0.332823 0.000001 -7.250000 6.031250 0 0 0 0 0.000000 0.000000 0.000000 0.000000
-19.945351 -3.981448 -15.278102 -0.315792 0.894738 -0.315785 0.942989 0.332825 0.000008 -7.273438 6.007812 0 0 0 0 0.000000 0.000000 0.000000 0.000000
-19.945351 -3.981448 -15.278102 -0.702249 -0.117041 0.702245 0.707105 -0.000000 0.707109 -5.789062 0.953125 0 0 0 0 0.000000 0.000000 0.000000 0.000000
-19.935825 -4.095747 -15.287626 -0.702249 -0.117041 0.702245 0.707105 -0.000000 0.707109 -5.792969 1.000000 0 0 0 0 0.000000 0.000000 0.000000 0.000000
-20.097750 -4.095747 -15.449552 -0.702249 -0.117041 0.702245 0.707105 -0.000000 0.707109 -5.859375 1.000000 0 0 0 0 0.000000 0.000000 0.000000 0.000000
-19.688175 -4.095747 -15.116177 0.331298 0.883454 0.331287 0.936329 -0.351123 -0.000007 -7.167969 5.941406 0 0 0 0 0.000000 0.000000 0.000000 0.000000
-19.726274 -4.095747 -15.078075 0.331298 0.883454 0.331287 0.936329 -0.351123 -0.000007 -7.183594 5.925781 0 0 0 0 0.000000 0.000000 0.000000 0.000000
-19.888201 -3.981448 -15.220950 0.331298 0.883454 0.331287 0.936329 -0.351123 -0.000008 -7.250000 5.984375 0 0 0 0 0.000000 0.000000 0.000000 0.000000
-19.831051 -3.981448 -15.278102 0.331298 0.883454 0.331287 0.936329 -0.351123 -0.000007 -7.226562 6.007812 0 0 0 0 0.000000 0.000000 0.000000 0.000000
-19.888773 -3.989067 -15.334679 0.249045 0.893332 -0.374078 0.963276 -0.268513 0.000072 -7.250235 6.031015 0 0 0 0 0.000000 0.000000 0.000000 0.000000
-19.735800 -4.095747 -15.487651 0.249045 0.893332 -0.374078 0.963276 -0.268513 0.000072 -7.187500 6.093750 0 0 0 0 0.000000 0.000000 0.000000 0.000000
-19.678650 -4.095747 -15.449552 0.249045 0.893332 -0.374078 0.963257 -0.268580 -0.000099 -7.164062 6.078125 0 0 0 0 0.000000 0.000000 0.000000 0.000000
-19.831051 -3.981448 -15.278102 0.249045 0.893332 -0.374078 0.963276 -0.268513 0.000072 -7.226562 6.007812 0 0 0 0 0.000000 0.000000 0.000000 0.000000
-19.850100 -4.095747 -15.278102 0.702247 -0.117041 -0.702247 0.707107 0.000000 0.707107 -6.015625 1.000000 0 0 0 0 0.000000 0.000000 0.000000 0.000000
-19.688175 -4.095747 -15.116177 0.702247 -0.117041 -0.702247 0.707107 0.000000 0.707107 -5.949219 1.000000 0 0 0 0 0.000000 0.000000 0.000000 0.000000
-19.831051 -3.981448 -15.278102 0.702247 -0.117041 -0.702247 0.707107 0.000000 0.707107 -6.015625 0.953125 0 0 0 0 0.000000 0.000000 0.000000 0.000000
-19.678650 -4.095747 -15.449552 0.702244 -0.117029 0.702252 -0.707111 0.000001 0.707103 -5.703125 1.000000 0 0 0 0 0.000000 0.000000 0.000000 0.000000
-19.850100 -4.095747 -15.278102 0.702244 -0.117029 0.702252 -0.707111 0.000001 0.707103 -5.632812 1.000000 0 0 0 0 0.000000 0.000000 0.000000 0.000000
-19.831051 -3.981448 -15.278102 0.702244 -0.117029 0.702252 -0.707111 0.000001 0.707103 -5.632812 0.953125 0 0 0 0 0.000000 0.000000 0.000000 0.000000
-19.888201 -4.095747 -15.240001 0.702245 -0.117047 0.702248 -0.707109 0.000000 0.707105 -5.617188 1.000000 0 0 0 0 0.000000 0.000000 0.000000 0.000000
-20.059650 -4.095747 -15.068551 0.702245 -0.117047 0.702248 -0.707109 0.000000 0.707105 -5.546875 1.000000 0 0 0 0 0.000000 0.000000 0.000000 0.000000
-19.899630 -3.981448 -15.209521 0.702245 -0.117047 0.702248 -0.707109 0.000000 0.707105 -5.604688 0.953125 0 0 0 0 0.000000 0.000000 0.000000 0.000000
-19.888201 -3.981448 -15.220950 0.702245 -0.117047 0.702248 -0.707109 0.000000 0.707105 -5.609375 0.953125 0 0 0 0 0.000000 0.000000 0.000000 0.000000
-19.888201 -3.981448 -15.220950 -0.702239 -0.117022 0.702258 0.707116 0.000001 0.707098 -5.765625 0.953125 0 0 0 0 0.000000 0.000000 0.000000 0.000000
-19.726274 -4.095747 -15.078075 -0.702239 -0.117022 0.702258 0.707116 0.000001 0.707098 -5.707031 1.000000 0 0 0 0 0.000000 0.000000 0.000000 0.000000
-19.888201 -4.095747 -15.240001 -0.702239 -0.117022 0.702258 0.707116 0.000001 0.707098 -5.773438 1.000000 0 0 0 0 0.000000 0.000000 0.000000 0.000000
-20.097750 -4.095747 -15.125700 -0.395820 0.879602 0.263869 0.911921 0.410365 -0.000007 -7.335938 5.945312 0 0 0 0 0.000000 0.000000 0.000000 0.000000
-19.945351 -3.981448 -15.278102 -0.395820 0.879602 0.263869 0.911921 0.410365 -0.000007 -7.273438 6.007812 0 0 0 0 0.000000 0.000000 0.000000 0.000000
-19.899630 -3.981448 -15.209521 -0.395820 0.879602 0.263869 0.911923 0.410362 0.000006 -7.254687 5.979688 0 0 0 0 0.000000 0.000000 0.000000 0.000000
-20.059650 -4.095747 -15.068551 -0.395820 0.879602 0.263869 0.911921 0.410365 -0.000007 -7.320312 5.921875 0 0 0 0 0.000000 0.000000 0.000000 0.000000
-20.250149 -3.657598 -8.858250 -0.577353 -0.577357 -0.577341 0.707107 -0.707107 0.000005 -7.875000 3.382812 0 0 0 0 0.000000 0.000000 0.000000 0.000000
-20.269199 -3.676648 -8.820150 -0.577353 -0.577357 -0.577341 0.707107 -0.707107 0.000005 -7.882812 3.367188 0 0 0 0 0.000000 0.000000 0.000000 0.000000
-20.250149 -3.714748 -8.801101 -0.577353 -0.577357 -0.577341 0.707107 -0.707107 0.000005 -7.875000 3.359375 0 0 0 0 0.000000 0.000000 0.000000 0.000000
-20.231100 -3.714748 -8.820150 -0.577353 -0.577357 -0.577341 0.707107 -0.707107 0.000005 -7.867188 3.367188 0 0 0 0 0.000000 0.000000 0.000000 0.000000
-19.850100 -3.638549 -8.439150 -0.707100 0.000000 -0.707113 -0.707113 -0.000011 0.707100 -2.546875 0.851562 0 0 0 0 0.000000 0.000000 0.000000 0.000000
-19.850100 -3.486148 -8.439150 -0.707100 0.000000 -0.707113 -0.707113 -0.000011 0.707100 -2.546875 0.789062 0 0 0 0 0.000000 0.000000 0.000000 0.000000
-19.869150 -3.486149 -8.420100 -0.707100 0.000000 -0.707113 -0.707113 -0.000011 0.707100 -2.539062 0.789062 0 0 0 0 0.000000 0.000000 0.000000 0.000000
-19.869150 -3.638549 -8.420100 -0.707100 0.000000 -0.707113 -0.707113 -0.000011 0.707100 -2.539062 0.851562 0 0 0 0 0.000000 0.000000 0.000000 0.000000
-20.250149 -3.638549 -8.801101 0.707117 -0.000000 0.707097 -0.707097 -0.000000 0.707117 -2.695312 0.851562 0 0 0 0 0.000000 0.000000 0.000000 0.000000
-20.250149 -3.486148 -8.801101 0.707117 -0.000000 0.707097 -0.707097 -0.000000 0.707117 -2.695312 0.789062 0 0 0 0 0.000000 0.000000 0.000000 0.000000
-20.231100 -3.486148 -8.820150 0.707117 -0.000000 0.707097 -0.707097 -0.000000 0.707117 -2.703125 0.789062 0 0 0 0 0.000000 0.000000 0.000000 0.000000
-20.231100 -3.638549 -8.820150 0.707117 -0.000000 0.707097 -0.707097 -0.000000 0.707117 -2.703125 0.851562 0 0 0 0 0.000000 0.000000 0.000000 0.000000
-19.840576 -3.562349 -8.715375 0.683489 -0.256288 -0.683491 0.707108 -0.000001 0.707106 -3.089844 0.820312 0 0 0 0 0.000000 0.000000 0.000000 0.000000
-19.954876 -3.562349 -8.829675 0.683489 -0.256288 -0.683491 0.707108 -0.000001 0.707106 -3.136719 0.820312 0 0 0 0 0.000000 0.000000 0.000000 0.000000
-19.969162 -3.638549 -8.815388 0.683489 -0.256288 -0.683491 0.707108 0.000000 0.707105 -3.130859 0.851562 0 0 0 0 0.000000 0.000000 0.000000 0.000000
-19.854862 -3.638549 -8.701088 0.683489 -0.256288 -0.683491 0.707108 -0.000001 0.707106 -3.083984 0.851562 0 0 0 0 0.000000 0.000000 0.000000 0.000000
-19.988213 -3.638549 -8.777288 -0.891396 0.083774 -0.445416 -0.446989 -0.000022 0.894540 -2.794922 0.851562 0 0 0 0 0.000000 0.000000 0.000000 0.000000
-19.969162 -3.638549 -8.815388 -0.891396 0.083774 -0.445416 -0.446989 -0.000022 0.894540 -2.810547 0.851562 0 0 0 0 0.000000 0.000000 0.000000 0.000000
-19.954876 -3.562349 -8.829675 -0.891396 0.083774 -0.445416 -0.446984 0.000036 0.894542 -2.816406 0.820312 0 0 0 0 0.000000 0.000000 0.000000 0.000000
-19.970686 -3.545394 -8.794814 -0.891396 0.083774 -0.445416 -0.446989 -0.000022 0.894540 -2.802109 0.813359 0 0 0 0 0.000000 0.000000 0.000000 0.000000
-19.875437 -3.545394 -8.699565 0.445369 0.083783 0.891418 0.894564 -0.000022 -0.446939 -7.385390 0.813359 0 0 0 0 0.000000 0.000000 0.000000 0.000000
-19.840576 -3.562349 -8.715375 0.445369 0.083783 0.891418 0.894564 -0.000022 -0.446939 -7.371094 0.820312 0 0 0 0 0.000000 0.000000 0.000000 0.000000
-19.854862 -3.638549 -8.701088 0.445369 0.083783 0.891418 0.894563 0.000024 -0.446943 -7.376953 0.851562 0 0 0 0 0.000000 0.000000 0.000000 0.000000
-19.892963 -3.638549 -8.682037 0.445369 0.083783 0.891418 0.894564 -0.000022 -0.446939 -7.392578 0.851562 0 0 0 0 0.000000 0.000000 0.000000 0.000000
-19.971449 -3.549013 -8.794052 -0.683542 0.255984 0.683551 0.707112 -0.000000 0.707102 -3.161172 0.814844 0 0 0 0 0.000000 0.000000 0.000000 0.000000
-19.876198 -3.549013 -8.698802 -0.683542 0.255984 0.683551 0.707112 -0.000000 0.707102 -3.122109 0.814844 0 0 0 0 0.000000 0.000000 0.000000 0.000000
-19.892963 -3.638549 -8.682037 -0.683542 0.255984 0.683551 0.707111 -0.000003 0.707102 -3.115234 0.851562 0 0 0 0 0.000000 0.000000 0.000000 0.000000
-19.988213 -3.638549 -8.777288 -0.683542 0.255984 0.683551 0.707112 -0.000000 0.707102 -3.154297 0.851562 0 0 0 0 0.000000 0.000000 0.000000 0.000000
-20.269199 -3.486148 -8.820150 -0.707141 -0.000000 0.707072 0.707072 -0.000000 0.707141 -3.539062 0.789062 0 0 0 0 0.000000 0.000000 0.000000 0.000000
-20.250149 -3.486148 -8.801101 -0.707141 -0.000000 0.707072 0.707072 -0.000000 0.707141 -3.531250 0.789062 0 0 0 0 0.000000 0.000000 0.000000 0.000000
-20.250149 -3.638549 -8.801101 -0.707141 -0.000000 0.707072 0.707072 -0.000000 0.707141 -3.531250 0.851562 0 0 0 0 0.000000 0.000000 0.000000 0.000000
-20.250149 -3.714748 -8.801101 -0.707141 -0.000000 0.707072 0.707072 -0.000011 0.707141 -3.531250 0.882812 0 0 0 0 0.000000 0.000000 0.000000 0.000000
-20.269199 -3.676648 -8.820150 -0.707141 -0.000000 0.707072 0.707073 0.000002 0.707141 -3.539062 0.867188 0 0 0 0 0.000000 0.000000 0.000000 0.000000
-20.250149 -3.486148 -8.858250 -0.894445 0.000000 -0.447179 -0.447179 -0.000000 0.894445 -2.718750 0.789062 0 0 0 0 0.000000 0.000000 0.000000 0.000000
-20.269199 -3.486148 -8.820150 -0.894445 0.000000 -0.447179 -0.447179 -0.000000 0.894445 -2.703125 0.789062 0 0 0 0 0.000000 0.000000 0.000000 0.000000
-20.269199 -3.676648 -8.820150 -0.894445 0.000000 -0.447179 -0.447179 -0.000006 0.894445 -2.703125 0.867188 0 0 0 0 0.000000 0.000000 0.000000 0.000000
-20.250149 -3.657598 -8.858250 -0.894445 0.000000 -0.447179 -0.447179 -0.000000 0.894445 -2.718750 0.859375 0 0 0 0 0.000000 0.000000 0.000000 0.000000
-20.231100 -3.486148 -8.820150 0.894416 0.000000 -0.447236 0.447236 0.000000 0.894416 -3.500000 0.789062 0 0 0 0 0.000000 0.000000 0.000000 0.000000
-20.250149 -3.486148 -8.858250 0.894416 0.000000 -0.447236 0.447236 0.000000 0.894416 -3.515625 0.789062 0 0 0 0 0.000000 0.000000 0.000000 0.000000
-20.250149 -3.657598 -8.858250 0.894416 0.000000 -0.447236 0.447236 0.000000 0.894416 -3.515625 0.859375 0 0 0 0 0.000000 0.000000 0.000000 0.000000
-20.231100 -3.714748 -8.820150 0.894416 0.000000 -0.447236 0.447236 -0.000005 0.894416 -3.500000 0.882812 0 0 0 0 0.000000 0.000000 0.000000 0.000000
-20.231100 -3.638549 -8.820150 0.894416 0.000000 -0.447236 0.000000 -1.000000 -0.000000 -3.500000 0.851562 0 0 0 0 0.000000 0.000000 0.000000 0.000000
-19.850100 -3.714748 -8.439150 0.408250 -0.408239 0.816500 0.894429 0.000009 -0.447210 -7.750000 1.273438 0 0 0 0 0.000000 0.000000 0.000000 0.000000
-19.869150 -3.695699 -8.420100 0.408250 -0.408239 0.816500 0.894429 0.000009 -0.447210 -7.757812 1.265625 0 0 0 0 0.000000 0.000000 0.000000 0.000000
-19.850100 -3.638549 -8.401051 0.408250 -0.408239 0.816500 0.894427 0.000000 -0.447214 -7.750000 1.242188 0 0 0 0 0.000000 0.000000 0.000000 0.000000
-19.812000 -3.638549 -8.420100 0.408250 -0.408239 0.816500 0.894429 0.000009 -0.447210 -7.734375 1.242188 0 0 0 0 0.000000 0.000000 0.000000 0.000000
-19.869150 -3.486149 -8.420100 -0.707092 -0.000000 0.707121 0.707121 0.000000 0.707092 -2.625000 0.789062 0 0 0 0 0.000000 0.000000 0.000000 0.000000
-19.850100 -3.486149 -8.401051 -0.707092 -0.000000 0.707121 0.707121 0.000000 0.707092 -2.617188 0.789062 0 0 0 0 0.000000 0.000000 0.000000 0.000000
-19.850100 -3.638549 -8.401051 -0.707092 -0.000000 0.707121 0.707121 -0.000004 0.707092 -2.617188 0.851562 0 0 0 0 0.000000 0.000000 0.000000 0.000000
-19.869150 -3.695699 -8.420100 -0.707092 -0.000000 0.707121 0.707121 0.000000 0.707092 -2.625000 0.875000 0 0 0 0 0.000000 0.000000 0.000000 0.000000
-19.869150 -3.638549 -8.420100 -0.707092 -0.000000 0.707121 0.000000 -1.000000 -0.000000 -2.625000 0.851562 0 0 0 0 0.000000 0.000000 0.000000 0.000000
-19.850100 -3.486149 -8.401051 0.447207 -0.000000 0.894430 0.894430 -0.000000 -0.447207 -7.265625 0.789062 0 0 0 0 0.000000 0.000000 0.000000 0.000000
-19.812000 -3.486149 -8.420100 0.447207 -0.000000 0.894430 0.894430 -0.000000 -0.447207 -7.250000 0.789062 0 0 0 0 0.000000 0.000000 0.000000 0.000000
-19.812000 -3.638549 -8.420100 0.447207 -0.000000 0.894430 0.894430 -0.000000 -0.447207 -7.250000 0.851562 0 0 0 0 0.000000 0.000000 0.000000 0.000000
-19.850100 -3.638549 -8.401051 0.447207 -0.000000 0.894430 0.894430 -0.000000 -0.447207 -7.265625 0.851562 0 0 0 0 0.000000 0.000000 0.000000 0.000000
-19.812000 -3.486149 -8.420100 0.447213 0.000000 -0.894427 0.894428 -0.000007 0.447213 -7.296875 0.789062 0 0 0 0 0.000000 0.000000 0.000000 0.000000
-19.850100 -3.486148 -8.439150 0.447213 0.000000 -0.894427 0.894428 -0.000007 0.447213 -7.312500 0.789062 0 0 0 0 0.000000 0.000000 0.000000 0.000000
-19.850100 -3.638549 -8.439150 0.447213 0.000000 -0.894427 0.894428 -0.000007 0.447213 -7.312500 0.851562 0 0 0 0 0.000000 0.000000 0.000000 0.000000
-19.850100 -3.714748 -8.439150 0.447213 0.000000 -0.894427 0.894428 0.000000 0.447213 -7.312500 0.882812 0 0 0 0 0.000000 0.000000 0.000000 0.000000
-19.812000 -3.638549 -8.420100 0.447213 0.000000 -0.894427 0.894428 -0.000011 0.447213 -7.296875 0.851562 0 0 0 0 0.000000 0.000000 0.000000 0.000000
-20.231100 -4.057649 -8.820150 0.000000 -1.000000 -0.000000 1.000000 -0.000000 0.000004 -8.218750 2.718750 0 0 0 0 0.000000 0.000000 0.000000 0.000000
-20.269199 -4.057649 -8.763000 0.000000 -1.000000 -0.000000 1.000000 -0.000000 0.000026 -8.234375 2.695312 0 0 0 0 0.000000 0.000000 0.000000 0.000000
-20.107275 -4.057649 -8.601076 0.000000 -1.000000 -0.000000 1.000000 -0.000001 0.000008 -8.167969 2.628906 0 0 0 0 0.000000 0.000000 0.000000 0.000000
-20.069176 -4.057649 -8.562975 0.000000 -1.000000 -0.000000 1.000000 -0.000001 0.000004 -8.152344 2.613281 0 0 0 0 0.000000 0.000000 0.000000 0.000000
-19.907249 -4.057649 -8.401051 0.000000 -1.000000 -0.000000 1.000000 0.000000 -0.000009 -8.085938 2.546875 0 0 0 0 0.000000 0.000000 0.000000 0.000000
-19.850100 -4.057649 -8.439150 0.000000 -1.000000 -0.000000 1.000000 -0.000000 0.000009 -8.062500 2.562500 0 0 0 0 0.000000 0.000000 0.000000 0.000000
-20.021551 -4.057649 -8.610601 0.000000 -1.000000 -0.000000 1.000000 -0.000001 0.000001 -8.132812 2.632812 0 0 0 0 0.000000 0.000000 0.000000 0.000000
-20.059650 -4.057649 -8.648701 0.000000 -1.000000 -0.000000 1.000000 -0.000001 0.000015 -8.148438 2.648438 0 0 0 0 0.000000 0.000000 0.000000 0.000000
-20.231100 -4.057649 -8.401051 -0.000002 -1.000000 -0.000000 1.000000 -0.000002 0.000013 -8.218750 2.546875 0 0 0 0 0.000000 0.000000 0.000000 0.000000
-19.859625 -4.057649 -8.772526 -0.000002 -1.000000 -0.000000 1.000000 -0.000002 0.000001 -8.066406 2.699219 0 0 0 0 0.000000 0.000000 0.000000 0.000000
-19.897726 -4.057649 -8.810625 -0.000002 -1.000000 -0.000000 1.000000 -0.000002 0.000013 -8.082031 2.714844 0 0 0 0 0.000000 0.000000 0.000000 0.000000
-20.269199 -4.057649 -8.439150 -0.000002 -1.000000 -0.000000 1.000000 -0.000002 -0.000010 -8.234375 2.562500 0 0 0 0 0.000000 0.000000 0.000000 0.000000
-20.002499 -3.943349 -8.610601 -0.000023 1.000000 0.000000 1.000000 0.000023 0.000016 -8.125000 2.632812 0 0 0 0 0.000000 0.000000 0.000000 0.000000
-19.991070 -3.943349 -8.599171 -0.000023 1.000000 0.000000 1.000000 0.000023 0.000016 -8.120313 2.628125 0 0 0 0 0.000000 0.000000 0.000000 0.000000
-20.059650 -3.943349 -8.553451 -0.000023 1.000000 0.000000 1.000000 0.000023 0.000016 -8.148438 2.609375 0 0 0 0 0.000000 0.000000 0.000000 0.000000
-20.059650 -3.714748 -8.553451 -0.707115 -0.000000 0.707099 0.707099 -0.000000 0.707115 -3.429688 0.882812 0 0 0 0 0.000000 0.000000 0.000000 0.000000
-20.059650 -3.943349 -8.553451 -0.707115 -0.000000 0.707099 0.707101 -0.000000 0.707112 -3.429688 0.976562 0 0 0 0 0.000000 0.000000 0.000000 0.000000
-20.116800 -3.943349 -8.610601 -0.707115 -0.000000 0.707099 0.707099 -0.000000 0.707115 -3.453125 0.976562 0 0 0 0 0.000000 0.000000 0.000000 0.000000
-20.116800 -3.714748 -8.610601 -0.707115 -0.000000 0.707099 0.707099 -0.000000 0.707115 -3.453125 0.882812 0 0 0 0 0.000000 0.000000 0.000000 0.000000
-20.059650 -3.714748 -8.667750 0.707109 0.000000 -0.707104 0.707104 -0.000000 0.707109 -3.437500 0.882812 0 0 0 0 0.000000 0.000000 0.000000 0.000000
-20.059650 -3.943349 -8.667750 0.707109 0.000000 -0.707104 0.707104 -0.000000 0.707109 -3.437500 0.976562 0 0 0 0 0.000000 0.000000 0.000000 0.000000
-20.002499 -3.943349 -8.610601 0.707109 0.000000 -0.707104 0.707104 -0.000000 0.707109 -3.414062 0.976562 0 0 0 0 0.000000 0.000000 0.000000 0.000000
-20.002499 -3.714748 -8.610601 0.707109 0.000000 -0.707104 0.707104 -0.000000 0.707109 -3.414062 0.882812 0 0 0 0 0.000000 0.000000 0.000000 0.000000
-20.002499 -3.714748 -8.610601 0.707115 -0.000000 0.707099 -0.707099 -0.000000 0.707115 -2.617188 0.882812 0 0 0 0 0.000000 0.000000 0.000000 0.000000
-20.002499 -3.943349 -8.610601 0.707115 -0.000000 0.707099 -0.707099 -0.000000 0.707115 -2.617188 0.976562 0 0 0 0 0.000000 0.000000 0.000000 0.000000
-20.059650 -3.943349 -8.553451 0.707115 -0.000000 0.707099 -0.707099 -0.000000 0.707115 -2.593750 0.976562 0 0 0 0 0.000000 0.000000 0.000000 0.000000
-20.059650 -3.714748 -8.553451 0.707115 -0.000000 0.707099 -0.707099 -0.000000 0.707115 -2.593750 0.882812 0 0 0 0 0.000000 0.000000 0.000000 0.000000
-20.116800 -3.714748 -8.610601 -0.707109 0.000000 -0.707104 -0.707104 -0.000000 0.707109 -2.617188 0.882812 0 0 0 0 0.000000 0.000000 0.000000 0.000000
-20.116800 -3.943349 -8.610601 -0.707109 0.000000 -0.707104 -0.707104 -0.000000 0.707109 -2.617188 0.976562 0 0 0 0 0.000000 0.000000 0.000000 0.000000
-20.059650 -3.943349 -8.667750 -0.707109 0.000000 -0.707104 -0.707104 -0.000000 0.707109 -2.640625 0.976562 0 0 0 0 0.000000 0.000000 0.000000 0.000000
-20.059650 -3.714748 -8.667750 -0.707109 0.000000 -0.707104 -0.707104 -0.000000 0.707109 -2.640625 0.882812 0 0 0 0 0.000000 0.000000 0.000000 0.000000
-20.059650 -3.943349 -8.553451 -0.707107 -0.000000 0.707107 0.707101 -0.000000 0.707112 -3.492188 0.945312 0 0 0 0 0.000000 0.000000 0.000000 0.000000
-19.907249 -4.057649 -8.401051 -0.707107 -0.000000 0.707107 0.707107 -0.000001 0.707107 -3.429688 0.992188 0 0 0 0 0.000000 0.000000 0.000000 0.000000
-20.069176 -4.057649 -8.562975 -0.707107 -0.000000 0.707107 0.707107 -0.000001 0.707107 -3.496094 0.992188 0 0 0 0 0.000000 0.000000 0.000000 0.000000
-20.116228 -3.950968 -8.610028 -0.707102 -0.000000 0.707112 0.707112 0.000000 0.707102 -3.515391 0.948437 0 0 0 0 0.000000 0.000000 0.000000 0.000000
-20.107275 -4.057649 -8.601076 -0.707102 -0.000000 0.707112 0.707112 0.000000 0.707102 -3.511719 0.992188 0 0 0 0 0.000000 0.000000 0.000000 0.000000
-20.269199 -4.057649 -8.763000 -0.707102 -0.000000 0.707112 0.707112 0.000000 0.707102 -3.578125 0.992188 0 0 0 0 0.000000 0.000000 0.000000 0.000000
-20.269199 -4.057649 -8.439150 -0.702247 -0.117040 -0.702247 -0.707107 -0.000001 0.707107 -2.562500 0.992188 0 0 0 0 0.000000 0.000000 0.000000 0.000000
-20.107275 -4.057649 -8.601076 -0.702247 -0.117040 -0.702247 -0.707107 -0.000001 0.707107 -2.628906 0.992188 0 0 0 0 0.000000 0.000000 0.000000 0.000000
-20.116800 -3.943349 -8.610601 -0.702247 -0.117040 -0.702247 -0.707107 -0.000001 0.707107 -2.632812 0.945312 0 0 0 0 0.000000 0.000000 0.000000 0.000000
-20.231100 -4.057649 -8.401051 -0.315792 0.894735 0.315793 0.942989 0.332824 -0.000004 -8.218750 2.546875 0 0 0 0 0.000000 0.000000 0.000000 0.000000
-20.269199 -4.057649 -8.439150 -0.315792 0.894735 0.315793 0.942989 0.332824 -0.000004 -8.234375 2.562500 0 0 0 0 0.000000 0.000000 0.000000 0.000000
-20.116800 -3.943349 -8.610601 -0.315792 0.894735 0.315793 0.942990 0.332821 0.000005 -8.171875 2.632812 0 0 0 0 0.000000 0.000000 0.000000 0.000000
-20.059650 -3.943349 -8.553451 -0.315792 0.894735 0.315793 0.942989 0.332824 -0.000004 -8.148438 2.609375 0 0 0 0 0.000000 0.000000 0.000000 0.000000
-20.059650 -3.943349 -8.553451 0.702247 -0.117041 0.702247 -0.707107 -0.000001 0.707107 -2.609375 0.945312 0 0 0 0 0.000000 0.000000 0.000000 0.000000
-20.069176 -4.057649 -8.562975 0.702247 -0.117041 0.702247 -0.707107 -0.000001 0.707107 -2.613281 0.992188 0 0 0 0 0.000000 0.000000 0.000000 0.000000
-20.231100 -4.057649 -8.401051 0.702247 -0.117041 0.702247 -0.707107 -0.000001 0.707107 -2.546875 0.992188 0 0 0 0 0.000000 0.000000 0.000000 0.000000
-19.859625 -4.057649 -8.772526 0.331298 0.883456 -0.331283 0.936329 -0.351124 0.000003 -8.066406 2.699219 0 0 0 0 0.000000 0.000000 0.000000 0.000000
-20.002499 -3.943349 -8.610601 0.331298 0.883456 -0.331283 0.936329 -0.351124 0.000003 -8.125000 2.632812 0 0 0 0 0.000000 0.000000 0.000000 0.000000
-20.059650 -3.943349 -8.667750 0.331298 0.883456 -0.331283 0.936329 -0.351125 -0.000000 -8.148438 2.656250 0 0 0 0 0.000000 0.000000 0.000000 0.000000
-19.897726 -4.057649 -8.810625 0.331298 0.883456 -0.331283 0.936329 -0.351124 0.000003 -8.082031 2.714844 0 0 0 0 0.000000 0.000000 0.000000 0.000000
-20.116228 -3.950968 -8.610028 -0.374069 0.893331 -0.249062 0.922396 0.386246 0.000021 -8.171640 2.632578 0 0 0 0 0.000000 0.000000 0.000000 0.000000
-20.269199 -4.057649 -8.763000 -0.374069 0.893331 -0.249062 0.922396 0.386246 0.000021 -8.234375 2.695312 0 0 0 0 0.000000 0.000000 0.000000 0.000000
-20.231100 -4.057649 -8.820150 -0.374069 0.893331 -0.249062 0.922401 0.386235 -0.000023 -8.218750 2.718750 0 0 0 0 0.000000 0.000000 0.000000 0.000000
-20.059650 -3.943349 -8.667750 -0.374069 0.893331 -0.249062 0.922396 0.386246 0.000021 -8.148438 2.656250 0 0 0 0 0.000000 0.000000 0.000000 0.000000
-20.059650 -4.057649 -8.648701 -0.702237 -0.117048 -0.702255 -0.707116 -0.000002 0.707098 -2.648438 0.992188 0 0 0 0 0.000000 0.000000 0.000000 0.000000
-19.897726 -4.057649 -8.810625 -0.702237 -0.117048 -0.702255 -0.707116 -0.000002 0.707098 -2.714844 0.992188 0 0 0 0 0.000000 0.000000 0.000000 0.000000
-20.059650 -3.943349 -8.667750 -0.702237 -0.117048 -0.702255 -0.707116 -0.000002 0.707098 -2.656250 0.945312 0 0 0 0 0.000000 0.000000 0.000000 0.000000
-20.231100 -4.057649 -8.820150 0.702249 -0.117049 -0.702244 0.707104 -0.000000 0.707109 -3.562500 0.992188 0 0 0 0 0.000000 0.000000 0.000000 0.000000
-20.059650 -4.057649 -8.648701 0.702249 -0.117049 -0.702244 0.707104 -0.000000 0.707109 -3.492188 0.992188 0 0 0 0 0.000000 0.000000 0.000000 0.000000
-20.059650 -3.943349 -8.667750 0.702249 -0.117049 -0.702244 0.707104 -0.000000 0.707109 -3.500000 0.945312 0 0 0 0 0.000000 0.000000 0.000000 0.000000
-20.021551 -4.057649 -8.610601 0.702249 -0.117040 -0.702245 0.707105 0.000001 0.707109 -3.476562 0.992188 0 0 0 0 0.000000 0.000000 0.000000 0.000000
-19.850100 -4.057649 -8.439150 0.702249 -0.117040 -0.702245 0.707105 0.000001 0.707109 -3.406250 0.992188 0 0 0 0 0.000000 0.000000 0.000000 0.000000
-19.991070 -3.943349 -8.599171 0.702249 -0.117040 -0.702245 0.707105 0.000000 0.707109 -3.471875 0.945312 0 0 0 0 0.000000 0.000000 0.000000 0.000000
-20.002499 -3.943349 -8.610601 0.702249 -0.117040 -0.702245 0.707105 0.000001 0.707109 -3.476562 0.945312 0 0 0 0 0.000000 0.000000 0.000000 0.000000
-20.002499 -3.943349 -8.610601 0.702247 -0.117041 0.702247 -0.707107 -0.000001 0.707107 -2.632812 0.945312 0 0 0 0 0.000000 0.000000 0.000000 0.000000
-19.859625 -4.057649 -8.772526 0.702247 -0.117041 0.702247 -0.707107 -0.000001 0.707107 -2.699219 0.992188 0 0 0 0 0.000000 0.000000 0.000000 0.000000
-20.021551 -4.057649 -8.610601 0.702247 -0.117041 0.702247 -0.707107 -0.000001 0.707107 -2.632812 0.992188 0 0 0 0 0.000000 0.000000 0.000000 0.000000
-19.850100 -4.057649 -8.439150 0.263880 0.879598 0.395821 0.957825 -0.287351 0.000006 -8.062500 2.562500 0 0 0 0 0.000000 0.000000 0.000000 0.000000
-19.907249 -4.057649 -8.401051 0.263880 0.879598 0.395821 0.957825 -0.287351 0.000006 -8.085938 2.546875 0 0 0 0 0.000000 0.000000 0.000000 0.000000
-20.059650 -3.943349 -8.553451 0.263880 0.879598 0.395821 0.957827 -0.287346 -0.000006 -8.148438 2.609375 0 0 0 0 0.000000 0.000000 0.000000 0.000000
-19.991070 -3.943349 -8.599171 0.263880 0.879598 0.395821 0.957825 -0.287351 0.000006 -8.120313 2.628125 0 0 0 0 0.000000 0.000000 0.000000 0.000000
-11.315701 -4.040697 9.616058 1.000000 -0.000000 0.000018 -0.000018 -0.000003 1.000000 3.170156 1.821172 0 0 0 0 0.000000 0.000000 0.000000 0.000000
-11.315701 -4.057652 9.582150 1.000000 -0.000000 0.000018 -0.000018 -0.000003 1.000000 3.156250 1.828125 0 0 0 0 0.000000 0.000000 0.000000 0.000000
-11.315701 -4.133852 9.601199 1.000000 -0.000000 0.000018 -0.000018 0.000000 1.000000 3.164062 1.859375 0 0 0 0 0.000000 0.000000 0.000000 0.000000
-11.315701 -4.133852 9.639299 1.000000 -0.000000 0.000018 -0.000018 -0.000003 1.000000 3.179688 1.859375 0 0 0 0 0.000000 0.000000 0.000000 0.000000
-11.087099 -3.981452 9.772649 0.000000 0.000000 -1.000000 1.000000 0.000000 0.000000 -4.109375 1.796875 0 0 0 0 0.000000 0.000000 0.000000 0.000000
-11.125200 -3.981452 9.772649 0.000000 0.000000 -1.000000 1.000000 0.000000 0.000000 -4.125000 1.796875 0 0 0 0 0.000000 0.000000 0.000000 0.000000
-11.125200 -4.210052 9.772649 0.000000 0.000000 -1.000000 1.000000 0.000000 0.000000 -4.125000 1.890625 0 0 0 0 0.000000 0.000000 0.000000 0.000000
-11.087099 -4.133852 9.772649 0.000000 0.000000 -1.000000 1.000000 0.000000 0.000000 -4.109375 1.859375 0 0 0 0 0.000000 0.000000 0.000000 0.000000
-11.087099 -3.981452 9.772649 0.000000 1.000000 0.000000 1.000000 0.000000 0.000000 -4.109375 -3.343750 0 0 0 0 0.000000 0.000000 0.000000 0.000000
-11.087099 -3.981452 9.810749 0.000000 1.000000 0.000000 1.000000 0.000000 0.000000 -4.109375 -3.359375 0 0 0 0 0.000000 0.000000 0.000000 0.000000
-11.125200 -3.981452 9.810749 0.000000 1.000000 0.000000 1.000000 0.000000 0.000000 -4.125000 -3.359375 0 0 0 0 0.000000 0.000000 0.000000 0.000000
-11.125200 -3.981452 9.772649 0.000000 1.000000 0.000000 1.000000 0.000000 0.000000 -4.125000 -3.343750 0 0 0 0 0.000000 0.000000 0.000000 0.000000
-11.087099 -3.981452 9.810749 1.000000 0.000000 0.000000 0.000000 0.000000 1.000000 3.359375 1.796875 0 0 0 0 0.000000 0.000000 0.000000 0.000000
-11.087099 -3.981452 9.772649 1.000000 0.000000 0.000000 0.000000 0.000000 1.000000 3.343750 1.796875 0 0 0 0 0.000000 0.000000 0.000000 0.000000
-11.087099 -4.133852 9.772649 1.000000 0.000000 0.000000 0.000000 0.000000 1.000000 3.343750 1.859375 0 0 0 0 0.000000 0.000000 0.000000 0.000000
-11.087099 -4.133852 9.810749 1.000000 0.000000 0.000000 0.000000 0.000000 1.000000 3.359375 1.859375 0 0 0 0 0.000000 0.000000 0.000000 0.000000
-11.125200 -3.981452 9.810749 0.000000 -0.000000 1.000000 1.000000 0.000000 0.000000 -4.125000 1.796875 0 0 0 0 0.000000 0.000000 0.000000 0.000000
-11.087099 -3.981452 9.810749 0.000000 -0.000000 1.000000 1.000000 0.000000 0.000000 -4.109375 1.796875 0 0 0 0 0.000000 0.000000 0.000000 0.000000
-11.087099 -4.133852 9.810749 0.000000 -0.000000 1.000000 1.000000 0.000000 0.000000 -4.109375 1.859375 0 0 0 0 0.000000 0.000000 0.000000 0.000000
-11.125200 -4.210052 9.810749 0.000000 -0.000000 1.000000 1.000000 0.000000 0.000000 -4.125000 1.890625 0 0 0 0 0.000000 0.000000 0.000000 0.000000
-11.125200 -3.981452 9.772649 -1.000000 0.000000 0.000000 0.000000 0.000000 1.000000 3.343750 1.796875 0 0 0 0 0.000000 0.000000 0.000000 0.000000
-11.125200 -3.981452 9.810749 -1.000000 0.000000 0.000000 0.000000 0.000000 1.000000 3.359375 1.796875 0 0 0 0 0.000000 0.000000 0.000000 0.000000
-11.125200 -4.210052 9.810749 -1.000000 0.000000 0.000000 0.000000 0.000000 1.000000 3.359375 1.890625 0 0 0 0 0.000000 0.000000 0.000000 0.000000
-11.125200 -4.210052 9.772649 -1.000000 0.000000 0.000000 0.000000 0.000000 1.000000 3.343750 1.890625 0 0 0 0 0.000000 0.000000 0.000000 0.000000
-11.087099 -4.133852 9.810749 0.894425 -0.447217 -0.000000 0.000000 -0.000000 1.000000 3.875000 2.250000 0 0 0 0 0.000000 0.000000 0.000000 0.000000
-11.087099 -4.133852 9.772649 0.894425 -0.447217 -0.000000 0.000000 -0.000000 1.000000 3.859375 2.250000 0 0 0 0 0.000000 0.000000 0.000000 0.000000
-11.125200 -4.210052 9.772649 0.894425 -0.447217 -0.000000 0.000000 -0.000000 1.000000 3.859375 2.281250 0 0 0 0 0.000000 0.000000 0.000000 0.000000
-11.125200 -4.210052 9.810749 0.894425 -0.447217 -0.000000 0.000000 -0.000000 1.000000 3.875000 2.281250 0 0 0 0 0.000000 0.000000 0.000000 0.000000
-11.658600 -3.981452 9.772649 0.000000 0.000000 -1.000000 1.000000 0.000000 0.000000 -4.093750 1.796875 0 0 0 0 0.000000 0.000000 0.000000 0.000000
-11.696700 -3.981452 9.772649 0.000000 0.000000 -1.000000 1.000000 0.000000 0.000000 -4.109375 1.796875 0 0 0 0 0.000000 0.000000 0.000000 0.000000
-11.696700 -4.171951 9.772649 0.000000 0.000000 -1.000000 1.000000 -0.000010 -0.000000 -4.109375 1.875000 0 0 0 0 0.000000 0.000000 0.000000 0.000000
-11.658600 -4.210052 9.772649 0.000000 0.000000 -1.000000 1.000000 0.000000 0.000000 -4.093750 1.890625 0 0 0 0 0.000000 0.000000 0.000000 0.000000
-11.658600 -3.981452 9.772649 0.000000 1.000000 0.000000 1.000000 0.000000 0.000000 -4.093750 -3.343750 0 0 0 0 0.000000 0.000000 0.000000 0.000000
-11.658600 -3.981452 9.810749 0.000000 1.000000 0.000000 1.000000 0.000000 0.000000 -4.093750 -3.359375 0 0 0 0 0.000000 0.000000 0.000000 0.000000
-11.696700 -3.981452 9.810749 0.000000 1.000000 0.000000 1.000000 0.000000 0.000000 -4.109375 -3.359375 0 0 0 0 0.000000 0.000000 0.000000 0.000000
-11.696700 -3.981452 9.772649 0.000000 1.000000 0.000000 1.000000 0.000000 0.000000 -4.109375 -3.343750 0 0 0 0 0.000000 0.000000 0.000000 0.000000
-11.696700 -3.981452 9.772649 -1.000000 0.000000 0.000000 0.000000 0.000000 1.000000 3.343750 1.796875 0 0 0 0 0.000000 0.000000 0.000000 0.000000
-11.696700 -3.981452 9.810749 -1.000000 0.000000 0.000000 0.000000 0.000000 1.000000 3.359375 1.796875 0 0 0 0 0.000000 0.000000 0.000000 0.000000
-11.696700 -4.171951 9.810749 -1.000000 0.000000 0.000000 0.000000 0.000000 1.000000 3.359375 1.875000 0 0 0 0 0.000000 0.000000 0.000000 0.000000
-11.696700 -4.171951 9.772649 -1.000000 0.000000 0.000000 0.000000 0.000000 1.000000 3.343750 1.875000 0 0 0 0 0.000000 0.000000 0.000000 0.000000
-11.696700 -3.981452 9.810749 0.000000 -0.000000 1.000000 1.000000 0.000000 0.000000 -4.109375 1.796875 0 0 0 0 0.000000 0.000000 0.000000 0.000000
-11.658600 -3.981452 9.810749 0.000000 -0.000000 1.000000 1.000000 0.000000 0.000000 -4.093750 1.796875 0 0 0 0 0.000000 0.000000 0.000000 0.000000
-11.658600 -4.210052 9.810749 0.000000 -0.000000 1.000000 1.000000 -0.000008 -0.000000 -4.093750 1.890625 0 0 0 0 0.000000 0.000000 0.000000 0.000000
-11.696700 -4.171951 9.810749 0.000000 -0.000000 1.000000 1.000000 0.000000 0.000000 -4.109375 1.875000 0 0 0 0 0.000000 0.000000 0.000000 0.000000
-11.658600 -3.981452 9.810749 1.000000 0.000000 0.000000 0.000000 0.000000 1.000000 3.359375 1.796875 0 0 0 0 0.000000 0.000000 0.000000 0.000000
-11.658600 -3.981452 9.772649 1.000000 0.000000 0.000000 0.000000 0.000000 1.000000 3.343750 1.796875 0 0 0 0 0.000000 0.000000 0.000000 0.000000
-11.658600 -4.210052 9.772649 1.000000 0.000000 0.000000 0.000000 0.000000 1.000000 3.343750 1.890625 0 0 0 0 0.000000 0.000000 0.000000 0.000000
-11.658600 -4.210052 9.810749 1.000000 0.000000 0.000000 0.000000 0.000000 1.000000 3.359375 1.890625 0 0 0 0 0.000000 0.000000 0.000000 0.000000
-11.696700 -4.171951 9.772649 -0.707107 -0.707107 -0.000000 0.707107 -0.707107 -0.000000 -4.945312 -3.453125 0 0 0 0 0.000000 0.000000 0.000000 0.000000
-11.696700 -4.171951 9.810749 -0.707107 -0.707107 -0.000000 0.707107 -0.707107 -0.000000 -4.945312 -3.468750 0 0 0 0 0.000000 0.000000 0.000000 0.000000
-11.658600 -4.210052 9.810749 -0.707107 -0.707107 -0.000000 0.707107 -0.707107 -0.000000 -4.929688 -3.468750 0 0 0 0 0.000000 0.000000 0.000000 0.000000
-11.658600 -4.210052 9.772649 -0.707107 -0.707107 -0.000000 0.707107 -0.707107 -0.000000 -4.929688 -3.453125 0 0 0 0 0.000000 0.000000 0.000000 0.000000
-11.468101 -4.133852 9.639299 -1.000000 0.000000 -0.000014 -0.000014 0.000000 1.000000 3.179688 1.859375 0 0 0 0 0.000000 0.000000 0.000000 0.000000
-11.468101 -4.133852 9.601199 -1.000000 0.000000 -0.000014 -0.000014 0.000000 1.000000 3.164062 1.859375 0 0 0 0 0.000000 0.000000 0.000000 0.000000
-11.468101 -4.057652 9.582150 -1.000000 0.000000 -0.000014 -0.000014 -0.000003 1.000000 3.156250 1.828125 0 0 0 0 0.000000 0.000000 0.000000 0.000000
-11.468101 -4.040697 9.616058 -1.000000 0.000000 -0.000014 -0.000014 0.000000 1.000000 3.170156 1.821172 0 0 0 0 0.000000 0.000000 0.000000 0.000000
-11.315701 -4.057652 9.582150 0.000000 -0.242535 -0.970143 1.000000 0.000000 0.000000 -4.585938 1.828125 0 0 0 0 0.000000 0.000000 0.000000 0.000000
-11.468101 -4.057652 9.582150 0.000000 -0.242535 -0.970143 1.000000 0.000000 0.000000 -4.648438 1.828125 0 0 0 0 0.000000 0.000000 0.000000 0.000000
-11.468101 -4.133852 9.601199 0.000000 -0.242535 -0.970143 1.000000 0.000000 0.000000 -4.648438 1.859375 0 0 0 0 0.000000 0.000000 0.000000 0.000000
-11.315701 -4.133852 9.601199 0.000000 -0.242535 -0.970143 1.000000 0.000000 0.000000 -4.585938 1.859375 0 0 0 0 0.000000 0.000000 0.000000 0.000000
-11.468101 -4.040697 9.616058 0.000000 0.242070 0.970259 1.000000 0.000000 0.000000 -4.648438 1.821172 0 0 0 0 0.000000 0.000000 0.000000 0.000000
-11.315701 -4.040697 9.616058 0.000000 0.242070 0.970259 1.000000 0.000000 0.000000 -4.585938 1.821172 0 0 0 0 0.000000 0.000000 0.000000 0.000000
-11.315701 -4.133852 9.639299 0.000000 0.242070 0.970259 1.000000 0.000000 0.000000 -4.585938 1.859375 0 0 0 0 0.000000 0.000000 0.000000 0.000000
-11.468101 -4.133852 9.639299 0.000000 0.242070 0.970259 1.000000 0.000000 0.000000 -4.648438 1.859375 0 0 0 0 0.000000 0.000000 0.000000 0.000000
-14.592299 -4.133852 9.639299 -1.000000 -0.000000 0.000014 0.000014 0.000000 1.000000 3.179688 1.859375 0 0 0 0 0.000000 0.000000 0.000000 0.000000
-14.592299 -4.133852 9.601199 -1.000000 -0.000000 0.000014 0.000014 0.000000 1.000000 3.164062 1.859375 0 0 0 0 0.000000 0.000000 0.000000 0.000000
-14.592299 -4.057652 9.582150 -1.000000 -0.000000 0.000014 0.000014 -0.000003 1.000000 3.156250 1.828125 0 0 0 0 0.000000 0.000000 0.000000 0.000000
-14.592299 -4.040697 9.616058 -1.000000 -0.000000 0.000014 0.000014 0.000000 1.000000 3.170156 1.821172 0 0 0 0 0.000000 0.000000 0.000000 0.000000
-14.211300 -3.981452 9.772649 0.000000 0.000000 -1.000000 1.000000 0.000000 0.000000 -5.109375 1.796875 0 0 0 0 0.000000 0.000000 0.000000 0.000000
-14.249400 -3.981452 9.772649 0.000000 0.000000 -1.000000 1.000000 0.000000 0.000000 -5.125000 1.796875 0 0 0 0 0.000000 0.000000 0.000000 0.000000
-14.249400 -4.210052 9.772649 0.000000 0.000000 -1.000000 1.000000 0.000000 0.000000 -5.125000 1.890625 0 0 0 0 0.000000 0.000000 0.000000 0.000000
-14.211300 -4.133852 9.772649 0.000000 0.000000 -1.000000 1.000000 0.000000 0.000000 -5.109375 1.859375 0 0 0 0 0.000000 0.000000 0.000000 0.000000
-14.211300 -3.981452 9.772649 0.000000 1.000000 0.000000 1.000000 0.000000 0.000000 -5.109375 -3.343750 0 0 0 0 0.000000 0.000000 0.000000 0.000000
-14.211300 -3.981452 9.810749 0.000000 1.000000 0.000000 1.000000 0.000000 0.000000 -5.109375 -3.359375 0 0 0 0 0.000000 0.000000 0.000000 0.000000
-14.249400 -3.981452 9.810749 0.000000 1.000000 0.000000 1.000000 0.000000 0.000000 -5.125000 -3.359375 0 0 0 0 0.000000 0.000000 0.000000 0.000000
-14.249400 -3.981452 9.772649 0.000000 1.000000 0.000000 1.000000 0.000000 0.000000 -5.125000 -3.343750 0 0 0 0 0.000000 0.000000 0.000000 0.000000
-14.211300 -3.981452 9.810749 1.000000 0.000000 0.000000 0.000000 0.000000 1.000000 3.359375 1.796875 0 0 0 0 0.000000 0.000000 0.000000 0.000000
-14.211300 -3.981452 9.772649 1.000000 0.000000 0.000000 0.000000 0.000000 1.000000 3.343750 1.796875 0 0 0 0 0.000000 0.000000 0.000000 0.000000
-14.211300 -4.133852 9.772649 1.000000 0.000000 0.000000 0.000000 0.000000 1.000000 3.343750 1.859375 0 0 0 0 0.000000 0.000000 0.000000 0.000000
-14.211300 -4.133852 9.810749 1.000000 0.000000 0.000000 0.000000 0.000000 1.000000 3.359375 1.859375 0 0 0 0 0.000000 0.000000 0.000000 0.000000
-14.249400 -3.981452 9.810749 0.000000 -0.000000 1.000000 1.000000 0.000000 0.000000 -5.125000 1.796875 0 0 0 0 0.000000 0.000000 0.000000 0.000000
-14.211300 -3.981452 9.810749 0.000000 -0.000000 1.000000 1.000000 0.000000 0.000000 -5.109375 1.796875 0 0 0 0 0.000000 0.000000 0.000000 0.000000
-14.211300 -4.133852 9.810749 0.000000 -0.000000 1.000000 1.000000 0.000000 0.000000 -5.109375 1.859375 0 0 0 0 0.000000 0.000000 0.000000 0.000000
-14.249400 -4.210052 9.810749 0.000000 -0.000000 1.000000 1.000000 0.000000 0.000000 -5.125000 1.890625 0 0 0 0 0.000000 0.000000 0.000000 0.000000
-14.249400 -3.981452 9.772649 -1.000000 0.000000 0.000000 0.000000 0.000000 1.000000 3.343750 1.796875 0 0 0 0 0.000000 0.000000 0.000000 0.000000
-14.249400 -3.981452 9.810749 -1.000000 0.000000 0.000000 0.000000 0.000000 1.000000 3.359375 1.796875 0 0 0 0 0.000000 0.000000 0.000000 0.000000
-14.249400 -4.210052 9.810749 -1.000000 0.000000 0.000000 0.000000 0.000000 1.000000 3.359375 1.890625 0 0 0 0 0.000000 0.000000 0.000000 0.000000
-14.249400 -4.210052 9.772649 -1.000000 0.000000 0.000000 0.000000 0.000000 1.000000 3.343750 1.890625 0 0 0 0 0.000000 0.000000 0.000000 0.000000
-14.211300 -4.133852 9.810749 0.894425 -0.447217 -0.000000 0.000000 -0.000000 1.000000 3.875000 2.250000 0 0 0 0 0.000000 0.000000 0.000000 0.000000
-14.211300 -4.133852 9.772649 0.894425 -0.447217 -0.000000 0.000000 -0.000000 1.000000 3.859375 2.250000 0 0 0 0 0.000000 0.000000 0.000000 0.000000
-14.249400 -4.210052 9.772649 0.894425 -0.447217 -0.000000 0.000000 -0.000000 1.000000 3.859375 2.281250 0 0 0 0 0.000000 0.000000 0.000000 0.000000
-14.249400 -4.210052 9.810749 0.894425 -0.447217 -0.000000 0.000000 -0.000000 1.000000 3.875000 2.281250 0 0 0 0 0.000000 0.000000 0.000000 0.000000
-14.439899 -4.040697 9.616058 1.000000 0.000000 0.000000 0.000000 -0.000003 1.000000 3.170156 1.821172 0 0 0 0 0.000000 0.000000 0.000000 0.000000
-14.439899 -4.057652 9.582150 1.000000 0.000000 0.000000 0.000000 -0.000003 1.000000 3.156250 1.828125 0 0 0 0 0.000000 0.000000 0.000000 0.000000
-14.439899 -4.133852 9.601199 1.000000 0.000000 0.000000 0.000000 0.000000 1.000000 3.164062 1.859375 0 0 0 0 0.000000 0.000000 0.000000 0.000000
-14.439899 -4.133852 9.639299 1.000000 0.000000 0.000000 0.000000 -0.000003 1.000000 3.179688 1.859375 0 0 0 0 0.000000 0.000000 0.000000 0.000000
-14.439899 -4.057652 9.582150 0.000000 -0.242535 -0.970143 1.000000 0.000000 0.000000 -5.585938 1.828125 0 0 0 0 0.000000 0.000000 0.000000 0.000000
-14.592299 -4.057652 9.582150 0.000000 -0.242535 -0.970143 1.000000 0.000000 0.000000 -5.648438 1.828125 0 0 0 0 0.000000 0.000000 0.000000 0.000000
-14.592299 -4.133852 9.601199 0.000000 -0.242535 -0.970143 1.000000 0.000000 0.000000 -5.648438 1.859375 0 0 0 0 0.000000 0.000000 0.000000 0.000000
-14.439899 -4.133852 9.601199 0.000000 -0.242535 -0.970143 1.000000 0.000000 0.000000 -5.585938 1.859375 0 0 0 0 0.000000 0.000000 0.000000 0.000000
-14.592299 -4.040697 9.616058 0.000000 0.242070 0.970259 1.000000 0.000000 0.000000 -5.648438 1.821172 0 0 0 0 0.000000 0.000000 0.000000 0.000000
-14.439899 -4.040697 9.616058 0.000000 0.242070 0.970259 1.000000 0.000000 0.000000 -5.585938 1.821172 0 0 0 0 0.000000 0.000000 0.000000 0.000000
-14.439899 -4.133852 9.639299 0.000000 0.242070 0.970259 1.000000 0.000000 0.000000 -5.585938 1.859375 0 0 0 0 0.000000 0.000000 0.000000 0.000000
-14.592299 -4.133852 9.639299 0.000000 0.242070 0.970259 1.000000 0.000000 0.000000 -5.648438 1.859375 0 0 0 0 0.000000 0.000000 0.000000 0.000000
-14.782800 -3.981452 9.772649 0.000000 0.000000 -1.000000 1.000000 0.000000 0.000000 -5.093750 1.796875 0 0 0 0 0.000000 0.000000 0.000000 0.000000
-14.820899 -3.981452 9.772649 0.000000 0.000000 -1.000000 1.000000 0.000000 0.000000 -5.109375 1.796875 0 0 0 0 0.000000 0.000000 0.000000 0.000000
-14.820899 -4.171951 9.772649 0.000000 0.000000 -1.000000 1.000000 -0.000010 -0.000000 -5.109375 1.875000 0 0 0 0 0.000000 0.000000 0.000000 0.000000
-14.782800 -4.210052 9.772649 0.000000 0.000000 -1.000000 1.000000 0.000000 0.000000 -5.093750 1.890625 0 0 0 0 0.000000 0.000000 0.000000 0.000000
-14.782800 -3.981452 9.772649 0.000000 1.000000 0.000000 1.000000 0.000000 0.000000 -5.093750 -3.343750 0 0 0 0 0.000000 0.000000 0.000000 0.000000
-14.782800 -3.981452 9.810749 0.000000 1.000000 0.000000 1.000000 0.000000 0.000000 -5.093750 -3.359375 0 0 0 0 0.000000 0.000000 0.000000 0.000000
-14.820899 -3.981452 9.810749 0.000000 1.000000 0.000000 1.000000 0.000000 0.000000 -5.109375 -3.359375 0 0 0 0 0.000000 0.000000 0.000000 0.000000
-14.820899 -3.981452 9.772649 0.000000 1.000000 0.000000 1.000000 0.000000 0.000000 -5.109375 -3.343750 0 0 0 0 0.000000 0.000000 0.000000 0.000000
-14.820899 -3.981452 9.772649 -1.000000 0.000000 0.000000 0.000000 0.000000 1.000000 3.343750 1.796875 0 0 0 0 0.000000 0.000000 0.000000 0.000000
-14.820899 -3.981452 9.810749 -1.000000 0.000000 0.000000 0.000000 0.000000 1.000000 3.359375 1.796875 0 0 0 0 0.000000 0.000000 0.000000 0.000000
-14.820899 -4.171951 9.810749 -1.000000 0.000000 0.000000 0.000000 0.000000 1.000000 3.359375 1.875000 0 0 0 0 0.000000 0.000000 0.000000 0.000000
-14.820899 -4.171951 9.772649 -1.000000 0.000000 0.000000 0.000000 0.000000 1.000000 3.343750 1.875000 0 0 0 0 0.000000 0.000000 0.000000 0.000000
-14.820899 -3.981452 9.810749 0.000000 -0.000000 1.000000 1.000000 0.000000 0.000000 -5.109375 1.796875 0 0 0 0 0.000000 0.000000 0.000000 0.000000
-14.782800 -3.981452 9.810749 0.000000 -0.000000 1.000000 1.000000 0.000000 0.000000 -5.093750 1.796875 0 0 0 0 0.000000 0.000000 0.000000 0.000000
-14.782800 -4.210052 9.810749 0.000000 -0.000000 1.000000 1.000000 -0.000008 -0.000000 -5.093750 1.890625 0 0 0 0 0.000000 0.000000 0.000000 0.000000
-14.820899 -4.171951 9.810749 0.000000 -0.000000 1.000000 1.000000 0.000000 0.000000 -5.109375 1.875000 0 0 0 0 0.000000 0.000000 0.000000 0.000000
-14.782800 -3.981452 9.810749 1.000000 0.000000 0.000000 0.000000 0.000000 1.000000 3.359375 1.796875 0 0 0 0 0.000000 0.000000 0.000000 0.000000
-14.782800 -3.981452 9.772649 1.000000 0.000000 0.000000 0.000000 0.000000 1.000000 3.343750 1.796875 0 0 0 0 0.000000 0.000000 0.000000 0.000000
-14.782800 -4.210052 9.772649 1.000000 0.000000 0.000000 0.000000 0.000000 1.000000 3.343750 1.890625 0 0 0 0 0.000000 0.000000 0.000000 0.000000
-14.782800 -4.210052 9.810749 1.000000 0.000000 0.000000 0.000000 0.000000 1.000000 3.359375 1.890625 0 0 0 0 0.000000 0.000000 0.000000 0.000000
-14.820899 -4.171951 9.772649 -0.707107 -0.707107 -0.000000 0.707107 -0.707107 0.000000 -6.226562 -3.453125 0 0 0 0 0.000000 0.000000 0.000000 0.000000
-14.820899 -4.171951 9.810749 -0.707107 -0.707107 -0.000000 0.707107 -0.707107 0.000000 -6.226562 -3.468750 0 0 0 0 0.000000 0.000000 0.000000 0.000000
-14.782800 -4.210052 9.810749 -0.707107 -0.707107 -0.000000 0.707107 -0.707107 0.000000 -6.210938 -3.468750 0 0 0 0 0.000000 0.000000 0.000000 0.000000
-14.782800 -4.210052 9.772649 -0.707107 -0.707107 -0.000000 0.707107 -0.707107 0.000000 -6.210938 -3.453125 0 0 0 0 0.000000 0.000000 0.000000 0.000000
-7.429500 -4.133851 5.524499 0.000000 -0.000000 1.000000 1.000000 0.000000 0.000000 -3.820312 1.859375 0 0 0 0 0.000000 0.000000 0.000000 0.000000
-7.467600 -4.133851 5.524499 0.000000 -0.000000 1.000000 1.000000 0.000000 0.000000 -3.835938 1.859375 0 0 0 0 0.000000 0.000000 0.000000 0.000000
-7.486650 -4.057651 5.524499 0.000000 -0.000000 1.000000 1.000000 -0.000003 -0.000000 -3.843750 1.828125 0 0 0 0 0.000000 0.000000 0.000000 0.000000
-7.452741 -4.040697 5.524499 0.000000 -0.000000 1.000000 1.000000 0.000000 0.000000 -3.829844 1.821172 0 0 0 0 0.000000 0.000000 0.000000 0.000000
-7.296150 -3.981451 5.714999 -1.000000 0.000000 -0.000016 -0.000016 0.000000 1.000000 2.781250 1.796875 0 0 0 0 0.000000 0.000000 0.000000 0.000000
-7.296150 -3.981451 5.753099 -1.000000 0.000000 -0.000016 -0.000016 0.000000 1.000000 2.796875 1.796875 0 0 0 0 0.000000 0.000000 0.000000 0.000000
-7.296150 -4.133851 5.753099 -1.000000 0.000000 -0.000016 -0.000016 0.000000 1.000000 2.796875 1.859375 0 0 0 0 0.000000 0.000000 0.000000 0.000000
-7.296150 -4.210051 5.714999 -1.000000 0.000000 -0.000016 -0.000016 0.000000 1.000000 2.781250 1.890625 0 0 0 0 0.000000 0.000000 0.000000 0.000000
-7.258050 -3.981451 5.753099 0.000000 1.000000 0.000000 1.000000 0.000000 0.000000 -2.539062 -1.695312 0 0 0 0 0.000000 0.000000 0.000000 0.000000
-7.296150 -3.981451 5.753099 0.000000 1.000000 0.000000 1.000000 0.000000 0.000000 -2.554688 -1.695312 0 0 0 0 0.000000 0.000000 0.000000 0.000000
-7.296150 -3.981451 5.714999 0.000000 1.000000 0.000000 1.000000 0.000000 0.000000 -2.554688 -1.679688 0 0 0 0 0.000000 0.000000 0.000000 0.000000
-7.258050 -3.981451 5.714999 0.000000 1.000000 0.000000 1.000000 0.000000 0.000000 -2.539062 -1.679688 0 0 0 0 0.000000 0.000000 0.000000 0.000000
-7.296150 -3.981451 5.753099 0.000000 -0.000000 1.000000 1.000000 0.000000 0.000000 -3.656250 1.796875 0 0 0 0 0.000000 0.000000 0.000000 0.000000
-7.258050 -3.981451 5.753099 0.000000 -0.000000 1.000000 1.000000 0.000000 0.000000 -3.640625 1.796875 0 0 0 0 0.000000 0.000000 0.000000 0.000000
-7.258050 -4.133851 5.753099 0.000000 -0.000000 1.000000 1.000000 0.000000 0.000000 -3.640625 1.859375 0 0 0 0 0.000000 0.000000 0.000000 0.000000
-7.296150 -4.133851 5.753099 0.000000 -0.000000 1.000000 1.000000 0.000000 0.000000 -3.656250 1.859375 0 0 0 0 0.000000 0.000000 0.000000 0.000000
-7.258050 -3.981451 5.753099 1.000000 0.000000 -0.000008 0.000008 0.000000 1.000000 2.796875 1.796875 0 0 0 0 0.000000 0.000000 0.000000 0.000000
-7.258050 -3.981451 5.714999 1.000000 0.000000 -0.000008 0.000008 0.000000 1.000000 2.781250 1.796875 0 0 0 0 0.000000 0.000000 0.000000 0.000000
-7.258050 -4.210051 5.714999 1.000000 0.000000 -0.000008 0.000008 0.000000 1.000000 2.781250 1.890625 0 0 0 0 0.000000 0.000000 0.000000 0.000000
-7.258050 -4.133851 5.753099 1.000000 0.000000 -0.000008 0.000008 0.000000 1.000000 2.796875 1.859375 0 0 0 0 0.000000 0.000000 0.000000 0.000000
-7.258050 -3.981451 5.714999 0.000000 0.000000 -1.000000 1.000000 0.000000 0.000000 -3.640625 1.796875 0 0 0 0 0.000000 0.000000 0.000000 0.000000
-7.296150 -3.981451 5.714999 0.000000 0.000000 -1.000000 1.000000 0.000000 0.000000 -3.656250 1.796875 0 0 0 0 0.000000 0.000000 0.000000 0.000000
-7.296150 -4.210051 5.714999 0.000000 0.000000 -1.000000 1.000000 0.000000 0.000000 -3.656250 1.890625 0 0 0 0 0.000000 0.000000 0.000000 0.000000
-7.258050 -4.210051 5.714999 0.000000 0.000000 -1.000000 1.000000 0.000000 0.000000 -3.640625 1.890625 0 0 0 0 0.000000 0.000000 0.000000 0.000000
-7.296150 -4.133851 5.753099 0.000000 -0.447206 0.894431 1.000000 0.000000 0.000000 -3.140625 2.250000 0 0 0 0 0.000000 0.000000 0.000000 0.000000
-7.258050 -4.133851 5.753099 0.000000 -0.447206 0.894431 1.000000 0.000000 0.000000 -3.125000 2.250000 0 0 0 0 0.000000 0.000000 0.000000 0.000000
-7.258050 -4.210051 5.714999 0.000000 -0.447206 0.894431 1.000000 0.000000 0.000000 -3.125000 2.281250 0 0 0 0 0.000000 0.000000 0.000000 0.000000
-7.296150 -4.210051 5.714999 0.000000 -0.447206 0.894431 1.000000 0.000000 0.000000 -3.140625 2.281250 0 0 0 0 0.000000 0.000000 0.000000 0.000000
-7.296150 -3.981451 5.143499 -1.000000 0.000000 0.000000 0.000000 0.000000 1.000000 2.796875 1.796875 0 0 0 0 0.000000 0.000000 0.000000 0.000000
-7.296150 -3.981451 5.181600 -1.000000 0.000000 0.000000 0.000000 0.000000 1.000000 2.812500 1.796875 0 0 0 0 0.000000 0.000000 0.000000 0.000000
-7.296150 -4.210051 5.181600 -1.000000 0.000000 0.000000 0.000000 -0.000008 1.000000 2.812500 1.890625 0 0 0 0 0.000000 0.000000 0.000000 0.000000
-7.296150 -4.171951 5.143499 -1.000000 0.000000 0.000000 0.000000 0.000000 1.000000 2.796875 1.875000 0 0 0 0 0.000000 0.000000 0.000000 0.000000
-7.258050 -3.981451 5.181600 0.000000 1.000000 0.000000 1.000000 0.000000 0.000000 -2.289062 -1.460938 0 0 0 0 0.000000 0.000000 0.000000 0.000000
-7.296150 -3.981451 5.181600 0.000000 1.000000 0.000000 1.000000 0.000000 0.000000 -2.304688 -1.460938 0 0 0 0 0.000000 0.000000 0.000000 0.000000
-7.296150 -3.981451 5.143499 0.000000 1.000000 0.000000 1.000000 0.000000 0.000000 -2.304688 -1.445312 0 0 0 0 0.000000 0.000000 0.000000 0.000000
-7.258050 -3.981451 5.143499 0.000000 1.000000 0.000000 1.000000 0.000000 0.000000 -2.289062 -1.445312 0 0 0 0 0.000000 0.000000 0.000000 0.000000
-7.258050 -3.981451 5.143499 0.000000 0.000000 -1.000000 1.000000 0.000000 0.000000 -3.640625 1.796875 0 0 0 0 0.000000 0.000000 0.000000 0.000000
-7.296150 -3.981451 5.143499 0.000000 0.000000 -1.000000 1.000000 0.000000 0.000000 -3.656250 1.796875 0 0 0 0 0.000000 0.000000 0.000000 0.000000
-7.296150 -4.171951 5.143499 0.000000 0.000000 -1.000000 1.000000 0.000000 0.000000 -3.656250 1.875000 0 0 0 0 0.000000 0.000000 0.000000 0.000000
-7.258050 -4.171951 5.143499 0.000000 0.000000 -1.000000 1.000000 0.000000 0.000000 -3.640625 1.875000 0 0 0 0 0.000000 0.000000 0.000000 0.000000
-7.258050 -3.981451 5.181600 1.000000 -0.000000 0.000004 -0.000004 0.000000 1.000000 2.812500 1.796875 0 0 0 0 0.000000 0.000000 0.000000 0.000000
-7.258050 -3.981451 5.143499 1.000000 -0.000000 0.000004 -0.000004 0.000000 1.000000 2.796875 1.796875 0 0 0 0 0.000000 0.000000 0.000000 0.000000
-7.258050 -4.171951 5.143499 1.000000 -0.000000 0.000004 -0.000004 -0.000010 1.000000 2.796875 1.875000 0 0 0 0 0.000000 0.000000 0.000000 0.000000
-7.258050 -4.210051 5.181600 1.000000 -0.000000 0.000004 -0.000004 0.000000 1.000000 2.812500 1.890625 0 0 0 0 0.000000 0.000000 0.000000 0.000000
-7.296150 -3.981451 5.181600 0.000000 -0.000000 1.000000 1.000000 0.000000 0.000000 -3.656250 1.796875 0 0 0 0 0.000000 0.000000 0.000000 0.000000
-7.258050 -3.981451 5.181600 0.000000 -0.000000 1.000000 1.000000 0.000000 0.000000 -3.640625 1.796875 0 0 0 0 0.000000 0.000000 0.000000 0.000000
-7.258050 -4.210051 5.181600 0.000000 -0.000000 1.000000 1.000000 0.000000 0.000000 -3.640625 1.890625 0 0 0 0 0.000000 0.000000 0.000000 0.000000
-7.296150 -4.210051 5.181600 0.000000 -0.000000 1.000000 1.000000 0.000000 0.000000 -3.656250 1.890625 0 0 0 0 0.000000 0.000000 0.000000 0.000000
-7.258050 -4.171951 5.143499 0.000000 -0.707103 -0.707111 1.000000 0.000000 0.000000 -3.125000 -1.554688 0 0 0 0 0.000000 0.000000 0.000000 0.000000
-7.296150 -4.171951 5.143499 0.000000 -0.707103 -0.707111 1.000000 0.000000 0.000000 -3.140625 -1.554688 0 0 0 0 0.000000 0.000000 0.000000 0.000000
-7.296150 -4.210051 5.181600 0.000000 -0.707103 -0.707111 1.000000 0.000000 0.000000 -3.140625 -1.570312 0 0 0 0 0.000000 0.000000 0.000000 0.000000
-7.258050 -4.210051 5.181600 0.000000 -0.707103 -0.707111 1.000000 0.000000 0.000000 -3.125000 -1.570312 0 0 0 0 0.000000 0.000000 0.000000 0.000000
-7.452741 -4.040697 5.372099 0.000000 0.000005 -1.000000 1.000000 -0.000003 -0.000000 -3.829844 1.821172 0 0 0 0 0.000000 0.000000 0.000000 0.000000
-7.486650 -4.057651 5.372099 0.000000 0.000005 -1.000000 1.000000 -0.000003 -0.000000 -3.843750 1.828125 0 0 0 0 0.000000 0.000000 0.000000 0.000000
-7.467600 -4.133851 5.372099 0.000000 0.000005 -1.000000 1.000000 0.000000 0.000000 -3.835938 1.859375 0 0 0 0 0.000000 0.000000 0.000000 0.000000
-7.429500 -4.133851 5.372099 0.000000 0.000005 -1.000000 1.000000 -0.000003 -0.000000 -3.820312 1.859375 0 0 0 0 0.000000 0.000000 0.000000 0.000000
-7.486650 -4.057651 5.372099 -0.970142 -0.242538 -0.000000 -0.000000 -0.000000 1.000000 2.257812 1.828125 0 0 0 0 0.000000 0.000000 0.000000 0.000000
-7.486650 -4.057651 5.524499 -0.970142 -0.242538 -0.000000 -0.000000 -0.000000 1.000000 2.320312 1.828125 0 0 0 0 0.000000 0.000000 0.000000 0.000000
-7.467600 -4.133851 5.524499 -0.970142 -0.242538 -0.000000 -0.000000 -0.000000 1.000000 2.320312 1.859375 0 0 0 0 0.000000 0.000000 0.000000 0.000000
-7.467600 -4.133851 5.372099 -0.970142 -0.242538 -0.000000 -0.000000 -0.000000 1.000000 2.257812 1.859375 0 0 0 0 0.000000 0.000000 0.000000 0.000000
-7.452741 -4.040697 5.524499 0.970259 0.242070 0.000000 -0.000000 -0.000000 1.000000 2.320312 1.821172 0 0 0 0 0.000000 0.000000 0.000000 0.000000
-7.452741 -4.040697 5.372099 0.970259 0.242070 0.000000 -0.000000 -0.000000 1.000000 2.257812 1.821172 0 0 0 0 0.000000 0.000000 0.000000 0.000000
-7.429500 -4.133851 5.372099 0.970259 0.242070 0.000000 -0.000000 -0.000000 1.000000 2.257812 1.859375 0 0 0 0 0.000000 0.000000 0.000000 0.000000
-7.429500 -4.133851 5.524499 0.970259 0.242070 0.000000 -0.000000 -0.000000 1.000000 2.320312 1.859375 0 0 0 0 0.000000 0.000000 0.000000 0.000000
-1.143000 -4.152900 6.115050 -1.000000 0.000000 0.000000 0.000000 0.000000 1.000000 2.937500 1.515625 0 0 0 0 0.000000 0.000000 0.000000 0.000000
-1.143000 -4.000500 6.115050 -1.000000 0.000000 0.000000 0.000000 0.000000 1.000000 2.937500 1.453125 0 0 0 0 0.000000 0.000000 0.000000 0.000000
-1.143000 -4.000500 6.153150 -1.000000 0.000000 0.000000 0.000000 0.000000 1.000000 2.953125 1.453125 0 0 0 0 0.000000 0.000000 0.000000 0.000000
-1.143000 -4.152900 6.153150 -1.000000 0.000000 0.000000 0.000000 0.000000 1.000000 2.953125 1.515625 0 0 0 0 0.000000 0.000000 0.000000 0.000000
-1.143000 -4.000500 6.153150 0.000000 -0.000000 1.000000 1.000000 0.000000 0.000000 0.281250 1.453125 0 0 0 0 0.000000 0.000000 0.000000 0.000000
-1.104900 -4.000500 6.153150 0.000000 -0.000000 1.000000 1.000000 0.000000 0.000000 0.296875 1.453125 0 0 0 0 0.000000 0.000000 0.000000 0.000000
-1.104900 -4.191000 6.153150 0.000000 -0.000000 1.000000 1.000000 0.000000 0.000000 0.296875 1.531250 0 0 0 0 0.000000 0.000000 0.000000 0.000000
-1.143000 -4.229100 6.153150 0.000000 -0.000000 1.000000 1.000000 0.000000 0.000000 0.281250 1.546875 0 0 0 0 0.000000 0.000000 0.000000 0.000000
-1.143000 -4.152900 6.153150 0.000000 -0.000000 1.000000 0.000000 -1.000000 -0.000000 0.281250 1.515625 0 0 0 0 0.000000 0.000000 0.000000 0.000000
-1.104900 -4.000500 6.153150 1.000000 0.000000 0.000000 0.000000 0.000000 1.000000 2.953125 1.453125 0 0 0 0 0.000000 0.000000 0.000000 0.000000
-1.104900 -4.000500 6.115050 1.000000 0.000000 0.000000 0.000000 0.000000 1.000000 2.937500 1.453125 0 0 0 0 0.000000 0.000000 0.000000 0.000000
-1.104900 -4.191000 6.115050 1.000000 0.000000 0.000000 0.000000 0.000000 1.000000 2.937500 1.531250 0 0 0 0 0.000000 0.000000 0.000000 0.000000
-1.104900 -4.191000 6.153150 1.000000 0.000000 0.000000 0.000000 0.000000 1.000000 2.953125 1.531250 0 0 0 0 0.000000 0.000000 0.000000 0.000000
-1.104900 -4.000500 6.115050 0.000000 0.000000 -1.000000 1.000000 0.000000 0.000000 0.296875 1.453125 0 0 0 0 0.000000 0.000000 0.000000 0.000000
-1.143000 -4.000500 6.115050 0.000000 0.000000 -1.000000 1.000000 0.000000 0.000000 0.281250 1.453125 0 0 0 0 0.000000 0.000000 0.000000 0.000000
-1.143000 -4.152900 6.115050 0.000000 0.000000 -1.000000 1.000000 0.000000 0.000000 0.281250 1.515625 0 0 0 0 0.000000 0.000000 0.000000 0.000000
-1.143000 -4.229100 6.115050 0.000000 0.000000 -1.000000 1.000000 0.000000 0.000000 0.281250 1.546875 0 0 0 0 0.000000 0.000000 0.000000 0.000000
-1.104900 -4.191000 6.115050 0.000000 0.000000 -1.000000 1.000000 0.000000 0.000000 0.296875 1.531250 0 0 0 0 0.000000 0.000000 0.000000 0.000000
-1.104900 -4.191000 6.153150 0.707107 -0.707107 -0.000000 0.707107 0.707107 -0.000000 0.492188 -3.320312 0 0 0 0 0.000000 0.000000 0.000000 0.000000
-1.104900 -4.191000 6.115050 0.707107 -0.707107 -0.000000 0.707107 0.707107 -0.000000 0.492188 -3.304688 0 0 0 0 0.000000 0.000000 0.000000 0.000000
-1.143000 -4.229100 6.115050 0.707107 -0.707107 -0.000000 0.707107 0.707107 -0.000000 0.476562 -3.304688 0 0 0 0 0.000000 0.000000 0.000000 0.000000
-1.143000 -4.229100 6.153150 0.707107 -0.707107 -0.000000 0.707107 0.707107 -0.000000 0.476562 -3.320312 0 0 0 0 0.000000 0.000000 0.000000 0.000000
-1.676400 -4.152900 6.153150 1.000000 0.000000 0.000000 0.000000 0.000000 1.000000 2.953125 1.515625 0 0 0 0 0.000000 0.000000 0.000000 0.000000
-1.676400 -4.000500 6.153150 1.000000 0.000000 0.000000 0.000000 0.000000 1.000000 2.953125 1.453125 0 0 0 0 0.000000 0.000000 0.000000 0.000000
-1.676400 -4.000500 6.115050 1.000000 0.000000 0.000000 0.000000 0.000000 1.000000 2.937500 1.453125 0 0 0 0 0.000000 0.000000 0.000000 0.000000
-1.676400 -4.152900 6.115050 1.000000 0.000000 0.000000 0.000000 0.000000 1.000000 2.937500 1.515625 0 0 0 0 0.000000 0.000000 0.000000 0.000000
-1.333500 -4.076700 5.924550 0.000000 -0.242535 -0.970143 1.000000 0.000000 0.000000 -0.429688 1.484375 0 0 0 0 0.000000 0.000000 0.000000 0.000000
-1.485900 -4.076700 5.924550 0.000000 -0.242535 -0.970143 1.000000 0.000000 0.000000 -0.492188 1.484375 0 0 0 0 0.000000 0.000000 0.000000 0.000000
-1.485900 -4.152900 5.943600 0.000000 -0.242535 -0.970143 1.000000 0.000000 0.000000 -0.492188 1.515625 0 0 0 0 0.000000 0.000000 0.000000 0.000000
-1.333500 -4.152900 5.943600 0.000000 -0.242535 -0.970143 1.000000 0.000000 0.000000 -0.429688 1.515625 0 0 0 0 0.000000 0.000000 0.000000 0.000000
-1.485900 -4.152900 5.981699 -1.000000 0.000000 0.000000 0.000000 0.000000 1.000000 2.773438 1.515625 0 0 0 0 0.000000 0.000000 0.000000 0.000000
-1.485900 -4.152900 5.943600 -1.000000 0.000000 0.000000 0.000000 0.000000 1.000000 2.757812 1.515625 0 0 0 0 0.000000 0.000000 0.000000 0.000000
-1.485900 -4.076700 5.924550 -1.000000 0.000000 0.000000 0.000000 0.000000 1.000000 2.750000 1.484375 0 0 0 0 0.000000 0.000000 0.000000 0.000000
-1.485900 -4.057650 5.962650 -1.000000 0.000000 0.000000 0.000000 0.000000 1.000000 2.765625 1.476562 0 0 0 0 0.000000 0.000000 0.000000 0.000000
-1.333500 -4.057650 5.962650 1.000000 0.000000 0.000000 0.000000 0.000000 1.000000 2.765625 1.476562 0 0 0 0 0.000000 0.000000 0.000000 0.000000
-1.333500 -4.076700 5.924550 1.000000 0.000000 0.000000 0.000000 0.000000 1.000000 2.750000 1.484375 0 0 0 0 0.000000 0.000000 0.000000 0.000000
-1.333500 -4.152900 5.943600 1.000000 0.000000 0.000000 0.000000 0.000000 1.000000 2.757812 1.515625 0 0 0 0 0.000000 0.000000 0.000000 0.000000
-1.333500 -4.152900 5.981699 1.000000 0.000000 0.000000 0.000000 0.000000 1.000000 2.773438 1.515625 0 0 0 0 0.000000 0.000000 0.000000 0.000000
-1.485900 -4.057650 5.962650 0.000000 0.196116 0.980581 1.000000 0.000000 0.000000 -0.492188 1.476562 0 0 0 0 0.000000 0.000000 0.000000 0.000000
-1.333500 -4.057650 5.962650 0.000000 0.196116 0.980581 1.000000 0.000000 0.000000 -0.429688 1.476562 0 0 0 0 0.000000 0.000000 0.000000 0.000000
-1.333500 -4.152900 5.981699 0.000000 0.196116 0.980581 1.000000 0.000000 0.000000 -0.429688 1.515625 0 0 0 0 0.000000 0.000000 0.000000 0.000000
-1.485900 -4.152900 5.981699 0.000000 0.196116 0.980581 1.000000 0.000000 0.000000 -0.492188 1.515625 0 0 0 0 0.000000 0.000000 0.000000 0.000000
-1.714500 -4.000500 6.153150 0.000000 -0.000000 1.000000 1.000000 0.000000 0.000000 -0.203125 1.453125 0 0 0 0 0.000000 0.000000 0.000000 0.000000
-1.676400 -4.000500 6.153150 0.000000 -0.000000 1.000000 1.000000 0.000000 0.000000 -0.187500 1.453125 0 0 0 0 0.000000 0.000000 0.000000 0.000000
-1.676400 -4.152900 6.153150 0.000000 -0.000000 1.000000 1.000000 0.000000 0.000000 -0.187500 1.515625 0 0 0 0 0.000000 0.000000 0.000000 0.000000
-1.676400 -4.229100 6.153150 0.000000 -0.000000 1.000000 1.000000 0.000000 0.000000 -0.187500 1.546875 0 0 0 0 0.000000 0.000000 0.000000 0.000000
-1.714500 -4.152900 6.153150 0.000000 -0.000000 1.000000 1.000000 0.000000 0.000000 -0.203125 1.515625 0 0 0 0 0.000000 0.000000 0.000000 0.000000
-1.676400 -4.000500 6.115050 0.000000 0.000000 -1.000000 1.000000 0.000000 0.000000 -0.187500 1.453125 0 0 0 0 0.000000 0.000000 0.000000 0.000000
-1.714500 -4.000500 6.115050 0.000000 0.000000 -1.000000 1.000000 0.000000 0.000000 -0.203125 1.453125 0 0 0 0 0.000000 0.000000 0.000000 0.000000
-1.714500 -4.152900 6.115050 0.000000 0.000000 -1.000000 1.000000 0.000000 0.000000 -0.203125 1.515625 0 0 0 0 0.000000 0.000000 0.000000 0.000000
-1.676400 -4.229100 6.115050 0.000000 0.000000 -1.000000 1.000000 0.000000 0.000000 -0.187500 1.546875 0 0 0 0 0.000000 0.000000 0.000000 0.000000
-1.676400 -4.152900 6.115050 0.000000 0.000000 -1.000000 0.000000 -1.000000 -0.000000 -0.187500 1.515625 0 0 0 0 0.000000 0.000000 0.000000 0.000000
-1.714500 -4.000500 6.115050 -1.000000 0.000000 0.000000 0.000000 0.000000 1.000000 2.937500 1.453125 0 0 0 0 0.000000 0.000000 0.000000 0.000000
-1.714500 -4.000500 6.153150 -1.000000 0.000000 0.000000 0.000000 0.000000 1.000000 2.953125 1.453125 0 0 0 0 0.000000 0.000000 0.000000 0.000000
-1.714500 -4.152900 6.153150 -1.000000 0.000000 0.000000 0.000000 0.000000 1.000000 2.953125 1.515625 0 0 0 0 0.000000 0.000000 0.000000 0.000000
-1.714500 -4.152900 6.115050 -1.000000 0.000000 0.000000 0.000000 0.000000 1.000000 2.937500 1.515625 0 0 0 0 0.000000 0.000000 0.000000 0.000000
-1.714500 -4.152900 6.115050 -0.894427 -0.447214 -0.000000 -0.000000 -0.000000 1.000000 3.453125 0.906250 0 0 0 0 0.000000 0.000000 0.000000 0.000000
-1.714500 -4.152900 6.153150 -0.894427 -0.447214 -0.000000 -0.000000 -0.000000 1.000000 3.468750 0.906250 0 0 0 0 0.000000 0.000000 0.000000 0.000000
-1.676400 -4.229100 6.153150 -0.894427 -0.447214 -0.000000 -0.000000 -0.000000 1.000000 3.468750 0.937500 0 0 0 0 0.000000 0.000000 0.000000 0.000000
-1.676400 -4.229100 6.115050 -0.894427 -0.447214 -0.000000 -0.000000 -0.000000 1.000000 3.453125 0.937500 0 0 0 0 0.000000 0.000000 0.000000 0.000000
IndexCount: 804
3 1 0
3 2 1
7 5 4
7 6 5
11 9 8
11 10 9
15 13 12
15 14 13
19 17 16
19 18 17
23 21 20
23 22 21
27 25 24
27 26 25
28 32 31
28 31 30
30 29 28
36 34 33
36 35 34
37 41 40
40 38 37
40 39 38
42 46 45
45 43 42
45 44 43
50 48 47
50 49 48
51 55 54
51 54 53
53 52 51
59 57 56
59 58 57
60 67 66
66 61 60
66 62 61
66 63 62
68 72 62
68 62 71
66 64 63
70 66 63
70 63 68
68 71 70
70 69 66
66 65 64
75 74 73
79 77 76
79 78 77
83 81 80
83 82 81
87 85 84
87 86 85
91 89 88
91 90 89
94 93 92
97 96 95
100 99 98
104 102 101
104 103 102
107 106 105
111 109 108
111 110 109
115 113 112
115 114 113
118 117 116
121 120 119
125 123 122
125 124 123
128 127 126
132 130 129
132 131 130
136 134 133
136 135 134
140 138 137
140 139 138
144 142 141
144 143 142
148 146 145
148 147 146
152 150 149
152 151 150
156 154 153
156 155 154
160 158 157
160 159 158
161 165 164
161 164 163
163 162 161
169 167 166
169 168 167
170 174 173
170 173 172
172 171 170
178 176 175
178 177 176
179 183 182
182 180 179
182 181 180
187 185 184
187 186 185
188 192 191
188 191 190
190 189 188
194 193 200
199 195 194
200 199 194
201 195 200
201 200 203
199 196 195
201 204 195
203 196 201
203 202 199
203 199 196
199 198 197
199 197 196
207 206 205
211 209 208
211 210 209
215 213 212
215 214 213
219 217 216
219 218 217
223 221 220
223 222 221
226 225 224
229 228 227
232 231 230
236 234 233
236 235 234
239 238 237
243 241 240
243 242 241
247 245 244
247 246 245
250 249 248
253 252 251
257 255 254
257 256 255
260 259 258
264 262 261
264 263 262
268 266 265
268 267 266
272 270 269
272 271 270
276 274 273
276 275 274
280 278 277
280 279 278
284 282 281
284 283 282
288 286 285
288 287 286
292 290 289
292 291 290
296 294 293
296 295 294
300 298 297
300 299 298
304 302 301
304 303 302
308 306 305
308 307 306
312 310 309
312 311 310
316 314 313
316 315 314
320 318 317
320 319 318
324 322 321
324 323 322
328 326 325
328 327 326
332 330 329
332 331 330
336 334 333
336 335 334
340 338 337
340 339 338
344 342 341
344 343 342
348 346 345
348 347 346
352 350 349
352 351 350
356 354 353
356 355 354
360 358 357
360 359 358
364 362 361
364 363 362
368 366 365
368 367 366
372 370 369
372 371 370
376 374 373
376 375 374
380 378 377
380 379 378
384 382 381
384 383 382
388 386 385
388 387 386
392 390 389
392 391 390
396 394 393
396 395 394
400 398 397
400 399 398
404 402 401
404 403 402
408 406 405
408 407 406
412 410 409
412 411 410
416 414 413
416 415 414
420 418 417
420 419 418
424 422 421
424 423 422
428 426 425
428 427 426
432 430 429
432 431 430
436 434 433
436 435 434
440 438 437
440 439 438
444 442 441
444 443 442
448 446 445
448 447 446
452 450 449
452 451 450
456 454 453
456 455 454
460 458 457
460 459 458
461 465 464
461 464 463
463 462 461
469 467 466
469 468 467
470 474 473
470 473 472
472 471 470
478 476 475
478 477 476
482 480 479
482 481 480
486 484 483
486 485 484
490 488 487
490 489 488
494 492 491
494 493 492
498 496 495
498 497 496
499 503 502
499 502 501
501 500 499
504 508 507
504 507 506
506 505 504
512 510 509
512 511 510
516 514 513
516 515 514