VertexCount: 4
-16.192501 -3.143247 -17.030701 0.000000 -0.000000 1.000000 1.000000 0.000000 0.000000 -88.197914 16.968750 0 0 0 0 0.000000 0.000000 0.000000 0.000000
-16.192501 -3.333747 -17.030701 0.000000 -0.000000 1.000000 1.000000 0.000000 0.000000 -88.197914 18.010416 0 0 0 0 0.000000 0.000000 0.000000 0.000000
-16.306801 -3.333747 -17.030701 0.000000 -0.000000 1.000000 1.000000 0.000000 0.000000 -88.822914 18.010416 0 0 0 0 0.000000 0.000000 0.000000 0.000000
-16.306801 -3.143247 -17.030701 0.000000 -0.000000 1.000000 1.000000 0.000000 0.000000 -88.822914 16.968750 0 0 0 0 0.000000 0.000000 0.000000 0.000000
IndexCount: 6
3 2 1
3 1 0