VertexCount: 16
-16.516350 -0.781048 -9.601200 0.000000 -1.000000 -0.000000 1.000000 0.000000 0.000000 -12.018466 6.987500 0 0 0 0 0.000000 0.000000 0.000000 0.000000
-16.516350 -0.781048 -11.201400 0.000000 -1.000000 -0.000000 1.000000 0.000000 0.000000 -12.018466 7.987500 0 0 0 0 0.000000 0.000000 0.000000 0.000000
-17.811750 -0.781048 -11.201400 0.000000 -1.000000 -0.000000 1.000000 0.000000 0.000000 -12.984375 7.987500 0 0 0 0 0.000000 0.000000 0.000000 0.000000
-17.811750 -0.781048 -9.601200 0.000000 -1.000000 -0.000000 1.000000 0.000000 0.000000 -12.984375 6.987500 0 0 0 0 0.000000 0.000000 0.000000 0.000000
-19.526251 -0.781048 -13.411200 0.000000 -1.000000 -0.000000 1.000000 0.000000 0.000000 -14.012785 7.980952 0 0 0 0 0.000000 0.000000 0.000000 0.000000
-19.526251 -0.781048 -15.011400 0.000000 -1.000000 -0.000000 1.000000 0.000000 0.000000 -14.012785 8.980952 0 0 0 0 0.000000 0.000000 0.000000 0.000000
-20.821650 -0.781048 -15.011400 0.000000 -1.000000 -0.000000 1.000000 0.000000 0.000000 -14.978694 8.980952 0 0 0 0 0.000000 0.000000 0.000000 0.000000
-20.821650 -0.781048 -13.411200 0.000000 -1.000000 -0.000000 1.000000 0.000000 0.000000 -14.978694 7.980952 0 0 0 0 0.000000 0.000000 0.000000 0.000000
-16.516350 -0.781048 -13.411200 0.000000 -1.000000 -0.000000 1.000000 0.000000 0.000000 -12.002841 8.980952 0 0 0 0 0.000000 0.000000 0.000000 0.000000
-16.516350 -0.781048 -15.011400 0.000000 -1.000000 -0.000000 1.000000 0.000000 0.000000 -12.002841 9.980952 0 0 0 0 0.000000 0.000000 0.000000 0.000000
-17.811750 -0.781048 -15.011400 0.000000 -1.000000 -0.000000 1.000000 0.000000 0.000000 -12.968750 9.980952 0 0 0 0 0.000000 0.000000 0.000000 0.000000
-17.811750 -0.781048 -13.411200 0.000000 -1.000000 -0.000000 1.000000 0.000000 0.000000 -12.968750 8.980952 0 0 0 0 0.000000 0.000000 0.000000 0.000000
-19.526251 -0.781048 -9.601200 0.000000 -1.000000 -0.000000 1.000000 0.000000 0.000000 -14.028410 5.987500 0 0 0 0 0.000000 0.000000 0.000000 0.000000
-19.526251 -0.781048 -11.201400 0.000000 -1.000000 -0.000000 1.000000 0.000000 0.000000 -14.028410 6.987500 0 0 0 0 0.000000 0.000000 0.000000 0.000000
-20.821650 -0.781048 -11.201400 0.000000 -1.000000 -0.000000 1.000000 0.000000 0.000000 -14.994319 6.987500 0 0 0 0 0.000000 0.000000 0.000000 0.000000
-20.821650 -0.781048 -9.601200 0.000000 -1.000000 -0.000000 1.000000 0.000000 0.000000 -14.994319 5.987500 0 0 0 0 0.000000 0.000000 0.000000 0.000000
IndexCount: 24
3 1 0
3 2 1
7 5 4
7 6 5
11 9 8
11 10 9
15 13 12
15 14 13