VertexCount: 40
6.781802 1.219204 -21.793200 0.000000 -1.000000 -0.000000 1.000000 0.000000 -0.000000 5.734375 19.093750 0 0 0 0 0.000000 0.000000 0.000000 0.000000
6.781802 1.219204 -23.012400 0.000000 -1.000000 -0.000000 1.000000 0.000000 -0.000000 5.734375 20.093750 0 0 0 0 0.000000 0.000000 0.000000 0.000000
4.648202 1.219204 -23.012400 0.000000 -1.000000 -0.000000 1.000000 0.000000 -0.000000 3.984375 20.093750 0 0 0 0 0.000000 0.000000 0.000000 0.000000
4.648202 1.219204 -22.859999 0.000000 -1.000000 -0.000000 1.000000 0.000000 0.000000 3.984375 19.968750 0 0 0 0 0.000000 0.000000 0.000000 0.000000
4.648202 1.219204 -21.793200 0.000000 -1.000000 -0.000000 1.000000 0.000000 -0.000000 3.984375 19.093750 0 0 0 0 0.000000 0.000000 0.000000 0.000000
7.467602 1.219204 -21.793200 0.000000 -1.000000 -0.000000 -1.000000 -0.000000 0.000000 6.296875 19.093750 0 0 0 0 0.000000 0.000000 0.000000 0.000000
8.915402 1.219204 -21.793200 0.000000 -1.000000 -0.000000 -1.000000 -0.000000 0.000000 7.484375 19.093750 0 0 0 0 0.000000 0.000000 0.000000 0.000000
10.439402 1.219204 -21.793200 0.000000 -1.000000 -0.000000 -1.000000 -0.000000 0.000000 8.734375 19.093750 0 0 0 0 0.000000 0.000000 0.000000 0.000000
10.439402 1.219205 -23.012400 0.000000 -1.000000 -0.000000 1.000000 0.000000 -0.000000 8.734375 20.093750 0 0 0 0 0.000000 0.000000 0.000000 0.000000
8.915402 1.219204 -23.012400 0.000000 -1.000000 -0.000000 1.000000 0.000000 -0.000000 7.484375 20.093750 0 0 0 0 0.000000 0.000000 0.000000 0.000000
7.467602 1.219204 -23.012400 0.000000 -1.000000 -0.000000 1.000000 0.000000 0.000000 6.296875 20.093750 0 0 0 0 0.000000 0.000000 0.000000 0.000000
8.915402 1.219204 -18.592798 0.000000 -1.000000 -0.000000 1.000000 0.000000 0.000000 7.484375 16.468750 0 0 0 0 0.000000 0.000000 0.000000 0.000000
10.439401 1.219204 -18.592798 0.000000 -1.000000 -0.000000 1.000000 0.000000 -0.000000 8.734375 16.468750 0 0 0 0 0.000000 0.000000 0.000000 0.000000
10.439401 1.219204 -20.421598 0.000000 -1.000000 -0.000000 1.000000 0.000000 -0.000000 8.734375 17.968750 0 0 0 0 0.000000 0.000000 0.000000 0.000000
10.439402 1.219204 -21.793200 0.000000 -1.000000 -0.000000 1.000000 0.000000 0.000001 8.734375 19.093750 0 0 0 0 0.000000 0.000000 0.000000 0.000000
8.915402 1.219204 -21.793200 0.000000 -1.000000 -0.000000 1.000000 0.000000 0.000000 7.484375 19.093750 0 0 0 0 0.000000 0.000000 0.000000 0.000000
7.467602 1.219204 -21.793200 0.000000 -1.000000 -0.000000 1.000000 0.000000 -0.000000 6.296875 19.093750 0 0 0 0 0.000000 0.000000 0.000000 0.000000
4.648201 1.219203 -18.592800 0.000000 -1.000000 -0.000000 1.000000 0.000000 0.000000 3.984375 16.468750 0 0 0 0 0.000000 0.000000 0.000000 0.000000
6.781802 1.219204 -18.592800 0.000000 -1.000000 -0.000000 1.000000 0.000000 0.000000 5.734375 16.468750 0 0 0 0 0.000000 0.000000 0.000000 0.000000
7.467602 1.219204 -18.592798 0.000000 -1.000000 -0.000000 -1.000000 -0.000000 -0.000001 6.296875 16.468750 0 0 0 0 0.000000 0.000000 0.000000 0.000000
7.467602 1.219204 -18.592798 0.000000 -1.000000 -0.000000 1.000000 0.000000 -0.000000 6.296875 16.468750 0 0 0 0 0.000000 0.000000 0.000000 0.000000
7.467601 1.219203 -17.373598 0.000000 -1.000000 -0.000000 1.000000 0.000000 -0.000000 6.296875 15.468750 0 0 0 0 0.000000 0.000000 0.000000 0.000000
9.829801 1.219204 -17.373598 0.000000 -1.000000 -0.000000 1.000000 0.000000 0.000000 8.234375 15.468750 0 0 0 0 0.000000 0.000000 0.000000 0.000000
10.439401 1.219204 -17.373598 0.000000 -1.000000 -0.000000 1.000000 0.000000 -0.000000 8.734375 15.468750 0 0 0 0 0.000000 0.000000 0.000000 0.000000
4.648201 1.219203 -17.373600 0.000000 -1.000000 -0.000000 1.000000 0.000000 -0.000000 3.984375 15.468750 0 0 0 0 0.000000 0.000000 0.000000 0.000000
6.781802 1.219203 -17.373600 0.000000 -1.000000 -0.000000 1.000000 0.000000 0.000000 5.734375 15.468750 0 0 0 0 0.000000 0.000000 0.000000 0.000000
10.439402 1.219205 -24.688801 0.000000 -1.000000 -0.000000 1.000000 0.000000 -0.000000 8.734375 21.468750 0 0 0 0 0.000000 0.000000 0.000000 0.000000
8.915402 1.219205 -24.688801 0.000000 -1.000000 -0.000000 1.000000 0.000000 -0.000000 7.484375 21.468750 0 0 0 0 0.000000 0.000000 0.000000 0.000000
8.305802 1.219205 -24.688801 0.000000 -1.000000 -0.000000 1.000000 0.000000 -0.000000 6.984375 21.468750 0 0 0 0 0.000000 0.000000 0.000000 0.000000
4.648202 1.219204 -24.688801 0.000000 -1.000000 -0.000000 1.000000 0.000000 0.000000 3.984375 21.468750 0 0 0 0 0.000000 0.000000 0.000000 0.000000
7.467602 1.219204 -23.012400 0.000000 -1.000000 -0.000000 -1.000000 -0.000000 -0.000000 6.296875 20.093750 0 0 0 0 0.000000 0.000000 0.000000 0.000000
-1.981199 9.753603 -20.116798 0.000000 -1.000000 -0.000000 -0.000000 -0.000000 1.000000 -16.125000 -0.375000 0 0 0 0 0.000000 0.000000 0.000000 0.000000
-1.981199 9.753602 -17.678398 0.000000 -1.000000 -0.000000 -0.000000 -0.000000 1.000000 -14.125000 -0.375000 0 0 0 0 0.000000 0.000000 0.000000 0.000000
-0.457199 9.753603 -17.678398 0.000000 -1.000000 -0.000000 -0.000000 -0.000000 1.000000 -14.125000 0.875000 0 0 0 0 0.000000 0.000000 0.000000 0.000000
-0.457199 9.753603 -20.116798 0.000000 -1.000000 -0.000000 -0.000000 -0.000000 1.000000 -16.125000 0.875000 0 0 0 0 0.000000 0.000000 0.000000 0.000000
-6.248399 9.753602 -20.116798 0.000000 -1.000000 -0.000000 -0.000000 -0.000000 1.000000 -16.125000 -3.875000 0 0 0 0 0.000000 0.000000 0.000000 0.000000
-6.248399 9.753602 -17.678398 0.000000 -1.000000 -0.000000 0.000000 -0.000000 1.000000 -14.125000 -3.875000 0 0 0 0 0.000000 0.000000 0.000000 0.000000
-1.981199 9.753603 -24.383999 0.000000 -1.000000 -0.000000 -0.000000 -0.000000 1.000000 -19.625000 -0.375000 0 0 0 0 0.000000 0.000000 0.000000 0.000000
-0.457199 9.753603 -24.383999 0.000000 -1.000000 -0.000000 -0.000000 -0.000000 1.000000 -19.625000 0.875000 0 0 0 0 0.000000 0.000000 0.000000 0.000000
-6.248399 9.753603 -24.383999 0.000000 -1.000000 -0.000000 -0.000000 -0.000000 1.000000 -19.625000 -3.875000 0 0 0 0 0.000000 0.000000 0.000000 0.000000
IndexCount: 111
0 4 3
0 3 2
2 1 0
18 4 0
18 0 16
18 17 4
11 19 18
18 16 15
18 15 11
25 17 18
25 24 17
11 15 14
11 14 13
13 12 11
21 20 11
21 11 12
12 23 22
12 22 21
9 30 1
1 2 29
1 29 28
1 28 27
1 27 9
27 26 8
27 8 9
5 9 8
5 8 7
5 10 9
7 6 5
34 32 31
32 35 31
38 34 31
38 31 37
31 35 39
31 39 37
34 33 32
32 36 35
