VertexCount: 21
-10.629901 -4.572003 13.868398 -0.000000 -0.000000 1.000000 1.000000 0.000000 0.000000 -2.238281 1.000000 0 0 0 0 0.000000 0.000000 0.000000 0.000000
-10.629901 -1.524003 13.868400 -0.000000 -0.000000 1.000000 1.000000 0.000000 0.000000 -2.238281 0.000000 0 0 0 0 0.000000 0.000000 0.000000 0.000000
-7.010401 -1.524003 13.868400 -0.000000 -0.000000 1.000000 1.000000 0.000000 0.000000 -1.496094 0.000000 0 0 0 0 0.000000 0.000000 0.000000 0.000000
-7.010401 -4.572003 13.868398 -0.000000 -0.000000 1.000000 1.000000 0.000000 0.000000 -1.496094 1.000000 0 0 0 0 0.000000 0.000000 0.000000 0.000000
-6.515099 -1.066799 -10.820400 -0.000000 -0.000000 1.000000 1.000000 0.000000 0.000000 -1.585938 0.000000 0 0 0 0 0.000000 0.000000 0.000000 0.000000
-6.515099 -1.600199 -10.820400 -0.000000 -0.000000 1.000000 1.000000 0.000000 0.000000 -1.585938 0.175000 0 0 0 0 0.000000 0.000000 0.000000 0.000000
-6.515099 -1.828799 -10.820400 -0.000000 -0.000000 1.000000 1.000000 0.000001 0.000000 -1.585938 0.250000 0 0 0 0 0.000000 0.000000 0.000000 0.000000
-6.515098 -4.114799 -10.820401 -0.000000 -0.000000 1.000000 1.000000 0.000000 0.000000 -1.585938 1.000000 0 0 0 0 0.000000 0.000000 0.000000 0.000000
-8.534398 -4.114799 -10.820402 -0.000000 -0.000000 1.000000 1.000000 0.000000 0.000000 -2.000000 1.000000 0 0 0 0 0.000000 0.000000 0.000000 0.000000
-8.534399 -1.066799 -10.820401 -0.000000 -0.000000 1.000000 1.000000 0.000000 0.000000 -2.000000 0.000000 0 0 0 0 0.000000 0.000000 0.000000 0.000000
-7.238999 -1.066799 -10.820401 -0.000000 -0.000000 1.000000 -1.000000 -0.000000 -0.000000 -1.734375 0.000000 0 0 0 0 0.000000 0.000000 0.000000 0.000000
-6.057898 -4.114799 -10.820401 -0.000000 -0.000000 1.000000 1.000000 0.000000 0.000000 -1.492188 1.000000 0 0 0 0 0.000000 0.000000 0.000000 0.000000
-6.057899 -1.828799 -10.820400 -0.000000 -0.000000 1.000000 1.000000 0.000000 0.000000 -1.492188 0.250000 0 0 0 0 0.000000 0.000000 0.000000 0.000000
-6.057899 -1.600199 -10.820400 -0.000000 -0.000000 1.000000 1.000000 -0.000000 0.000000 -1.492188 0.175000 0 0 0 0 0.000000 0.000000 0.000000 0.000000
-6.057899 -1.066799 -10.820400 -0.000000 -0.000000 1.000000 1.000000 0.000000 0.000000 -1.492188 0.000000 0 0 0 0 0.000000 0.000000 0.000000 0.000000
-5.714999 -1.066799 -10.820400 -0.000000 -0.000000 1.000000 1.000000 -0.000000 0.000000 -1.421875 0.000000 0 0 0 0 0.000000 0.000000 0.000000 0.000000
-3.047999 -1.066798 -10.820400 -0.000000 -0.000000 1.000000 1.000000 0.000000 0.000000 -0.875000 0.000000 0 0 0 0 0.000000 0.000000 0.000000 0.000000
-3.047999 -4.114799 -10.820401 -0.000000 -0.000000 1.000000 1.000000 -0.000000 0.000000 -0.875000 1.000000 0 0 0 0 0.000000 0.000000 0.000000 0.000000
-4.267199 -4.114799 -10.820401 -0.000000 -0.000000 1.000000 1.000000 0.000000 0.000000 -1.125000 1.000000 0 0 0 0 0.000000 0.000000 0.000000 0.000000
-11.887202 -4.572003 13.868398 -0.000000 -0.000000 1.000000 1.000000 0.000000 0.000000 -2.496094 1.000000 0 0 0 0 0.000000 0.000000 0.000000 0.000000
-11.887202 -1.524003 13.868400 -0.000000 -0.000000 1.000000 1.000000 0.000000 0.000000 -2.496094 0.000000 0 0 0 0 0.000000 0.000000 0.000000 0.000000
IndexCount: 57
3 1 0
1 19 0
3 2 1
1 20 19
4 10 9
4 9 8
8 5 4
13 14 4
13 4 5
8 7 6
8 6 5
7 11 12
7 12 6
18 12 11
18 13 12
18 14 13
18 15 14
18 17 16
18 16 15
