VertexCount: 45
-1.828800 -3.352800 0.609599 -0.000000 -0.000000 1.000000 -1.000000 0.000000 -0.000000 2.000000 3.000000 0 0 0 0 0.000000 0.000000 0.000000 0.000000
-1.828800 -3.962400 0.609599 -0.000000 -0.000000 1.000000 -1.000000 0.000000 -0.000000 2.000000 4.000000 0 0 0 0 0.000000 0.000000 0.000000 0.000000
-2.743200 -3.962400 0.609599 -0.000000 -0.000000 1.000000 -1.000000 0.000000 -0.000000 3.000000 4.000000 0 0 0 0 0.000000 0.000000 0.000000 0.000000
-2.743200 -3.352800 0.609599 -0.000000 -0.000000 1.000000 -1.000000 0.000000 -0.000000 3.000000 3.000000 0 0 0 0 0.000000 0.000000 0.000000 0.000000
0.914400 -3.352800 0.609600 -0.000000 -0.000000 1.000000 -1.000000 0.000000 -0.000000 -1.000000 3.000000 0 0 0 0 0.000000 0.000000 0.000000 0.000000
0.000000 -3.352800 0.609599 -0.000000 -0.000000 1.000000 -1.000000 0.000000 -0.000000 0.000000 3.000000 0 0 0 0 0.000000 0.000000 0.000000 0.000000
0.000000 -2.743200 0.609600 -0.000000 -0.000000 1.000000 -1.000000 0.000000 -0.000000 0.000000 2.000000 0 0 0 0 0.000000 0.000000 0.000000 0.000000
0.000000 -2.133600 0.609600 -0.000000 -0.000000 1.000000 -1.000000 0.000000 -0.000000 0.000000 1.000000 0 0 0 0 0.000000 0.000000 0.000000 0.000000
0.609600 -2.133600 0.609600 -0.000000 -0.000000 1.000000 -1.000000 -0.000000 -0.000000 -0.666667 1.000000 0 0 0 0 0.000000 0.000000 0.000000 0.000000
0.914400 -2.133600 0.609600 -0.000000 -0.000000 1.000000 -1.000000 -0.000000 -0.000000 -1.000000 1.000000 0 0 0 0 0.000000 0.000000 0.000000 0.000000
0.914400 -2.743200 0.609600 -0.000000 -0.000000 1.000000 -1.000000 0.000000 -0.000000 -1.000000 2.000000 0 0 0 0 0.000000 0.000000 0.000000 0.000000
1.828800 -3.352800 0.609600 -0.000000 -0.000000 1.000000 -1.000000 0.000000 -0.000000 -2.000000 3.000000 0 0 0 0 0.000000 0.000000 0.000000 0.000000
1.828800 -3.962400 0.609599 -0.000000 -0.000000 1.000000 -1.000000 0.000000 -0.000000 -2.000000 4.000000 0 0 0 0 0.000000 0.000000 0.000000 0.000000
0.914400 -3.962400 0.609599 -0.000000 -0.000000 1.000000 -1.000000 0.000000 -0.000000 -1.000000 4.000000 0 0 0 0 0.000000 0.000000 0.000000 0.000000
-5.791200 -3.962401 3.581399 0.000000 -1.000000 -0.000000 1.000000 0.000000 0.000000 -8.090278 -5.031250 0 0 0 0 0.000000 0.000000 0.000000 0.000000
-5.943600 -3.962401 3.581399 0.000000 -1.000000 -0.000000 1.000000 0.000000 0.000000 -8.312500 -5.031250 0 0 0 0 0.000000 0.000000 0.000000 0.000000
-5.943600 -3.962401 4.952999 0.000000 -1.000000 -0.000000 1.000000 0.000000 0.000000 -8.312500 -7.281250 0 0 0 0 0.000000 0.000000 0.000000 0.000000
-5.791200 -3.962401 4.952999 0.000000 -1.000000 -0.000000 1.000000 0.000000 0.000000 -8.090278 -7.281250 0 0 0 0 0.000000 0.000000 0.000000 0.000000
-5.943601 -3.352801 3.581399 -1.000000 -0.000000 -0.000000 -0.000000 -0.000000 1.000000 4.993056 6.000000 0 0 0 0 0.000000 0.000000 0.000000 0.000000
-5.943601 -2.743201 3.581399 -1.000000 -0.000000 -0.000000 -0.000000 -0.000000 1.000000 4.993056 5.000000 0 0 0 0 0.000000 0.000000 0.000000 0.000000
-5.943601 -2.743201 4.952999 -1.000000 -0.000000 -0.000000 -0.000000 -0.000000 1.000000 6.993056 5.000000 0 0 0 0 0.000000 0.000000 0.000000 0.000000
-5.943601 -3.352801 4.952999 -1.000000 -0.000000 -0.000000 -0.000000 -0.000000 1.000000 6.993056 6.000000 0 0 0 0 0.000000 0.000000 0.000000 0.000000
-5.943601 -3.352801 5.600699 -1.000000 -0.000000 -0.000000 -0.000000 -0.000000 1.000000 7.958333 6.000000 0 0 0 0 0.000000 0.000000 0.000000 0.000000
-5.943601 -2.743201 5.600699 -1.000000 -0.000000 -0.000000 -0.000000 -0.000000 1.000000 7.958333 5.000000 0 0 0 0 0.000000 0.000000 0.000000 0.000000
-5.943601 -2.743201 5.882638 -1.000000 -0.000000 -0.000000 -0.000000 -0.000000 1.000000 8.369444 5.000000 0 0 0 0 0.000000 0.000000 0.000000 0.000000
-5.943601 -2.743201 7.010399 -1.000000 -0.000000 -0.000000 -0.000000 -0.000000 1.000000 10.013889 5.000000 0 0 0 0 0.000000 0.000000 0.000000 0.000000
-5.943601 -3.352801 7.010399 -1.000000 -0.000000 -0.000000 -0.000000 -0.000000 1.000000 10.013889 6.000000 0 0 0 0 0.000000 0.000000 0.000000 0.000000
-13.792201 -3.962403 11.277597 0.000000 -1.000000 -0.000000 1.000000 0.000000 -0.000000 -14.958333 -18.000000 0 0 0 0 0.000000 0.000000 0.000000 0.000000
-13.792201 -3.962403 11.125197 0.000000 -1.000000 -0.000000 1.000000 0.000000 -0.000000 -14.958333 -17.750000 0 0 0 0 0.000000 0.000000 0.000000 0.000000
-15.697201 -3.962403 11.125197 0.000000 -1.000000 -0.000000 1.000000 0.000000 0.000000 -17.041666 -17.750000 0 0 0 0 0.000000 0.000000 0.000000 0.000000
-15.697201 -3.962403 11.277597 0.000000 -1.000000 -0.000000 1.000000 0.000000 -0.000000 -17.041666 -18.000000 0 0 0 0 0.000000 0.000000 0.000000 0.000000
-10.820401 -3.352803 11.125198 0.000000 0.000001 -1.000000 1.000000 -0.000000 0.000000 -10.958333 6.000000 0 0 0 0 0.000000 0.000000 0.000000 0.000000
-10.820401 -2.743203 11.125198 0.000000 0.000001 -1.000000 1.000000 -0.000000 0.000000 -10.958333 5.000000 0 0 0 0 0.000000 0.000000 0.000000 0.000000
-11.430001 -2.743203 11.125198 0.000000 0.000001 -1.000000 1.000000 -0.000000 0.000000 -11.625000 5.000000 0 0 0 0 0.000000 0.000000 0.000000 0.000000
-12.725401 -2.743203 11.125198 0.000000 0.000001 -1.000000 1.000000 0.000000 0.000000 -13.041667 5.000000 0 0 0 0 0.000000 0.000000 0.000000 0.000000
-12.725401 -3.352803 11.125198 0.000000 0.000001 -1.000000 1.000000 0.000000 0.000000 -13.041667 6.000000 0 0 0 0 0.000000 0.000000 0.000000 0.000000
-12.710162 -3.352803 11.125198 0.000000 0.000001 -1.000000 -1.000000 -0.000000 -0.000000 -13.025002 6.000000 0 0 0 0 0.000000 0.000000 0.000000 0.000000
-15.697201 -2.743203 11.125198 0.000000 0.000000 -1.000000 1.000000 -0.000000 0.000000 -16.017565 5.000000 0 0 0 0 0.000000 0.000000 0.000000 0.000000
-15.697201 -3.352803 11.125198 0.000000 0.000000 -1.000000 1.000000 -0.000000 0.000000 -16.017565 6.000000 0 0 0 0 0.000000 0.000000 0.000000 0.000000
-13.792201 -3.352803 11.125198 0.000000 0.000000 -1.000000 1.000000 -0.000000 0.000000 -13.975081 6.000000 0 0 0 0 0.000000 0.000000 0.000000 0.000000
-13.792201 -2.743203 11.125198 0.000000 0.000000 -1.000000 1.000000 -0.000000 0.000000 -13.975081 5.000000 0 0 0 0 0.000000 0.000000 0.000000 0.000000
-13.792201 -2.743203 11.277598 -0.000000 -0.000000 1.000000 1.000000 0.000000 0.000000 -14.958333 5.000000 0 0 0 0 0.000000 0.000000 0.000000 0.000000
-13.792201 -3.962403 11.277597 -0.000000 -0.000000 1.000000 1.000000 0.000000 0.000000 -14.958333 7.000000 0 0 0 0 0.000000 0.000000 0.000000 0.000000
-15.697201 -3.962403 11.277597 -0.000000 -0.000000 1.000000 1.000000 0.000000 0.000000 -17.041666 7.000000 0 0 0 0 0.000000 0.000000 0.000000 0.000000
-15.697201 -2.743203 11.277598 -0.000000 -0.000000 1.000000 1.000000 0.000000 0.000000 -17.041666 5.000000 0 0 0 0 0.000000 0.000000 0.000000 0.000000
IndexCount: 78
3 1 0
3 2 1
10 5 4
4 13 12
4 12 11
10 6 5
10 7 6
10 9 8
10 8 7
17 15 14
17 16 15
21 19 18
21 20 19
22 26 25
22 25 24
24 23 22
30 28 27
30 29 28
31 36 35
31 35 34
31 34 33
33 32 31
40 38 37
40 39 38
44 42 41
44 43 42
