VertexCount: 16
-16.192501 -3.333747 -17.068800 0.000000 -1.000000 -0.000000 0.000000 -0.000000 1.000000 -6.593750 -5.734375 0 0 0 0 0.000000 0.000000 0.000000 0.000000
-16.306801 -3.333747 -17.068800 0.000000 -1.000000 -0.000000 0.000000 -0.000000 1.000000 -6.593750 -5.781250 0 0 0 0 0.000000 0.000000 0.000000 0.000000
-16.306801 -3.333747 -17.030701 0.000000 -1.000000 -0.000000 0.000000 -0.000000 1.000000 -6.578125 -5.781250 0 0 0 0 0.000000 0.000000 0.000000 0.000000
-16.192501 -3.333747 -17.030701 0.000000 -1.000000 -0.000000 0.000000 -0.000000 1.000000 -6.578125 -5.734375 0 0 0 0 0.000000 0.000000 0.000000 0.000000
-16.192501 -3.143247 -17.068800 1.000000 0.000000 0.000000 0.000000 0.000000 1.000000 -6.593750 0.289062 0 0 0 0 0.000000 0.000000 0.000000 0.000000
-16.192501 -3.333747 -17.068800 1.000000 0.000000 0.000000 0.000000 0.000000 1.000000 -6.593750 0.367188 0 0 0 0 0.000000 0.000000 0.000000 0.000000
-16.192501 -3.333747 -17.030701 1.000000 0.000000 0.000000 0.000000 0.000000 1.000000 -6.578125 0.367188 0 0 0 0 0.000000 0.000000 0.000000 0.000000
-16.192501 -3.143247 -17.030701 1.000000 0.000000 0.000000 0.000000 0.000000 1.000000 -6.578125 0.289062 0 0 0 0 0.000000 0.000000 0.000000 0.000000
-16.192501 -3.143247 -17.068800 0.000000 1.000000 0.000000 1.000000 0.000000 0.000000 -5.734375 6.593750 0 0 0 0 0.000000 0.000000 0.000000 0.000000
-16.192501 -3.143247 -17.030701 0.000000 1.000000 0.000000 1.000000 0.000000 0.000000 -5.734375 6.578125 0 0 0 0 0.000000 0.000000 0.000000 0.000000
-16.306801 -3.143247 -17.030701 0.000000 1.000000 0.000000 1.000000 0.000000 0.000000 -5.781250 6.578125 0 0 0 0 0.000000 0.000000 0.000000 0.000000
-16.306801 -3.143247 -17.068800 0.000000 1.000000 0.000000 1.000000 0.000000 0.000000 -5.781250 6.593750 0 0 0 0 0.000000 0.000000 0.000000 0.000000
-16.306801 -3.143247 -17.068800 -1.000000 0.000000 0.000000 0.000000 0.000000 1.000000 -6.593750 0.289062 0 0 0 0 0.000000 0.000000 0.000000 0.000000
-16.306801 -3.143247 -17.030701 -1.000000 0.000000 0.000000 0.000000 0.000000 1.000000 -6.578125 0.289062 0 0 0 0 0.000000 0.000000 0.000000 0.000000
-16.306801 -3.333747 -17.030701 -1.000000 0.000000 0.000000 0.000000 0.000000 1.000000 -6.578125 0.367188 0 0 0 0 0.000000 0.000000 0.000000 0.000000
-16.306801 -3.333747 -17.068800 -1.000000 0.000000 0.000000 0.000000 0.000000 1.000000 -6.593750 0.367188 0 0 0 0 0.000000 0.000000 0.000000 0.000000
IndexCount: 24
3 1 0
3 2 1
7 5 4
7 6 5
11 9 8
11 10 9
15 13 12
15 14 13