VertexCount: 24
-21.640800 -1.981198 -12.877800 0.000000 1.000000 0.000000 1.000000 0.000000 0.000000 -34.625000 42.000000 0 0 0 0 0.000000 0.000000 0.000000 0.000000
-21.602699 -1.981198 -12.877800 0.000000 1.000000 0.000000 1.000000 0.000000 0.000000 -34.562500 42.000000 0 0 0 0 0.000000 0.000000 0.000000 0.000000
-21.602699 -1.981198 -11.049000 0.000000 1.000000 0.000000 1.000000 0.000000 0.000000 -34.562500 36.000000 0 0 0 0 0.000000 0.000000 0.000000 0.000000
-21.640800 -1.981198 -11.049000 0.000000 1.000000 0.000000 1.000000 0.000000 0.000000 -34.625000 36.000000 0 0 0 0 0.000000 0.000000 0.000000 0.000000
-21.640800 -2.057399 -9.753600 0.000000 1.000000 0.000000 1.000000 0.000000 0.000000 -34.906250 31.875000 0 0 0 0 0.000000 0.000000 0.000000 0.000000
-21.621750 -2.057399 -9.753600 0.000000 1.000000 0.000000 1.000000 0.000000 0.000000 -34.875000 31.875000 0 0 0 0 0.000000 0.000000 0.000000 0.000000
-21.621750 -2.057399 -8.839200 0.000000 1.000000 0.000000 1.000000 0.000000 0.000000 -34.875000 28.875000 0 0 0 0 0.000000 0.000000 0.000000 0.000000
-21.640800 -2.057399 -8.839200 0.000000 1.000000 0.000000 1.000000 0.000000 0.000000 -34.906250 28.875000 0 0 0 0 0.000000 0.000000 0.000000 0.000000
-21.640800 -2.590798 -10.706100 0.000000 1.000000 0.000000 1.000000 0.000000 0.000000 -34.906250 34.625000 0 0 0 0 0.000000 0.000000 0.000000 0.000000
-21.621750 -2.590798 -10.706100 0.000000 1.000000 0.000000 1.000000 0.000000 0.000000 -34.875000 34.625000 0 0 0 0 0.000000 0.000000 0.000000 0.000000
-21.621750 -2.590799 -9.982200 0.000000 1.000000 0.000000 1.000000 0.000000 0.000000 -34.875000 32.250000 0 0 0 0 0.000000 0.000000 0.000000 0.000000
-21.640800 -2.590799 -9.982200 0.000000 1.000000 0.000000 1.000000 0.000000 0.000000 -34.906250 32.250000 0 0 0 0 0.000000 0.000000 0.000000 0.000000
-19.202400 -3.047999 -7.048500 0.000000 1.000000 0.000000 1.000000 0.000000 0.000000 -30.687500 22.500000 0 0 0 0 0.000000 0.000000 0.000000 0.000000
-19.697701 -3.047999 -7.048500 0.000000 1.000000 0.000000 1.000000 0.000000 0.000000 -31.500000 22.500000 0 0 0 0 0.000000 0.000000 0.000000 0.000000
-19.697701 -3.047999 -7.277101 0.000000 1.000000 0.000000 1.000000 0.000000 0.000000 -31.500000 23.250000 0 0 0 0 0.000000 0.000000 0.000000 0.000000
-19.202400 -3.047999 -7.277101 0.000000 1.000000 0.000000 1.000000 0.000000 0.000000 -30.687500 23.250000 0 0 0 0 0.000000 0.000000 0.000000 0.000000
-18.783300 -3.047997 -17.068800 0.000000 1.000000 0.000000 1.000000 0.000000 0.000000 -30.625000 55.375000 0 0 0 0 0.000000 0.000000 0.000000 0.000000
-18.783300 -3.047997 -16.840200 0.000000 1.000000 0.000000 1.000000 0.000000 0.000000 -30.625000 54.625000 0 0 0 0 0.000000 0.000000 0.000000 0.000000
-19.316700 -3.047997 -16.840200 0.000000 1.000000 0.000000 1.000000 0.000000 0.000000 -31.500000 54.625000 0 0 0 0 0.000000 0.000000 0.000000 0.000000
-19.316700 -3.047997 -17.068800 0.000000 1.000000 0.000000 1.000000 0.000000 0.000000 -31.500000 55.375000 0 0 0 0 0.000000 0.000000 0.000000 0.000000
-21.640800 -2.247898 -14.935200 0.000000 1.000000 0.000000 1.000000 0.000000 0.000000 -34.906250 48.625000 0 0 0 0 0.000000 0.000000 0.000000 0.000000
-21.602699 -2.247898 -14.935200 0.000000 1.000000 0.000000 1.000000 0.000000 0.000000 -34.843750 48.625000 0 0 0 0 0.000000 0.000000 0.000000 0.000000
-21.602699 -2.247898 -13.639799 0.000000 1.000000 0.000000 1.000000 0.000000 0.000000 -34.843750 44.375000 0 0 0 0 0.000000 0.000000 0.000000 0.000000
-21.640800 -2.247898 -13.639799 0.000000 1.000000 0.000000 1.000000 0.000000 0.000000 -34.906250 44.375000 0 0 0 0 0.000000 0.000000 0.000000 0.000000
IndexCount: 42
3 1 0
3 2 1
7 5 4
7 6 5
11 9 8
11 10 9
15 13 12
15 13 12
15 14 13
15 14 13
19 17 16
19 18 17
23 21 20
23 22 21