VertexCount: 20
-17.335501 -2.247901 8.496299 0.000000 -0.000000 1.000000 1.000000 0.000000 0.000000 -29.093750 3.875000 0 0 0 0 0.000000 0.000000 0.000000 0.000000
-17.335501 -2.476501 8.496299 0.000000 -0.000000 1.000000 1.000000 0.000000 0.000000 -29.093750 4.250000 0 0 0 0 0.000000 0.000000 0.000000 0.000000
-17.373600 -2.476501 8.496299 0.000000 -0.000000 1.000000 1.000000 0.000000 0.000000 -29.156250 4.250000 0 0 0 0 0.000000 0.000000 0.000000 0.000000
-17.373600 -2.247901 8.496299 0.000000 -0.000000 1.000000 1.000000 0.000000 0.000000 -29.156250 3.875000 0 0 0 0 0.000000 0.000000 0.000000 0.000000
-17.373600 -2.247901 7.658099 0.000000 0.000000 -1.000000 1.000000 0.000000 0.000000 -29.156250 3.875000 0 0 0 0 0.000000 0.000000 0.000000 0.000000
-17.373600 -2.476501 7.658099 0.000000 0.000000 -1.000000 1.000000 0.000000 0.000000 -29.156250 4.250000 0 0 0 0 0.000000 0.000000 0.000000 0.000000
-17.335501 -2.476501 7.658099 0.000000 0.000000 -1.000000 1.000000 0.000000 0.000000 -29.093750 4.250000 0 0 0 0 0.000000 0.000000 0.000000 0.000000
-17.335501 -2.247901 7.658099 0.000000 0.000000 -1.000000 1.000000 0.000000 0.000000 -29.093750 3.875000 0 0 0 0 0.000000 0.000000 0.000000 0.000000
-17.335501 -2.476501 7.658099 0.000000 -1.000000 -0.000000 1.000000 0.000000 0.000000 -28.843750 -12.000000 0 0 0 0 0.000000 0.000000 0.000000 0.000000
-17.373600 -2.476501 7.658099 0.000000 -1.000000 -0.000000 1.000000 0.000000 0.000000 -28.906250 -12.000000 0 0 0 0 0.000000 0.000000 0.000000 0.000000
-17.373600 -2.476501 8.496299 0.000000 -1.000000 -0.000000 1.000000 0.000000 0.000000 -28.906250 -13.375000 0 0 0 0 0.000000 0.000000 0.000000 0.000000
-17.335501 -2.476501 8.496299 0.000000 -1.000000 -0.000000 1.000000 0.000000 0.000000 -28.843750 -13.375000 0 0 0 0 0.000000 0.000000 0.000000 0.000000
-17.335501 -2.247901 8.496299 0.000000 1.000000 0.000000 1.000000 0.000000 0.000000 -28.843750 -13.875000 0 0 0 0 0.000000 0.000000 0.000000 0.000000
-17.373600 -2.247901 8.496299 0.000000 1.000000 0.000000 1.000000 0.000000 0.000000 -28.906250 -13.875000 0 0 0 0 0.000000 0.000000 0.000000 0.000000
-17.373600 -2.247901 7.658099 0.000000 1.000000 0.000000 1.000000 0.000000 0.000000 -28.906250 -12.500000 0 0 0 0 0.000000 0.000000 0.000000 0.000000
-17.335501 -2.247901 7.658099 0.000000 1.000000 0.000000 1.000000 0.000000 0.000000 -28.843750 -12.500000 0 0 0 0 0.000000 0.000000 0.000000 0.000000
-17.373600 -2.247901 8.496299 -1.000000 0.000000 0.000000 0.000000 -0.000000 1.000000 13.062500 3.875000 0 0 0 0 0.000000 0.000000 0.000000 0.000000
-17.373600 -2.476501 8.496299 -1.000000 0.000000 0.000000 0.000000 -0.000000 1.000000 13.062500 4.250000 0 0 0 0 0.000000 0.000000 0.000000 0.000000
-17.373600 -2.476501 7.658099 -1.000000 0.000000 0.000000 0.000000 -0.000000 1.000000 11.687500 4.250000 0 0 0 0 0.000000 0.000000 0.000000 0.000000
-17.373600 -2.247901 7.658099 -1.000000 0.000000 0.000000 0.000000 -0.000000 1.000000 11.687500 3.875000 0 0 0 0 0.000000 0.000000 0.000000 0.000000
IndexCount: 30
3 1 0
3 2 1
7 5 4
7 6 5
11 9 8
11 10 9
15 13 12
15 14 13
19 17 16
19 18 17