VertexCount: 54
2.666999 -2.133602 11.506200 1.000000 0.000000 0.000000 -0.000000 -0.000000 1.000000 19.109375 2.250000 0 0 0 0 0.000000 0.000000 0.000000 0.000000
2.666999 -3.505202 11.506200 1.000000 0.000000 0.000000 -0.000000 -0.000000 1.000000 19.109375 4.500000 0 0 0 0 0.000000 0.000000 0.000000 0.000000
2.666999 -3.505202 11.582399 1.000000 0.000000 0.000000 -0.000000 -0.000000 1.000000 19.234375 4.500000 0 0 0 0 0.000000 0.000000 0.000000 0.000000
2.666999 -2.133602 11.582399 1.000000 0.000000 0.000000 -0.000000 -0.000000 1.000000 19.234375 2.250000 0 0 0 0 0.000000 0.000000 0.000000 0.000000
4.267199 -0.495301 10.210800 -0.000000 1.000000 0.000000 1.000000 0.000000 0.000024 4.359375 -7.765625 0 0 0 0 0.000000 0.000000 0.000000 0.000000
4.190999 -0.495301 10.134600 -0.000000 1.000000 0.000000 1.000000 0.000000 0.000024 4.296875 -7.703125 0 0 0 0 0.000000 0.000000 0.000000 0.000000
4.190999 -0.495301 10.096500 -0.000000 1.000000 0.000000 1.000000 0.000000 0.000024 4.296875 -7.671875 0 0 0 0 0.000000 0.000000 0.000000 0.000000
4.190999 -0.495301 9.867900 -0.000000 1.000000 0.000000 1.000000 0.000000 -0.000004 4.296875 -7.484375 0 0 0 0 0.000000 0.000000 0.000000 0.000000
4.190999 -0.495301 9.829801 -0.000000 1.000000 0.000000 1.000000 0.000000 0.000008 4.296875 -7.453125 0 0 0 0 0.000000 0.000000 0.000000 0.000000
4.267199 -0.495301 9.753600 -0.000000 1.000000 0.000000 1.000000 0.000000 0.000001 4.359375 -7.390625 0 0 0 0 0.000000 0.000000 0.000000 0.000000
4.267199 -0.723901 9.753600 0.000000 -1.000000 -0.000000 1.000000 0.000000 0.000000 4.359375 -7.640625 0 0 0 0 0.000000 0.000000 0.000000 0.000000
4.190999 -0.723901 9.829801 0.000000 -1.000000 -0.000000 1.000000 0.000000 0.000000 4.296875 -7.703125 0 0 0 0 0.000000 0.000000 0.000000 0.000000
4.190999 -0.723901 9.867900 0.000000 -1.000000 -0.000000 1.000000 0.000000 0.000000 4.296875 -7.734375 0 0 0 0 0.000000 0.000000 0.000000 0.000000
4.190999 -0.723901 10.096500 0.000000 -1.000000 -0.000000 1.000000 0.000000 0.000004 4.296875 -7.921875 0 0 0 0 0.000000 0.000000 0.000000 0.000000
4.190999 -0.723901 10.134600 0.000000 -1.000000 -0.000000 1.000000 0.000000 -0.000080 4.296875 -7.953125 0 0 0 0 0.000000 0.000000 0.000000 0.000000
4.267199 -0.723901 10.210800 0.000000 -1.000000 -0.000000 1.000000 0.000000 0.000007 4.359375 -8.015625 0 0 0 0 0.000000 0.000000 0.000000 0.000000
4.190999 -0.495301 10.096500 -1.000000 -0.000000 -0.000000 -0.000000 -0.000000 1.000000 8.843750 0.687500 0 0 0 0 0.000000 0.000000 0.000000 0.000000
4.190999 -0.495301 10.134600 -1.000000 -0.000000 -0.000000 -0.000000 -0.000000 1.000000 8.875000 0.687500 0 0 0 0 0.000000 0.000000 0.000000 0.000000
4.190999 -0.723901 10.134600 -1.000000 -0.000000 -0.000000 -0.000000 -0.000000 1.000000 8.875000 0.875000 0 0 0 0 0.000000 0.000000 0.000000 0.000000
4.190999 -0.723901 10.096500 -1.000000 -0.000000 -0.000000 -0.000000 -0.000000 1.000000 8.843750 0.875000 0 0 0 0 0.000000 0.000000 0.000000 0.000000
4.190999 -0.685801 10.096500 -1.000000 -0.000000 -0.000000 0.000000 -1.000000 0.000000 8.843750 0.843750 0 0 0 0 0.000000 0.000000 0.000000 0.000000
4.190999 -0.533401 10.096500 -1.000000 -0.000000 -0.000000 0.000000 -1.000000 0.000000 8.843750 0.718750 0 0 0 0 0.000000 0.000000 0.000000 0.000000
4.190999 -0.495301 9.867900 -1.000000 -0.000000 0.000007 -0.000000 1.000000 0.000000 8.656250 0.687500 0 0 0 0 0.000000 0.000000 0.000000 0.000000
4.190999 -0.533401 9.867900 -1.000000 -0.000000 0.000007 -0.000000 1.000000 0.000000 8.656250 0.718750 0 0 0 0 0.000000 0.000000 0.000000 0.000000
4.190999 -0.685801 9.867900 -1.000000 -0.000000 0.000007 -0.000000 1.000000 0.000000 8.656250 0.843750 0 0 0 0 0.000000 0.000000 0.000000 0.000000
4.190999 -0.723901 9.867900 -1.000000 -0.000000 0.000007 -0.000000 1.000000 0.000000 8.656250 0.875000 0 0 0 0 0.000000 0.000000 0.000000 0.000000
4.190999 -0.723901 9.829801 -1.000000 -0.000000 0.000007 0.000007 0.000000 1.000000 8.625000 0.875000 0 0 0 0 0.000000 0.000000 0.000000 0.000000
4.190999 -0.495301 9.829801 -1.000000 -0.000000 0.000007 0.000007 -0.000001 1.000000 8.625000 0.687500 0 0 0 0 0.000000 0.000000 0.000000 0.000000
4.190999 -0.685801 9.867900 -1.000000 -0.000000 -0.000000 -0.000000 -0.000000 1.000000 8.656250 0.843750 0 0 0 0 0.000000 0.000000 0.000000 0.000000
4.190999 -0.685801 10.096500 -1.000000 -0.000000 -0.000000 -0.000000 -0.000000 1.000000 8.843750 0.843750 0 0 0 0 0.000000 0.000000 0.000000 0.000000
4.190999 -0.723901 9.867900 -1.000000 -0.000000 -0.000000 -0.000000 -0.000000 1.000000 8.656250 0.875000 0 0 0 0 0.000000 0.000000 0.000000 0.000000
4.190999 -0.533401 9.867900 -1.000000 -0.000000 -0.000000 -0.000000 -0.000000 1.000000 8.656250 0.718750 0 0 0 0 0.000000 0.000000 0.000000 0.000000
4.190999 -0.495301 9.867900 -1.000000 -0.000000 -0.000000 -0.000000 -0.000000 1.000000 8.656250 0.687500 0 0 0 0 0.000000 0.000000 0.000000 0.000000
4.190999 -0.533401 10.096500 -1.000000 -0.000000 -0.000000 -0.000000 -0.000000 1.000000 8.843750 0.718750 0 0 0 0 0.000000 0.000000 0.000000 0.000000
4.267199 -0.495301 10.210800 -0.707109 -0.000000 0.707105 0.707105 0.000000 0.707109 9.328125 0.687500 0 0 0 0 0.000000 0.000000 0.000000 0.000000
4.267199 -0.723901 10.210800 -0.707109 -0.000000 0.707105 0.707105 0.000000 0.707109 9.328125 0.875000 0 0 0 0 0.000000 0.000000 0.000000 0.000000
4.190999 -0.723901 10.134600 -0.707109 -0.000000 0.707105 0.707105 0.000000 0.707109 9.265625 0.875000 0 0 0 0 0.000000 0.000000 0.000000 0.000000
4.190999 -0.495301 10.134600 -0.707109 -0.000000 0.707105 0.707105 0.000000 0.707109 9.265625 0.687500 0 0 0 0 0.000000 0.000000 0.000000 0.000000
4.190999 -0.495301 9.829801 -0.707104 0.000000 -0.707109 -0.707109 0.000000 0.707104 7.625000 0.687500 0 0 0 0 0.000000 0.000000 0.000000 0.000000
4.190999 -0.723901 9.829801 -0.707104 0.000000 -0.707109 -0.707109 0.000000 0.707104 7.625000 0.875000 0 0 0 0 0.000000 0.000000 0.000000 0.000000
4.267199 -0.723901 9.753600 -0.707104 0.000000 -0.707109 -0.707109 0.000000 0.707104 7.562500 0.875000 0 0 0 0 0.000000 0.000000 0.000000 0.000000
4.267199 -0.495301 9.753600 -0.707104 0.000000 -0.707109 -0.707109 0.000000 0.707104 7.562500 0.687500 0 0 0 0 0.000000 0.000000 0.000000 0.000000
0.685799 -2.133602 11.582399 -1.000000 -0.000000 -0.000000 -0.000000 -0.000000 1.000000 19.234375 2.250000 0 0 0 0 0.000000 0.000000 0.000000 0.000000
0.685799 -3.505202 11.582399 -1.000000 -0.000000 -0.000000 -0.000000 -0.000000 1.000000 19.234375 4.500000 0 0 0 0 0.000000 0.000000 0.000000 0.000000
0.685799 -3.505202 11.506200 -1.000000 -0.000000 -0.000000 -0.000000 -0.000000 1.000000 19.109375 4.500000 0 0 0 0 0.000000 0.000000 0.000000 0.000000
0.685799 -2.133602 11.506200 -1.000000 -0.000000 -0.000000 -0.000000 -0.000000 1.000000 19.109375 2.250000 0 0 0 0 0.000000 0.000000 0.000000 0.000000
2.666999 -3.505202 11.506200 0.000000 -1.000000 -0.000000 1.000000 0.000000 -0.000000 4.609375 -20.125000 0 0 0 0 0.000000 0.000000 0.000000 0.000000
0.685799 -3.505202 11.506200 0.000000 -1.000000 -0.000000 1.000000 0.000000 -0.000000 1.359375 -20.125000 0 0 0 0 0.000000 0.000000 0.000000 0.000000
0.685799 -3.505202 11.582399 0.000000 -1.000000 -0.000000 1.000000 0.000000 -0.000000 1.359375 -20.250000 0 0 0 0 0.000000 0.000000 0.000000 0.000000
2.666999 -3.505202 11.582399 0.000000 -1.000000 -0.000000 1.000000 0.000000 -0.000000 4.609375 -20.250000 0 0 0 0 0.000000 0.000000 0.000000 0.000000
2.666999 -2.133602 11.582399 -0.000000 1.000000 0.000000 1.000000 0.000000 0.000000 4.609375 -20.250000 0 0 0 0 0.000000 0.000000 0.000000 0.000000
0.685799 -2.133602 11.582399 -0.000000 1.000000 0.000000 1.000000 0.000000 0.000000 1.359375 -20.250000 0 0 0 0 0.000000 0.000000 0.000000 0.000000
0.685799 -2.133602 11.506200 -0.000000 1.000000 0.000000 1.000000 0.000000 0.000000 1.359375 -20.125000 0 0 0 0 0.000000 0.000000 0.000000 0.000000
2.666999 -2.133602 11.506200 -0.000000 1.000000 0.000000 1.000000 0.000000 0.000000 4.609375 -20.125000 0 0 0 0 0.000000 0.000000 0.000000 0.000000
IndexCount: 96
3 1 0
3 2 1
4 9 8
4 8 7
4 7 6
6 5 4
10 15 14
10 14 13
10 13 12
12 11 10
16 21 20
16 20 19
16 19 18
18 17 16
33 16 32
30 19 29
30 29 28
33 32 31
22 27 26
22 26 25
25 23 22
25 24 23
37 35 34
37 36 35
41 39 38
41 40 39
45 43 42
45 44 43
49 47 46
49 48 47
53 51 50
53 52 51
