VertexCount: 483
3.600450 -3.657599 0.609600 -0.000000 -0.000000 1.000000 1.000000 -0.000000 0.000000 1.476562 0.700000 0 0 0 0 0.000000 0.000000 0.000000 0.000000
3.657600 -3.657599 0.609600 -0.000000 -0.000000 1.000000 1.000000 -0.000000 0.000000 1.500000 0.700000 0 0 0 0 0.000000 0.000000 0.000000 0.000000
3.657600 -4.572000 0.609600 -0.000000 -0.000000 1.000000 1.000000 -0.000000 0.000000 1.500000 1.000000 0 0 0 0 0.000000 0.000000 0.000000 0.000000
3.600450 -4.572000 0.609600 -0.000000 -0.000000 1.000000 1.000000 0.000000 0.000000 1.476562 1.000000 0 0 0 0 0.000000 0.000000 0.000000 0.000000
4.267200 -1.524000 0.609600 -0.000000 -0.000000 1.000000 1.000000 0.000000 0.000000 1.750000 0.000000 0 0 0 0 0.000000 0.000000 0.000000 0.000000
4.267200 -3.657599 0.609600 -0.000000 -0.000000 1.000000 1.000000 0.000000 0.000000 1.750000 0.700000 0 0 0 0 0.000000 0.000000 0.000000 0.000000
4.057651 -3.657599 0.609600 -0.000000 -0.000000 1.000000 1.000000 0.000000 0.000000 1.664062 0.700000 0 0 0 0 0.000000 0.000000 0.000000 0.000000
3.600450 -1.524000 0.609600 -0.000000 -0.000000 1.000000 1.000000 0.000000 0.000000 1.476562 0.000000 0 0 0 0 0.000000 0.000000 0.000000 0.000000
2.667000 -1.524000 0.609600 -0.000000 -0.000000 1.000000 1.000000 -0.000000 0.000000 1.093750 0.000000 0 0 0 0 0.000000 0.000000 0.000000 0.000000
3.505200 -4.572000 0.609600 -0.000000 -0.000000 1.000000 1.000000 -0.000000 0.000000 1.437500 1.000000 0 0 0 0 0.000000 0.000000 0.000000 0.000000
2.667000 -4.572000 0.609599 -0.000000 -0.000000 1.000000 1.000000 0.000000 0.000000 1.093750 1.000000 0 0 0 0 0.000000 0.000000 0.000000 0.000000
-5.181602 -1.524003 11.887200 0.971211 0.000000 0.238222 -0.238222 -0.000000 0.971211 4.875000 0.000000 0 0 0 0 0.000000 0.000000 0.000000 0.000000
-5.181601 -4.572002 11.887199 0.971211 0.000000 0.238222 -0.238222 -0.000000 0.971211 4.875000 1.000000 0 0 0 0 0.000000 0.000000 0.000000 0.000000
-5.429251 -4.572002 12.896849 0.971211 0.000000 0.238222 -0.238222 0.000000 0.971211 5.289062 1.000000 0 0 0 0 0.000000 0.000000 0.000000 0.000000
-5.429252 -1.524003 12.896851 0.971211 0.000000 0.238222 -0.238222 -0.000000 0.971211 5.289062 0.000000 0 0 0 0 0.000000 0.000000 0.000000 0.000000
-6.134101 -1.524003 13.620750 0.269630 -0.000000 0.962964 0.962964 0.000000 -0.269630 -2.320312 0.000000 0 0 0 0 0.000000 0.000000 0.000000 0.000000
-6.134100 -4.572003 13.620749 0.269630 -0.000000 0.962964 0.962964 0.000000 -0.269630 -2.320312 1.000000 0 0 0 0 0.000000 0.000000 0.000000 0.000000
-7.010401 -4.572003 13.866112 0.269630 -0.000000 0.962964 0.962964 0.000000 -0.269630 -2.679688 1.000000 0 0 0 0 0.000000 0.000000 0.000000 0.000000
-7.010401 -1.524003 13.866113 0.269630 -0.000000 0.962964 0.962964 0.000000 -0.269630 -2.679688 0.000000 0 0 0 0 0.000000 0.000000 0.000000 0.000000
-5.429252 -1.524003 12.896851 0.716471 -0.000000 0.697617 -0.697617 -0.000000 0.716471 5.289062 0.000000 0 0 0 0 0.000000 0.000000 0.000000 0.000000
-5.429251 -4.572002 12.896849 0.716471 -0.000000 0.697617 -0.697617 -0.000000 0.716471 5.289062 1.000000 0 0 0 0 0.000000 0.000000 0.000000 0.000000
-6.134100 -4.572003 13.620749 0.716471 -0.000000 0.697617 -0.697617 0.000000 0.716471 5.585938 1.000000 0 0 0 0 0.000000 0.000000 0.000000 0.000000
-6.134101 -1.524003 13.620750 0.716471 -0.000000 0.697617 -0.697617 -0.000000 0.716471 5.585938 0.000000 0 0 0 0 0.000000 0.000000 0.000000 0.000000
-5.181601 -1.524002 9.220200 1.000000 0.000000 0.000000 -0.000000 0.000000 1.000000 3.781250 0.000000 0 0 0 0 0.000000 0.000000 0.000000 0.000000
-5.181600 -3.657602 9.220200 1.000000 0.000000 0.000000 -0.000000 -0.000000 1.000000 3.781250 0.700000 0 0 0 0 0.000000 0.000000 0.000000 0.000000
-5.181600 -3.657602 10.439399 1.000000 0.000000 0.000000 -0.000000 -0.000000 1.000000 4.281250 0.700000 0 0 0 0 0.000000 0.000000 0.000000 0.000000
-5.181601 -1.524002 10.439399 1.000000 0.000000 0.000000 -0.000000 -0.000000 1.000000 4.281250 0.000000 0 0 0 0 0.000000 0.000000 0.000000 0.000000
-5.181600 -4.572002 8.458200 1.000000 0.000000 0.000000 0.000000 0.000000 -1.000000 3.468750 1.000000 0 0 0 0 0.000000 0.000000 0.000000 0.000000
-5.181600 -4.572002 8.648699 1.000000 0.000000 0.000000 0.000000 0.000000 -1.000000 3.546875 1.000000 0 0 0 0 0.000000 0.000000 0.000000 0.000000
-5.181600 -4.572002 8.828722 1.000000 0.000000 0.000000 0.000000 0.000000 -1.000000 3.620703 1.000000 0 0 0 0 0.000000 0.000000 0.000000 0.000000
-5.181600 -4.572002 9.220200 1.000000 0.000000 0.000000 -0.000000 -0.000000 1.000000 3.781250 1.000000 0 0 0 0 0.000000 0.000000 0.000000 0.000000
-5.181601 -1.524002 8.458200 1.000000 0.000000 0.000000 -0.000000 -0.000000 1.000000 3.468750 0.000000 0 0 0 0 0.000000 0.000000 0.000000 0.000000
-5.181600 -3.657602 8.458200 1.000000 0.000000 0.000000 -0.000000 1.000000 0.000000 3.468750 0.700000 0 0 0 0 0.000000 0.000000 0.000000 0.000000
-5.181600 -4.572002 10.439398 1.000000 0.000000 0.000000 -0.000000 -0.000001 1.000000 4.281250 1.000000 0 0 0 0 0.000000 0.000000 0.000000 0.000000
-5.181601 -4.572002 11.582398 1.000000 0.000000 0.000000 -0.000000 -0.000000 1.000000 4.750000 1.000000 0 0 0 0 0.000000 0.000000 0.000000 0.000000
-5.181601 -4.572002 11.887199 1.000000 0.000000 0.000000 -0.000000 -0.000000 1.000000 4.875000 1.000000 0 0 0 0 0.000000 0.000000 0.000000 0.000000
-5.181602 -1.524003 11.887200 1.000000 0.000000 0.000000 -0.000000 -0.000000 1.000000 4.875000 0.000000 0 0 0 0 0.000000 0.000000 0.000000 0.000000
-5.181602 -1.524002 11.582399 1.000000 0.000000 0.000000 -0.000000 -0.000000 1.000000 4.750000 0.000000 0 0 0 0 0.000000 0.000000 0.000000 0.000000
-5.181602 -1.524002 11.429999 1.000000 0.000000 0.000000 -0.000000 -0.000000 1.000000 4.687500 0.000000 0 0 0 0 0.000000 0.000000 0.000000 0.000000
-5.791201 -1.524003 11.582399 -1.000000 -0.000000 -0.000001 -0.000000 1.000000 0.000000 4.750000 0.000000 0 0 0 0 0.000000 0.000000 0.000000 0.000000
-5.791201 -1.905002 11.582399 -1.000000 -0.000000 -0.000001 -0.000000 1.000000 0.000000 4.750000 0.125000 0 0 0 0 0.000000 0.000000 0.000000 0.000000
-5.791201 -4.572002 11.582398 -1.000000 -0.000000 -0.000001 -0.000000 1.000000 0.000000 4.750000 1.000000 0 0 0 0 0.000000 0.000000 0.000000 0.000000
-5.791200 -4.572002 10.439398 -1.000000 -0.000000 -0.000001 -0.000001 -0.000000 1.000000 4.281250 1.000000 0 0 0 0 0.000000 0.000000 0.000000 0.000000
-5.791200 -3.657602 10.439399 -1.000000 -0.000000 -0.000001 -0.000000 -0.000001 1.000000 4.281250 0.700000 0 0 0 0 0.000000 0.000000 0.000000 0.000000
-5.791201 -1.524002 10.439399 -1.000000 -0.000000 -0.000001 -0.000000 -0.000000 1.000000 4.281250 0.000000 0 0 0 0 0.000000 0.000000 0.000000 0.000000
-5.791200 -4.572002 7.619998 -1.000000 -0.000000 0.000000 0.000000 0.000000 1.000000 3.125000 1.000000 0 0 0 0 0.000000 0.000000 0.000000 0.000000
-5.791201 -3.352802 7.619998 -1.000000 -0.000000 0.000000 0.000000 0.000000 1.000000 3.125000 0.600000 0 0 0 0 0.000000 0.000000 0.000000 0.000000
-5.791201 -1.905002 7.619998 -1.000000 -0.000000 0.000000 0.000000 -0.000001 1.000000 3.125000 0.125000 0 0 0 0 0.000000 0.000000 0.000000 0.000000
-5.791201 -1.524002 7.619999 -1.000000 -0.000000 0.000000 0.000000 -0.000000 1.000000 3.125000 0.000000 0 0 0 0 0.000000 0.000000 0.000000 0.000000
-5.791201 -1.524002 9.220200 -1.000000 -0.000000 0.000000 0.000000 -0.000000 1.000000 3.781250 0.000000 0 0 0 0 0.000000 0.000000 0.000000 0.000000
-5.791200 -3.657602 9.220200 -1.000000 -0.000000 0.000000 0.000000 0.000000 1.000000 3.781250 0.700000 0 0 0 0 0.000000 0.000000 0.000000 0.000000
-5.791200 -4.572002 9.220200 -1.000000 -0.000000 0.000000 0.000000 -0.000000 1.000000 3.781250 1.000000 0 0 0 0 0.000000 0.000000 0.000000 0.000000
-5.791200 -4.572002 7.696198 -1.000000 -0.000000 0.000000 0.000000 0.000000 1.000000 3.156250 1.000000 0 0 0 0 0.000000 0.000000 0.000000 0.000000
-5.791200 -4.572002 7.296148 -1.000000 -0.000000 -0.000000 -0.000000 -0.000000 1.000000 2.992188 1.000000 0 0 0 0 0.000000 0.000000 0.000000 0.000000
-5.791200 -3.962402 7.296148 -1.000000 -0.000000 -0.000000 -0.000000 -0.000000 1.000000 2.992188 0.800000 0 0 0 0 0.000000 0.000000 0.000000 0.000000
-5.791200 -3.962402 7.467599 -1.000000 -0.000000 -0.000000 -0.000000 -0.000000 1.000000 3.062500 0.800000 0 0 0 0 0.000000 0.000000 0.000000 0.000000
-5.791200 -4.572002 7.467599 -1.000000 -0.000000 -0.000000 -0.000000 -0.000000 1.000000 3.062500 1.000000 0 0 0 0 0.000000 0.000000 0.000000 0.000000
-5.791201 -1.524002 7.296149 -1.000000 -0.000000 -0.000000 -0.000000 -0.000000 1.000000 2.992188 0.000000 0 0 0 0 0.000000 0.000000 0.000000 0.000000
-5.791201 -1.905002 7.296148 -1.000000 -0.000000 -0.000000 -0.000000 -0.000000 1.000000 2.992188 0.125000 0 0 0 0 0.000000 0.000000 0.000000 0.000000
-6.362701 -1.905002 11.582399 0.000000 0.000000 -1.000000 1.000000 -0.000000 0.000000 -2.609375 0.125000 0 0 0 0 0.000000 0.000000 0.000000 0.000000
-5.791201 -1.905002 11.582399 0.000000 0.000000 -1.000000 1.000000 -0.000000 0.000000 -2.375000 0.125000 0 0 0 0 0.000000 0.000000 0.000000 0.000000
-5.791201 -1.524003 11.582399 0.000000 0.000000 -1.000000 1.000000 -0.000000 0.000000 -2.375000 0.000000 0 0 0 0 0.000000 0.000000 0.000000 0.000000
-6.362701 -1.524003 11.582399 0.000000 0.000000 -1.000000 1.000000 0.000000 0.000000 -2.609375 0.000000 0 0 0 0 0.000000 0.000000 0.000000 0.000000
-10.629901 -1.905003 11.582398 0.000000 0.000003 -1.000000 -1.000000 -0.000000 -0.000000 -4.359375 0.125000 0 0 0 0 0.000000 0.000000 0.000000 0.000000
-9.448801 -1.905003 11.582398 0.000000 0.000003 -1.000000 -1.000000 -0.000000 -0.000000 -3.875000 0.125000 0 0 0 0 0.000000 0.000000 0.000000 0.000000
-6.362701 -1.905002 11.582399 0.000000 0.000003 -1.000000 -1.000000 -0.000000 -0.000000 -2.609375 0.125000 0 0 0 0 0.000000 0.000000 0.000000 0.000000
-10.629901 -1.524003 11.582398 0.000000 0.000003 -1.000000 1.000000 0.000000 0.000000 -4.359375 0.000000 0 0 0 0 0.000000 0.000000 0.000000 0.000000
-5.791201 -1.905002 11.582399 0.000000 0.000000 -1.000000 1.000000 0.000000 0.000000 -2.375000 0.125000 0 0 0 0 0.000000 0.000000 0.000000 0.000000
-6.362701 -1.905002 11.582399 0.000000 0.000000 -1.000000 1.000000 0.000000 0.000000 -2.609375 0.125000 0 0 0 0 0.000000 0.000000 0.000000 0.000000
-9.448801 -1.905003 11.582398 0.000000 0.000000 -1.000000 1.000000 0.000000 0.000000 -3.875000 0.125000 0 0 0 0 0.000000 0.000000 0.000000 0.000000
-9.448801 -3.352803 11.582398 0.000000 0.000000 -1.000000 1.000000 0.000000 0.000000 -3.875000 0.600000 0 0 0 0 0.000000 0.000000 0.000000 0.000000
-9.448800 -4.572003 11.582397 0.000000 0.000000 -1.000000 1.000000 -0.000000 0.000000 -3.875000 1.000000 0 0 0 0 0.000000 0.000000 0.000000 0.000000
-5.791201 -4.572002 11.582398 0.000000 0.000000 -1.000000 1.000000 0.000000 0.000000 -2.375000 1.000000 0 0 0 0 0.000000 0.000000 0.000000 0.000000
-9.601201 -2.209803 11.582398 0.000000 0.000000 -1.000000 1.000000 -0.000000 0.000000 -3.937500 0.225000 0 0 0 0 0.000000 0.000000 0.000000 0.000000
-10.629901 -2.209803 11.582398 0.000000 0.000000 -1.000000 1.000000 0.000000 0.000000 -4.359375 0.225000 0 0 0 0 0.000000 0.000000 0.000000 0.000000
-10.629901 -4.572003 11.582397 0.000000 0.000000 -1.000000 1.000000 0.000000 0.000000 -4.359375 1.000000 0 0 0 0 0.000000 0.000000 0.000000 0.000000
-9.601200 -4.572003 11.582397 0.000000 0.000000 -1.000000 1.000000 -0.000000 0.000000 -3.937500 1.000000 0 0 0 0 0.000000 0.000000 0.000000 0.000000
-9.601200 -4.114803 11.582397 0.000000 0.000000 -1.000000 1.000000 -0.000000 0.000000 -3.937500 0.850000 0 0 0 0 0.000000 0.000000 0.000000 0.000000
-9.601200 -3.962403 11.582397 0.000000 0.000000 -1.000000 0.000000 -1.000000 -0.000000 -3.937500 0.800000 0 0 0 0 0.000000 0.000000 0.000000 0.000000
-5.181600 -4.572001 0.609599 1.000000 0.000000 0.000000 -0.000000 -0.000000 1.000000 0.250000 1.000000 0 0 0 0 0.000000 0.000000 0.000000 0.000000
-5.181600 -4.572001 3.248977 1.000000 0.000000 0.000000 0.000000 -0.000000 -1.000000 1.332422 1.000000 0 0 0 0 0.000000 0.000000 0.000000 0.000000
-5.181600 -4.572001 3.428999 1.000000 0.000000 0.000000 0.000000 -0.000000 -1.000000 1.406250 1.000000 0 0 0 0 0.000000 0.000000 0.000000 0.000000
-5.181600 -4.572001 3.581399 1.000000 0.000000 0.000000 0.000000 -0.000000 -1.000000 1.468750 1.000000 0 0 0 0 0.000000 0.000000 0.000000 0.000000
-5.181600 -3.657601 3.581399 1.000000 0.000000 0.000000 -0.000000 -0.000000 1.000000 1.468750 0.700000 0 0 0 0 0.000000 0.000000 0.000000 0.000000
-5.181601 -1.524001 3.581399 1.000000 0.000000 0.000000 -0.000000 0.000000 1.000000 1.468750 0.000000 0 0 0 0 0.000000 0.000000 0.000000 0.000000
-5.181600 -1.524001 0.761999 1.000000 0.000000 0.000000 -0.000000 -0.000000 1.000000 0.312500 0.000000 0 0 0 0 0.000000 0.000000 0.000000 0.000000
-5.181600 -1.524001 0.609599 1.000000 0.000000 0.000000 -0.000000 -0.000000 1.000000 0.250000 0.000000 0 0 0 0 0.000000 0.000000 0.000000 0.000000
-3.657600 -1.524001 0.609599 -0.000000 -0.000000 1.000000 1.000000 0.000000 0.000000 -1.500000 0.000000 0 0 0 0 0.000000 0.000000 0.000000 0.000000
-3.657599 -2.133600 0.609599 -0.000000 -0.000000 1.000000 1.000000 0.000000 0.000000 -1.500000 0.200000 0 0 0 0 0.000000 0.000000 0.000000 0.000000
-3.657599 -2.743200 0.609599 -0.000000 -0.000000 1.000000 1.000000 0.000001 0.000000 -1.500000 0.400000 0 0 0 0 0.000000 0.000000 0.000000 0.000000
-3.657599 -3.352800 0.609599 -0.000000 -0.000000 1.000000 1.000000 0.000001 0.000000 -1.500000 0.600000 0 0 0 0 0.000000 0.000000 0.000000 0.000000
-3.657599 -3.962400 0.609599 -0.000000 -0.000000 1.000000 1.000000 0.000000 0.000000 -1.500000 0.800000 0 0 0 0 0.000000 0.000000 0.000000 0.000000
-3.657599 -4.572001 0.609599 -0.000000 -0.000000 1.000000 1.000000 0.000000 0.000000 -1.500000 1.000000 0 0 0 0 0.000000 0.000000 0.000000 0.000000
-5.181600 -4.572001 0.609599 -0.000000 -0.000000 1.000000 1.000000 0.000001 0.000000 -2.125000 1.000000 0 0 0 0 0.000000 0.000000 0.000000 0.000000
-5.181600 -1.524001 0.609599 -0.000000 -0.000000 1.000000 1.000000 0.000000 0.000000 -2.125000 0.000000 0 0 0 0 0.000000 0.000000 0.000000 0.000000
1.828800 -4.572000 0.609599 -0.000000 -0.000000 1.000000 1.000000 0.000000 0.000000 0.750000 1.000000 0 0 0 0 0.000000 0.000000 0.000000 0.000000
1.828800 -3.962400 0.609599 -0.000000 -0.000000 1.000000 1.000000 -0.000001 0.000000 0.750000 0.800000 0 0 0 0 0.000000 0.000000 0.000000 0.000000
1.828800 -3.352800 0.609600 -0.000000 -0.000000 1.000000 1.000000 -0.000000 0.000000 0.750000 0.600000 0 0 0 0 0.000000 0.000000 0.000000 0.000000
1.828800 -2.743200 0.609600 -0.000000 -0.000000 1.000000 1.000000 0.000000 0.000000 0.750000 0.400000 0 0 0 0 0.000000 0.000000 0.000000 0.000000
1.828800 -2.133600 0.609600 -0.000000 -0.000000 1.000000 1.000000 -0.000000 0.000000 0.750000 0.200000 0 0 0 0 0.000000 0.000000 0.000000 0.000000
1.828800 -1.524000 0.609600 -0.000000 -0.000000 1.000000 1.000000 0.000000 0.000000 0.750000 0.000000 0 0 0 0 0.000000 0.000000 0.000000 0.000000
0.609600 -3.962400 0.609599 -0.000000 -0.000000 1.000000 1.000000 0.000000 0.000000 0.250000 0.800000 0 0 0 0 0.000000 0.000000 0.000000 0.000000
0.914400 -3.962400 0.609599 -0.000000 -0.000000 1.000000 1.000000 0.000000 0.000000 0.375000 0.800000 0 0 0 0 0.000000 0.000000 0.000000 0.000000
0.775907 -4.572000 0.609599 -0.000000 -0.000000 1.000000 1.000000 -0.000000 0.000000 0.318203 1.000000 0 0 0 0 0.000000 0.000000 0.000000 0.000000
0.609600 -4.572000 0.609599 -0.000000 -0.000000 1.000000 1.000000 0.000000 0.000000 0.250000 1.000000 0 0 0 0 0.000000 0.000000 0.000000 0.000000
0.609600 -3.962400 0.609599 -0.000000 -0.000000 1.000000 1.000000 0.000000 0.000000 0.250000 0.800000 0 0 0 0 0.000000 0.000000 0.000000 0.000000
-0.228600 -4.572000 0.609599 -0.000000 -0.000000 1.000000 1.000000 0.000000 0.000000 -0.093750 1.000000 0 0 0 0 0.000000 0.000000 0.000000 0.000000
-1.156525 -4.572001 0.609599 -0.000000 -0.000000 1.000000 1.000000 0.000000 0.000000 -0.474297 1.000000 0 0 0 0 0.000000 0.000000 0.000000 0.000000
-2.766822 -4.572001 0.609599 -0.000000 -0.000000 1.000000 1.000000 -0.000000 0.000000 -1.134688 1.000000 0 0 0 0 0.000000 0.000000 0.000000 0.000000
-2.743200 -3.962400 0.609599 -0.000000 -0.000000 1.000000 1.000000 0.000000 0.000000 -1.125000 0.800000 0 0 0 0 0.000000 0.000000 0.000000 0.000000
-1.828800 -3.962400 0.609599 -0.000000 -0.000000 1.000000 -1.000000 0.000000 -0.000000 -0.750000 0.800000 0 0 0 0 0.000000 0.000000 0.000000 0.000000
-0.914400 -3.962400 0.609599 -0.000000 -0.000000 1.000000 1.000000 0.000000 0.000000 -0.375000 0.800000 0 0 0 0 0.000000 0.000000 0.000000 0.000000
0.000000 -3.962400 0.609599 -0.000000 -0.000000 1.000000 -1.000000 -0.000000 -0.000000 0.000000 0.800000 0 0 0 0 0.000000 0.000000 0.000000 0.000000
0.609600 -1.524000 0.609600 -0.000000 -0.000000 1.000000 1.000000 0.000000 0.000000 0.250000 0.000000 0 0 0 0 0.000000 0.000000 0.000000 0.000000
0.914400 -2.133600 0.609600 -0.000000 -0.000000 1.000000 1.000000 -0.000000 0.000000 0.375000 0.200000 0 0 0 0 0.000000 0.000000 0.000000 0.000000
0.609600 -2.133600 0.609600 -0.000000 -0.000000 1.000000 1.000000 0.000000 0.000000 0.250000 0.200000 0 0 0 0 0.000000 0.000000 0.000000 0.000000
0.000000 -2.133600 0.609600 -0.000000 -0.000000 1.000000 1.000000 0.000000 0.000000 0.000000 0.200000 0 0 0 0 0.000000 0.000000 0.000000 0.000000
-1.828800 -2.133600 0.609599 -0.000000 -0.000000 1.000000 1.000000 0.000000 0.000000 -0.750000 0.200000 0 0 0 0 0.000000 0.000000 0.000000 0.000000
-2.743200 -2.133600 0.609599 -0.000000 -0.000000 1.000000 1.000000 -0.000000 0.000000 -1.125000 0.200000 0 0 0 0 0.000000 0.000000 0.000000 0.000000
-2.438400 -1.524000 0.609599 -0.000000 -0.000000 1.000000 -1.000000 -0.000000 -0.000000 -1.000000 0.000000 0 0 0 0 0.000000 0.000000 0.000000 0.000000
-6.705599 -4.572001 0.609599 -0.000000 -0.000000 1.000000 1.000000 0.000000 0.000000 -2.750000 1.000000 0 0 0 0 0.000000 0.000000 0.000000 0.000000
-6.705599 -3.962400 0.609599 -0.000000 -0.000000 1.000000 0.000000 -1.000000 -0.000000 -2.750000 0.800000 0 0 0 0 0.000000 0.000000 0.000000 0.000000
-6.705600 -2.743201 0.609599 -0.000000 -0.000000 1.000000 0.000000 -1.000000 -0.000000 -2.750000 0.400000 0 0 0 0 0.000000 0.000000 0.000000 0.000000
-6.705600 -2.438401 0.609599 -0.000000 -0.000000 1.000000 0.000000 -1.000000 -0.000000 -2.750000 0.300000 0 0 0 0 0.000000 0.000000 0.000000 0.000000
-6.705600 -1.790701 0.609599 -0.000000 -0.000000 1.000000 0.000000 -1.000000 -0.000000 -2.750000 0.087500 0 0 0 0 0.000000 0.000000 0.000000 0.000000
-6.705600 -1.524001 0.609599 -0.000000 -0.000000 1.000000 0.000000 -1.000000 -0.000000 -2.750000 0.000000 0 0 0 0 0.000000 0.000000 0.000000 0.000000
-6.362700 -1.524001 0.609599 -0.000000 -0.000000 1.000000 1.000000 -0.000000 0.000000 -2.609375 0.000000 0 0 0 0 0.000000 0.000000 0.000000 0.000000
-5.791200 -1.524001 0.609599 -0.000000 -0.000000 1.000000 1.000000 0.000000 0.000000 -2.375000 0.000000 0 0 0 0 0.000000 0.000000 0.000000 0.000000
-5.791200 -1.905001 0.609599 -0.000000 -0.000000 1.000000 1.000000 0.000003 0.000000 -2.375000 0.125000 0 0 0 0 0.000000 0.000000 0.000000 0.000000
-5.791199 -4.572001 0.609599 -0.000000 -0.000000 1.000000 1.000000 -0.000000 0.000000 -2.375000 1.000000 0 0 0 0 0.000000 0.000000 0.000000 0.000000
-8.382000 -1.790701 0.609599 -0.000000 -0.000000 1.000000 1.000000 0.000000 0.000000 -3.437500 0.087500 0 0 0 0 0.000000 0.000000 0.000000 0.000000
-8.382000 -2.438401 0.609599 -0.000000 -0.000000 1.000000 1.000000 0.000000 0.000000 -3.437500 0.300000 0 0 0 0 0.000000 0.000000 0.000000 0.000000
-9.144000 -2.438401 0.609599 -0.000000 -0.000000 1.000000 1.000000 0.000000 0.000000 -3.750000 0.300000 0 0 0 0 0.000000 0.000000 0.000000 0.000000
-9.144000 -1.790701 0.609599 -0.000000 -0.000000 1.000000 1.000000 0.000000 0.000000 -3.750000 0.087500 0 0 0 0 0.000000 0.000000 0.000000 0.000000
-6.705600 -1.790701 0.609599 -0.000000 -0.000000 1.000000 1.000000 0.000000 0.000000 -2.750000 0.087500 0 0 0 0 0.000000 0.000000 0.000000 0.000000
-6.705600 -2.438401 0.609599 -0.000000 -0.000000 1.000000 1.000000 0.000001 0.000000 -2.750000 0.300000 0 0 0 0 0.000000 0.000000 0.000000 0.000000
-7.010400 -2.438401 0.609599 -0.000000 -0.000000 1.000000 1.000000 0.000000 0.000000 -2.875000 0.300000 0 0 0 0 0.000000 0.000000 0.000000 0.000000
-7.010400 -1.790701 0.609599 -0.000000 -0.000000 1.000000 1.000000 0.000000 0.000000 -2.875000 0.087500 0 0 0 0 0.000000 0.000000 0.000000 0.000000
-7.162799 -3.962400 0.609599 -0.000000 -0.000000 1.000000 1.000000 0.000000 0.000000 -2.937500 0.800000 0 0 0 0 0.000000 0.000000 0.000000 0.000000
-7.162800 -2.743201 0.609599 -0.000000 -0.000000 1.000000 1.000000 0.000000 0.000000 -2.937500 0.400000 0 0 0 0 0.000000 0.000000 0.000000 0.000000
-6.705600 -2.743201 0.609599 -0.000000 -0.000000 1.000000 1.000000 -0.000000 0.000000 -2.750000 0.400000 0 0 0 0 0.000000 0.000000 0.000000 0.000000
-6.705599 -3.962400 0.609599 -0.000000 -0.000000 1.000000 1.000000 -0.000000 0.000000 -2.750000 0.800000 0 0 0 0 0.000000 0.000000 0.000000 0.000000
-10.629900 -4.572001 0.609598 -0.000000 -0.000000 1.000000 1.000000 0.000000 0.000000 -4.359375 1.000000 0 0 0 0 0.000000 0.000000 0.000000 0.000000
-10.629900 -3.962401 0.609598 -0.000000 -0.000000 1.000000 1.000000 0.000000 0.000000 -4.359375 0.800000 0 0 0 0 0.000000 0.000000 0.000000 0.000000
-8.496299 -3.962401 0.609599 -0.000000 -0.000000 1.000000 1.000000 0.000000 0.000000 -3.484375 0.800000 0 0 0 0 0.000000 0.000000 0.000000 0.000000
-6.858000 -4.572001 0.609599 -0.000000 -0.000000 1.000000 1.000000 0.000000 0.000000 -2.812500 1.000000 0 0 0 0 0.000000 0.000000 0.000000 0.000000
-10.629900 -1.790701 0.609599 -0.000000 -0.000000 1.000000 1.000000 0.000000 0.000000 -4.359375 0.087500 0 0 0 0 0.000000 0.000000 0.000000 0.000000
-10.515600 -1.790701 0.609599 -0.000000 -0.000000 1.000000 1.000000 0.000000 0.000000 -4.312500 0.087500 0 0 0 0 0.000000 0.000000 0.000000 0.000000
-10.515600 -2.438401 0.609599 -0.000000 -0.000000 1.000000 1.000000 -0.000000 0.000000 -4.312500 0.300000 0 0 0 0 0.000000 0.000000 0.000000 0.000000
-10.629900 -2.438401 0.609599 -0.000000 -0.000000 1.000000 1.000000 0.000000 0.000000 -4.359375 0.300000 0 0 0 0 0.000000 0.000000 0.000000 0.000000
-10.629900 -2.743201 0.609599 -0.000000 -0.000000 1.000000 1.000000 0.000000 0.000000 -4.359375 0.400000 0 0 0 0 0.000000 0.000000 0.000000 0.000000
-8.496300 -2.743201 0.609599 -0.000000 -0.000000 1.000000 1.000000 0.000000 0.000000 -3.484375 0.400000 0 0 0 0 0.000000 0.000000 0.000000 0.000000
-10.629900 -1.524001 0.609599 -0.000000 -0.000000 1.000000 1.000000 0.000000 0.000000 -4.359375 0.000000 0 0 0 0 0.000000 0.000000 0.000000 0.000000
-6.705600 -1.524001 0.609599 -0.000000 -0.000000 1.000000 1.000000 0.000000 0.000000 -2.750000 0.000000 0 0 0 0 0.000000 0.000000 0.000000 0.000000
-5.791199 -4.572001 2.895599 -1.000000 -0.000000 -0.000000 -0.000000 -0.000000 1.000000 1.187500 1.000000 0 0 0 0 0.000000 0.000000 0.000000 0.000000
-5.791199 -3.962401 2.895599 -1.000000 -0.000000 -0.000000 -0.000000 -0.000000 1.000000 1.187500 0.800000 0 0 0 0 0.000000 0.000000 0.000000 0.000000
-5.791200 -3.962401 3.581399 -1.000000 -0.000000 -0.000000 -0.000000 -0.000000 1.000000 1.468750 0.800000 0 0 0 0 0.000000 0.000000 0.000000 0.000000
-5.791200 -3.962401 4.952999 -1.000000 -0.000000 -0.000000 -0.000000 -0.000000 1.000000 2.031250 0.800000 0 0 0 0 0.000000 0.000000 0.000000 0.000000
-5.791200 -3.962401 5.600699 -1.000000 -0.000000 -0.000000 -0.000000 -0.000000 1.000000 2.296875 0.800000 0 0 0 0 0.000000 0.000000 0.000000 0.000000
-5.791200 -3.962401 7.010399 -1.000000 -0.000000 -0.000000 -0.000000 -0.000000 1.000000 2.875000 0.800000 0 0 0 0 0.000000 0.000000 0.000000 0.000000
-5.791201 -1.524001 4.876799 -1.000000 -0.000000 -0.000000 -0.000000 -0.000000 1.000000 2.000000 0.000000 0 0 0 0 0.000000 0.000000 0.000000 0.000000
-5.791201 -1.524001 5.257800 -1.000000 -0.000000 -0.000000 -0.000000 -0.000000 1.000000 2.156250 0.000000 0 0 0 0 0.000000 0.000000 0.000000 0.000000
-5.791201 -1.524002 6.172200 -1.000000 -0.000000 -0.000000 -0.000000 -0.000000 1.000000 2.531250 0.000000 0 0 0 0 0.000000 0.000000 0.000000 0.000000
-5.791201 -1.905001 4.876799 -1.000000 -0.000000 -0.000000 -0.000000 -0.000000 1.000000 2.000000 0.125000 0 0 0 0 0.000000 0.000000 0.000000 0.000000
-5.791200 -1.905001 2.743199 -1.000000 -0.000000 -0.000000 -0.000000 -0.000000 1.000000 1.125000 0.125000 0 0 0 0 0.000000 0.000000 0.000000 0.000000
-5.791200 -1.905001 0.609599 -1.000000 -0.000000 -0.000000 -0.000000 -0.000000 1.000000 0.250000 0.125000 0 0 0 0 0.000000 0.000000 0.000000 0.000000
-5.791200 -1.524001 0.609599 -1.000000 -0.000000 -0.000000 -0.000000 -0.000000 1.000000 0.250000 0.000000 0 0 0 0 0.000000 0.000000 0.000000 0.000000
-5.791200 -3.352801 2.743199 -1.000000 -0.000000 -0.000000 -0.000000 -0.000000 1.000000 1.125000 0.600000 0 0 0 0 0.000000 0.000000 0.000000 0.000000
-5.791199 -4.572001 2.743199 -1.000000 -0.000000 -0.000000 -0.000000 0.000000 1.000000 1.125000 1.000000 0 0 0 0 0.000000 0.000000 0.000000 0.000000
-5.791199 -4.572001 0.609599 -1.000000 -0.000000 -0.000000 -0.000000 -0.000000 1.000000 0.250000 1.000000 0 0 0 0 0.000000 0.000000 0.000000 0.000000
-7.010400 -1.790701 0.533399 -1.000000 -0.000000 -0.000000 -0.000000 -0.000000 1.000000 0.218750 0.087500 0 0 0 0 0.000000 0.000000 0.000000 0.000000
-7.010400 -1.790701 0.609599 -1.000000 -0.000000 -0.000000 -0.000000 -0.000000 1.000000 0.250000 0.087500 0 0 0 0 0.000000 0.000000 0.000000 0.000000
-7.010400 -2.438401 0.609599 -1.000000 -0.000000 -0.000000 -0.000000 -0.000000 1.000000 0.250000 0.300000 0 0 0 0 0.000000 0.000000 0.000000 0.000000
-7.010400 -2.438401 0.533399 -1.000000 -0.000000 -0.000000 -0.000000 -0.000000 1.000000 0.218750 0.300000 0 0 0 0 0.000000 0.000000 0.000000 0.000000
-9.144000 -1.790701 0.533399 -1.000000 -0.000000 -0.000000 -0.000000 -0.000000 1.000000 0.218750 0.087500 0 0 0 0 0.000000 0.000000 0.000000 0.000000
-9.144000 -1.790701 0.609599 -1.000000 -0.000000 -0.000000 -0.000000 -0.000000 1.000000 0.250000 0.087500 0 0 0 0 0.000000 0.000000 0.000000 0.000000
-9.144000 -2.438401 0.609599 -1.000000 -0.000000 -0.000000 -0.000000 -0.000000 1.000000 0.250000 0.300000 0 0 0 0 0.000000 0.000000 0.000000 0.000000
-9.144000 -2.438401 0.533399 -1.000000 -0.000000 -0.000000 -0.000000 -0.000000 1.000000 0.218750 0.300000 0 0 0 0 0.000000 0.000000 0.000000 0.000000
-7.010400 -1.790701 0.533399 0.000000 -1.000000 -0.000000 1.000000 0.000000 0.000000 -2.875000 -0.675000 0 0 0 0 0.000000 0.000000 0.000000 0.000000
-8.382000 -1.790701 0.533399 0.000000 -1.000000 -0.000000 1.000000 0.000000 0.000000 -3.437500 -0.675000 0 0 0 0 0.000000 0.000000 0.000000 0.000000
-8.382000 -1.790701 0.609599 0.000000 -1.000000 -0.000000 1.000000 0.000000 0.000000 -3.437500 -0.700000 0 0 0 0 0.000000 0.000000 0.000000 0.000000
-7.010400 -1.790701 0.609599 0.000000 -1.000000 -0.000000 1.000000 0.000000 0.000000 -2.875000 -0.700000 0 0 0 0 0.000000 0.000000 0.000000 0.000000
-8.382000 -1.790701 0.609599 1.000000 0.000000 0.000000 -0.000000 -0.000000 1.000000 0.250000 0.087500 0 0 0 0 0.000000 0.000000 0.000000 0.000000
-8.382000 -1.790701 0.533399 1.000000 0.000000 0.000000 -0.000000 -0.000000 1.000000 0.218750 0.087500 0 0 0 0 0.000000 0.000000 0.000000 0.000000
-8.382000 -2.438401 0.533399 1.000000 0.000000 0.000000 -0.000000 -0.000000 1.000000 0.218750 0.300000 0 0 0 0 0.000000 0.000000 0.000000 0.000000
-8.382000 -2.438401 0.609599 1.000000 0.000000 0.000000 -0.000000 -0.000000 1.000000 0.250000 0.300000 0 0 0 0 0.000000 0.000000 0.000000 0.000000
-7.010400 -2.438401 0.533399 -0.000000 1.000000 0.000000 1.000000 0.000000 0.000000 -2.875000 -0.675000 0 0 0 0 0.000000 0.000000 0.000000 0.000000
-7.010400 -2.438401 0.609599 -0.000000 1.000000 0.000000 1.000000 0.000000 0.000000 -2.875000 -0.700000 0 0 0 0 0.000000 0.000000 0.000000 0.000000
-8.382000 -2.438401 0.609599 -0.000000 1.000000 0.000000 1.000000 0.000000 0.000000 -3.437500 -0.700000 0 0 0 0 0.000000 0.000000 0.000000 0.000000
-8.382000 -2.438401 0.533399 -0.000000 1.000000 0.000000 1.000000 0.000000 0.000000 -3.437500 -0.675000 0 0 0 0 0.000000 0.000000 0.000000 0.000000
-9.144000 -1.790701 0.533399 0.000000 -1.000000 -0.000000 1.000000 0.000000 0.000000 -3.750000 -0.675000 0 0 0 0 0.000000 0.000000 0.000000 0.000000
-10.515600 -1.790701 0.533399 0.000000 -1.000000 -0.000000 1.000000 0.000000 0.000000 -4.312500 -0.675000 0 0 0 0 0.000000 0.000000 0.000000 0.000000
-10.515600 -1.790701 0.609599 0.000000 -1.000000 -0.000000 1.000000 0.000000 0.000000 -4.312500 -0.700000 0 0 0 0 0.000000 0.000000 0.000000 0.000000
-9.144000 -1.790701 0.609599 0.000000 -1.000000 -0.000000 1.000000 0.000000 0.000000 -3.750000 -0.700000 0 0 0 0 0.000000 0.000000 0.000000 0.000000
-10.515600 -1.790701 0.609599 1.000000 0.000000 0.000000 -0.000000 -0.000000 1.000000 0.250000 0.087500 0 0 0 0 0.000000 0.000000 0.000000 0.000000
-10.515600 -1.790701 0.533399 1.000000 0.000000 0.000000 -0.000000 -0.000000 1.000000 0.218750 0.087500 0 0 0 0 0.000000 0.000000 0.000000 0.000000
-10.515600 -2.438401 0.533399 1.000000 0.000000 0.000000 -0.000000 -0.000000 1.000000 0.218750 0.300000 0 0 0 0 0.000000 0.000000 0.000000 0.000000
-10.515600 -2.438401 0.609599 1.000000 0.000000 0.000000 -0.000000 -0.000000 1.000000 0.250000 0.300000 0 0 0 0 0.000000 0.000000 0.000000 0.000000
-9.144000 -2.438401 0.533399 -0.000000 1.000000 0.000000 1.000000 0.000000 0.000000 -3.750000 -0.675000 0 0 0 0 0.000000 0.000000 0.000000 0.000000
-9.144000 -2.438401 0.609599 -0.000000 1.000000 0.000000 1.000000 0.000000 0.000000 -3.750000 -0.700000 0 0 0 0 0.000000 0.000000 0.000000 0.000000
-10.515600 -2.438401 0.609599 -0.000000 1.000000 0.000000 1.000000 0.000000 0.000000 -4.312500 -0.700000 0 0 0 0 0.000000 0.000000 0.000000 0.000000
-10.515600 -2.438401 0.533399 -0.000000 1.000000 0.000000 1.000000 0.000000 0.000000 -4.312500 -0.675000 0 0 0 0 0.000000 0.000000 0.000000 0.000000
-7.467599 -3.962400 0.304799 -0.707107 -0.000000 0.707106 0.707106 -0.000000 0.707107 0.125000 0.800000 0 0 0 0 0.000000 0.000000 0.000000 0.000000
-7.467600 -2.743201 0.304799 -0.707107 -0.000000 0.707106 0.707106 -0.000000 0.707107 0.125000 0.400000 0 0 0 0 0.000000 0.000000 0.000000 0.000000
-7.391400 -2.743201 0.380999 -0.707107 -0.000000 0.707106 0.707106 -0.000000 0.707107 0.156250 0.400000 0 0 0 0 0.000000 0.000000 0.000000 0.000000
-7.239000 -2.743201 0.533399 -0.707107 -0.000000 0.707106 0.707106 -0.000000 0.707107 0.218750 0.400000 0 0 0 0 0.000000 0.000000 0.000000 0.000000
-7.162800 -2.743201 0.609599 -0.707107 -0.000000 0.707106 0.707106 -0.000000 0.707107 0.250000 0.400000 0 0 0 0 0.000000 0.000000 0.000000 0.000000
-7.162799 -3.962400 0.609599 -0.707107 -0.000000 0.707106 0.707106 -0.000000 0.707107 0.250000 0.800000 0 0 0 0 0.000000 0.000000 0.000000 0.000000
-3.048000 -1.524000 -3.543301 -1.000000 -0.000000 -0.000000 -0.000000 -0.000000 1.000000 -1.953125 0.150000 0 0 0 0 0.000000 0.000000 0.000000 0.000000
-3.048000 -1.524000 -1.676401 -1.000000 -0.000000 -0.000000 -0.000000 -0.000000 1.000000 -1.187500 0.150000 0 0 0 0 0.000000 0.000000 0.000000 0.000000
-3.048000 -4.114800 -1.676401 -1.000000 -0.000000 -0.000000 -0.000000 -0.000000 1.000000 -1.187500 1.000000 0 0 0 0 0.000000 0.000000 0.000000 0.000000
-3.048000 -4.114799 -3.543301 -1.000000 -0.000000 -0.000000 -0.000000 -0.000000 1.000000 -1.953125 1.000000 0 0 0 0 0.000000 0.000000 0.000000 0.000000
-3.048000 -1.066800 -3.543301 -1.000000 -0.000000 -0.000000 -0.000000 -0.000000 1.000000 -1.953125 0.000000 0 0 0 0 0.000000 0.000000 0.000000 0.000000
-3.048000 -1.066800 -1.219200 -1.000000 -0.000000 -0.000000 -0.000000 -0.000000 1.000000 -1.000000 0.000000 0 0 0 0 0.000000 0.000000 0.000000 0.000000
-3.048000 -1.524000 -1.219200 -1.000000 -0.000000 -0.000000 -0.000000 -0.000000 1.000000 -1.000000 0.150000 0 0 0 0 0.000000 0.000000 0.000000 0.000000
-4.267200 -1.524000 -1.219201 0.000000 0.000000 -1.000000 1.000000 0.000000 0.000000 -1.750000 0.156250 0 0 0 0 0.000000 0.000000 0.000000 0.000000
-3.048000 -1.524000 -1.219200 0.000000 0.000000 -1.000000 1.000000 0.000000 0.000000 -1.250000 0.156250 0 0 0 0 0.000000 0.000000 0.000000 0.000000
-3.048000 -1.066800 -1.219200 0.000000 0.000000 -1.000000 1.000000 0.000000 0.000000 -1.250000 0.006250 0 0 0 0 0.000000 0.000000 0.000000 0.000000
-4.267200 -1.066800 -1.219200 0.000000 0.000000 -1.000000 1.000000 0.000000 0.000000 -1.750000 0.006250 0 0 0 0 0.000000 0.000000 0.000000 0.000000
-8.534400 -1.524001 -1.219201 0.000000 0.000000 -1.000000 1.000000 0.000000 0.000000 -3.500000 0.156250 0 0 0 0 0.000000 0.000000 0.000000 0.000000
-8.534400 -1.066800 -1.219201 0.000000 0.000000 -1.000000 1.000000 0.000000 0.000000 -3.500000 0.006250 0 0 0 0 0.000000 0.000000 0.000000 0.000000
-10.629900 -4.114800 -1.219202 0.000000 0.000000 -1.000000 1.000000 0.000000 0.000000 -4.359375 1.006250 0 0 0 0 0.000000 0.000000 0.000000 0.000000
-8.839199 -4.114800 -1.219201 0.000000 0.000000 -1.000000 1.000000 -0.000000 0.000000 -3.625000 1.006250 0 0 0 0 0.000000 0.000000 0.000000 0.000000
-8.839200 -1.066801 -1.219201 0.000000 0.000000 -1.000000 1.000000 0.000000 0.000000 -3.625000 0.006250 0 0 0 0 0.000000 0.000000 0.000000 0.000000
-10.629900 -1.066801 -1.219201 0.000000 0.000000 -1.000000 1.000000 0.000000 0.000000 -4.359375 0.006250 0 0 0 0 0.000000 0.000000 0.000000 0.000000
-8.839198 -4.114800 -3.543302 -1.000000 -0.000000 -0.000000 -0.000000 -0.000000 1.000000 -1.453125 1.006250 0 0 0 0 0.000000 0.000000 0.000000 0.000000
-8.839199 -1.066800 -3.543301 -1.000000 -0.000000 -0.000000 -0.000000 -0.000000 1.000000 -1.453125 0.006250 0 0 0 0 0.000000 0.000000 0.000000 0.000000
-8.839200 -1.066800 -2.286001 -1.000000 -0.000000 -0.000000 -0.000000 -0.000000 1.000000 -0.937500 0.006250 0 0 0 0 0.000000 0.000000 0.000000 0.000000
-8.839200 -1.066800 -1.371601 -1.000000 -0.000000 -0.000000 -0.000000 -0.000000 1.000000 -0.562500 0.006250 0 0 0 0 0.000000 0.000000 0.000000 0.000000
-8.839200 -1.066801 -1.219201 -1.000000 -0.000000 -0.000000 -0.000000 -0.000000 1.000000 -0.500000 0.006250 0 0 0 0 0.000000 0.000000 0.000000 0.000000
-8.839199 -4.114800 -1.219201 -1.000000 -0.000000 -0.000000 -0.000000 -0.000000 1.000000 -0.500000 1.006250 0 0 0 0 0.000000 0.000000 0.000000 0.000000
-3.048000 -1.524000 -3.810000 -1.000000 -0.000000 -0.000000 -0.000000 -0.000000 1.000000 -2.062500 0.150000 0 0 0 0 0.000000 0.000000 0.000000 0.000000
-3.048000 -1.524000 -4.267200 -1.000000 -0.000000 -0.000000 -0.000000 -0.000000 1.000000 -2.250000 0.150000 0 0 0 0 0.000000 0.000000 0.000000 0.000000
-3.048000 -1.523999 -5.943600 -1.000000 -0.000000 -0.000000 -0.000000 -0.000000 1.000000 -2.937500 0.150000 0 0 0 0 0.000000 0.000000 0.000000 0.000000
-3.048000 -1.066799 -5.943600 -1.000000 -0.000000 -0.000000 -0.000000 -0.000000 1.000000 -2.937500 0.000000 0 0 0 0 0.000000 0.000000 0.000000 0.000000
-3.048000 -4.114799 -4.267201 -1.000000 -0.000000 -0.000000 -0.000000 -0.000000 1.000000 -2.250000 1.000000 0 0 0 0 0.000000 0.000000 0.000000 0.000000
-3.047999 -4.114799 -5.943601 -1.000000 -0.000000 -0.000000 -0.000000 -0.000000 1.000000 -2.937500 1.000000 0 0 0 0 0.000000 0.000000 0.000000 0.000000
-3.048000 -4.114799 -3.810001 -1.000000 -0.000000 -0.000000 -0.000000 -0.000000 1.000000 -2.062500 1.000000 0 0 0 0 0.000000 0.000000 0.000000 0.000000
-8.839199 -3.352800 -5.867401 -1.000000 -0.000000 -0.000000 -0.000000 -0.000000 1.000000 -2.406250 0.756250 0 0 0 0 0.000000 0.000000 0.000000 0.000000
-8.839199 -1.676400 -5.867400 -1.000000 -0.000000 -0.000000 -0.000000 -0.000000 1.000000 -2.406250 0.206250 0 0 0 0 0.000000 0.000000 0.000000 0.000000
-8.839199 -1.676400 -5.715001 -1.000000 -0.000000 -0.000000 -0.000000 -0.000000 1.000000 -2.343750 0.206250 0 0 0 0 0.000000 0.000000 0.000000 0.000000
-8.839199 -3.352800 -5.715001 -1.000000 -0.000000 -0.000000 -0.000000 -0.000000 1.000000 -2.343750 0.756250 0 0 0 0 0.000000 0.000000 0.000000 0.000000
-8.839199 -1.676399 -7.315200 -1.000000 -0.000000 -0.000000 -0.000000 -0.000000 1.000000 -3.000000 0.206250 0 0 0 0 0.000000 0.000000 0.000000 0.000000
-8.839199 -1.066800 -7.315200 -1.000000 -0.000000 -0.000000 -0.000000 -0.000000 1.000000 -3.000000 0.006250 0 0 0 0 0.000000 0.000000 0.000000 0.000000
-8.839199 -1.066800 -7.010401 -1.000000 -0.000000 -0.000000 -0.000000 -0.000000 1.000000 -2.875000 0.006250 0 0 0 0 0.000000 0.000000 0.000000 0.000000
-8.839199 -1.066800 -4.267201 -1.000000 -0.000000 -0.000000 -0.000000 0.000000 1.000000 -1.750000 0.006250 0 0 0 0 0.000000 0.000000 0.000000 0.000000
-8.839199 -1.676400 -4.267201 -1.000000 -0.000000 -0.000000 -0.000000 -0.000000 1.000000 -1.750000 0.206250 0 0 0 0 0.000000 0.000000 0.000000 0.000000
-8.839199 -1.676400 -5.867400 -1.000000 -0.000000 -0.000000 -0.000000 -0.000000 1.000000 -2.406250 0.206250 0 0 0 0 0.000000 0.000000 0.000000 0.000000
-8.839198 -4.114799 -7.315201 -1.000000 -0.000000 -0.000000 -0.000000 -0.000000 1.000000 -3.000000 1.006250 0 0 0 0 0.000000 0.000000 0.000000 0.000000
-8.839199 -3.352800 -7.315201 -1.000000 -0.000000 -0.000000 -0.000000 -0.000000 1.000000 -3.000000 0.756250 0 0 0 0 0.000000 0.000000 0.000000 0.000000
-8.839199 -3.352800 -4.267201 -1.000000 -0.000000 -0.000000 -0.000000 -0.000000 1.000000 -1.750000 0.756250 0 0 0 0 0.000000 0.000000 0.000000 0.000000
-8.839198 -4.114800 -4.267201 -1.000000 -0.000000 -0.000000 -0.000000 -0.000000 1.000000 -1.750000 1.006250 0 0 0 0 0.000000 0.000000 0.000000 0.000000
-8.839198 -4.114800 -5.355718 -1.000000 -0.000000 -0.000000 -0.000000 -0.000000 1.000000 -2.196406 1.006250 0 0 0 0 0.000000 0.000000 0.000000 0.000000
-8.839199 -1.066799 -8.229601 -1.000000 -0.000000 -0.000000 -0.000000 -0.000000 1.000000 -3.375000 0.006250 0 0 0 0 0.000000 0.000000 0.000000 0.000000
-8.839199 -1.676399 -8.229601 -1.000000 -0.000000 -0.000000 -0.000000 -0.000000 1.000000 -3.375000 0.206250 0 0 0 0 0.000000 0.000000 0.000000 0.000000
-8.839199 -1.676399 -8.534400 -1.000000 -0.000000 -0.000000 -0.000000 -0.000000 1.000000 -3.500000 0.206250 0 0 0 0 0.000000 0.000000 0.000000 0.000000
-8.839199 -1.676399 -9.753600 -1.000000 -0.000000 -0.000000 -0.000000 -0.000000 1.000000 -4.000000 0.206250 0 0 0 0 0.000000 0.000000 0.000000 0.000000
-8.839199 -1.676399 -10.058401 -1.000000 -0.000000 -0.000000 -0.000000 -0.000000 1.000000 -4.125000 0.206250 0 0 0 0 0.000000 0.000000 0.000000 0.000000
-8.839199 -1.066799 -10.058401 -1.000000 -0.000000 -0.000000 -0.000000 -0.000000 1.000000 -4.125000 0.006250 0 0 0 0 0.000000 0.000000 0.000000 0.000000
-8.839199 -1.066799 -9.829801 -1.000000 -0.000000 -0.000000 0.000000 0.000000 -1.000000 -4.031250 0.006250 0 0 0 0 0.000000 0.000000 0.000000 0.000000
-8.839198 -4.114799 -14.097002 -1.000000 -0.000000 0.000000 0.000000 -0.000000 1.000000 -5.781250 1.006250 0 0 0 0 0.000000 0.000000 0.000000 0.000000
-8.839198 -1.066798 -14.097000 -1.000000 -0.000000 0.000000 0.000000 -0.000000 1.000000 -5.781250 0.006250 0 0 0 0 0.000000 0.000000 0.000000 0.000000
-8.839198 -4.114799 -10.058401 -1.000000 -0.000000 0.000000 0.000000 -0.000000 1.000000 -4.125000 1.006250 0 0 0 0 0.000000 0.000000 0.000000 0.000000
-8.839198 -4.114799 -8.229601 -1.000000 -0.000000 -0.000000 0.000000 -1.000000 -0.000000 -3.375000 1.006250 0 0 0 0 0.000000 0.000000 0.000000 0.000000
-8.839199 -1.676399 -8.229601 -1.000000 -0.000000 -0.000000 0.000000 -1.000000 -0.000000 -3.375000 0.206250 0 0 0 0 0.000000 0.000000 0.000000 0.000000
-8.839199 -1.066799 -8.229601 -1.000000 -0.000000 -0.000000 0.000000 -1.000000 -0.000000 -3.375000 0.006250 0 0 0 0 0.000000 0.000000 0.000000 0.000000
-8.839199 -1.066799 -7.924800 -1.000000 -0.000000 -0.000000 -0.000000 -0.000000 1.000000 -3.250000 0.006250 0 0 0 0 0.000000 0.000000 0.000000 0.000000
-8.839198 -4.114798 -17.373602 -1.000000 -0.000000 -0.000000 -0.000000 -0.000000 1.000000 -7.125000 1.006250 0 0 0 0 0.000000 0.000000 0.000000 0.000000
-8.839197 -4.114798 -17.678402 -1.000000 -0.000000 -0.000000 -0.000000 0.000000 1.000000 -7.250000 1.006250 0 0 0 0 0.000000 0.000000 0.000000 0.000000
-8.839198 -1.066798 -17.678400 -1.000000 -0.000000 -0.000000 -0.000000 -0.000000 1.000000 -7.250000 0.006250 0 0 0 0 0.000000 0.000000 0.000000 0.000000
-8.839197 -4.114798 -17.678402 -0.000000 -0.000000 1.000000 1.000000 -0.000000 0.000000 -3.625000 1.006250 0 0 0 0 0.000000 0.000000 0.000000 0.000000
-10.210797 -4.114798 -17.678402 -0.000000 -0.000000 1.000000 1.000000 -0.000000 0.000000 -4.187500 1.006250 0 0 0 0 0.000000 0.000000 0.000000 0.000000
-10.210798 -2.895598 -17.678400 -0.000000 -0.000000 1.000000 1.000000 -0.000000 0.000000 -4.187500 0.606250 0 0 0 0 0.000000 0.000000 0.000000 0.000000
-10.210798 -1.066798 -17.678400 -0.000000 -0.000000 1.000000 1.000000 -0.000000 0.000000 -4.187500 0.006250 0 0 0 0 0.000000 0.000000 0.000000 0.000000
-8.839198 -1.066798 -17.678400 -0.000000 -0.000000 1.000000 1.000000 0.000000 0.000000 -3.625000 0.006250 0 0 0 0 0.000000 0.000000 0.000000 0.000000
-17.373600 -4.572004 13.868398 -0.000000 -0.000000 1.000000 1.000000 -0.000000 0.000000 -6.992188 1.000000 0 0 0 0 0.000000 0.000000 0.000000 0.000000
-17.373600 -1.524004 13.868400 -0.000000 -0.000000 1.000000 1.000000 -0.000000 0.000000 -6.992188 0.000000 0 0 0 0 0.000000 0.000000 0.000000 0.000000
-14.935201 -1.524004 13.868400 -0.000000 -0.000000 1.000000 1.000000 0.000000 0.000000 -5.992188 0.000000 0 0 0 0 0.000000 0.000000 0.000000 0.000000
-14.935201 -4.572004 13.868398 -0.000000 -0.000000 1.000000 1.000000 -0.000000 0.000000 -5.992188 1.000000 0 0 0 0 0.000000 0.000000 0.000000 0.000000
-17.373600 -1.524004 13.866113 -0.269630 -0.000000 0.962964 0.962964 -0.000000 0.269630 -6.992188 0.000000 0 0 0 0 0.000000 0.000000 0.000000 0.000000
-17.373600 -4.572004 13.866112 -0.269630 -0.000000 0.962964 0.962964 -0.000000 0.269630 -6.992188 1.000000 0 0 0 0 0.000000 0.000000 0.000000 0.000000
-18.249903 -4.572004 13.620748 -0.269630 -0.000000 0.962964 0.962964 -0.000000 0.269630 -7.351562 1.000000 0 0 0 0 0.000000 0.000000 0.000000 0.000000
-18.249903 -1.524004 13.620749 -0.269630 -0.000000 0.962964 0.962964 -0.000000 0.269630 -7.351562 0.000000 0 0 0 0 0.000000 0.000000 0.000000 0.000000
-18.954750 -1.524004 12.896849 -0.971211 -0.000000 0.238221 0.238221 -0.000000 0.971211 5.289062 0.000000 0 0 0 0 0.000000 0.000000 0.000000 0.000000
-18.954750 -4.572004 12.896848 -0.971211 -0.000000 0.238221 0.238221 -0.000000 0.971211 5.289062 1.000000 0 0 0 0 0.000000 0.000000 0.000000 0.000000
-19.202400 -4.572004 11.887198 -0.971211 -0.000000 0.238221 0.238221 -0.000000 0.971211 4.875000 1.000000 0 0 0 0 0.000000 0.000000 0.000000 0.000000
-19.202400 -1.524004 11.887199 -0.971211 -0.000000 0.238221 0.238221 -0.000000 0.971211 4.875000 0.000000 0 0 0 0 0.000000 0.000000 0.000000 0.000000
-18.249903 -1.524004 13.620749 -0.716472 -0.000000 0.697616 0.697616 0.000000 0.716472 5.585938 0.000000 0 0 0 0 0.000000 0.000000 0.000000 0.000000
-18.249903 -4.572004 13.620748 -0.716472 -0.000000 0.697616 0.697616 0.000000 0.716472 5.585938 1.000000 0 0 0 0 0.000000 0.000000 0.000000 0.000000
-18.954750 -4.572004 12.896848 -0.716472 -0.000000 0.697616 0.697616 0.000000 0.716472 5.289062 1.000000 0 0 0 0 0.000000 0.000000 0.000000 0.000000
-18.954750 -1.524004 12.896849 -0.716472 -0.000000 0.697616 0.697616 0.000000 0.716472 5.289062 0.000000 0 0 0 0 0.000000 0.000000 0.000000 0.000000
-17.373600 -1.524003 7.315198 1.000000 0.000000 0.000000 -0.000000 -0.000000 1.000000 3.000000 0.000000 0 0 0 0 0.000000 0.000000 0.000000 0.000000
-17.373600 -4.572003 7.315197 1.000000 0.000000 0.000000 -0.000000 -0.000000 1.000000 3.000000 1.000000 0 0 0 0 0.000000 0.000000 0.000000 0.000000
-17.373600 -4.572003 7.696198 1.000000 0.000000 0.000000 -0.000000 -0.000000 1.000000 3.156250 1.000000 0 0 0 0 0.000000 0.000000 0.000000 0.000000
-17.373600 -4.572003 11.582397 1.000000 0.000000 0.000000 -0.000000 -0.000000 1.000000 4.750000 1.000000 0 0 0 0 0.000000 0.000000 0.000000 0.000000
-17.373600 -1.524003 11.582398 1.000000 0.000000 0.000000 -0.000000 -0.000000 1.000000 4.750000 0.000000 0 0 0 0 0.000000 0.000000 0.000000 0.000000
-11.582401 -1.905003 11.582398 0.000000 0.000000 -1.000000 1.000000 0.000000 0.000000 -4.750000 0.125000 0 0 0 0 0.000000 0.000000 0.000000 0.000000
-10.629901 -1.905003 11.582398 0.000000 0.000000 -1.000000 1.000000 0.000000 0.000000 -4.359375 0.125000 0 0 0 0 0.000000 0.000000 0.000000 0.000000
-11.582401 -1.524003 11.582398 0.000000 0.000000 -1.000000 1.000000 0.000000 0.000000 -4.750000 0.000000 0 0 0 0 0.000000 0.000000 0.000000 0.000000
-13.106401 -1.524003 11.582398 0.000000 0.000001 -1.000000 1.000000 0.000000 0.000000 -5.375000 0.000000 0 0 0 0 0.000000 0.000000 0.000000 0.000000
-15.849601 -1.524003 11.582398 0.000000 0.000001 -1.000000 1.000000 0.000000 0.000000 -6.500000 0.000000 0 0 0 0 0.000000 0.000000 0.000000 0.000000
-15.849601 -1.905003 11.582398 0.000000 0.000001 -1.000000 1.000000 0.000000 0.000000 -6.500000 0.125000 0 0 0 0 0.000000 0.000000 0.000000 0.000000
-17.373600 -1.524003 11.582398 0.000000 0.000000 -1.000000 1.000000 0.000000 0.000000 -7.125000 0.000000 0 0 0 0 0.000000 0.000000 0.000000 0.000000
-17.373600 -4.572003 11.582397 0.000000 0.000000 -1.000000 1.000000 0.000000 0.000000 -7.125000 1.000000 0 0 0 0 0.000000 0.000000 0.000000 0.000000
-15.849601 -4.572003 11.582397 0.000000 0.000000 -1.000000 1.000000 -0.000000 0.000000 -6.500000 1.000000 0 0 0 0 0.000000 0.000000 0.000000 0.000000
-15.849601 -3.352803 11.582398 0.000000 0.000000 -1.000000 1.000000 0.000000 0.000000 -6.500000 0.600000 0 0 0 0 0.000000 0.000000 0.000000 0.000000
-15.849601 -1.905003 11.582398 0.000000 0.000000 -1.000000 0.000000 -1.000000 -0.000000 -6.500000 0.125000 0 0 0 0 0.000000 0.000000 0.000000 0.000000
-11.430001 -2.209803 11.582398 0.000000 0.000000 -1.000000 1.000000 0.000000 0.000000 -4.687500 0.225000 0 0 0 0 0.000000 0.000000 0.000000 0.000000
-11.430001 -4.572003 11.582397 0.000000 0.000000 -1.000000 1.000000 0.000000 0.000000 -4.687500 1.000000 0 0 0 0 0.000000 0.000000 0.000000 0.000000
-15.697201 -2.209803 11.582398 0.000000 0.000000 -1.000000 1.000000 0.000000 0.000000 -6.437500 0.225000 0 0 0 0 0.000000 0.000000 0.000000 0.000000
-15.697201 -3.962403 11.582397 0.000000 0.000000 -1.000000 1.000000 0.000000 0.000000 -6.437500 0.800000 0 0 0 0 0.000000 0.000000 0.000000 0.000000
-15.697201 -4.114803 11.582397 0.000000 0.000000 -1.000000 1.000000 -0.000001 0.000000 -6.437500 0.850000 0 0 0 0 0.000000 0.000000 0.000000 0.000000
-15.697201 -4.572003 11.582397 0.000000 0.000000 -1.000000 1.000000 0.000000 0.000000 -6.437500 1.000000 0 0 0 0 0.000000 0.000000 0.000000 0.000000
-17.373600 -1.524003 7.010399 1.000000 0.000000 0.000000 -0.000000 -0.000001 1.000000 2.875000 0.000000 0 0 0 0 0.000000 0.000000 0.000000 0.000000
-17.373600 -4.572003 7.010398 1.000000 0.000000 0.000000 -0.000000 -0.000000 1.000000 2.875000 1.000000 0 0 0 0 0.000000 0.000000 0.000000 0.000000
-17.373600 -4.572002 5.181598 1.000000 0.000000 0.000000 -0.000000 -0.000000 1.000000 2.125000 1.000000 0 0 0 0 0.000000 0.000000 0.000000 0.000000
-17.373600 -1.524002 5.181599 1.000000 0.000000 0.000000 -0.000000 -0.000000 1.000000 2.125000 0.000000 0 0 0 0 0.000000 0.000000 0.000000 0.000000
-17.373600 -1.524002 4.876798 1.000000 0.000000 0.000000 -0.000000 -0.000000 1.000000 2.000000 0.000000 0 0 0 0 0.000000 0.000000 0.000000 0.000000
-17.373600 -1.524002 0.609598 1.000000 0.000000 0.000000 -0.000000 -0.000000 1.000000 0.250000 0.000000 0 0 0 0 0.000000 0.000000 0.000000 0.000000
-17.373600 -4.572001 0.609598 1.000000 0.000000 0.000000 -0.000000 -0.000000 1.000000 0.250000 1.000000 0 0 0 0 0.000000 0.000000 0.000000 0.000000
-17.373600 -4.572002 3.581398 1.000000 0.000000 0.000000 0.000000 0.000000 -1.000000 1.468750 1.000000 0 0 0 0 0.000000 0.000000 0.000000 0.000000
-17.373600 -4.572002 4.343398 1.000000 0.000000 0.000000 -0.000000 -0.000000 1.000000 1.781250 1.000000 0 0 0 0 0.000000 0.000000 0.000000 0.000000
-17.221201 -1.600202 0.609598 -0.000000 -0.000000 1.000000 1.000000 0.000000 0.000000 -7.062500 0.025000 0 0 0 0 0.000000 0.000000 0.000000 0.000000
-17.221201 -1.524002 0.609598 -0.000000 -0.000000 1.000000 1.000000 0.000000 0.000000 -7.062500 0.000000 0 0 0 0 0.000000 0.000000 0.000000 0.000000
-16.002001 -1.524002 0.609598 -0.000000 -0.000000 1.000000 1.000000 0.000000 0.000000 -6.562500 0.000000 0 0 0 0 0.000000 0.000000 0.000000 0.000000
-16.002001 -1.600201 0.609598 -0.000000 -0.000000 1.000000 1.000000 0.000000 0.000000 -6.562500 0.025000 0 0 0 0 0.000000 0.000000 0.000000 0.000000
-17.221201 -2.743201 0.609598 -0.000000 -0.000000 1.000000 1.000000 -0.000000 0.000000 -7.062500 0.400000 0 0 0 0 0.000000 0.000000 0.000000 0.000000
-17.221201 -2.514602 0.609598 -0.000000 -0.000000 1.000000 1.000000 -0.000000 0.000000 -7.062500 0.325000 0 0 0 0 0.000000 0.000000 0.000000 0.000000
-16.002001 -2.514601 0.609598 -0.000000 -0.000000 1.000000 1.000000 0.000000 0.000000 -6.562500 0.325000 0 0 0 0 0.000000 0.000000 0.000000 0.000000
-16.002001 -2.743201 0.609598 -0.000000 -0.000000 1.000000 1.000000 -0.000000 0.000000 -6.562500 0.400000 0 0 0 0 0.000000 0.000000 0.000000 0.000000
-17.221201 -3.962401 0.609598 -0.000000 -0.000000 1.000000 1.000000 0.000000 0.000000 -7.062500 0.800000 0 0 0 0 0.000000 0.000000 0.000000 0.000000
-15.811500 -2.743201 0.609598 -0.000000 -0.000000 1.000000 1.000000 0.000000 0.000000 -6.484375 0.400000 0 0 0 0 0.000000 0.000000 0.000000 0.000000
-15.811500 -3.962401 0.609598 -0.000000 -0.000000 1.000000 1.000000 -0.000000 0.000000 -6.484375 0.800000 0 0 0 0 0.000000 0.000000 0.000000 0.000000
-12.954000 -4.572001 0.609598 -0.000000 -0.000000 1.000000 1.000000 0.000000 0.000000 -5.312500 1.000000 0 0 0 0 0.000000 0.000000 0.000000 0.000000
-12.954000 -3.962401 0.609598 -0.000000 -0.000000 1.000000 1.000000 0.000000 0.000000 -5.312500 0.800000 0 0 0 0 0.000000 0.000000 0.000000 0.000000
-11.544300 -3.962401 0.609598 -0.000000 -0.000000 1.000000 1.000000 0.000000 0.000000 -4.734375 0.800000 0 0 0 0 0.000000 0.000000 0.000000 0.000000
-12.954000 -4.572001 0.609598 -0.000000 -0.000000 1.000000 1.000000 0.000000 0.000000 -5.312500 1.000000 0 0 0 0 0.000000 0.000000 0.000000 0.000000
-13.106400 -4.572001 0.609598 -0.000000 -0.000000 1.000000 1.000000 0.000000 0.000000 -5.375000 1.000000 0 0 0 0 0.000000 0.000000 0.000000 0.000000
-17.221201 -4.572001 0.609598 -0.000000 -0.000000 1.000000 1.000000 0.000000 0.000000 -7.062500 1.000000 0 0 0 0 0.000000 0.000000 0.000000 0.000000
-13.677900 -3.962401 0.609598 -0.000000 -0.000000 1.000000 1.000000 0.000000 0.000000 -5.609375 0.800000 0 0 0 0 0.000000 0.000000 0.000000 0.000000
-11.277600 -2.438401 0.609599 -0.000000 -0.000000 1.000000 1.000000 0.000000 0.000000 -4.625000 0.300000 0 0 0 0 0.000000 0.000000 0.000000 0.000000
-11.277600 -1.790701 0.609599 -0.000000 -0.000000 1.000000 1.000000 0.000000 0.000000 -4.625000 0.087500 0 0 0 0 0.000000 0.000000 0.000000 0.000000
-12.649200 -1.790701 0.609599 -0.000000 -0.000000 1.000000 1.000000 0.000000 0.000000 -5.187500 0.087500 0 0 0 0 0.000000 0.000000 0.000000 0.000000
-12.649200 -2.438401 0.609599 -0.000000 -0.000000 1.000000 1.000000 0.000000 0.000000 -5.187500 0.300000 0 0 0 0 0.000000 0.000000 0.000000 0.000000
-13.411200 -2.438401 0.609598 -0.000000 -0.000000 1.000000 1.000000 0.000000 0.000000 -5.500000 0.300000 0 0 0 0 0.000000 0.000000 0.000000 0.000000
-13.411200 -1.790701 0.609599 -0.000000 -0.000000 1.000000 1.000000 0.000000 0.000000 -5.500000 0.087500 0 0 0 0 0.000000 0.000000 0.000000 0.000000
-10.629900 -2.743201 0.609599 -0.000000 -0.000000 1.000000 1.000000 0.000000 0.000000 -4.359375 0.400000 0 0 0 0 0.000000 0.000000 0.000000 0.000000
-12.649200 -2.743201 0.609598 -0.000000 -0.000000 1.000000 1.000000 0.000000 0.000000 -5.187500 0.400000 0 0 0 0 0.000000 0.000000 0.000000 0.000000
-14.782800 -2.743201 0.609598 -0.000000 -0.000000 1.000000 1.000000 0.000000 0.000000 -6.062500 0.400000 0 0 0 0 0.000000 0.000000 0.000000 0.000000
-14.782800 -2.438401 0.609598 -0.000000 -0.000000 1.000000 1.000000 0.000000 0.000000 -6.062500 0.300000 0 0 0 0 0.000000 0.000000 0.000000 0.000000
-14.782800 -1.790701 0.609598 -0.000000 -0.000000 1.000000 1.000000 -0.000000 0.000000 -6.062500 0.087500 0 0 0 0 0.000000 0.000000 0.000000 0.000000
-14.782800 -1.524001 0.609598 -0.000000 -0.000000 1.000000 1.000000 0.000000 0.000000 -6.062500 0.000000 0 0 0 0 0.000000 0.000000 0.000000 0.000000
-13.106400 -1.524001 0.609599 -0.000000 -0.000000 1.000000 1.000000 0.000000 0.000000 -5.375000 0.000000 0 0 0 0 0.000000 0.000000 0.000000 0.000000
-14.782800 -2.743201 0.609598 -0.000000 -0.000000 1.000000 1.000000 0.000000 0.000000 -6.062500 0.400000 0 0 0 0 0.000000 0.000000 0.000000 0.000000
-15.811500 -2.743201 0.609598 -0.000000 -0.000000 1.000000 1.000000 0.000000 0.000000 -6.484375 0.400000 0 0 0 0 0.000000 0.000000 0.000000 0.000000
-17.373600 -1.524001 -1.219202 0.000000 0.000000 -1.000000 0.000000 1.000000 0.000000 -7.125000 0.000000 0 0 0 0 0.000000 0.000000 0.000000 0.000000
-17.373600 -3.352801 -1.219202 0.000000 0.000000 -1.000000 0.000000 1.000000 0.000000 -7.125000 0.600000 0 0 0 0 0.000000 0.000000 0.000000 0.000000
-17.373600 -4.114801 -1.219202 0.000000 0.000000 -1.000000 0.000000 1.000000 0.000000 -7.125000 0.850000 0 0 0 0 0.000000 0.000000 0.000000 0.000000
-17.221201 -4.114801 -1.219202 0.000000 0.000000 -1.000000 1.000000 -0.000000 0.000000 -7.062500 0.850000 0 0 0 0 0.000000 0.000000 0.000000 0.000000
-17.221201 -2.514601 -1.219202 0.000000 0.000000 -1.000000 1.000000 -0.000001 0.000000 -7.062500 0.325000 0 0 0 0 0.000000 0.000000 0.000000 0.000000
-17.221201 -1.600201 -1.219202 0.000000 0.000000 -1.000000 1.000000 -0.000000 0.000000 -7.062500 0.025000 0 0 0 0 0.000000 0.000000 0.000000 0.000000
-17.221201 -1.524001 -1.219202 0.000000 0.000000 -1.000000 1.000000 0.000000 0.000000 -7.062500 0.000000 0 0 0 0 0.000000 0.000000 0.000000 0.000000
-14.630399 -4.114801 -1.219202 0.000000 0.000000 -1.000000 1.000000 0.000000 0.000000 -6.000000 1.006250 0 0 0 0 0.000000 0.000000 0.000000 0.000000
-14.630399 -1.066801 -1.219201 0.000000 0.000000 -1.000000 1.000000 0.000000 0.000000 -6.000000 0.006250 0 0 0 0 0.000000 0.000000 0.000000 0.000000
-14.630399 -1.524001 -1.219201 0.000000 0.000000 -1.000000 0.000000 1.000000 0.000000 -6.000000 0.156250 0 0 0 0 0.000000 0.000000 0.000000 0.000000
-16.021049 -1.524001 -1.219202 0.000000 0.000000 -1.000000 1.000000 0.000000 0.000000 -6.570312 0.000000 0 0 0 0 0.000000 0.000000 0.000000 0.000000
-16.021049 -1.600201 -1.219202 0.000000 0.000000 -1.000000 1.000000 0.000000 0.000000 -6.570312 0.025000 0 0 0 0 0.000000 0.000000 0.000000 0.000000
-15.087600 -4.114801 -1.219202 0.000000 0.000000 -1.000000 1.000000 0.000000 0.000000 -6.187500 0.850000 0 0 0 0 0.000000 0.000000 0.000000 0.000000
-15.087600 -2.514601 -1.219202 0.000000 0.000000 -1.000000 1.000000 0.000000 0.000000 -6.187500 0.325000 0 0 0 0 0.000000 0.000000 0.000000 0.000000
-16.021049 -2.514601 -1.219202 0.000000 0.000000 -1.000000 1.000000 0.000000 0.000000 -6.570312 0.325000 0 0 0 0 0.000000 0.000000 0.000000 0.000000
-15.087600 -1.524001 -1.219201 0.000000 0.000000 -1.000000 1.000000 0.000000 0.000000 -6.187500 0.000000 0 0 0 0 0.000000 0.000000 0.000000 0.000000
-17.221201 -1.600201 0.304798 0.000000 -1.000000 -0.000000 1.000000 0.000000 0.000000 -7.062500 -0.600000 0 0 0 0 0.000000 0.000000 0.000000 0.000000
-17.221201 -1.600201 0.533398 0.000000 -1.000000 -0.000000 1.000000 0.000000 0.000000 -7.062500 -0.675000 0 0 0 0 0.000000 0.000000 0.000000 0.000000
-16.002001 -1.600201 0.533398 0.000000 -1.000000 -0.000000 1.000000 0.000000 0.000000 -6.562500 -0.675000 0 0 0 0 0.000000 0.000000 0.000000 0.000000
-16.002001 -1.600201 0.304798 0.000000 -1.000000 -0.000000 1.000000 0.000000 -0.000000 -6.562500 -0.600000 0 0 0 0 0.000000 0.000000 0.000000 0.000000
-16.021049 -1.600201 0.304798 0.000000 -1.000000 -0.000000 1.000000 0.000000 0.000000 -6.570312 -0.600000 0 0 0 0 0.000000 0.000000 0.000000 0.000000
-16.021049 -1.600201 -1.219202 0.000000 -1.000000 -0.000000 1.000000 0.000000 0.000000 -6.570312 -0.100000 0 0 0 0 0.000000 0.000000 0.000000 0.000000
-17.221201 -1.600201 -1.219202 0.000000 -1.000000 -0.000000 1.000000 0.000000 0.000000 -7.062500 -0.100000 0 0 0 0 0.000000 0.000000 0.000000 0.000000
-16.002001 -1.600201 0.533398 -1.000000 -0.000000 -0.000000 -0.000000 -0.000001 1.000000 0.218750 0.025000 0 0 0 0 0.000000 0.000000 0.000000 0.000000
-16.002001 -2.514601 0.533398 -1.000000 -0.000000 -0.000000 -0.000000 -0.000001 1.000000 0.218750 0.325000 0 0 0 0 0.000000 0.000000 0.000000 0.000000
-16.002001 -2.514601 0.304798 -1.000000 -0.000000 -0.000000 -0.000000 -0.000001 1.000000 0.125000 0.325000 0 0 0 0 0.000000 0.000000 0.000000 0.000000
-16.002001 -1.600201 0.304798 -1.000000 -0.000000 -0.000000 -0.000000 -0.000001 1.000000 0.125000 0.025000 0 0 0 0 0.000000 0.000000 0.000000 0.000000
-15.163799 -2.743201 0.380998 0.000000 -1.000000 -0.000000 1.000000 0.000000 0.000000 -6.218750 -0.625000 0 0 0 0 0.000000 0.000000 0.000000 0.000000
-15.668625 -2.743201 0.380998 0.000000 -1.000000 -0.000000 1.000000 0.000000 0.000000 -6.425781 -0.625000 0 0 0 0 0.000000 0.000000 0.000000 0.000000
-15.763874 -2.743201 0.533398 0.000000 -1.000000 -0.000000 1.000000 0.000000 0.000000 -6.464844 -0.675000 0 0 0 0 0.000000 0.000000 0.000000 0.000000
-15.163799 -2.743201 0.533398 0.000000 -1.000000 -0.000000 1.000000 0.000000 0.000000 -6.218750 -0.675000 0 0 0 0 0.000000 0.000000 0.000000 0.000000
-15.668625 -2.743201 0.380998 0.000000 -1.000000 -0.000000 -1.000000 -0.000000 -0.000000 -6.425781 -0.625000 0 0 0 0 0.000000 0.000000 0.000000 0.000000
-15.163799 -2.743201 0.380998 0.000000 -1.000000 -0.000000 -1.000000 -0.000000 -0.000000 -6.218750 -0.625000 0 0 0 0 0.000000 0.000000 0.000000 0.000000
-14.782800 -2.743201 0.380998 0.000000 -1.000000 -0.000000 -1.000000 -0.000000 -0.000000 -6.062500 -0.625000 0 0 0 0 0.000000 0.000000 0.000000 0.000000
-14.782800 -2.743201 0.304798 0.000000 -1.000000 -0.000000 1.000000 0.000000 0.000000 -6.062500 -0.600000 0 0 0 0 0.000000 0.000000 0.000000 0.000000
-15.620999 -2.743201 0.304798 0.000000 -1.000000 -0.000000 1.000000 0.000000 0.000000 -6.406250 -0.600000 0 0 0 0 0.000000 0.000000 0.000000 0.000000
-15.811500 -2.743201 0.609598 0.000000 -1.000000 -0.000000 1.000000 0.000000 0.000000 -6.484375 -0.700000 0 0 0 0 0.000000 0.000000 0.000000 0.000000
-14.782800 -2.743201 0.609598 0.000000 -1.000000 -0.000000 1.000000 0.000000 0.000000 -6.062500 -0.700000 0 0 0 0 0.000000 0.000000 0.000000 0.000000
-14.782800 -2.743201 0.533398 0.000000 -1.000000 -0.000000 1.000000 0.000000 0.000000 -6.062500 -0.675000 0 0 0 0 0.000000 0.000000 0.000000 0.000000
-15.163799 -2.743201 0.533398 0.000000 -1.000000 -0.000000 1.000000 0.000000 0.000000 -6.218750 -0.675000 0 0 0 0 0.000000 0.000000 0.000000 0.000000
-13.411200 -1.790701 0.533399 -1.000000 -0.000000 -0.000000 -0.000000 -0.000000 1.000000 0.218750 0.087500 0 0 0 0 0.000000 0.000000 0.000000 0.000000
-13.411200 -1.790701 0.609599 -1.000000 -0.000000 -0.000000 -0.000000 -0.000000 1.000000 0.250000 0.087500 0 0 0 0 0.000000 0.000000 0.000000 0.000000
-13.411200 -2.438401 0.609598 -1.000000 -0.000000 -0.000000 -0.000000 -0.000000 1.000000 0.250000 0.300000 0 0 0 0 0.000000 0.000000 0.000000 0.000000
-13.411200 -2.438401 0.533398 -1.000000 -0.000000 -0.000000 -0.000000 -0.000000 1.000000 0.218750 0.300000 0 0 0 0 0.000000 0.000000 0.000000 0.000000
-12.649200 -1.790701 0.609599 1.000000 0.000000 0.000000 -0.000000 -0.000000 1.000000 0.250000 0.087500 0 0 0 0 0.000000 0.000000 0.000000 0.000000
-12.649200 -1.790701 0.533399 1.000000 0.000000 0.000000 -0.000000 -0.000000 1.000000 0.218750 0.087500 0 0 0 0 0.000000 0.000000 0.000000 0.000000
-12.649200 -2.438401 0.533399 1.000000 0.000000 0.000000 -0.000000 -0.000000 1.000000 0.218750 0.300000 0 0 0 0 0.000000 0.000000 0.000000 0.000000
-12.649200 -2.438401 0.609599 1.000000 0.000000 0.000000 -0.000000 -0.000000 1.000000 0.250000 0.300000 0 0 0 0 0.000000 0.000000 0.000000 0.000000
-11.277600 -1.790701 0.533399 -1.000000 -0.000000 -0.000000 -0.000000 -0.000000 1.000000 0.218750 0.087500 0 0 0 0 0.000000 0.000000 0.000000 0.000000
-11.277600 -1.790701 0.609599 -1.000000 -0.000000 -0.000000 -0.000000 -0.000000 1.000000 0.250000 0.087500 0 0 0 0 0.000000 0.000000 0.000000 0.000000
-11.277600 -2.438401 0.609599 -1.000000 -0.000000 -0.000000 -0.000000 -0.000000 1.000000 0.250000 0.300000 0 0 0 0 0.000000 0.000000 0.000000 0.000000
-11.277600 -2.438401 0.533399 -1.000000 -0.000000 -0.000000 -0.000000 -0.000000 1.000000 0.218750 0.300000 0 0 0 0 0.000000 0.000000 0.000000 0.000000
-11.277600 -2.438401 0.533399 -0.000000 1.000000 0.000000 1.000000 0.000000 0.000000 -4.625000 -0.675000 0 0 0 0 0.000000 0.000000 0.000000 0.000000
-11.277600 -2.438401 0.609599 -0.000000 1.000000 0.000000 1.000000 0.000000 0.000000 -4.625000 -0.700000 0 0 0 0 0.000000 0.000000 0.000000 0.000000
-12.649200 -2.438401 0.609599 -0.000000 1.000000 0.000000 1.000000 0.000000 0.000000 -5.187500 -0.700000 0 0 0 0 0.000000 0.000000 0.000000 0.000000
-12.649200 -2.438401 0.533399 -0.000000 1.000000 0.000000 1.000000 0.000000 0.000000 -5.187500 -0.675000 0 0 0 0 0.000000 0.000000 0.000000 0.000000
-11.277600 -1.790701 0.533399 0.000000 -1.000000 -0.000000 1.000000 0.000000 0.000000 -4.625000 -0.675000 0 0 0 0 0.000000 0.000000 0.000000 0.000000
-12.649200 -1.790701 0.533399 0.000000 -1.000000 -0.000000 1.000000 0.000000 0.000000 -5.187500 -0.675000 0 0 0 0 0.000000 0.000000 0.000000 0.000000
-12.649200 -1.790701 0.609599 0.000000 -1.000000 -0.000000 1.000000 0.000000 0.000000 -5.187500 -0.700000 0 0 0 0 0.000000 0.000000 0.000000 0.000000
-11.277600 -1.790701 0.609599 0.000000 -1.000000 -0.000000 1.000000 0.000000 0.000000 -4.625000 -0.700000 0 0 0 0 0.000000 0.000000 0.000000 0.000000
-14.782800 -2.438401 0.533398 1.000000 0.000000 0.000000 -0.000000 -0.000000 1.000000 0.218750 0.300000 0 0 0 0 0.000000 0.000000 0.000000 0.000000
-14.782800 -2.438401 0.609598 1.000000 0.000000 0.000000 -0.000000 -0.000000 1.000000 0.250000 0.300000 0 0 0 0 0.000000 0.000000 0.000000 0.000000
-14.782800 -1.790701 0.609598 1.000000 0.000000 0.000000 -0.000000 -0.000000 1.000000 0.250000 0.087500 0 0 0 0 0.000000 0.000000 0.000000 0.000000
-14.782800 -1.790701 0.533398 1.000000 0.000000 0.000000 -0.000000 -0.000000 1.000000 0.218750 0.087500 0 0 0 0 0.000000 0.000000 0.000000 0.000000
-13.411200 -2.438401 0.533398 -0.000000 1.000000 0.000000 1.000000 0.000000 0.000000 -5.500000 -0.675000 0 0 0 0 0.000000 0.000000 0.000000 0.000000
-13.411200 -2.438401 0.609598 -0.000000 1.000000 0.000000 1.000000 0.000000 0.000000 -5.500000 -0.700000 0 0 0 0 0.000000 0.000000 0.000000 0.000000
-14.782800 -2.438401 0.609598 -0.000000 1.000000 0.000000 1.000000 0.000000 0.000000 -6.062500 -0.700000 0 0 0 0 0.000000 0.000000 0.000000 0.000000
-14.782800 -2.438401 0.533398 -0.000000 1.000000 0.000000 1.000000 0.000000 0.000000 -6.062500 -0.675000 0 0 0 0 0.000000 0.000000 0.000000 0.000000
-13.411200 -1.790701 0.533399 0.000000 -1.000000 -0.000000 1.000000 0.000000 0.000000 -5.500000 -0.675000 0 0 0 0 0.000000 0.000000 0.000000 0.000000
-14.782800 -1.790701 0.533398 0.000000 -1.000000 -0.000000 1.000000 0.000000 0.000000 -6.062500 -0.675000 0 0 0 0 0.000000 0.000000 0.000000 0.000000
-14.782800 -1.790701 0.609598 0.000000 -1.000000 -0.000000 1.000000 0.000000 0.000000 -6.062500 -0.700000 0 0 0 0 0.000000 0.000000 0.000000 0.000000
-13.411200 -1.790701 0.609599 0.000000 -1.000000 -0.000000 1.000000 0.000000 0.000000 -5.500000 -0.700000 0 0 0 0 0.000000 0.000000 0.000000 0.000000
-15.811500 -3.962401 0.609598 0.847998 -0.000000 0.529999 -0.529999 -0.000000 0.847998 0.250000 0.800000 0 0 0 0 0.000000 0.000000 0.000000 0.000000
-15.811500 -2.743201 0.609598 0.847998 -0.000000 0.529999 -0.529999 -0.000000 0.847998 0.250000 0.400000 0 0 0 0 0.000000 0.000000 0.000000 0.000000
-15.763874 -2.743201 0.533398 0.847998 -0.000000 0.529999 -0.529999 -0.000000 0.847998 0.218750 0.400000 0 0 0 0 0.000000 0.000000 0.000000 0.000000
-15.668625 -2.743201 0.380998 0.847998 -0.000000 0.529999 -0.529999 0.000000 0.847998 0.156250 0.400000 0 0 0 0 0.000000 0.000000 0.000000 0.000000
-15.620999 -2.743201 0.304798 0.847998 -0.000000 0.529999 -0.530000 -0.000000 0.847998 0.125000 0.400000 0 0 0 0 0.000000 0.000000 0.000000 0.000000
-15.620999 -3.962401 0.304798 0.847998 -0.000000 0.529999 -0.529999 -0.000000 0.847998 0.125000 0.800000 0 0 0 0 0.000000 0.000000 0.000000 0.000000
-17.221201 -2.514601 0.533398 -0.000000 1.000000 0.000000 1.000000 0.000000 0.000000 -7.062500 -0.675000 0 0 0 0 0.000000 0.000000 0.000000 0.000000
-17.221201 -2.514601 0.304798 -0.000000 1.000000 0.000000 1.000000 0.000000 0.000000 -7.062500 -0.600000 0 0 0 0 0.000000 0.000000 0.000000 0.000000
-16.021049 -2.514601 0.304798 -0.000000 1.000000 0.000000 1.000000 0.000000 0.000000 -6.570312 -0.600000 0 0 0 0 0.000000 0.000000 0.000000 0.000000
-16.002001 -2.514601 0.304798 -0.000000 1.000000 0.000000 1.000000 0.000000 -0.000000 -6.562500 -0.600000 0 0 0 0 0.000000 0.000000 0.000000 0.000000
-16.002001 -2.514601 0.533398 -0.000000 1.000000 0.000000 1.000000 0.000000 0.000000 -6.562500 -0.675000 0 0 0 0 0.000000 0.000000 0.000000 0.000000
-17.373600 -1.524003 7.010399 0.000000 0.000000 -1.000000 1.000000 0.000000 0.000000 -7.125000 0.000000 0 0 0 0 0.000000 0.000000 0.000000 0.000000
-17.678400 -1.524003 7.010398 0.000000 0.000000 -1.000000 1.000000 0.000000 0.000000 -7.250000 0.000000 0 0 0 0 0.000000 0.000000 0.000000 0.000000
-17.678400 -2.133603 7.010398 0.000000 0.000000 -1.000000 1.000000 0.000000 0.000000 -7.250000 0.200000 0 0 0 0 0.000000 0.000000 0.000000 0.000000
-17.678400 -4.572003 7.010398 0.000000 0.000000 -1.000000 1.000000 0.000000 0.000000 -7.250000 1.000000 0 0 0 0 0.000000 0.000000 0.000000 0.000000
-17.373600 -4.572003 7.010398 0.000000 0.000000 -1.000000 1.000000 0.000000 0.000000 -7.125000 1.000000 0 0 0 0 0.000000 0.000000 0.000000 0.000000
-17.678400 -1.524003 5.181598 1.000000 0.000000 0.000000 -0.000000 -0.000000 1.000000 2.125000 0.000000 0 0 0 0 0.000000 0.000000 0.000000 0.000000
-17.678400 -2.133602 5.181598 1.000000 0.000000 0.000000 -0.000000 -0.000000 1.000000 2.125000 0.200000 0 0 0 0 0.000000 0.000000 0.000000 0.000000
-17.678400 -2.133602 5.486398 1.000000 0.000000 0.000000 -0.000000 -0.000000 1.000000 2.250000 0.200000 0 0 0 0 0.000000 0.000000 0.000000 0.000000
-17.678400 -2.133603 6.705597 1.000000 0.000000 0.000000 -0.000000 -0.000000 1.000000 2.750000 0.200000 0 0 0 0 0.000000 0.000000 0.000000 0.000000
-17.678400 -2.133603 7.010398 1.000000 0.000000 0.000000 -0.000000 -0.000000 1.000000 2.875000 0.200000 0 0 0 0 0.000000 0.000000 0.000000 0.000000
-17.678400 -1.524003 7.010398 1.000000 0.000000 0.000000 -0.000000 -0.000000 1.000000 2.875000 0.000000 0 0 0 0 0.000000 0.000000 0.000000 0.000000
-19.202400 -1.524002 0.761998 -0.971211 -0.000000 -0.238222 -0.238222 -0.000000 0.971211 0.015625 0.000000 0 0 0 0 0.000000 0.000000 0.000000 0.000000
-19.202400 -4.572002 0.761998 -0.971211 -0.000000 -0.238222 -0.238222 -0.000000 0.971211 0.015625 1.000000 0 0 0 0 0.000000 0.000000 0.000000 0.000000
-18.954750 -4.572001 -0.247652 -0.971211 -0.000000 -0.238222 -0.238222 -0.000000 0.971211 -0.398438 1.000000 0 0 0 0 0.000000 0.000000 0.000000 0.000000
-18.954750 -1.524002 -0.247652 -0.971211 -0.000000 -0.238222 -0.238222 -0.000000 0.971211 -0.398438 0.000000 0 0 0 0 0.000000 0.000000 0.000000 0.000000
-18.249901 -1.524001 -0.971552 -0.269630 0.000000 -0.962964 0.962964 0.000000 -0.269630 -7.484375 0.000000 0 0 0 0 0.000000 0.000000 0.000000 0.000000
-18.249901 -4.572001 -0.971552 -0.269630 0.000000 -0.962964 0.962964 0.000000 -0.269630 -7.484375 1.000000 0 0 0 0 0.000000 0.000000 0.000000 0.000000
-17.373600 -4.572001 -1.216916 -0.269630 0.000000 -0.962964 0.962964 0.000000 -0.269630 -7.125000 1.000000 0 0 0 0 0.000000 0.000000 0.000000 0.000000
-17.373600 -3.352801 -1.216916 -0.269630 0.000000 -0.962964 0.962964 0.000001 -0.269630 -7.125000 0.600000 0 0 0 0 0.000000 0.000000 0.000000 0.000000
-17.373600 -1.524001 -1.216916 -0.269630 0.000000 -0.962964 0.962964 0.000000 -0.269630 -7.125000 0.000000 0 0 0 0 0.000000 0.000000 0.000000 0.000000
-18.954750 -1.524002 -0.247652 -0.716472 0.000000 -0.697616 -0.697616 -0.000000 0.716472 -0.101562 0.000000 0 0 0 0 0.000000 0.000000 0.000000 0.000000
-18.954750 -4.572001 -0.247652 -0.716472 0.000000 -0.697616 -0.697616 -0.000000 0.716472 -0.101562 1.000000 0 0 0 0 0.000000 0.000000 0.000000 0.000000
-18.249901 -4.572001 -0.971552 -0.716472 0.000000 -0.697616 -0.697616 0.000000 0.716472 -0.398438 1.000000 0 0 0 0 0.000000 0.000000 0.000000 0.000000
-18.249901 -1.524001 -0.971552 -0.716472 0.000000 -0.697616 -0.697616 -0.000000 0.716472 -0.398438 0.000000 0 0 0 0 0.000000 0.000000 0.000000 0.000000
-36.728401 -2.514604 7.315196 1.000000 0.000000 0.000000 -0.000000 -0.000000 1.000000 3.000000 0.025000 0 0 0 0 0.000000 0.000000 0.000000 0.000000
-36.728401 -3.657604 7.315196 1.000000 0.000000 0.000000 -0.000000 -0.000000 1.000000 3.000000 0.400000 0 0 0 0 0.000000 0.000000 0.000000 0.000000
-36.728401 -3.657605 10.667996 1.000000 0.000000 0.000000 -0.000000 -0.000000 1.000000 4.375000 0.400000 0 0 0 0 0.000000 0.000000 0.000000 0.000000
-36.728401 -2.514605 10.667996 1.000000 0.000000 0.000000 -0.000000 -0.000000 1.000000 4.375000 0.025000 0 0 0 0 0.000000 0.000000 0.000000 0.000000
-36.728401 -4.876804 7.315196 1.000000 0.000000 0.000000 -0.000000 -0.000000 1.000000 3.000000 0.800000 0 0 0 0 0.000000 0.000000 0.000000 0.000000
-36.728401 -5.486404 7.315196 1.000000 0.000000 0.000000 -0.000000 -0.000000 1.000000 3.000000 1.000000 0 0 0 0 0.000000 0.000000 0.000000 0.000000
-36.728401 -5.486404 8.077196 1.000000 0.000000 0.000000 -0.000000 -0.000000 1.000000 3.312500 1.000000 0 0 0 0 0.000000 0.000000 0.000000 0.000000
-36.728401 -5.486405 8.839196 1.000000 0.000000 0.000000 -0.000000 -0.000001 1.000000 3.625000 1.000000 0 0 0 0 0.000000 0.000000 0.000000 0.000000
-36.728401 -5.486405 10.667995 1.000000 0.000000 0.000000 -0.000000 -0.000000 1.000000 4.375000 1.000000 0 0 0 0 0.000000 0.000000 0.000000 0.000000
-36.728401 -4.876805 10.667995 1.000000 0.000000 0.000000 -0.000000 -0.000000 1.000000 4.375000 0.800000 0 0 0 0 0.000000 0.000000 0.000000 0.000000
-36.728401 -5.486405 13.106395 1.000000 0.000000 0.000001 -0.000001 -0.000001 1.000000 5.375000 1.000000 0 0 0 0 0.000000 0.000000 0.000000 0.000000
-36.728401 -2.514605 13.106396 1.000000 0.000000 0.000001 -0.000001 -0.000000 1.000000 5.375000 0.025000 0 0 0 0 0.000000 0.000000 0.000000 0.000000
-36.728401 -2.514605 11.582396 1.000000 0.000000 0.000001 -0.000001 -0.000000 1.000000 4.750000 0.025000 0 0 0 0 0.000000 0.000000 0.000000 0.000000
-36.728401 -2.514604 4.114796 1.000000 0.000000 0.000000 0.000000 -0.000000 1.000000 1.687500 0.025000 0 0 0 0 0.000000 0.000000 0.000000 0.000000
-36.728401 -3.657604 4.114796 1.000000 0.000000 0.000000 0.000000 0.000000 1.000000 1.687500 0.400000 0 0 0 0 0.000000 0.000000 0.000000 0.000000
-36.728401 -4.876804 4.114796 1.000000 0.000000 0.000000 0.000000 -0.000002 1.000000 1.687500 0.800000 0 0 0 0 0.000000 0.000000 0.000000 0.000000
-36.728401 -5.486403 4.114796 1.000000 0.000000 0.000000 0.000000 -0.000000 1.000000 1.687500 1.000000 0 0 0 0 0.000000 0.000000 0.000000 0.000000
-36.728401 -5.486404 4.876796 1.000000 0.000000 0.000000 -0.000000 -0.000001 1.000000 2.000000 1.000000 0 0 0 0 0.000000 0.000000 0.000000 0.000000
-36.728401 -2.514603 -0.304804 1.000000 0.000000 -0.000000 0.000000 -0.000000 1.000000 -0.125000 0.025000 0 0 0 0 0.000000 0.000000 0.000000 0.000000
-36.728401 -5.486403 -0.304804 1.000000 0.000000 -0.000000 0.000000 -0.000000 1.000000 -0.125000 1.000000 0 0 0 0 0.000000 0.000000 0.000000 0.000000
-36.728401 -2.514604 3.962396 1.000000 0.000000 -0.000000 0.000000 -0.000000 1.000000 1.625000 0.025000 0 0 0 0 0.000000 0.000000 0.000000 0.000000
IndexCount: 1158
3 1 0
4 7 0
4 0 1
8 3 0
0 7 8
3 2 1
8 9 3
4 1 6
6 5 4
8 10 9
95 10 8
8 96 95
101 103 95
95 96 102
95 102 101
8 97 96
8 98 97
8 99 98
8 100 99
113 114 99
99 100 113
113 115 114
116 115 113
113 117 116
113 118 117
113 119 87
113 87 88
113 88 118
87 94 93
93 88 87
93 89 88
93 92 91
93 91 90
93 90 89
109 91 92
109 92 108
109 108 107
109 107 106
111 110 109
109 106 104
109 104 105
111 109 105
105 112 111
101 104 103
14 12 11
14 13 12
18 16 15
18 17 16
22 20 19
22 21 20
26 24 23
27 31 23
27 23 24
26 25 24
38 25 26
27 24 30
27 32 31
27 30 29
29 28 27
38 33 25
38 34 33
38 35 34
38 37 36
38 36 35
39 44 43
39 43 42
39 42 41
41 40 39
49 43 44
49 50 43
52 50 49
52 49 48
52 51 50
52 48 47
52 47 46
52 46 45
58 47 48
58 48 57
160 163 58
58 57 162
58 162 161
58 161 160
160 166 165
160 165 164
164 163 160
165 169 168
165 168 167
167 164 165
56 54 53
53 54 159
53 159 158
53 158 157
53 157 156
53 156 155
155 154 53
56 55 54
62 60 59
62 61 60
63 66 62
63 62 65
65 64 63
298 66 297
298 297 296
299 298 296
296 301 300
296 300 299
300 306 305
305 302 300
305 304 303
305 303 302
67 72 71
67 71 70
67 70 69
69 68 67
73 78 77
77 74 73
77 76 75
77 75 74
75 307 74
75 308 307
307 308 312
307 312 311
307 311 310
310 309 307
79 86 85
79 85 84
79 84 83
79 83 82
82 81 80
120 129 128
120 128 127
120 127 126
120 126 125
145 120 141
125 124 123
123 122 121
141 140 139
141 139 138
145 141 138
139 140 135
137 136 135
137 135 134
139 135 136
152 130 137
152 137 134
134 153 152
152 146 147
152 147 133
152 133 130
352 146 152
133 131 130
133 132 131
139 136 131
139 131 132
139 132 148
150 151 139
139 148 149
139 149 150
149 148 147
149 147 146
341 340 149
341 149 146
346 149 340
352 342 341
352 341 146
345 343 342
352 345 342
352 351 350
352 350 345
345 344 343
346 340 343
346 343 344
346 344 349
346 349 348
329 353 349
329 349 350
329 350 351
329 328 327
329 327 326
330 331 329
329 326 330
329 354 353
351 328 329
351 325 328
351 324 325
325 324 323
325 323 322
330 332 331
336 332 330
336 330 338
336 339 332
336 334 339
338 337 336
142 335 334
334 333 142
145 143 142
142 143 335
145 138 144
145 144 143
348 347 346
173 171 170
173 172 171
177 175 174
177 176 175
181 179 178
181 180 179
185 183 182
185 184 183
189 187 186
189 188 187
193 191 190
193 192 191
197 195 194
197 196 195
201 199 198
201 200 199
202 207 206
202 206 205
202 205 204
204 203 202
211 209 208
212 208 209
231 208 212
237 211 208
237 208 231
211 210 209
212 209 214
214 213 212
212 234 233
212 233 232
212 232 231
233 236 235
233 235 232
218 216 215
220 218 215
220 215 219
218 217 216
224 222 221
363 224 221
363 221 362
224 223 222
362 364 363
225 230 229
225 229 228
225 228 227
227 226 225
225 226 245
225 245 246
225 246 250
250 251 225
240 246 245
240 245 244
241 240 239
242 247 240
240 244 243
240 243 242
241 239 238
252 250 241
252 241 238
252 238 249
252 251 250
252 249 248
263 248 249
263 249 242
263 242 243
263 243 266
263 266 265
265 264 263
253 259 258
253 258 257
253 257 256
253 256 255
255 254 253
260 257 258
258 261 260
260 262 257
260 261 269
269 267 260
269 268 267
270 274 273
270 273 272
272 271 270
278 276 275
278 277 276
282 280 279
282 281 280
286 284 283
286 285 284
290 288 287
290 289 288
291 295 294
291 294 293
293 292 291
292 313 291
292 314 313
321 316 315
321 320 319
321 319 318
321 318 317
321 317 316
355 361 360
355 360 359
355 359 358
355 358 357
357 356 355
366 360 361
366 361 365
368 369 366
368 366 365
365 370 368
369 368 367
367 359 369
367 358 359
375 372 371
377 375 371
375 374 373
375 373 372
377 376 375
381 379 378
381 380 379
385 383 382
385 384 383
384 394 393
384 393 392
392 391 384
386 390 389
386 389 388
388 387 386
398 396 395
398 397 396
402 400 399
402 401 400
406 404 403
406 405 404
410 408 407
410 409 408
414 412 411
414 413 412
418 416 415
418 417 416
422 420 419
422 421 420
426 424 423
426 425 424
427 432 431
427 431 430
427 430 429
429 428 427
433 437 436
433 436 435
435 434 433
438 442 441
438 441 440
440 439 438
443 448 447
443 447 446
443 446 445
445 444 443
452 450 449
452 451 450
453 457 456
453 456 455
455 454 453
461 459 458
461 460 459
465 463 462
463 475 462
465 464 463
465 474 473
465 473 472
472 464 465
463 476 475
482 475 476
482 476 477
482 477 478
482 478 481
482 481 480
478 477 466
466 479 478
466 471 470
466 470 469
466 469 468
468 467 466
466 467 479
472 470 471
472 471 464
