VertexCount: 168
-10.820400 -1.295397 -17.983200 0.000000 -0.000000 1.000000 1.000000 0.000000 0.000000 -6.000000 0.708333 0 0 0 0 0.000000 0.000000 0.000000 0.000000
-12.649200 -1.295397 -17.983200 0.000000 -0.000000 1.000000 1.000000 0.000000 0.000000 -7.000000 0.708333 0 0 0 0 0.000000 0.000000 0.000000 0.000000
-12.649200 -1.219197 -17.983200 0.000000 -0.000000 1.000000 1.000000 0.000000 0.000000 -7.000000 0.666667 0 0 0 0 0.000000 0.000000 0.000000 0.000000
-10.820400 -1.219197 -17.983200 0.000000 -0.000000 1.000000 1.000000 0.000000 0.000000 -6.000000 0.666667 0 0 0 0 0.000000 0.000000 0.000000 0.000000
-10.820400 -1.295397 -17.983200 1.000000 0.000000 0.000000 0.000000 -0.000000 1.000000 -10.000000 0.708333 0 0 0 0 0.000000 0.000000 0.000000 0.000000
-10.820400 -1.219197 -17.983200 1.000000 0.000000 0.000000 0.000000 -0.000000 1.000000 -10.000000 0.666667 0 0 0 0 0.000000 0.000000 0.000000 0.000000
-10.820400 -1.219197 -19.812000 1.000000 0.000000 0.000000 0.000000 -0.000000 1.000000 -11.000000 0.666667 0 0 0 0 0.000000 0.000000 0.000000 0.000000
-10.820400 -1.295397 -19.812000 1.000000 0.000000 0.000000 0.000000 -0.000000 1.000000 -11.000000 0.708333 0 0 0 0 0.000000 0.000000 0.000000 0.000000
-12.649200 -1.295397 -19.812000 -1.000000 0.000000 0.000000 0.000000 -0.000000 1.000000 -11.000000 0.708333 0 0 0 0 0.000000 0.000000 0.000000 0.000000
-12.649200 -1.219197 -19.812000 -1.000000 0.000000 0.000000 0.000000 -0.000000 1.000000 -11.000000 0.666667 0 0 0 0 0.000000 0.000000 0.000000 0.000000
-12.649200 -1.219197 -17.983200 -1.000000 0.000000 0.000000 0.000000 -0.000000 1.000000 -10.000000 0.666667 0 0 0 0 0.000000 0.000000 0.000000 0.000000
-12.649200 -1.295397 -17.983200 -1.000000 0.000000 0.000000 0.000000 -0.000000 1.000000 -10.000000 0.708333 0 0 0 0 0.000000 0.000000 0.000000 0.000000
-10.820400 -1.219197 -19.812000 0.000000 0.000000 -1.000000 1.000000 0.000000 0.000000 -6.000000 0.666667 0 0 0 0 0.000000 0.000000 0.000000 0.000000
-12.649200 -1.219197 -19.812000 0.000000 0.000000 -1.000000 1.000000 0.000000 0.000000 -7.000000 0.666667 0 0 0 0 0.000000 0.000000 0.000000 0.000000
-12.649200 -1.295397 -19.812000 0.000000 0.000000 -1.000000 1.000000 0.000000 0.000000 -7.000000 0.708333 0 0 0 0 0.000000 0.000000 0.000000 0.000000
-10.820400 -1.295397 -19.812000 0.000000 0.000000 -1.000000 1.000000 0.000000 0.000000 -6.000000 0.708333 0 0 0 0 0.000000 0.000000 0.000000 0.000000
-10.820400 -1.219197 -17.983200 0.000000 1.000000 0.000000 1.000000 0.000000 0.000000 -6.000000 10.000000 0 0 0 0 0.000000 0.000000 0.000000 0.000000
-12.649200 -1.219197 -17.983200 0.000000 1.000000 0.000000 1.000000 0.000000 0.000000 -7.000000 10.000000 0 0 0 0 0.000000 0.000000 0.000000 0.000000
-12.649200 -1.219197 -19.812000 0.000000 1.000000 0.000000 1.000000 0.000000 0.000000 -7.000000 11.000000 0 0 0 0 0.000000 0.000000 0.000000 0.000000
-10.820400 -1.219197 -19.812000 0.000000 1.000000 0.000000 1.000000 0.000000 0.000000 -6.000000 11.000000 0 0 0 0 0.000000 0.000000 0.000000 0.000000
-10.820400 -1.295397 -19.812000 0.000000 -1.000000 -0.000000 1.000000 0.000000 0.000000 -6.000000 11.000000 0 0 0 0 0.000000 0.000000 0.000000 0.000000
-12.649200 -1.295397 -19.812000 0.000000 -1.000000 -0.000000 1.000000 0.000000 0.000000 -7.000000 11.000000 0 0 0 0 0.000000 0.000000 0.000000 0.000000
-12.649200 -1.295397 -17.983200 0.000000 -1.000000 -0.000000 1.000000 0.000000 0.000000 -7.000000 10.000000 0 0 0 0 0.000000 0.000000 0.000000 0.000000
-10.820400 -1.295397 -17.983200 0.000000 -1.000000 -0.000000 1.000000 0.000000 0.000000 -6.000000 10.000000 0 0 0 0 0.000000 0.000000 0.000000 0.000000
-12.649200 -1.295397 -21.945601 -1.000000 0.000000 0.000000 0.000000 -0.000000 1.000000 -11.000000 0.708333 0 0 0 0 0.000000 0.000000 0.000000 0.000000
-12.649200 -1.219196 -21.945601 -1.000000 0.000000 0.000000 0.000000 -0.000000 1.000000 -11.000000 0.666667 0 0 0 0 0.000000 0.000000 0.000000 0.000000
-12.649200 -1.219197 -20.116800 -1.000000 0.000000 0.000000 0.000000 -0.000000 1.000000 -10.000000 0.666667 0 0 0 0 0.000000 0.000000 0.000000 0.000000
-12.649200 -1.295397 -20.116800 -1.000000 0.000000 0.000000 0.000000 -0.000000 1.000000 -10.000000 0.708333 0 0 0 0 0.000000 0.000000 0.000000 0.000000
-10.820400 -1.219196 -21.945601 0.000000 0.000000 -1.000000 1.000000 0.000000 0.000000 -6.000000 0.666667 0 0 0 0 0.000000 0.000000 0.000000 0.000000
-12.649200 -1.219196 -21.945601 0.000000 0.000000 -1.000000 1.000000 0.000000 0.000000 -7.000000 0.666667 0 0 0 0 0.000000 0.000000 0.000000 0.000000
-12.649200 -1.295397 -21.945601 0.000000 0.000000 -1.000000 1.000000 0.000000 0.000000 -7.000000 0.708333 0 0 0 0 0.000000 0.000000 0.000000 0.000000
-10.820400 -1.295397 -21.945601 0.000000 0.000000 -1.000000 1.000000 0.000000 0.000000 -6.000000 0.708333 0 0 0 0 0.000000 0.000000 0.000000 0.000000
-10.820400 -1.295397 -20.116800 1.000000 0.000000 0.000000 0.000000 -0.000000 1.000000 -10.000000 0.708333 0 0 0 0 0.000000 0.000000 0.000000 0.000000
-10.820400 -1.219197 -20.116800 1.000000 0.000000 0.000000 0.000000 -0.000000 1.000000 -10.000000 0.666667 0 0 0 0 0.000000 0.000000 0.000000 0.000000
-10.820400 -1.219196 -21.945601 1.000000 0.000000 0.000000 0.000000 -0.000000 1.000000 -11.000000 0.666667 0 0 0 0 0.000000 0.000000 0.000000 0.000000
-10.820400 -1.295397 -21.945601 1.000000 0.000000 0.000000 0.000000 -0.000000 1.000000 -11.000000 0.708333 0 0 0 0 0.000000 0.000000 0.000000 0.000000
-10.820400 -1.295397 -20.116800 0.000000 -0.000000 1.000000 1.000000 0.000000 0.000000 -6.000000 0.708333 0 0 0 0 0.000000 0.000000 0.000000 0.000000
-12.649200 -1.295397 -20.116800 0.000000 -0.000000 1.000000 1.000000 0.000000 0.000000 -7.000000 0.708333 0 0 0 0 0.000000 0.000000 0.000000 0.000000
-12.649200 -1.219197 -20.116800 0.000000 -0.000000 1.000000 1.000000 0.000000 0.000000 -7.000000 0.666667 0 0 0 0 0.000000 0.000000 0.000000 0.000000
-10.820400 -1.219197 -20.116800 0.000000 -0.000000 1.000000 1.000000 0.000000 0.000000 -6.000000 0.666667 0 0 0 0 0.000000 0.000000 0.000000 0.000000
-10.820400 -1.219197 -20.116800 0.000000 1.000000 0.000000 1.000000 0.000000 0.000000 -6.000000 10.000000 0 0 0 0 0.000000 0.000000 0.000000 0.000000
-12.649200 -1.219197 -20.116800 0.000000 1.000000 0.000000 1.000000 0.000000 0.000000 -7.000000 10.000000 0 0 0 0 0.000000 0.000000 0.000000 0.000000
-12.649200 -1.219196 -21.945601 0.000000 1.000000 0.000000 1.000000 0.000000 0.000000 -7.000000 11.000000 0 0 0 0 0.000000 0.000000 0.000000 0.000000
-10.820400 -1.219196 -21.945601 0.000000 1.000000 0.000000 1.000000 0.000000 0.000000 -6.000000 11.000000 0 0 0 0 0.000000 0.000000 0.000000 0.000000
-10.820400 -1.295397 -21.945601 0.000000 -1.000000 -0.000000 1.000000 0.000000 0.000000 -6.000000 11.000000 0 0 0 0 0.000000 0.000000 0.000000 0.000000
-12.649200 -1.295397 -21.945601 0.000000 -1.000000 -0.000000 1.000000 0.000000 0.000000 -7.000000 11.000000 0 0 0 0 0.000000 0.000000 0.000000 0.000000
-12.649200 -1.295397 -20.116800 0.000000 -1.000000 -0.000000 1.000000 0.000000 0.000000 -7.000000 10.000000 0 0 0 0 0.000000 0.000000 0.000000 0.000000
-10.820400 -1.295397 -20.116800 0.000000 -1.000000 -0.000000 1.000000 0.000000 0.000000 -6.000000 10.000000 0 0 0 0 0.000000 0.000000 0.000000 0.000000
-10.515600 -1.295397 -21.945601 -1.000000 0.000000 0.000000 0.000000 -0.000000 1.000000 -11.000000 0.708333 0 0 0 0 0.000000 0.000000 0.000000 0.000000
-10.515600 -1.219196 -21.945601 -1.000000 0.000000 0.000000 0.000000 -0.000000 1.000000 -11.000000 0.666667 0 0 0 0 0.000000 0.000000 0.000000 0.000000
-10.515600 -1.219197 -20.116800 -1.000000 0.000000 0.000000 0.000000 -0.000000 1.000000 -10.000000 0.666667 0 0 0 0 0.000000 0.000000 0.000000 0.000000
-10.515600 -1.295397 -20.116800 -1.000000 0.000000 0.000000 0.000000 -0.000000 1.000000 -10.000000 0.708333 0 0 0 0 0.000000 0.000000 0.000000 0.000000
-8.686800 -1.219196 -21.945601 0.000000 0.000000 -1.000000 1.000000 0.000000 0.000000 -5.000000 0.666667 0 0 0 0 0.000000 0.000000 0.000000 0.000000
-10.515600 -1.219196 -21.945601 0.000000 0.000000 -1.000000 1.000000 0.000000 0.000000 -6.000000 0.666667 0 0 0 0 0.000000 0.000000 0.000000 0.000000
-10.515600 -1.295397 -21.945601 0.000000 0.000000 -1.000000 1.000000 0.000000 0.000000 -6.000000 0.708333 0 0 0 0 0.000000 0.000000 0.000000 0.000000
-8.686800 -1.295397 -21.945601 0.000000 0.000000 -1.000000 1.000000 0.000000 0.000000 -5.000000 0.708333 0 0 0 0 0.000000 0.000000 0.000000 0.000000
-8.686800 -1.295397 -20.116800 1.000000 0.000000 0.000000 0.000000 -0.000000 1.000000 -10.000000 0.708333 0 0 0 0 0.000000 0.000000 0.000000 0.000000
-8.686800 -1.219197 -20.116800 1.000000 0.000000 0.000000 0.000000 -0.000000 1.000000 -10.000000 0.666667 0 0 0 0 0.000000 0.000000 0.000000 0.000000
-8.686800 -1.219196 -21.945601 1.000000 0.000000 0.000000 0.000000 -0.000000 1.000000 -11.000000 0.666667 0 0 0 0 0.000000 0.000000 0.000000 0.000000
-8.686800 -1.295397 -21.945601 1.000000 0.000000 0.000000 0.000000 -0.000000 1.000000 -11.000000 0.708333 0 0 0 0 0.000000 0.000000 0.000000 0.000000
-8.686800 -1.295397 -20.116800 0.000000 -0.000000 1.000000 1.000000 0.000000 0.000000 -5.000000 0.708333 0 0 0 0 0.000000 0.000000 0.000000 0.000000
-10.515600 -1.295397 -20.116800 0.000000 -0.000000 1.000000 1.000000 0.000000 0.000000 -6.000000 0.708333 0 0 0 0 0.000000 0.000000 0.000000 0.000000
-10.515600 -1.219197 -20.116800 0.000000 -0.000000 1.000000 1.000000 0.000000 0.000000 -6.000000 0.666667 0 0 0 0 0.000000 0.000000 0.000000 0.000000
-8.686800 -1.219197 -20.116800 0.000000 -0.000000 1.000000 1.000000 0.000000 0.000000 -5.000000 0.666667 0 0 0 0 0.000000 0.000000 0.000000 0.000000
-8.686800 -1.219197 -20.116800 0.000000 1.000000 0.000000 1.000000 0.000000 0.000000 -5.000000 10.000000 0 0 0 0 0.000000 0.000000 0.000000 0.000000
-10.515600 -1.219197 -20.116800 0.000000 1.000000 0.000000 1.000000 0.000000 0.000000 -6.000000 10.000000 0 0 0 0 0.000000 0.000000 0.000000 0.000000
-10.515600 -1.219196 -21.945601 0.000000 1.000000 0.000000 1.000000 0.000000 0.000000 -6.000000 11.000000 0 0 0 0 0.000000 0.000000 0.000000 0.000000
-8.686800 -1.219196 -21.945601 0.000000 1.000000 0.000000 1.000000 0.000000 0.000000 -5.000000 11.000000 0 0 0 0 0.000000 0.000000 0.000000 0.000000
-8.686800 -1.295397 -21.945601 0.000000 -1.000000 -0.000000 1.000000 0.000000 0.000000 -5.000000 11.000000 0 0 0 0 0.000000 0.000000 0.000000 0.000000
-10.515600 -1.295397 -21.945601 0.000000 -1.000000 -0.000000 1.000000 0.000000 0.000000 -6.000000 11.000000 0 0 0 0 0.000000 0.000000 0.000000 0.000000
-10.515600 -1.295397 -20.116800 0.000000 -1.000000 -0.000000 1.000000 0.000000 0.000000 -6.000000 10.000000 0 0 0 0 0.000000 0.000000 0.000000 0.000000
-8.686800 -1.295397 -20.116800 0.000000 -1.000000 -0.000000 1.000000 0.000000 0.000000 -5.000000 10.000000 0 0 0 0 0.000000 0.000000 0.000000 0.000000
-6.553200 -1.295397 -20.116800 1.000000 0.000000 0.000000 0.000000 -0.000000 1.000000 -10.000000 0.708333 0 0 0 0 0.000000 0.000000 0.000000 0.000000
-6.553200 -1.219197 -20.116800 1.000000 0.000000 0.000000 0.000000 -0.000000 1.000000 -10.000000 0.666667 0 0 0 0 0.000000 0.000000 0.000000 0.000000
-6.553200 -1.219196 -21.945601 1.000000 0.000000 0.000000 0.000000 -0.000000 1.000000 -11.000000 0.666667 0 0 0 0 0.000000 0.000000 0.000000 0.000000
-6.553200 -1.295397 -21.945601 1.000000 0.000000 0.000000 0.000000 -0.000000 1.000000 -11.000000 0.708333 0 0 0 0 0.000000 0.000000 0.000000 0.000000
-6.553200 -1.219196 -21.945601 0.000000 0.000000 -1.000000 1.000000 0.000000 0.000000 -4.000000 0.666667 0 0 0 0 0.000000 0.000000 0.000000 0.000000
-8.382000 -1.219196 -21.945601 0.000000 0.000000 -1.000000 1.000000 0.000000 0.000000 -5.000000 0.666667 0 0 0 0 0.000000 0.000000 0.000000 0.000000
-8.382000 -1.295397 -21.945601 0.000000 0.000000 -1.000000 1.000000 0.000000 0.000000 -5.000000 0.708333 0 0 0 0 0.000000 0.000000 0.000000 0.000000
-6.553200 -1.295397 -21.945601 0.000000 0.000000 -1.000000 1.000000 0.000000 0.000000 -4.000000 0.708333 0 0 0 0 0.000000 0.000000 0.000000 0.000000
-8.382000 -1.295397 -21.945601 -1.000000 0.000000 0.000000 0.000000 -0.000000 1.000000 -11.000000 0.708333 0 0 0 0 0.000000 0.000000 0.000000 0.000000
-8.382000 -1.219196 -21.945601 -1.000000 0.000000 0.000000 0.000000 -0.000000 1.000000 -11.000000 0.666667 0 0 0 0 0.000000 0.000000 0.000000 0.000000
-8.382000 -1.219197 -20.116800 -1.000000 0.000000 0.000000 0.000000 -0.000000 1.000000 -10.000000 0.666667 0 0 0 0 0.000000 0.000000 0.000000 0.000000
-8.382000 -1.295397 -20.116800 -1.000000 0.000000 0.000000 0.000000 -0.000000 1.000000 -10.000000 0.708333 0 0 0 0 0.000000 0.000000 0.000000 0.000000
-6.553200 -1.295397 -20.116800 0.000000 -0.000000 1.000000 1.000000 0.000000 0.000000 -4.000000 0.708333 0 0 0 0 0.000000 0.000000 0.000000 0.000000
-8.382000 -1.295397 -20.116800 0.000000 -0.000000 1.000000 1.000000 0.000000 0.000000 -5.000000 0.708333 0 0 0 0 0.000000 0.000000 0.000000 0.000000
-8.382000 -1.219197 -20.116800 0.000000 -0.000000 1.000000 1.000000 0.000000 0.000000 -5.000000 0.666667 0 0 0 0 0.000000 0.000000 0.000000 0.000000
-6.553200 -1.219197 -20.116800 0.000000 -0.000000 1.000000 1.000000 0.000000 0.000000 -4.000000 0.666667 0 0 0 0 0.000000 0.000000 0.000000 0.000000
-6.553200 -1.219197 -20.116800 0.000000 1.000000 0.000000 1.000000 0.000000 0.000000 -4.000000 10.000000 0 0 0 0 0.000000 0.000000 0.000000 0.000000
-8.382000 -1.219197 -20.116800 0.000000 1.000000 0.000000 1.000000 0.000000 0.000000 -5.000000 10.000000 0 0 0 0 0.000000 0.000000 0.000000 0.000000
-8.382000 -1.219196 -21.945601 0.000000 1.000000 0.000000 1.000000 0.000000 0.000000 -5.000000 11.000000 0 0 0 0 0.000000 0.000000 0.000000 0.000000
-6.553200 -1.219196 -21.945601 0.000000 1.000000 0.000000 1.000000 0.000000 0.000000 -4.000000 11.000000 0 0 0 0 0.000000 0.000000 0.000000 0.000000
-6.553200 -1.295397 -21.945601 0.000000 -1.000000 -0.000000 1.000000 0.000000 0.000000 -4.000000 11.000000 0 0 0 0 0.000000 0.000000 0.000000 0.000000
-8.382000 -1.295397 -21.945601 0.000000 -1.000000 -0.000000 1.000000 0.000000 0.000000 -5.000000 11.000000 0 0 0 0 0.000000 0.000000 0.000000 0.000000
-8.382000 -1.295397 -20.116800 0.000000 -1.000000 -0.000000 1.000000 0.000000 0.000000 -5.000000 10.000000 0 0 0 0 0.000000 0.000000 0.000000 0.000000
-6.553200 -1.295397 -20.116800 0.000000 -1.000000 -0.000000 1.000000 0.000000 0.000000 -4.000000 10.000000 0 0 0 0 0.000000 0.000000 0.000000 0.000000
13.335000 -1.828801 6.934200 0.000000 -0.000000 1.000000 1.000000 0.000000 0.000000 7.989583 1.770833 0 0 0 0 0.000000 0.000000 0.000000 0.000000
13.335000 -1.905001 6.934200 0.000000 -0.000000 1.000000 1.000000 0.000000 0.000000 7.989583 1.812500 0 0 0 0 0.000000 0.000000 0.000000 0.000000
11.506200 -1.905001 6.934200 0.000000 -0.000000 1.000000 1.000000 0.000000 0.000000 6.989583 1.812500 0 0 0 0 0.000000 0.000000 0.000000 0.000000
11.506200 -1.828801 6.934200 0.000000 -0.000000 1.000000 1.000000 0.000000 0.000000 6.989583 1.770833 0 0 0 0 0.000000 0.000000 0.000000 0.000000
13.335000 -1.828801 5.105400 1.000000 0.000000 0.000000 0.000000 -0.000000 1.000000 3.489583 1.770833 0 0 0 0 0.000000 0.000000 0.000000 0.000000
13.335000 -1.905001 5.105400 1.000000 0.000000 0.000000 0.000000 -0.000000 1.000000 3.489583 1.812500 0 0 0 0 0.000000 0.000000 0.000000 0.000000
13.335000 -1.905001 6.934200 1.000000 0.000000 0.000000 0.000000 -0.000000 1.000000 4.489583 1.812500 0 0 0 0 0.000000 0.000000 0.000000 0.000000
13.335000 -1.828801 6.934200 1.000000 0.000000 0.000000 0.000000 -0.000000 1.000000 4.489583 1.770833 0 0 0 0 0.000000 0.000000 0.000000 0.000000
11.506200 -1.828801 5.105400 0.000000 0.000000 -1.000000 1.000000 0.000000 0.000000 6.989583 1.770833 0 0 0 0 0.000000 0.000000 0.000000 0.000000
11.506200 -1.905001 5.105400 0.000000 0.000000 -1.000000 1.000000 0.000000 0.000000 6.989583 1.812500 0 0 0 0 0.000000 0.000000 0.000000 0.000000
13.335000 -1.905001 5.105400 0.000000 0.000000 -1.000000 1.000000 0.000000 0.000000 7.989583 1.812500 0 0 0 0 0.000000 0.000000 0.000000 0.000000
13.335000 -1.828801 5.105400 0.000000 0.000000 -1.000000 1.000000 0.000000 0.000000 7.989583 1.770833 0 0 0 0 0.000000 0.000000 0.000000 0.000000
11.506200 -1.828801 6.934200 -1.000000 0.000000 0.000000 0.000000 -0.000000 1.000000 4.489583 1.770833 0 0 0 0 0.000000 0.000000 0.000000 0.000000
11.506200 -1.905001 6.934200 -1.000000 0.000000 0.000000 0.000000 -0.000000 1.000000 4.489583 1.812500 0 0 0 0 0.000000 0.000000 0.000000 0.000000
11.506200 -1.905001 5.105400 -1.000000 0.000000 0.000000 0.000000 -0.000000 1.000000 3.489583 1.812500 0 0 0 0 0.000000 0.000000 0.000000 0.000000
11.506200 -1.828801 5.105400 -1.000000 0.000000 0.000000 0.000000 -0.000000 1.000000 3.489583 1.770833 0 0 0 0 0.000000 0.000000 0.000000 0.000000
13.335000 -1.905001 6.934200 0.000000 -1.000000 -0.000000 1.000000 0.000000 0.000000 7.989583 -3.020833 0 0 0 0 0.000000 0.000000 0.000000 0.000000
13.335000 -1.905001 5.105400 0.000000 -1.000000 -0.000000 1.000000 0.000000 0.000000 7.989583 -2.020833 0 0 0 0 0.000000 0.000000 0.000000 0.000000
11.506200 -1.905001 5.105400 0.000000 -1.000000 -0.000000 1.000000 0.000000 0.000000 6.989583 -2.020833 0 0 0 0 0.000000 0.000000 0.000000 0.000000
11.506200 -1.905001 6.934200 0.000000 -1.000000 -0.000000 1.000000 0.000000 0.000000 6.989583 -3.020833 0 0 0 0 0.000000 0.000000 0.000000 0.000000
13.335000 -1.828801 5.105400 0.000000 1.000000 0.000000 1.000000 0.000000 0.000000 7.989583 -2.020833 0 0 0 0 0.000000 0.000000 0.000000 0.000000
13.335000 -1.828801 6.934200 0.000000 1.000000 0.000000 1.000000 0.000000 0.000000 7.989583 -3.020833 0 0 0 0 0.000000 0.000000 0.000000 0.000000
11.506200 -1.828801 6.934200 0.000000 1.000000 0.000000 1.000000 0.000000 0.000000 6.989583 -3.020833 0 0 0 0 0.000000 0.000000 0.000000 0.000000
11.506200 -1.828801 5.105400 0.000000 1.000000 0.000000 1.000000 0.000000 0.000000 6.989583 -2.020833 0 0 0 0 0.000000 0.000000 0.000000 0.000000
11.201400 -1.828801 6.934200 0.000000 -0.000000 1.000000 1.000000 0.000000 0.000000 7.000000 1.770833 0 0 0 0 0.000000 0.000000 0.000000 0.000000
11.201400 -1.905001 6.934200 0.000000 -0.000000 1.000000 1.000000 0.000000 0.000000 7.000000 1.812500 0 0 0 0 0.000000 0.000000 0.000000 0.000000
9.372601 -1.905001 6.934200 0.000000 -0.000000 1.000000 1.000000 0.000000 0.000000 6.000000 1.812500 0 0 0 0 0.000000 0.000000 0.000000 0.000000
9.372601 -1.828801 6.934200 0.000000 -0.000000 1.000000 1.000000 0.000000 0.000000 6.000000 1.770833 0 0 0 0 0.000000 0.000000 0.000000 0.000000
11.201400 -1.828801 5.105400 1.000000 0.000000 0.000000 0.000000 -0.000000 1.000000 3.666667 1.770833 0 0 0 0 0.000000 0.000000 0.000000 0.000000
11.201400 -1.905001 5.105400 1.000000 0.000000 0.000000 0.000000 -0.000000 1.000000 3.666667 1.812500 0 0 0 0 0.000000 0.000000 0.000000 0.000000
11.201400 -1.905001 6.934200 1.000000 0.000000 0.000000 0.000000 -0.000000 1.000000 4.666667 1.812500 0 0 0 0 0.000000 0.000000 0.000000 0.000000
11.201400 -1.828801 6.934200 1.000000 0.000000 0.000000 0.000000 -0.000000 1.000000 4.666667 1.770833 0 0 0 0 0.000000 0.000000 0.000000 0.000000
9.372601 -1.828801 5.105400 0.000000 0.000000 -1.000000 1.000000 0.000000 0.000000 6.000000 1.770833 0 0 0 0 0.000000 0.000000 0.000000 0.000000
9.372601 -1.905001 5.105400 0.000000 0.000000 -1.000000 1.000000 0.000000 0.000000 6.000000 1.812500 0 0 0 0 0.000000 0.000000 0.000000 0.000000
11.201400 -1.905001 5.105400 0.000000 0.000000 -1.000000 1.000000 0.000000 0.000000 7.000000 1.812500 0 0 0 0 0.000000 0.000000 0.000000 0.000000
11.201400 -1.828801 5.105400 0.000000 0.000000 -1.000000 1.000000 0.000000 0.000000 7.000000 1.770833 0 0 0 0 0.000000 0.000000 0.000000 0.000000
9.372601 -1.828801 6.934200 -1.000000 0.000000 0.000000 0.000000 -0.000000 1.000000 4.666667 1.770833 0 0 0 0 0.000000 0.000000 0.000000 0.000000
9.372601 -1.905001 6.934200 -1.000000 0.000000 0.000000 0.000000 -0.000000 1.000000 4.666667 1.812500 0 0 0 0 0.000000 0.000000 0.000000 0.000000
9.372601 -1.905001 5.105400 -1.000000 0.000000 0.000000 0.000000 -0.000000 1.000000 3.666667 1.812500 0 0 0 0 0.000000 0.000000 0.000000 0.000000
9.372601 -1.828801 5.105400 -1.000000 0.000000 0.000000 0.000000 -0.000000 1.000000 3.666667 1.770833 0 0 0 0 0.000000 0.000000 0.000000 0.000000
11.201400 -1.905001 6.934200 0.000000 -1.000000 -0.000000 1.000000 0.000000 0.000000 7.000000 -3.020833 0 0 0 0 0.000000 0.000000 0.000000 0.000000
11.201400 -1.905001 5.105400 0.000000 -1.000000 -0.000000 1.000000 0.000000 0.000000 7.000000 -2.020833 0 0 0 0 0.000000 0.000000 0.000000 0.000000
9.372601 -1.905001 5.105400 0.000000 -1.000000 -0.000000 1.000000 0.000000 0.000000 6.000000 -2.020833 0 0 0 0 0.000000 0.000000 0.000000 0.000000
9.372601 -1.905001 6.934200 0.000000 -1.000000 -0.000000 1.000000 0.000000 0.000000 6.000000 -3.020833 0 0 0 0 0.000000 0.000000 0.000000 0.000000
11.201400 -1.828801 5.105400 0.000000 1.000000 0.000000 1.000000 0.000000 0.000000 7.000000 -2.020833 0 0 0 0 0.000000 0.000000 0.000000 0.000000
11.201400 -1.828801 6.934200 0.000000 1.000000 0.000000 1.000000 0.000000 0.000000 7.000000 -3.020833 0 0 0 0 0.000000 0.000000 0.000000 0.000000
9.372601 -1.828801 6.934200 0.000000 1.000000 0.000000 1.000000 0.000000 0.000000 6.000000 -3.020833 0 0 0 0 0.000000 0.000000 0.000000 0.000000
9.372601 -1.828801 5.105400 0.000000 1.000000 0.000000 1.000000 0.000000 0.000000 6.000000 -2.020833 0 0 0 0 0.000000 0.000000 0.000000 0.000000
9.067801 -1.828801 6.934200 0.000000 -0.000000 1.000000 1.000000 0.000000 0.000000 6.000000 1.770833 0 0 0 0 0.000000 0.000000 0.000000 0.000000
9.067801 -1.905001 6.934200 0.000000 -0.000000 1.000000 1.000000 0.000000 0.000000 6.000000 1.812500 0 0 0 0 0.000000 0.000000 0.000000 0.000000
7.239000 -1.905001 6.934200 0.000000 -0.000000 1.000000 1.000000 0.000000 0.000000 5.000000 1.812500 0 0 0 0 0.000000 0.000000 0.000000 0.000000
7.239000 -1.828801 6.934200 0.000000 -0.000000 1.000000 1.000000 0.000000 0.000000 5.000000 1.770833 0 0 0 0 0.000000 0.000000 0.000000 0.000000
7.239000 -1.828801 6.934200 -1.000000 0.000000 0.000000 0.000000 -0.000000 1.000000 4.833333 1.770833 0 0 0 0 0.000000 0.000000 0.000000 0.000000
7.239000 -1.905001 6.934200 -1.000000 0.000000 0.000000 0.000000 -0.000000 1.000000 4.833333 1.812500 0 0 0 0 0.000000 0.000000 0.000000 0.000000
7.239000 -1.905001 5.105400 -1.000000 0.000000 0.000000 0.000000 -0.000000 1.000000 3.833333 1.812500 0 0 0 0 0.000000 0.000000 0.000000 0.000000
7.239000 -1.828801 5.105400 -1.000000 0.000000 0.000000 0.000000 -0.000000 1.000000 3.833333 1.770833 0 0 0 0 0.000000 0.000000 0.000000 0.000000
7.239000 -1.828801 5.105400 0.000000 0.000000 -1.000000 1.000000 0.000000 0.000000 5.000000 1.770833 0 0 0 0 0.000000 0.000000 0.000000 0.000000
7.239000 -1.905001 5.105400 0.000000 0.000000 -1.000000 1.000000 0.000000 0.000000 5.000000 1.812500 0 0 0 0 0.000000 0.000000 0.000000 0.000000
9.067801 -1.905001 5.105400 0.000000 0.000000 -1.000000 1.000000 0.000000 0.000000 6.000000 1.812500 0 0 0 0 0.000000 0.000000 0.000000 0.000000
9.067801 -1.828801 5.105400 0.000000 0.000000 -1.000000 1.000000 0.000000 0.000000 6.000000 1.770833 0 0 0 0 0.000000 0.000000 0.000000 0.000000
9.067801 -1.828801 5.105400 1.000000 0.000000 0.000000 0.000000 -0.000000 1.000000 3.833333 1.770833 0 0 0 0 0.000000 0.000000 0.000000 0.000000
9.067801 -1.905001 5.105400 1.000000 0.000000 0.000000 0.000000 -0.000000 1.000000 3.833333 1.812500 0 0 0 0 0.000000 0.000000 0.000000 0.000000
9.067801 -1.905001 6.934200 1.000000 0.000000 0.000000 0.000000 -0.000000 1.000000 4.833333 1.812500 0 0 0 0 0.000000 0.000000 0.000000 0.000000
9.067801 -1.828801 6.934200 1.000000 0.000000 0.000000 0.000000 -0.000000 1.000000 4.833333 1.770833 0 0 0 0 0.000000 0.000000 0.000000 0.000000
9.067801 -1.905001 6.934200 0.000000 -1.000000 -0.000000 1.000000 0.000000 0.000000 6.000000 -3.020833 0 0 0 0 0.000000 0.000000 0.000000 0.000000
9.067801 -1.905001 5.105400 0.000000 -1.000000 -0.000000 1.000000 0.000000 0.000000 6.000000 -2.020833 0 0 0 0 0.000000 0.000000 0.000000 0.000000
7.239000 -1.905001 5.105400 0.000000 -1.000000 -0.000000 1.000000 0.000000 0.000000 5.000000 -2.020833 0 0 0 0 0.000000 0.000000 0.000000 0.000000
7.239000 -1.905001 6.934200 0.000000 -1.000000 -0.000000 1.000000 0.000000 0.000000 5.000000 -3.020833 0 0 0 0 0.000000 0.000000 0.000000 0.000000
9.067801 -1.828801 5.105400 0.000000 1.000000 0.000000 1.000000 0.000000 0.000000 6.000000 -2.020833 0 0 0 0 0.000000 0.000000 0.000000 0.000000
9.067801 -1.828801 6.934200 0.000000 1.000000 0.000000 1.000000 0.000000 0.000000 6.000000 -3.020833 0 0 0 0 0.000000 0.000000 0.000000 0.000000
7.239000 -1.828801 6.934200 0.000000 1.000000 0.000000 1.000000 0.000000 0.000000 5.000000 -3.020833 0 0 0 0 0.000000 0.000000 0.000000 0.000000
7.239000 -1.828801 5.105400 0.000000 1.000000 0.000000 1.000000 0.000000 0.000000 5.000000 -2.020833 0 0 0 0 0.000000 0.000000 0.000000 0.000000
IndexCount: 252
3 1 0
3 2 1
7 5 4
7 6 5
11 9 8
11 10 9
15 13 12
15 14 13
19 17 16
19 18 17
23 21 20
23 22 21
27 25 24
27 26 25
31 29 28
31 30 29
35 33 32
35 34 33
39 37 36
39 38 37
43 41 40
43 42 41
47 45 44
47 46 45
51 49 48
51 50 49
55 53 52
55 54 53
59 57 56
59 58 57
63 61 60
63 62 61
67 65 64
67 66 65
71 69 68
71 70 69
75 73 72
75 74 73
79 77 76
79 78 77
83 81 80
83 82 81
87 85 84
87 86 85
91 89 88
91 90 89
95 93 92
95 94 93
99 97 96
99 98 97
103 101 100
103 102 101
107 105 104
107 106 105
111 109 108
111 110 109
115 113 112
115 114 113
119 117 116
119 118 117
123 121 120
123 122 121
127 125 124
127 126 125
131 129 128
131 130 129
135 133 132
135 134 133
139 137 136
139 138 137
143 141 140
143 142 141
147 145 144
147 146 145
151 149 148
151 150 149
155 153 152
155 154 153
159 157 156
159 158 157
163 161 160
163 162 161
167 165 164
167 166 165