VertexCount: 117
-2.743201 -1.524003 14.630399 0.000000 -1.000000 -0.000000 1.000000 0.000000 -0.000000 -2.000000 -10.000000 0 0 0 0 0.000000 0.000000 0.000000 0.000000
-3.962401 -1.524003 14.630399 0.000000 -1.000000 -0.000000 1.000000 0.000000 -0.000000 -3.000000 -10.000000 0 0 0 0 0.000000 0.000000 0.000000 0.000000
-3.962401 -1.524003 16.154400 0.000000 -1.000000 -0.000000 1.000000 0.000000 -0.000000 -3.000000 -11.000000 0 0 0 0 0.000000 0.000000 0.000000 0.000000
-2.743201 -1.524003 16.154400 0.000000 -1.000000 -0.000000 1.000000 0.000000 -0.000000 -2.000000 -11.000000 0 0 0 0 0.000000 0.000000 0.000000 0.000000
-6.400801 -1.524003 14.630399 0.000000 -1.000000 -0.000000 1.000000 0.000000 0.000002 -5.000000 -10.000000 0 0 0 0 0.000000 0.000000 0.000000 0.000000
-7.010401 -1.524003 14.630398 0.000000 -1.000000 -0.000000 1.000000 0.000000 0.000001 -5.500000 -10.000000 0 0 0 0 0.000000 0.000000 0.000000 0.000000
-7.010401 -1.524003 16.154398 0.000000 -1.000000 -0.000000 1.000000 0.000000 0.000001 -5.500000 -11.000000 0 0 0 0 0.000000 0.000000 0.000000 0.000000
-6.400801 -1.524003 16.154400 0.000000 -1.000000 -0.000000 1.000000 0.000000 0.000002 -5.000000 -11.000000 0 0 0 0 0.000000 0.000000 0.000000 0.000000
-7.620001 -1.524003 14.630398 0.000000 -1.000000 -0.000000 1.000000 0.000000 0.000000 -6.000000 -10.000000 0 0 0 0 0.000000 0.000000 0.000000 0.000000
-7.620001 -1.524003 16.154398 0.000000 -1.000000 -0.000000 1.000000 0.000000 -0.000000 -6.000000 -11.000000 0 0 0 0 0.000000 0.000000 0.000000 0.000000
-7.924800 -0.609602 9.143999 0.000000 -1.000000 -0.000000 0.000000 -0.000000 1.000000 7.000000 -6.000000 0 0 0 0 0.000000 0.000000 0.000000 0.000000
-7.924800 -0.609602 7.924799 0.000000 -1.000000 -0.000000 0.000000 -0.000000 1.000000 6.000000 -6.000000 0 0 0 0 0.000000 0.000000 0.000000 0.000000
-9.448800 -0.609602 7.924799 0.000000 -1.000000 -0.000000 -0.000000 -0.000000 1.000000 6.000000 -7.000000 0 0 0 0 0.000000 0.000000 0.000000 0.000000
-9.448800 -0.609602 9.143999 0.000000 -1.000000 -0.000000 0.000000 -0.000000 1.000000 7.000000 -7.000000 0 0 0 0 0.000000 0.000000 0.000000 0.000000
-7.924800 -0.609601 4.267200 0.000000 -1.000000 -0.000000 -0.000001 -0.000000 1.000000 3.000000 -6.000000 0 0 0 0 0.000000 0.000000 0.000000 0.000000
-7.924799 -0.609601 3.048000 0.000000 -1.000000 -0.000000 -0.000001 -0.000000 1.000000 2.000000 -6.000000 0 0 0 0 0.000000 0.000000 0.000000 0.000000
-9.448800 -0.609601 3.047999 0.000000 -1.000000 -0.000000 -0.000001 -0.000000 1.000000 2.000000 -7.000000 0 0 0 0 0.000000 0.000000 0.000000 0.000000
-9.448800 -0.609601 4.267199 0.000000 -1.000000 -0.000000 -0.000001 -0.000000 1.000000 3.000000 -7.000000 0 0 0 0 0.000000 0.000000 0.000000 0.000000
-10.363200 -0.438150 -3.543301 0.000000 -1.000000 -0.000000 1.000000 0.000000 0.000000 -7.515625 2.525000 0 0 0 0 0.000000 0.000000 0.000000 0.000000
-10.629900 -0.438150 -3.543301 0.000000 -1.000000 -0.000000 1.000000 0.000000 0.000000 -7.734375 2.525000 0 0 0 0 0.000000 0.000000 0.000000 0.000000
-10.629900 -0.438151 -2.628901 0.000000 -1.000000 -0.000000 1.000000 0.000000 0.000000 -7.734375 2.025000 0 0 0 0 0.000000 0.000000 0.000000 0.000000
-10.363200 -0.438151 -2.628901 0.000000 -1.000000 -0.000000 1.000000 0.000000 0.000000 -7.515625 2.025000 0 0 0 0 0.000000 0.000000 0.000000 0.000000
7.467602 1.066804 -18.592798 0.000000 -1.000000 -0.000000 1.000000 0.000000 0.000002 6.281250 12.300000 0 0 0 0 0.000000 0.000000 0.000000 0.000000
6.781802 1.066804 -18.592800 0.000000 -1.000000 -0.000000 1.000000 0.000000 0.000002 5.718750 12.300000 0 0 0 0 0.000000 0.000000 0.000000 0.000000
6.781802 1.066803 -17.373600 0.000000 -1.000000 -0.000000 1.000000 0.000000 0.000002 5.718750 11.500000 0 0 0 0 0.000000 0.000000 0.000000 0.000000
7.467601 1.066803 -17.373598 0.000000 -1.000000 -0.000000 1.000000 0.000000 0.000002 6.281250 11.500000 0 0 0 0 0.000000 0.000000 0.000000 0.000000
7.467602 1.066804 -23.012400 0.000000 -1.000000 -0.000000 1.000000 0.000000 -0.000000 6.281250 15.200000 0 0 0 0 0.000000 0.000000 0.000000 0.000000
6.781802 1.066804 -23.012400 0.000000 -1.000000 -0.000000 1.000000 0.000000 -0.000000 5.718750 15.200000 0 0 0 0 0.000000 0.000000 0.000000 0.000000
6.781802 1.066804 -21.793200 0.000000 -1.000000 -0.000000 1.000000 0.000000 -0.000000 5.718750 14.400000 0 0 0 0 0.000000 0.000000 0.000000 0.000000
7.467602 1.066804 -21.793200 0.000000 -1.000000 -0.000000 1.000000 0.000000 -0.000000 6.281250 14.400000 0 0 0 0 0.000000 0.000000 0.000000 0.000000
-5.714999 -1.066799 -7.315200 0.000000 -1.000000 -0.000000 -0.000000 -0.000000 1.000000 -6.000000 -4.012500 0 0 0 0 0.000000 0.000000 0.000000 0.000000
-5.714999 -1.066799 -8.534400 0.000000 -1.000000 -0.000000 -0.000000 -0.000000 1.000000 -7.000000 -4.012500 0 0 0 0 0.000000 0.000000 0.000000 0.000000
-7.238999 -1.066799 -8.534400 0.000000 -1.000000 -0.000000 -0.000000 -0.000000 1.000000 -7.000000 -5.012500 0 0 0 0 0.000000 0.000000 0.000000 0.000000
-7.238999 -1.066799 -7.315200 0.000000 -1.000000 -0.000000 -0.000000 -0.000000 1.000000 -6.000000 -5.012500 0 0 0 0 0.000000 0.000000 0.000000 0.000000
-5.714999 -1.066800 -3.657601 0.000000 -1.000000 -0.000000 -0.000000 -0.000000 1.000000 -3.000000 -4.012500 0 0 0 0 0.000000 0.000000 0.000000 0.000000
-5.714999 -1.066800 -4.876801 0.000000 -1.000000 -0.000000 -0.000000 -0.000000 1.000000 -4.000000 -4.012500 0 0 0 0 0.000000 0.000000 0.000000 0.000000
-7.238999 -1.066800 -4.876801 0.000000 -1.000000 -0.000000 0.000000 -0.000000 1.000000 -4.000000 -5.012500 0 0 0 0 0.000000 0.000000 0.000000 0.000000
-7.238999 -1.066800 -3.657601 0.000000 -1.000000 -0.000000 -0.000000 -0.000000 1.000000 -3.000000 -5.012500 0 0 0 0 0.000000 0.000000 0.000000 0.000000
-10.363200 -0.438150 -4.381501 0.000000 -1.000000 -0.000000 1.000000 0.000000 0.000000 -7.515625 2.983333 0 0 0 0 0.000000 0.000000 0.000000 0.000000
-10.629900 -0.438150 -4.381501 0.000000 -1.000000 -0.000000 1.000000 0.000000 -0.000000 -7.734375 2.983333 0 0 0 0 0.000000 0.000000 0.000000 0.000000
-10.363199 -0.438149 -10.134600 0.000000 -1.000000 -0.000000 1.000000 0.000000 0.000002 -7.515625 5.979167 0 0 0 0 0.000000 0.000000 0.000000 0.000000
-10.629898 -0.438149 -10.134601 0.000000 -1.000000 -0.000000 1.000000 0.000000 0.000002 -7.734375 5.979167 0 0 0 0 0.000000 0.000000 0.000000 0.000000
-10.629898 -0.438150 -8.382001 0.000000 -1.000000 -0.000000 1.000000 0.000000 0.000002 -7.734375 5.020833 0 0 0 0 0.000000 0.000000 0.000000 0.000000
-10.363199 -0.438150 -8.382001 0.000000 -1.000000 -0.000000 1.000000 0.000000 0.000002 -7.515625 5.020833 0 0 0 0 0.000000 0.000000 0.000000 0.000000
-10.363199 -0.438148 -15.849601 0.000000 -1.000000 -0.000000 1.000000 0.000000 -0.000000 -7.515625 8.979166 0 0 0 0 0.000000 0.000000 0.000000 0.000000
-10.629898 -0.438148 -15.849601 0.000000 -1.000000 -0.000000 1.000000 0.000000 -0.000000 -7.734375 8.979166 0 0 0 0 0.000000 0.000000 0.000000 0.000000
-10.629898 -0.438149 -14.249401 0.000000 -1.000000 -0.000000 1.000000 0.000000 0.000000 -7.734375 8.104166 0 0 0 0 0.000000 0.000000 0.000000 0.000000
-10.629898 -0.438149 -14.097000 0.000000 -1.000000 -0.000000 1.000000 0.000000 0.000046 -7.734375 8.020833 0 0 0 0 0.000000 0.000000 0.000000 0.000000
-10.363199 -0.438149 -14.097000 0.000000 -1.000000 -0.000000 1.000000 0.000000 0.000000 -7.515625 8.020833 0 0 0 0 0.000000 0.000000 0.000000 0.000000
-13.716002 -1.524004 14.630398 0.000000 -1.000000 -0.000000 1.000000 0.000000 -0.000000 -11.000000 -10.000000 0 0 0 0 0.000000 0.000000 0.000000 0.000000
-14.935201 -1.524004 14.630398 0.000000 -1.000000 -0.000000 1.000000 0.000000 -0.000000 -12.000000 -10.000000 0 0 0 0 0.000000 0.000000 0.000000 0.000000
-14.935201 -1.524004 16.154398 0.000000 -1.000000 -0.000000 1.000000 0.000000 -0.000000 -12.000000 -11.000000 0 0 0 0 0.000000 0.000000 0.000000 0.000000
-13.716002 -1.524004 16.154398 0.000000 -1.000000 -0.000000 1.000000 0.000000 -0.000000 -11.000000 -11.000000 0 0 0 0 0.000000 0.000000 0.000000 0.000000
-21.031202 -1.524004 14.630397 0.000000 -1.000000 -0.000000 1.000000 0.000000 0.000000 -17.000000 -10.000000 0 0 0 0 0.000000 0.000000 0.000000 0.000000
-22.250402 -1.524004 14.630397 0.000000 -1.000000 -0.000000 1.000000 0.000000 0.000000 -18.000000 -10.000000 0 0 0 0 0.000000 0.000000 0.000000 0.000000
-22.250402 -1.524005 16.154396 0.000000 -1.000000 -0.000000 1.000000 0.000000 -0.000000 -18.000000 -11.000000 0 0 0 0 0.000000 0.000000 0.000000 0.000000
-21.031202 -1.524004 16.154396 0.000000 -1.000000 -0.000000 1.000000 0.000000 0.000000 -17.000000 -11.000000 0 0 0 0 0.000000 0.000000 0.000000 0.000000
-17.373600 -1.524004 14.630398 0.000000 -1.000000 -0.000000 1.000000 0.000000 0.000000 -14.000000 -10.000000 0 0 0 0 0.000000 0.000000 0.000000 0.000000
-18.529554 -1.524004 14.630398 0.000000 -1.000000 -0.000000 1.000000 0.000000 0.000000 -14.948125 -10.000000 0 0 0 0 0.000000 0.000000 0.000000 0.000000
-18.592802 -1.524004 14.630398 0.000000 -1.000000 -0.000000 1.000000 0.000000 0.000000 -15.000000 -10.000000 0 0 0 0 0.000000 0.000000 0.000000 0.000000
-18.592802 -1.524004 16.154398 0.000000 -1.000000 -0.000000 1.000000 0.000000 0.000000 -15.000000 -11.000000 0 0 0 0 0.000000 0.000000 0.000000 0.000000
-17.373600 -1.524004 16.154398 0.000000 -1.000000 -0.000000 1.000000 0.000000 -0.000000 -14.000000 -11.000000 0 0 0 0 0.000000 0.000000 0.000000 0.000000
-12.954001 -0.609603 9.143999 0.000000 -1.000000 -0.000000 0.000000 -0.000000 1.000000 8.000000 -8.000000 0 0 0 0 0.000000 0.000000 0.000000 0.000000
-12.954001 -0.609602 7.924798 0.000000 -1.000000 -0.000000 0.000000 -0.000000 1.000000 7.000000 -8.000000 0 0 0 0 0.000000 0.000000 0.000000 0.000000
-13.106401 -0.609602 7.924798 0.000000 -1.000000 -0.000000 0.000000 -0.000000 1.000000 7.000000 -8.100000 0 0 0 0 0.000000 0.000000 0.000000 0.000000
-14.478002 -0.609603 7.924798 0.000000 -1.000000 -0.000000 -0.000001 -0.000000 1.000000 7.000000 -9.000000 0 0 0 0 0.000000 0.000000 0.000000 0.000000
-14.478002 -0.609603 9.143999 0.000000 -1.000000 -0.000000 0.000000 -0.000000 1.000000 8.000000 -9.000000 0 0 0 0 0.000000 0.000000 0.000000 0.000000
-13.106401 -0.609603 9.143999 0.000000 -1.000000 -0.000000 -1.000000 -0.000000 -0.000000 8.000000 -8.100000 0 0 0 0 0.000000 0.000000 0.000000 0.000000
-12.954000 -0.609602 4.267199 0.000000 -1.000000 -0.000000 0.000000 -0.000000 1.000000 4.000000 -8.000000 0 0 0 0 0.000000 0.000000 0.000000 0.000000
-12.954000 -0.609602 3.047999 0.000000 -1.000000 -0.000000 0.000000 -0.000000 1.000000 3.000000 -8.000000 0 0 0 0 0.000000 0.000000 0.000000 0.000000
-13.106400 -0.609602 3.047999 0.000000 -1.000000 -0.000000 0.000000 -0.000000 1.000000 3.000000 -8.100000 0 0 0 0 0.000000 0.000000 0.000000 0.000000
-14.478001 -0.609602 3.047999 0.000000 -1.000000 -0.000000 -0.000001 -0.000000 1.000000 3.000000 -9.000000 0 0 0 0 0.000000 0.000000 0.000000 0.000000
-14.478001 -0.609602 4.267199 0.000000 -1.000000 -0.000000 0.000000 -0.000000 1.000000 4.000000 -9.000000 0 0 0 0 0.000000 0.000000 0.000000 0.000000
-13.106400 -0.609602 4.267199 0.000000 -1.000000 -0.000000 -1.000000 -0.000000 -0.000000 4.000000 -8.100000 0 0 0 0 0.000000 0.000000 0.000000 0.000000
-12.687300 -0.438151 -3.543301 0.000000 -1.000000 -0.000000 1.000000 0.000000 0.000000 -9.375000 2.525000 0 0 0 0 0.000000 0.000000 0.000000 0.000000
-13.144499 -0.438151 -3.543301 0.000000 -1.000000 -0.000000 1.000000 0.000000 0.000000 -9.750000 2.525000 0 0 0 0 0.000000 0.000000 0.000000 0.000000
-13.144499 -0.438151 -2.628901 0.000000 -1.000000 -0.000000 1.000000 0.000000 0.000000 -9.750000 2.025000 0 0 0 0 0.000000 0.000000 0.000000 0.000000
-12.687300 -0.438151 -2.628901 0.000000 -1.000000 -0.000000 1.000000 0.000000 0.000000 -9.375000 2.025000 0 0 0 0 0.000000 0.000000 0.000000 0.000000
-10.820400 -0.438150 -3.543301 0.000000 -1.000000 -0.000000 1.000000 0.000000 -0.000000 -7.890625 2.525000 0 0 0 0 0.000000 0.000000 0.000000 0.000000
-10.820400 -0.438151 -2.628901 0.000000 -1.000000 -0.000000 1.000000 0.000000 -0.000000 -7.890625 2.025000 0 0 0 0 0.000000 0.000000 0.000000 0.000000
-33.832802 -2.514605 11.887198 0.000000 -1.000000 -0.000000 0.000000 -0.000000 1.000000 10.000000 -22.012501 0 0 0 0 0.000000 0.000000 0.000000 0.000000
-33.832802 -2.514605 10.667997 0.000000 -1.000000 -0.000000 0.000000 -0.000000 1.000000 9.000000 -22.012501 0 0 0 0 0.000000 0.000000 0.000000 0.000000
-35.356800 -2.514605 10.667996 0.000000 -1.000000 -0.000000 0.000000 -0.000000 1.000000 9.000000 -23.012501 0 0 0 0 0.000000 0.000000 0.000000 0.000000
-35.356800 -2.514605 11.582396 0.000000 -1.000000 -0.000000 -0.000000 -0.000000 1.000000 9.750000 -23.012501 0 0 0 0 0.000000 0.000000 0.000000 0.000000
-35.356800 -2.514605 11.887197 0.000000 -1.000000 -0.000000 0.000000 -0.000000 1.000000 10.000000 -23.012501 0 0 0 0 0.000000 0.000000 0.000000 0.000000
-33.832802 -2.514604 8.229596 0.000000 -1.000000 -0.000000 -0.000000 -0.000000 1.000000 7.000000 -22.012501 0 0 0 0 0.000000 0.000000 0.000000 0.000000
-33.832802 -2.514604 8.077196 0.000000 -1.000000 -0.000000 -0.000000 -0.000000 1.000000 6.875000 -22.012501 0 0 0 0 0.000000 0.000000 0.000000 0.000000
-33.832802 -2.514604 7.315196 0.000000 -1.000000 -0.000000 -0.000000 -0.000000 1.000000 6.250000 -22.012501 0 0 0 0 0.000000 0.000000 0.000000 0.000000
-35.356800 -2.514604 7.315196 0.000000 -1.000000 -0.000000 0.000000 -0.000000 1.000000 6.250000 -23.012501 0 0 0 0 0.000000 0.000000 0.000000 0.000000
-35.356800 -2.514604 8.229596 0.000000 -1.000000 -0.000000 -0.000000 -0.000000 1.000000 7.000000 -23.012501 0 0 0 0 0.000000 0.000000 0.000000 0.000000
-33.832802 -2.514604 4.571997 0.000000 -1.000000 -0.000000 0.000000 -0.000000 1.000000 4.000000 -22.012501 0 0 0 0 0.000000 0.000000 0.000000 0.000000
-33.832802 -2.514604 4.114797 0.000000 -1.000000 -0.000000 0.000000 -0.000000 1.000000 3.625000 -22.012501 0 0 0 0 0.000000 0.000000 0.000000 0.000000
-33.832802 -2.514604 3.352797 0.000000 -1.000000 -0.000000 0.000000 -0.000000 1.000000 3.000000 -22.012501 0 0 0 0 0.000000 0.000000 0.000000 0.000000
-35.356800 -2.514604 3.352797 0.000000 -1.000000 -0.000000 0.000000 -0.000000 1.000000 3.000000 -23.012501 0 0 0 0 0.000000 0.000000 0.000000 0.000000
-35.356800 -2.514604 3.962396 0.000000 -1.000000 -0.000000 0.000000 -0.000000 1.000000 3.500000 -23.012501 0 0 0 0 0.000000 0.000000 0.000000 0.000000
-35.356800 -2.514604 4.571997 0.000000 -1.000000 -0.000000 -0.000000 -0.000000 1.000000 4.000000 -23.012501 0 0 0 0 0.000000 0.000000 0.000000 0.000000
-33.832802 -2.514604 7.315196 0.000000 -1.000000 -0.000000 0.000000 -0.000000 1.000000 6.250000 -22.012501 0 0 0 0 0.000000 0.000000 0.000000 0.000000
-33.832802 -2.514604 7.010396 0.000000 -1.000000 -0.000000 0.000000 -0.000000 1.000000 6.000000 -22.012501 0 0 0 0 0.000000 0.000000 0.000000 0.000000
-35.356800 -2.514604 7.010396 0.000000 -1.000000 -0.000000 0.000000 -0.000000 1.000000 6.000000 -23.012501 0 0 0 0 0.000000 0.000000 0.000000 0.000000
-10.820400 -0.438150 -4.381501 0.000000 -1.000000 -0.000000 1.000000 0.000000 0.000000 -7.890625 2.983333 0 0 0 0 0.000000 0.000000 0.000000 0.000000
-12.687300 -0.438150 -4.381501 0.000000 -1.000000 -0.000000 1.000000 0.000000 0.000000 -9.375000 2.983333 0 0 0 0 0.000000 0.000000 0.000000 0.000000
-13.144499 -0.438150 -4.381501 0.000000 -1.000000 -0.000000 1.000000 0.000000 0.000000 -9.750000 2.983333 0 0 0 0 0.000000 0.000000 0.000000 0.000000
-10.820399 -0.438149 -10.134601 0.000000 -1.000000 -0.000000 1.000000 0.000000 -0.000000 -7.890625 5.979167 0 0 0 0 0.000000 0.000000 0.000000 0.000000
-10.820399 -0.438150 -8.382001 0.000000 -1.000000 -0.000000 1.000000 0.000000 0.000000 -7.890625 5.020833 0 0 0 0 0.000000 0.000000 0.000000 0.000000
-12.687299 -0.438149 -10.134601 0.000000 -1.000000 -0.000000 1.000000 0.000000 0.000000 -9.515625 5.979167 0 0 0 0 0.000000 0.000000 0.000000 0.000000
-13.144498 -0.438150 -10.134601 0.000000 -1.000000 -0.000000 1.000000 0.000000 0.000000 -9.890625 5.979167 0 0 0 0 0.000000 0.000000 0.000000 0.000000
-13.144498 -0.438150 -8.382001 0.000000 -1.000000 -0.000000 1.000000 0.000000 0.000000 -9.890625 5.020833 0 0 0 0 0.000000 0.000000 0.000000 0.000000
-12.687299 -0.438150 -8.382001 0.000000 -1.000000 -0.000000 1.000000 0.000000 0.000000 -9.515625 5.020833 0 0 0 0 0.000000 0.000000 0.000000 0.000000
-12.687299 -0.438149 -14.249401 0.000000 -1.000000 -0.000000 1.000000 0.000000 0.000000 -9.515625 8.104166 0 0 0 0 0.000000 0.000000 0.000000 0.000000
-13.144498 -0.438149 -14.249401 0.000000 -1.000000 -0.000000 1.000000 0.000000 0.000000 -9.890625 8.104166 0 0 0 0 0.000000 0.000000 0.000000 0.000000
-13.144498 -0.438149 -14.097000 0.000000 -1.000000 -0.000000 1.000000 0.000000 0.000000 -9.890625 8.020833 0 0 0 0 0.000000 0.000000 0.000000 0.000000
-12.687299 -0.438149 -14.097000 0.000000 -1.000000 -0.000000 1.000000 0.000000 0.000000 -9.515625 8.020833 0 0 0 0 0.000000 0.000000 0.000000 0.000000
-10.820399 -0.438149 -14.249401 0.000000 -1.000000 -0.000000 1.000000 0.000000 0.000000 -7.890625 8.104166 0 0 0 0 0.000000 0.000000 0.000000 0.000000
-10.820399 -0.438149 -14.097000 0.000000 -1.000000 -0.000000 1.000000 0.000000 -0.000000 -7.890625 8.020833 0 0 0 0 0.000000 0.000000 0.000000 0.000000
-10.820399 -0.438148 -15.849601 0.000000 -1.000000 -0.000000 1.000000 0.000000 0.000000 -7.890625 8.979166 0 0 0 0 0.000000 0.000000 0.000000 0.000000
-12.687299 -0.438149 -15.849601 0.000000 -1.000000 -0.000000 1.000000 0.000000 0.000000 -9.515625 8.979166 0 0 0 0 0.000000 0.000000 0.000000 0.000000
-13.144498 -0.438149 -15.849601 0.000000 -1.000000 -0.000000 1.000000 0.000000 0.000000 -9.890625 8.979166 0 0 0 0 0.000000 0.000000 0.000000 0.000000
IndexCount: 222
3 1 0
3 2 1
7 5 4
7 6 5
6 8 5
6 9 8
13 11 10
13 12 11
17 15 14
17 16 15
21 19 18
19 38 18
21 20 19
19 39 38
20 78 19
78 39 19
20 79 78
78 99 39
25 23 22
25 24 23
29 27 26
29 28 27
33 31 30
33 32 31
37 35 34
37 36 35
43 41 40
43 42 41
42 102 41
42 103 102
44 48 47
44 47 46
46 45 44
47 113 112
47 112 46
112 45 46
112 114 45
52 50 49
52 51 50
56 54 53
56 55 54
57 61 60
57 60 59
59 58 57
62 67 66
62 66 65
62 65 64
64 63 62
68 73 72
68 72 71
68 71 70
70 69 68
77 75 74
75 100 74
77 76 75
75 101 100
80 84 83
80 83 82
82 81 80
85 89 88
85 88 87
87 86 85
88 98 97
88 97 96
90 95 94
90 94 93
90 93 92
92 91 90
107 105 104
107 106 105
111 109 108
109 115 108
111 110 109
109 116 115
