VertexCount: 8
-5.791200 -3.962401 4.952999 0.000000 -1.000000 -0.000000 1.000000 0.000000 0.000000 -3.859375 -7.718750 0 0 0 0 0.000000 0.000000 0.000000 0.000000
-5.943600 -3.962401 4.952999 0.000000 -1.000000 -0.000000 1.000000 0.000000 0.000000 -3.984375 -7.718750 0 0 0 0 0.000000 0.000000 0.000000 0.000000
-5.943600 -3.962401 5.600699 0.000000 -1.000000 -0.000000 1.000000 0.000000 0.000000 -3.984375 -8.781250 0 0 0 0 0.000000 0.000000 0.000000 0.000000
-5.791200 -3.962401 5.600699 0.000000 -1.000000 -0.000000 1.000000 0.000000 0.000000 -3.859375 -8.781250 0 0 0 0 0.000000 0.000000 0.000000 0.000000
-5.943601 -3.352801 4.952999 -1.000000 -0.000000 -0.000000 -0.000000 -0.000000 1.000000 2.990057 6.000000 0 0 0 0 0.000000 0.000000 0.000000 0.000000
-5.943601 -2.743201 4.952999 -1.000000 -0.000000 -0.000000 -0.000000 -0.000000 1.000000 2.990057 5.000000 0 0 0 0 0.000000 0.000000 0.000000 0.000000
-5.943601 -2.743201 5.600699 -1.000000 -0.000000 -0.000000 -0.000000 -0.000000 1.000000 3.473011 5.000000 0 0 0 0 0.000000 0.000000 0.000000 0.000000
-5.943601 -3.352801 5.600699 -1.000000 -0.000000 -0.000000 -0.000000 -0.000000 1.000000 3.473011 6.000000 0 0 0 0 0.000000 0.000000 0.000000 0.000000
IndexCount: 12
3 2 1
3 1 0
7 6 5
7 5 4
