VertexCount: 76
15.697198 -4.572000 7.315200 -0.000000 1.000000 0.000000 -0.000000 -0.000000 1.000000 6.770198 15.216845 0 0 0 0 0.000000 0.000000 0.000000 0.000000
15.697198 -4.572000 7.543800 -0.000000 1.000000 0.000000 -0.000000 -0.000000 1.000000 6.998857 15.216845 0 0 0 0 0.000000 0.000000 0.000000 0.000000
14.325599 -4.572000 7.543800 -0.000000 1.000000 0.000000 0.000000 -0.000000 1.000000 6.998857 13.844893 0 0 0 0 0.000000 0.000000 0.000000 0.000000
14.325599 -4.572000 7.315200 -0.000000 1.000000 0.000000 -0.000000 -0.000000 1.000000 6.770198 13.844893 0 0 0 0 0.000000 0.000000 0.000000 0.000000
13.932407 -4.572000 7.315200 -0.000000 1.000000 0.000000 -0.000000 -0.000000 1.000000 6.785823 13.529726 0 0 0 0 0.000000 0.000000 0.000000 0.000000
14.325599 -4.572000 7.315200 -0.000000 1.000000 0.000000 -0.000000 -0.000000 1.000000 6.785823 13.923018 0 0 0 0 0.000000 0.000000 0.000000 0.000000
14.325599 -4.572000 7.543800 -0.000000 1.000000 0.000000 0.000000 -0.000000 1.000000 7.014482 13.923018 0 0 0 0 0.000000 0.000000 0.000000 0.000000
13.932407 -4.572000 7.543800 -0.000000 1.000000 0.000000 0.000000 -0.000000 1.000000 7.014482 13.529726 0 0 0 0 0.000000 0.000000 0.000000 0.000000
10.433302 -4.572001 7.315199 -0.000000 1.000000 0.000000 -0.000000 -0.000000 1.000000 6.785823 10.029726 0 0 0 0 0.000000 0.000000 0.000000 0.000000
10.433302 -4.572001 7.543800 -0.000000 1.000000 0.000000 0.000000 -0.000000 1.000000 7.014482 10.029726 0 0 0 0 0.000000 0.000000 0.000000 0.000000
6.934200 -4.572001 7.543800 -0.000000 1.000000 0.000000 0.000000 -0.000000 1.000000 7.014482 6.529726 0 0 0 0 0.000000 0.000000 0.000000 0.000000
6.934200 -4.572001 7.315199 -0.000000 1.000000 0.000000 0.000000 -0.000000 1.000000 6.785823 6.529726 0 0 0 0 0.000000 0.000000 0.000000 0.000000
5.638800 -5.638801 7.315199 1.000000 0.000000 0.000000 -0.000000 1.000000 0.000001 -6.171494 6.832698 0 0 0 0 0.000000 0.000000 0.000000 0.000000
5.638800 -5.638801 7.543799 1.000000 0.000000 0.000000 -0.000000 1.000000 0.000001 -6.171494 7.061357 0 0 0 0 0.000000 0.000000 0.000000 0.000000
5.638800 -4.572001 7.543800 1.000000 0.000000 0.000000 -0.000000 1.000000 0.000001 -5.104421 7.061357 0 0 0 0 0.000000 0.000000 0.000000 0.000000
5.638800 -4.572001 7.315199 1.000000 0.000000 0.000000 -0.000000 1.000000 0.000001 -5.104421 6.832698 0 0 0 0 0.000000 0.000000 0.000000 0.000000
6.248400 -4.572001 7.315199 -1.000000 -0.000000 -0.000000 -0.000000 1.000000 0.000001 -5.104421 6.832698 0 0 0 0 0.000000 0.000000 0.000000 0.000000
6.248400 -4.572001 7.543800 -1.000000 -0.000000 -0.000000 -0.000000 1.000000 0.000001 -5.104421 7.061357 0 0 0 0 0.000000 0.000000 0.000000 0.000000
6.248400 -5.638801 7.543799 -1.000000 -0.000000 -0.000000 -0.000000 1.000000 0.000001 -6.171494 7.061357 0 0 0 0 0.000000 0.000000 0.000000 0.000000
6.248400 -5.638801 7.315199 -1.000000 -0.000000 -0.000000 -0.000000 1.000000 0.000001 -6.171494 6.832698 0 0 0 0 0.000000 0.000000 0.000000 0.000000
6.667500 -4.572001 7.543800 -0.000000 1.000000 0.000000 0.000000 -0.000000 1.000000 7.014482 6.262958 0 0 0 0 0.000000 0.000000 0.000000 0.000000
6.553200 -4.572001 7.543800 -0.000000 1.000000 0.000000 -0.000005 -0.000000 1.000000 7.014482 6.148628 0 0 0 0 0.000000 0.000000 0.000000 0.000000
6.400800 -4.572001 7.543800 -0.000000 1.000000 0.000000 -0.000004 -0.000000 1.000000 7.014482 5.996189 0 0 0 0 0.000000 0.000000 0.000000 0.000000
6.400800 -4.572001 7.315199 -0.000000 1.000000 0.000000 0.000000 -0.000000 1.000000 6.785823 5.996189 0 0 0 0 0.000000 0.000000 0.000000 0.000000
15.697200 -4.572000 4.495800 -0.000000 1.000000 0.000000 -0.000000 -0.000000 1.000000 3.950076 15.216845 0 0 0 0 0.000000 0.000000 0.000000 0.000000
14.325601 -4.572000 4.495800 -0.000000 1.000000 0.000000 -0.000000 -0.000000 1.000000 3.950076 13.844893 0 0 0 0 0.000000 0.000000 0.000000 0.000000
13.932408 -4.572000 4.495800 -0.000000 1.000000 0.000000 -0.000000 -0.000000 1.000000 3.965701 13.529726 0 0 0 0 0.000000 0.000000 0.000000 0.000000
14.325601 -4.572000 4.495800 -0.000000 1.000000 0.000000 -0.000000 -0.000000 1.000000 3.965701 13.923018 0 0 0 0 0.000000 0.000000 0.000000 0.000000
10.433303 -4.572000 4.495800 -0.000000 1.000000 0.000000 -0.000000 -0.000000 1.000000 3.965701 10.029726 0 0 0 0 0.000000 0.000000 0.000000 0.000000
6.934200 -4.572001 4.724400 -0.000000 1.000000 0.000000 -0.000000 -0.000000 1.000000 4.194360 6.529726 0 0 0 0 0.000000 0.000000 0.000000 0.000000
6.934200 -4.572000 4.495800 -0.000000 1.000000 0.000000 -0.000000 -0.000000 1.000000 3.965701 6.529726 0 0 0 0 0.000000 0.000000 0.000000 0.000000
5.638800 -5.638800 4.495800 1.000000 0.000000 0.000000 -0.000000 1.000000 0.000001 -6.171494 4.012576 0 0 0 0 0.000000 0.000000 0.000000 0.000000
5.638800 -4.572001 4.724400 1.000000 0.000000 0.000000 -0.000000 1.000000 0.000000 -5.104421 4.241235 0 0 0 0 0.000000 0.000000 0.000000 0.000000
5.638800 -4.572001 4.495800 1.000000 0.000000 0.000000 -0.000000 1.000000 0.000000 -5.104421 4.012576 0 0 0 0 0.000000 0.000000 0.000000 0.000000
6.248400 -5.638800 4.495800 -1.000000 -0.000000 -0.000000 -0.000000 1.000000 0.000000 -6.171494 4.012576 0 0 0 0 0.000000 0.000000 0.000000 0.000000
6.248400 -4.572001 4.495800 -1.000000 -0.000000 -0.000000 -0.000000 1.000000 0.000001 -5.104421 4.012576 0 0 0 0 0.000000 0.000000 0.000000 0.000000
6.248400 -4.572001 4.724400 -1.000000 -0.000000 -0.000000 0.000000 0.000000 -1.000000 -5.104421 4.241235 0 0 0 0 0.000000 0.000000 0.000000 0.000000
6.400800 -4.572001 4.724400 -0.000000 1.000000 0.000000 0.000000 -0.000000 1.000000 4.194360 5.996189 0 0 0 0 0.000000 0.000000 0.000000 0.000000
6.515100 -4.572001 4.724400 -0.000000 1.000000 0.000000 -1.000000 -0.000000 -0.000000 4.194360 6.110518 0 0 0 0 0.000000 0.000000 0.000000 0.000000
6.515100 -4.572001 4.724400 -0.000000 1.000000 0.000000 -0.000000 -0.000000 1.000000 4.194360 6.110518 0 0 0 0 0.000000 0.000000 0.000000 0.000000
6.667500 -4.572000 4.495800 -0.000000 1.000000 0.000000 0.000003 -0.000000 1.000000 3.965701 6.262958 0 0 0 0 0.000000 0.000000 0.000000 0.000000
-1.066798 -4.114797 -21.640800 -0.000000 1.000000 0.000000 1.000000 0.000000 -0.000000 -0.750000 17.000000 0 0 0 0 0.000000 0.000000 0.000000 0.000000
-0.152398 -4.114796 -21.640800 -0.000000 1.000000 0.000000 1.000000 0.000000 -0.000000 0.000000 17.000000 0 0 0 0 0.000000 0.000000 0.000000 0.000000
-0.152398 -4.114797 -20.421600 -0.000000 1.000000 0.000000 1.000000 0.000000 0.000000 0.000000 16.000000 0 0 0 0 0.000000 0.000000 0.000000 0.000000
-1.066798 -4.114797 -20.421600 -0.000000 1.000000 0.000000 1.000000 0.000000 -0.000000 -0.750000 16.000000 0 0 0 0 0.000000 0.000000 0.000000 0.000000
-2.285998 -4.114797 -21.640800 -0.000000 1.000000 0.000000 1.000000 0.000000 0.000000 -1.750000 17.000000 0 0 0 0 0.000000 0.000000 0.000000 0.000000
-1.981198 -4.114797 -21.640800 -0.000000 1.000000 0.000000 1.000000 0.000000 0.000000 -1.500000 17.000000 0 0 0 0 0.000000 0.000000 0.000000 0.000000
-1.981198 -4.114797 -20.421600 -0.000000 1.000000 0.000000 1.000000 0.000000 -0.000000 -1.500000 16.000000 0 0 0 0 0.000000 0.000000 0.000000 0.000000
-2.285998 -4.114797 -20.421600 -0.000000 1.000000 0.000000 1.000000 0.000000 0.000000 -1.750000 16.000000 0 0 0 0 0.000000 0.000000 0.000000 0.000000
-6.553197 -4.114797 -21.640800 -0.000000 1.000000 0.000000 -1.000000 -0.000000 -0.000000 -5.250000 17.000000 0 0 0 0 0.000000 0.000000 0.000000 0.000000
-6.248398 -4.114797 -21.640800 -0.000000 1.000000 0.000000 -1.000000 -0.000000 -0.000000 -5.000000 17.000000 0 0 0 0 0.000000 0.000000 0.000000 0.000000
-4.419598 -4.114797 -21.640800 -0.000000 1.000000 0.000000 -1.000000 -0.000000 -0.000000 -3.500000 17.000000 0 0 0 0 0.000000 0.000000 0.000000 0.000000
-4.114798 -4.114797 -21.640800 -0.000000 1.000000 0.000000 -1.000000 -0.000000 0.000000 -3.250000 17.000000 0 0 0 0 0.000000 0.000000 0.000000 0.000000
-2.285998 -4.114797 -21.640800 -0.000000 1.000000 0.000000 -1.000000 -0.000000 -0.000000 -1.750000 17.000000 0 0 0 0 0.000000 0.000000 0.000000 0.000000
-4.114798 -4.114797 -20.421600 -0.000000 1.000000 0.000000 1.000000 0.000000 0.000000 -3.250000 16.000000 0 0 0 0 0.000000 0.000000 0.000000 0.000000
-4.419598 -4.114797 -20.421600 -0.000000 1.000000 0.000000 1.000000 0.000000 0.000000 -3.500000 16.000000 0 0 0 0 0.000000 0.000000 0.000000 0.000000
-6.248398 -4.114797 -20.421600 -0.000000 1.000000 0.000000 1.000000 0.000000 -0.000000 -5.000000 16.000000 0 0 0 0 0.000000 0.000000 0.000000 0.000000
-6.553197 -4.114797 -20.421600 -0.000000 1.000000 0.000000 1.000000 0.000000 0.000000 -5.250000 16.000000 0 0 0 0 0.000000 0.000000 0.000000 0.000000
-10.629897 -4.114797 -21.640800 -0.000000 1.000000 0.000000 -1.000000 -0.000000 -0.000000 -8.593750 17.000000 0 0 0 0 0.000000 0.000000 0.000000 0.000000
-8.686797 -4.114797 -21.640800 -0.000000 1.000000 0.000000 -1.000000 -0.000000 -0.000000 -7.000000 17.000000 0 0 0 0 0.000000 0.000000 0.000000 0.000000
-8.381997 -4.114797 -21.640800 -0.000000 1.000000 0.000000 -1.000000 -0.000000 -0.000000 -6.750000 17.000000 0 0 0 0 0.000000 0.000000 0.000000 0.000000
-6.553197 -4.114797 -21.640800 -0.000000 1.000000 0.000000 1.000000 0.000000 0.000000 -5.250000 17.000000 0 0 0 0 0.000000 0.000000 0.000000 0.000000
-8.381997 -4.114797 -20.421602 -0.000000 1.000000 0.000000 1.000000 0.000000 0.000001 -6.750000 16.000000 0 0 0 0 0.000000 0.000000 0.000000 0.000000
-8.686797 -4.114798 -20.421602 -0.000000 1.000000 0.000000 1.000000 0.000000 -0.000000 -7.000000 16.000000 0 0 0 0 0.000000 0.000000 0.000000 0.000000
-10.629898 -4.114798 -20.421602 -0.000000 1.000000 0.000000 1.000000 0.000000 -0.000000 -8.593750 16.000000 0 0 0 0 0.000000 0.000000 0.000000 0.000000
-10.629897 -4.114797 -21.640800 -0.000000 1.000000 0.000000 1.000000 0.000000 -0.000000 -8.593750 17.000000 0 0 0 0 0.000000 0.000000 0.000000 0.000000
-11.125198 -4.114798 -20.421602 -0.000000 1.000000 0.000000 1.000000 0.000000 -0.000001 -9.000000 16.000000 0 0 0 0 0.000000 0.000000 0.000000 0.000000
-12.344398 -4.114798 -21.640800 -0.000000 1.000000 0.000000 1.000000 0.000000 0.000000 -10.000000 17.000000 0 0 0 0 0.000000 0.000000 0.000000 0.000000
-11.887198 -4.114798 -21.640800 -0.000000 1.000000 0.000000 -1.000000 -0.000000 -0.000000 -9.625000 17.000000 0 0 0 0 0.000000 0.000000 0.000000 0.000000
-11.582397 -4.114798 -21.640800 -0.000000 1.000000 0.000000 1.000000 0.000000 -0.000000 -9.375000 17.000000 0 0 0 0 0.000000 0.000000 0.000000 0.000000
-11.125198 -4.114798 -17.983202 -0.000000 1.000000 0.000000 1.000000 0.000000 0.000000 -9.000000 14.000000 0 0 0 0 0.000000 0.000000 0.000000 0.000000
-12.344399 -4.114798 -17.983202 -0.000000 1.000000 0.000000 1.000000 0.000000 0.000000 -10.000000 14.000000 0 0 0 0 0.000000 0.000000 0.000000 0.000000
-12.344399 -4.114798 -18.592802 -0.000000 1.000000 0.000000 1.000000 0.000000 -0.000000 -10.000000 14.500000 0 0 0 0 0.000000 0.000000 0.000000 0.000000
-12.344399 -4.114798 -18.897602 -0.000000 1.000000 0.000000 1.000000 0.000000 0.000000 -10.000000 14.750000 0 0 0 0 0.000000 0.000000 0.000000 0.000000
-11.125198 -4.114798 -18.897602 -0.000000 1.000000 0.000000 1.000000 0.000000 0.000000 -9.000000 14.750000 0 0 0 0 0.000000 0.000000 0.000000 0.000000
-11.125198 -4.114798 -18.592802 -0.000000 1.000000 0.000000 0.000000 0.000000 -1.000000 -9.000000 14.500000 0 0 0 0 0.000000 0.000000 0.000000 0.000000
IndexCount: 198
3 1 0
25 3 0
25 0 24
3 2 1
7 5 4
9 7 4
9 4 8
27 26 4
27 4 5
26 8 4
7 6 5
11 9 8
26 28 8
8 28 30
8 30 29
29 11 8
11 10 9
20 10 11
11 21 20
11 22 21
11 23 22
23 11 29
29 38 37
29 37 23
30 39 29
30 40 39
15 13 12
15 12 31
15 14 13
31 32 15
31 33 32
19 17 16
16 36 35
35 19 16
19 18 17
35 34 19
44 42 41
44 41 46
44 43 42
45 47 44
44 46 45
45 48 47
49 54 48
49 48 53
49 57 56
49 56 55
49 55 54
53 50 49
53 52 51
53 51 50
58 62 57
58 57 61
58 64 63
58 63 62
58 61 60
60 59 58
69 66 64
69 64 65
69 68 67
69 67 66
74 66 67
74 67 73
70 75 74
74 73 72
74 72 71
74 71 70
