VertexCount: 4
-11.277597 -2.438397 -22.250401 -0.000000 -0.000000 1.000000 -1.000000 0.000000 -0.000000 12.000000 4.000000 0 0 0 0 0.000000 0.000000 0.000000 0.000000
-11.277597 -3.047997 -22.250401 -0.000000 -0.000000 1.000000 -1.000000 0.000000 -0.000000 12.000000 5.000000 0 0 0 0 0.000000 0.000000 0.000000 0.000000
-12.191998 -3.047998 -22.250401 -0.000000 -0.000000 1.000000 -1.000000 -0.000000 -0.000000 13.000000 5.000000 0 0 0 0 0.000000 0.000000 0.000000 0.000000
-12.191998 -2.438397 -22.250401 -0.000000 -0.000000 1.000000 -1.000000 0.000000 -0.000000 13.000000 4.000000 0 0 0 0 0.000000 0.000000 0.000000 0.000000
IndexCount: 6
3 2 1
3 1 0
