VertexCount: 277
10.439401 -1.219196 -17.373598 -0.000000 1.000000 0.000000 1.000000 0.000000 -0.000000 9.187500 7.625000 0 0 0 0 0.000000 0.000000 0.000000 0.000000
9.829801 -1.219196 -17.373598 -0.000000 1.000000 0.000000 1.000000 0.000000 -0.000000 8.687500 7.625000 0 0 0 0 0.000000 0.000000 0.000000 0.000000
9.829802 -1.219196 -19.202398 -0.000000 1.000000 0.000000 1.000000 0.000000 -0.000000 8.687500 8.375000 0 0 0 0 0.000000 0.000000 0.000000 0.000000
10.439401 -1.219196 -19.202398 -0.000000 1.000000 0.000000 1.000000 0.000000 -0.000000 9.187500 8.375000 0 0 0 0 0.000000 0.000000 0.000000 0.000000
10.439402 -1.219196 -21.031200 -0.000000 1.000000 0.000000 1.000000 0.000000 -0.000000 9.187500 9.125000 0 0 0 0 0.000000 0.000000 0.000000 0.000000
9.829802 -1.219196 -21.031200 -0.000000 1.000000 0.000000 1.000000 0.000000 -0.000000 8.687500 9.125000 0 0 0 0 0.000000 0.000000 0.000000 0.000000
9.829802 -1.219195 -22.859999 -0.000000 1.000000 0.000000 1.000000 0.000000 -0.000000 8.687500 9.875000 0 0 0 0 0.000000 0.000000 0.000000 0.000000
10.439402 -1.219195 -22.859999 -0.000000 1.000000 0.000000 1.000000 0.000000 -0.000000 9.187500 9.875000 0 0 0 0 0.000000 0.000000 0.000000 0.000000
9.220202 -4.114796 -17.373600 -0.000000 1.000000 0.000000 1.000000 0.000000 0.000000 7.562500 7.375000 0 0 0 0 0.000000 0.000000 0.000000 0.000000
9.220203 -4.114796 -19.202400 -0.000000 1.000000 0.000000 1.000000 0.000000 0.000000 7.562500 8.125000 0 0 0 0 0.000000 0.000000 0.000000 0.000000
9.525002 -4.114796 -19.202400 -0.000000 1.000000 0.000000 1.000000 0.000000 0.000000 7.812500 8.125000 0 0 0 0 0.000000 0.000000 0.000000 0.000000
9.829802 -4.114796 -19.202400 -0.000000 1.000000 0.000000 1.000000 0.000000 0.000000 8.062500 8.125000 0 0 0 0 0.000000 0.000000 0.000000 0.000000
9.829802 -4.114796 -17.373600 -0.000000 1.000000 0.000000 1.000000 0.000000 0.000000 8.062500 7.375000 0 0 0 0 0.000000 0.000000 0.000000 0.000000
7.467602 -4.114797 -17.373600 -0.000000 1.000000 0.000000 1.000000 0.000000 -0.000000 6.125000 7.375000 0 0 0 0 0.000000 0.000000 0.000000 0.000000
6.781802 -4.114797 -17.373600 -0.000000 1.000000 0.000000 1.000000 0.000000 0.000002 5.562500 7.375000 0 0 0 0 0.000000 0.000000 0.000000 0.000000
4.953002 -4.114797 -17.373600 -0.000000 1.000000 0.000000 1.000000 0.000000 0.000000 4.062500 7.375000 0 0 0 0 0.000000 0.000000 0.000000 0.000000
4.953002 -4.114796 -19.202400 -0.000000 1.000000 0.000000 1.000000 0.000000 0.000000 4.062500 8.125000 0 0 0 0 0.000000 0.000000 0.000000 0.000000
9.220203 -4.114795 -22.859999 -0.000000 1.000000 0.000000 -1.000000 -0.000000 -0.000000 7.562500 9.625000 0 0 0 0 0.000000 0.000000 0.000000 0.000000
9.525002 -4.114795 -22.859999 -0.000000 1.000000 0.000000 -1.000000 -0.000000 -0.000000 7.812500 9.625000 0 0 0 0 0.000000 0.000000 0.000000 0.000000
9.829802 -4.114795 -22.859999 -0.000000 1.000000 0.000000 -1.000000 -0.000000 -0.000000 8.062500 9.625000 0 0 0 0 0.000000 0.000000 0.000000 0.000000
9.829802 -4.114796 -21.031200 -0.000000 1.000000 0.000000 1.000000 0.000000 0.000000 8.062500 8.875000 0 0 0 0 0.000000 0.000000 0.000000 0.000000
9.525002 -4.114796 -21.031200 -0.000000 1.000000 0.000000 1.000000 0.000000 0.000000 7.812500 8.875000 0 0 0 0 0.000000 0.000000 0.000000 0.000000
9.220203 -4.114796 -21.031200 -0.000000 1.000000 0.000000 1.000000 0.000000 0.000000 7.562500 8.875000 0 0 0 0 0.000000 0.000000 0.000000 0.000000
9.220203 -4.114795 -22.859999 -0.000000 1.000000 0.000000 1.000000 0.000000 0.000000 7.562500 9.625000 0 0 0 0 0.000000 0.000000 0.000000 0.000000
4.953002 -4.114796 -21.031200 -0.000000 1.000000 0.000000 1.000000 0.000000 0.000000 4.062500 8.875000 0 0 0 0 0.000000 0.000000 0.000000 0.000000
4.953002 -4.114796 -22.250401 -0.000000 1.000000 0.000000 1.000000 0.000000 -0.000000 4.062500 9.375000 0 0 0 0 0.000000 0.000000 0.000000 0.000000
4.953002 -4.114796 -22.859999 -0.000000 1.000000 0.000000 1.000000 0.000000 -0.000000 4.062500 9.625000 0 0 0 0 0.000000 0.000000 0.000000 0.000000
4.953002 -4.114796 -19.812002 -0.000000 1.000000 0.000000 1.000000 0.000000 0.000000 4.062500 8.375000 0 0 0 0 0.000000 0.000000 0.000000 0.000000
9.220203 -4.114796 -21.031200 -0.000000 1.000000 0.000000 -1.000000 -0.000000 -0.000000 7.562500 8.875000 0 0 0 0 0.000000 0.000000 0.000000 0.000000
9.525002 -4.114795 -22.859999 -0.000000 1.000000 0.000000 1.000000 0.000000 0.000000 7.812500 9.625000 0 0 0 0 0.000000 0.000000 0.000000 0.000000
9.220203 -4.114795 -22.859999 -0.000000 1.000000 0.000000 1.000000 0.000000 0.000000 7.562500 9.625000 0 0 0 0 0.000000 0.000000 0.000000 0.000000
4.953002 -4.114796 -22.859999 -0.000000 1.000000 0.000000 1.000000 0.000000 0.000000 4.062500 9.625000 0 0 0 0 0.000000 0.000000 0.000000 0.000000
4.953002 -4.114795 -24.536398 -0.000000 1.000000 0.000000 1.000000 0.000000 -0.000000 4.062500 10.312500 0 0 0 0 0.000000 0.000000 0.000000 0.000000
4.953002 -4.114795 -24.688801 -0.000000 1.000000 0.000000 1.000000 0.000000 -0.000004 4.062500 10.375000 0 0 0 0 0.000000 0.000000 0.000000 0.000000
8.915403 -4.114795 -24.688801 -0.000000 1.000000 0.000000 1.000000 0.000000 0.000000 7.312500 10.375000 0 0 0 0 0.000000 0.000000 0.000000 0.000000
9.525003 -4.114795 -24.688801 -0.000000 1.000000 0.000000 1.000000 0.000000 0.000000 7.812500 10.375000 0 0 0 0 0.000000 0.000000 0.000000 0.000000
4.648202 -4.114797 -17.373600 -0.000000 1.000000 0.000000 1.000000 0.000000 0.000000 3.812500 7.375000 0 0 0 0 0.000000 0.000000 0.000000 0.000000
4.495802 -4.114797 -17.373600 -0.000000 1.000000 0.000000 1.000000 0.000000 0.000000 3.687500 7.375000 0 0 0 0 0.000000 0.000000 0.000000 0.000000
4.495802 -4.114796 -19.202400 -0.000000 1.000000 0.000000 1.000000 0.000000 0.000000 3.687500 8.125000 0 0 0 0 0.000000 0.000000 0.000000 0.000000
4.648202 -4.114796 -19.202400 -0.000000 1.000000 0.000000 1.000000 0.000000 0.000000 3.812500 8.125000 0 0 0 0 0.000000 0.000000 0.000000 0.000000
4.648202 -4.114796 -22.250401 -0.000000 1.000000 0.000000 1.000000 0.000000 0.000000 3.812500 9.375000 0 0 0 0 0.000000 0.000000 0.000000 0.000000
4.648202 -4.114796 -19.812002 -0.000000 1.000000 0.000000 1.000000 0.000000 0.000000 3.812500 8.375000 0 0 0 0 0.000000 0.000000 0.000000 0.000000
4.495802 -4.114796 -19.202400 -0.000000 1.000000 0.000000 1.000000 0.000000 0.000000 5.062500 8.375000 0 0 0 0 0.000000 0.000000 0.000000 0.000000
4.495802 -4.114797 -17.373600 -0.000000 1.000000 0.000000 1.000000 0.000000 0.000000 5.062500 7.625000 0 0 0 0 0.000000 0.000000 0.000000 0.000000
2.819402 -4.114797 -17.373600 -0.000000 1.000000 0.000000 1.000000 0.000000 -0.000000 3.687500 7.625000 0 0 0 0 0.000000 0.000000 0.000000 0.000000
2.819402 -4.114797 -19.202400 -0.000000 1.000000 0.000000 1.000000 0.000000 -0.000000 3.687500 8.375000 0 0 0 0 0.000000 0.000000 0.000000 0.000000
3.886201 -1.523997 -18.135601 0.000000 -1.000000 -0.000000 0.000000 -0.000000 1.000000 -15.375000 2.171875 0 0 0 0 0.000000 0.000000 0.000000 0.000000
3.886201 -1.523997 -18.516600 0.000000 -1.000000 -0.000000 0.000000 -0.000000 1.000000 -15.687500 2.171875 0 0 0 0 0.000000 0.000000 0.000000 0.000000
3.438527 -1.523997 -18.516600 0.000000 -1.000000 -0.000000 -0.000000 -0.000000 1.000000 -15.687500 1.988281 0 0 0 0 0.000000 0.000000 0.000000 0.000000
3.438527 -1.523997 -18.135601 0.000000 -1.000000 -0.000000 0.000000 -0.000000 1.000000 -15.375000 1.988281 0 0 0 0 0.000000 0.000000 0.000000 0.000000
4.267201 -1.523997 -18.135601 0.000000 -1.000000 -0.000000 0.000000 -0.000000 1.000000 -15.375000 2.328125 0 0 0 0 0.000000 0.000000 0.000000 0.000000
4.648201 -1.523997 -18.135601 0.000000 -1.000000 -0.000000 0.000000 -0.000000 1.000000 -15.375000 2.484375 0 0 0 0 0.000000 0.000000 0.000000 0.000000
4.648201 -1.523997 -18.516600 0.000000 -1.000000 -0.000000 -0.000000 -0.000000 1.000000 -15.687500 2.484375 0 0 0 0 0.000000 0.000000 0.000000 0.000000
4.267201 -1.523997 -18.516600 0.000000 -1.000000 -0.000000 0.000000 -0.000000 1.000000 -15.687500 2.328125 0 0 0 0 0.000000 0.000000 0.000000 0.000000
4.648201 -1.523997 -18.135601 0.000000 -1.000000 -0.000000 1.000000 0.000000 0.000000 -15.375000 2.484375 0 0 0 0 0.000000 0.000000 0.000000 0.000000
4.267201 -1.523997 -18.135601 0.000000 -1.000000 -0.000000 1.000000 0.000000 0.000000 -15.375000 2.328125 0 0 0 0 0.000000 0.000000 0.000000 0.000000
3.886201 -1.523997 -18.135601 0.000000 -1.000000 -0.000000 1.000000 0.000000 0.000000 -15.375000 2.171875 0 0 0 0 0.000000 0.000000 0.000000 0.000000
3.438527 -1.523997 -18.135601 0.000000 -1.000000 -0.000000 -1.000000 -0.000000 -0.000000 -15.375000 1.988281 0 0 0 0 0.000000 0.000000 0.000000 0.000000
3.438527 -1.523997 -17.373600 0.000000 -1.000000 -0.000000 0.000000 -0.000000 1.000000 -14.750000 1.988281 0 0 0 0 0.000000 0.000000 0.000000 0.000000
4.495801 -1.523997 -17.373600 0.000000 -1.000000 -0.000000 0.000000 -0.000000 1.000000 -14.750000 2.421875 0 0 0 0 0.000000 0.000000 0.000000 0.000000
4.648201 -1.523997 -17.373600 0.000000 -1.000000 -0.000000 -0.000000 -0.000000 1.000000 -14.750000 2.484375 0 0 0 0 0.000000 0.000000 0.000000 0.000000
4.648201 -1.523997 -18.592800 0.000000 -1.000000 -0.000000 -0.000000 -0.000000 1.000000 -15.750000 2.484375 0 0 0 0 0.000000 0.000000 0.000000 0.000000
4.648202 -1.523997 -19.202400 0.000000 -1.000000 -0.000000 -0.000001 -0.000000 1.000000 -16.250000 2.484375 0 0 0 0 0.000000 0.000000 0.000000 0.000000
3.438527 -1.523997 -19.202400 0.000000 -1.000000 -0.000000 -0.000000 -0.000000 1.000000 -16.250000 1.988281 0 0 0 0 0.000000 0.000000 0.000000 0.000000
3.886201 -1.523997 -18.516600 0.000000 -1.000000 -0.000000 -1.000000 -0.000000 -0.000000 -15.687500 2.171875 0 0 0 0 0.000000 0.000000 0.000000 0.000000
4.267201 -1.523997 -18.516600 0.000000 -1.000000 -0.000000 -1.000000 -0.000000 -0.000000 -15.687500 2.328125 0 0 0 0 0.000000 0.000000 0.000000 0.000000
2.819402 -0.571496 -21.564600 -0.000000 -0.000000 1.000000 1.000000 -0.000000 0.000000 2.312500 0.304688 0 0 0 0 0.000000 0.000000 0.000000 0.000000
2.933702 -0.571496 -21.564600 -0.000000 -0.000000 1.000000 1.000000 -0.000000 0.000000 2.406250 0.304688 0 0 0 0 0.000000 0.000000 0.000000 0.000000
2.933702 -1.828796 -21.564600 -0.000000 -0.000000 1.000000 1.000000 -0.000000 0.000000 2.406250 0.820312 0 0 0 0 0.000000 0.000000 0.000000 0.000000
2.819402 -1.828796 -21.564600 -0.000000 -0.000000 1.000000 1.000000 -0.000000 0.000000 2.312500 0.820312 0 0 0 0 0.000000 0.000000 0.000000 0.000000
2.933702 -0.571496 -20.459700 0.000000 0.000000 -1.000000 1.000000 -0.000000 0.000000 2.406250 0.304688 0 0 0 0 0.000000 0.000000 0.000000 0.000000
2.819402 -0.571496 -20.459700 0.000000 0.000000 -1.000000 1.000000 -0.000000 0.000000 2.312500 0.304688 0 0 0 0 0.000000 0.000000 0.000000 0.000000
2.819402 -1.828796 -20.459700 0.000000 0.000000 -1.000000 1.000000 0.000001 0.000000 2.312500 0.820312 0 0 0 0 0.000000 0.000000 0.000000 0.000000
2.933702 -1.828796 -20.459700 0.000000 0.000000 -1.000000 1.000000 -0.000000 0.000000 2.406250 0.820312 0 0 0 0 0.000000 0.000000 0.000000 0.000000
3.352802 -0.571496 -21.145500 -1.000000 -0.000000 -0.000000 -0.000000 -0.000000 1.000000 -17.343750 0.304688 0 0 0 0 0.000000 0.000000 0.000000 0.000000
3.352802 -0.571496 -20.878798 -1.000000 -0.000000 -0.000000 -0.000000 -0.000000 1.000000 -17.125000 0.304688 0 0 0 0 0.000000 0.000000 0.000000 0.000000
3.352802 -1.828796 -20.878798 -1.000000 -0.000000 -0.000000 -0.000000 -0.000000 1.000000 -17.125000 0.820312 0 0 0 0 0.000000 0.000000 0.000000 0.000000
3.352802 -1.828796 -21.145500 -1.000000 -0.000000 -0.000000 -0.000000 -0.000000 1.000000 -17.343750 0.820312 0 0 0 0 0.000000 0.000000 0.000000 0.000000
3.200402 -0.571496 -20.612099 -0.868242 0.000000 -0.496140 -0.496140 -0.000000 0.868243 -16.906250 0.304688 0 0 0 0 0.000000 0.000000 0.000000 0.000000
3.200402 -1.828796 -20.612099 -0.868242 0.000000 -0.496140 -0.496140 -0.000000 0.868243 -16.906250 0.820312 0 0 0 0 0.000000 0.000000 0.000000 0.000000
3.352802 -1.828796 -20.878798 -0.868242 0.000000 -0.496140 -0.496140 0.000000 0.868243 -17.125000 0.820312 0 0 0 0 0.000000 0.000000 0.000000 0.000000
3.352802 -0.571496 -20.878798 -0.868242 0.000000 -0.496140 -0.496140 -0.000000 0.868243 -17.125000 0.304688 0 0 0 0 0.000000 0.000000 0.000000 0.000000
3.352802 -0.571496 -21.145500 -0.868244 -0.000000 0.496137 0.496137 -0.000000 0.868244 -17.343750 0.304688 0 0 0 0 0.000000 0.000000 0.000000 0.000000
3.352802 -1.828796 -21.145500 -0.868244 -0.000000 0.496137 0.496137 -0.000000 0.868244 -17.343750 0.820312 0 0 0 0 0.000000 0.000000 0.000000 0.000000
3.200402 -1.828796 -21.412201 -0.868244 -0.000000 0.496137 0.496137 -0.000000 0.868244 -17.562500 0.820312 0 0 0 0 0.000000 0.000000 0.000000 0.000000
3.200402 -0.571496 -21.412201 -0.868244 -0.000000 0.496137 0.496137 -0.000000 0.868244 -17.562500 0.304688 0 0 0 0 0.000000 0.000000 0.000000 0.000000
2.933702 -0.571496 -20.459700 -0.496141 0.000000 -0.868242 0.868242 0.000000 -0.496141 2.406250 0.304688 0 0 0 0 0.000000 0.000000 0.000000 0.000000
2.933702 -1.828796 -20.459700 -0.496141 0.000000 -0.868242 0.868242 0.000000 -0.496141 2.406250 0.820312 0 0 0 0 0.000000 0.000000 0.000000 0.000000
3.200402 -1.828796 -20.612099 -0.496141 0.000000 -0.868242 0.868242 0.000000 -0.496141 2.625000 0.820312 0 0 0 0 0.000000 0.000000 0.000000 0.000000
3.200402 -0.571496 -20.612099 -0.496141 0.000000 -0.868242 0.868242 0.000000 -0.496141 2.625000 0.304688 0 0 0 0 0.000000 0.000000 0.000000 0.000000
3.200402 -0.571496 -21.412201 -0.496137 -0.000000 0.868244 0.868244 -0.000000 0.496137 2.625000 0.304688 0 0 0 0 0.000000 0.000000 0.000000 0.000000
3.200402 -1.828796 -21.412201 -0.496137 -0.000000 0.868244 0.868244 -0.000000 0.496137 2.625000 0.820312 0 0 0 0 0.000000 0.000000 0.000000 0.000000
2.933702 -1.828796 -21.564600 -0.496137 -0.000000 0.868244 0.868244 -0.000000 0.496137 2.406250 0.820312 0 0 0 0 0.000000 0.000000 0.000000 0.000000
2.933702 -0.571496 -21.564600 -0.496137 -0.000000 0.868244 0.868244 -0.000000 0.496137 2.406250 0.304688 0 0 0 0 0.000000 0.000000 0.000000 0.000000
4.495802 -4.114796 -22.859999 -0.000000 1.000000 0.000000 1.000000 0.000000 -0.000000 3.687500 9.625000 0 0 0 0 0.000000 0.000000 0.000000 0.000000
4.495802 -4.114796 -24.536398 -0.000000 1.000000 0.000000 1.000000 0.000000 -0.000000 3.687500 10.312500 0 0 0 0 0.000000 0.000000 0.000000 0.000000
4.648202 -4.114796 -24.536398 -0.000000 1.000000 0.000000 -1.000000 -0.000000 0.000000 3.812500 10.312500 0 0 0 0 0.000000 0.000000 0.000000 0.000000
4.648202 -4.114795 -24.688801 -0.000000 1.000000 0.000000 1.000000 0.000000 0.000000 3.812500 10.375000 0 0 0 0 0.000000 0.000000 0.000000 0.000000
4.648202 -4.114796 -24.536398 -0.000000 1.000000 0.000000 1.000000 0.000000 0.000000 3.812500 10.312500 0 0 0 0 0.000000 0.000000 0.000000 0.000000
4.495802 -4.114796 -24.536398 -0.000000 1.000000 0.000000 1.000000 0.000000 -0.000000 5.062500 10.312500 0 0 0 0 0.000000 0.000000 0.000000 0.000000
4.495802 -4.114796 -22.859999 -0.000000 1.000000 0.000000 1.000000 0.000000 -0.000000 5.062500 9.625000 0 0 0 0 0.000000 0.000000 0.000000 0.000000
2.819402 -4.114796 -22.859999 -0.000000 1.000000 0.000000 1.000000 0.000000 0.000000 3.687500 9.625000 0 0 0 0 0.000000 0.000000 0.000000 0.000000
2.819402 -4.114796 -24.536398 -0.000000 1.000000 0.000000 1.000000 0.000000 0.000000 3.687500 10.312500 0 0 0 0 0.000000 0.000000 0.000000 0.000000
4.648202 -1.523996 -23.964899 0.000000 -1.000000 -0.000000 -0.000000 -0.000000 1.000000 -20.656250 2.484375 0 0 0 0 0.000000 0.000000 0.000000 0.000000
4.648202 -1.523996 -24.536398 0.000000 -1.000000 -0.000000 -0.000000 -0.000000 1.000000 -21.125000 2.484375 0 0 0 0 0.000000 0.000000 0.000000 0.000000
3.438527 -1.523996 -24.536398 0.000000 -1.000000 -0.000000 -0.000000 -0.000000 1.000000 -21.125000 1.988281 0 0 0 0 0.000000 0.000000 0.000000 0.000000
3.438527 -1.523996 -23.964899 0.000000 -1.000000 -0.000000 0.000000 -0.000000 1.000000 -20.656250 1.988281 0 0 0 0 0.000000 0.000000 0.000000 0.000000
3.886202 -1.523996 -23.964899 0.000000 -1.000000 -0.000000 -1.000000 -0.000000 -0.000000 -20.656250 2.171875 0 0 0 0 0.000000 0.000000 0.000000 0.000000
4.267202 -1.523996 -23.964899 0.000000 -1.000000 -0.000000 -1.000000 -0.000000 -0.000000 -20.656250 2.328125 0 0 0 0 0.000000 0.000000 0.000000 0.000000
4.648202 -1.523996 -23.583900 0.000000 -1.000000 -0.000000 1.000000 0.000000 -0.000000 -20.343750 2.484375 0 0 0 0 0.000000 0.000000 0.000000 0.000000
4.267202 -1.523996 -23.583900 0.000000 -1.000000 -0.000000 1.000000 0.000000 -0.000000 -20.343750 2.328125 0 0 0 0 0.000000 0.000000 0.000000 0.000000
3.886202 -1.523996 -23.583900 0.000000 -1.000000 -0.000000 1.000000 0.000000 -0.000000 -20.343750 2.171875 0 0 0 0 0.000000 0.000000 0.000000 0.000000
3.438527 -1.523996 -23.583900 0.000000 -1.000000 -0.000000 -1.000000 -0.000000 0.000000 -20.343750 1.988281 0 0 0 0 0.000000 0.000000 0.000000 0.000000
3.438527 -1.523996 -22.859999 0.000000 -1.000000 -0.000000 -0.000000 -0.000000 1.000000 -19.750000 1.988281 0 0 0 0 0.000000 0.000000 0.000000 0.000000
4.648202 -1.523996 -22.859999 0.000000 -1.000000 -0.000000 -0.000000 -0.000000 1.000000 -19.750000 2.484375 0 0 0 0 0.000000 0.000000 0.000000 0.000000
4.267202 -1.523996 -23.583900 0.000000 -1.000000 -0.000000 0.000000 -0.000000 1.000000 -20.343750 2.328125 0 0 0 0 0.000000 0.000000 0.000000 0.000000
4.648202 -1.523996 -23.583900 0.000000 -1.000000 -0.000000 0.000000 -0.000000 1.000000 -20.343750 2.484375 0 0 0 0 0.000000 0.000000 0.000000 0.000000
4.267202 -1.523996 -23.964899 0.000000 -1.000000 -0.000000 0.000000 -0.000000 1.000000 -20.656250 2.328125 0 0 0 0 0.000000 0.000000 0.000000 0.000000
3.886202 -1.523996 -23.583900 0.000000 -1.000000 -0.000000 -0.000000 -0.000000 1.000000 -20.343750 2.171875 0 0 0 0 0.000000 0.000000 0.000000 0.000000
3.886202 -1.523996 -23.964899 0.000000 -1.000000 -0.000000 -0.000000 -0.000000 1.000000 -20.656250 2.171875 0 0 0 0 0.000000 0.000000 0.000000 0.000000
3.438527 -1.523996 -23.583900 0.000000 -1.000000 -0.000000 -0.000000 -0.000000 1.000000 -20.343750 1.988281 0 0 0 0 0.000000 0.000000 0.000000 0.000000
2.628902 -0.571496 -21.564600 -0.000000 -0.000000 1.000000 1.000000 -0.000000 0.000000 2.156250 0.304688 0 0 0 0 0.000000 0.000000 0.000000 0.000000
2.628902 -1.828796 -21.564600 -0.000000 -0.000000 1.000000 1.000000 -0.000000 0.000000 2.156250 0.820312 0 0 0 0 0.000000 0.000000 0.000000 0.000000
2.628902 -0.571496 -20.459700 0.000000 0.000000 -1.000000 1.000000 -0.000000 0.000000 2.156250 0.304688 0 0 0 0 0.000000 0.000000 0.000000 0.000000
2.628902 -1.828796 -20.459700 0.000000 0.000000 -1.000000 1.000000 -0.000000 0.000000 2.156250 0.820312 0 0 0 0 0.000000 0.000000 0.000000 0.000000
2.209802 -1.828796 -21.145500 1.000000 0.000000 0.000000 -0.000000 -0.000000 1.000000 -17.343750 0.820312 0 0 0 0 0.000000 0.000000 0.000000 0.000000
2.209802 -1.828796 -20.878798 1.000000 0.000000 0.000000 -0.000000 -0.000000 1.000000 -17.125000 0.820312 0 0 0 0 0.000000 0.000000 0.000000 0.000000
2.209802 -0.571496 -20.878798 1.000000 0.000000 0.000000 -0.000000 -0.000000 1.000000 -17.125000 0.304688 0 0 0 0 0.000000 0.000000 0.000000 0.000000
2.209802 -0.571496 -21.145500 1.000000 0.000000 0.000000 -0.000000 -0.000000 1.000000 -17.343750 0.304688 0 0 0 0 0.000000 0.000000 0.000000 0.000000
2.362202 -0.571496 -20.612099 0.496141 0.000000 -0.868242 0.868242 -0.000000 0.496141 1.937500 0.304688 0 0 0 0 0.000000 0.000000 0.000000 0.000000
2.362202 -1.828796 -20.612099 0.496141 0.000000 -0.868242 0.868242 -0.000000 0.496141 1.937500 0.820312 0 0 0 0 0.000000 0.000000 0.000000 0.000000
2.628902 -1.828796 -20.459700 0.496141 0.000000 -0.868242 0.868242 -0.000000 0.496141 2.156250 0.820312 0 0 0 0 0.000000 0.000000 0.000000 0.000000
2.628902 -0.571496 -20.459700 0.496141 0.000000 -0.868242 0.868242 -0.000000 0.496141 2.156250 0.304688 0 0 0 0 0.000000 0.000000 0.000000 0.000000
2.628902 -0.571496 -21.564600 0.496137 -0.000000 0.868245 0.868245 0.000000 -0.496137 2.156250 0.304688 0 0 0 0 0.000000 0.000000 0.000000 0.000000
2.628902 -1.828796 -21.564600 0.496137 -0.000000 0.868245 0.868245 0.000000 -0.496137 2.156250 0.820312 0 0 0 0 0.000000 0.000000 0.000000 0.000000
2.362202 -1.828796 -21.412201 0.496137 -0.000000 0.868245 0.868245 0.000000 -0.496137 1.937500 0.820312 0 0 0 0 0.000000 0.000000 0.000000 0.000000
2.362202 -0.571496 -21.412201 0.496137 -0.000000 0.868245 0.868245 0.000000 -0.496137 1.937500 0.304688 0 0 0 0 0.000000 0.000000 0.000000 0.000000
2.209802 -0.571496 -20.878798 0.868242 0.000000 -0.496140 0.496140 -0.000000 0.868242 -17.125000 0.304688 0 0 0 0 0.000000 0.000000 0.000000 0.000000
2.209802 -1.828796 -20.878798 0.868242 0.000000 -0.496140 0.496140 -0.000000 0.868242 -17.125000 0.820312 0 0 0 0 0.000000 0.000000 0.000000 0.000000
2.362202 -1.828796 -20.612099 0.868242 0.000000 -0.496140 0.496140 -0.000000 0.868242 -16.906250 0.820312 0 0 0 0 0.000000 0.000000 0.000000 0.000000
2.362202 -0.571496 -20.612099 0.868242 0.000000 -0.496140 0.496140 -0.000000 0.868242 -16.906250 0.304688 0 0 0 0 0.000000 0.000000 0.000000 0.000000
2.362202 -0.571496 -21.412201 0.868244 -0.000000 0.496138 -0.496138 -0.000000 0.868244 -17.562500 0.304688 0 0 0 0 0.000000 0.000000 0.000000 0.000000
2.362202 -1.828796 -21.412201 0.868244 -0.000000 0.496138 -0.496138 -0.000000 0.868244 -17.562500 0.820312 0 0 0 0 0.000000 0.000000 0.000000 0.000000
2.209802 -1.828796 -21.145500 0.868244 -0.000000 0.496138 -0.496138 0.000000 0.868244 -17.343750 0.820312 0 0 0 0 0.000000 0.000000 0.000000 0.000000
2.209802 -0.571496 -21.145500 0.868244 -0.000000 0.496138 -0.496138 -0.000000 0.868244 -17.343750 0.304688 0 0 0 0 0.000000 0.000000 0.000000 0.000000
-16.459198 -2.286000 -7.696202 1.000000 0.000000 0.000000 -0.000000 -0.000000 1.000000 -5.859375 0.062500 0 0 0 0 0.000000 0.000000 0.000000 0.000000
-16.459198 -4.114800 -7.696202 1.000000 0.000000 0.000000 -0.000000 -0.000000 1.000000 -5.859375 0.812500 0 0 0 0 0.000000 0.000000 0.000000 0.000000
-16.459198 -4.114800 -7.086602 1.000000 0.000000 0.000000 -0.000000 -0.000000 1.000000 -5.359375 0.812500 0 0 0 0 0.000000 0.000000 0.000000 0.000000
-16.459198 -2.286000 -7.086602 1.000000 0.000000 0.000000 -0.000000 -0.000000 1.000000 -5.359375 0.062500 0 0 0 0 0.000000 0.000000 0.000000 0.000000
-15.697198 -2.286000 -7.696202 -0.000000 1.000000 0.000000 1.000000 0.000000 0.000000 -12.421875 2.281250 0 0 0 0 0.000000 0.000000 0.000000 0.000000
-15.697198 -2.286000 -7.086602 -0.000000 1.000000 0.000000 1.000000 0.000000 0.000000 -12.421875 2.031250 0 0 0 0 0.000000 0.000000 0.000000 0.000000
-16.306799 -2.286000 -7.086602 -0.000000 1.000000 0.000000 1.000000 0.000000 -0.000000 -12.921875 2.031250 0 0 0 0 0.000000 0.000000 0.000000 0.000000
-16.306799 -2.286000 -7.696202 -0.000000 1.000000 0.000000 1.000000 0.000000 0.000000 -12.921875 2.281250 0 0 0 0 0.000000 0.000000 0.000000 0.000000
-15.697198 -2.286000 -7.696202 1.000000 0.000000 0.000000 -0.000000 -0.000000 1.000000 -5.859375 0.062500 0 0 0 0 0.000000 0.000000 0.000000 0.000000
-15.697198 -4.114800 -7.696202 1.000000 0.000000 0.000000 -0.000000 -0.000000 1.000000 -5.859375 0.812500 0 0 0 0 0.000000 0.000000 0.000000 0.000000
-15.697198 -4.114800 -7.086602 1.000000 0.000000 0.000000 -0.000000 -0.000001 1.000000 -5.359375 0.812500 0 0 0 0 0.000000 0.000000 0.000000 0.000000
-15.697198 -2.286000 -7.086602 1.000000 0.000000 0.000000 -0.000000 -0.000000 1.000000 -5.359375 0.062500 0 0 0 0 0.000000 0.000000 0.000000 0.000000
-16.306799 -2.286000 -7.086602 -1.000000 -0.000000 -0.000000 -0.000000 -0.000000 1.000000 -5.359375 0.062500 0 0 0 0 0.000000 0.000000 0.000000 0.000000
-16.306799 -4.114800 -7.086602 -1.000000 -0.000000 -0.000000 -0.000000 -0.000000 1.000000 -5.359375 0.812500 0 0 0 0 0.000000 0.000000 0.000000 0.000000
-16.306799 -4.114800 -7.696202 -1.000000 -0.000000 -0.000000 -0.000000 -0.000000 1.000000 -5.859375 0.812500 0 0 0 0 0.000000 0.000000 0.000000 0.000000
-16.306799 -2.286000 -7.696202 -1.000000 -0.000000 -0.000000 -0.000000 -0.000000 1.000000 -5.859375 0.062500 0 0 0 0 0.000000 0.000000 0.000000 0.000000
-15.697198 -2.286000 -7.086602 -0.000000 -0.000000 1.000000 1.000000 0.000000 0.000000 -12.421875 0.062500 0 0 0 0 0.000000 0.000000 0.000000 0.000000
-15.697198 -4.114800 -7.086602 -0.000000 -0.000000 1.000000 1.000000 0.000000 0.000000 -12.421875 0.812500 0 0 0 0 0.000000 0.000000 0.000000 0.000000
-16.306799 -4.114800 -7.086602 -0.000000 -0.000000 1.000000 1.000000 -0.000000 0.000000 -12.921875 0.812500 0 0 0 0 0.000000 0.000000 0.000000 0.000000
-16.306799 -2.286000 -7.086602 -0.000000 -0.000000 1.000000 1.000000 0.000000 0.000000 -12.921875 0.062500 0 0 0 0 0.000000 0.000000 0.000000 0.000000
-17.068798 -2.286000 -7.696202 -0.000000 1.000000 0.000000 1.000000 0.000000 -0.000000 -13.546875 2.281250 0 0 0 0 0.000000 0.000000 0.000000 0.000000
-16.459198 -2.286000 -7.696202 -0.000000 1.000000 0.000000 1.000000 0.000000 -0.000000 -13.046875 2.281250 0 0 0 0 0.000000 0.000000 0.000000 0.000000
-16.459198 -2.286000 -7.086602 -0.000000 1.000000 0.000000 1.000000 0.000000 0.000000 -13.046875 2.031250 0 0 0 0 0.000000 0.000000 0.000000 0.000000
-17.068798 -2.286000 -7.086602 -0.000000 1.000000 0.000000 1.000000 0.000000 -0.000000 -13.546875 2.031250 0 0 0 0 0.000000 0.000000 0.000000 0.000000
-17.068798 -2.286000 -7.086602 -1.000000 -0.000000 -0.000000 -0.000000 -0.000000 1.000000 -5.359375 0.062500 0 0 0 0 0.000000 0.000000 0.000000 0.000000
-17.068798 -4.114800 -7.086602 -1.000000 -0.000000 -0.000000 -0.000000 -0.000000 1.000000 -5.359375 0.812500 0 0 0 0 0.000000 0.000000 0.000000 0.000000
-17.068798 -4.114800 -7.696202 -1.000000 -0.000000 -0.000000 -0.000000 -0.000000 1.000000 -5.859375 0.812500 0 0 0 0 0.000000 0.000000 0.000000 0.000000
-17.068798 -2.286000 -7.696202 -1.000000 -0.000000 -0.000000 -0.000000 -0.000000 1.000000 -5.859375 0.062500 0 0 0 0 0.000000 0.000000 0.000000 0.000000
-17.068798 -2.286000 -7.086602 -0.000000 -0.000000 1.000000 1.000000 -0.000000 0.000000 -13.546875 0.062500 0 0 0 0 0.000000 0.000000 0.000000 0.000000
-16.459198 -2.286000 -7.086602 -0.000000 -0.000000 1.000000 1.000000 -0.000000 0.000000 -13.046875 0.062500 0 0 0 0 0.000000 0.000000 0.000000 0.000000
-16.459198 -4.114800 -7.086602 -0.000000 -0.000000 1.000000 1.000000 -0.000000 0.000000 -13.046875 0.812500 0 0 0 0 0.000000 0.000000 0.000000 0.000000
-17.068798 -4.114800 -7.086602 -0.000000 -0.000000 1.000000 1.000000 -0.000000 0.000000 -13.546875 0.812500 0 0 0 0 0.000000 0.000000 0.000000 0.000000
-12.039599 -1.054035 -17.068800 1.000000 0.000000 0.000000 -0.000000 -0.000000 1.000000 -13.812500 0.979141 0 0 0 0 0.000000 0.000000 0.000000 0.000000
-12.039599 -0.952498 -17.041180 1.000000 0.000000 0.000000 -0.000003 -0.000000 1.000000 -13.789844 0.937500 0 0 0 0 0.000000 0.000000 0.000000 0.000000
-12.039599 -0.952498 -17.068800 1.000000 0.000000 0.000000 -0.000000 -0.000000 1.000000 -13.812500 0.937500 0 0 0 0 0.000000 0.000000 0.000000 0.000000
-12.039599 -0.914398 -17.030701 1.000000 0.000000 0.000008 -0.000008 -0.000000 1.000000 -13.781250 0.921875 0 0 0 0 0.000000 0.000000 0.000000 0.000000
-12.039599 -0.857248 -17.240250 1.000000 0.000000 0.000008 -0.000008 0.000000 1.000000 -13.953125 0.898438 0 0 0 0 0.000000 0.000000 0.000000 0.000000
-12.039599 -0.952498 -17.266157 1.000000 0.000000 0.000008 -0.000008 -0.000000 1.000000 -13.974375 0.937500 0 0 0 0 0.000000 0.000000 0.000000 0.000000
-12.039599 -0.952498 -17.068800 1.000000 0.000000 0.000008 0.000008 0.000000 -1.000000 -13.812500 0.937500 0 0 0 0 0.000000 0.000000 0.000000 0.000000
-11.429998 -0.952498 -17.068800 -1.000000 -0.000000 -0.000000 -0.000000 -0.000000 1.000000 -13.812500 0.937500 0 0 0 0 0.000000 0.000000 0.000000 0.000000
-11.429998 -0.952498 -17.041180 -1.000000 -0.000000 -0.000000 -0.000000 -0.000000 1.000000 -13.789844 0.937500 0 0 0 0 0.000000 0.000000 0.000000 0.000000
-11.429998 -1.054035 -17.068800 -1.000000 -0.000000 -0.000000 -0.000000 -0.000000 1.000000 -13.812500 0.979141 0 0 0 0 0.000000 0.000000 0.000000 0.000000
-11.429998 -0.914398 -17.030701 -1.000000 -0.000000 -0.000000 -0.000000 -0.000000 1.000000 -13.781250 0.921875 0 0 0 0 0.000000 0.000000 0.000000 0.000000
-11.429998 -0.952498 -17.266157 -1.000000 -0.000000 -0.000000 -0.000000 -0.000000 1.000000 -13.974375 0.937500 0 0 0 0 0.000000 0.000000 0.000000 0.000000
-11.429998 -0.857248 -17.240250 -1.000000 -0.000000 -0.000000 -0.000000 -0.000000 1.000000 -13.953125 0.898438 0 0 0 0 0.000000 0.000000 0.000000 0.000000
-11.201399 -0.914398 -17.030701 1.000000 0.000000 0.000000 -0.000000 0.000000 1.000000 -13.781250 0.921875 0 0 0 0 0.000000 0.000000 0.000000 0.000000
-11.201399 -0.857248 -17.240250 1.000000 0.000000 0.000000 -0.000000 0.000000 1.000000 -13.953125 0.898438 0 0 0 0 0.000000 0.000000 0.000000 0.000000
-11.201399 -1.066798 -17.297401 1.000000 0.000000 0.000000 -0.000000 -0.000000 1.000000 -14.000000 0.984375 0 0 0 0 0.000000 0.000000 0.000000 0.000000
-11.201399 -1.123948 -17.087851 1.000000 0.000000 0.000000 -0.000000 0.000000 1.000000 -13.828125 1.007812 0 0 0 0 0.000000 0.000000 0.000000 0.000000
-11.429998 -1.066798 -17.297401 0.000000 0.263119 -0.964763 0.000000 0.964763 0.263119 -0.156250 -4.625000 0 0 0 0 0.000000 0.000000 0.000000 0.000000
-11.201399 -1.066798 -17.297401 0.000000 0.263119 -0.964763 0.000000 0.964763 0.263119 -0.156250 -4.531250 0 0 0 0 0.000000 0.000000 0.000000 0.000000
-11.201399 -0.857248 -17.240250 0.000000 0.263119 -0.964763 0.000000 0.964763 0.263119 0.015625 -4.531250 0 0 0 0 0.000000 0.000000 0.000000 0.000000
-11.429998 -0.857248 -17.240250 0.000000 0.263119 -0.964763 0.000000 0.964763 0.263119 0.015625 -4.625000 0 0 0 0 0.000000 0.000000 0.000000 0.000000
-11.201399 -0.914398 -17.030701 -0.000000 0.964764 0.263118 -0.000000 -0.263118 0.964764 -13.562500 -4.531250 0 0 0 0 0.000000 0.000000 0.000000 0.000000
-11.429998 -0.914398 -17.030701 -0.000000 0.964764 0.263118 -0.000000 -0.263118 0.964764 -13.562500 -4.625000 0 0 0 0 0.000000 0.000000 0.000000 0.000000
-11.429998 -0.857248 -17.240250 -0.000000 0.964764 0.263118 -0.000000 -0.263118 0.964764 -13.734375 -4.625000 0 0 0 0 0.000000 0.000000 0.000000 0.000000
-11.201399 -0.857248 -17.240250 -0.000000 0.964764 0.263118 -0.000000 -0.263118 0.964764 -13.734375 -4.531250 0 0 0 0 0.000000 0.000000 0.000000 0.000000
-11.429998 -1.123948 -17.087851 0.000000 -0.964764 -0.263118 -0.000000 -0.263118 0.964764 -13.609375 -4.625000 0 0 0 0 0.000000 0.000000 0.000000 0.000000
-11.201399 -1.123948 -17.087851 0.000000 -0.964764 -0.263118 -0.000000 -0.263118 0.964764 -13.609375 -4.531250 0 0 0 0 0.000000 0.000000 0.000000 0.000000
-11.201399 -1.066798 -17.297401 0.000000 -0.964764 -0.263118 0.000000 -0.263118 0.964764 -13.781250 -4.531250 0 0 0 0 0.000000 0.000000 0.000000 0.000000
-11.429998 -1.066798 -17.297401 0.000000 -0.964764 -0.263118 -0.000000 -0.263118 0.964764 -13.781250 -4.625000 0 0 0 0 0.000000 0.000000 0.000000 0.000000
-12.268198 -0.914398 -17.030701 -1.000000 -0.000000 -0.000000 -0.000000 0.000000 1.000000 -13.781250 0.921875 0 0 0 0 0.000000 0.000000 0.000000 0.000000
-12.268198 -1.123948 -17.087851 -1.000000 -0.000000 -0.000000 -0.000000 0.000000 1.000000 -13.828125 1.007812 0 0 0 0 0.000000 0.000000 0.000000 0.000000
-12.268198 -1.066798 -17.297401 -1.000000 -0.000000 -0.000000 -0.000000 -0.000000 1.000000 -14.000000 0.984375 0 0 0 0 0.000000 0.000000 0.000000 0.000000
-12.268198 -0.857248 -17.240250 -1.000000 -0.000000 -0.000000 -0.000000 0.000000 1.000000 -13.953125 0.898438 0 0 0 0 0.000000 0.000000 0.000000 0.000000
-12.268198 -1.066798 -17.297401 0.000000 0.263116 -0.964764 0.000000 0.964764 0.263116 -0.156250 -4.625000 0 0 0 0 0.000000 0.000000 0.000000 0.000000
-12.039599 -1.066798 -17.297401 0.000000 0.263116 -0.964764 0.000000 0.964764 0.263116 -0.156250 -4.531250 0 0 0 0 0.000000 0.000000 0.000000 0.000000
-12.039599 -0.857248 -17.240250 0.000000 0.263116 -0.964764 0.000000 0.964764 0.263116 0.015625 -4.531250 0 0 0 0 0.000000 0.000000 0.000000 0.000000
-12.268198 -0.857248 -17.240250 0.000000 0.263116 -0.964764 0.000000 0.964764 0.263116 0.015625 -4.625000 0 0 0 0 0.000000 0.000000 0.000000 0.000000
-12.268198 -1.123948 -17.087851 0.000000 -0.964763 -0.263119 0.000000 -0.263119 0.964763 -13.609375 -4.625000 0 0 0 0 0.000000 0.000000 0.000000 0.000000
-12.039599 -1.123948 -17.087851 0.000000 -0.964763 -0.263119 0.000000 -0.263119 0.964763 -13.609375 -4.531250 0 0 0 0 0.000000 0.000000 0.000000 0.000000
-12.039599 -1.066798 -17.297401 0.000000 -0.964763 -0.263119 0.000000 -0.263119 0.964763 -13.781250 -4.531250 0 0 0 0 0.000000 0.000000 0.000000 0.000000
-12.268198 -1.066798 -17.297401 0.000000 -0.964763 -0.263119 0.000000 -0.263119 0.964763 -13.781250 -4.625000 0 0 0 0 0.000000 0.000000 0.000000 0.000000
-12.039599 -0.914398 -17.030701 -0.000000 0.964764 0.263118 -0.000000 -0.263118 0.964764 -13.562500 -4.531250 0 0 0 0 0.000000 0.000000 0.000000 0.000000
-12.268198 -0.914398 -17.030701 -0.000000 0.964764 0.263118 -0.000000 -0.263118 0.964764 -13.562500 -4.625000 0 0 0 0 0.000000 0.000000 0.000000 0.000000
-12.268198 -0.857248 -17.240250 -0.000000 0.964764 0.263118 -0.000000 -0.263118 0.964764 -13.734375 -4.625000 0 0 0 0 0.000000 0.000000 0.000000 0.000000
-12.039599 -0.857248 -17.240250 -0.000000 0.964764 0.263118 -0.000000 -0.263118 0.964764 -13.734375 -4.531250 0 0 0 0 0.000000 0.000000 0.000000 0.000000
-11.429998 -0.903921 -17.983202 -1.000000 -0.000000 -0.000000 -0.000000 -0.000001 1.000000 -14.812500 0.917578 0 0 0 0 0.000000 0.000000 0.000000 0.000000
-11.429998 -0.952498 -17.983202 -1.000000 -0.000000 -0.000000 -0.000000 -0.000001 1.000000 -14.812500 0.937500 0 0 0 0 0.000000 0.000000 0.000000 0.000000
-11.429998 -0.952498 -18.180557 -1.000000 -0.000000 -0.000000 -0.000000 -0.000000 1.000000 -14.974375 0.937500 0 0 0 0 0.000000 0.000000 0.000000 0.000000
-11.429998 -0.857248 -18.154650 -1.000000 -0.000000 -0.000000 -0.000000 -0.000001 1.000000 -14.953125 0.898438 0 0 0 0 0.000000 0.000000 0.000000 0.000000
-11.201399 -1.054034 -17.983202 1.000000 0.000000 0.000000 -0.000000 -0.000000 1.000000 -14.812500 0.979141 0 0 0 0 0.000000 0.000000 0.000000 0.000000
-11.201399 -0.903920 -17.983202 1.000000 0.000000 0.000000 -0.000000 -0.000000 1.000000 -14.812500 0.917578 0 0 0 0 0.000000 0.000000 0.000000 0.000000
-11.201399 -0.857248 -18.154650 1.000000 0.000000 0.000000 -0.000000 -0.000000 1.000000 -14.953125 0.898438 0 0 0 0 0.000000 0.000000 0.000000 0.000000
-11.201399 -1.066798 -18.211800 1.000000 0.000000 0.000000 -0.000000 0.000000 1.000000 -15.000000 0.984375 0 0 0 0 0.000000 0.000000 0.000000 0.000000
-11.201399 -1.123948 -18.002253 1.000000 0.000000 0.000000 -0.000000 0.000000 1.000000 -14.828125 1.007812 0 0 0 0 0.000000 0.000000 0.000000 0.000000
-11.429998 -1.066798 -18.211800 0.000000 0.263115 -0.964764 0.000000 0.964765 0.263115 -1.156250 -4.625000 0 0 0 0 0.000000 0.000000 0.000000 0.000000
-11.201399 -1.066798 -18.211800 0.000000 0.263115 -0.964764 0.000000 0.964765 0.263115 -1.156250 -4.531250 0 0 0 0 0.000000 0.000000 0.000000 0.000000
-11.201399 -0.857248 -18.154650 0.000000 0.263115 -0.964764 0.000000 0.964765 0.263115 -0.984375 -4.531250 0 0 0 0 0.000000 0.000000 0.000000 0.000000
-11.429998 -0.857248 -18.154650 0.000000 0.263115 -0.964764 0.000000 0.964765 0.263115 -0.984375 -4.625000 0 0 0 0 0.000000 0.000000 0.000000 0.000000
-11.429998 -1.123948 -18.002253 0.000000 -0.964764 -0.263118 -0.000000 -0.263118 0.964764 -14.609375 -4.625000 0 0 0 0 0.000000 0.000000 0.000000 0.000000
-11.201399 -1.123948 -18.002253 0.000000 -0.964764 -0.263118 -0.000000 -0.263118 0.964764 -14.609375 -4.531250 0 0 0 0 0.000000 0.000000 0.000000 0.000000
-11.201399 -1.066798 -18.211800 0.000000 -0.964764 -0.263118 -0.000000 -0.263118 0.964764 -14.781250 -4.531250 0 0 0 0 0.000000 0.000000 0.000000 0.000000
-11.429998 -1.066798 -18.211800 0.000000 -0.964764 -0.263118 -0.000000 -0.263118 0.964764 -14.781250 -4.625000 0 0 0 0 0.000000 0.000000 0.000000 0.000000
-11.201399 -0.903920 -17.983202 -0.000000 0.964888 0.262663 -0.000000 -0.262663 0.964888 -14.593750 -4.531250 0 0 0 0 0.000000 0.000000 0.000000 0.000000
-11.429998 -0.903921 -17.983202 -0.000000 0.964888 0.262663 -0.000000 -0.262663 0.964888 -14.593750 -4.625000 0 0 0 0 0.000000 0.000000 0.000000 0.000000
-11.429998 -0.857248 -18.154650 -0.000000 0.964888 0.262663 -0.000000 -0.262663 0.964888 -14.734375 -4.625000 0 0 0 0 0.000000 0.000000 0.000000 0.000000
-11.201399 -0.857248 -18.154650 -0.000000 0.964888 0.262663 -0.000000 -0.262663 0.964888 -14.734375 -4.531250 0 0 0 0 0.000000 0.000000 0.000000 0.000000
-12.039599 -0.952498 -17.983202 1.000000 0.000000 0.000000 -0.000000 -0.000000 1.000000 -14.812500 0.937500 0 0 0 0 0.000000 0.000000 0.000000 0.000000
-12.039599 -0.903921 -17.983202 1.000000 0.000000 0.000000 -0.000000 -0.000000 1.000000 -14.812500 0.917578 0 0 0 0 0.000000 0.000000 0.000000 0.000000
-12.039599 -0.857248 -18.154650 1.000000 0.000000 0.000000 -0.000000 -0.000000 1.000000 -14.953125 0.898438 0 0 0 0 0.000000 0.000000 0.000000 0.000000
-12.039599 -0.952498 -18.180557 1.000000 0.000000 0.000000 -0.000000 -0.000000 1.000000 -14.974375 0.937500 0 0 0 0 0.000000 0.000000 0.000000 0.000000
-12.268198 -0.903921 -17.983202 -1.000000 -0.000000 0.000005 0.000005 0.000008 1.000000 -14.812500 0.917578 0 0 0 0 0.000000 0.000000 0.000000 0.000000
-12.268198 -1.054035 -17.983202 -1.000000 -0.000000 0.000005 0.000005 0.000008 1.000000 -14.812500 0.979141 0 0 0 0 0.000000 0.000000 0.000000 0.000000
-12.268198 -1.123948 -18.002253 -1.000000 -0.000000 0.000005 0.000005 0.000008 1.000000 -14.828125 1.007812 0 0 0 0 0.000000 0.000000 0.000000 0.000000
-12.268198 -1.066798 -18.211800 -1.000000 -0.000000 0.000005 0.000005 -0.000001 1.000000 -15.000000 0.984375 0 0 0 0 0.000000 0.000000 0.000000 0.000000
-12.268198 -0.857248 -18.154650 -1.000000 -0.000000 0.000005 0.000005 -0.000000 1.000000 -14.953125 0.898438 0 0 0 0 0.000000 0.000000 0.000000 0.000000
-12.268198 -1.066798 -18.211800 0.000000 0.263116 -0.964764 0.000000 0.964764 0.263116 -1.156250 -4.625000 0 0 0 0 0.000000 0.000000 0.000000 0.000000
-12.039599 -1.066798 -18.211800 0.000000 0.263116 -0.964764 0.000000 0.964764 0.263116 -1.156250 -4.531250 0 0 0 0 0.000000 0.000000 0.000000 0.000000
-12.039599 -0.857248 -18.154650 0.000000 0.263116 -0.964764 0.000000 0.964764 0.263116 -0.984375 -4.531250 0 0 0 0 0.000000 0.000000 0.000000 0.000000
-12.268198 -0.857248 -18.154650 0.000000 0.263116 -0.964764 0.000000 0.964764 0.263116 -0.984375 -4.625000 0 0 0 0 0.000000 0.000000 0.000000 0.000000
-12.268198 -1.123948 -18.002253 0.000000 -0.964763 -0.263119 -0.000000 -0.263119 0.964763 -14.609375 -4.625000 0 0 0 0 0.000000 0.000000 0.000000 0.000000
-12.039599 -1.123948 -18.002253 0.000000 -0.964763 -0.263119 -0.000000 -0.263119 0.964763 -14.609375 -4.531250 0 0 0 0 0.000000 0.000000 0.000000 0.000000
-12.039599 -1.066798 -18.211800 0.000000 -0.964763 -0.263119 -0.000000 -0.263119 0.964763 -14.781250 -4.531250 0 0 0 0 0.000000 0.000000 0.000000 0.000000
-12.268198 -1.066798 -18.211800 0.000000 -0.964763 -0.263119 -0.000000 -0.263119 0.964763 -14.781250 -4.625000 0 0 0 0 0.000000 0.000000 0.000000 0.000000
-12.039599 -0.903921 -17.983202 -0.000000 0.964887 0.262666 0.000000 -0.262666 0.964887 -14.593750 -4.531250 0 0 0 0 0.000000 0.000000 0.000000 0.000000
-12.268198 -0.903921 -17.983202 -0.000000 0.964887 0.262666 0.000000 -0.262666 0.964887 -14.593750 -4.625000 0 0 0 0 0.000000 0.000000 0.000000 0.000000
-12.268198 -0.857248 -18.154650 -0.000000 0.964887 0.262666 0.000000 -0.262666 0.964887 -14.734375 -4.625000 0 0 0 0 0.000000 0.000000 0.000000 0.000000
-12.039599 -0.857248 -18.154650 -0.000000 0.964887 0.262666 0.000000 -0.262666 0.964887 -14.734375 -4.531250 0 0 0 0 0.000000 0.000000 0.000000 0.000000
-17.887949 -2.285999 -16.306801 -1.000000 -0.000000 -0.000000 -0.000000 -0.000000 1.000000 -13.234375 0.062500 0 0 0 0 0.000000 0.000000 0.000000 0.000000
-17.887949 -4.114799 -16.306803 -1.000000 -0.000000 -0.000000 -0.000000 -0.000000 1.000000 -13.234375 0.812500 0 0 0 0 0.000000 0.000000 0.000000 0.000000
-17.887949 -4.114799 -17.068802 -1.000000 -0.000000 -0.000000 -0.000000 -0.000000 1.000000 -13.859375 0.812500 0 0 0 0 0.000000 0.000000 0.000000 0.000000
-17.887949 -3.428999 -17.068800 -1.000000 -0.000000 -0.000000 -0.000000 0.000000 1.000000 -13.859375 0.531250 0 0 0 0 0.000000 0.000000 0.000000 0.000000
-17.887949 -2.285999 -17.068800 -1.000000 -0.000000 -0.000000 -0.000000 -0.000000 1.000000 -13.859375 0.062500 0 0 0 0 0.000000 0.000000 0.000000 0.000000
-17.297398 -2.285999 -17.068800 1.000000 0.000000 0.000000 -0.000000 -0.000000 1.000000 -14.000000 -0.062500 0 0 0 0 0.000000 0.000000 0.000000 0.000000
-17.297398 -4.114799 -17.068802 1.000000 0.000000 0.000000 -0.000000 -0.000000 1.000000 -14.000000 0.687500 0 0 0 0 0.000000 0.000000 0.000000 0.000000
-17.297398 -4.114799 -16.306803 1.000000 0.000000 0.000000 -0.000000 -0.000000 1.000000 -13.375000 0.687500 0 0 0 0 0.000000 0.000000 0.000000 0.000000
-17.297398 -2.285999 -16.306801 1.000000 0.000000 0.000000 -0.000000 -0.000000 1.000000 -13.375000 -0.062500 0 0 0 0 0.000000 0.000000 0.000000 0.000000
-17.297398 -2.285999 -17.068800 -0.000000 1.000000 0.000000 1.000000 0.000000 0.000000 -13.281250 6.945312 0 0 0 0 0.000000 0.000000 0.000000 0.000000
-17.297398 -2.285999 -16.306801 -0.000000 1.000000 0.000000 1.000000 0.000000 0.000000 -13.281250 6.632812 0 0 0 0 0.000000 0.000000 0.000000 0.000000
-17.887949 -2.285999 -16.306801 -0.000000 1.000000 0.000000 1.000000 0.000000 -0.000000 -13.765625 6.632812 0 0 0 0 0.000000 0.000000 0.000000 0.000000
-17.887949 -2.285999 -17.068800 -0.000000 1.000000 0.000000 1.000000 0.000000 0.000000 -13.765625 6.945312 0 0 0 0 0.000000 0.000000 0.000000 0.000000
IndexCount: 501
3 1 0
3 2 1
7 5 4
7 6 5
8 12 11
8 11 10
10 9 8
8 9 16
16 13 8
9 10 21
21 16 9
16 15 14
16 14 13
21 27 16
15 16 39
15 39 38
38 36 15
38 37 36
21 24 27
40 41 27
40 27 24
23 25 24
24 22 23
21 28 24
24 25 40
23 26 25
94 26 32
32 95 94
29 33 32
29 32 31
32 96 95
98 32 33
29 35 34
29 34 33
31 30 29
98 33 97
17 22 21
17 21 20
17 20 19
19 18 17
45 43 42
45 44 43
49 47 46
49 48 47
52 64 48
48 63 62
48 62 61
48 61 52
53 52 51
52 65 64
53 51 50
54 60 59
54 59 58
54 58 57
54 57 56
56 55 54
69 67 66
122 69 66
122 66 121
69 68 67
73 71 70
73 72 71
72 123 71
72 124 123
77 75 74
77 76 75
81 79 78
81 80 79
85 83 82
85 84 83
89 87 86
89 88 87
93 91 90
93 92 91
102 100 99
102 101 100
103 108 107
103 107 106
103 106 105
105 104 103
117 103 116
120 106 119
120 119 118
117 116 115
109 114 113
109 113 112
109 112 111
111 110 109
128 126 125
128 127 126
132 130 129
132 131 130
136 134 133
136 135 134
140 138 137
140 139 138
144 142 141
144 143 142
148 146 145
148 147 146
152 150 149
152 151 150
156 154 153
156 155 154
160 158 157
160 159 158
164 162 161
164 163 162
168 166 165
168 167 166
172 170 169
172 171 170
176 174 173
176 175 174
179 178 177
178 183 182
182 180 178
182 181 180
186 185 184
187 188 184
184 185 187
187 189 188
193 191 190
193 192 191
197 195 194
197 196 195
201 199 198
201 200 199
205 203 202
205 204 203
209 207 206
209 208 207
213 211 210
213 212 211
217 215 214
217 216 215
221 219 218
221 220 219
225 223 222
225 224 223
226 230 229
226 229 228
228 227 226
234 232 231
234 233 232
238 236 235
238 237 236
242 240 239
242 241 240
246 244 243
246 245 244
247 251 250
247 250 249
249 248 247
255 253 252
255 254 253
259 257 256
259 258 257
263 261 260
263 262 261
264 268 267
264 267 266
266 265 264
272 270 269
272 271 270
276 274 273
276 275 274
