VertexCount: 88
-23.164799 -4.572002 0.723897 1.000000 0.000000 0.000000 -0.000000 -0.000000 1.000000 0.296875 1.000000 0 0 0 0 0.000000 0.000000 0.000000 0.000000
-23.164799 -4.572003 4.114797 1.000000 0.000000 0.000000 -0.000000 -0.000000 1.000000 1.687500 1.000000 0 0 0 0 0.000000 0.000000 0.000000 0.000000
-23.164799 -3.352803 4.114797 1.000000 0.000000 0.000000 -0.000000 -0.000000 1.000000 1.687500 0.600000 0 0 0 0 0.000000 0.000000 0.000000 0.000000
-23.164799 -1.524003 4.114798 1.000000 0.000000 0.000000 -0.000000 -0.000000 1.000000 1.687500 0.000000 0 0 0 0 0.000000 0.000000 0.000000 0.000000
-23.164799 -1.524002 0.723898 1.000000 0.000000 0.000000 -0.000000 -0.000000 1.000000 0.296875 0.000000 0 0 0 0 0.000000 0.000000 0.000000 0.000000
-23.164799 -4.572001 -3.543303 1.000000 0.000000 0.000000 0.000000 0.000000 -1.000000 -1.453125 1.000000 0 0 0 0 0.000000 0.000000 0.000000 0.000000
-23.164799 -4.572002 -0.152403 1.000000 0.000000 0.000000 0.000000 0.000000 -1.000000 -0.062500 1.000000 0 0 0 0 0.000000 0.000000 0.000000 0.000000
-23.164799 -4.572002 0.723897 1.000000 0.000000 0.000000 0.000000 0.000000 -1.000000 0.296875 1.000000 0 0 0 0 0.000000 0.000000 0.000000 0.000000
-23.164799 -1.524001 -3.543303 1.000000 0.000000 0.000000 -0.000000 -0.000000 1.000000 -1.453125 0.000000 0 0 0 0 0.000000 0.000000 0.000000 0.000000
-14.630398 -4.114800 -7.010402 1.000000 0.000000 -0.000001 0.000001 -0.000000 1.000000 -2.875000 1.993750 0 0 0 0 0.000000 0.000000 0.000000 0.000000
-14.630398 -1.066800 -7.010401 1.000000 0.000000 -0.000001 0.000001 -0.000000 1.000000 -2.875000 0.993750 0 0 0 0 0.000000 0.000000 0.000000 0.000000
-14.630398 -1.066800 -8.534401 1.000000 0.000000 -0.000001 0.000000 -0.000000 1.000000 -3.500000 0.993750 0 0 0 0 0.000000 0.000000 0.000000 0.000000
-14.630398 -1.676400 -8.534401 1.000000 0.000000 -0.000001 0.000000 -0.000001 1.000000 -3.500000 1.193750 0 0 0 0 0.000000 0.000000 0.000000 0.000000
-14.630398 -3.352800 -8.534402 1.000000 0.000000 -0.000001 0.000000 -0.000000 1.000000 -3.500000 1.743750 0 0 0 0 0.000000 0.000000 0.000000 0.000000
-14.630398 -4.114800 -8.534402 1.000000 0.000000 -0.000001 0.000000 -0.000000 1.000000 -3.500000 1.993750 0 0 0 0 0.000000 0.000000 0.000000 0.000000
-14.630398 -3.352800 -10.058402 1.000000 0.000000 0.000000 -0.000000 -0.000000 1.000000 -4.125000 1.743750 0 0 0 0 0.000000 0.000000 0.000000 0.000000
-14.630398 -4.114799 -10.058402 1.000000 0.000000 0.000000 -0.000000 -0.000000 1.000000 -4.125000 1.993750 0 0 0 0 0.000000 0.000000 0.000000 0.000000
-14.630398 -1.676400 -10.058401 1.000000 0.000000 0.000000 -0.000000 -0.000000 1.000000 -4.125000 1.193750 0 0 0 0 0.000000 0.000000 0.000000 0.000000
-14.630398 -1.066800 -10.058401 1.000000 0.000000 0.000000 -0.000000 -0.000000 1.000000 -4.125000 0.993750 0 0 0 0 0.000000 0.000000 0.000000 0.000000
-14.630398 -1.066799 -11.582401 1.000000 0.000000 0.000000 -0.000000 -0.000000 1.000000 -4.750000 0.993750 0 0 0 0 0.000000 0.000000 0.000000 0.000000
-14.630398 -1.676399 -11.582401 1.000000 0.000000 0.000000 -0.000000 -0.000000 1.000000 -4.750000 1.193750 0 0 0 0 0.000000 0.000000 0.000000 0.000000
-14.630398 -3.352799 -11.582401 1.000000 0.000000 0.000000 -0.000000 -0.000000 1.000000 -4.750000 1.743750 0 0 0 0 0.000000 0.000000 0.000000 0.000000
-14.630398 -4.114799 -11.582402 1.000000 0.000000 0.000000 -0.000000 -0.000000 1.000000 -4.750000 1.993750 0 0 0 0 0.000000 0.000000 0.000000 0.000000
-14.630398 -4.114799 -10.134681 1.000000 0.000000 0.000000 0.000000 0.000000 -1.000000 -4.156282 1.993750 0 0 0 0 0.000000 0.000000 0.000000 0.000000
-14.630398 -4.114799 -14.249403 1.000000 0.000000 0.000000 -0.000000 -0.000000 1.000000 -5.843750 1.993750 0 0 0 0 0.000000 0.000000 0.000000 0.000000
-14.630398 -4.114799 -13.106402 1.000000 0.000000 0.000000 -0.000000 -0.000000 1.000000 -5.375000 1.993750 0 0 0 0 0.000000 0.000000 0.000000 0.000000
-14.630398 -3.352799 -13.106401 1.000000 0.000000 0.000000 -0.000000 -0.000000 1.000000 -5.375000 1.743750 0 0 0 0 0.000000 0.000000 0.000000 0.000000
-14.630398 -1.676399 -13.106401 1.000000 0.000000 0.000000 -0.000000 -0.000000 1.000000 -5.375000 1.193750 0 0 0 0 0.000000 0.000000 0.000000 0.000000
-14.630398 -1.066799 -13.106401 1.000000 0.000000 0.000000 -0.000000 0.000001 1.000000 -5.375000 0.993750 0 0 0 0 0.000000 0.000000 0.000000 0.000000
-14.630398 -1.066799 -14.249401 1.000000 0.000000 0.000000 -0.000000 -0.000000 1.000000 -5.843750 0.993750 0 0 0 0 0.000000 0.000000 0.000000 0.000000
-14.630398 -1.066800 -9.982201 1.000000 0.000000 0.000000 -0.000000 -0.000000 1.000000 -4.093750 0.993750 0 0 0 0 0.000000 0.000000 0.000000 0.000000
-14.630398 -1.066800 -7.010401 0.274722 0.000000 -0.961524 0.961524 0.000000 0.274722 -6.000000 0.993750 0 0 0 0 0.000000 0.000000 0.000000 0.000000
-14.630398 -4.114800 -7.010402 0.274722 0.000000 -0.961524 0.961524 0.000000 0.274722 -6.000000 1.993750 0 0 0 0 0.000000 0.000000 0.000000 0.000000
-14.096999 -4.114800 -6.858002 0.274722 0.000000 -0.961524 0.961524 0.000000 0.274722 -5.781250 1.993750 0 0 0 0 0.000000 0.000000 0.000000 0.000000
-14.096999 -1.066800 -6.858002 0.274722 0.000000 -0.961524 0.961524 0.000000 0.274722 -5.781250 0.993750 0 0 0 0 0.000000 0.000000 0.000000 0.000000
-14.096999 -1.066800 -5.029202 0.274721 -0.000000 0.961524 0.961524 0.000001 -0.274721 -5.781250 0.993750 0 0 0 0 0.000000 0.000000 0.000000 0.000000
-14.096999 -4.114800 -5.029202 0.274721 -0.000000 0.961524 0.961524 0.000001 -0.274721 -5.781250 1.993750 0 0 0 0 0.000000 0.000000 0.000000 0.000000
-14.630399 -4.114800 -4.876801 0.274721 -0.000000 0.961524 0.961524 0.000001 -0.274721 -6.000000 1.993750 0 0 0 0 0.000000 0.000000 0.000000 0.000000
-14.630399 -1.524001 -4.876801 0.274721 -0.000000 0.961524 0.961524 0.000000 -0.274721 -6.000000 1.143750 0 0 0 0 0.000000 0.000000 0.000000 0.000000
-14.630399 -1.066800 -4.876801 0.274721 -0.000000 0.961524 0.961524 0.000000 -0.274721 -6.000000 0.993750 0 0 0 0 0.000000 0.000000 0.000000 0.000000
-14.096999 -1.066800 -6.858002 0.707107 0.000000 -0.707107 0.707107 0.000000 0.707107 -2.812500 0.993750 0 0 0 0 0.000000 0.000000 0.000000 0.000000
-14.096999 -4.114800 -6.858002 0.707107 0.000000 -0.707107 0.707107 0.000000 0.707107 -2.812500 1.993750 0 0 0 0 0.000000 0.000000 0.000000 0.000000
-13.716001 -4.114800 -6.477002 0.707107 0.000000 -0.707107 0.707107 0.000000 0.707107 -2.656250 1.993750 0 0 0 0 0.000000 0.000000 0.000000 0.000000
-13.716001 -1.066800 -6.477001 0.707107 0.000000 -0.707107 0.707107 0.000000 0.707107 -2.656250 0.993750 0 0 0 0 0.000000 0.000000 0.000000 0.000000
-13.716001 -1.066800 -5.410201 0.707106 -0.000000 0.707107 -0.707107 -0.000000 0.707106 -2.218750 0.993750 0 0 0 0 0.000000 0.000000 0.000000 0.000000
-13.716001 -4.114800 -5.410202 0.707106 -0.000000 0.707107 -0.707107 -0.000000 0.707106 -2.218750 1.993750 0 0 0 0 0.000000 0.000000 0.000000 0.000000
-14.096999 -4.114800 -5.029202 0.707106 -0.000000 0.707107 -0.707107 0.000000 0.707106 -2.062500 1.993750 0 0 0 0 0.000000 0.000000 0.000000 0.000000
-14.096999 -1.066800 -5.029202 0.707106 -0.000000 0.707107 -0.707107 -0.000000 0.707106 -2.062500 0.993750 0 0 0 0 0.000000 0.000000 0.000000 0.000000
-13.716001 -1.066800 -6.477001 0.961524 0.000000 -0.274719 0.274719 -0.000000 0.961525 -2.656250 0.993750 0 0 0 0 0.000000 0.000000 0.000000 0.000000
-13.716001 -4.114800 -6.477002 0.961524 0.000000 -0.274719 0.274719 -0.000000 0.961525 -2.656250 1.993750 0 0 0 0 0.000000 0.000000 0.000000 0.000000
-13.563601 -4.114800 -5.943602 0.961524 0.000000 -0.274719 0.274719 -0.000001 0.961525 -2.437500 1.993750 0 0 0 0 0.000000 0.000000 0.000000 0.000000
-13.563601 -1.066800 -5.943602 0.961524 0.000000 -0.274719 0.274719 -0.000000 0.961525 -2.437500 0.993750 0 0 0 0 0.000000 0.000000 0.000000 0.000000
-13.563601 -1.066800 -5.943602 0.961524 0.000000 0.274719 -0.274719 -0.000000 0.961525 -2.437500 0.993750 0 0 0 0 0.000000 0.000000 0.000000 0.000000
-13.563601 -4.114800 -5.943602 0.961524 0.000000 0.274719 -0.274719 -0.000000 0.961525 -2.437500 1.993750 0 0 0 0 0.000000 0.000000 0.000000 0.000000
-13.716001 -4.114800 -5.410202 0.961524 0.000000 0.274719 -0.274719 0.000000 0.961525 -2.218750 1.993750 0 0 0 0 0.000000 0.000000 0.000000 0.000000
-13.716001 -1.066800 -5.410201 0.961524 0.000000 0.274719 -0.274719 -0.000000 0.961525 -2.218750 0.993750 0 0 0 0 0.000000 0.000000 0.000000 0.000000
-23.164799 -4.572001 -4.876802 1.000000 0.000000 0.000000 -0.000000 -0.000000 1.000000 -2.000000 1.000000 0 0 0 0 0.000000 0.000000 0.000000 0.000000
-23.164799 -4.572001 -3.543303 1.000000 0.000000 0.000000 -0.000000 -0.000000 1.000000 -1.453125 1.000000 0 0 0 0 0.000000 0.000000 0.000000 0.000000
-23.164799 -1.524001 -4.876802 1.000000 0.000000 0.000000 -0.000000 -0.000000 1.000000 -2.000000 0.000000 0 0 0 0 0.000000 0.000000 0.000000 0.000000
-15.087600 -4.114800 -4.876801 -0.000000 -0.000000 1.000000 1.000000 0.000000 0.000000 -6.187500 0.850000 0 0 0 0 0.000000 0.000000 0.000000 0.000000
-17.373600 -4.114800 -4.876802 -0.000000 -0.000000 1.000000 1.000000 0.000000 0.000000 -7.125000 0.850000 0 0 0 0 0.000000 0.000000 0.000000 0.000000
-17.373600 -1.524001 -4.876801 -0.000000 -0.000000 1.000000 1.000000 0.000000 0.000000 -7.125000 0.000000 0 0 0 0 0.000000 0.000000 0.000000 0.000000
-15.087600 -1.524001 -4.876801 -0.000000 -0.000000 1.000000 1.000000 0.000000 0.000000 -6.187500 0.000000 0 0 0 0 0.000000 0.000000 0.000000 0.000000
-17.373600 -4.572001 -4.876802 -0.000000 -0.000000 1.000000 1.000000 -0.000000 0.000000 -7.125000 1.000000 0 0 0 0 0.000000 0.000000 0.000000 0.000000
-18.897600 -4.572001 -4.876802 -0.000000 -0.000000 1.000000 1.000000 -0.000000 0.000000 -7.750000 1.000000 0 0 0 0 0.000000 0.000000 0.000000 0.000000
-18.897600 -1.524001 -4.876801 -0.000000 -0.000000 1.000000 1.000000 0.000000 0.000000 -7.750000 0.000000 0 0 0 0 0.000000 0.000000 0.000000 0.000000
-17.373600 -4.114800 -4.876802 -0.000000 -0.000000 1.000000 -0.000000 1.000000 0.000000 -7.125000 0.850000 0 0 0 0 0.000000 0.000000 0.000000 0.000000
-23.164799 -4.572001 -4.876802 -0.000000 -0.000000 1.000000 1.000000 0.000000 0.000000 -9.500000 1.000000 0 0 0 0 0.000000 0.000000 0.000000 0.000000
-23.164799 -1.524001 -4.876802 -0.000000 -0.000000 1.000000 1.000000 0.000000 0.000000 -9.500000 0.000000 0 0 0 0 0.000000 0.000000 0.000000 0.000000
-21.945601 -1.524001 -4.876802 -0.000000 -0.000000 1.000000 1.000000 0.000000 0.000000 -9.000000 0.000000 0 0 0 0 0.000000 0.000000 0.000000 0.000000
-19.507198 -1.524001 -4.876802 -0.000000 -0.000000 1.000000 1.000000 -0.000000 0.000000 -8.000000 0.000000 0 0 0 0 0.000000 0.000000 0.000000 0.000000
-13.258799 -4.114798 -17.678402 -0.000000 -0.000000 1.000000 1.000000 0.000000 0.000000 -5.437500 1.993750 0 0 0 0 0.000000 0.000000 0.000000 0.000000
-14.630398 -4.114799 -17.678402 -0.000000 -0.000000 1.000000 1.000000 0.000000 0.000000 -6.000000 1.993750 0 0 0 0 0.000000 0.000000 0.000000 0.000000
-14.630398 -1.066798 -17.678400 -0.000000 -0.000000 1.000000 1.000000 0.000000 0.000000 -6.000000 0.993750 0 0 0 0 0.000000 0.000000 0.000000 0.000000
-13.258799 -1.066798 -17.678400 -0.000000 -0.000000 1.000000 1.000000 -0.000000 0.000000 -5.437500 0.993750 0 0 0 0 0.000000 0.000000 0.000000 0.000000
-13.258799 -2.895598 -17.678400 -0.000000 -0.000000 1.000000 0.000000 1.000000 0.000000 -5.437500 1.593750 0 0 0 0 0.000000 0.000000 0.000000 0.000000
-14.630398 -1.066799 -16.306801 1.000000 0.000000 0.000000 -0.000000 -0.000000 1.000000 -6.687500 0.993750 0 0 0 0 0.000000 0.000000 0.000000 0.000000
-14.630398 -1.676399 -16.306801 1.000000 0.000000 0.000000 -0.000000 -0.000000 1.000000 -6.687500 1.193750 0 0 0 0 0.000000 0.000000 0.000000 0.000000
-14.630398 -1.676399 -16.002001 1.000000 0.000000 0.000000 -0.000000 -0.000000 1.000000 -6.562500 1.193750 0 0 0 0 0.000000 0.000000 0.000000 0.000000
-14.630398 -1.676399 -14.782802 1.000000 0.000000 0.000000 -0.000000 -0.000000 1.000000 -6.062500 1.193750 0 0 0 0 0.000000 0.000000 0.000000 0.000000
-14.630398 -1.676399 -14.478002 1.000000 0.000000 0.000000 -0.000000 -0.000002 1.000000 -5.937500 1.193750 0 0 0 0 0.000000 0.000000 0.000000 0.000000
-14.630398 -1.066799 -14.478002 1.000000 0.000000 0.000000 -0.000000 -0.000000 1.000000 -5.937500 0.993750 0 0 0 0 0.000000 0.000000 0.000000 0.000000
-14.630398 -4.114799 -16.306803 1.000000 0.000000 0.000000 0.000000 -1.000000 -0.000000 -6.687500 1.993750 0 0 0 0 0.000000 0.000000 0.000000 0.000000
-14.630398 -1.676399 -16.306801 1.000000 0.000000 0.000000 0.000000 -1.000000 -0.000000 -6.687500 1.193750 0 0 0 0 0.000000 0.000000 0.000000 0.000000
-14.630398 -1.066799 -16.306801 1.000000 0.000000 0.000000 0.000000 -1.000000 -0.000000 -6.687500 0.993750 0 0 0 0 0.000000 0.000000 0.000000 0.000000
-14.630398 -1.066798 -17.678400 1.000000 0.000000 0.000000 -0.000000 -0.000000 1.000000 -7.250000 0.993750 0 0 0 0 0.000000 0.000000 0.000000 0.000000
-14.630398 -4.114799 -17.678402 1.000000 0.000000 0.000000 -0.000000 -0.000000 1.000000 -7.250000 1.993750 0 0 0 0 0.000000 0.000000 0.000000 0.000000
-14.630398 -4.114799 -14.478003 1.000000 0.000000 0.000000 -0.000000 -0.000001 1.000000 -5.937500 1.993750 0 0 0 0 0.000000 0.000000 0.000000 0.000000
IndexCount: 201
0 4 3
0 3 2
2 1 0
5 8 4
5 4 7
7 6 5
58 8 57
58 57 56
9 14 13
9 13 12
9 12 11
11 10 9
16 13 14
16 15 13
16 23 22
16 22 21
16 21 20
16 20 19
19 15 16
19 17 15
19 18 17
27 28 19
27 19 20
12 17 18
12 18 30
30 11 12
24 28 27
24 27 26
24 29 28
26 25 24
24 87 80
24 80 81
81 29 24
25 26 21
25 21 22
76 81 80
76 80 79
76 79 78
78 77 76
34 32 31
34 33 32
35 39 38
35 38 37
37 36 35
43 41 40
43 42 41
47 45 44
47 46 45
51 49 48
51 50 49
55 53 52
55 54 53
62 60 59
62 61 60
63 66 61
63 61 65
65 64 63
64 65 70
64 70 69
64 69 68
68 67 64
71 75 74
71 74 73
73 72 71
82 86 85
82 85 84
84 83 82
