VertexCount: 229
4.171950 -3.638550 0.895350 0.000016 1.000000 0.000000 1.000000 -0.000016 -0.000000 13.687500 -0.734375 0 0 0 0 0.000000 0.000000 0.000000 0.000000
3.981450 -3.638550 0.704850 0.000016 1.000000 0.000000 1.000000 -0.000016 -0.000000 13.062500 -0.578125 0 0 0 0 0.000000 0.000000 0.000000 0.000000
3.981450 -3.638550 0.685800 0.000016 1.000000 0.000000 1.000000 -0.000016 0.000001 13.062500 -0.562500 0 0 0 0 0.000000 0.000000 0.000000 0.000000
4.191000 -3.638550 0.895350 0.000016 1.000000 0.000000 1.000000 -0.000016 -0.000000 13.750000 -0.734375 0 0 0 0 0.000000 0.000000 0.000000 0.000000
4.191000 -3.638550 0.895350 0.707107 0.000000 -0.707107 0.707107 0.000000 0.707107 2.937500 2.984375 0 0 0 0 0.000000 0.000000 0.000000 0.000000
3.981450 -3.638550 0.685800 0.707107 0.000000 -0.707107 0.707107 0.000000 0.707107 2.250000 2.984375 0 0 0 0 0.000000 0.000000 0.000000 0.000000
3.981450 -3.657599 0.685800 0.707107 0.000000 -0.707107 0.707107 0.000000 0.707107 2.250000 3.000000 0 0 0 0 0.000000 0.000000 0.000000 0.000000
4.191000 -3.657599 0.895350 0.707107 0.000000 -0.707107 0.707107 0.000000 0.707107 2.937500 3.000000 0 0 0 0 0.000000 0.000000 0.000000 0.000000
3.981450 -3.638550 0.704850 -0.707110 -0.000000 0.707104 0.707104 -0.000000 0.707110 2.312500 2.984375 0 0 0 0 0.000000 0.000000 0.000000 0.000000
4.171950 -3.638550 0.895350 -0.707110 -0.000000 0.707104 0.707104 -0.000000 0.707110 2.937500 2.984375 0 0 0 0 0.000000 0.000000 0.000000 0.000000
4.171950 -3.657599 0.895350 -0.707110 -0.000000 0.707104 0.707104 -0.000000 0.707110 2.937500 3.000000 0 0 0 0 0.000000 0.000000 0.000000 0.000000
3.981450 -3.657599 0.704850 -0.707110 -0.000000 0.707104 0.707104 -0.000000 0.707110 2.312500 3.000000 0 0 0 0 0.000000 0.000000 0.000000 0.000000
4.152900 -3.657599 0.952500 -0.707106 -0.000000 0.707107 0.707107 -0.000000 0.707106 2.812500 3.406250 0 0 0 0 0.000000 0.000000 0.000000 0.000000
4.152900 -3.676650 0.952500 -0.707106 -0.000000 0.707107 0.707107 -0.000000 0.707106 2.812500 3.421875 0 0 0 0 0.000000 0.000000 0.000000 0.000000
4.143375 -3.676650 0.942975 -0.707106 -0.000000 0.707107 0.707107 -0.000000 0.707106 2.781250 3.421875 0 0 0 0 0.000000 0.000000 0.000000 0.000000
3.933825 -3.676650 0.733425 -0.707106 -0.000000 0.707107 0.707107 0.000000 0.707106 2.093750 3.421875 0 0 0 0 0.000000 0.000000 0.000000 0.000000
3.933825 -3.657599 0.733425 -0.707106 -0.000000 0.707107 0.707107 0.000000 0.707106 2.093750 3.406250 0 0 0 0 0.000000 0.000000 0.000000 0.000000
4.143375 -3.657599 0.942975 -0.707106 -0.000000 0.707107 -0.707107 -0.000000 -0.707106 2.781250 3.406250 0 0 0 0 0.000000 0.000000 0.000000 0.000000
4.143375 -3.695700 0.942975 -0.707107 -0.000000 0.707107 0.707107 0.000000 0.707107 2.781250 3.437500 0 0 0 0 0.000000 0.000000 0.000000 0.000000
4.143375 -4.572000 0.942975 -0.707107 -0.000000 0.707107 0.707107 0.000000 0.707107 2.781250 4.156250 0 0 0 0 0.000000 0.000000 0.000000 0.000000
3.933825 -4.572000 0.733425 -0.707107 -0.000000 0.707107 0.707107 0.000000 0.707107 2.093750 4.156250 0 0 0 0 0.000000 0.000000 0.000000 0.000000
3.933825 -3.695700 0.733425 -0.707107 -0.000000 0.707107 0.707107 0.000000 0.707107 2.093750 3.437500 0 0 0 0 0.000000 0.000000 0.000000 0.000000
4.143375 -3.676650 0.942975 0.000001 1.000000 0.000000 0.707107 -0.000001 -0.707107 7.737121 -2.512461 0 0 0 0 0.000000 0.000000 0.000000 0.000000
4.038600 -3.676650 1.047750 0.000001 1.000000 0.000000 0.707107 -0.000001 -0.707107 7.250985 -2.512461 0 0 0 0 0.000000 0.000000 0.000000 0.000000
3.829050 -3.676650 0.838200 0.000001 1.000000 0.000000 0.707107 -0.000001 -0.707106 7.250985 -2.269393 0 0 0 0 0.000000 0.000000 0.000000 0.000000
3.933825 -3.676650 0.733425 0.000001 1.000000 0.000000 0.707107 -0.000001 -0.707107 7.737121 -2.269393 0 0 0 0 0.000000 0.000000 0.000000 0.000000
4.038600 -3.657599 1.047750 -0.707108 0.000000 -0.707106 -0.707105 -0.000000 0.707108 2.687500 3.406250 0 0 0 0 0.000000 0.000000 0.000000 0.000000
4.038600 -3.676650 1.047750 -0.707108 0.000000 -0.707106 -0.707105 -0.000000 0.707108 2.687500 3.421875 0 0 0 0 0.000000 0.000000 0.000000 0.000000
4.143375 -3.676650 0.942975 -0.707108 0.000000 -0.707106 -0.707105 -0.000000 0.707108 2.343750 3.421875 0 0 0 0 0.000000 0.000000 0.000000 0.000000
4.143375 -3.657599 0.942975 -0.707108 0.000000 -0.707106 -0.707105 -0.000000 0.707108 2.343750 3.406250 0 0 0 0 0.000000 0.000000 0.000000 0.000000
3.829050 -3.676650 0.838200 0.707107 0.000000 -0.707106 0.707106 -0.000000 0.707107 2.000000 3.421875 0 0 0 0 0.000000 0.000000 0.000000 0.000000
4.038600 -3.676650 1.047750 0.707107 0.000000 -0.707106 0.707106 -0.000000 0.707107 2.687500 3.421875 0 0 0 0 0.000000 0.000000 0.000000 0.000000
4.038600 -3.657599 1.047750 0.707107 0.000000 -0.707106 0.707106 -0.000000 0.707107 2.687500 3.406250 0 0 0 0 0.000000 0.000000 0.000000 0.000000
3.829050 -3.657599 0.838200 0.707107 0.000000 -0.707106 0.707106 -0.000000 0.707107 2.000000 3.406250 0 0 0 0 0.000000 0.000000 0.000000 0.000000
3.933825 -3.657599 0.733425 0.707107 -0.000000 0.707107 -0.707107 -0.000000 0.707107 1.656250 3.406250 0 0 0 0 0.000000 0.000000 0.000000 0.000000
3.933825 -3.676650 0.733425 0.707107 -0.000000 0.707107 -0.707107 -0.000000 0.707107 1.656250 3.421875 0 0 0 0 0.000000 0.000000 0.000000 0.000000
3.829050 -3.676650 0.838200 0.707107 -0.000000 0.707107 -0.707107 -0.000000 0.707107 2.000000 3.421875 0 0 0 0 0.000000 0.000000 0.000000 0.000000
3.829050 -3.657599 0.838200 0.707107 -0.000000 0.707107 -0.707107 -0.000000 0.707107 2.000000 3.406250 0 0 0 0 0.000000 0.000000 0.000000 0.000000
3.829050 -4.572000 0.838199 0.707107 0.000000 -0.707107 0.707107 0.000000 0.707107 2.000000 4.156250 0 0 0 0 0.000000 0.000000 0.000000 0.000000
4.038600 -4.572000 1.047750 0.707107 0.000000 -0.707107 0.707107 0.000000 0.707107 2.687500 4.156250 0 0 0 0 0.000000 0.000000 0.000000 0.000000
4.038600 -3.695700 1.047750 0.707107 0.000000 -0.707107 0.707107 0.000000 0.707107 2.687500 3.437500 0 0 0 0 0.000000 0.000000 0.000000 0.000000
3.829050 -3.695700 0.838200 0.707107 0.000000 -0.707107 0.707107 0.000000 0.707107 2.000000 3.437500 0 0 0 0 0.000000 0.000000 0.000000 0.000000
4.038600 -3.695700 1.047750 -0.707107 0.000000 -0.707107 -0.707107 -0.000000 0.707107 2.687500 3.437500 0 0 0 0 0.000000 0.000000 0.000000 0.000000
4.038600 -4.572000 1.047750 -0.707107 0.000000 -0.707107 -0.707107 -0.000000 0.707107 2.687500 4.156250 0 0 0 0 0.000000 0.000000 0.000000 0.000000
4.143375 -4.572000 0.942975 -0.707107 0.000000 -0.707107 -0.707107 -0.000000 0.707107 2.343750 4.156250 0 0 0 0 0.000000 0.000000 0.000000 0.000000
4.143375 -3.695700 0.942975 -0.707107 0.000000 -0.707107 -0.707107 -0.000000 0.707107 2.343750 3.437500 0 0 0 0 0.000000 0.000000 0.000000 0.000000
3.933825 -3.695700 0.733425 0.707107 -0.000000 0.707107 -0.707107 -0.000000 0.707107 1.656250 3.437500 0 0 0 0 0.000000 0.000000 0.000000 0.000000
3.933825 -4.572000 0.733425 0.707107 -0.000000 0.707107 -0.707107 -0.000000 0.707107 1.656250 4.156250 0 0 0 0 0.000000 0.000000 0.000000 0.000000
3.829050 -4.572000 0.838199 0.707107 -0.000000 0.707107 -0.707107 -0.000000 0.707107 2.000000 4.156250 0 0 0 0 0.000000 0.000000 0.000000 0.000000
3.829050 -3.695700 0.838200 0.707107 -0.000000 0.707107 -0.707107 -0.000000 0.707107 2.000000 3.437500 0 0 0 0 0.000000 0.000000 0.000000 0.000000
-0.933450 -3.886201 7.105649 0.000000 -1.000000 -0.000000 0.000000 -0.000000 1.000000 46.312500 -1.468750 0 0 0 0 0.000000 0.000000 0.000000 0.000000
-1.143000 -3.886201 7.105649 0.000000 -1.000000 -0.000000 0.000000 -0.000000 1.000000 46.312500 -1.812500 0 0 0 0 0.000000 0.000000 0.000000 0.000000
-1.143000 -3.886201 7.124700 0.000000 -1.000000 -0.000000 0.000000 -0.000000 1.000000 46.437500 -1.812500 0 0 0 0 0.000000 0.000000 0.000000 0.000000
-0.933450 -3.886201 7.124700 0.000000 -1.000000 -0.000000 0.000000 -0.000000 1.000000 46.437500 -1.468750 0 0 0 0 0.000000 0.000000 0.000000 0.000000
-0.971550 -3.524251 6.991349 0.707109 0.000000 -0.707105 0.707105 -0.000012 0.707109 22.625000 2.953125 0 0 0 0 0.000000 0.000000 0.000000 0.000000
-0.971550 -3.790951 6.991349 0.707109 0.000000 -0.707105 0.707105 -0.000012 0.707109 22.625000 3.171875 0 0 0 0 0.000000 0.000000 0.000000 0.000000
-0.952500 -3.810001 7.010400 0.707109 0.000000 -0.707105 0.707105 0.000000 0.707109 22.687500 3.187500 0 0 0 0 0.000000 0.000000 0.000000 0.000000
-0.952500 -3.505201 7.010400 0.707109 0.000000 -0.707105 0.707105 -0.000012 0.707109 22.687500 2.937500 0 0 0 0 0.000000 0.000000 0.000000 0.000000
-1.257300 -3.505201 7.010400 -0.707111 0.000000 -0.707103 -0.707103 -0.000011 0.707111 22.687500 2.937500 0 0 0 0 0.000000 0.000000 0.000000 0.000000
-1.257300 -3.810001 7.010400 -0.707111 0.000000 -0.707103 -0.707103 -0.000011 0.707111 22.687500 3.187500 0 0 0 0 0.000000 0.000000 0.000000 0.000000
-1.238250 -3.790951 6.991349 -0.707111 0.000000 -0.707103 -0.707103 0.000001 0.707111 22.625000 3.171875 0 0 0 0 0.000000 0.000000 0.000000 0.000000
-1.238250 -3.524251 6.991349 -0.707111 0.000000 -0.707103 -0.707103 -0.000011 0.707111 22.625000 2.953125 0 0 0 0 0.000000 0.000000 0.000000 0.000000
-0.971550 -3.790951 6.991349 0.000000 -0.707111 -0.707102 1.000000 0.000000 0.000000 -3.500000 -5.671875 0 0 0 0 0.000000 0.000000 0.000000 0.000000
-1.238250 -3.790951 6.991349 0.000000 -0.707111 -0.707102 1.000000 0.000000 0.000000 -4.375000 -5.671875 0 0 0 0 0.000000 0.000000 0.000000 0.000000
-1.257300 -3.810001 7.010400 0.000000 -0.707111 -0.707102 1.000000 0.000000 0.000000 -4.437500 -5.687500 0 0 0 0 0.000000 0.000000 0.000000 0.000000
-0.952500 -3.810001 7.010400 0.000000 -0.707111 -0.707102 1.000000 0.000000 0.000000 -3.437500 -5.687500 0 0 0 0 0.000000 0.000000 0.000000 0.000000
-0.952500 -3.505201 7.010400 -0.000000 0.707119 -0.707095 1.000000 0.000000 -0.000000 -3.437500 -5.687500 0 0 0 0 0.000000 0.000000 0.000000 0.000000
-1.257300 -3.505201 7.010400 -0.000000 0.707119 -0.707095 1.000000 0.000000 -0.000000 -4.437500 -5.687500 0 0 0 0 0.000000 0.000000 0.000000 0.000000
-1.238250 -3.524251 6.991349 -0.000000 0.707119 -0.707095 1.000000 0.000000 -0.000000 -4.375000 -5.671875 0 0 0 0 0.000000 0.000000 0.000000 0.000000
-0.971550 -3.524251 6.991349 -0.000000 0.707119 -0.707095 1.000000 0.000000 -0.000000 -3.500000 -5.671875 0 0 0 0 0.000000 0.000000 0.000000 0.000000
-0.742950 -3.848101 7.143749 -0.000000 1.000000 0.000000 0.000000 -0.000000 1.000000 46.687500 -1.156250 0 0 0 0 0.000000 0.000000 0.000000 0.000000
-0.857250 -3.848101 7.143749 -0.000000 1.000000 0.000000 0.000000 -0.000000 1.000000 46.687500 -1.343750 0 0 0 0 0.000000 0.000000 0.000000 0.000000
-0.857250 -3.848101 7.124700 -0.000000 1.000000 0.000000 0.000000 -0.000000 1.000000 46.562500 -1.343750 0 0 0 0 0.000000 0.000000 0.000000 0.000000
-0.857250 -3.848101 7.105649 -0.000000 1.000000 0.000000 0.000000 -0.000000 1.000000 46.437500 -1.343750 0 0 0 0 0.000000 0.000000 0.000000 0.000000
-0.857250 -3.848101 7.086599 -0.000000 1.000000 0.000000 0.000000 -0.000000 1.000000 46.312500 -1.343750 0 0 0 0 0.000000 0.000000 0.000000 0.000000
-0.742950 -3.848101 7.086599 -0.000000 1.000000 0.000000 0.000000 -0.000000 1.000000 46.312500 -1.156250 0 0 0 0 0.000000 0.000000 0.000000 0.000000
-0.857250 -3.848101 7.124700 -0.000000 1.000000 0.000000 0.000000 -0.000000 1.000000 46.437500 -1.343750 0 0 0 0 0.000000 0.000000 0.000000 0.000000
-1.047750 -3.848101 7.124700 -0.000000 1.000000 0.000000 0.000000 -0.000000 1.000000 46.437500 -1.656250 0 0 0 0 0.000000 0.000000 0.000000 0.000000
-1.047750 -3.848101 7.105649 -0.000000 1.000000 0.000000 0.000000 -0.000000 1.000000 46.312500 -1.656250 0 0 0 0 0.000000 0.000000 0.000000 0.000000
-0.857250 -3.848101 7.105649 -0.000000 1.000000 0.000000 0.000000 -0.000000 1.000000 46.312500 -1.343750 0 0 0 0 0.000000 0.000000 0.000000 0.000000
-1.047750 -3.848101 7.124700 0.000000 -1.000000 -0.000000 1.000000 0.000000 0.000000 -3.750000 -5.781250 0 0 0 0 0.000000 0.000000 0.000000 0.000000
-1.143000 -3.848101 7.124700 0.000000 -1.000000 -0.000000 1.000000 0.000000 0.000000 -4.062500 -5.781250 0 0 0 0 0.000000 0.000000 0.000000 0.000000
-1.162050 -3.848101 7.124700 0.000000 -1.000000 -0.000000 1.000000 0.000000 0.000000 -4.125000 -5.781250 0 0 0 0 0.000000 0.000000 0.000000 0.000000
-1.162050 -3.848101 7.143749 0.000000 -1.000000 -0.000000 1.000000 0.000000 0.000000 -4.125000 -5.796875 0 0 0 0 0.000000 0.000000 0.000000 0.000000
-1.047750 -3.848101 7.143749 0.000000 -1.000000 -0.000000 1.000000 0.000000 0.000000 -3.750000 -5.796875 0 0 0 0 0.000000 0.000000 0.000000 0.000000
-1.047750 -3.848101 7.105649 0.000000 -1.000000 -0.000000 1.000000 0.000000 0.000000 -3.750000 -5.765625 0 0 0 0 0.000000 0.000000 0.000000 0.000000
-1.047750 -3.848101 7.086599 0.000000 -1.000000 -0.000000 1.000000 0.000000 0.000000 -3.750000 -5.750000 0 0 0 0 0.000000 0.000000 0.000000 0.000000
-1.162050 -3.848101 7.086599 0.000000 -1.000000 -0.000000 1.000000 0.000000 0.000000 -4.125000 -5.750000 0 0 0 0 0.000000 0.000000 0.000000 0.000000
-1.162050 -3.848101 7.105649 0.000000 -1.000000 -0.000000 1.000000 0.000000 0.000000 -4.125000 -5.765625 0 0 0 0 0.000000 0.000000 0.000000 0.000000
-1.143000 -3.848101 7.105649 0.000000 -1.000000 -0.000000 -1.000000 -0.000000 -0.000000 -4.062500 -5.765625 0 0 0 0 0.000000 0.000000 0.000000 0.000000
-1.143000 -3.848101 7.124700 0.000000 -1.000000 -0.000000 1.000000 0.000000 0.000000 -4.062500 -5.781250 0 0 0 0 0.000000 0.000000 0.000000 0.000000
-1.143000 -3.848101 7.105649 0.000000 -1.000000 -0.000000 1.000000 0.000000 0.000000 -4.062500 -5.765625 0 0 0 0 0.000000 0.000000 0.000000 0.000000
-1.162050 -3.848101 7.124700 0.000000 -1.000000 -0.000000 1.000000 0.000000 0.000000 -4.125000 -5.781250 0 0 0 0 0.000000 0.000000 0.000000 0.000000
-1.047750 -3.848101 7.086599 0.000000 -0.447215 -0.894426 1.000000 0.000000 0.000000 -3.750000 3.218750 0 0 0 0 0.000000 0.000000 0.000000 0.000000
-1.028700 -3.810001 7.067549 0.000000 -0.447215 -0.894426 1.000000 0.000000 0.000000 -3.687500 3.187500 0 0 0 0 0.000000 0.000000 0.000000 0.000000
-1.181100 -3.810001 7.067549 0.000000 -0.447215 -0.894426 1.000000 0.000000 0.000000 -4.187500 3.187500 0 0 0 0 0.000000 0.000000 0.000000 0.000000
-1.162050 -3.848101 7.086599 0.000000 -0.447215 -0.894426 1.000000 0.000000 0.000000 -4.125000 3.218750 0 0 0 0 0.000000 0.000000 0.000000 0.000000
-1.162050 -3.848101 7.143749 -0.894427 -0.447214 -0.000000 -0.000000 -0.000000 1.000000 23.125000 3.218750 0 0 0 0 0.000000 0.000000 0.000000 0.000000
-1.162050 -3.848101 7.124700 -0.894427 -0.447214 -0.000000 -0.000000 -0.000000 1.000000 23.062500 3.218750 0 0 0 0 0.000000 0.000000 0.000000 0.000000
-1.162050 -3.848101 7.105649 -0.894427 -0.447214 -0.000000 -0.000000 -0.000000 1.000000 23.000000 3.218750 0 0 0 0 0.000000 0.000000 0.000000 0.000000
-1.162050 -3.848101 7.086599 -0.894427 -0.447214 -0.000000 -0.000000 -0.000000 1.000000 22.937500 3.218750 0 0 0 0 0.000000 0.000000 0.000000 0.000000
-1.181100 -3.810001 7.067549 -0.894427 -0.447214 -0.000000 -0.000000 -0.000000 1.000000 22.875000 3.187500 0 0 0 0 0.000000 0.000000 0.000000 0.000000
-1.181100 -3.810001 7.162799 -0.894427 -0.447214 -0.000000 -0.000000 -0.000000 1.000000 23.187500 3.187500 0 0 0 0 0.000000 0.000000 0.000000 0.000000
-1.162050 -3.848101 7.143749 -0.000000 -0.447212 0.894428 1.000000 -0.000000 0.000000 -4.125000 3.218750 0 0 0 0 0.000000 0.000000 0.000000 0.000000
-1.181100 -3.810001 7.162799 -0.000000 -0.447212 0.894428 1.000000 -0.000000 0.000000 -4.187500 3.187500 0 0 0 0 0.000000 0.000000 0.000000 0.000000
-1.028700 -3.810001 7.162799 -0.000000 -0.447212 0.894428 1.000000 -0.000000 0.000000 -3.687500 3.187500 0 0 0 0 0.000000 0.000000 0.000000 0.000000
-1.047750 -3.848101 7.143749 -0.000000 -0.447212 0.894428 1.000000 -0.000000 0.000000 -3.750000 3.218750 0 0 0 0 0.000000 0.000000 0.000000 0.000000
-1.047750 -3.848101 7.143749 0.894426 -0.447215 0.000000 -0.000000 0.000000 1.000000 23.125000 3.218750 0 0 0 0 0.000000 0.000000 0.000000 0.000000
-1.028700 -3.810001 7.162799 0.894426 -0.447215 0.000000 -0.000000 0.000000 1.000000 23.187500 3.187500 0 0 0 0 0.000000 0.000000 0.000000 0.000000
-1.028700 -3.810001 7.067549 0.894426 -0.447215 0.000000 -0.000000 0.000000 1.000000 22.875000 3.187500 0 0 0 0 0.000000 0.000000 0.000000 0.000000
-1.047750 -3.848101 7.086599 0.894426 -0.447215 0.000000 -0.000000 0.000000 1.000000 22.937500 3.218750 0 0 0 0 0.000000 0.000000 0.000000 0.000000
-1.047750 -3.848101 7.105649 0.894426 -0.447215 0.000000 0.000000 -0.000000 -1.000000 23.000000 3.218750 0 0 0 0 0.000000 0.000000 0.000000 0.000000
-1.047750 -3.848101 7.124700 0.894426 -0.447215 0.000000 0.000000 -0.000000 -1.000000 23.062500 3.218750 0 0 0 0 0.000000 0.000000 0.000000 0.000000
-1.143000 -3.848101 7.105649 -1.000000 -0.000000 -0.000000 -0.000000 1.000000 0.000032 -25.562500 11.718750 0 0 0 0 0.000000 0.000000 0.000000 0.000000
-1.143000 -3.848101 7.124700 -1.000000 -0.000000 -0.000000 -0.000000 1.000000 0.000032 -25.562500 11.750000 0 0 0 0 0.000000 0.000000 0.000000 0.000000
-1.143000 -3.867151 7.143749 -1.000000 -0.000000 -0.000000 -0.000000 1.000000 0.000032 -25.687500 11.781250 0 0 0 0 0.000000 0.000000 0.000000 0.000000
-1.143000 -3.886201 7.124700 -1.000000 -0.000000 -0.000000 -0.000000 1.000000 -0.000011 -25.812500 11.750000 0 0 0 0 0.000000 0.000000 0.000000 0.000000
-1.143000 -3.886201 7.105649 -1.000000 -0.000000 -0.000000 -0.000000 1.000000 -0.000000 -25.812500 11.718750 0 0 0 0 0.000000 0.000000 0.000000 0.000000
-1.143000 -3.867151 7.086599 -1.000000 -0.000000 -0.000000 -0.000000 1.000000 -0.000000 -25.687500 11.687500 0 0 0 0 0.000000 0.000000 0.000000 0.000000
-0.866775 -3.867151 7.143749 -0.894420 0.447228 -0.000000 0.447223 0.894422 -0.000010 -25.562500 11.781250 0 0 0 0 0.000000 0.000000 0.000000 0.000000
-0.876300 -3.886201 7.162799 -0.894420 0.447228 -0.000000 0.447223 0.894422 -0.000010 -25.687500 11.812500 0 0 0 0 0.000000 0.000000 0.000000 0.000000
-0.876300 -3.886201 7.124700 -0.894420 0.447228 -0.000000 0.447228 0.894420 -0.000014 -25.687500 11.750000 0 0 0 0 0.000000 0.000000 0.000000 0.000000
-0.857250 -3.848101 7.124700 -0.894427 0.447214 -0.000000 0.447214 0.894427 -0.000000 -25.437500 11.750000 0 0 0 0 0.000000 0.000000 0.000000 0.000000
-0.857250 -3.848101 7.143749 -0.894427 0.447214 -0.000000 0.447214 0.894427 -0.000000 -25.437500 11.781250 0 0 0 0 0.000000 0.000000 0.000000 0.000000
-0.876300 -3.886201 7.162799 -0.894427 0.447214 -0.000000 0.447223 0.894422 -0.000010 -25.687500 11.812500 0 0 0 0 0.000000 0.000000 0.000000 0.000000
-0.866775 -3.867151 7.143749 -0.894427 0.447214 -0.000000 0.447223 0.894422 -0.000010 -25.562500 11.781250 0 0 0 0 0.000000 0.000000 0.000000 0.000000
-0.863537 -3.860864 7.080313 -0.893072 0.449914 -0.000000 0.449914 0.893072 -0.000003 -25.521250 11.677188 0 0 0 0 0.000000 0.000000 0.000000 0.000000
-0.876300 -3.886201 7.105649 -0.893072 0.449914 -0.000000 0.449914 0.893072 -0.000003 -25.687500 11.718750 0 0 0 0 0.000000 0.000000 0.000000 0.000000
-0.876300 -3.886201 7.067549 -0.893072 0.449914 -0.000000 0.449914 0.893072 -0.000003 -25.687500 11.656250 0 0 0 0 0.000000 0.000000 0.000000 0.000000
-0.876300 -3.886201 7.105649 0.000000 -0.707105 -0.707109 -0.000000 -0.707109 0.707105 46.312500 -1.375000 0 0 0 0 0.000000 0.000000 0.000000 0.000000
-0.866775 -3.867151 7.086599 0.000000 -0.707105 -0.707109 -0.000000 -0.707109 0.707105 46.187500 -1.359375 0 0 0 0 0.000000 0.000000 0.000000 0.000000
-1.143000 -3.867151 7.086599 0.000000 -0.707105 -0.707109 -0.000000 -0.707109 0.707105 46.187500 -1.812500 0 0 0 0 0.000000 0.000000 0.000000 0.000000
-1.143000 -3.886201 7.105649 0.000000 -0.707105 -0.707109 -0.000000 -0.707109 0.707105 46.312500 -1.812500 0 0 0 0 0.000000 0.000000 0.000000 0.000000
-0.933450 -3.886201 7.105649 0.000000 -0.707105 -0.707109 -1.000000 -0.000000 -0.000000 46.312500 -1.468750 0 0 0 0 0.000000 0.000000 0.000000 0.000000
-0.876300 -3.886201 7.124700 0.000000 -0.707113 0.707100 1.000000 0.000000 -0.000000 46.437500 -1.375000 0 0 0 0 0.000000 0.000000 0.000000 0.000000
-0.933450 -3.886201 7.124700 0.000000 -0.707113 0.707100 1.000000 0.000000 -0.000000 46.437500 -1.468750 0 0 0 0 0.000000 0.000000 0.000000 0.000000
-1.143000 -3.886201 7.124700 0.000000 -0.707113 0.707100 1.000000 0.000000 -0.000000 46.437500 -1.812500 0 0 0 0 0.000000 0.000000 0.000000 0.000000
-1.143000 -3.867151 7.143749 0.000000 -0.707113 0.707100 0.000000 0.707100 0.707113 46.562500 -1.812500 0 0 0 0 0.000000 0.000000 0.000000 0.000000
-0.866775 -3.867151 7.143749 0.000000 -0.707113 0.707100 -0.000000 0.707101 0.707113 46.562500 -1.359375 0 0 0 0 0.000000 0.000000 0.000000 0.000000
-1.143000 -3.848101 7.124700 -0.000000 0.707099 0.707114 -0.000002 -0.707114 0.707099 46.437500 -1.812500 0 0 0 0 0.000000 0.000000 0.000000 0.000000
-1.047750 -3.848101 7.124700 -0.000000 0.707099 0.707114 -0.000002 -0.707114 0.707099 46.437500 -1.656250 0 0 0 0 0.000000 0.000000 0.000000 0.000000
-0.857250 -3.848101 7.124700 -0.000000 0.707099 0.707114 0.000000 -0.707114 0.707099 46.437500 -1.343750 0 0 0 0 0.000000 0.000000 0.000000 0.000000
-0.866775 -3.867151 7.143749 -0.000000 0.707099 0.707114 -0.000002 -0.707114 0.707099 46.562500 -1.359375 0 0 0 0 0.000000 0.000000 0.000000 0.000000
-1.143000 -3.867151 7.143749 -0.000000 0.707099 0.707114 0.000000 -0.707114 0.707099 46.562500 -1.812500 0 0 0 0 0.000000 0.000000 0.000000 0.000000
-0.857250 -3.848101 7.105649 0.000000 0.707100 -0.707114 1.000000 -0.000000 0.000000 46.312500 -1.343750 0 0 0 0 0.000000 0.000000 0.000000 0.000000
-1.047750 -3.848101 7.105649 0.000000 0.707100 -0.707114 1.000000 -0.000000 0.000000 46.312500 -1.656250 0 0 0 0 0.000000 0.000000 0.000000 0.000000
-1.143000 -3.848101 7.105649 0.000000 0.707100 -0.707114 1.000000 -0.000000 0.000000 46.312500 -1.812500 0 0 0 0 0.000000 0.000000 0.000000 0.000000
-1.143000 -3.867151 7.086599 0.000000 0.707100 -0.707114 0.000000 0.707114 0.707100 46.187500 -1.812500 0 0 0 0 0.000000 0.000000 0.000000 0.000000
-0.866775 -3.867151 7.086599 0.000000 0.707100 -0.707114 -0.000000 0.707114 0.707100 46.187500 -1.359375 0 0 0 0 0.000000 0.000000 0.000000 0.000000
-0.857250 -3.848101 7.143749 -0.000000 0.447218 0.894425 -0.000000 0.894425 -0.447218 -25.437500 -1.343750 0 0 0 0 0.000000 0.000000 0.000000 0.000000
-0.742950 -3.848101 7.143749 -0.000000 0.447218 0.894425 -0.000000 0.894425 -0.447218 -25.437500 -1.156250 0 0 0 0 0.000000 0.000000 0.000000 0.000000
-0.723900 -3.886201 7.162799 -0.000000 0.447218 0.894425 -0.000001 0.894425 -0.447218 -25.687500 -1.125000 0 0 0 0 0.000000 0.000000 0.000000 0.000000
-0.876300 -3.886201 7.162799 -0.000000 0.447218 0.894425 -0.000000 0.894425 -0.447218 -25.687500 -1.375000 0 0 0 0 0.000000 0.000000 0.000000 0.000000
-0.742950 -3.848101 7.086599 0.894427 0.447214 0.000000 -0.447214 0.894427 0.000010 -25.437500 11.687500 0 0 0 0 0.000000 0.000000 0.000000 0.000000
-0.723900 -3.886201 7.067549 0.894427 0.447214 0.000000 -0.447214 0.894427 0.000010 -25.687500 11.656250 0 0 0 0 0.000000 0.000000 0.000000 0.000000
-0.723900 -3.886201 7.162799 0.894427 0.447214 0.000000 -0.447214 0.894427 -0.000006 -25.687500 11.812500 0 0 0 0 0.000000 0.000000 0.000000 0.000000
-0.742950 -3.848101 7.143749 0.894427 0.447214 0.000000 -0.447214 0.894427 0.000010 -25.437500 11.781250 0 0 0 0 0.000000 0.000000 0.000000 0.000000
-0.742950 -3.848101 7.086599 0.000000 0.447218 -0.894425 -0.000001 0.894425 0.447218 -25.437500 -1.156250 0 0 0 0 0.000000 0.000000 0.000000 0.000000
-0.857250 -3.848101 7.086599 0.000000 0.447218 -0.894425 -0.000001 0.894425 0.447218 -25.437500 -1.343750 0 0 0 0 0.000000 0.000000 0.000000 0.000000
-0.876300 -3.886201 7.067549 0.000000 0.447218 -0.894425 -0.000000 0.894425 0.447218 -25.687500 -1.375000 0 0 0 0 0.000000 0.000000 0.000000 0.000000
-0.723900 -3.886201 7.067549 0.000000 0.447218 -0.894425 -0.000001 0.894425 0.447218 -25.687500 -1.125000 0 0 0 0 0.000000 0.000000 0.000000 0.000000
-1.447800 -3.962401 6.686550 -1.000000 -0.000000 -0.000000 -0.000000 1.000000 -0.000000 -28.263889 11.000000 0 0 0 0 0.000000 0.000000 0.000000 0.000000
-1.447800 -3.981451 6.686550 -1.000000 -0.000000 -0.000000 -0.000000 1.000000 -0.000000 -28.402779 11.000000 0 0 0 0 0.000000 0.000000 0.000000 0.000000
-1.447800 -3.981451 6.591299 -1.000000 -0.000000 -0.000000 -0.000000 1.000000 -0.000000 -28.402779 10.843750 0 0 0 0 0.000000 0.000000 0.000000 0.000000
-1.447800 -3.981451 6.534150 -1.000000 -0.000000 -0.000000 -0.000000 1.000000 0.000043 -28.402779 10.750000 0 0 0 0 0.000000 0.000000 0.000000 0.000000
-1.447800 -3.981451 6.515100 -1.000000 -0.000000 -0.000000 -0.000000 1.000000 -0.000128 -28.402779 10.718750 0 0 0 0 0.000000 0.000000 0.000000 0.000000
-1.447800 -3.962401 6.515100 -1.000000 -0.000000 -0.000000 -0.000000 1.000000 -0.000000 -28.263889 10.718750 0 0 0 0 0.000000 0.000000 0.000000 0.000000
-1.447800 -3.962401 6.515100 0.000000 0.000000 -1.000000 -0.000000 1.000000 0.000000 -28.263889 -2.375000 0 0 0 0 0.000000 0.000000 0.000000 0.000000
-1.447800 -3.981451 6.515100 0.000000 0.000000 -1.000000 -0.000000 1.000000 0.000000 -28.402779 -2.375000 0 0 0 0 0.000000 0.000000 0.000000 0.000000
-1.143000 -3.981451 6.515100 0.000000 0.000000 -1.000000 -0.000000 1.000000 0.000000 -28.402779 -1.875000 0 0 0 0 0.000000 0.000000 0.000000 0.000000
-1.143000 -3.962401 6.515100 0.000000 0.000000 -1.000000 -0.000000 1.000000 0.000000 -28.263889 -1.875000 0 0 0 0 0.000000 0.000000 0.000000 0.000000
-0.876300 -4.000501 6.553199 0.000000 -1.000000 -0.000000 -0.000001 -0.000000 1.000000 43.312500 -1.343750 0 0 0 0 0.000000 0.000000 0.000000 0.000000
-1.162050 -4.000501 6.553199 0.000000 -1.000000 -0.000000 0.000000 -0.000000 1.000000 43.312500 -1.812500 0 0 0 0 0.000000 0.000000 0.000000 0.000000
-1.162050 -4.000501 6.572249 0.000000 -1.000000 -0.000000 0.000000 -0.000000 1.000000 43.437500 -1.812500 0 0 0 0 0.000000 0.000000 0.000000 0.000000
-0.876300 -4.000501 6.572249 0.000000 -1.000000 -0.000000 0.000000 -0.000000 1.000000 43.437500 -1.343750 0 0 0 0 0.000000 0.000000 0.000000 0.000000
-0.762000 -4.000501 6.534150 0.000002 -1.000000 -0.000000 -0.000004 -0.000000 1.000000 43.312500 -1.156250 0 0 0 0 0.000000 0.000000 0.000000 0.000000
-0.876300 -4.000501 6.534150 0.000002 -1.000000 -0.000000 -0.000004 -0.000000 1.000000 43.312500 -1.343750 0 0 0 0 0.000000 0.000000 0.000000 0.000000
-0.876300 -4.000501 6.553199 0.000002 -1.000000 -0.000000 -0.000001 -0.000000 1.000000 43.437500 -1.343750 0 0 0 0 0.000000 0.000000 0.000000 0.000000
-0.876300 -4.000501 6.572249 0.000002 -1.000000 -0.000000 0.000000 -0.000000 1.000000 43.562500 -1.343750 0 0 0 0 0.000000 0.000000 0.000000 0.000000
-0.876300 -4.000501 6.591299 0.000002 -1.000000 -0.000000 0.000000 -0.000000 1.000000 43.687500 -1.343750 0 0 0 0 0.000000 0.000000 0.000000 0.000000
-0.762000 -4.000501 6.591299 0.000002 -1.000000 -0.000000 -0.000001 -0.000000 1.000000 43.687500 -1.156250 0 0 0 0 0.000000 0.000000 0.000000 0.000000
-1.143000 -3.962401 6.686550 -0.000000 -0.000000 1.000000 -0.000000 1.000000 0.000000 -28.263889 -1.875000 0 0 0 0 0.000000 0.000000 0.000000 0.000000
-1.143000 -3.981451 6.686550 -0.000000 -0.000000 1.000000 -0.000000 1.000000 0.000000 -28.402779 -1.875000 0 0 0 0 0.000000 0.000000 0.000000 0.000000
-1.447800 -3.981451 6.686550 -0.000000 -0.000000 1.000000 -0.000000 1.000000 0.000000 -28.402779 -2.375000 0 0 0 0 0.000000 0.000000 0.000000 0.000000
-1.447800 -3.962401 6.686550 -0.000000 -0.000000 1.000000 -0.000000 1.000000 0.000000 -28.263889 -2.375000 0 0 0 0 0.000000 0.000000 0.000000 0.000000
-0.885825 -3.981451 6.524624 -0.894426 -0.447217 -0.000000 -0.447217 0.894426 -0.000007 -26.562500 11.671875 0 0 0 0 0.000000 0.000000 0.000000 0.000000
-0.895350 -3.962401 6.515100 -0.894426 -0.447217 -0.000000 -0.447217 0.894426 -0.000007 -26.437500 11.656250 0 0 0 0 0.000000 0.000000 0.000000 0.000000
-0.895350 -3.962401 6.610350 -0.894426 -0.447217 -0.000000 -0.447217 0.894426 0.000006 -26.437500 11.812500 0 0 0 0 0.000000 0.000000 0.000000 0.000000
-0.885825 -3.981451 6.600824 -0.894426 -0.447217 -0.000000 -0.447217 0.894426 -0.000007 -26.562500 11.796875 0 0 0 0 0.000000 0.000000 0.000000 0.000000
-0.885825 -3.981451 6.591299 -0.894426 -0.447217 -0.000000 -0.000000 0.000000 1.000000 -26.562500 11.781250 0 0 0 0 0.000000 0.000000 0.000000 0.000000
-0.885825 -3.981451 6.534150 -0.894426 -0.447217 -0.000000 -0.000000 0.000000 1.000000 -26.562500 11.687500 0 0 0 0 0.000000 0.000000 0.000000 0.000000
-0.885825 -3.981451 6.591299 -0.000000 1.000000 0.000000 -0.000001 -0.000000 1.000000 43.687500 -1.390625 0 0 0 0 0.000000 0.000000 0.000000 0.000000
-1.143000 -3.981451 6.591299 -0.000000 1.000000 0.000000 -0.000001 -0.000000 1.000000 43.687500 -1.812500 0 0 0 0 0.000000 0.000000 0.000000 0.000000
-1.143000 -3.981451 6.534150 -0.000000 1.000000 0.000000 -0.000002 -0.000000 1.000000 43.312500 -1.812500 0 0 0 0 0.000000 0.000000 0.000000 0.000000
-0.885825 -3.981451 6.534150 -0.000000 1.000000 0.000000 -0.000001 -0.000000 1.000000 43.312500 -1.390625 0 0 0 0 0.000000 0.000000 0.000000 0.000000
-1.143000 -3.962401 6.515100 1.000000 0.000000 0.000000 -0.000000 1.000000 -0.000000 -28.263889 10.718750 0 0 0 0 0.000000 0.000000 0.000000 0.000000
-1.143000 -3.981451 6.515100 1.000000 0.000000 0.000000 -0.000000 1.000000 -0.000000 -28.402779 10.718750 0 0 0 0 0.000000 0.000000 0.000000 0.000000
-1.143000 -3.981451 6.534150 1.000000 0.000000 0.000000 -0.000000 1.000000 -0.000000 -28.402779 10.750000 0 0 0 0 0.000000 0.000000 0.000000 0.000000
-1.143000 -3.981451 6.591299 1.000000 0.000000 0.000000 -0.000000 1.000000 -0.000021 -28.402779 10.843750 0 0 0 0 0.000000 0.000000 0.000000 0.000000
-1.143000 -3.981451 6.686550 1.000000 0.000000 0.000000 -0.000000 1.000000 0.000013 -28.402779 11.000000 0 0 0 0 0.000000 0.000000 0.000000 0.000000
-1.143000 -3.962401 6.686550 1.000000 0.000000 0.000000 -0.000000 1.000000 -0.000000 -28.263889 11.000000 0 0 0 0 0.000000 0.000000 0.000000 0.000000
-1.162050 -3.981451 6.534150 -1.000000 -0.000000 -0.000000 -0.000000 1.000000 0.000011 -25.687500 11.687500 0 0 0 0 0.000000 0.000000 0.000000 0.000000
-1.162050 -3.981451 6.591299 -1.000000 -0.000000 -0.000000 -0.000000 1.000000 0.000011 -25.687500 11.781250 0 0 0 0 0.000000 0.000000 0.000000 0.000000
-1.162050 -4.000501 6.572249 -1.000000 -0.000000 -0.000000 -0.000000 1.000000 0.000032 -25.812500 11.750000 0 0 0 0 0.000000 0.000000 0.000000 0.000000
-1.162050 -4.000501 6.553199 -1.000000 -0.000000 -0.000000 -0.000000 1.000000 0.000011 -25.812500 11.718750 0 0 0 0 0.000000 0.000000 0.000000 0.000000
-0.885825 -3.981451 6.534150 0.000000 -0.707115 -0.707098 -0.000002 -0.707098 0.707115 42.062500 -1.359375 0 0 0 0 0.000000 0.000000 0.000000 0.000000
-1.143000 -3.981451 6.534150 0.000000 -0.707115 -0.707098 -0.000002 -0.707098 0.707115 42.062500 -1.781250 0 0 0 0 0.000000 0.000000 0.000000 0.000000
-1.162050 -3.981451 6.534150 0.000000 -0.707115 -0.707098 -0.000003 -0.707098 0.707115 42.062500 -1.812500 0 0 0 0 0.000000 0.000000 0.000000 0.000000
-1.162050 -4.000501 6.553199 0.000000 -0.707115 -0.707098 -0.000002 -0.707098 0.707115 42.187500 -1.812500 0 0 0 0 0.000000 0.000000 0.000000 0.000000
-0.876300 -4.000501 6.553199 0.000000 -0.707115 -0.707098 -0.000003 -0.707098 0.707115 42.187500 -1.343750 0 0 0 0 0.000000 0.000000 0.000000 0.000000
-1.162050 -3.981451 6.591299 0.000000 -0.707107 0.707106 -1.000000 -0.000000 0.000000 43.687500 -1.812500 0 0 0 0 0.000000 0.000000 0.000000 0.000000
-1.143000 -3.981451 6.591299 0.000000 -0.707107 0.707106 -1.000000 -0.000000 0.000000 43.687500 -1.781250 0 0 0 0 0.000000 0.000000 0.000000 0.000000
-0.885825 -3.981451 6.591299 0.000000 -0.707107 0.707106 -1.000000 -0.000000 0.000000 43.687500 -1.359375 0 0 0 0 0.000000 0.000000 0.000000 0.000000
-0.876300 -4.000501 6.572249 0.000000 -0.707107 0.707106 -0.000000 0.707106 0.707108 43.562500 -1.343750 0 0 0 0 0.000000 0.000000 0.000000 0.000000
-1.162050 -4.000501 6.572249 0.000000 -0.707107 0.707106 -0.000000 0.707106 0.707107 43.562500 -1.812500 0 0 0 0 0.000000 0.000000 0.000000 0.000000
-0.762000 -4.000501 6.534150 0.894427 -0.447214 0.000000 0.447214 0.894427 -0.000010 -26.687500 11.687500 0 0 0 0 0.000000 0.000000 0.000000 0.000000
-0.762000 -4.000501 6.591299 0.894427 -0.447214 0.000000 0.447214 0.894427 -0.000010 -26.687500 11.781250 0 0 0 0 0.000000 0.000000 0.000000 0.000000
-0.742950 -3.962401 6.610350 0.894427 -0.447214 0.000000 0.447214 0.894427 0.000006 -26.437500 11.812500 0 0 0 0 0.000000 0.000000 0.000000 0.000000
-0.742950 -3.962401 6.515100 0.894427 -0.447214 0.000000 0.447214 0.894427 -0.000010 -26.437500 11.656250 0 0 0 0 0.000000 0.000000 0.000000 0.000000
-0.876300 -4.000501 6.591299 0.000001 -0.447206 0.894431 0.408245 -0.816501 -0.408242 -26.687500 -1.343750 0 0 0 0 0.000000 0.000000 0.000000 0.000000
-0.885825 -3.981451 6.600824 0.000001 -0.447206 0.894431 0.408245 -0.816501 -0.408242 -26.562500 -1.359375 0 0 0 0 0.000000 0.000000 0.000000 0.000000
-0.895350 -3.962401 6.610350 0.000001 -0.447206 0.894431 0.408245 -0.816501 -0.408242 -26.437500 -1.375000 0 0 0 0 0.000000 0.000000 0.000000 0.000000
-0.742950 -3.962401 6.610350 0.000001 -0.447206 0.894431 0.000000 0.894431 0.447206 -26.437500 -1.125000 0 0 0 0 0.000000 0.000000 0.000000 0.000000
-0.762000 -4.000501 6.591299 0.000001 -0.447206 0.894431 -0.000000 0.894431 0.447206 -26.687500 -1.156250 0 0 0 0 0.000000 0.000000 0.000000 0.000000
-0.762000 -4.000501 6.534150 -0.000001 -0.447218 -0.894425 -0.000000 0.894425 -0.447218 -26.687500 -1.156250 0 0 0 0 0.000000 0.000000 0.000000 0.000000
-0.742950 -3.962401 6.515100 -0.000001 -0.447218 -0.894425 -0.000000 0.894425 -0.447218 -26.437500 -1.125000 0 0 0 0 0.000000 0.000000 0.000000 0.000000
-0.895350 -3.962401 6.515100 -0.000001 -0.447218 -0.894425 -0.000000 0.894425 -0.447218 -26.437500 -1.375000 0 0 0 0 0.000000 0.000000 0.000000 0.000000
-0.885825 -3.981451 6.524624 -0.000001 -0.447218 -0.894425 0.000001 0.894425 -0.447218 -26.562500 -1.359375 0 0 0 0 0.000000 0.000000 0.000000 0.000000
-0.876300 -4.000501 6.534150 -0.000001 -0.447218 -0.894425 0.000000 0.894425 -0.447218 -26.687500 -1.343750 0 0 0 0 0.000000 0.000000 0.000000 0.000000
IndexCount: 384
3 1 0
3 2 1
7 5 4
7 6 5
11 9 8
11 10 9
12 17 16
12 16 15
12 15 14
14 13 12
21 19 18
21 20 19
25 23 22
25 24 23
29 27 26
29 28 27
33 31 30
33 32 31
37 35 34
37 36 35
41 39 38
41 40 39
45 43 42
45 44 43
49 47 46
49 48 47
53 51 50
53 52 51
57 55 54
57 56 55
61 59 58
61 60 59
65 63 62
65 64 63
69 67 66
69 68 67
70 75 74
70 74 73
70 73 72
72 71 70
79 77 76
79 78 77
80 84 83
80 83 82
82 81 80
85 89 88
85 88 87
87 86 85
92 88 91
92 91 90
96 94 93
96 95 94
97 102 101
101 98 97
101 100 99
101 99 98
106 104 103
106 105 104
107 112 111
107 111 110
110 108 107
110 109 108
113 118 117
113 117 116
113 116 115
115 114 113
121 120 119
125 123 122
125 124 123
128 127 126
129 133 132
129 132 131
131 130 129
134 138 137
134 137 136
136 135 134
139 143 142
142 140 139
142 141 140
144 148 147
144 147 146
146 145 144
152 150 149
152 151 150
156 154 153
156 155 154
160 158 157
160 159 158
161 166 165
161 165 164
161 164 163
163 162 161
170 168 167
170 169 168
174 172 171
174 173 172
175 180 179
175 179 178
175 178 177
177 176 175
184 182 181
184 183 182
185 190 189
185 189 188
188 186 185
188 187 186
194 192 191
194 193 192
195 200 199
195 199 198
195 198 197
197 196 195
204 202 201
204 203 202
205 209 208
208 206 205
208 207 206
210 214 213
210 213 212
212 211 210
218 216 215
218 217 216
219 223 222
219 222 221
221 220 219
224 228 227
224 227 226
226 225 224
