VertexCount: 120
4.953002 -4.114796 -22.250401 1.000000 0.000000 0.000000 -0.000000 -0.000001 1.000000 -37.000000 3.843750 0 0 0 0 0.000000 0.000000 0.000000 0.000000
4.953002 -1.828796 -22.250401 1.000000 0.000000 0.000000 -0.000000 -0.000001 1.000000 -37.000000 1.968750 0 0 0 0 0.000000 0.000000 0.000000 0.000000
4.953002 -1.828796 -22.859999 1.000000 0.000000 0.000000 -0.000000 0.000000 1.000000 -38.000000 1.968750 0 0 0 0 0.000000 0.000000 0.000000 0.000000
4.953002 -4.114796 -22.859999 1.000000 0.000000 0.000000 -0.000000 -0.000001 1.000000 -38.000000 3.843750 0 0 0 0 0.000000 0.000000 0.000000 0.000000
4.953002 -4.114796 -19.202400 1.000000 0.000000 0.000000 -0.000000 -0.000000 1.000000 -32.000000 3.843750 0 0 0 0 0.000000 0.000000 0.000000 0.000000
4.953002 -1.828796 -19.202400 1.000000 0.000000 0.000000 -0.000000 -0.000000 1.000000 -32.000000 1.968750 0 0 0 0 0.000000 0.000000 0.000000 0.000000
4.953002 -1.828796 -19.812000 1.000000 0.000000 0.000000 -0.000000 -0.000000 1.000000 -33.000000 1.968750 0 0 0 0 0.000000 0.000000 0.000000 0.000000
4.953002 -4.114796 -19.812002 1.000000 0.000000 0.000000 -0.000000 -0.000000 1.000000 -33.000000 3.843750 0 0 0 0 0.000000 0.000000 0.000000 0.000000
4.953002 -1.828796 -19.202400 0.707107 0.707106 0.000000 -0.000000 -0.000000 1.000000 -31.500000 3.281250 0 0 0 0 0.000000 0.000000 0.000000 0.000000
4.648202 -1.523997 -19.202400 0.707107 0.707106 0.000000 -0.000000 -0.000000 1.000000 -31.500000 3.031250 0 0 0 0 0.000000 0.000000 0.000000 0.000000
4.648202 -1.523996 -19.812000 0.707107 0.707106 0.000000 -0.000000 -0.000000 1.000000 -32.500000 3.031250 0 0 0 0 0.000000 0.000000 0.000000 0.000000
4.953002 -1.828796 -19.812000 0.707107 0.707106 0.000000 -0.000000 -0.000000 1.000000 -32.500000 3.281250 0 0 0 0 0.000000 0.000000 0.000000 0.000000
4.953002 -1.828796 -22.250401 0.707106 0.707107 0.000000 -0.000000 0.000000 1.000000 -36.500000 3.781250 0 0 0 0 0.000000 0.000000 0.000000 0.000000
4.648202 -1.523996 -22.250401 0.707106 0.707107 0.000000 -0.000000 0.000000 1.000000 -36.500000 3.531250 0 0 0 0 0.000000 0.000000 0.000000 0.000000
4.648202 -1.523996 -22.859999 0.707106 0.707107 0.000000 -0.000000 -0.000000 1.000000 -37.500000 3.531250 0 0 0 0 0.000000 0.000000 0.000000 0.000000
4.953002 -1.828796 -22.859999 0.707106 0.707107 0.000000 -0.000000 0.000000 1.000000 -37.500000 3.781250 0 0 0 0 0.000000 0.000000 0.000000 0.000000
4.457702 -2.057396 -20.002499 0.768222 -0.640184 -0.000000 0.640184 0.768222 -0.000002 -4.343750 -16.703125 0 0 0 0 0.000000 0.000000 0.000000 0.000000
4.648202 -1.828796 -19.812000 0.768222 -0.640184 -0.000000 0.640184 0.768222 0.000002 -3.968750 -16.546875 0 0 0 0 0.000000 0.000000 0.000000 0.000000
4.648202 -1.828796 -22.250401 0.768222 -0.640184 -0.000000 0.640184 0.768222 -0.000006 -3.968750 -18.546875 0 0 0 0 0.000000 0.000000 0.000000 0.000000
4.457702 -2.057396 -22.059900 0.768222 -0.640184 -0.000000 0.640184 0.768222 0.000008 -4.343750 -18.390625 0 0 0 0 0.000000 0.000000 0.000000 0.000000
4.457702 -2.057396 -21.983698 0.768222 -0.640184 -0.000000 0.640184 0.768222 0.000002 -4.343750 -18.328125 0 0 0 0 0.000000 0.000000 0.000000 0.000000
4.457702 -2.057396 -21.107399 0.768222 -0.640184 -0.000000 0.000000 0.000000 -1.000000 -4.343750 -17.609375 0 0 0 0 0.000000 0.000000 0.000000 0.000000
4.457702 -2.057396 -20.955000 0.768222 -0.640184 -0.000000 0.640184 0.768222 0.000002 -4.343750 -17.484375 0 0 0 0 0.000000 0.000000 0.000000 0.000000
4.457702 -2.057396 -20.078701 0.768222 -0.640184 -0.000000 0.000000 0.000000 -1.000000 -4.343750 -16.765625 0 0 0 0 0.000000 0.000000 0.000000 0.000000
4.648202 -1.828796 -19.812000 0.707108 0.000000 -0.707105 0.707106 0.000001 0.707108 -33.000000 1.781250 0 0 0 0 0.000000 0.000000 0.000000 0.000000
4.457702 -2.057396 -20.002499 0.707108 0.000000 -0.707105 0.707106 0.000001 0.707108 -33.312500 1.968750 0 0 0 0 0.000000 0.000000 0.000000 0.000000
4.457702 -3.886196 -20.002501 0.707108 0.000000 -0.707105 0.707106 -0.000001 0.707108 -33.312500 3.468750 0 0 0 0 0.000000 0.000000 0.000000 0.000000
4.648202 -4.114796 -19.812002 0.707108 0.000000 -0.707105 0.707106 0.000001 0.707108 -33.000000 3.656250 0 0 0 0 0.000000 0.000000 0.000000 0.000000
4.457702 -2.057396 -22.059900 0.707108 -0.000000 0.707106 -0.707106 -0.000001 0.707108 -36.656250 1.968750 0 0 0 0 0.000000 0.000000 0.000000 0.000000
4.648202 -1.828796 -22.250401 0.707108 -0.000000 0.707106 -0.707106 -0.000001 0.707108 -36.968750 1.781250 0 0 0 0 0.000000 0.000000 0.000000 0.000000
4.648202 -4.114796 -22.250401 0.707108 -0.000000 0.707106 -0.707106 0.000001 0.707108 -36.968750 3.656250 0 0 0 0 0.000000 0.000000 0.000000 0.000000
4.457702 -3.886196 -22.059900 0.707108 -0.000000 0.707106 -0.707106 -0.000001 0.707108 -36.656250 3.468750 0 0 0 0 0.000000 0.000000 0.000000 0.000000
4.648202 -4.114796 -19.812002 0.768221 0.640184 0.000000 -0.640184 0.768221 0.000012 -7.000000 -16.546875 0 0 0 0 0.000000 0.000000 0.000000 0.000000
4.457702 -3.886196 -20.002501 0.768221 0.640184 0.000000 -0.640184 0.768221 0.000012 -6.625000 -16.703125 0 0 0 0 0.000000 0.000000 0.000000 0.000000
4.457702 -3.886196 -20.078701 0.768221 0.640184 0.000000 -0.640184 0.768221 0.000012 -6.625000 -16.765625 0 0 0 0 0.000000 0.000000 0.000000 0.000000
4.457702 -3.886196 -20.955000 0.768221 0.640184 0.000000 -0.640184 0.768221 -0.000004 -6.625000 -17.484375 0 0 0 0 0.000000 0.000000 0.000000 0.000000
4.457702 -3.886196 -21.107399 0.768221 0.640184 0.000000 -0.640184 0.768221 0.000004 -6.625000 -17.609375 0 0 0 0 0.000000 0.000000 0.000000 0.000000
4.457702 -3.886196 -21.983698 0.768221 0.640184 0.000000 -0.640184 0.768221 0.000001 -6.625000 -18.328125 0 0 0 0 0.000000 0.000000 0.000000 0.000000
4.457702 -3.886196 -22.059900 0.768221 0.640184 0.000000 -0.640184 0.768221 0.000131 -6.625000 -18.390625 0 0 0 0 0.000000 0.000000 0.000000 0.000000
4.648202 -4.114796 -22.250401 0.768221 0.640184 0.000000 -0.640184 0.768221 0.000002 -7.000000 -18.546875 0 0 0 0 0.000000 0.000000 0.000000 0.000000
4.076702 -1.828796 -19.812000 -0.768221 -0.640184 -0.000000 -0.640184 0.768222 -0.000012 -3.968750 -16.546875 0 0 0 0 0.000000 0.000000 0.000000 0.000000
4.267202 -2.057396 -20.002499 -0.768221 -0.640184 -0.000000 -0.640184 0.768222 -0.000012 -4.343750 -16.703125 0 0 0 0 0.000000 0.000000 0.000000 0.000000
4.267202 -2.057396 -20.078701 -0.768221 -0.640184 -0.000000 -0.640184 0.768222 -0.000012 -4.343750 -16.765625 0 0 0 0 0.000000 0.000000 0.000000 0.000000
4.267202 -2.057396 -20.955000 -0.768221 -0.640184 -0.000000 -0.640184 0.768222 0.000003 -4.343750 -17.484375 0 0 0 0 0.000000 0.000000 0.000000 0.000000
4.267202 -2.057396 -21.107399 -0.768221 -0.640184 -0.000000 -0.640184 0.768222 0.000000 -4.343750 -17.609375 0 0 0 0 0.000000 0.000000 0.000000 0.000000
4.267202 -2.057396 -21.983698 -0.768221 -0.640184 -0.000000 -0.640184 0.768222 0.000003 -4.343750 -18.328125 0 0 0 0 0.000000 0.000000 0.000000 0.000000
4.267202 -2.057396 -22.059900 -0.768221 -0.640184 -0.000000 -0.640184 0.768222 -0.000115 -4.343750 -18.390625 0 0 0 0 0.000000 0.000000 0.000000 0.000000
4.076702 -1.828796 -22.250401 -0.768221 -0.640184 -0.000000 -0.640184 0.768222 -0.000002 -3.968750 -18.546875 0 0 0 0 0.000000 0.000000 0.000000 0.000000
4.267202 -3.886196 -20.002501 -0.707107 0.000000 -0.707106 -0.707106 -0.000001 0.707107 -33.312500 3.468750 0 0 0 0 0.000000 0.000000 0.000000 0.000000
4.267202 -2.057396 -20.002499 -0.707107 0.000000 -0.707106 -0.707106 -0.000001 0.707107 -33.312500 1.968750 0 0 0 0 0.000000 0.000000 0.000000 0.000000
4.076702 -1.828796 -19.812000 -0.707107 0.000000 -0.707106 -0.707106 -0.000000 0.707107 -33.000000 1.781250 0 0 0 0 0.000000 0.000000 0.000000 0.000000
4.076702 -4.114796 -19.812002 -0.707107 0.000000 -0.707106 -0.707106 -0.000001 0.707107 -33.000000 3.656250 0 0 0 0 0.000000 0.000000 0.000000 0.000000
4.076702 -1.828796 -22.250401 -0.707108 -0.000000 0.707106 0.707106 -0.000001 0.707108 -35.968750 1.781250 0 0 0 0 0.000000 0.000000 0.000000 0.000000
4.267202 -2.057396 -22.059900 -0.707108 -0.000000 0.707106 0.707106 -0.000001 0.707108 -35.656250 1.968750 0 0 0 0 0.000000 0.000000 0.000000 0.000000
4.267202 -3.886196 -22.059900 -0.707108 -0.000000 0.707106 0.707106 0.000001 0.707108 -35.656250 3.468750 0 0 0 0 0.000000 0.000000 0.000000 0.000000
4.076702 -4.114796 -22.250401 -0.707108 -0.000000 0.707106 0.707106 -0.000001 0.707108 -35.968750 3.656250 0 0 0 0 0.000000 0.000000 0.000000 0.000000
4.267202 -3.886196 -22.059900 -0.768221 0.640185 0.000000 0.640185 0.768221 0.000131 -6.625000 -18.390625 0 0 0 0 0.000000 0.000000 0.000000 0.000000
4.267202 -3.886196 -21.983698 -0.768221 0.640185 0.000000 0.640185 0.768221 0.000131 -6.625000 -18.328125 0 0 0 0 0.000000 0.000000 0.000000 0.000000
4.267202 -3.886196 -21.107399 -0.768221 0.640185 0.000000 0.640185 0.768221 0.000001 -6.625000 -17.609375 0 0 0 0 0.000000 0.000000 0.000000 0.000000
4.267202 -3.886196 -20.955000 -0.768221 0.640185 0.000000 0.640185 0.768221 0.000004 -6.625000 -17.484375 0 0 0 0 0.000000 0.000000 0.000000 0.000000
4.267202 -3.886196 -20.078701 -0.768221 0.640185 0.000000 0.640185 0.768221 -0.000004 -6.625000 -16.765625 0 0 0 0 0.000000 0.000000 0.000000 0.000000
4.267202 -3.886196 -20.002501 -0.768221 0.640185 0.000000 0.640185 0.768221 0.000012 -6.625000 -16.703125 0 0 0 0 0.000000 0.000000 0.000000 0.000000
4.076702 -4.114796 -19.812002 -0.768221 0.640185 0.000000 0.640185 0.768221 0.000131 -7.000000 -16.546875 0 0 0 0 0.000000 0.000000 0.000000 0.000000
4.076702 -4.114796 -22.250401 -0.768221 0.640185 0.000000 0.640185 0.768221 0.000002 -7.000000 -18.546875 0 0 0 0 0.000000 0.000000 0.000000 0.000000
0.723902 -1.828797 -19.812000 0.707107 0.000000 -0.707106 0.707106 0.000001 0.707107 -32.656250 1.781250 0 0 0 0 0.000000 0.000000 0.000000 0.000000
0.533402 -2.057397 -20.002499 0.707107 0.000000 -0.707106 0.707106 0.000001 0.707107 -32.968750 1.968750 0 0 0 0 0.000000 0.000000 0.000000 0.000000
0.533402 -3.886197 -20.002501 0.707107 0.000000 -0.707106 0.707106 -0.000001 0.707107 -32.968750 3.468750 0 0 0 0 0.000000 0.000000 0.000000 0.000000
0.723902 -4.114797 -19.812002 0.707107 0.000000 -0.707106 0.707106 0.000001 0.707107 -32.656250 3.656250 0 0 0 0 0.000000 0.000000 0.000000 0.000000
0.723902 -1.828796 -22.250401 0.768221 -0.640185 -0.000000 0.640185 0.768221 -0.000002 -3.968750 -18.546875 0 0 0 0 0.000000 0.000000 0.000000 0.000000
0.533402 -2.057396 -22.059900 0.768221 -0.640185 -0.000000 0.640185 0.768221 -0.000002 -4.343750 -18.390625 0 0 0 0 0.000000 0.000000 0.000000 0.000000
0.533402 -2.057396 -21.983698 0.768221 -0.640185 -0.000000 0.640185 0.768221 -0.000115 -4.343750 -18.328125 0 0 0 0 0.000000 0.000000 0.000000 0.000000
0.533402 -2.057396 -21.107399 0.768221 -0.640185 -0.000000 0.640185 0.768221 0.000005 -4.343750 -17.609375 0 0 0 0 0.000000 0.000000 0.000000 0.000000
0.533402 -2.057396 -20.955000 0.768221 -0.640185 -0.000000 0.640185 0.768221 -0.000000 -4.343750 -17.484375 0 0 0 0 0.000000 0.000000 0.000000 0.000000
0.533402 -2.057397 -20.078701 0.768221 -0.640185 -0.000000 0.640185 0.768221 0.000004 -4.343750 -16.765625 0 0 0 0 0.000000 0.000000 0.000000 0.000000
0.533402 -2.057397 -20.002499 0.768221 -0.640185 -0.000000 0.640185 0.768221 -0.000004 -4.343750 -16.703125 0 0 0 0 0.000000 0.000000 0.000000 0.000000
0.723902 -1.828797 -19.812000 0.768221 -0.640185 -0.000000 0.640185 0.768221 0.000001 -3.968750 -16.546875 0 0 0 0 0.000000 0.000000 0.000000 0.000000
0.723902 -1.828797 -19.926300 0.768221 -0.640185 -0.000000 0.640185 0.768221 -0.000002 -3.968750 -16.640625 0 0 0 0 0.000000 0.000000 0.000000 0.000000
0.723902 -1.828796 -22.136101 0.768221 -0.640185 -0.000000 -0.000000 -0.000000 1.000000 -3.968750 -18.453125 0 0 0 0 0.000000 0.000000 0.000000 0.000000
0.533402 -3.886197 -20.002501 0.768221 0.640185 0.000000 -0.640185 0.768221 -0.000115 -6.625000 -16.703125 0 0 0 0 0.000000 0.000000 0.000000 0.000000
0.533402 -3.886197 -20.078701 0.768221 0.640185 0.000000 -0.640185 0.768221 -0.000115 -6.625000 -16.765625 0 0 0 0 0.000000 0.000000 0.000000 0.000000
0.533402 -3.886197 -20.955000 0.768221 0.640185 0.000000 -0.640185 0.768221 0.000013 -6.625000 -17.484375 0 0 0 0 0.000000 0.000000 0.000000 0.000000
0.533402 -3.886197 -21.107399 0.768221 0.640185 0.000000 -0.640185 0.768221 0.000004 -6.625000 -17.609375 0 0 0 0 0.000000 0.000000 0.000000 0.000000
0.533402 -3.886196 -21.983698 0.768221 0.640185 0.000000 -0.640185 0.768221 0.000007 -6.625000 -18.328125 0 0 0 0 0.000000 0.000000 0.000000 0.000000
0.533402 -3.886196 -22.059900 0.768221 0.640185 0.000000 -0.640185 0.768221 -0.000008 -6.625000 -18.390625 0 0 0 0 0.000000 0.000000 0.000000 0.000000
0.723902 -4.114796 -22.250401 0.768221 0.640185 0.000000 -0.640185 0.768221 -0.000115 -7.000000 -18.546875 0 0 0 0 0.000000 0.000000 0.000000 0.000000
0.723902 -4.114797 -19.812002 0.768221 0.640185 0.000000 -0.640185 0.768221 0.000002 -7.000000 -16.546875 0 0 0 0 0.000000 0.000000 0.000000 0.000000
0.533402 -3.886196 -22.059900 0.707107 -0.000000 0.707106 -0.707106 0.000001 0.707107 -36.750000 3.468750 0 0 0 0 0.000000 0.000000 0.000000 0.000000
0.533402 -2.057396 -22.059900 0.707107 -0.000000 0.707106 -0.707106 0.000001 0.707107 -36.750000 1.968750 0 0 0 0 0.000000 0.000000 0.000000 0.000000
0.723902 -1.828796 -22.250401 0.707107 -0.000000 0.707106 -0.707106 -0.000001 0.707107 -37.062500 1.781250 0 0 0 0 0.000000 0.000000 0.000000 0.000000
0.723902 -4.114796 -22.250401 0.707107 -0.000000 0.707106 -0.707106 0.000001 0.707107 -37.062500 3.656250 0 0 0 0 0.000000 0.000000 0.000000 0.000000
0.152402 -1.828797 -19.812000 -0.768221 -0.640185 -0.000000 -0.640185 0.768221 -0.000002 -3.968750 -16.546875 0 0 0 0 0.000000 0.000000 0.000000 0.000000
0.342902 -2.057397 -20.002499 -0.768221 -0.640185 -0.000000 -0.640185 0.768221 -0.000002 -4.343750 -16.703125 0 0 0 0 0.000000 0.000000 0.000000 0.000000
0.342902 -2.057397 -20.078701 -0.768221 -0.640185 -0.000000 -0.640185 0.768221 0.000041 -4.343750 -16.765625 0 0 0 0 0.000000 0.000000 0.000000 0.000000
0.342902 -2.057396 -20.955000 -0.768221 -0.640185 -0.000000 -0.640185 0.768221 0.000000 -4.343750 -17.484375 0 0 0 0 0.000000 0.000000 0.000000 0.000000
0.342902 -2.057396 -21.107399 -0.768221 -0.640185 -0.000000 -0.640185 0.768221 -0.000000 -4.343750 -17.609375 0 0 0 0 0.000000 0.000000 0.000000 0.000000
0.342902 -2.057396 -21.983698 -0.768221 -0.640185 -0.000000 -0.640185 0.768221 0.000001 -4.343750 -18.328125 0 0 0 0 0.000000 0.000000 0.000000 0.000000
0.342902 -2.057396 -22.059900 -0.768221 -0.640185 -0.000000 -0.640185 0.768221 -0.000066 -4.343750 -18.390625 0 0 0 0 0.000000 0.000000 0.000000 0.000000
0.152402 -1.828796 -22.250401 -0.768221 -0.640185 -0.000000 -0.640185 0.768221 -0.000002 -3.968750 -18.546875 0 0 0 0 0.000000 0.000000 0.000000 0.000000
0.152402 -1.828796 -21.259800 -0.768221 -0.640185 -0.000000 0.000000 0.000000 -1.000000 -3.968750 -17.734375 0 0 0 0 0.000000 0.000000 0.000000 0.000000
0.152402 -1.828797 -20.802599 -0.768221 -0.640185 -0.000000 -0.640185 0.768221 -0.000002 -3.968750 -17.359375 0 0 0 0 0.000000 0.000000 0.000000 0.000000
0.152402 -4.114797 -19.812002 -0.707107 0.000000 -0.707106 -0.707106 -0.000001 0.707107 -32.656250 3.656250 0 0 0 0 0.000000 0.000000 0.000000 0.000000
0.342902 -3.886197 -20.002501 -0.707107 0.000000 -0.707106 -0.707106 -0.000001 0.707107 -32.968750 3.468750 0 0 0 0 0.000000 0.000000 0.000000 0.000000
0.342902 -2.057397 -20.002499 -0.707107 0.000000 -0.707106 -0.707106 0.000000 0.707107 -32.968750 1.968750 0 0 0 0 0.000000 0.000000 0.000000 0.000000
0.152402 -1.828797 -19.812000 -0.707107 0.000000 -0.707106 -0.707106 -0.000001 0.707107 -32.656250 1.781250 0 0 0 0 0.000000 0.000000 0.000000 0.000000
0.342902 -3.886196 -22.059900 -0.707107 -0.000000 0.707106 0.707106 0.000001 0.707107 -36.687500 3.468750 0 0 0 0 0.000000 0.000000 0.000000 0.000000
0.152402 -4.114796 -22.250401 -0.707107 -0.000000 0.707106 0.707106 0.000001 0.707107 -37.000000 3.656250 0 0 0 0 0.000000 0.000000 0.000000 0.000000
0.152402 -1.828796 -22.250401 -0.707107 -0.000000 0.707106 0.707106 -0.000001 0.707107 -37.000000 1.781250 0 0 0 0 0.000000 0.000000 0.000000 0.000000
0.342902 -2.057396 -22.059900 -0.707107 -0.000000 0.707106 0.707106 0.000001 0.707107 -36.687500 1.968750 0 0 0 0 0.000000 0.000000 0.000000 0.000000
0.152402 -4.114796 -22.250401 -0.768221 0.640184 0.000000 0.640184 0.768221 0.000002 -7.000000 -18.546875 0 0 0 0 0.000000 0.000000 0.000000 0.000000
0.342902 -3.886196 -22.059900 -0.768221 0.640184 0.000000 0.640184 0.768221 0.000002 -6.625000 -18.390625 0 0 0 0 0.000000 0.000000 0.000000 0.000000
0.342902 -3.886196 -21.983698 -0.768221 0.640184 0.000000 0.640184 0.768221 0.000016 -6.625000 -18.328125 0 0 0 0 0.000000 0.000000 0.000000 0.000000
0.342902 -3.886197 -21.107399 -0.768221 0.640184 0.000000 0.640184 0.768221 0.000006 -6.625000 -17.609375 0 0 0 0 0.000000 0.000000 0.000000 0.000000
0.342902 -3.886197 -20.955000 -0.768221 0.640184 0.000000 0.640184 0.768221 0.000004 -6.625000 -17.484375 0 0 0 0 0.000000 0.000000 0.000000 0.000000
0.342902 -3.886197 -20.078701 -0.768221 0.640184 0.000000 0.640184 0.768221 0.000010 -6.625000 -16.765625 0 0 0 0 0.000000 0.000000 0.000000 0.000000
0.342902 -3.886197 -20.002501 -0.768221 0.640184 0.000000 0.640184 0.768221 -0.000090 -6.625000 -16.703125 0 0 0 0 0.000000 0.000000 0.000000 0.000000
0.152402 -4.114797 -19.812002 -0.768221 0.640184 0.000000 0.640184 0.768221 0.000002 -7.000000 -16.546875 0 0 0 0 0.000000 0.000000 0.000000 0.000000
0.152402 -4.114797 -19.964399 -0.768221 0.640184 0.000000 -0.000000 -0.000000 1.000000 -7.000000 -16.671875 0 0 0 0 0.000000 0.000000 0.000000 0.000000
0.152402 -4.114797 -20.269199 -0.768221 0.640184 0.000000 -0.000000 -0.000000 1.000000 -7.000000 -16.921875 0 0 0 0 0.000000 0.000000 0.000000 0.000000
0.152402 -4.114796 -21.793200 -0.768221 0.640184 0.000000 0.640184 0.768221 0.000002 -7.000000 -18.171875 0 0 0 0 0.000000 0.000000 0.000000 0.000000
0.152402 -4.114796 -22.098000 -0.768221 0.640184 0.000000 -0.000000 -0.000000 1.000000 -7.000000 -18.421875 0 0 0 0 0.000000 0.000000 0.000000 0.000000
IndexCount: 240
3 1 0
3 2 1
7 5 4
7 6 5
11 9 8
11 10 9
15 13 12
15 14 13
16 23 22
17 16 22
22 21 20
22 20 17
20 18 17
20 19 18
27 25 24
27 26 25
31 29 28
31 30 29
32 39 38
32 38 37
32 37 36
32 36 35
32 35 34
34 33 32
40 47 46
40 46 45
40 45 44
40 44 43
40 43 42
42 41 40
51 49 48
51 50 49
55 53 52
55 54 53
56 63 62
62 57 56
62 61 60
62 60 59
62 59 58
62 58 57
67 65 64
67 66 65
68 77 76
76 69 68
76 70 69
76 71 70
76 75 74
76 74 73
76 73 72
76 72 71
78 85 84
84 79 78
84 83 82
84 82 81
84 81 80
84 80 79
89 87 86
89 88 87
99 91 90
99 92 91
99 93 92
99 94 93
99 95 94
99 96 95
99 98 97
99 97 96
103 101 100
103 102 101
107 105 104
107 106 105
108 119 118
118 109 108
118 110 109
118 111 110
118 112 111
118 113 112
118 114 113
118 115 114
118 117 116
118 116 115
