VertexCount: 28
-0.723900 -3.867151 6.000750 0.000000 0.000000 -1.000000 -0.000000 1.000000 0.000000 -6.093750 -1.750000 0 0 0 0 0.000000 0.000000 0.000000 0.000000
-0.914400 -3.867151 6.000750 0.000000 0.000000 -1.000000 -0.000000 1.000000 0.000000 -6.093750 -2.375000 0 0 0 0 0.000000 0.000000 0.000000 0.000000
-0.914400 -3.886201 6.000750 0.000000 0.000000 -1.000000 -0.000000 1.000000 0.000000 -6.125000 -2.375000 0 0 0 0 0.000000 0.000000 0.000000 0.000000
-0.723900 -3.886201 6.000750 0.000000 0.000000 -1.000000 -0.000000 1.000000 0.000000 -6.125000 -1.750000 0 0 0 0 0.000000 0.000000 0.000000 0.000000
-0.914400 -3.867151 6.229349 -0.000000 -0.000000 1.000000 -0.000000 1.000000 0.000000 -6.093750 -2.375000 0 0 0 0 0.000000 0.000000 0.000000 0.000000
-0.723900 -3.867151 6.229349 -0.000000 -0.000000 1.000000 -0.000000 1.000000 0.000000 -6.093750 -1.750000 0 0 0 0 0.000000 0.000000 0.000000 0.000000
-0.723900 -3.886201 6.229349 -0.000000 -0.000000 1.000000 -0.000000 1.000000 0.000000 -6.125000 -1.750000 0 0 0 0 0.000000 0.000000 0.000000 0.000000
-0.914400 -3.886201 6.229349 -0.000000 -0.000000 1.000000 -0.000000 1.000000 0.000000 -6.125000 -2.375000 0 0 0 0 0.000000 0.000000 0.000000 0.000000
-6.515100 -3.371849 -7.772401 -0.485643 0.000000 -0.874157 0.000000 1.000000 0.000000 -5.187500 -21.750000 0 0 0 0 0.000000 0.000000 0.000000 0.000000
-6.858000 -3.371849 -7.581901 -0.485643 0.000000 -0.874157 0.000000 1.000000 0.000000 -5.187500 -22.875000 0 0 0 0 0.000000 0.000000 0.000000 0.000000
-6.858000 -3.409949 -7.581901 -0.485643 0.000000 -0.874157 0.000000 1.000000 0.000000 -5.250000 -22.875000 0 0 0 0 0.000000 0.000000 0.000000 0.000000
-6.515100 -3.409949 -7.772401 -0.485643 0.000000 -0.874157 0.000000 1.000000 0.000000 -5.250000 -21.750000 0 0 0 0 0.000000 0.000000 0.000000 0.000000
-20.993099 -3.409950 -8.496303 -0.000000 -0.000000 1.000000 -0.000000 1.000000 0.000000 -5.093750 -68.375000 0 0 0 0 0.000000 0.000000 0.000000 0.000000
-20.612099 -3.409950 -8.496303 -0.000000 -0.000000 1.000000 -0.000000 1.000000 0.000000 -5.093750 -67.125000 0 0 0 0 0.000000 0.000000 0.000000 0.000000
-20.612099 -3.429000 -8.496303 -0.000000 -0.000000 1.000000 -0.000000 1.000000 0.000000 -5.125000 -67.125000 0 0 0 0 0.000000 0.000000 0.000000 0.000000
-20.993099 -3.429000 -8.496303 -0.000000 -0.000000 1.000000 -0.000000 1.000000 0.000000 -5.125000 -68.375000 0 0 0 0 0.000000 0.000000 0.000000 0.000000
-20.612099 -3.409950 -8.953502 0.000000 0.000000 -1.000000 -0.000000 1.000000 0.000000 -5.093750 -67.125000 0 0 0 0 0.000000 0.000000 0.000000 0.000000
-20.993099 -3.409950 -8.953502 0.000000 0.000000 -1.000000 -0.000000 1.000000 0.000000 -5.093750 -68.375000 0 0 0 0 0.000000 0.000000 0.000000 0.000000
-20.993099 -3.429000 -8.953502 0.000000 0.000000 -1.000000 -0.000000 1.000000 0.000000 -5.125000 -68.375000 0 0 0 0 0.000000 0.000000 0.000000 0.000000
-20.612099 -3.429000 -8.953502 0.000000 0.000000 -1.000000 -0.000000 1.000000 0.000000 -5.125000 -67.125000 0 0 0 0 0.000000 0.000000 0.000000 0.000000
-19.735798 -3.409949 -16.535400 -1.000000 -0.000000 -0.000000 -0.000000 1.000000 -0.000000 -5.093750 -53.750000 0 0 0 0 0.000000 0.000000 0.000000 0.000000
-19.735798 -3.409949 -16.154400 -1.000000 -0.000000 -0.000000 -0.000000 1.000000 -0.000000 -5.093750 -52.500000 0 0 0 0 0.000000 0.000000 0.000000 0.000000
-19.735798 -3.428999 -16.154400 -1.000000 -0.000000 -0.000000 -0.000000 1.000000 -0.000000 -5.125000 -52.500000 0 0 0 0 0.000000 0.000000 0.000000 0.000000
-19.735798 -3.428999 -16.535400 -1.000000 -0.000000 -0.000000 -0.000000 1.000000 -0.000000 -5.125000 -53.750000 0 0 0 0 0.000000 0.000000 0.000000 0.000000
-19.278599 -3.409949 -16.154400 1.000000 0.000000 0.000000 -0.000000 1.000000 -0.000000 -5.093750 -52.500000 0 0 0 0 0.000000 0.000000 0.000000 0.000000
-19.278599 -3.409949 -16.535400 1.000000 0.000000 0.000000 -0.000000 1.000000 -0.000000 -5.093750 -53.750000 0 0 0 0 0.000000 0.000000 0.000000 0.000000
-19.278599 -3.428999 -16.535400 1.000000 0.000000 0.000000 -0.000000 1.000000 -0.000000 -5.125000 -53.750000 0 0 0 0 0.000000 0.000000 0.000000 0.000000
-19.278599 -3.428999 -16.154400 1.000000 0.000000 0.000000 -0.000000 1.000000 -0.000000 -5.125000 -52.500000 0 0 0 0 0.000000 0.000000 0.000000 0.000000
IndexCount: 42
3 1 0
3 2 1
7 5 4
7 6 5
11 9 8
11 10 9
15 13 12
15 14 13
19 17 16
19 18 17
23 21 20
23 22 21
27 25 24
27 26 25
