VertexCount: 8
-17.221201 -1.600200 -1.219200 0.000000 0.000000 -1.000000 1.000000 0.000000 0.000000 -14.015625 2.000000 0 0 0 0 0.000000 0.000000 0.000000 0.000000
-17.221201 -2.514600 -1.219200 0.000000 0.000000 -1.000000 1.000000 0.000000 0.000000 -14.015625 3.000000 0 0 0 0 0.000000 0.000000 0.000000 0.000000
-16.002001 -2.514600 -1.219200 0.000000 0.000000 -1.000000 1.000000 0.000000 0.000000 -13.015625 3.000000 0 0 0 0 0.000000 0.000000 0.000000 0.000000
-16.002001 -1.600200 -1.219200 0.000000 0.000000 -1.000000 1.000000 0.000000 0.000000 -13.015625 2.000000 0 0 0 0 0.000000 0.000000 0.000000 0.000000
-16.002001 -1.600200 -1.143000 0.000000 -0.000000 1.000000 1.000000 0.000000 0.000000 -13.015625 2.000000 0 0 0 0 0.000000 0.000000 0.000000 0.000000
-16.002001 -2.514600 -1.143000 0.000000 -0.000000 1.000000 1.000000 0.000000 0.000000 -13.015625 3.000000 0 0 0 0 0.000000 0.000000 0.000000 0.000000
-17.221201 -2.514600 -1.143000 0.000000 -0.000000 1.000000 1.000000 0.000000 0.000000 -14.015625 3.000000 0 0 0 0 0.000000 0.000000 0.000000 0.000000
-17.221201 -1.600200 -1.143000 0.000000 -0.000000 1.000000 1.000000 0.000000 0.000000 -14.015625 2.000000 0 0 0 0 0.000000 0.000000 0.000000 0.000000
IndexCount: 12
3 2 1
3 1 0
7 6 5
7 5 4