VertexCount: 22
-6.095999 -3.505199 -6.934202 0.000000 -1.000000 -0.000000 1.000000 0.000000 0.000000 -3.984375 4.071428 0 0 0 0 0.000000 0.000000 0.000000 0.000000
-6.248399 -3.505199 -6.934202 0.000000 -1.000000 -0.000000 1.000000 0.000000 0.000000 -4.109375 4.071428 0 0 0 0 0.000000 0.000000 0.000000 0.000000
-7.162799 -3.505199 -6.934202 0.000000 -1.000000 -0.000000 1.000000 0.000000 0.000000 -4.859375 4.071428 0 0 0 0 0.000000 0.000000 0.000000 0.000000
-7.315198 -3.505199 -6.934202 0.000000 -1.000000 -0.000000 -1.000000 -0.000000 -0.000000 -4.984375 4.071428 0 0 0 0 0.000000 0.000000 0.000000 0.000000
-7.315198 -3.505199 -6.781802 0.000000 -1.000000 -0.000000 1.000000 0.000000 0.000000 -4.984375 4.000000 0 0 0 0 0.000000 0.000000 0.000000 0.000000
-6.095999 -3.505199 -6.781802 0.000000 -1.000000 -0.000000 1.000000 0.000000 0.000000 -3.984375 4.000000 0 0 0 0 0.000000 0.000000 0.000000 0.000000
-6.095999 -3.505199 -8.763001 0.000000 -1.000000 -0.000000 1.000000 0.000000 0.000000 -3.984375 4.928572 0 0 0 0 0.000000 0.000000 0.000000 0.000000
-6.095999 -3.505199 -8.915401 0.000000 -1.000000 -0.000000 1.000000 0.000000 0.000000 -3.984375 5.000000 0 0 0 0 0.000000 0.000000 0.000000 0.000000
-7.315198 -3.505199 -8.915401 0.000000 -1.000000 -0.000000 1.000000 0.000000 0.000000 -4.984375 5.000000 0 0 0 0 0.000000 0.000000 0.000000 0.000000
-7.315198 -3.505199 -8.763001 0.000000 -1.000000 -0.000000 1.000000 0.000000 0.000000 -4.984375 4.928572 0 0 0 0 0.000000 0.000000 0.000000 0.000000
-7.162799 -3.505199 -8.763001 0.000000 -1.000000 -0.000000 -1.000000 -0.000000 -0.000000 -4.859375 4.928572 0 0 0 0 0.000000 0.000000 0.000000 0.000000
-6.248399 -3.505199 -8.763001 0.000000 -1.000000 -0.000000 -1.000000 -0.000000 -0.000000 -4.109375 4.928572 0 0 0 0 0.000000 0.000000 0.000000 0.000000
-6.248399 -3.505199 -6.934202 0.000000 -1.000000 -0.000000 1.000000 0.000000 0.000000 -4.109375 4.071428 0 0 0 0 0.000000 0.000000 0.000000 0.000000
-6.095999 -3.505199 -6.934202 0.000000 -1.000000 -0.000000 1.000000 0.000000 0.000000 -3.984375 4.071428 0 0 0 0 0.000000 0.000000 0.000000 0.000000
-6.248399 -3.505199 -8.763001 0.000000 -1.000000 -0.000000 1.000000 0.000000 0.000000 -4.109375 4.928572 0 0 0 0 0.000000 0.000000 0.000000 0.000000
-7.162799 -3.505199 -6.934202 0.000000 -1.000000 -0.000000 1.000000 0.000000 0.000000 -4.859375 4.071428 0 0 0 0 0.000000 0.000000 0.000000 0.000000
-7.162799 -3.505199 -8.763001 0.000000 -1.000000 -0.000000 1.000000 0.000000 0.000000 -4.859375 4.928572 0 0 0 0 0.000000 0.000000 0.000000 0.000000
-7.315198 -3.505199 -6.934202 0.000000 -1.000000 -0.000000 1.000000 0.000000 0.000000 -4.984375 4.071428 0 0 0 0 0.000000 0.000000 0.000000 0.000000
-6.096000 -3.429000 -6.781802 -0.000000 1.000000 0.000000 1.000000 0.000000 0.000000 -3.984375 4.000000 0 0 0 0 0.000000 0.000000 0.000000 0.000000
-7.315199 -3.429000 -6.781802 -0.000000 1.000000 0.000000 1.000000 0.000000 0.000000 -4.984375 4.000000 0 0 0 0 0.000000 0.000000 0.000000 0.000000
-7.315199 -3.428999 -8.915401 -0.000000 1.000000 0.000000 1.000000 0.000000 0.000000 -4.984375 5.000000 0 0 0 0 0.000000 0.000000 0.000000 0.000000
-6.096000 -3.428999 -8.915401 -0.000000 1.000000 0.000000 1.000000 0.000000 0.000000 -3.984375 5.000000 0 0 0 0 0.000000 0.000000 0.000000 0.000000
IndexCount: 42
0 5 4
0 4 3
0 3 2
2 1 0
6 11 10
6 10 9
6 9 8
8 7 6
14 6 13
17 9 16
17 16 15
14 13 12
21 19 18
21 20 19
