VertexCount: 96
6.438900 -4.152900 4.610100 1.000000 0.000000 -0.000000 0.000000 -0.000001 1.000000 7.468750 7.000000 0 0 0 0 0.000000 0.000000 0.000000 0.000000
6.438900 -4.191000 4.457700 1.000000 0.000000 -0.000000 0.000000 -0.000001 1.000000 7.218750 7.062500 0 0 0 0 0.000000 0.000000 0.000000 0.000000
6.438900 -4.305300 4.343400 1.000000 0.000000 -0.000000 0.000000 -0.000001 1.000000 7.031250 7.250000 0 0 0 0 0.000000 0.000000 0.000000 0.000000
6.438900 -4.457700 4.305300 1.000000 0.000000 -0.000000 0.000000 0.000001 1.000000 6.968750 7.500000 0 0 0 0 0.000000 0.000000 0.000000 0.000000
6.438900 -4.610100 4.343400 1.000000 0.000000 -0.000000 0.000000 0.000001 1.000000 7.031250 7.750000 0 0 0 0 0.000000 0.000000 0.000000 0.000000
6.438900 -4.724400 4.457700 1.000000 0.000000 -0.000000 0.000000 0.000001 1.000000 7.218750 7.937500 0 0 0 0 0.000000 0.000000 0.000000 0.000000
6.438900 -4.762500 4.610100 1.000000 0.000000 -0.000000 0.000000 -0.000002 1.000000 7.468750 8.000000 0 0 0 0 0.000000 0.000000 0.000000 0.000000
6.438900 -4.724400 4.762500 1.000000 0.000000 -0.000000 0.000000 -0.000000 1.000000 7.718750 7.937500 0 0 0 0 0.000000 0.000000 0.000000 0.000000
6.438900 -4.610100 4.876801 1.000000 0.000000 -0.000000 0.000000 0.000001 1.000000 7.906250 7.750000 0 0 0 0 0.000000 0.000000 0.000000 0.000000
6.438900 -4.457700 4.914900 1.000000 0.000000 -0.000000 0.000000 -0.000001 1.000000 7.968750 7.500000 0 0 0 0 0.000000 0.000000 0.000000 0.000000
6.438900 -4.305300 4.876801 1.000000 0.000000 -0.000000 0.000000 -0.000001 1.000000 7.906250 7.250000 0 0 0 0 0.000000 0.000000 0.000000 0.000000
6.438900 -4.191000 4.762500 1.000000 0.000000 -0.000000 0.000000 -0.000003 1.000000 7.718750 7.062500 0 0 0 0 0.000000 0.000000 0.000000 0.000000
6.286500 -4.724400 4.457700 -1.000000 0.000000 -0.000000 -0.000000 0.000000 1.000000 7.218750 7.937500 0 0 0 0 0.000000 0.000000 0.000000 0.000000
6.286500 -4.610100 4.343400 -1.000000 0.000000 -0.000000 -0.000000 0.000000 1.000000 7.031250 7.750000 0 0 0 0 0.000000 0.000000 0.000000 0.000000
6.286500 -4.457700 4.305300 -1.000000 0.000000 -0.000000 -0.000000 0.000000 1.000000 6.968750 7.500000 0 0 0 0 0.000000 0.000000 0.000000 0.000000
6.286500 -4.305300 4.343400 -1.000000 0.000000 -0.000000 -0.000000 0.000000 1.000000 7.031250 7.250000 0 0 0 0 0.000000 0.000000 0.000000 0.000000
6.286500 -4.191000 4.457700 -1.000000 0.000000 -0.000000 -0.000000 0.000002 1.000000 7.218750 7.062500 0 0 0 0 0.000000 0.000000 0.000000 0.000000
6.286500 -4.152900 4.610100 -1.000000 0.000000 -0.000000 -0.000000 -0.000000 1.000000 7.468750 7.000000 0 0 0 0 0.000000 0.000000 0.000000 0.000000
6.286500 -4.191000 4.762500 -1.000000 0.000000 -0.000000 -0.000000 -0.000002 1.000000 7.718750 7.062500 0 0 0 0 0.000000 0.000000 0.000000 0.000000
6.286500 -4.305300 4.876801 -1.000000 0.000000 -0.000000 -0.000000 0.000000 1.000000 7.906250 7.250000 0 0 0 0 0.000000 0.000000 0.000000 0.000000
6.286500 -4.457700 4.914900 -1.000000 0.000000 -0.000000 -0.000000 0.000000 1.000000 7.968750 7.500000 0 0 0 0 0.000000 0.000000 0.000000 0.000000
6.286500 -4.610100 4.876801 -1.000000 0.000000 -0.000000 -0.000000 0.000000 1.000000 7.906250 7.750000 0 0 0 0 0.000000 0.000000 0.000000 0.000000
6.286500 -4.724400 4.762500 -1.000000 0.000000 -0.000000 -0.000000 -0.000001 1.000000 7.718750 7.937500 0 0 0 0 0.000000 0.000000 0.000000 0.000000
6.286500 -4.762500 4.610100 -1.000000 0.000000 -0.000000 -0.000000 -0.000001 1.000000 7.468750 8.000000 0 0 0 0 0.000000 0.000000 0.000000 0.000000
6.438900 -1.943100 7.429500 1.000000 0.000000 -0.000000 0.000000 0.000000 1.000000 11.468750 3.000000 0 0 0 0 0.000000 0.000000 0.000000 0.000000
6.438900 -1.981200 7.277100 1.000000 0.000000 -0.000000 0.000000 0.000000 1.000000 11.218750 3.062500 0 0 0 0 0.000000 0.000000 0.000000 0.000000
6.438900 -2.095500 7.162799 1.000000 0.000000 -0.000000 0.000000 0.000000 1.000000 11.031250 3.250000 0 0 0 0 0.000000 0.000000 0.000000 0.000000
6.438900 -2.247900 7.124700 1.000000 0.000000 -0.000000 0.000000 -0.000001 1.000000 10.968750 3.500000 0 0 0 0 0.000000 0.000000 0.000000 0.000000
6.438900 -2.400300 7.162799 1.000000 0.000000 -0.000000 0.000000 0.000000 1.000000 11.031250 3.750000 0 0 0 0 0.000000 0.000000 0.000000 0.000000
6.438900 -2.514600 7.277100 1.000000 0.000000 -0.000000 0.000000 -0.000001 1.000000 11.218750 3.937500 0 0 0 0 0.000000 0.000000 0.000000 0.000000
6.438900 -2.552700 7.429499 1.000000 0.000000 -0.000000 0.000000 -0.000001 1.000000 11.468750 4.000000 0 0 0 0 0.000000 0.000000 0.000000 0.000000
6.438900 -2.514600 7.581900 1.000000 0.000000 -0.000000 0.000000 0.000001 1.000000 11.718750 3.937500 0 0 0 0 0.000000 0.000000 0.000000 0.000000
6.438900 -2.400300 7.696200 1.000000 0.000000 -0.000000 0.000000 -0.000001 1.000000 11.906250 3.750000 0 0 0 0 0.000000 0.000000 0.000000 0.000000
6.438900 -2.247900 7.734300 1.000000 0.000000 -0.000000 0.000000 0.000000 1.000000 11.968750 3.500000 0 0 0 0 0.000000 0.000000 0.000000 0.000000
6.438900 -2.095500 7.696200 1.000000 0.000000 -0.000000 0.000000 -0.000001 1.000000 11.906250 3.250000 0 0 0 0 0.000000 0.000000 0.000000 0.000000
6.438900 -1.981200 7.581900 1.000000 0.000000 -0.000000 0.000000 0.000000 1.000000 11.718750 3.062500 0 0 0 0 0.000000 0.000000 0.000000 0.000000
6.286500 -2.514600 7.277100 -1.000000 0.000000 -0.000000 -0.000000 -0.000002 1.000000 11.218750 3.937500 0 0 0 0 0.000000 0.000000 0.000000 0.000000
6.286500 -2.400300 7.162799 -1.000000 0.000000 -0.000000 -0.000000 -0.000002 1.000000 11.031250 3.750000 0 0 0 0 0.000000 0.000000 0.000000 0.000000
6.286500 -2.247900 7.124700 -1.000000 0.000000 -0.000000 -0.000000 -0.000002 1.000000 10.968750 3.500000 0 0 0 0 0.000000 0.000000 0.000000 0.000000
6.286500 -2.095500 7.162799 -1.000000 0.000000 -0.000000 -0.000000 0.000000 1.000000 11.031250 3.250000 0 0 0 0 0.000000 0.000000 0.000000 0.000000
6.286500 -1.981200 7.277100 -1.000000 0.000000 -0.000000 -0.000000 -0.000000 1.000000 11.218750 3.062500 0 0 0 0 0.000000 0.000000 0.000000 0.000000
6.286500 -1.943100 7.429500 -1.000000 0.000000 -0.000000 -0.000000 -0.000000 1.000000 11.468750 3.000000 0 0 0 0 0.000000 0.000000 0.000000 0.000000
6.286500 -1.981200 7.581900 -1.000000 0.000000 -0.000000 -0.000000 0.000000 1.000000 11.718750 3.062500 0 0 0 0 0.000000 0.000000 0.000000 0.000000
6.286500 -2.095500 7.696200 -1.000000 0.000000 -0.000000 -0.000000 -0.000000 1.000000 11.906250 3.250000 0 0 0 0 0.000000 0.000000 0.000000 0.000000
6.286500 -2.247900 7.734300 -1.000000 0.000000 -0.000000 -0.000000 0.000000 1.000000 11.968750 3.500000 0 0 0 0 0.000000 0.000000 0.000000 0.000000
6.286500 -2.400300 7.696200 -1.000000 0.000000 -0.000000 -0.000000 -0.000000 1.000000 11.906250 3.750000 0 0 0 0 0.000000 0.000000 0.000000 0.000000
6.286500 -2.514600 7.581900 -1.000000 0.000000 -0.000000 -0.000000 0.000000 1.000000 11.718750 3.937500 0 0 0 0 0.000000 0.000000 0.000000 0.000000
6.286500 -2.552700 7.429499 -1.000000 0.000000 -0.000000 -0.000000 0.000000 1.000000 11.468750 4.000000 0 0 0 0 0.000000 0.000000 0.000000 0.000000
5.600700 -1.943100 7.429500 1.000000 0.000000 -0.000000 0.000000 0.000000 1.000000 11.468750 3.000000 0 0 0 0 0.000000 0.000000 0.000000 0.000000
5.600700 -1.981200 7.277100 1.000000 0.000000 -0.000000 0.000000 0.000000 1.000000 11.218750 3.062500 0 0 0 0 0.000000 0.000000 0.000000 0.000000
5.600700 -2.095500 7.162799 1.000000 0.000000 -0.000000 0.000000 0.000000 1.000000 11.031250 3.250000 0 0 0 0 0.000000 0.000000 0.000000 0.000000
5.600700 -2.247900 7.124700 1.000000 0.000000 -0.000000 0.000000 -0.000001 1.000000 10.968750 3.500000 0 0 0 0 0.000000 0.000000 0.000000 0.000000
5.600700 -2.400300 7.162799 1.000000 0.000000 -0.000000 0.000000 0.000000 1.000000 11.031250 3.750000 0 0 0 0 0.000000 0.000000 0.000000 0.000000
5.600700 -2.514600 7.277100 1.000000 0.000000 -0.000000 0.000000 -0.000001 1.000000 11.218750 3.937500 0 0 0 0 0.000000 0.000000 0.000000 0.000000
5.600700 -2.552700 7.429499 1.000000 0.000000 -0.000000 0.000000 -0.000001 1.000000 11.468750 4.000000 0 0 0 0 0.000000 0.000000 0.000000 0.000000
5.600700 -2.514600 7.581900 1.000000 0.000000 -0.000000 0.000000 0.000001 1.000000 11.718750 3.937500 0 0 0 0 0.000000 0.000000 0.000000 0.000000
5.600700 -2.400300 7.696200 1.000000 0.000000 -0.000000 0.000000 -0.000001 1.000000 11.906250 3.750000 0 0 0 0 0.000000 0.000000 0.000000 0.000000
5.600700 -2.247900 7.734300 1.000000 0.000000 -0.000000 0.000000 0.000000 1.000000 11.968750 3.500000 0 0 0 0 0.000000 0.000000 0.000000 0.000000
5.600700 -2.095500 7.696200 1.000000 0.000000 -0.000000 0.000000 -0.000001 1.000000 11.906250 3.250000 0 0 0 0 0.000000 0.000000 0.000000 0.000000
5.600700 -1.981200 7.581900 1.000000 0.000000 -0.000000 0.000000 0.000000 1.000000 11.718750 3.062500 0 0 0 0 0.000000 0.000000 0.000000 0.000000
5.448300 -2.514600 7.277100 -1.000000 0.000000 -0.000000 -0.000000 -0.000002 1.000000 11.218750 3.937500 0 0 0 0 0.000000 0.000000 0.000000 0.000000
5.448300 -2.400300 7.162799 -1.000000 0.000000 -0.000000 -0.000000 -0.000002 1.000000 11.031250 3.750000 0 0 0 0 0.000000 0.000000 0.000000 0.000000
5.448300 -2.247900 7.124700 -1.000000 0.000000 -0.000000 -0.000000 -0.000002 1.000000 10.968750 3.500000 0 0 0 0 0.000000 0.000000 0.000000 0.000000
5.448300 -2.095500 7.162799 -1.000000 0.000000 -0.000000 -0.000000 0.000000 1.000000 11.031250 3.250000 0 0 0 0 0.000000 0.000000 0.000000 0.000000
5.448300 -1.981200 7.277100 -1.000000 0.000000 -0.000000 -0.000000 -0.000000 1.000000 11.218750 3.062500 0 0 0 0 0.000000 0.000000 0.000000 0.000000
5.448300 -1.943100 7.429500 -1.000000 0.000000 -0.000000 -0.000000 -0.000000 1.000000 11.468750 3.000000 0 0 0 0 0.000000 0.000000 0.000000 0.000000
5.448300 -1.981200 7.581900 -1.000000 0.000000 -0.000000 -0.000000 0.000000 1.000000 11.718750 3.062500 0 0 0 0 0.000000 0.000000 0.000000 0.000000
5.448300 -2.095500 7.696200 -1.000000 0.000000 -0.000000 -0.000000 -0.000000 1.000000 11.906250 3.250000 0 0 0 0 0.000000 0.000000 0.000000 0.000000
5.448300 -2.247900 7.734300 -1.000000 0.000000 -0.000000 -0.000000 0.000000 1.000000 11.968750 3.500000 0 0 0 0 0.000000 0.000000 0.000000 0.000000
5.448300 -2.400300 7.696200 -1.000000 0.000000 -0.000000 -0.000000 -0.000000 1.000000 11.906250 3.750000 0 0 0 0 0.000000 0.000000 0.000000 0.000000
5.448300 -2.514600 7.581900 -1.000000 0.000000 -0.000000 -0.000000 0.000000 1.000000 11.718750 3.937500 0 0 0 0 0.000000 0.000000 0.000000 0.000000
5.448300 -2.552700 7.429499 -1.000000 0.000000 -0.000000 -0.000000 0.000000 1.000000 11.468750 4.000000 0 0 0 0 0.000000 0.000000 0.000000 0.000000
5.600700 -4.152900 4.610100 1.000000 0.000000 -0.000000 0.000000 -0.000001 1.000000 7.468750 7.000000 0 0 0 0 0.000000 0.000000 0.000000 0.000000
5.600700 -4.191000 4.457700 1.000000 0.000000 -0.000000 0.000000 -0.000001 1.000000 7.218750 7.062500 0 0 0 0 0.000000 0.000000 0.000000 0.000000
5.600700 -4.305300 4.343400 1.000000 0.000000 -0.000000 0.000000 -0.000001 1.000000 7.031250 7.250000 0 0 0 0 0.000000 0.000000 0.000000 0.000000
5.600700 -4.457700 4.305300 1.000000 0.000000 -0.000000 0.000000 0.000001 1.000000 6.968750 7.500000 0 0 0 0 0.000000 0.000000 0.000000 0.000000
5.600700 -4.610100 4.343400 1.000000 0.000000 -0.000000 0.000000 0.000001 1.000000 7.031250 7.750000 0 0 0 0 0.000000 0.000000 0.000000 0.000000
5.600700 -4.724400 4.457700 1.000000 0.000000 -0.000000 0.000000 0.000001 1.000000 7.218750 7.937500 0 0 0 0 0.000000 0.000000 0.000000 0.000000
5.600700 -4.762500 4.610100 1.000000 0.000000 -0.000000 0.000000 -0.000002 1.000000 7.468750 8.000000 0 0 0 0 0.000000 0.000000 0.000000 0.000000
5.600700 -4.724400 4.762500 1.000000 0.000000 -0.000000 0.000000 -0.000000 1.000000 7.718750 7.937500 0 0 0 0 0.000000 0.000000 0.000000 0.000000
5.600700 -4.610100 4.876801 1.000000 0.000000 -0.000000 0.000000 0.000001 1.000000 7.906250 7.750000 0 0 0 0 0.000000 0.000000 0.000000 0.000000
5.600700 -4.457700 4.914900 1.000000 0.000000 -0.000000 0.000000 -0.000001 1.000000 7.968750 7.500000 0 0 0 0 0.000000 0.000000 0.000000 0.000000
5.600700 -4.305300 4.876801 1.000000 0.000000 -0.000000 0.000000 -0.000001 1.000000 7.906250 7.250000 0 0 0 0 0.000000 0.000000 0.000000 0.000000
5.600700 -4.191000 4.762500 1.000000 0.000000 -0.000000 0.000000 -0.000003 1.000000 7.718750 7.062500 0 0 0 0 0.000000 0.000000 0.000000 0.000000
5.448300 -4.724400 4.457700 -1.000000 0.000000 -0.000000 -0.000000 0.000000 1.000000 7.218750 7.937500 0 0 0 0 0.000000 0.000000 0.000000 0.000000
5.448300 -4.610100 4.343400 -1.000000 0.000000 -0.000000 -0.000000 0.000000 1.000000 7.031250 7.750000 0 0 0 0 0.000000 0.000000 0.000000 0.000000
5.448300 -4.457700 4.305300 -1.000000 0.000000 -0.000000 -0.000000 0.000000 1.000000 6.968750 7.500000 0 0 0 0 0.000000 0.000000 0.000000 0.000000
5.448300 -4.305300 4.343400 -1.000000 0.000000 -0.000000 -0.000000 0.000000 1.000000 7.031250 7.250000 0 0 0 0 0.000000 0.000000 0.000000 0.000000
5.448300 -4.191000 4.457700 -1.000000 0.000000 -0.000000 -0.000000 0.000002 1.000000 7.218750 7.062500 0 0 0 0 0.000000 0.000000 0.000000 0.000000
5.448300 -4.152900 4.610100 -1.000000 0.000000 -0.000000 -0.000000 -0.000000 1.000000 7.468750 7.000000 0 0 0 0 0.000000 0.000000 0.000000 0.000000
5.448300 -4.191000 4.762500 -1.000000 0.000000 -0.000000 -0.000000 -0.000002 1.000000 7.718750 7.062500 0 0 0 0 0.000000 0.000000 0.000000 0.000000
5.448300 -4.305300 4.876801 -1.000000 0.000000 -0.000000 -0.000000 0.000000 1.000000 7.906250 7.250000 0 0 0 0 0.000000 0.000000 0.000000 0.000000
5.448300 -4.457700 4.914900 -1.000000 0.000000 -0.000000 -0.000000 0.000000 1.000000 7.968750 7.500000 0 0 0 0 0.000000 0.000000 0.000000 0.000000
5.448300 -4.610100 4.876801 -1.000000 0.000000 -0.000000 -0.000000 0.000000 1.000000 7.906250 7.750000 0 0 0 0 0.000000 0.000000 0.000000 0.000000
5.448300 -4.724400 4.762500 -1.000000 0.000000 -0.000000 -0.000000 -0.000001 1.000000 7.718750 7.937500 0 0 0 0 0.000000 0.000000 0.000000 0.000000
5.448300 -4.762500 4.610100 -1.000000 0.000000 -0.000000 -0.000000 -0.000001 1.000000 7.468750 8.000000 0 0 0 0 0.000000 0.000000 0.000000 0.000000
IndexCount: 240
0 11 10
0 10 9
0 9 8
0 8 7
0 7 6
0 6 5
0 5 4
0 4 3
0 3 2
2 1 0
12 23 22
12 22 21
12 21 20
12 20 19
12 19 18
12 18 17
12 17 16
12 16 15
12 15 14
14 13 12
24 35 34
24 34 33
24 33 32
24 32 31
24 31 30
24 30 29
24 29 28
24 28 27
24 27 26
26 25 24
36 47 46
36 46 45
36 45 44
36 44 43
36 43 42
36 42 41
36 41 40
36 40 39
36 39 38
38 37 36
48 59 58
48 58 57
48 57 56
48 56 55
48 55 54
48 54 53
48 53 52
48 52 51
48 51 50
50 49 48
60 71 70
60 70 69
60 69 68
60 68 67
60 67 66
60 66 65
60 65 64
60 64 63
60 63 62
62 61 60
72 83 82
72 82 81
72 81 80
72 80 79
72 79 78
72 78 77
72 77 76
72 76 75
72 75 74
74 73 72
84 95 94
84 94 93
84 93 92
84 92 91
84 91 90
84 90 89
84 89 88
84 88 87
84 87 86
86 85 84