VertexCount: 15
2.819402 -4.114796 -22.250401 -0.000000 1.000000 0.000000 -1.000000 -0.000000 -0.000000 -18.030449 1.809295 0 0 0 0 0.000000 0.000000 0.000000 0.000000
3.162302 -4.114796 -22.250401 -0.000000 1.000000 0.000000 -1.000000 -0.000000 -0.000000 -18.030449 2.097756 0 0 0 0 0.000000 0.000000 0.000000 0.000000
4.076702 -4.114796 -22.250401 -0.000000 1.000000 0.000000 -1.000000 -0.000000 -0.000000 -18.030449 2.866987 0 0 0 0 0.000000 0.000000 0.000000 0.000000
4.076702 -4.114796 -19.812002 -0.000000 1.000000 0.000000 0.000000 -0.000000 1.000000 -15.979167 2.866987 0 0 0 0 0.000000 0.000000 0.000000 0.000000
3.162302 -4.114797 -19.812002 -0.000000 1.000000 0.000000 0.000000 -0.000000 1.000000 -15.979167 2.097756 0 0 0 0 0.000000 0.000000 0.000000 0.000000
2.819402 -4.114797 -19.812002 -0.000000 1.000000 0.000000 -0.000000 -0.000000 1.000000 -15.979167 1.809295 0 0 0 0 0.000000 0.000000 0.000000 0.000000
2.819402 -4.114796 -22.250401 -0.000000 1.000000 0.000000 -0.000000 -0.000000 1.000000 -18.030449 1.809295 0 0 0 0 0.000000 0.000000 0.000000 0.000000
2.286002 -4.114797 -19.812002 -0.000000 1.000000 0.000000 -0.000000 -0.000000 1.000000 -15.979167 1.360577 0 0 0 0 0.000000 0.000000 0.000000 0.000000
2.228852 -4.114797 -19.812002 -0.000000 1.000000 0.000000 0.000001 -0.000000 1.000000 -15.979167 1.312500 0 0 0 0 0.000000 0.000000 0.000000 0.000000
2.190752 -4.114797 -19.812002 -0.000000 1.000000 0.000000 -0.000001 -0.000000 1.000000 -15.979167 1.280449 0 0 0 0 0.000000 0.000000 0.000000 0.000000
2.133602 -4.114797 -19.812002 -0.000000 1.000000 0.000000 -0.000000 -0.000000 1.000000 -15.979167 1.232372 0 0 0 0 0.000000 0.000000 0.000000 0.000000
1.295402 -4.114797 -19.812002 -0.000000 1.000000 0.000000 -0.000000 -0.000000 1.000000 -15.979167 0.527244 0 0 0 0 0.000000 0.000000 0.000000 0.000000
0.723902 -4.114797 -19.812002 -0.000000 1.000000 0.000000 -0.000000 -0.000000 1.000000 -15.979167 0.046474 0 0 0 0 0.000000 0.000000 0.000000 0.000000
0.723902 -4.114796 -22.250401 -0.000000 1.000000 0.000000 -0.000000 -0.000000 1.000000 -18.030449 0.046474 0 0 0 0 0.000000 0.000000 0.000000 0.000000
1.295402 -4.114796 -22.250401 -0.000000 1.000000 0.000000 -0.000000 -0.000000 1.000000 -18.030449 0.527244 0 0 0 0 0.000000 0.000000 0.000000 0.000000
IndexCount: 36
0 5 4
0 4 3
0 3 2
2 1 0
14 7 5
14 5 6
14 8 7
14 9 8
14 10 9
14 13 12
14 12 11
14 11 10
