VertexCount: 48
-17.297400 -1.943101 8.191499 -1.000000 0.000000 0.000000 0.000000 0.000000 1.000000 26.875000 6.375000 0 0 0 0 0.000000 0.000000 0.000000 0.000000
-17.297400 -2.095501 8.191499 -1.000000 0.000000 0.000000 0.000000 0.000000 1.000000 26.875000 6.875000 0 0 0 0 0.000000 0.000000 0.000000 0.000000
-17.297400 -2.095501 7.962900 -1.000000 0.000000 0.000000 0.000000 0.000000 1.000000 26.125000 6.875000 0 0 0 0 0.000000 0.000000 0.000000 0.000000
-17.297400 -1.943101 7.962900 -1.000000 0.000000 0.000000 0.000000 0.000000 1.000000 26.125000 6.375000 0 0 0 0 0.000000 0.000000 0.000000 0.000000
-17.259300 -1.981201 8.000999 1.000000 0.000000 0.000000 0.000000 0.000000 1.000000 26.250000 6.375000 0 0 0 0 0.000000 0.000000 0.000000 0.000000
-17.259300 -2.057401 8.000999 1.000000 0.000000 0.000000 0.000000 0.000000 1.000000 26.250000 6.625000 0 0 0 0 0.000000 0.000000 0.000000 0.000000
-17.259300 -2.057401 8.153399 1.000000 0.000000 0.000000 0.000000 0.000000 1.000000 26.750000 6.625000 0 0 0 0 0.000000 0.000000 0.000000 0.000000
-17.259300 -1.981201 8.153399 1.000000 0.000000 0.000000 0.000000 0.000000 1.000000 26.750000 6.375000 0 0 0 0 0.000000 0.000000 0.000000 0.000000
-17.259300 -1.981201 8.153399 0.707109 -0.000000 0.707104 -0.707104 -0.000001 0.707109 26.750000 6.500000 0 0 0 0 0.000000 0.000000 0.000000 0.000000
-17.259300 -2.057401 8.153399 0.707109 -0.000000 0.707104 -0.707104 -0.000001 0.707109 26.750000 6.750000 0 0 0 0 0.000000 0.000000 0.000000 0.000000
-17.297400 -2.095501 8.191499 0.707109 -0.000000 0.707104 -0.707104 0.000001 0.707109 26.875000 6.875000 0 0 0 0 0.000000 0.000000 0.000000 0.000000
-17.297400 -1.943101 8.191499 0.707109 -0.000000 0.707104 -0.707104 -0.000001 0.707109 26.875000 6.375000 0 0 0 0 0.000000 0.000000 0.000000 0.000000
-17.297400 -1.943101 7.962900 0.707112 0.707102 0.000000 0.707102 -0.707112 0.000002 -57.000000 -26.125000 0 0 0 0 0.000000 0.000000 0.000000 0.000000
-17.259300 -1.981201 8.000999 0.707112 0.707102 0.000000 0.707102 -0.707112 0.000002 -56.875000 -26.250000 0 0 0 0 0.000000 0.000000 0.000000 0.000000
-17.259300 -1.981201 8.153399 0.707112 0.707102 0.000000 0.707102 -0.707112 0.000011 -56.875000 -26.750000 0 0 0 0 0.000000 0.000000 0.000000 0.000000
-17.297400 -1.943101 8.191499 0.707112 0.707102 0.000000 0.707102 -0.707112 0.000002 -57.000000 -26.875000 0 0 0 0 0.000000 0.000000 0.000000 0.000000
-17.297400 -1.943101 7.962900 0.707118 0.000000 -0.707095 0.707095 0.000001 0.707118 26.125000 6.375000 0 0 0 0 0.000000 0.000000 0.000000 0.000000
-17.297400 -2.095501 7.962900 0.707118 0.000000 -0.707095 0.707095 0.000001 0.707118 26.125000 6.875000 0 0 0 0 0.000000 0.000000 0.000000 0.000000
-17.259300 -2.057401 8.000999 0.707118 0.000000 -0.707095 0.707095 -0.000001 0.707118 26.250000 6.750000 0 0 0 0 0.000000 0.000000 0.000000 0.000000
-17.259300 -1.981201 8.000999 0.707118 0.000000 -0.707095 0.707095 0.000001 0.707118 26.250000 6.500000 0 0 0 0 0.000000 0.000000 0.000000 0.000000
-17.259300 -2.057401 8.000999 0.707113 -0.707100 -0.000000 0.707100 0.707113 0.000000 -56.625000 -26.250000 0 0 0 0 0.000000 0.000000 0.000000 0.000000
-17.297400 -2.095501 7.962900 0.707113 -0.707100 -0.000000 0.707100 0.707113 0.000000 -56.750000 -26.125000 0 0 0 0 0.000000 0.000000 0.000000 0.000000
-17.297400 -2.095501 8.191499 0.707113 -0.707100 -0.000000 0.707100 0.707113 0.000009 -56.750000 -26.875000 0 0 0 0 0.000000 0.000000 0.000000 0.000000
-17.259300 -2.057401 8.153399 0.707113 -0.707100 -0.000000 0.707100 0.707113 0.000000 -56.625000 -26.750000 0 0 0 0 0.000000 0.000000 0.000000 0.000000
-21.564600 -1.638298 -11.944350 -1.000000 0.000000 0.000000 0.000000 0.000000 1.000000 -40.125000 6.187500 0 0 0 0 0.000000 0.000000 0.000000 0.000000
-21.564600 -1.790698 -11.944350 -1.000000 0.000000 0.000000 0.000000 0.000000 1.000000 -40.125000 6.687500 0 0 0 0 0.000000 0.000000 0.000000 0.000000
-21.564600 -1.790698 -12.172949 -1.000000 0.000000 0.000000 0.000000 0.000000 1.000000 -40.875000 6.687500 0 0 0 0 0.000000 0.000000 0.000000 0.000000
-21.564600 -1.638298 -12.172949 -1.000000 0.000000 0.000000 0.000000 0.000000 1.000000 -40.875000 6.187500 0 0 0 0 0.000000 0.000000 0.000000 0.000000
-21.526501 -1.676398 -12.134851 1.000000 0.000000 0.000000 0.000000 0.000000 1.000000 -40.750000 6.312500 0 0 0 0 0.000000 0.000000 0.000000 0.000000
-21.526501 -1.752598 -12.134851 1.000000 0.000000 0.000000 0.000000 0.000000 1.000000 -40.750000 6.562500 0 0 0 0 0.000000 0.000000 0.000000 0.000000
-21.526501 -1.752598 -11.982450 1.000000 0.000000 0.000000 0.000000 0.000000 1.000000 -40.250000 6.562500 0 0 0 0 0.000000 0.000000 0.000000 0.000000
-21.526501 -1.676398 -11.982450 1.000000 0.000000 0.000000 0.000000 0.000000 1.000000 -40.250000 6.312500 0 0 0 0 0.000000 0.000000 0.000000 0.000000
-21.526501 -1.676398 -11.982450 0.707138 -0.000000 0.707075 -0.707075 -0.000001 0.707138 -40.250000 6.312500 0 0 0 0 0.000000 0.000000 0.000000 0.000000
-21.526501 -1.752598 -11.982450 0.707138 -0.000000 0.707075 -0.707075 -0.000001 0.707138 -40.250000 6.562500 0 0 0 0 0.000000 0.000000 0.000000 0.000000
-21.564600 -1.790698 -11.944350 0.707138 -0.000000 0.707075 -0.707075 0.000001 0.707138 -40.125000 6.687500 0 0 0 0 0.000000 0.000000 0.000000 0.000000
-21.564600 -1.638298 -11.944350 0.707138 -0.000000 0.707075 -0.707075 -0.000001 0.707138 -40.125000 6.187500 0 0 0 0 0.000000 0.000000 0.000000 0.000000
-21.564600 -1.638298 -12.172949 0.707111 0.707102 0.000000 0.707102 -0.707112 -0.000030 -71.812500 40.875000 0 0 0 0 0.000000 0.000000 0.000000 0.000000
-21.526501 -1.676398 -12.134851 0.707111 0.707102 0.000000 0.707102 -0.707112 -0.000030 -71.687500 40.750000 0 0 0 0 0.000000 0.000000 0.000000 0.000000
-21.526501 -1.676398 -11.982450 0.707111 0.707102 0.000000 0.707102 -0.707111 0.000017 -71.687500 40.250000 0 0 0 0 0.000000 0.000000 0.000000 0.000000
-21.564600 -1.638298 -11.944350 0.707111 0.707102 0.000000 0.707102 -0.707112 -0.000030 -71.812500 40.125000 0 0 0 0 0.000000 0.000000 0.000000 0.000000
-21.564600 -1.638298 -12.172949 0.707129 0.000000 -0.707084 0.707084 0.000001 0.707129 -40.875000 6.187500 0 0 0 0 0.000000 0.000000 0.000000 0.000000
-21.564600 -1.790698 -12.172949 0.707129 0.000000 -0.707084 0.707084 0.000001 0.707129 -40.875000 6.687500 0 0 0 0 0.000000 0.000000 0.000000 0.000000
-21.526501 -1.752598 -12.134851 0.707129 0.000000 -0.707084 0.707084 -0.000001 0.707129 -40.750000 6.562500 0 0 0 0 0.000000 0.000000 0.000000 0.000000
-21.526501 -1.676398 -12.134851 0.707129 0.000000 -0.707084 0.707084 0.000001 0.707129 -40.750000 6.312500 0 0 0 0 0.000000 0.000000 0.000000 0.000000
-21.526501 -1.752598 -12.134851 0.707111 -0.707103 -0.000000 0.707103 0.707111 -0.000040 -71.250000 40.750000 0 0 0 0 0.000000 0.000000 0.000000 0.000000
-21.564600 -1.790698 -12.172949 0.707111 -0.707103 -0.000000 0.707103 0.707111 -0.000040 -71.375000 40.875000 0 0 0 0 0.000000 0.000000 0.000000 0.000000
-21.564600 -1.790698 -11.944350 0.707111 -0.707103 -0.000000 0.707103 0.707111 0.000008 -71.375000 40.125000 0 0 0 0 0.000000 0.000000 0.000000 0.000000
-21.526501 -1.752598 -11.982450 0.707111 -0.707103 -0.000000 0.707103 0.707111 -0.000040 -71.250000 40.250000 0 0 0 0 0.000000 0.000000 0.000000 0.000000
IndexCount: 72
3 1 0
3 2 1
7 5 4
7 6 5
11 9 8
11 10 9
15 13 12
15 14 13
19 17 16
19 18 17
23 21 20
23 22 21
27 25 24
27 26 25
31 29 28
31 30 29
35 33 32
35 34 33
39 37 36
39 38 37
43 41 40
43 42 41
47 45 44
47 46 45