VertexCount: 4
0.685799 -2.133602 11.506200 0.000000 0.000000 -1.000000 1.000000 0.000000 0.000000 -0.004808 1.000000 0 0 0 0 0.000000 0.000000 0.000000 0.000000
0.685799 -3.505202 11.506200 0.000000 0.000000 -1.000000 1.000000 0.000000 0.000000 -0.004808 2.000000 0 0 0 0 0.000000 0.000000 0.000000 0.000000
2.666999 -3.505202 11.506200 0.000000 0.000000 -1.000000 1.000000 0.000000 0.000000 0.995192 2.000000 0 0 0 0 0.000000 0.000000 0.000000 0.000000
2.666999 -2.133602 11.506200 0.000000 0.000000 -1.000000 1.000000 0.000000 0.000000 0.995192 1.000000 0 0 0 0 0.000000 0.000000 0.000000 0.000000
IndexCount: 6
3 2 1
3 1 0
