VertexCount: 4
-1.524001 -3.581403 17.373600 0.000000 0.000000 -1.000000 1.000000 -0.000000 0.000000 0.024937 1.946338 0 0 0 0 0.000000 0.000000 0.000000 0.000000
-1.524001 -2.438403 17.373600 0.000000 0.000000 -1.000000 1.000000 -0.000000 0.000000 0.024937 0.999369 0 0 0 0 0.000000 0.000000 0.000000 0.000000
-3.962401 -2.438403 17.373600 0.000000 0.000000 -1.000000 1.000000 0.000000 0.000000 -0.985164 0.999369 0 0 0 0 0.000000 0.000000 0.000000 0.000000
-3.962401 -3.581403 17.373600 0.000000 0.000000 -1.000000 1.000000 -0.000000 0.000000 -0.985164 1.946338 0 0 0 0 0.000000 0.000000 0.000000 0.000000
IndexCount: 6
3 2 1
3 1 0
