VertexCount: 4
-21.621750 -2.590798 -10.706100 1.000000 0.000000 0.000000 0.000000 -0.000000 1.000000 -13.979166 4.013889 0 0 0 0 0.000000 0.000000 0.000000 0.000000
-21.621750 -3.124198 -10.706100 1.000000 0.000000 0.000000 0.000000 -0.000000 1.000000 -13.979166 4.986111 0 0 0 0 0.000000 0.000000 0.000000 0.000000
-21.621750 -3.124198 -9.982200 1.000000 0.000000 0.000000 0.000000 -0.000000 1.000000 -12.989583 4.986111 0 0 0 0 0.000000 0.000000 0.000000 0.000000
-21.621750 -2.590799 -9.982200 1.000000 0.000000 0.000000 0.000000 -0.000000 1.000000 -12.989583 4.013889 0 0 0 0 0.000000 0.000000 0.000000 0.000000
IndexCount: 6
3 2 1
3 1 0