VertexCount: 349
-6.134100 -4.572003 13.620749 0.000000 1.000000 0.000000 1.000000 -0.000000 0.000001 -2.515625 -5.585938 0 0 0 0 0.000000 0.000000 0.000000 0.000000
-7.010401 -4.572003 14.520669 0.000000 1.000000 0.000000 1.000000 -0.000000 0.000001 -2.875000 -5.955000 0 0 0 0 0.000000 0.000000 0.000000 0.000000
-7.010401 -4.572003 13.868398 0.000000 1.000000 0.000000 0.000000 -0.000000 1.000000 -2.875000 -5.687500 0 0 0 0 0.000000 0.000000 0.000000 0.000000
-7.010401 -4.572003 13.866112 0.000000 1.000000 0.000000 1.000000 -0.000000 0.000001 -2.875000 -5.686563 0 0 0 0 0.000000 0.000000 0.000000 0.000000
-5.429251 -4.572002 12.896849 0.000000 1.000000 0.000000 1.000000 -0.000000 0.000002 -2.226562 -5.289062 0 0 0 0 0.000000 0.000000 0.000000 0.000000
-6.527293 -4.572003 17.373598 0.000000 1.000000 0.000000 1.000000 -0.000000 0.000001 -2.676875 -7.125000 0 0 0 0 0.000000 0.000000 0.000000 0.000000
-7.010401 -4.572003 17.373596 0.000000 1.000000 0.000000 1.000000 -0.000000 0.000001 -2.875000 -7.125000 0 0 0 0 0.000000 0.000000 0.000000 0.000000
-0.304801 -4.572002 13.106399 -0.000000 1.000000 0.000000 1.000000 0.000000 -0.000000 -0.125000 -5.375000 0 0 0 0 0.000000 0.000000 0.000000 0.000000
-2.260093 -4.572002 13.106399 -0.000000 1.000000 0.000000 1.000000 0.000000 -0.000000 -0.926875 -5.375000 0 0 0 0 0.000000 0.000000 0.000000 0.000000
-2.260093 -4.572002 11.887199 -0.000000 1.000000 0.000000 1.000000 0.000000 -0.000000 -0.926875 -4.875000 0 0 0 0 0.000000 0.000000 0.000000 0.000000
-0.914401 -4.572002 11.887199 -0.000000 1.000000 0.000000 1.000000 0.000000 0.000000 -0.375000 -4.875000 0 0 0 0 0.000000 0.000000 0.000000 0.000000
-0.304801 -4.572002 11.887199 -0.000000 1.000000 0.000000 1.000000 0.000000 -0.000000 -0.125000 -4.875000 0 0 0 0 0.000000 0.000000 0.000000 0.000000
-0.304801 -4.572002 13.106399 -0.000000 1.000000 0.000000 0.000000 0.000000 -1.000000 -0.125000 -5.375000 0 0 0 0 0.000000 0.000000 0.000000 0.000000
-0.304801 -4.572003 16.154398 -0.000000 1.000000 0.000000 0.000000 0.000000 -1.000000 -0.125000 -6.625000 0 0 0 0 0.000000 0.000000 0.000000 0.000000
-0.304801 -4.572003 17.373598 -0.000000 1.000000 0.000000 0.000000 0.000000 -1.000000 -0.125000 -7.125000 0 0 0 0 0.000000 0.000000 0.000000 0.000000
-1.524001 -4.572003 17.373598 -0.000000 1.000000 0.000000 1.000000 0.000000 -0.000000 -0.625000 -7.125000 0 0 0 0 0.000000 0.000000 0.000000 0.000000
-2.260093 -4.572003 17.373598 -0.000000 1.000000 0.000000 1.000000 0.000000 0.000000 -0.926875 -7.125000 0 0 0 0 0.000000 0.000000 0.000000 0.000000
-5.480643 -4.572003 13.106399 -0.000000 1.000000 0.000000 1.000000 0.000000 -0.000000 -2.247639 -5.375000 0 0 0 0 0.000000 0.000000 0.000000 0.000000
-5.181601 -4.572002 11.887199 -0.000000 1.000000 0.000000 1.000000 0.000000 -0.000000 -2.125000 -4.875000 0 0 0 0 0.000000 0.000000 0.000000 0.000000
-3.048001 -4.572002 11.887199 -0.000000 1.000000 0.000000 1.000000 0.000000 -0.000000 -1.250000 -4.875000 0 0 0 0 0.000000 0.000000 0.000000 0.000000
-3.962401 -4.572003 17.373598 -0.000000 1.000000 0.000000 1.000000 0.000000 0.000000 -1.625000 -7.125000 0 0 0 0 0.000000 0.000000 0.000000 0.000000
-6.362700 -4.572003 17.373598 -0.000000 1.000000 0.000000 1.000000 0.000000 -0.000000 -2.609375 -7.125000 0 0 0 0 0.000000 0.000000 0.000000 0.000000
-10.629901 -4.572004 17.373596 -0.000000 1.000000 0.000000 1.000000 0.000000 0.000000 -4.359375 -7.125000 0 0 0 0 0.000000 0.000000 0.000000 0.000000
-10.629901 -4.572003 13.868398 -0.000000 1.000000 0.000000 1.000000 0.000000 -0.000000 -4.359375 -5.687500 0 0 0 0 0.000000 0.000000 0.000000 0.000000
-7.010401 -4.572003 13.868398 -0.000000 1.000000 0.000000 1.000000 -0.000000 0.000001 -2.875000 -5.687500 0 0 0 0 0.000000 0.000000 0.000000 0.000000
-7.010401 -4.572003 14.520669 -0.000000 1.000000 0.000000 0.000000 0.000000 -1.000000 -2.875000 -5.955000 0 0 0 0 0.000000 0.000000 0.000000 0.000000
-9.448800 -4.572002 10.210798 -0.000000 1.000000 0.000000 1.000000 0.000000 0.000000 -3.875000 -4.187500 0 0 0 0 0.000000 0.000000 0.000000 0.000000
-5.791200 -4.572002 10.210798 -0.000000 1.000000 0.000000 1.000000 0.000000 0.000000 -2.375000 -4.187500 0 0 0 0 0.000000 0.000000 0.000000 0.000000
-5.791200 -4.572002 10.439398 -0.000000 1.000000 0.000000 1.000000 0.000000 0.000000 -2.375000 -4.281250 0 0 0 0 0.000000 0.000000 0.000000 0.000000
-5.791201 -4.572002 11.582398 -0.000000 1.000000 0.000000 1.000000 0.000000 -0.000000 -2.375000 -4.750000 0 0 0 0 0.000000 0.000000 0.000000 0.000000
-9.448800 -4.572003 11.582397 -0.000000 1.000000 0.000000 1.000000 0.000000 0.000000 -3.875000 -4.750000 0 0 0 0 0.000000 0.000000 0.000000 0.000000
-9.448800 -4.572002 10.667997 -0.000000 1.000000 0.000000 -0.000000 -0.000000 1.000000 -3.875000 -4.375000 0 0 0 0 0.000000 0.000000 0.000000 0.000000
-5.791200 -4.572002 10.210798 -0.000000 1.000000 0.000000 1.000000 0.000000 0.000000 -2.375000 -4.187500 0 0 0 0 0.000000 0.000000 0.000000 0.000000
-9.448800 -4.572002 10.210798 -0.000000 1.000000 0.000000 1.000000 0.000000 0.000000 -3.875000 -4.187500 0 0 0 0 0.000000 0.000000 0.000000 0.000000
-9.601200 -4.572002 10.210798 -0.000000 1.000000 0.000000 1.000000 0.000000 0.000000 -3.937500 -4.187500 0 0 0 0 0.000000 0.000000 0.000000 0.000000
-9.601200 -4.572002 7.696198 -0.000000 1.000000 0.000000 1.000000 0.000000 0.000000 -3.937500 -3.156250 0 0 0 0 0.000000 0.000000 0.000000 0.000000
-9.448800 -4.572002 7.696198 -0.000000 1.000000 0.000000 1.000000 0.000000 0.000000 -3.875000 -3.156250 0 0 0 0 0.000000 0.000000 0.000000 0.000000
-9.372601 -4.572002 7.696198 -0.000000 1.000000 0.000000 1.000000 0.000000 0.000000 -3.843750 -3.156250 0 0 0 0 0.000000 0.000000 0.000000 0.000000
-5.791200 -4.572002 7.696198 -0.000000 1.000000 0.000000 1.000000 0.000000 0.000000 -2.375000 -3.156250 0 0 0 0 0.000000 0.000000 0.000000 0.000000
-5.791200 -4.572002 9.220200 -0.000000 1.000000 0.000000 -0.000000 0.000000 -1.000000 -2.375000 -3.781250 0 0 0 0 0.000000 0.000000 0.000000 0.000000
-10.629901 -4.572003 10.820397 -0.000000 1.000000 0.000000 1.000000 0.000000 0.000000 -4.359375 -4.437500 0 0 0 0 0.000000 0.000000 0.000000 0.000000
-9.601200 -4.572003 10.820397 -0.000000 1.000000 0.000000 1.000000 0.000000 0.000000 -3.937500 -4.437500 0 0 0 0 0.000000 0.000000 0.000000 0.000000
-9.601200 -4.572003 11.582397 -0.000000 1.000000 0.000000 1.000000 0.000000 0.000000 -3.937500 -4.750000 0 0 0 0 0.000000 0.000000 0.000000 0.000000
-10.629901 -4.572003 11.582397 -0.000000 1.000000 0.000000 1.000000 0.000000 0.000000 -4.359375 -4.750000 0 0 0 0 0.000000 0.000000 0.000000 0.000000
-9.601200 -4.572002 10.667997 -0.000000 1.000000 0.000000 1.000000 0.000000 -0.000000 -3.937500 -4.375000 0 0 0 0 0.000000 0.000000 0.000000 0.000000
-10.629901 -4.572003 10.667997 -0.000000 1.000000 0.000000 1.000000 0.000000 -0.000000 -4.359375 -4.375000 0 0 0 0 0.000000 0.000000 0.000000 0.000000
-10.629901 -4.572002 7.696198 -0.000000 1.000000 0.000000 1.000000 0.000000 -0.000000 -4.359375 -3.156250 0 0 0 0 0.000000 0.000000 0.000000 0.000000
-9.601200 -4.572002 10.210798 -0.000000 1.000000 0.000000 0.000000 0.000000 -1.000000 -3.937500 -4.187500 0 0 0 0 0.000000 0.000000 0.000000 0.000000
-9.372601 -4.572002 7.619998 -0.000000 1.000000 0.000000 -1.000000 -0.000000 0.000000 -3.843750 -3.125000 0 0 0 0 0.000000 0.000000 0.000000 0.000000
-6.858000 -4.572002 7.619998 -0.000000 1.000000 0.000000 -1.000000 -0.000000 0.000000 -2.812500 -3.125000 0 0 0 0 0.000000 0.000000 0.000000 0.000000
-6.400800 -4.572002 7.619998 -0.000000 1.000000 0.000000 -1.000000 -0.000000 0.000000 -2.625000 -3.125000 0 0 0 0 0.000000 0.000000 0.000000 0.000000
-5.791200 -4.572002 7.619998 -0.000000 1.000000 0.000000 1.000000 0.000000 -0.000000 -2.375000 -3.125000 0 0 0 0 0.000000 0.000000 0.000000 0.000000
-5.791200 -4.572002 7.296148 -0.000000 1.000000 0.000000 1.000000 0.000000 0.000000 -2.375000 -2.992188 0 0 0 0 0.000000 0.000000 0.000000 0.000000
-5.791200 -4.572002 7.467599 -0.000000 1.000000 0.000000 1.000000 0.000000 0.000000 -2.375000 -3.062500 0 0 0 0 0.000000 0.000000 0.000000 0.000000
-6.248400 -4.572002 7.467599 -0.000000 1.000000 0.000000 1.000000 0.000000 0.000000 -2.562500 -3.062500 0 0 0 0 0.000000 0.000000 0.000000 0.000000
-6.248400 -4.572002 7.296148 -0.000000 1.000000 0.000000 1.000000 0.000000 0.000000 -2.562500 -2.992188 0 0 0 0 0.000000 0.000000 0.000000 0.000000
-6.858000 -4.572002 7.467599 -0.000000 1.000000 0.000000 1.000000 0.000000 0.000000 -2.812500 -3.062500 0 0 0 0 0.000000 0.000000 0.000000 0.000000
-6.858000 -4.572002 7.296148 -0.000000 1.000000 0.000000 1.000000 0.000000 0.000000 -2.812500 -2.992188 0 0 0 0 0.000000 0.000000 0.000000 0.000000
-6.400800 -4.572002 7.296148 -0.000000 1.000000 0.000000 1.000000 0.000000 0.000000 -2.625000 -2.992188 0 0 0 0 0.000000 0.000000 0.000000 0.000000
-6.400800 -4.572002 7.467599 -0.000000 1.000000 0.000000 1.000000 0.000000 0.000000 -2.625000 -3.062500 0 0 0 0 0.000000 0.000000 0.000000 0.000000
-9.372601 -4.572002 7.619998 -0.000000 1.000000 0.000000 1.000000 0.000000 0.000000 -3.843750 -3.125000 0 0 0 0 0.000000 0.000000 0.000000 0.000000
-9.372601 -4.572002 7.296148 -0.000000 1.000000 0.000000 1.000000 0.000000 0.000000 -3.843750 -2.992188 0 0 0 0 0.000000 0.000000 0.000000 0.000000
-6.858000 -4.572002 7.619998 -0.000000 1.000000 0.000000 1.000000 0.000000 0.000000 -2.812500 -3.125000 0 0 0 0 0.000000 0.000000 0.000000 0.000000
-6.858000 -4.572001 2.743199 -0.000000 1.000000 0.000000 1.000000 0.000000 0.000000 -2.812500 -1.125000 0 0 0 0 0.000000 0.000000 0.000000 0.000000
-6.858000 -4.572001 0.609599 -0.000000 1.000000 0.000000 1.000000 0.000000 0.000000 -2.812500 -0.250000 0 0 0 0 0.000000 0.000000 0.000000 0.000000
-6.705599 -4.572001 0.609599 -0.000000 1.000000 0.000000 1.000000 0.000000 0.000000 -2.750000 -0.250000 0 0 0 0 0.000000 0.000000 0.000000 0.000000
-5.791199 -4.572001 0.609599 -0.000000 1.000000 0.000000 1.000000 0.000000 0.000000 -2.375000 -0.250000 0 0 0 0 0.000000 0.000000 0.000000 0.000000
-5.791199 -4.572001 2.743199 -0.000000 1.000000 0.000000 1.000000 0.000000 0.000000 -2.375000 -1.125000 0 0 0 0 0.000000 0.000000 0.000000 0.000000
-6.400799 -4.572001 2.743199 -0.000000 1.000000 0.000000 1.000000 0.000000 0.000000 -2.625000 -1.125000 0 0 0 0 0.000000 0.000000 0.000000 0.000000
-10.629900 -4.572001 2.895598 -0.000000 1.000000 0.000000 1.000000 0.000000 0.000000 -4.359375 -1.187500 0 0 0 0 0.000000 0.000000 0.000000 0.000000
-10.629900 -4.572001 0.609598 -0.000000 1.000000 0.000000 1.000000 0.000000 0.000000 -4.359375 -0.250000 0 0 0 0 0.000000 0.000000 0.000000 0.000000
-6.858000 -4.572001 2.895599 -0.000000 1.000000 0.000000 1.000000 0.000000 0.000000 -2.812500 -1.187500 0 0 0 0 0.000000 0.000000 0.000000 0.000000
-6.248400 -4.572001 2.895599 -0.000000 1.000000 0.000000 1.000000 0.000000 0.000000 -2.562500 -1.187500 0 0 0 0 0.000000 0.000000 0.000000 0.000000
-5.791199 -4.572001 2.895599 -0.000000 1.000000 0.000000 1.000000 0.000000 0.000000 -2.375000 -1.187500 0 0 0 0 0.000000 0.000000 0.000000 0.000000
-6.400800 -4.572002 7.296148 -0.000000 1.000000 0.000000 1.000000 0.000000 -0.000000 -2.625000 -2.992188 0 0 0 0 0.000000 0.000000 0.000000 0.000000
-6.858000 -4.572002 7.296148 -0.000000 1.000000 0.000000 1.000000 0.000000 -0.000000 -2.812500 -2.992188 0 0 0 0 0.000000 0.000000 0.000000 0.000000
-9.372601 -4.572002 7.296148 -0.000000 1.000000 0.000000 1.000000 0.000000 -0.000000 -3.843750 -2.992188 0 0 0 0 0.000000 0.000000 0.000000 0.000000
-9.372601 -4.572002 6.934199 -0.000000 1.000000 0.000000 1.000000 0.000000 0.000000 -3.843750 -2.843750 0 0 0 0 0.000000 0.000000 0.000000 0.000000
-6.400800 -4.572002 6.934199 -0.000000 1.000000 0.000000 1.000000 0.000000 0.000000 -2.625000 -2.843750 0 0 0 0 0.000000 0.000000 0.000000 0.000000
-6.400800 -4.572001 4.343399 -0.000000 1.000000 0.000000 1.000000 0.000000 0.000000 -2.625000 -1.781250 0 0 0 0 0.000000 0.000000 0.000000 0.000000
-9.372601 -4.572001 4.343399 -0.000000 1.000000 0.000000 1.000000 0.000000 0.000000 -3.843750 -1.781250 0 0 0 0 0.000000 0.000000 0.000000 0.000000
-9.372601 -4.572001 3.581398 -0.000000 1.000000 0.000000 1.000000 0.000000 0.000000 -3.843750 -1.468750 0 0 0 0 0.000000 0.000000 0.000000 0.000000
-6.400800 -4.572001 3.581399 -0.000000 1.000000 0.000000 1.000000 0.000000 0.000000 -2.625000 -1.468750 0 0 0 0 0.000000 0.000000 0.000000 0.000000
-10.629900 -4.572001 2.895598 -0.000000 1.000000 0.000000 -1.000000 -0.000000 -0.000000 -4.359375 -1.187500 0 0 0 0 0.000000 0.000000 0.000000 0.000000
-6.858000 -4.572001 2.895599 -0.000000 1.000000 0.000000 -1.000000 -0.000000 -0.000000 -2.812500 -1.187500 0 0 0 0 0.000000 0.000000 0.000000 0.000000
-6.400799 -4.572001 2.895599 -0.000000 1.000000 0.000000 -1.000000 -0.000000 -0.000000 -2.625000 -1.187500 0 0 0 0 0.000000 0.000000 0.000000 0.000000
-9.448800 -4.572001 3.581398 -0.000000 1.000000 0.000000 1.000000 0.000000 0.000000 -3.875000 -1.468750 0 0 0 0 0.000000 0.000000 0.000000 0.000000
-10.629900 -4.572001 3.581398 -0.000000 1.000000 0.000000 1.000000 0.000000 0.000000 -4.359375 -1.468750 0 0 0 0 0.000000 0.000000 0.000000 0.000000
-10.629900 -4.572001 4.343399 -0.000000 1.000000 0.000000 -1.000000 -0.000000 -0.000000 -4.359375 -1.781250 0 0 0 0 0.000000 0.000000 0.000000 0.000000
-9.448800 -4.572001 4.343399 -0.000000 1.000000 0.000000 -1.000000 -0.000000 -0.000000 -3.875000 -1.781250 0 0 0 0 0.000000 0.000000 0.000000 0.000000
-9.372601 -4.572001 4.343399 -0.000000 1.000000 0.000000 -1.000000 -0.000000 -0.000000 -3.843750 -1.781250 0 0 0 0 0.000000 0.000000 0.000000 0.000000
-6.400800 -4.572001 4.343399 -0.000000 1.000000 0.000000 -1.000000 -0.000000 -0.000000 -2.625000 -1.781250 0 0 0 0 0.000000 0.000000 0.000000 0.000000
-9.448800 -4.572002 6.934199 -0.000000 1.000000 0.000000 1.000000 0.000000 0.000000 -3.875000 -2.843750 0 0 0 0 0.000000 0.000000 0.000000 0.000000
-10.629900 -4.572002 6.934198 -0.000000 1.000000 0.000000 1.000000 0.000000 0.000000 -4.359375 -2.843750 0 0 0 0 0.000000 0.000000 0.000000 0.000000
-10.629900 -4.114800 -3.543302 -0.000000 1.000000 0.000000 1.000000 0.000000 0.000000 -4.359375 1.453125 0 0 0 0 0.000000 0.000000 0.000000 0.000000
-8.839198 -4.114800 -3.543302 -0.000000 1.000000 0.000000 1.000000 0.000000 0.000000 -3.625000 1.453125 0 0 0 0 0.000000 0.000000 0.000000 0.000000
-8.839199 -4.114800 -1.219201 -0.000000 1.000000 0.000000 1.000000 0.000000 0.000000 -3.625000 0.500000 0 0 0 0 0.000000 0.000000 0.000000 0.000000
-10.629900 -4.114800 -1.219202 -0.000000 1.000000 0.000000 1.000000 0.000000 0.000000 -4.359375 0.500000 0 0 0 0 0.000000 0.000000 0.000000 0.000000
-10.629900 -4.114800 -4.876801 -0.000000 1.000000 0.000000 1.000000 0.000000 0.000000 -4.359375 2.000000 0 0 0 0 0.000000 0.000000 0.000000 0.000000
-10.629900 -4.114800 -5.867365 -0.000000 1.000000 0.000000 1.000000 0.000000 0.000000 -4.359375 2.406235 0 0 0 0 0.000000 0.000000 0.000000 0.000000
-8.839198 -4.114800 -5.355718 -0.000000 1.000000 0.000000 1.000000 0.000000 0.000000 -3.625000 2.196406 0 0 0 0 0.000000 0.000000 0.000000 0.000000
-8.839198 -4.114800 -4.267201 -0.000000 1.000000 0.000000 0.000000 0.000000 -1.000000 -3.625000 1.750000 0 0 0 0 0.000000 0.000000 0.000000 0.000000
-10.629898 -4.114799 -9.622919 -0.000000 1.000000 0.000000 0.000000 -0.000000 1.000000 -4.359375 3.946406 0 0 0 0 0.000000 0.000000 0.000000 0.000000
-10.629898 -4.114799 -10.134681 -0.000000 1.000000 0.000000 0.000000 -0.000000 1.000000 -4.359375 4.156282 0 0 0 0 0.000000 0.000000 0.000000 0.000000
-10.629898 -4.114799 -14.097002 -0.000000 1.000000 0.000000 0.000000 -0.000000 1.000000 -4.359375 5.781250 0 0 0 0 0.000000 0.000000 0.000000 0.000000
-8.839198 -4.114799 -14.097002 -0.000000 1.000000 0.000000 1.000000 0.000000 -0.000000 -3.625000 5.781250 0 0 0 0 0.000000 0.000000 0.000000 0.000000
-8.839198 -4.114799 -10.058401 -0.000000 1.000000 0.000000 1.000000 0.000000 0.000000 -3.625000 4.125000 0 0 0 0 0.000000 0.000000 0.000000 0.000000
-8.839198 -4.114799 -9.753601 -0.000000 1.000000 0.000000 1.000000 0.000000 0.000001 -3.625000 4.000000 0 0 0 0 0.000000 0.000000 0.000000 0.000000
-8.839198 -4.114799 -9.622918 -0.000000 1.000000 0.000000 1.000000 0.000000 0.000000 -3.625000 3.946406 0 0 0 0 0.000000 0.000000 0.000000 0.000000
-10.629898 -4.114799 -9.622919 0.000000 1.000000 0.000000 1.000000 -0.000000 0.000000 -4.359375 3.946406 0 0 0 0 0.000000 0.000000 0.000000 0.000000
-8.839198 -4.114799 -8.534401 0.000000 1.000000 0.000000 1.000000 -0.000000 0.000001 -3.625000 3.500000 0 0 0 0 0.000000 0.000000 0.000000 0.000000
-8.839198 -4.114799 -8.229601 0.000000 1.000000 0.000000 1.000000 -0.000000 -0.000000 -3.625000 3.375000 0 0 0 0 0.000000 0.000000 0.000000 0.000000
-8.839198 -4.114799 -7.315201 0.000000 1.000000 0.000000 1.000000 -0.000000 0.000001 -3.625000 3.000000 0 0 0 0 0.000000 0.000000 0.000000 0.000000
-10.629898 -4.114798 -17.373602 -0.000000 1.000000 0.000000 1.000000 0.000000 0.000000 -4.359375 7.125000 0 0 0 0 0.000000 0.000000 0.000000 0.000000
-10.629898 -4.114798 -17.678402 -0.000000 1.000000 0.000000 1.000000 0.000000 0.000000 -4.359375 7.250000 0 0 0 0 0.000000 0.000000 0.000000 0.000000
-10.515599 -4.114798 -17.678402 -0.000000 1.000000 0.000000 1.000000 0.000000 0.000000 -4.312500 7.250000 0 0 0 0 0.000000 0.000000 0.000000 0.000000
-10.515599 -4.114798 -17.373602 -0.000000 1.000000 0.000000 1.000000 0.000000 0.000000 -4.312500 7.125000 0 0 0 0 0.000000 0.000000 0.000000 0.000000
-8.839198 -4.114798 -17.373602 0.000000 1.000000 0.000000 1.000000 -0.000000 -0.000000 -3.625000 7.125000 0 0 0 0 0.000000 0.000000 0.000000 0.000000
-10.629898 -4.114799 -14.097002 0.000000 1.000000 0.000000 1.000000 -0.000000 0.000002 -4.359375 5.781250 0 0 0 0 0.000000 0.000000 0.000000 0.000000
-10.629898 -4.114799 -14.249403 0.000000 1.000000 0.000000 1.000000 0.000000 0.000007 -4.359375 5.843750 0 0 0 0 0.000000 0.000000 0.000000 0.000000
-10.515599 -4.114798 -17.373602 0.000000 1.000000 0.000000 -1.000000 0.000000 0.000000 -4.312500 7.125000 0 0 0 0 0.000000 0.000000 0.000000 0.000000
-10.210798 -4.114798 -17.373602 0.000000 1.000000 0.000000 -1.000000 0.000000 0.000000 -4.187500 7.125000 0 0 0 0 0.000000 0.000000 0.000000 0.000000
-10.210798 -4.114798 -17.373602 -0.000000 1.000000 0.000000 1.000000 0.000000 -0.000000 -4.187500 7.125000 0 0 0 0 0.000000 0.000000 0.000000 0.000000
-10.210797 -4.114798 -17.678402 -0.000000 1.000000 0.000000 1.000000 0.000000 -0.000000 -4.187500 7.250000 0 0 0 0 0.000000 0.000000 0.000000 0.000000
-8.839197 -4.114798 -17.678402 -0.000000 1.000000 0.000000 1.000000 0.000000 0.000000 -3.625000 7.250000 0 0 0 0 0.000000 0.000000 0.000000 0.000000
-13.106401 -4.572004 17.373596 -0.000000 1.000000 0.000000 1.000000 0.000000 -0.000000 -5.375000 -7.125000 0 0 0 0 0.000000 0.000000 0.000000 0.000000
-13.106401 -4.572003 13.868398 -0.000000 1.000000 0.000000 1.000000 0.000000 -0.000000 -5.375000 -5.687500 0 0 0 0 0.000000 0.000000 0.000000 0.000000
-12.496801 -4.572003 13.868398 -0.000000 1.000000 0.000000 1.000000 0.000000 0.000000 -5.125000 -5.687500 0 0 0 0 0.000000 0.000000 0.000000 0.000000
-11.887202 -4.572003 13.868398 -0.000000 1.000000 0.000000 1.000000 0.000000 0.000000 -4.875000 -5.687500 0 0 0 0 0.000000 0.000000 0.000000 0.000000
-13.106401 -4.572004 17.373596 -0.000000 1.000000 0.000000 1.000000 0.000000 -0.000000 -5.375000 -7.125000 0 0 0 0 0.000000 0.000000 0.000000 0.000000
-14.630400 -4.572004 17.373596 -0.000000 1.000000 0.000000 1.000000 0.000000 -0.000000 -6.000000 -7.125000 0 0 0 0 0.000000 0.000000 0.000000 0.000000
-17.373600 -4.572004 17.373596 -0.000000 1.000000 0.000000 1.000000 0.000000 -0.000000 -7.125000 -7.125000 0 0 0 0 0.000000 0.000000 0.000000 0.000000
-17.373600 -4.572004 14.520669 -0.000000 1.000000 0.000000 1.000000 0.000000 0.000000 -7.125000 -5.955000 0 0 0 0 0.000000 0.000000 0.000000 0.000000
-17.373600 -4.572004 13.868398 -0.000000 1.000000 0.000000 1.000000 0.000000 -0.000028 -7.125000 -5.687500 0 0 0 0 0.000000 0.000000 0.000000 0.000000
-14.935201 -4.572004 13.868398 -0.000000 1.000000 0.000000 1.000000 0.000000 0.000000 -6.125000 -5.687500 0 0 0 0 0.000000 0.000000 0.000000 0.000000
-18.897600 -4.572004 13.129870 -0.000000 1.000000 0.000000 1.000000 0.000000 -0.000020 -7.750000 -5.384626 0 0 0 0 0.000000 0.000000 0.000000 0.000000
-17.856710 -4.572004 17.373596 -0.000000 1.000000 0.000000 1.000000 0.000000 -0.000000 -7.323125 -7.125000 0 0 0 0 0.000000 0.000000 0.000000 0.000000
-18.897600 -4.572005 17.373596 -0.000000 1.000000 0.000000 1.000000 0.000000 -0.000020 -7.750000 -7.125000 0 0 0 0 0.000000 0.000000 0.000000 0.000000
-18.903358 -4.572004 13.106398 -0.000000 1.000000 0.000000 1.000000 0.000000 -0.000020 -7.752361 -5.375000 0 0 0 0 0.000000 0.000000 0.000000 0.000000
-23.164799 -4.572004 13.106396 -0.000000 1.000000 0.000000 1.000000 0.000000 0.000000 -9.500000 -5.375000 0 0 0 0 0.000000 0.000000 0.000000 0.000000
-23.164799 -4.572004 12.344397 -0.000000 1.000000 0.000000 1.000000 0.000000 0.000000 -9.500000 -5.062500 0 0 0 0 0.000000 0.000000 0.000000 0.000000
-23.164799 -4.572004 11.887197 -0.000000 1.000000 0.000000 1.000000 0.000000 0.000001 -9.500000 -4.875000 0 0 0 0 0.000000 0.000000 0.000000 0.000000
-19.202400 -4.572004 11.887198 -0.000000 1.000000 0.000000 1.000000 0.000000 0.000000 -7.875000 -4.875000 0 0 0 0 0.000000 0.000000 0.000000 0.000000
-23.164803 -4.572005 17.373596 -0.000000 1.000000 0.000000 1.000000 0.000000 0.000000 -9.500000 -7.125000 0 0 0 0 0.000000 0.000000 0.000000 0.000000
-23.164803 -4.572005 16.611597 -0.000000 1.000000 0.000000 1.000000 0.000000 -0.000000 -9.500000 -6.812500 0 0 0 0 0.000000 0.000000 0.000000 0.000000
-17.373600 -4.572004 17.373596 -0.000000 1.000000 0.000000 1.000000 0.000000 -0.000001 -7.125000 -7.125000 0 0 0 0 0.000000 0.000000 0.000000 0.000000
-18.954750 -4.572004 12.896848 -0.000000 1.000000 0.000000 1.000000 0.000000 -0.000001 -7.773438 -5.289062 0 0 0 0 0.000000 0.000000 0.000000 0.000000
-17.373600 -4.572004 13.866112 -0.000000 1.000000 0.000000 1.000000 0.000000 -0.000028 -7.125000 -5.686563 0 0 0 0 0.000000 0.000000 0.000000 0.000000
-18.249903 -4.572004 13.620748 -0.000000 1.000000 0.000000 1.000000 0.000000 -0.000058 -7.484375 -5.585938 0 0 0 0 0.000000 0.000000 0.000000 0.000000
-11.430001 -4.572003 10.667997 -0.000000 1.000000 0.000000 1.000000 0.000000 0.000000 -4.687500 -4.375000 0 0 0 0 0.000000 0.000000 0.000000 0.000000
-11.430001 -4.572002 7.696198 -0.000000 1.000000 0.000000 1.000000 0.000000 0.000000 -4.687500 -3.156250 0 0 0 0 0.000000 0.000000 0.000000 0.000000
-11.353801 -4.572002 7.696198 -0.000000 1.000000 0.000000 1.000000 0.000000 0.000000 -4.656250 -3.156250 0 0 0 0 0.000000 0.000000 0.000000 0.000000
-11.277601 -4.572002 7.696198 -0.000000 1.000000 0.000000 1.000000 0.000000 0.000000 -4.625000 -3.156250 0 0 0 0 0.000000 0.000000 0.000000 0.000000
-15.697201 -4.572003 10.667997 -0.000000 1.000000 0.000000 1.000000 0.000000 0.000000 -6.437500 -4.375000 0 0 0 0 0.000000 0.000000 0.000000 0.000000
-15.697201 -4.572003 10.210798 -0.000000 1.000000 0.000000 1.000000 0.000000 0.000000 -6.437500 -4.187500 0 0 0 0 0.000000 0.000000 0.000000 0.000000
-15.697201 -4.572003 7.696198 -0.000000 1.000000 0.000000 1.000000 0.000000 -0.000000 -6.437500 -3.156250 0 0 0 0 0.000000 0.000000 0.000000 0.000000
-15.316201 -4.572002 7.696198 -0.000000 1.000000 0.000000 1.000000 0.000000 -0.000000 -6.281250 -3.156250 0 0 0 0 0.000000 0.000000 0.000000 0.000000
-15.240001 -4.572002 7.696198 -0.000000 1.000000 0.000000 1.000000 0.000000 0.000000 -6.250000 -3.156250 0 0 0 0 0.000000 0.000000 0.000000 0.000000
-13.411201 -4.572002 7.696198 -0.000000 1.000000 0.000000 1.000000 0.000000 0.000000 -5.500000 -3.156250 0 0 0 0 0.000000 0.000000 0.000000 0.000000
-13.335001 -4.572002 7.696198 -0.000000 1.000000 0.000000 1.000000 0.000000 0.000000 -5.468750 -3.156250 0 0 0 0 0.000000 0.000000 0.000000 0.000000
-11.430001 -4.572003 10.820397 -0.000000 1.000000 0.000000 1.000000 0.000000 0.000000 -4.687500 -4.437500 0 0 0 0 0.000000 0.000000 0.000000 0.000000
-11.430001 -4.572003 11.582397 -0.000000 1.000000 0.000000 1.000000 0.000000 0.000000 -4.687500 -4.750000 0 0 0 0 0.000000 0.000000 0.000000 0.000000
-15.697201 -4.572003 10.820397 -0.000000 1.000000 0.000000 1.000000 0.000000 0.000000 -6.437500 -4.437500 0 0 0 0 0.000000 0.000000 0.000000 0.000000
-15.697201 -4.572003 11.582397 -0.000000 1.000000 0.000000 1.000000 0.000000 0.000000 -6.437500 -4.750000 0 0 0 0 0.000000 0.000000 0.000000 0.000000
-15.849601 -4.572003 11.582397 0.000000 1.000000 0.000000 1.000000 -0.000000 -0.000000 -6.500000 -4.750000 0 0 0 0 0.000000 0.000000 0.000000 0.000000
-17.373600 -4.572003 11.582397 0.000000 1.000000 0.000000 1.000000 -0.000000 -0.000000 -7.125000 -4.750000 0 0 0 0 0.000000 0.000000 0.000000 0.000000
-17.373600 -4.572003 7.696198 0.000000 1.000000 0.000000 1.000000 -0.000000 -0.000000 -7.125000 -3.156250 0 0 0 0 0.000000 0.000000 0.000000 0.000000
-15.849601 -4.572003 7.696198 0.000000 1.000000 0.000000 1.000000 0.000000 0.000000 -6.500000 -3.156250 0 0 0 0 0.000000 0.000000 0.000000 0.000000
-15.849601 -4.572003 10.210798 0.000000 1.000000 0.000000 0.000000 0.000000 -1.000000 -6.500000 -4.187500 0 0 0 0 0.000000 0.000000 0.000000 0.000000
-15.849601 -4.572003 10.667997 0.000000 1.000000 0.000000 -0.000000 0.000000 -1.000000 -6.500000 -4.375000 0 0 0 0 0.000000 0.000000 0.000000 0.000000
-15.849601 -4.572003 10.210798 -0.000000 1.000000 0.000000 1.000000 0.000000 0.000000 -6.500000 -4.187500 0 0 0 0 0.000000 0.000000 0.000000 0.000000
-13.335001 -4.572002 7.315197 -0.000000 1.000000 0.000000 1.000000 0.000000 -0.000000 -5.468750 -3.000000 0 0 0 0 0.000000 0.000000 0.000000 0.000000
-11.353801 -4.572002 7.315197 -0.000000 1.000000 0.000000 1.000000 0.000000 -0.000000 -4.656250 -3.000000 0 0 0 0 0.000000 0.000000 0.000000 0.000000
-17.373600 -4.572003 7.315197 -0.000000 1.000000 0.000000 1.000000 0.000000 -0.000000 -7.125000 -3.000000 0 0 0 0 0.000000 0.000000 0.000000 0.000000
-15.316201 -4.572002 7.315197 -0.000000 1.000000 0.000000 1.000000 0.000000 -0.000000 -6.281250 -3.000000 0 0 0 0 0.000000 0.000000 0.000000 0.000000
-18.688049 -4.572003 7.315197 -0.000000 1.000000 0.000000 1.000000 0.000000 0.000000 -7.664062 -3.000000 0 0 0 0 0.000000 0.000000 0.000000 0.000000
-19.030952 -4.572003 7.715248 -0.000000 1.000000 0.000000 1.000000 0.000000 0.000000 -7.804688 -3.164062 0 0 0 0 0.000000 0.000000 0.000000 0.000000
-18.933620 -4.572003 7.315197 -0.000000 1.000000 0.000000 1.000000 -0.000000 0.000000 -7.764772 -3.000000 0 0 0 0 0.000000 0.000000 0.000000 0.000000
-19.202400 -4.572003 8.420097 -0.000000 1.000000 0.000000 1.000000 0.000000 0.000000 -7.875000 -3.453125 0 0 0 0 0.000000 0.000000 0.000000 0.000000
-19.202400 -4.572003 8.077197 -0.000000 1.000000 0.000000 -0.000000 -0.000000 1.000000 -7.875000 -3.312500 0 0 0 0 0.000000 0.000000 0.000000 0.000000
-19.202400 -4.572003 7.315197 -0.000000 1.000000 0.000000 1.000000 -0.000000 -0.000000 -7.875000 -3.000000 0 0 0 0 0.000000 0.000000 0.000000 0.000000
-23.012400 -4.572003 7.315197 -0.000000 1.000000 0.000000 1.000000 0.000000 0.000000 -9.437500 -3.000000 0 0 0 0 0.000000 0.000000 0.000000 0.000000
-19.202400 -4.572003 8.077197 -0.000000 1.000000 0.000000 1.000000 0.000000 0.000000 -7.875000 -3.312500 0 0 0 0 0.000000 0.000000 0.000000 0.000000
-23.012400 -4.572003 8.077197 -0.000000 1.000000 0.000000 1.000000 0.000000 0.000000 -9.437500 -3.312500 0 0 0 0 0.000000 0.000000 0.000000 0.000000
-23.164799 -4.572003 8.077197 -0.000000 1.000000 0.000000 1.000000 0.000000 0.000000 -9.500000 -3.312500 0 0 0 0 0.000000 0.000000 0.000000 0.000000
-23.012400 -4.572003 8.077197 -0.000000 1.000000 0.000000 -1.000000 -0.000000 -0.000000 -9.437500 -3.312500 0 0 0 0 0.000000 0.000000 0.000000 0.000000
-10.972800 -4.572001 3.581398 -0.000000 1.000000 0.000000 1.000000 0.000000 0.000000 -4.500000 -1.468750 0 0 0 0 0.000000 0.000000 0.000000 0.000000
-13.106400 -4.572002 3.581398 -0.000000 1.000000 0.000000 1.000000 0.000000 0.000000 -5.375000 -1.468750 0 0 0 0 0.000000 0.000000 0.000000 0.000000
-13.106400 -4.572001 0.609598 -0.000000 1.000000 0.000000 1.000000 0.000000 0.000000 -5.375000 -0.250000 0 0 0 0 0.000000 0.000000 0.000000 0.000000
-12.954000 -4.572001 0.609598 -0.000000 1.000000 0.000000 -1.000000 -0.000000 -0.000000 -5.312500 -0.250000 0 0 0 0 0.000000 0.000000 0.000000 0.000000
-10.629900 -4.572001 2.895598 -0.000000 1.000000 0.000000 0.000000 0.000000 -1.000000 -4.359375 -1.187500 0 0 0 0 0.000000 0.000000 0.000000 0.000000
-13.106400 -4.572002 3.581398 -0.000000 1.000000 0.000000 1.000000 0.000000 0.000000 -5.375000 -1.468750 0 0 0 0 0.000000 0.000000 0.000000 0.000000
-15.240000 -4.572002 3.581398 -0.000000 1.000000 0.000000 1.000000 0.000000 0.000000 -6.250000 -1.468750 0 0 0 0 0.000000 0.000000 0.000000 0.000000
-15.316199 -4.572002 3.581398 -0.000000 1.000000 0.000000 1.000000 0.000000 0.000000 -6.281250 -1.468750 0 0 0 0 0.000000 0.000000 0.000000 0.000000
-17.373600 -4.572002 3.581398 -0.000000 1.000000 0.000000 -1.000000 -0.000000 -0.000000 -7.125000 -1.468750 0 0 0 0 0.000000 0.000000 0.000000 0.000000
-17.373600 -4.572001 0.609598 -0.000000 1.000000 0.000000 1.000000 0.000000 0.000000 -7.125000 -0.250000 0 0 0 0 0.000000 0.000000 0.000000 0.000000
-17.221201 -4.572001 0.609598 -0.000000 1.000000 0.000000 1.000000 0.000000 0.000000 -7.062500 -0.250000 0 0 0 0 0.000000 0.000000 0.000000 0.000000
-17.373600 -4.572003 7.315197 -0.000000 1.000000 0.000000 -0.000003 -0.000000 1.000000 -7.125000 -3.000000 0 0 0 0 0.000000 0.000000 0.000000 0.000000
-17.373600 -4.572003 7.010398 -0.000000 1.000000 0.000000 -0.000003 -0.000000 1.000000 -7.125000 -2.875000 0 0 0 0 0.000000 0.000000 0.000000 0.000000
-17.373600 -4.572003 6.934198 -0.000000 1.000000 0.000000 -0.000003 -0.000000 1.000000 -7.125000 -2.843750 0 0 0 0 0.000000 0.000000 0.000000 0.000000
-15.316199 -4.572002 6.934198 -0.000000 1.000000 0.000000 1.000000 0.000000 -0.000000 -6.281250 -2.843750 0 0 0 0 0.000000 0.000000 0.000000 0.000000
-13.335000 -4.572002 6.934198 -0.000000 1.000000 0.000000 1.000000 0.000000 -0.000000 -5.468750 -2.843750 0 0 0 0 0.000000 0.000000 0.000000 0.000000
-13.106400 -4.572002 6.934198 -0.000000 1.000000 0.000000 1.000000 0.000000 -0.000000 -5.375000 -2.843750 0 0 0 0 0.000000 0.000000 0.000000 0.000000
-11.353800 -4.572002 6.934198 -0.000000 1.000000 0.000000 1.000000 0.000000 0.000000 -4.656250 -2.843750 0 0 0 0 0.000000 0.000000 0.000000 0.000000
-13.411200 -4.572002 3.657598 -0.000000 1.000000 0.000000 1.000000 0.000000 0.000000 -5.500000 -1.500000 0 0 0 0 0.000000 0.000000 0.000000 0.000000
-13.258800 -4.572002 3.657598 -0.000000 1.000000 0.000000 1.000000 0.000000 0.000000 -5.437500 -1.500000 0 0 0 0 0.000000 0.000000 0.000000 0.000000
-13.258800 -4.572002 4.267198 -0.000000 1.000000 0.000000 1.000000 0.000000 0.000000 -5.437500 -1.750000 0 0 0 0 0.000000 0.000000 0.000000 0.000000
-13.411200 -4.572002 4.267198 -0.000000 1.000000 0.000000 1.000000 0.000000 0.000000 -5.500000 -1.750000 0 0 0 0 0.000000 0.000000 0.000000 0.000000
-15.316199 -4.572002 4.343398 -0.000000 1.000000 0.000000 1.000000 0.000000 0.000000 -6.281250 -1.781250 0 0 0 0 0.000000 0.000000 0.000000 0.000000
-17.373600 -4.572002 4.343398 -0.000000 1.000000 0.000000 1.000000 0.000000 0.000000 -7.125000 -1.781250 0 0 0 0 0.000000 0.000000 0.000000 0.000000
-17.373600 -4.572002 3.581398 -0.000000 1.000000 0.000000 1.000000 0.000000 0.000000 -7.125000 -1.468750 0 0 0 0 0.000000 0.000000 0.000000 0.000000
-15.316199 -4.572002 3.581398 -0.000000 1.000000 0.000000 1.000000 0.000000 0.000000 -6.281250 -1.468750 0 0 0 0 0.000000 0.000000 0.000000 0.000000
-11.429999 -4.572001 3.657598 -0.000000 1.000000 0.000000 1.000000 0.000000 0.000000 -4.687500 -1.500000 0 0 0 0 0.000000 0.000000 0.000000 0.000000
-11.277600 -4.572001 3.657598 -0.000000 1.000000 0.000000 1.000000 0.000000 0.000000 -4.625000 -1.500000 0 0 0 0 0.000000 0.000000 0.000000 0.000000
-11.277600 -4.572002 4.267199 -0.000000 1.000000 0.000000 1.000000 0.000000 0.000000 -4.625000 -1.750000 0 0 0 0 0.000000 0.000000 0.000000 0.000000
-11.429999 -4.572002 4.267199 -0.000000 1.000000 0.000000 1.000000 0.000000 0.000000 -4.687500 -1.750000 0 0 0 0 0.000000 0.000000 0.000000 0.000000
-13.106400 -4.572002 4.343398 -0.000000 1.000000 0.000000 1.000000 0.000000 0.000000 -5.375000 -1.781250 0 0 0 0 0.000000 0.000000 0.000000 0.000000
-10.972800 -4.572001 4.343399 -0.000000 1.000000 0.000000 1.000000 0.000000 0.000000 -4.500000 -1.781250 0 0 0 0 0.000000 0.000000 0.000000 0.000000
-10.629900 -4.572001 4.343399 -0.000000 1.000000 0.000000 1.000000 0.000000 0.000000 -4.359375 -1.781250 0 0 0 0 0.000000 0.000000 0.000000 0.000000
-11.277600 -4.572002 6.934198 -0.000000 1.000000 0.000000 1.000000 0.000000 0.000000 -4.625000 -2.843750 0 0 0 0 0.000000 0.000000 0.000000 0.000000
-13.106400 -4.572002 4.343398 -0.000000 1.000000 0.000000 1.000000 0.000000 -0.000000 -5.375000 -1.781250 0 0 0 0 0.000000 0.000000 0.000000 0.000000
-13.411200 -4.572002 6.934198 -0.000000 1.000000 0.000000 1.000000 0.000000 0.000000 -5.500000 -2.843750 0 0 0 0 0.000000 0.000000 0.000000 0.000000
-15.240000 -4.572002 6.934198 -0.000000 1.000000 0.000000 1.000000 0.000000 0.000000 -6.250000 -2.843750 0 0 0 0 0.000000 0.000000 0.000000 0.000000
-17.373600 -4.572003 6.934198 -0.000000 1.000000 0.000000 1.000000 0.000000 -0.000000 -7.125000 -2.843750 0 0 0 0 0.000000 0.000000 0.000000 0.000000
-17.373600 -4.572002 5.181598 -0.000000 1.000000 0.000000 1.000000 0.000000 -0.000000 -7.125000 -2.125000 0 0 0 0 0.000000 0.000000 0.000000 0.000000
-15.316199 -4.572002 4.343398 -0.000000 1.000000 0.000000 1.000000 0.000000 -0.000000 -6.281250 -1.781250 0 0 0 0 0.000000 0.000000 0.000000 0.000000
-15.240000 -4.572002 4.343398 -0.000000 1.000000 0.000000 1.000000 0.000000 -0.000000 -6.250000 -1.781250 0 0 0 0 0.000000 0.000000 0.000000 0.000000
-14.630399 -4.114801 -1.219202 -0.000000 1.000000 0.000000 1.000000 0.000000 0.000000 -6.000000 0.500000 0 0 0 0 0.000000 0.000000 0.000000 0.000000
-14.630399 -4.114801 -1.524002 -0.000000 1.000000 0.000000 1.000000 0.000000 0.000000 -6.000000 0.625000 0 0 0 0 0.000000 0.000000 0.000000 0.000000
-14.630399 -4.114800 -3.543302 -0.000000 1.000000 0.000000 1.000000 0.000000 0.000000 -6.000000 1.453125 0 0 0 0 0.000000 0.000000 0.000000 0.000000
-14.630399 -4.114800 -3.543302 -0.164399 0.986394 0.000000 0.986394 0.164399 0.000000 -6.000000 1.453125 0 0 0 0 0.000000 0.000000 0.000000 0.000000
-14.630399 -4.114801 -1.524002 -0.164399 0.986394 0.000000 0.986394 0.164399 0.000000 -6.000000 0.625000 0 0 0 0 0.000000 0.000000 0.000000 0.000000
-15.087600 -4.191001 -1.524002 -0.164399 0.986394 0.000000 0.986394 0.164399 0.000000 -6.187500 0.625000 0 0 0 0 0.000000 0.000000 0.000000 0.000000
-17.373600 -4.572001 -1.524002 -0.164399 0.986394 0.000000 0.986394 0.164399 0.000000 -7.125000 0.625000 0 0 0 0 0.000000 0.000000 0.000000 0.000000
-17.373600 -4.572001 -1.871474 -0.164399 0.986394 0.000000 0.986394 0.164399 0.000000 -7.125000 0.767500 0 0 0 0 0.000000 0.000000 0.000000 0.000000
-17.373600 -4.572001 -3.543302 -0.164399 0.986394 0.000000 0.986394 0.164399 0.000000 -7.125000 1.453125 0 0 0 0 0.000000 0.000000 0.000000 0.000000
-18.573751 -4.572003 7.181848 -0.000000 1.000000 0.000000 1.000000 0.000000 0.000000 -7.617188 -2.945312 0 0 0 0 0.000000 0.000000 0.000000 0.000000
-18.288000 -4.572003 6.848472 -0.000000 1.000000 0.000000 1.000000 0.000000 -0.000000 -7.500000 -2.808594 0 0 0 0 0.000000 0.000000 0.000000 0.000000
-18.288002 -4.572003 7.097837 -0.000000 1.000000 0.000000 1.000000 0.000000 0.000000 -7.500000 -2.910859 0 0 0 0 0.000000 0.000000 0.000000 0.000000
-18.417349 -4.572002 5.192647 -0.000000 1.000000 0.000000 1.000000 -0.000001 0.000000 -7.553047 -2.129531 0 0 0 0 0.000000 0.000000 0.000000 0.000000
-18.386297 -4.572002 5.065202 -0.000000 1.000000 0.000000 1.000000 -0.000001 0.000001 -7.540312 -2.077266 0 0 0 0 0.000000 0.000000 0.000000 0.000000
-18.288000 -4.572002 5.094158 -0.000000 1.000000 0.000000 1.000000 0.000000 0.000002 -7.500000 -2.089141 0 0 0 0 0.000000 0.000000 0.000000 0.000000
-18.636997 -4.572003 6.095998 0.000002 1.000000 0.000000 1.000000 -0.000001 0.000001 -7.643125 -2.500000 0 0 0 0 0.000000 0.000000 0.000000 0.000000
-19.202400 -4.572002 3.771898 0.000002 1.000000 0.000000 1.000000 -0.000001 0.000001 -7.875000 -1.546875 0 0 0 0 0.000000 0.000000 0.000000 0.000000
-19.030951 -4.572002 4.476748 -0.000000 1.000000 0.000000 1.000000 0.000000 -0.000000 -7.804688 -1.835938 0 0 0 0 0.000000 0.000000 0.000000 0.000000
-18.573750 -4.572002 5.010148 0.000005 1.000000 0.000000 1.000000 -0.000005 -0.000001 -7.617188 -2.054688 0 0 0 0 0.000000 0.000000 0.000000 0.000000
-23.012400 -4.572002 3.047997 -0.000000 1.000000 0.000000 1.000000 0.000000 0.000000 -9.437500 -1.250000 0 0 0 0 0.000000 0.000000 0.000000 0.000000
-23.012400 -4.572002 0.761997 -0.000000 1.000000 0.000000 1.000000 0.000000 0.000000 -9.437500 -0.312500 0 0 0 0 0.000000 0.000000 0.000000 0.000000
-19.202400 -4.572002 0.761998 -0.000000 1.000000 0.000000 1.000000 0.000000 0.000000 -7.875000 -0.312500 0 0 0 0 0.000000 0.000000 0.000000 0.000000
-19.202400 -4.572002 3.047998 -0.000000 1.000000 0.000000 1.000000 0.000000 0.000000 -7.875000 -1.250000 0 0 0 0 0.000000 0.000000 0.000000 0.000000
-23.012400 -4.572003 4.876797 -0.000000 1.000000 0.000000 1.000000 0.000000 0.000000 -9.437500 -2.000000 0 0 0 0 0.000000 0.000000 0.000000 0.000000
-23.012400 -4.572003 4.114797 -0.000000 1.000000 0.000000 1.000000 0.000000 0.000000 -9.437500 -1.687500 0 0 0 0 0.000000 0.000000 0.000000 0.000000
-18.249901 -4.572001 -0.971552 0.000000 1.000000 0.000000 1.000000 -0.000000 -0.000000 -7.484375 0.398438 0 0 0 0 0.000000 0.000000 0.000000 0.000000
-17.373600 -4.572001 -1.871474 0.000000 1.000000 0.000000 1.000000 -0.000000 -0.000000 -7.125000 0.767500 0 0 0 0 0.000000 0.000000 0.000000 0.000000
-17.373600 -4.572001 -1.524002 0.000000 1.000000 0.000000 1.000000 -0.000000 -0.000000 -7.125000 0.625000 0 0 0 0 0.000000 0.000000 0.000000 0.000000
-17.373600 -4.572001 -1.219202 0.000000 1.000000 0.000000 1.000000 -0.000000 0.000000 -7.125000 0.500000 0 0 0 0 0.000000 0.000000 0.000000 0.000000
-17.373600 -4.572001 -1.216916 0.000000 1.000000 0.000000 1.000000 -0.000000 0.000000 -7.125000 0.499063 0 0 0 0 0.000000 0.000000 0.000000 0.000000
-17.373600 -4.572001 -3.543302 -0.000000 1.000000 0.000000 1.000000 0.000000 0.000000 -7.125000 1.453125 0 0 0 0 0.000000 0.000000 0.000000 0.000000
-18.954750 -4.572001 -0.247652 -0.000000 1.000000 0.000000 1.000000 0.000000 0.000000 -7.773438 0.101562 0 0 0 0 0.000000 0.000000 0.000000 0.000000
-18.146435 -4.572001 -3.543302 -0.000000 1.000000 0.000000 1.000000 0.000000 -0.000000 -7.441943 1.453125 0 0 0 0 0.000000 0.000000 0.000000 0.000000
-18.745201 -4.572001 -3.543302 -0.000000 1.000000 0.000000 1.000000 0.000000 -0.000000 -7.687500 1.453125 0 0 0 0 0.000000 0.000000 0.000000 0.000000
-18.745201 -4.572001 -1.102069 -0.000000 1.000000 0.000000 1.000000 0.000000 0.000000 -7.687500 0.451963 0 0 0 0 0.000000 0.000000 0.000000 0.000000
-23.012400 -4.572001 -3.543303 -0.000000 1.000000 0.000000 1.000000 0.000000 0.000000 -9.437500 1.453125 0 0 0 0 0.000000 0.000000 0.000000 0.000000
-18.897600 -4.572001 -3.543302 -0.000000 1.000000 0.000000 1.000000 0.000000 0.000000 -7.750000 1.453125 0 0 0 0 0.000000 0.000000 0.000000 0.000000
-23.012400 -4.572002 -0.152403 -0.000000 1.000000 0.000000 1.000000 0.000000 0.000000 -9.437500 0.062500 0 0 0 0 0.000000 0.000000 0.000000 0.000000
-24.231598 -4.572003 7.315197 -0.000000 1.000000 0.000000 1.000000 0.000000 0.000000 -9.937500 -3.000000 0 0 0 0 0.000000 0.000000 0.000000 0.000000
-24.231598 -4.572003 4.876797 -0.000000 1.000000 0.000000 1.000000 0.000000 0.000000 -9.937500 -2.000000 0 0 0 0 0.000000 0.000000 0.000000 0.000000
-23.164799 -4.572002 -0.152403 -0.000000 1.000000 0.000000 1.000000 0.000001 0.000000 -9.500000 0.062500 0 0 0 0 0.000000 0.000000 0.000000 0.000000
-23.164799 -4.572001 -3.543303 -0.000000 1.000000 0.000000 1.000000 0.000000 0.000000 -9.500000 1.453125 0 0 0 0 0.000000 0.000000 0.000000 0.000000
-23.012400 -4.572002 -0.152403 -0.000002 1.000000 0.000000 -0.000000 0.000000 -1.000000 -9.437500 0.062500 0 0 0 0 0.000000 0.000000 0.000000 0.000000
-23.012400 -4.572002 0.761997 -0.000002 1.000000 0.000000 -0.000000 0.000000 -1.000000 -9.437500 -0.312500 0 0 0 0 0.000000 0.000000 0.000000 0.000000
-23.012400 -4.572002 3.047997 -0.000002 1.000000 0.000000 0.000000 0.000000 -1.000000 -9.437500 -1.250000 0 0 0 0 0.000000 0.000000 0.000000 0.000000
-23.012400 -4.572003 4.114797 -0.000002 1.000000 0.000000 -0.000000 0.000000 -1.000000 -9.437500 -1.687500 0 0 0 0 0.000000 0.000000 0.000000 0.000000
-23.164799 -4.572003 4.114797 -0.000002 1.000000 0.000000 1.000000 0.000002 0.000000 -9.500000 -1.687500 0 0 0 0 0.000000 0.000000 0.000000 0.000000
-23.164799 -4.572002 0.723897 -0.000002 1.000000 0.000000 1.000000 0.000002 0.000001 -9.500000 -0.296875 0 0 0 0 0.000000 0.000000 0.000000 0.000000
-36.728401 -5.486405 8.839196 -0.000000 1.000000 0.000000 1.000000 0.000000 0.000000 -15.062500 -3.625000 0 0 0 0 0.000000 0.000000 0.000000 0.000000
-36.728401 -5.486404 8.077196 -0.000000 1.000000 0.000000 1.000000 0.000000 0.000000 -15.062500 -3.312500 0 0 0 0 0.000000 0.000000 0.000000 0.000000
-32.613602 -5.486404 8.077196 -0.000000 1.000000 0.000000 1.000000 0.000000 0.000000 -13.375000 -3.312500 0 0 0 0 0.000000 0.000000 0.000000 0.000000
-32.461201 -5.486404 8.077196 -0.000000 1.000000 0.000000 1.000000 0.000000 0.000000 -13.312500 -3.312500 0 0 0 0 0.000000 0.000000 0.000000 0.000000
-32.461201 -5.486404 8.839196 -0.000000 1.000000 0.000000 1.000000 0.000000 -0.000000 -13.312500 -3.625000 0 0 0 0 0.000000 0.000000 0.000000 0.000000
-32.461201 -5.486405 12.344397 -0.000000 1.000000 0.000000 1.000000 0.000000 0.000000 -13.312500 -5.062500 0 0 0 0 0.000000 0.000000 0.000000 0.000000
-32.461201 -5.486405 13.106396 -0.000000 1.000000 0.000000 1.000000 0.000000 0.000001 -13.312500 -5.375000 0 0 0 0 0.000000 0.000000 0.000000 0.000000
-36.728401 -5.486405 13.106395 -0.000000 1.000000 0.000000 1.000000 0.000000 0.000000 -15.062500 -5.375000 0 0 0 0 0.000000 0.000000 0.000000 0.000000
-36.728401 -5.486405 10.667995 -0.000000 1.000000 0.000000 1.000000 0.000000 -0.000000 -15.062500 -4.375000 0 0 0 0 0.000000 0.000000 0.000000 0.000000
-36.728401 -5.486404 7.315196 -0.000000 1.000000 0.000000 1.000000 0.000000 0.000000 -15.062500 -3.000000 0 0 0 0 0.000000 0.000000 0.000000 0.000000
-32.613602 -5.486404 7.315196 -0.000000 1.000000 0.000000 1.000000 0.000000 0.000000 -13.375000 -3.000000 0 0 0 0 0.000000 0.000000 0.000000 0.000000
-26.822399 -4.572004 7.315197 -0.000000 1.000000 0.000000 1.000000 0.000000 0.000000 -11.000000 -3.000000 0 0 0 0 0.000000 0.000000 0.000000 0.000000
-26.822399 -4.572003 4.876797 -0.000000 1.000000 0.000000 1.000000 0.000000 0.000000 -11.000000 -2.000000 0 0 0 0 0.000000 0.000000 0.000000 0.000000
-27.889198 -4.754883 4.876796 -0.168964 0.985622 0.000000 0.985622 0.168964 0.000000 -11.437500 -2.000000 0 0 0 0 0.000000 0.000000 0.000000 0.000000
-26.822399 -4.572003 4.876797 -0.168964 0.985622 0.000000 0.985622 0.168964 0.000000 -11.000000 -2.000000 0 0 0 0 0.000000 0.000000 0.000000 0.000000
-26.822399 -4.572004 7.315197 -0.168964 0.985622 0.000000 0.985622 0.168964 0.000000 -11.000000 -3.000000 0 0 0 0 0.000000 0.000000 0.000000 0.000000
-27.889198 -4.754884 7.315197 -0.168964 0.985622 0.000000 0.985622 0.168964 0.000000 -11.437500 -3.000000 0 0 0 0 0.000000 0.000000 0.000000 0.000000
-32.156399 -5.486404 7.315196 -0.168964 0.985622 0.000000 0.985622 0.168964 0.000000 -13.187500 -3.000000 0 0 0 0 0.000000 0.000000 0.000000 0.000000
-32.156399 -5.486403 4.876796 -0.168964 0.985622 0.000000 0.985622 0.168964 0.000000 -13.187500 -2.000000 0 0 0 0 0.000000 0.000000 0.000000 0.000000
-36.728401 -5.486404 4.876796 -0.000000 1.000000 0.000000 1.000000 0.000000 0.000000 -15.062500 -2.000000 0 0 0 0 0.000000 0.000000 0.000000 0.000000
-32.613602 -5.486403 4.876796 -0.000000 1.000000 0.000000 1.000000 0.000000 0.000000 -13.375000 -2.000000 0 0 0 0 0.000000 0.000000 0.000000 0.000000
-32.461201 -5.486403 4.876796 -0.000000 1.000000 0.000000 1.000000 0.000000 0.000000 -13.312500 -2.000000 0 0 0 0 0.000000 0.000000 0.000000 0.000000
-32.461201 -5.486404 7.315196 -0.000000 1.000000 0.000000 1.000000 0.000000 0.000000 -13.312500 -3.000000 0 0 0 0 0.000000 0.000000 0.000000 0.000000
-32.613602 -5.486404 7.315196 -0.000000 1.000000 0.000000 1.000000 0.000000 0.000000 -13.375000 -3.000000 0 0 0 0 0.000000 0.000000 0.000000 0.000000
-36.728401 -5.486403 4.114796 -0.000000 1.000000 0.000000 1.000000 0.000000 0.000000 -15.062500 -1.687500 0 0 0 0 0.000000 0.000000 0.000000 0.000000
-32.613602 -5.486403 4.114796 -0.000000 1.000000 0.000000 1.000000 0.000000 0.000000 -13.375000 -1.687500 0 0 0 0 0.000000 0.000000 0.000000 0.000000
-36.728401 -5.486403 -0.304804 -0.000000 1.000000 0.000000 1.000000 0.000000 0.000000 -15.062500 0.125000 0 0 0 0 0.000000 0.000000 0.000000 0.000000
-32.461201 -5.486403 -0.304804 -0.000000 1.000000 0.000000 1.000000 0.000000 0.000000 -13.312500 0.125000 0 0 0 0 0.000000 0.000000 0.000000 0.000000
-32.461201 -5.486403 4.114796 -0.000000 1.000000 0.000000 1.000000 0.000000 0.000000 -13.312500 -1.687500 0 0 0 0 0.000000 0.000000 0.000000 0.000000
-32.613602 -5.486403 4.114796 -0.000000 1.000000 0.000000 1.000000 0.000000 0.000000 -13.375000 -1.687500 0 0 0 0 0.000000 0.000000 0.000000 0.000000
-14.630399 -4.114800 -4.572002 -0.000000 1.000000 0.000000 1.000000 0.000000 0.000000 -6.000000 1.875000 0 0 0 0 0.000000 0.000000 0.000000 0.000000
-14.630399 -4.114800 -4.876801 -0.000000 1.000000 0.000000 1.000000 0.000000 -0.000000 -6.000000 2.000000 0 0 0 0 0.000000 0.000000 0.000000 0.000000
-14.249400 -4.114800 -4.876801 -0.000000 1.000000 0.000000 1.000000 0.000000 0.000000 -5.843750 2.000000 0 0 0 0 0.000000 0.000000 0.000000 0.000000
-13.868401 -4.114800 -4.876801 -0.000000 1.000000 0.000000 -1.000000 -0.000000 -0.000000 -5.687500 2.000000 0 0 0 0 0.000000 0.000000 0.000000 0.000000
-13.258800 -4.114800 -4.876801 -0.000000 1.000000 0.000000 -1.000000 -0.000000 -0.000000 -5.437500 2.000000 0 0 0 0 0.000000 0.000000 0.000000 0.000000
-12.115799 -4.114800 -4.876801 -0.000000 1.000000 0.000000 1.000000 -0.000000 0.000000 -4.968750 2.000000 0 0 0 0 0.000000 0.000000 0.000000 0.000000
-14.630398 -4.114799 -10.134681 -0.000000 1.000000 0.000000 0.000000 -0.000000 1.000000 -6.000000 4.156282 0 0 0 0 0.000000 0.000000 0.000000 0.000000
-14.630398 -4.114799 -11.582402 -0.000000 1.000000 0.000000 -0.000000 -0.000000 1.000000 -6.000000 4.750000 0 0 0 0 0.000000 0.000000 0.000000 0.000000
-14.630398 -4.114799 -13.106402 -0.000000 1.000000 0.000000 0.000000 -0.000000 1.000000 -6.000000 5.375000 0 0 0 0 0.000000 0.000000 0.000000 0.000000
-14.630398 -4.114799 -14.249403 -0.000000 1.000000 0.000000 0.000000 -0.000000 1.000000 -6.000000 5.843750 0 0 0 0 0.000000 0.000000 0.000000 0.000000
-13.258799 -4.114799 -14.249403 -0.000000 1.000000 0.000000 1.000000 0.000000 -0.000000 -5.437500 5.843750 0 0 0 0 0.000000 0.000000 0.000000 0.000000
-10.629898 -4.114799 -10.134681 -0.000000 1.000000 0.000000 1.000000 0.000000 0.000000 -4.359375 4.156282 0 0 0 0 0.000000 0.000000 0.000000 0.000000
-14.630398 -4.114800 -7.010402 -0.000000 1.000000 0.000000 0.000000 -0.000000 1.000000 -6.000000 2.875000 0 0 0 0 0.000000 0.000000 0.000000 0.000000
-14.630398 -4.114800 -8.534402 -0.000000 1.000000 0.000000 0.000000 -0.000000 1.000000 -6.000000 3.500000 0 0 0 0 0.000000 0.000000 0.000000 0.000000
-14.630398 -4.114799 -10.058402 -0.000000 1.000000 0.000000 0.000000 -0.000000 1.000000 -6.000000 4.125000 0 0 0 0 0.000000 0.000000 0.000000 0.000000
-14.630398 -4.114799 -10.134681 -0.000000 1.000000 0.000000 -0.000000 0.000000 -1.000000 -6.000000 4.156282 0 0 0 0 0.000000 0.000000 0.000000 0.000000
-14.096999 -4.114800 -6.858002 -0.000000 1.000000 0.000000 1.000000 0.000000 0.000000 -5.781250 2.812500 0 0 0 0 0.000000 0.000000 0.000000 0.000000
-13.716001 -4.114800 -6.477002 -0.000000 1.000000 0.000000 0.707107 -0.000000 0.707107 -5.625000 2.656250 0 0 0 0 0.000000 0.000000 0.000000 0.000000
-13.716001 -4.114800 -6.477002 0.000000 1.000000 0.000000 1.000000 -0.000000 0.000001 -5.625000 2.656250 0 0 0 0 0.000000 0.000000 0.000000 0.000000
-13.258800 -4.114800 -4.876801 0.000000 1.000000 0.000000 1.000000 -0.000000 0.000000 -5.437500 2.000000 0 0 0 0 0.000000 0.000000 0.000000 0.000000
-13.563601 -4.114800 -5.943602 0.000000 1.000000 0.000000 1.000000 -0.000000 0.000001 -5.562500 2.437500 0 0 0 0 0.000000 0.000000 0.000000 0.000000
-13.868401 -4.114800 -4.876801 -0.000000 1.000000 0.000000 1.000000 0.000000 0.000000 -5.687500 2.000000 0 0 0 0 0.000000 0.000000 0.000000 0.000000
-13.716001 -4.114800 -5.410202 -0.000000 1.000000 0.000000 1.000000 0.000000 0.000000 -5.625000 2.218750 0 0 0 0 0.000000 0.000000 0.000000 0.000000
-14.096999 -4.114800 -5.029202 -0.000001 1.000000 0.000000 1.000000 0.000001 0.000000 -5.781250 2.062500 0 0 0 0 0.000000 0.000000 0.000000 0.000000
-18.897600 -4.572001 -4.876802 -0.000000 1.000000 0.000000 1.000000 0.000000 0.000000 -7.750000 2.000000 0 0 0 0 0.000000 0.000000 0.000000 0.000000
-17.373600 -4.572001 -4.876802 -0.000000 1.000000 0.000000 1.000000 0.000000 -0.000000 -7.125000 2.000000 0 0 0 0 0.000000 0.000000 0.000000 0.000000
-17.373600 -4.572001 -4.572002 -0.000000 1.000000 0.000000 1.000000 0.000000 -0.000001 -7.125000 1.875000 0 0 0 0 0.000000 0.000000 0.000000 0.000000
-18.745201 -4.572001 -3.543302 -0.000000 1.000000 0.000000 1.000000 0.000000 -0.000000 -7.687500 1.453125 0 0 0 0 0.000000 0.000000 0.000000 0.000000
-23.164799 -4.572001 -4.876802 -0.000000 1.000000 0.000000 1.000000 0.000000 0.000000 -9.500000 2.000000 0 0 0 0 0.000000 0.000000 0.000000 0.000000
-14.630399 -4.114800 -4.572002 -0.164399 0.986394 0.000000 0.986394 0.164399 0.000000 -6.000000 1.875000 0 0 0 0 0.000000 0.000000 0.000000 0.000000
-17.373600 -4.572001 -4.572002 -0.164399 0.986394 0.000000 0.986394 0.164399 0.000000 -7.125000 1.875000 0 0 0 0 0.000000 0.000000 0.000000 0.000000
-15.087600 -4.191000 -4.572002 -0.164399 0.986394 0.000000 0.986394 0.164399 0.000000 -6.187500 1.875000 0 0 0 0 0.000000 0.000000 0.000000 0.000000
-13.258799 -4.114799 -17.373602 -0.000000 1.000000 0.000000 1.000000 0.000000 -0.000000 -5.437500 7.125000 0 0 0 0 0.000000 0.000000 0.000000 0.000000
-12.953999 -4.114798 -17.373602 -0.000000 1.000000 0.000000 1.000000 0.000000 -0.000000 -5.312500 7.125000 0 0 0 0 0.000000 0.000000 0.000000 0.000000
-12.953999 -4.114798 -17.678402 -0.000000 1.000000 0.000000 1.000000 0.000000 0.000000 -5.312500 7.250000 0 0 0 0 0.000000 0.000000 0.000000 0.000000
-13.258799 -4.114798 -17.678402 -0.000000 1.000000 0.000000 0.000000 0.000000 -1.000000 -5.437500 7.250000 0 0 0 0 0.000000 0.000000 0.000000 0.000000
-13.258799 -4.114799 -17.373602 -0.000000 1.000000 0.000000 0.000000 0.000000 -1.000000 -5.437500 7.125000 0 0 0 0 0.000000 0.000000 0.000000 0.000000
-13.258799 -4.114799 -14.249403 -0.000000 1.000000 0.000000 0.000000 0.000000 -1.000000 -5.437500 5.843750 0 0 0 0 0.000000 0.000000 0.000000 0.000000
-14.630398 -4.114799 -14.249403 -0.000000 1.000000 0.000000 1.000000 0.000000 -0.000000 -6.000000 5.843750 0 0 0 0 0.000000 0.000000 0.000000 0.000000
-14.630398 -4.114799 -14.478003 -0.000000 1.000000 0.000000 1.000000 0.000000 0.000000 -6.000000 5.937500 0 0 0 0 0.000000 0.000000 0.000000 0.000000
-14.630398 -4.114799 -14.782803 -0.000000 1.000000 0.000000 1.000000 0.000000 -0.000002 -6.000000 6.062500 0 0 0 0 0.000000 0.000000 0.000000 0.000000
-14.630398 -4.114799 -16.002003 -0.000000 1.000000 0.000000 1.000000 0.000000 0.000001 -6.000000 6.562500 0 0 0 0 0.000000 0.000000 0.000000 0.000000
-14.630398 -4.114799 -16.306803 -0.000000 1.000000 0.000000 1.000000 0.000000 0.000000 -6.000000 6.687500 0 0 0 0 0.000000 0.000000 0.000000 0.000000
-14.630398 -4.114799 -17.678402 -0.000000 1.000000 0.000000 1.000000 0.000000 -0.000000 -6.000000 7.250000 0 0 0 0 0.000000 0.000000 0.000000 0.000000
IndexCount: 927
3 1 0
3 2 1
1 6 5
1 5 4
6 25 24
6 24 23
23 22 6
22 23 128
22 128 127
22 127 126
126 125 22
129 126 134
129 134 133
129 133 132
129 132 131
131 130 129
148 132 133
148 133 147
146 145 132
146 136 145
137 136 135
138 143 137
137 135 138
138 142 141
138 141 140
140 139 138
138 139 144
138 144 143
141 142 178
182 184 141
141 178 182
180 179 178
180 178 177
183 182 180
183 180 181
243 180 177
181 180 243
182 185 184
243 177 242
181 243 249
177 176 175
239 177 175
239 175 237
239 237 241
241 240 239
244 242 239
245 239 240
238 237 236
249 248 247
249 247 246
249 246 251
249 251 250
249 250 181
264 247 248
264 248 261
264 261 260
264 260 263
264 263 262
262 267 264
261 259 260
259 258 253
259 253 257
263 332 259
259 257 331
259 331 330
259 330 329
259 329 263
254 253 252
252 255 254
252 256 255
263 329 333
333 262 263
333 268 262
262 268 267
269 267 274
269 274 273
269 273 272
272 270 269
272 271 270
181 250 266
181 266 265
266 287 286
266 286 265
8 17 5
8 5 21
18 17 8
8 19 18
8 9 19
7 10 9
9 8 7
7 11 10
12 8 16
8 21 20
20 16 8
12 16 15
12 15 14
14 13 12
26 31 30
26 30 29
26 29 28
28 27 26
32 39 38
32 38 37
32 37 36
32 36 35
32 35 34
34 33 32
48 37 38
48 38 51
48 51 50
50 49 48
44 47 35
44 35 46
46 45 44
45 46 152
45 152 151
45 151 150
150 149 45
171 150 151
151 172 171
149 150 159
171 159 150
171 172 203
171 203 202
202 201 171
216 202 203
216 203 219
225 201 202
225 202 220
225 221 201
225 222 221
225 200 222
197 174 200
197 200 199
225 223 200
199 198 197
225 224 223
225 209 224
211 210 209
211 209 208
226 225 220
156 174 173
149 157 156
149 156 155
173 155 156
173 166 167
173 167 155
149 155 154
170 154 155
170 155 167
164 168 167
164 167 166
166 165 164
164 169 168
154 153 149
149 159 158
149 158 157
216 219 93
93 217 216
88 93 92
93 218 217
88 92 77
88 77 78
88 78 91
91 89 88
74 78 77
74 77 76
76 75 74
91 90 89
43 41 40
161 43 40
161 40 160
43 42 41
163 161 160
163 160 162
55 53 52
73 55 52
55 54 53
73 72 55
59 57 56
60 62 56
60 56 57
59 58 57
57 61 60
63 68 67
63 67 66
63 66 65
65 64 63
69 71 63
69 63 64
64 70 69
87 190 70
70 189 188
70 188 187
70 187 186
70 186 87
83 87 86
83 86 81
83 81 82
83 82 85
85 84 83
82 81 80
82 80 79
191 188 196
191 196 195
191 195 194
191 194 193
193 192 191
97 95 94
100 98 94
100 94 95
94 229 228
94 228 227
227 97 94
307 229 94
94 98 310
310 307 94
97 96 95
95 101 100
100 99 98
99 100 112
99 112 111
99 111 110
99 110 108
108 109 99
317 99 109
98 99 321
102 108 107
102 107 106
102 106 105
102 105 104
104 103 102
118 105 117
117 119 118
311 316 118
311 118 119
117 113 119
311 119 315
315 119 113
311 315 314
313 312 311
314 313 311
315 113 338
338 337 315
114 339 338
114 338 113
116 115 114
116 114 113
117 120 113
117 121 120
117 124 123
117 123 122
317 109 316
317 316 320
317 320 319
319 318 317
321 322 310
321 310 98
310 309 308
310 308 307
325 324 310
325 310 323
307 306 305
307 305 229
328 307 326
306 307 328
328 326 327
327 326 324
327 324 325
207 205 204
207 206 205
215 213 212
215 214 213
230 235 234
230 234 233
230 233 232
232 231 230
336 235 230
336 230 334
336 335 235
275 279 278
275 278 277
277 276 275
283 279 275
283 280 279
283 282 281
283 281 280
285 284 276
285 276 277
284 298 297
284 297 296
284 296 295
295 294 284
300 294 295
300 299 294
299 304 303
299 303 302
302 301 299
291 289 288
293 291 288
291 290 289
293 292 291
340 348 347
340 347 346
340 346 345
340 345 344
340 344 343
340 343 342
342 341 340
