VertexCount: 40
0.152402 -4.114797 -19.964399 -0.000000 1.000000 0.000000 0.000000 -0.000000 1.000000 -16.375000 1.000000 0 0 0 0 0.000000 0.000000 0.000000 0.000000
0.152402 -4.114797 -19.812002 -0.000000 1.000000 0.000000 0.000000 -0.000000 1.000000 -16.250000 1.000000 0 0 0 0 0.000000 0.000000 0.000000 0.000000
-0.152398 -4.114797 -19.812002 -0.000000 1.000000 0.000000 -0.000000 -0.000000 1.000000 -16.250000 0.000000 0 0 0 0 0.000000 0.000000 0.000000 0.000000
-0.152398 -4.114797 -19.964399 -0.000000 1.000000 0.000000 0.000000 -0.000000 1.000000 -16.375000 0.000000 0 0 0 0 0.000000 0.000000 0.000000 0.000000
0.152402 -4.114796 -22.250401 -0.000000 1.000000 0.000000 0.000000 -0.000000 1.000000 -18.250000 1.000000 0 0 0 0 0.000000 0.000000 0.000000 0.000000
0.152402 -4.114796 -22.098000 -0.000000 1.000000 0.000000 0.000000 -0.000000 1.000000 -18.125000 1.000000 0 0 0 0 0.000000 0.000000 0.000000 0.000000
-0.152398 -4.114796 -22.098000 -0.000000 1.000000 0.000000 -0.000000 -0.000000 1.000000 -18.125000 0.000000 0 0 0 0 0.000000 0.000000 0.000000 0.000000
-0.152398 -4.114796 -22.250401 -0.000000 1.000000 0.000000 0.000000 -0.000000 1.000000 -18.250000 0.000000 0 0 0 0 0.000000 0.000000 0.000000 0.000000
0.152402 -4.114797 -20.269199 0.000000 1.000000 0.000000 -0.000000 -0.000000 1.000000 -16.625000 1.000000 0 0 0 0 0.000000 0.000000 0.000000 0.000000
-0.152398 -4.114797 -20.269199 0.000000 1.000000 0.000000 -0.000000 -0.000000 1.000000 -16.625000 0.000000 0 0 0 0 0.000000 0.000000 0.000000 0.000000
-0.152398 -4.114797 -20.421600 0.000000 1.000000 0.000000 -0.000000 -0.000000 1.000000 -16.750000 0.000000 0 0 0 0 0.000000 0.000000 0.000000 0.000000
-0.152398 -4.114796 -21.640800 0.000000 1.000000 0.000000 -0.000000 -0.000000 1.000000 -17.750000 0.000000 0 0 0 0 0.000000 0.000000 0.000000 0.000000
-0.152398 -4.114796 -21.793200 0.000000 1.000000 0.000000 -0.000000 -0.000000 1.000000 -17.875000 0.000000 0 0 0 0 0.000000 0.000000 0.000000 0.000000
0.152402 -4.114796 -21.793200 0.000000 1.000000 0.000000 -0.000000 -0.000000 1.000000 -17.875000 1.000000 0 0 0 0 0.000000 0.000000 0.000000 0.000000
-10.515599 -4.114798 -17.678402 -0.000000 1.000000 0.000000 1.000000 0.000000 0.000000 -8.625000 58.000000 0 0 0 0 0.000000 0.000000 0.000000 0.000000
-10.629898 -4.114798 -17.678402 -0.000000 1.000000 0.000000 1.000000 0.000000 0.000000 -8.718750 58.000000 0 0 0 0 0.000000 0.000000 0.000000 0.000000
-10.629898 -4.114798 -17.983202 -0.000000 1.000000 0.000000 1.000000 0.000000 -0.000000 -8.718750 59.000000 0 0 0 0 0.000000 0.000000 0.000000 0.000000
-10.515599 -4.114798 -17.983202 -0.000000 1.000000 0.000000 1.000000 0.000000 0.000000 -8.625000 59.000000 0 0 0 0 0.000000 0.000000 0.000000 0.000000
-17.373600 -4.572003 7.010398 -0.000000 1.000000 0.000000 -0.000004 -0.000000 1.000000 5.750000 -57.000000 0 0 0 0 0.000000 0.000000 0.000000 0.000000
-17.678400 -4.572003 7.010398 -0.000000 1.000000 0.000000 -0.000004 -0.000000 1.000000 5.750000 -58.000000 0 0 0 0 0.000000 0.000000 0.000000 0.000000
-17.678400 -4.572003 6.705597 -0.000000 1.000000 0.000000 -0.000003 -0.000000 1.000000 5.500000 -58.000000 0 0 0 0 0.000000 0.000000 0.000000 0.000000
-17.678400 -4.572002 5.486398 -0.000000 1.000000 0.000000 -0.000000 -0.000000 1.000000 4.500000 -58.000000 0 0 0 0 0.000000 0.000000 0.000000 0.000000
-17.678400 -4.572002 5.181598 -0.000000 1.000000 0.000000 0.000000 -0.000000 1.000000 4.250000 -58.000000 0 0 0 0 0.000000 0.000000 0.000000 0.000000
-17.373600 -4.572002 5.181598 -0.000000 1.000000 0.000000 -0.000001 -0.000000 1.000000 4.250000 -57.000000 0 0 0 0 0.000000 0.000000 0.000000 0.000000
-17.373600 -4.572003 6.934198 -0.000000 1.000000 0.000000 0.000001 0.000000 -1.000000 5.687500 -57.000000 0 0 0 0 0.000000 0.000000 0.000000 0.000000
-17.983200 -4.572003 6.705597 -0.000000 1.000000 0.000000 -0.000000 -0.000000 1.000000 5.500000 -59.000000 0 0 0 0 0.000000 0.000000 0.000000 0.000000
-17.983200 -4.572002 5.486398 -0.000000 1.000000 0.000000 -0.000000 -0.000000 1.000000 4.500000 -59.000000 0 0 0 0 0.000000 0.000000 0.000000 0.000000
-18.288000 -4.572002 5.094158 0.000000 1.000000 0.000000 0.000000 -0.000000 1.000000 4.178281 -60.000000 0 0 0 0 0.000000 0.000000 0.000000 0.000000
-17.983200 -4.572002 5.183884 0.000000 1.000000 0.000000 0.000000 -0.000000 1.000000 4.251875 -59.000000 0 0 0 0 0.000000 0.000000 0.000000 0.000000
-17.983202 -4.572003 7.008112 0.000000 1.000000 0.000000 -0.000004 -0.000000 1.000000 5.748125 -59.000000 0 0 0 0 0.000000 0.000000 0.000000 0.000000
-18.288002 -4.572003 7.097837 0.000000 1.000000 0.000000 -0.000005 -0.000000 1.000000 5.821719 -60.000000 0 0 0 0 0.000000 0.000000 0.000000 0.000000
-18.288000 -4.572003 6.848472 0.000000 1.000000 0.000000 0.000000 -0.000000 1.000000 5.617188 -60.000000 0 0 0 0 0.000000 0.000000 0.000000 0.000000
-32.156399 -5.486403 4.876796 -0.000000 1.000000 0.000000 -0.000000 -0.000000 1.000000 4.000000 -105.000000 0 0 0 0 0.000000 0.000000 0.000000 0.000000
-32.156399 -5.486404 7.315196 -0.000000 1.000000 0.000000 -0.000000 -0.000000 1.000000 6.000000 -105.000000 0 0 0 0 0.000000 0.000000 0.000000 0.000000
-32.461201 -5.486404 7.315196 -0.000000 1.000000 0.000000 -0.000000 -0.000000 1.000000 6.000000 -106.000000 0 0 0 0 0.000000 0.000000 0.000000 0.000000
-32.461201 -5.486403 4.876796 -0.000000 1.000000 0.000000 -0.000000 -0.000000 1.000000 4.000000 -106.000000 0 0 0 0 0.000000 0.000000 0.000000 0.000000
-12.953999 -4.114798 -17.678402 -0.000000 1.000000 0.000000 1.000000 0.000000 0.000000 -10.625000 58.000000 0 0 0 0 0.000000 0.000000 0.000000 0.000000
-12.953999 -4.114798 -17.983202 -0.000000 1.000000 0.000000 1.000000 0.000000 0.000000 -10.625000 59.000000 0 0 0 0 0.000000 0.000000 0.000000 0.000000
-12.344399 -4.114798 -17.983202 -0.000000 1.000000 0.000000 1.000000 0.000000 0.000000 -10.125000 59.000000 0 0 0 0 0.000000 0.000000 0.000000 0.000000
-11.125198 -4.114798 -17.983202 -0.000000 1.000000 0.000000 1.000000 0.000000 0.000000 -9.125000 59.000000 0 0 0 0 0.000000 0.000000 0.000000 0.000000
IndexCount: 84
3 1 0
3 2 1
7 5 4
7 6 5
8 13 12
8 12 11
8 11 10
10 9 8
17 15 14
17 16 15
15 16 39
15 39 38
15 38 37
37 36 15
18 24 23
18 23 22
18 22 21
18 21 20
20 19 18
26 20 21
26 25 20
31 25 26
31 26 28
31 29 25
31 30 29
31 28 27
35 33 32
35 34 33
