VertexCount: 82
-9.448801 -3.352803 11.125198 0.000000 0.707106 -0.707107 1.000000 -0.000000 0.000000 -30.625000 -35.500000 0 0 0 0 0.000000 0.000000 0.000000 0.000000
-9.601201 -3.352803 11.125198 0.000000 0.707106 -0.707107 1.000000 -0.000000 0.000000 -31.125000 -35.500000 0 0 0 0 0.000000 0.000000 0.000000 0.000000
-9.601200 -3.810002 10.667997 0.000000 0.707106 -0.707107 1.000000 -0.000000 0.000000 -31.125000 -34.000000 0 0 0 0 0.000000 0.000000 0.000000 0.000000
-9.448800 -3.810002 10.667997 0.000000 0.707106 -0.707107 1.000000 -0.000000 0.000000 -30.625000 -34.000000 0 0 0 0 0.000000 0.000000 0.000000 0.000000
-9.448800 -3.810002 10.667997 -0.000000 0.948683 -0.316228 1.000000 0.000000 -0.000000 -30.625000 -34.000000 0 0 0 0 0.000000 0.000000 0.000000 0.000000
-9.601200 -3.810002 10.667997 -0.000000 0.948683 -0.316228 1.000000 0.000000 -0.000000 -31.125000 -34.000000 0 0 0 0 0.000000 0.000000 0.000000 0.000000
-9.601200 -3.962402 10.210798 -0.000000 0.948683 -0.316228 1.000000 0.000000 -0.000000 -31.125000 -32.500000 0 0 0 0 0.000000 0.000000 0.000000 0.000000
-9.448800 -3.962402 10.210798 -0.000000 0.948683 -0.316228 1.000000 0.000000 -0.000000 -30.625000 -32.500000 0 0 0 0 0.000000 0.000000 0.000000 0.000000
-9.601200 -4.114802 10.210798 0.000000 -1.000000 -0.000000 1.000000 0.000000 0.000001 -31.125000 -32.500000 0 0 0 0 0.000000 0.000000 0.000000 0.000000
-10.629901 -4.114802 10.210798 0.000000 -1.000000 -0.000000 1.000000 0.000000 0.000001 -34.500000 -32.500000 0 0 0 0 0.000000 0.000000 0.000000 0.000000
-10.629901 -4.114803 10.667997 0.000000 -1.000000 -0.000000 1.000000 0.000000 -0.000000 -34.500000 -34.000000 0 0 0 0 0.000000 0.000000 0.000000 0.000000
-9.601200 -4.114802 10.667997 0.000000 -1.000000 -0.000000 1.000000 0.000000 0.000001 -31.125000 -34.000000 0 0 0 0 0.000000 0.000000 0.000000 0.000000
-10.629901 -4.114802 10.210798 0.000000 0.000000 -1.000000 1.000000 0.000000 0.000000 -34.500000 14.500000 0 0 0 0 0.000000 0.000000 0.000000 0.000000
-9.601200 -4.114802 10.210798 0.000000 0.000000 -1.000000 1.000000 0.000000 0.000000 -31.125000 14.500000 0 0 0 0 0.000000 0.000000 0.000000 0.000000
-9.601200 -3.962402 10.210798 0.000000 0.000000 -1.000000 1.000000 0.000000 0.000000 -31.125000 14.000000 0 0 0 0 0.000000 0.000000 0.000000 0.000000
-10.629901 -3.962402 10.210798 0.000000 0.000000 -1.000000 1.000000 0.000000 0.000000 -34.500000 14.000000 0 0 0 0 0.000000 0.000000 0.000000 0.000000
-6.858000 -3.962402 7.296148 -1.000000 -0.000000 -0.000000 -0.000000 -0.000000 1.000000 24.312500 14.000000 0 0 0 0 0.000000 0.000000 0.000000 0.000000
-6.858000 -3.962402 7.467599 -1.000000 -0.000000 -0.000000 -0.000000 -0.000000 1.000000 24.875000 14.000000 0 0 0 0 0.000000 0.000000 0.000000 0.000000
-6.858000 -4.038601 7.467599 -1.000000 -0.000000 -0.000000 -0.000000 -0.000000 1.000000 24.875000 14.250000 0 0 0 0 0.000000 0.000000 0.000000 0.000000
-6.858000 -4.038601 7.296148 -1.000000 -0.000000 -0.000000 -0.000000 -0.000000 1.000000 24.312500 14.250000 0 0 0 0 0.000000 0.000000 0.000000 0.000000
-5.943601 -3.352802 7.467599 -0.707107 0.707107 0.000000 0.707107 0.707107 -0.000000 -19.125000 -23.500000 0 0 0 0 0.000000 0.000000 0.000000 0.000000
-5.943601 -3.352802 7.619998 -0.707107 0.707107 0.000000 0.707107 0.707107 -0.000000 -19.125000 -24.000000 0 0 0 0 0.000000 0.000000 0.000000 0.000000
-6.400800 -3.810002 7.619998 -0.707107 0.707107 0.000000 0.707107 0.707107 -0.000000 -20.625000 -24.000000 0 0 0 0 0.000000 0.000000 0.000000 0.000000
-6.400800 -3.810002 7.467599 -0.707107 0.707107 0.000000 0.707107 0.707107 -0.000000 -20.625000 -23.500000 0 0 0 0 0.000000 0.000000 0.000000 0.000000
-5.943600 -3.962402 7.296148 0.000000 -1.000000 -0.000000 1.000000 0.000000 0.000000 -19.125000 -22.937500 0 0 0 0 0.000000 0.000000 0.000000 0.000000
-6.248400 -3.962402 7.296148 0.000000 -1.000000 -0.000000 1.000000 -0.000000 -0.000000 -20.125000 -22.937500 0 0 0 0 0.000000 0.000000 0.000000 0.000000
-6.248400 -3.962402 7.467599 0.000000 -1.000000 -0.000000 1.000000 0.000000 0.000000 -20.125000 -23.500000 0 0 0 0 0.000000 0.000000 0.000000 0.000000
-5.943600 -3.962402 7.467599 0.000000 -1.000000 -0.000000 1.000000 0.000000 0.000000 -19.125000 -23.500000 0 0 0 0 0.000000 0.000000 0.000000 0.000000
-6.400800 -3.810002 7.467599 -0.316227 0.948684 0.000000 0.948684 0.316227 -0.000000 -20.625000 -23.500000 0 0 0 0 0.000000 0.000000 0.000000 0.000000
-6.400800 -3.810002 7.619998 -0.316227 0.948684 0.000000 0.948684 0.316227 -0.000000 -20.625000 -24.000000 0 0 0 0 0.000000 0.000000 0.000000 0.000000
-6.858000 -3.962402 7.619998 -0.316227 0.948684 0.000000 0.948684 0.316227 -0.000000 -22.125000 -24.000000 0 0 0 0 0.000000 0.000000 0.000000 0.000000
-6.858000 -3.962402 7.467599 -0.316227 0.948684 0.000000 0.948684 0.316227 -0.000000 -22.125000 -23.500000 0 0 0 0 0.000000 0.000000 0.000000 0.000000
-6.400800 -4.038601 7.296148 0.000000 -1.000000 -0.000000 1.000000 0.000000 0.000000 -20.625000 -22.937500 0 0 0 0 0.000000 0.000000 0.000000 0.000000
-6.858000 -4.038601 7.296148 0.000000 -1.000000 -0.000000 1.000000 0.000000 0.000000 -22.125000 -22.937500 0 0 0 0 0.000000 0.000000 0.000000 0.000000
-6.858000 -4.038601 7.467599 0.000000 -1.000000 -0.000000 1.000000 0.000000 0.000000 -22.125000 -23.500000 0 0 0 0 0.000000 0.000000 0.000000 0.000000
-6.400800 -4.038601 7.467599 0.000000 -1.000000 -0.000000 1.000000 0.000000 0.000000 -20.625000 -23.500000 0 0 0 0 0.000000 0.000000 0.000000 0.000000
-6.858000 -3.962401 2.895599 -1.000000 -0.000000 -0.000000 0.000000 0.000000 -1.000000 9.875000 14.000000 0 0 0 0 0.000000 0.000000 0.000000 0.000000
-6.858000 -3.962401 3.882389 -1.000000 -0.000000 -0.000000 0.000000 0.000000 -1.000000 13.112500 14.000000 0 0 0 0 0.000000 0.000000 0.000000 0.000000
-6.858000 -3.962402 7.296148 -1.000000 -0.000000 -0.000000 0.000000 0.000000 -1.000000 24.312500 14.000000 0 0 0 0 0.000000 0.000000 0.000000 0.000000
-6.858000 -4.038601 2.895599 -1.000000 -0.000000 -0.000000 -0.000000 -0.000000 1.000000 9.875000 14.250000 0 0 0 0 0.000000 0.000000 0.000000 0.000000
-5.791200 -3.962401 5.600699 0.000000 -1.000000 -0.000000 1.000000 0.000000 0.000000 -18.625000 -17.375000 0 0 0 0 0.000000 0.000000 0.000000 0.000000
-5.943600 -3.962401 5.600699 0.000000 -1.000000 -0.000000 1.000000 0.000000 0.000000 -19.125000 -17.375000 0 0 0 0 0.000000 0.000000 0.000000 0.000000
-5.943600 -3.962401 7.010399 0.000000 -1.000000 -0.000000 1.000000 0.000000 0.000000 -19.125000 -22.000000 0 0 0 0 0.000000 0.000000 0.000000 0.000000
-5.791200 -3.962401 7.010399 0.000000 -1.000000 -0.000000 1.000000 0.000000 0.000000 -18.625000 -22.000000 0 0 0 0 0.000000 0.000000 0.000000 0.000000
-5.943600 -3.962402 7.296148 -0.000001 -1.000000 -0.000000 0.000000 -0.000000 1.000000 -19.125000 -22.937500 0 0 0 0 0.000000 0.000000 0.000000 0.000000
-5.943600 -3.962401 7.010399 -0.000001 -1.000000 -0.000000 0.000000 -0.000000 1.000000 -19.125000 -22.000000 0 0 0 0 0.000000 0.000000 0.000000 0.000000
-5.943600 -3.962401 5.600699 -0.000001 -1.000000 -0.000000 0.000000 -0.000000 1.000000 -19.125000 -17.375000 0 0 0 0 0.000000 0.000000 0.000000 0.000000
-5.943600 -3.962401 4.952999 -0.000001 -1.000000 -0.000000 -0.000000 -0.000000 1.000000 -19.125000 -15.250000 0 0 0 0 0.000000 0.000000 0.000000 0.000000
-5.943600 -3.962401 3.581399 -0.000001 -1.000000 -0.000000 -0.000000 -0.000000 1.000000 -19.125000 -10.750000 0 0 0 0 0.000000 0.000000 0.000000 0.000000
-5.943600 -3.962401 2.895599 -0.000001 -1.000000 -0.000000 1.000000 -0.000001 -0.000000 -19.125000 -8.500000 0 0 0 0 0.000000 0.000000 0.000000 0.000000
-6.248400 -3.962401 2.895599 -0.000001 -1.000000 -0.000000 1.000000 -0.000001 -0.000000 -20.125000 -8.500000 0 0 0 0 0.000000 0.000000 0.000000 0.000000
-6.400799 -4.038600 2.895599 0.000000 -1.000000 -0.000000 1.000000 0.000000 0.000000 -20.625000 -8.500000 0 0 0 0 0.000000 0.000000 0.000000 0.000000
-6.858000 -4.038601 2.895599 0.000000 -1.000000 -0.000000 1.000000 0.000000 -0.000000 -22.125000 -8.500000 0 0 0 0 0.000000 0.000000 0.000000 0.000000
-6.400799 -3.810001 2.743199 -0.316227 0.948684 0.000000 0.948684 0.316227 -0.000000 -20.625000 -8.000000 0 0 0 0 0.000000 0.000000 0.000000 0.000000
-6.400799 -3.810001 2.895599 -0.316227 0.948684 0.000000 0.948684 0.316227 -0.000000 -20.625000 -8.500000 0 0 0 0 0.000000 0.000000 0.000000 0.000000
-6.858000 -3.962401 2.895599 -0.316227 0.948684 0.000000 0.948684 0.316227 -0.000000 -22.125000 -8.500000 0 0 0 0 0.000000 0.000000 0.000000 0.000000
-6.858000 -3.962401 2.743199 -0.316227 0.948684 0.000000 0.948684 0.316227 -0.000000 -22.125000 -8.000000 0 0 0 0 0.000000 0.000000 0.000000 0.000000
-5.943600 -3.352801 2.743199 -0.707107 0.707107 0.000000 0.707107 0.707107 -0.000000 -19.125000 -8.000000 0 0 0 0 0.000000 0.000000 0.000000 0.000000
-5.943600 -3.352801 2.895599 -0.707107 0.707107 0.000000 0.707107 0.707107 -0.000000 -19.125000 -8.500000 0 0 0 0 0.000000 0.000000 0.000000 0.000000
-6.400799 -3.810001 2.895599 -0.707107 0.707107 0.000000 0.707107 0.707107 -0.000000 -20.625000 -8.500000 0 0 0 0 0.000000 0.000000 0.000000 0.000000
-6.400799 -3.810001 2.743199 -0.707107 0.707107 0.000000 0.707107 0.707107 -0.000000 -20.625000 -8.000000 0 0 0 0 0.000000 0.000000 0.000000 0.000000
-11.430001 -4.114803 10.210798 0.000000 0.000000 -1.000000 1.000000 0.000000 0.000000 -37.125000 14.500000 0 0 0 0 0.000000 0.000000 0.000000 0.000000
-11.430001 -3.962403 10.210798 0.000000 0.000000 -1.000000 1.000000 0.000000 0.000000 -37.125000 14.000000 0 0 0 0 0.000000 0.000000 0.000000 0.000000
-13.487401 -3.962403 10.210798 0.000000 -0.000000 -1.000000 1.000000 0.000000 0.000000 -43.875000 14.000000 0 0 0 0 0.000000 0.000000 0.000000 0.000000
-13.868402 -3.962403 10.210798 0.000000 -0.000000 -1.000000 1.000000 0.000000 0.000000 -45.125000 14.000000 0 0 0 0 0.000000 0.000000 0.000000 0.000000
-15.697201 -3.962403 10.210798 0.000000 -0.000000 -1.000000 1.000000 0.000000 0.000000 -51.125000 14.000000 0 0 0 0 0.000000 0.000000 0.000000 0.000000
-15.697201 -4.114803 10.210798 0.000000 -0.000000 -1.000000 1.000000 0.000000 0.000000 -51.125000 14.500000 0 0 0 0 0.000000 0.000000 0.000000 0.000000
-13.868402 -4.114803 10.210798 0.000000 -0.000000 -1.000000 1.000000 0.000000 0.000000 -45.125000 14.500000 0 0 0 0 0.000000 0.000000 0.000000 0.000000
-13.487401 -4.114803 10.210798 0.000000 -0.000000 -1.000000 -1.000000 -0.000000 -0.000000 -43.875000 14.500000 0 0 0 0 0.000000 0.000000 0.000000 0.000000
-15.697201 -3.352803 11.125198 0.000000 0.707106 -0.707107 1.000000 -0.000000 0.000000 -51.125000 -35.500000 0 0 0 0 0.000000 0.000000 0.000000 0.000000
-15.849601 -3.352803 11.125198 0.000000 0.707106 -0.707107 1.000000 -0.000000 0.000000 -51.625000 -35.500000 0 0 0 0 0.000000 0.000000 0.000000 0.000000
-15.849601 -3.810003 10.667997 0.000000 0.707106 -0.707107 1.000000 -0.000000 0.000000 -51.625000 -34.000000 0 0 0 0 0.000000 0.000000 0.000000 0.000000
-15.697201 -3.810003 10.667997 0.000000 0.707106 -0.707107 1.000000 -0.000000 0.000000 -51.125000 -34.000000 0 0 0 0 0.000000 0.000000 0.000000 0.000000
-10.629901 -4.114802 10.210798 0.000000 -1.000000 -0.000000 1.000000 0.000000 -0.000000 -34.500000 -32.500000 0 0 0 0 0.000000 0.000000 0.000000 0.000000
-11.430001 -4.114803 10.210798 0.000000 -1.000000 -0.000000 1.000000 0.000000 -0.000000 -37.125000 -32.500000 0 0 0 0 0.000000 0.000000 0.000000 0.000000
-13.487401 -4.114803 10.210798 0.000000 -1.000000 -0.000000 1.000000 0.000000 -0.000000 -43.875000 -32.500000 0 0 0 0 0.000000 0.000000 0.000000 0.000000
-13.487401 -4.114803 10.667997 0.000000 -1.000000 -0.000000 1.000000 0.000000 -0.000000 -43.875000 -34.000000 0 0 0 0 0.000000 0.000000 0.000000 0.000000
-11.430001 -4.114803 10.667997 0.000000 -1.000000 -0.000000 1.000000 0.000000 -0.000000 -37.125000 -34.000000 0 0 0 0 0.000000 0.000000 0.000000 0.000000
-15.697201 -3.810003 10.667997 -0.000000 0.948683 -0.316228 1.000000 0.000000 -0.000000 -51.125000 -34.000000 0 0 0 0 0.000000 0.000000 0.000000 0.000000
-15.849601 -3.810003 10.667997 -0.000000 0.948683 -0.316228 1.000000 0.000000 -0.000000 -51.625000 -34.000000 0 0 0 0 0.000000 0.000000 0.000000 0.000000
-15.849601 -3.962403 10.210798 -0.000000 0.948683 -0.316228 1.000000 0.000000 -0.000000 -51.625000 -32.500000 0 0 0 0 0.000000 0.000000 0.000000 0.000000
-15.697201 -3.962403 10.210798 -0.000000 0.948683 -0.316228 1.000000 0.000000 -0.000000 -51.125000 -32.500000 0 0 0 0 0.000000 0.000000 0.000000 0.000000
IndexCount: 147
3 1 0
3 2 1
7 5 4
7 6 5
11 9 8
11 10 9
73 10 77
73 77 76
73 76 75
75 74 73
15 13 12
62 15 12
62 12 61
15 14 13
61 68 67
67 62 61
67 63 62
67 66 65
67 65 64
67 64 63
19 17 16
19 18 17
36 39 19
36 19 38
38 37 36
23 21 20
23 22 21
27 25 24
27 26 25
44 25 50
44 50 49
46 45 44
48 47 46
31 29 28
31 30 29
35 33 32
33 51 32
35 34 33
33 52 51
43 41 40
43 42 41
56 54 53
56 55 54
60 58 57
60 59 58
72 70 69
72 71 70
81 79 78
81 80 79
