VertexCount: 120
5.638799 -1.066801 7.543800 1.000000 0.000000 0.000000 -0.000000 -0.000000 1.000000 1.411458 1.078125 0 0 0 0 0.000000 0.000000 0.000000 0.000000
5.638799 -1.066801 7.315200 1.000000 0.000000 0.000000 -0.000000 -0.000000 1.000000 1.348958 1.078125 0 0 0 0 0.000000 0.000000 0.000000 0.000000
5.638799 -2.133601 7.315199 1.000000 0.000000 0.000000 -0.000000 -0.000000 1.000000 1.348958 1.953125 0 0 0 0 0.000000 0.000000 0.000000 0.000000
5.638799 -2.133601 7.543800 1.000000 0.000000 0.000000 -0.000000 -0.000000 1.000000 1.411458 1.953125 0 0 0 0 0.000000 0.000000 0.000000 0.000000
6.248400 -2.133600 7.315199 -1.000000 -0.000000 -0.000000 -0.000000 -0.000000 1.000000 1.348958 1.953125 0 0 0 0 0.000000 0.000000 0.000000 0.000000
6.248400 -1.066801 7.315200 -1.000000 -0.000000 -0.000000 -0.000000 -0.000000 1.000000 1.348958 1.078125 0 0 0 0 0.000000 0.000000 0.000000 0.000000
6.248400 -1.066801 7.543800 -1.000000 -0.000000 -0.000000 -0.000000 -0.000000 1.000000 1.411458 1.078125 0 0 0 0 0.000000 0.000000 0.000000 0.000000
6.248400 -2.133600 7.543800 -1.000000 -0.000000 -0.000000 -0.000000 -0.000000 1.000000 1.411458 1.953125 0 0 0 0 0.000000 0.000000 0.000000 0.000000
5.638799 -1.066800 4.495800 1.000000 0.000000 0.000000 -0.000000 -0.000000 1.000000 0.578125 1.078125 0 0 0 0 0.000000 0.000000 0.000000 0.000000
5.638799 -2.133600 4.495800 1.000000 0.000000 0.000000 -0.000000 -0.000000 1.000000 0.578125 1.953125 0 0 0 0 0.000000 0.000000 0.000000 0.000000
6.248400 -2.133600 4.495800 -1.000000 -0.000000 -0.000000 -0.000000 -0.000000 1.000000 0.578125 1.953125 0 0 0 0 0.000000 0.000000 0.000000 0.000000
6.248400 -1.066800 4.495800 -1.000000 -0.000000 -0.000000 -0.000000 -0.000000 1.000000 0.578125 1.078125 0 0 0 0 0.000000 0.000000 0.000000 0.000000
-12.801599 1.066801 -11.887202 1.000000 0.000000 0.000001 -0.000000 1.000000 -0.000000 0.411458 -9.359375 0 0 0 0 0.000000 0.000000 0.000000 0.000000
-12.801599 1.066801 -12.192001 1.000000 0.000000 0.000001 -0.000000 1.000000 -0.000000 0.411458 -9.609375 0 0 0 0 0.000000 0.000000 0.000000 0.000000
-12.801599 0.685801 -12.192001 1.000000 0.000000 0.000001 -0.000000 1.000000 -0.000000 0.307292 -9.609375 0 0 0 0 0.000000 0.000000 0.000000 0.000000
-12.801599 0.685801 -11.887202 1.000000 0.000000 0.000001 -0.000000 1.000000 -0.000000 0.307292 -9.359375 0 0 0 0 0.000000 0.000000 0.000000 0.000000
-12.801599 0.838201 -11.887202 1.000000 0.000000 0.000001 0.000000 -1.000000 0.000000 0.348958 -9.359375 0 0 0 0 0.000000 0.000000 0.000000 0.000000
-12.801599 1.066801 -11.887202 -0.000000 1.000000 0.000000 0.000000 -0.000000 1.000000 -3.130208 -10.109375 0 0 0 0 0.000000 0.000000 0.000000 0.000000
-13.411199 1.066801 -11.887202 -0.000000 1.000000 0.000000 0.000000 -0.000000 1.000000 -3.130208 -10.609375 0 0 0 0 0.000000 0.000000 0.000000 0.000000
-13.411199 1.066801 -12.192001 -0.000000 1.000000 0.000000 -0.000000 -0.000000 1.000000 -3.213542 -10.609375 0 0 0 0 0.000000 0.000000 0.000000 0.000000
-12.801599 1.066801 -12.192001 -0.000000 1.000000 0.000000 0.000000 -0.000000 1.000000 -3.213542 -10.109375 0 0 0 0 0.000000 0.000000 0.000000 0.000000
-13.411199 0.685801 -11.887202 0.000000 -1.000000 -0.000000 -1.000000 -0.000000 0.000000 -3.130208 -10.609375 0 0 0 0 0.000000 0.000000 0.000000 0.000000
-13.296898 0.685801 -11.887202 0.000000 -1.000000 -0.000000 -1.000000 -0.000000 0.000000 -3.130208 -10.515625 0 0 0 0 0.000000 0.000000 0.000000 0.000000
-12.801599 0.685801 -11.887202 0.000000 -1.000000 -0.000000 -1.000000 -0.000000 0.000000 -3.130208 -10.109375 0 0 0 0 0.000000 0.000000 0.000000 0.000000
-12.801599 0.685801 -12.192001 0.000000 -1.000000 -0.000000 0.000000 -0.000000 1.000000 -3.213542 -10.109375 0 0 0 0 0.000000 0.000000 0.000000 0.000000
-13.411199 0.685801 -12.192001 0.000000 -1.000000 -0.000000 -0.000000 -0.000000 1.000000 -3.213542 -10.609375 0 0 0 0 0.000000 0.000000 0.000000 0.000000
-13.411199 0.838201 -11.887202 -0.000000 -0.000000 1.000000 -0.000000 1.000000 0.000000 0.348958 -10.609375 0 0 0 0 0.000000 0.000000 0.000000 0.000000
-13.411199 1.066801 -11.887202 -0.000000 -0.000000 1.000000 -0.000000 1.000000 0.000000 0.411458 -10.609375 0 0 0 0 0.000000 0.000000 0.000000 0.000000
-12.801599 1.066801 -11.887202 -0.000000 -0.000000 1.000000 -0.000000 1.000000 0.000000 0.411458 -10.109375 0 0 0 0 0.000000 0.000000 0.000000 0.000000
-12.801599 0.838201 -11.887202 -0.000000 -0.000000 1.000000 -0.000000 1.000000 0.000000 0.348958 -10.109375 0 0 0 0 0.000000 0.000000 0.000000 0.000000
-13.296898 0.838201 -11.887202 -0.000000 -0.000000 1.000000 1.000000 0.000000 0.000000 0.348958 -10.515625 0 0 0 0 0.000000 0.000000 0.000000 0.000000
-13.334998 0.838201 -11.887202 -0.000000 -0.000000 1.000000 1.000000 -0.000000 0.000000 0.348958 -10.546875 0 0 0 0 0.000000 0.000000 0.000000 0.000000
-13.296898 0.838201 -11.887202 -0.000000 -0.000000 1.000000 -0.000000 1.000000 0.000000 0.348958 -10.515625 0 0 0 0 0.000000 0.000000 0.000000 0.000000
-12.801599 0.685801 -11.887202 -0.000000 -0.000000 1.000000 -0.000000 1.000000 0.000000 0.307292 -10.109375 0 0 0 0 0.000000 0.000000 0.000000 0.000000
-13.296898 0.685801 -11.887202 -0.000000 -0.000000 1.000000 -0.000000 1.000000 0.000000 0.307292 -10.515625 0 0 0 0 0.000000 0.000000 0.000000 0.000000
-13.296898 0.800101 -11.887202 -0.000000 -0.000000 1.000000 0.000000 -1.000000 -0.000000 0.338542 -10.515625 0 0 0 0 0.000000 0.000000 0.000000 0.000000
-13.411199 0.800101 -11.887202 -0.000000 -0.000000 1.000000 -1.000000 0.000000 -0.000000 0.338542 -10.609375 0 0 0 0 0.000000 0.000000 0.000000 0.000000
-13.334998 0.800101 -11.887202 -0.000000 -0.000000 1.000000 -1.000000 0.000000 -0.000000 0.338542 -10.546875 0 0 0 0 0.000000 0.000000 0.000000 0.000000
-13.296898 0.800101 -11.887202 -0.000000 -0.000000 1.000000 -1.000000 0.000000 -0.000000 0.338542 -10.515625 0 0 0 0 0.000000 0.000000 0.000000 0.000000
-13.411199 0.685801 -11.887202 -0.000000 -0.000000 1.000000 -0.000000 1.000000 0.000000 0.307292 -10.609375 0 0 0 0 0.000000 0.000000 0.000000 0.000000
-13.334998 0.800101 -11.887202 -0.000000 -0.000000 1.000000 -0.000000 1.000000 0.000000 0.338542 -10.546875 0 0 0 0 0.000000 0.000000 0.000000 0.000000
-13.411199 0.800101 -11.887202 -0.000000 -0.000000 1.000000 -0.000000 1.000000 0.000000 0.338542 -10.609375 0 0 0 0 0.000000 0.000000 0.000000 0.000000
-13.334998 0.838201 -11.887202 -0.000000 -0.000000 1.000000 -0.000000 1.000000 0.000000 0.348958 -10.546875 0 0 0 0 0.000000 0.000000 0.000000 0.000000
-12.039599 -1.333498 -17.068800 0.000000 -1.000000 -0.000000 0.000000 -0.000000 1.000000 -3.791667 -9.625000 0 0 0 0 0.000000 0.000000 0.000000 0.000000
-11.429998 -1.333498 -17.068800 0.000000 -1.000000 -0.000000 0.000000 -0.000000 1.000000 -3.791667 -9.125000 0 0 0 0 0.000000 0.000000 0.000000 0.000000
-11.429998 -1.333498 -17.370173 0.000000 -1.000000 -0.000000 0.000000 -0.000000 1.000000 -3.874063 -9.125000 0 0 0 0 0.000000 0.000000 0.000000 0.000000
-11.429998 -1.333498 -17.373600 0.000000 -1.000000 -0.000000 0.000000 -0.000000 1.000000 -3.875000 -9.125000 0 0 0 0 0.000000 0.000000 0.000000 0.000000
-12.039599 -1.333498 -17.373600 0.000000 -1.000000 -0.000000 -0.000000 -0.000000 1.000000 -3.875000 -9.625000 0 0 0 0 0.000000 0.000000 0.000000 0.000000
-12.039599 -1.333498 -17.370173 0.000000 -1.000000 -0.000000 0.000000 0.000000 -1.000000 -3.874063 -9.625000 0 0 0 0 0.000000 0.000000 0.000000 0.000000
-12.039599 -1.123948 -17.087851 -1.000000 -0.000000 -0.000083 -0.000000 1.000000 -0.000000 -0.182292 -13.515625 0 0 0 0 0.000000 0.000000 0.000000 0.000000
-12.039599 -1.054035 -17.068800 -1.000000 -0.000000 -0.000083 -0.000000 1.000000 -0.000000 -0.163177 -13.500000 0 0 0 0 0.000000 0.000000 0.000000 0.000000
-12.039599 -1.129092 -17.068800 -1.000000 -0.000000 -0.000083 -0.000000 1.000000 -0.000000 -0.183698 -13.500000 0 0 0 0 0.000000 0.000000 0.000000 0.000000
-12.039599 -1.066798 -17.297401 -1.000000 -0.000000 -0.000000 -0.000000 1.000000 -0.000000 -0.166667 -13.687500 0 0 0 0 0.000000 0.000000 0.000000 0.000000
-12.039599 -1.129092 -17.068800 -1.000000 -0.000000 -0.000000 -0.000000 1.000000 -0.000000 -0.183698 -13.500000 0 0 0 0 0.000000 0.000000 0.000000 0.000000
-12.039599 -1.333498 -17.068800 -1.000000 -0.000000 -0.000000 -0.000000 1.000000 -0.000000 -0.239583 -13.500000 0 0 0 0 0.000000 0.000000 0.000000 0.000000
-12.039599 -1.333498 -17.370173 -1.000000 -0.000000 -0.000000 -0.000000 1.000000 -0.000000 -0.239583 -13.747188 0 0 0 0 0.000000 0.000000 0.000000 0.000000
-12.039599 -0.952498 -17.266157 -1.000000 -0.000000 -0.000000 -0.000000 1.000000 -0.000000 -0.135417 -13.661875 0 0 0 0 0.000000 0.000000 0.000000 0.000000
-12.039599 -1.333498 -17.373600 -1.000000 -0.000000 -0.000000 -0.000000 1.000000 -0.000000 -0.239583 -13.750000 0 0 0 0 0.000000 0.000000 0.000000 0.000000
-12.039599 -0.952498 -17.373600 -1.000000 -0.000000 -0.000000 -0.000000 1.000000 -0.000000 -0.135417 -13.750000 0 0 0 0 0.000000 0.000000 0.000000 0.000000
-11.429998 -0.952498 -17.266157 1.000000 0.000000 0.000000 -0.000000 1.000000 -0.000000 -0.135417 -13.661875 0 0 0 0 0.000000 0.000000 0.000000 0.000000
-11.429998 -0.952498 -17.373600 1.000000 0.000000 0.000000 -0.000000 1.000000 -0.000000 -0.135417 -13.750000 0 0 0 0 0.000000 0.000000 0.000000 0.000000
-11.429998 -1.333498 -17.373600 1.000000 0.000000 0.000000 -0.000000 1.000000 -0.000000 -0.239583 -13.750000 0 0 0 0 0.000000 0.000000 0.000000 0.000000
-11.429998 -1.333498 -17.370173 1.000000 0.000000 0.000000 -0.000000 1.000000 -0.000000 -0.239583 -13.747188 0 0 0 0 0.000000 0.000000 0.000000 0.000000
-11.429998 -1.129092 -17.068800 1.000000 0.000000 0.000000 -0.000000 1.000000 -0.000000 -0.183698 -13.500000 0 0 0 0 0.000000 0.000000 0.000000 0.000000
-11.429998 -1.066798 -17.297401 1.000000 0.000000 0.000000 -0.000000 1.000000 -0.000000 -0.166667 -13.687500 0 0 0 0 0.000000 0.000000 0.000000 0.000000
-11.429998 -1.333498 -17.068800 1.000000 0.000000 0.000000 -0.000000 1.000000 -0.000000 -0.239583 -13.500000 0 0 0 0 0.000000 0.000000 0.000000 0.000000
-11.429998 -1.123948 -17.087851 1.000000 0.000000 0.000000 -0.000000 1.000000 -0.000000 -0.182292 -13.515625 0 0 0 0 0.000000 0.000000 0.000000 0.000000
-11.429998 -1.054035 -17.068800 1.000000 0.000000 0.000000 -0.000000 1.000000 -0.000000 -0.163177 -13.500000 0 0 0 0 0.000000 0.000000 0.000000 0.000000
-12.039599 -0.952498 -17.068800 -0.000000 -0.000000 1.000000 -0.000000 1.000000 0.000000 -0.135417 -9.625000 0 0 0 0 0.000000 0.000000 0.000000 0.000000
-11.429998 -0.952498 -17.068800 -0.000000 -0.000000 1.000000 -0.000000 1.000000 0.000000 -0.135417 -9.125000 0 0 0 0 0.000000 0.000000 0.000000 0.000000
-11.429998 -1.054035 -17.068800 -0.000000 -0.000000 1.000000 -0.000000 1.000000 0.000000 -0.163177 -9.125000 0 0 0 0 0.000000 0.000000 0.000000 0.000000
-11.429998 -1.129092 -17.068800 -0.000000 -0.000000 1.000000 -0.000000 1.000000 0.000000 -0.183698 -9.125000 0 0 0 0 0.000000 0.000000 0.000000 0.000000
-11.429998 -1.333498 -17.068800 -0.000000 -0.000000 1.000000 -0.000000 1.000000 0.000000 -0.239583 -9.125000 0 0 0 0 0.000000 0.000000 0.000000 0.000000
-12.039599 -1.333498 -17.068800 -0.000000 -0.000000 1.000000 -0.000000 1.000000 0.000000 -0.239583 -9.625000 0 0 0 0 0.000000 0.000000 0.000000 0.000000
-12.039599 -1.129092 -17.068800 -0.000000 -0.000000 1.000000 -0.000000 1.000000 0.000000 -0.183698 -9.625000 0 0 0 0 0.000000 0.000000 0.000000 0.000000
-12.039599 -1.054035 -17.068800 -0.000000 -0.000000 1.000000 0.000000 -1.000000 -0.000000 -0.163177 -9.625000 0 0 0 0 0.000000 0.000000 0.000000 0.000000
-11.429998 -0.952498 -17.068800 -0.000000 1.000000 0.000000 0.000000 -0.000000 1.000000 -3.791667 -9.125000 0 0 0 0 0.000000 0.000000 0.000000 0.000000
-12.039599 -0.952498 -17.068800 -0.000000 1.000000 0.000000 0.000000 -0.000000 1.000000 -3.791667 -9.625000 0 0 0 0 0.000000 0.000000 0.000000 0.000000
-12.039599 -0.952498 -17.266157 -0.000000 1.000000 0.000000 0.000000 -0.000000 1.000000 -3.845625 -9.625000 0 0 0 0 0.000000 0.000000 0.000000 0.000000
-12.039599 -0.952498 -17.373600 -0.000000 1.000000 0.000000 0.000000 -0.000000 1.000000 -3.875000 -9.625000 0 0 0 0 0.000000 0.000000 0.000000 0.000000
-11.429998 -0.952498 -17.373600 -0.000000 1.000000 0.000000 -0.000000 -0.000000 1.000000 -3.875000 -9.125000 0 0 0 0 0.000000 0.000000 0.000000 0.000000
-11.429998 -0.952498 -17.266157 -0.000000 1.000000 0.000000 0.000000 0.000000 -1.000000 -3.845625 -9.125000 0 0 0 0 0.000000 0.000000 0.000000 0.000000
-11.429998 -1.123948 -18.002253 1.000000 0.000000 -0.000042 -0.000000 1.000000 0.000000 -0.182292 -13.515625 0 0 0 0 0.000000 0.000000 0.000000 0.000000
-11.429998 -1.129092 -17.983202 1.000000 0.000000 -0.000042 -0.000000 1.000000 0.000000 -0.183698 -13.500000 0 0 0 0 0.000000 0.000000 0.000000 0.000000
-11.429998 -1.066798 -17.983202 1.000000 0.000000 -0.000042 0.000000 -1.000000 -0.000000 -0.166667 -13.500000 0 0 0 0 0.000000 0.000000 0.000000 0.000000
-11.429998 -1.054035 -17.983202 1.000000 0.000000 -0.000042 -0.000000 1.000000 0.000000 -0.163177 -13.500000 0 0 0 0 0.000000 0.000000 0.000000 0.000000
-11.429998 -1.129092 -17.983202 1.000000 0.000000 0.000000 -0.000000 1.000000 0.000000 -0.183698 -13.500000 0 0 0 0 0.000000 0.000000 0.000000 0.000000
-11.429998 -1.066798 -18.211800 1.000000 0.000000 0.000000 -0.000000 1.000000 -0.000000 -0.166667 -13.687500 0 0 0 0 0.000000 0.000000 0.000000 0.000000
-11.429998 -1.333498 -18.284571 1.000000 0.000000 0.000000 -0.000000 1.000000 -0.000001 -0.239583 -13.747188 0 0 0 0 0.000000 0.000000 0.000000 0.000000
-11.429998 -1.333498 -17.983202 1.000000 0.000000 0.000000 -0.000000 1.000000 -0.000000 -0.239583 -13.500000 0 0 0 0 0.000000 0.000000 0.000000 0.000000
-11.429998 -0.952498 -18.180557 1.000000 0.000000 0.000000 -0.000000 1.000000 -0.000003 -0.135417 -13.661875 0 0 0 0 0.000000 0.000000 0.000000 0.000000
-11.429998 -0.952498 -18.288002 1.000000 0.000000 0.000000 -0.000000 1.000000 -0.000003 -0.135417 -13.750000 0 0 0 0 0.000000 0.000000 0.000000 0.000000
-11.429998 -1.333498 -18.288002 1.000000 0.000000 0.000000 -0.000000 1.000000 -0.000000 -0.239583 -13.750000 0 0 0 0 0.000000 0.000000 0.000000 0.000000
-12.039599 -1.333498 -18.288002 0.000000 0.000000 -1.000000 -0.000000 1.000000 0.000000 -0.239583 -8.625000 0 0 0 0 0.000000 0.000000 0.000000 0.000000
-11.429998 -1.333498 -18.288002 0.000000 0.000000 -1.000000 -0.000000 1.000000 0.000000 -0.239583 -8.125000 0 0 0 0 0.000000 0.000000 0.000000 0.000000
-11.429998 -0.952498 -18.288002 0.000000 0.000000 -1.000000 -0.000000 1.000000 0.000000 -0.135417 -8.125000 0 0 0 0 0.000000 0.000000 0.000000 0.000000
-12.039599 -0.952498 -18.288002 0.000000 0.000000 -1.000000 -0.000000 1.000000 0.000000 -0.135417 -8.625000 0 0 0 0 0.000000 0.000000 0.000000 0.000000
-12.039599 -1.123948 -18.002253 -1.000000 -0.000000 -0.000083 -0.000000 1.000000 -0.000000 -0.182292 -13.515625 0 0 0 0 0.000000 0.000000 0.000000 0.000000
-12.039599 -1.054035 -17.983202 -1.000000 -0.000000 -0.000083 -0.000000 1.000000 -0.000000 -0.163177 -13.500000 0 0 0 0 0.000000 0.000000 0.000000 0.000000
-12.039599 -1.066798 -17.983202 -1.000000 -0.000000 -0.000083 -0.000000 1.000000 -0.000000 -0.166667 -13.500000 0 0 0 0 0.000000 0.000000 0.000000 0.000000
-12.039599 -1.129092 -17.983202 -1.000000 -0.000000 -0.000083 -0.000000 1.000000 0.000000 -0.183698 -13.500000 0 0 0 0 0.000000 0.000000 0.000000 0.000000
-12.039599 -1.066798 -18.211800 -1.000000 -0.000000 -0.000000 -0.000000 1.000000 0.000001 -0.166667 -13.687500 0 0 0 0 0.000000 0.000000 0.000000 0.000000
-12.039599 -1.129092 -17.983202 -1.000000 -0.000000 -0.000000 -0.000000 1.000000 0.000000 -0.183698 -13.500000 0 0 0 0 0.000000 0.000000 0.000000 0.000000
-12.039599 -1.333498 -17.983202 -1.000000 -0.000000 -0.000000 -0.000000 1.000000 -0.000000 -0.239583 -13.500000 0 0 0 0 0.000000 0.000000 0.000000 0.000000
-12.039599 -1.333498 -18.284571 -1.000000 -0.000000 -0.000000 -0.000000 1.000000 -0.000000 -0.239583 -13.747188 0 0 0 0 0.000000 0.000000 0.000000 0.000000
-12.039599 -0.952498 -18.180557 -1.000000 -0.000000 -0.000000 -0.000000 1.000000 -0.000003 -0.135417 -13.661875 0 0 0 0 0.000000 0.000000 0.000000 0.000000
-12.039599 -1.333498 -18.288002 -1.000000 -0.000000 -0.000000 -0.000000 1.000000 -0.000000 -0.239583 -13.750000 0 0 0 0 0.000000 0.000000 0.000000 0.000000
-12.039599 -0.952498 -18.288002 -1.000000 -0.000000 -0.000000 -0.000000 1.000000 -0.000003 -0.135417 -13.750000 0 0 0 0 0.000000 0.000000 0.000000 0.000000
-11.429998 -0.952498 -17.983202 -0.000000 1.000000 0.000000 0.000000 -0.000000 1.000000 -4.791667 -8.125000 0 0 0 0 0.000000 0.000000 0.000000 0.000000
-12.039599 -0.952498 -17.983202 -0.000000 1.000000 0.000000 0.000000 -0.000000 1.000000 -4.791667 -8.625000 0 0 0 0 0.000000 0.000000 0.000000 0.000000
-12.039599 -0.952498 -18.180557 -0.000000 1.000000 0.000000 0.000000 -0.000000 1.000000 -4.845625 -8.625000 0 0 0 0 0.000000 0.000000 0.000000 0.000000
-12.039599 -0.952498 -18.288002 -0.000000 1.000000 0.000000 0.000000 -0.000000 1.000000 -4.875000 -8.625000 0 0 0 0 0.000000 0.000000 0.000000 0.000000
-11.429998 -0.952498 -18.288002 -0.000000 1.000000 0.000000 -0.000000 -0.000000 1.000000 -4.875000 -8.125000 0 0 0 0 0.000000 0.000000 0.000000 0.000000
-11.429998 -0.952498 -18.180557 -0.000000 1.000000 0.000000 0.000000 0.000000 -1.000000 -4.845625 -8.125000 0 0 0 0 0.000000 0.000000 0.000000 0.000000
-12.039599 -1.333498 -17.983202 0.000000 -1.000000 -0.000000 0.000000 -0.000000 1.000000 -4.791667 -8.625000 0 0 0 0 0.000000 0.000000 0.000000 0.000000
-11.429998 -1.333498 -17.983202 0.000000 -1.000000 -0.000000 0.000000 -0.000000 1.000000 -4.791667 -8.125000 0 0 0 0 0.000000 0.000000 0.000000 0.000000
-11.429998 -1.333498 -18.284571 0.000000 -1.000000 -0.000000 0.000000 -0.000000 1.000000 -4.874063 -8.125000 0 0 0 0 0.000000 0.000000 0.000000 0.000000
-11.429998 -1.333498 -18.288002 0.000000 -1.000000 -0.000000 0.000000 -0.000000 1.000000 -4.875000 -8.125000 0 0 0 0 0.000000 0.000000 0.000000 0.000000
-12.039599 -1.333498 -18.288002 0.000000 -1.000000 -0.000000 -0.000000 -0.000000 1.000000 -4.875000 -8.625000 0 0 0 0 0.000000 0.000000 0.000000 0.000000
-12.039599 -1.333498 -18.284571 0.000000 -1.000000 -0.000000 0.000000 0.000000 -1.000000 -4.874063 -8.625000 0 0 0 0 0.000000 0.000000 0.000000 0.000000
IndexCount: 222
3 1 0
3 2 1
2 8 1
2 9 8
7 5 4
5 10 4
7 6 5
5 11 10
12 16 15
12 15 14
14 13 12
20 18 17
20 19 18
21 25 24
21 24 23
23 22 21
26 31 30
26 30 29
26 29 28
28 27 26
42 26 41
34 33 29
34 29 32
32 35 34
36 39 34
36 34 38
38 37 36
42 41 40
43 48 47
43 47 46
43 46 45
45 44 43
51 50 49
55 53 52
55 54 53
58 57 55
58 55 56
62 60 59
62 61 60
65 62 64
65 64 63
67 63 66
68 75 74
74 69 68
74 73 72
74 72 71
74 71 70
74 70 69
76 81 80
76 80 79
76 79 78
78 77 76
85 83 82
85 84 83
89 87 86
89 88 87
88 92 91
88 91 90
96 94 93
96 95 94
100 98 97
100 99 98
104 102 101
104 103 102
107 106 104
107 104 105
108 113 112
108 112 111
108 111 110
110 109 108
114 119 118
114 118 117
114 117 116
116 115 114
