VertexCount: 76
12.801599 -4.191000 7.924800 -0.000000 0.780869 -0.624695 1.000000 0.000000 -0.000000 28.937500 -17.958334 0 0 0 0 0.000000 0.000000 0.000000 0.000000
12.420598 -4.191000 7.924800 -0.000000 0.780869 -0.624695 1.000000 0.000000 -0.000000 28.104168 -17.958334 0 0 0 0 0.000000 0.000000 0.000000 0.000000
12.420598 -4.495800 7.543800 -0.000000 0.780869 -0.624695 1.000000 0.000000 -0.000000 28.104168 -17.125000 0 0 0 0 0.000000 0.000000 0.000000 0.000000
12.801599 -4.495800 7.543800 -0.000000 0.780869 -0.624695 1.000000 0.000000 -0.000000 28.937500 -17.125000 0 0 0 0 0.000000 0.000000 0.000000 0.000000
8.915401 -4.191000 7.924799 -0.000000 0.780869 -0.624695 1.000000 0.000000 -0.000000 19.937500 -17.958334 0 0 0 0 0.000000 0.000000 0.000000 0.000000
8.534400 -4.191000 7.924799 -0.000000 0.780869 -0.624695 1.000000 0.000000 -0.000000 19.104168 -17.958334 0 0 0 0 0.000000 0.000000 0.000000 0.000000
8.534400 -4.495800 7.543800 -0.000000 0.780869 -0.624695 1.000000 0.000000 0.000000 19.104168 -17.125000 0 0 0 0 0.000000 0.000000 0.000000 0.000000
8.915401 -4.495800 7.543800 -0.000000 0.780869 -0.624695 1.000000 0.000000 -0.000000 19.937500 -17.125000 0 0 0 0 0.000000 0.000000 0.000000 0.000000
12.801600 -4.495800 4.495800 -0.000000 0.780869 0.624695 1.000000 0.000000 0.000000 27.937500 -9.895834 0 0 0 0 0.000000 0.000000 0.000000 0.000000
12.420599 -4.495800 4.495800 -0.000000 0.780869 0.624695 1.000000 0.000000 0.000000 27.104168 -9.895834 0 0 0 0 0.000000 0.000000 0.000000 0.000000
12.420599 -4.191000 4.114800 -0.000000 0.780869 0.624695 1.000000 0.000000 0.000000 27.104168 -9.062500 0 0 0 0 0.000000 0.000000 0.000000 0.000000
12.801600 -4.191000 4.114800 -0.000000 0.780869 0.624695 1.000000 0.000000 0.000000 27.937500 -9.062500 0 0 0 0 0.000000 0.000000 0.000000 0.000000
8.915401 -4.495800 4.495800 -0.000000 0.780869 0.624695 1.000000 -0.000000 0.000001 19.937500 -9.895834 0 0 0 0 0.000000 0.000000 0.000000 0.000000
8.534400 -4.495800 4.495800 -0.000000 0.780869 0.624695 1.000000 -0.000000 0.000001 19.104168 -9.895834 0 0 0 0 0.000000 0.000000 0.000000 0.000000
8.534400 -4.191000 4.114800 -0.000000 0.780869 0.624695 1.000000 -0.000000 0.000001 19.104168 -9.062500 0 0 0 0 0.000000 0.000000 0.000000 0.000000
8.915401 -4.191000 4.114800 -0.000000 0.780869 0.624695 1.000000 -0.000000 0.000001 19.937500 -9.062500 0 0 0 0 0.000000 0.000000 0.000000 0.000000
4.572000 -2.133600 5.181600 0.000000 -1.000000 -0.000000 1.000000 0.000000 0.000000 15.000000 -17.000000 0 0 0 0 0.000000 0.000000 0.000000 0.000000
4.267200 -2.133600 5.181600 0.000000 -1.000000 -0.000000 1.000000 0.000000 0.000000 14.000000 -17.000000 0 0 0 0 0.000000 0.000000 0.000000 0.000000
4.267200 -2.133600 5.486400 0.000000 -1.000000 -0.000000 1.000000 0.000000 0.000000 14.000000 -18.000000 0 0 0 0 0.000000 0.000000 0.000000 0.000000
4.572000 -2.133600 5.486400 0.000000 -1.000000 -0.000000 1.000000 0.000000 0.000000 15.000000 -18.000000 0 0 0 0 0.000000 0.000000 0.000000 0.000000
4.572000 -2.133600 6.553200 0.000000 -1.000000 -0.000000 1.000000 0.000000 -0.000000 15.000000 -21.000000 0 0 0 0 0.000000 0.000000 0.000000 0.000000
4.267200 -2.133601 6.553200 0.000000 -1.000000 -0.000000 1.000000 0.000000 -0.000000 14.000000 -21.000000 0 0 0 0 0.000000 0.000000 0.000000 0.000000
4.267200 -2.133601 6.858000 0.000000 -1.000000 -0.000000 1.000000 0.000000 0.000000 14.000000 -22.000000 0 0 0 0 0.000000 0.000000 0.000000 0.000000
4.572000 -2.133601 6.858000 0.000000 -1.000000 -0.000000 1.000000 0.000000 -0.000000 15.000000 -22.000000 0 0 0 0 0.000000 0.000000 0.000000 0.000000
0.152402 -4.114797 -20.269199 -0.000000 1.000000 0.000000 -0.000000 -0.000000 1.000000 -66.000000 0.000000 0 0 0 0 0.000000 0.000000 0.000000 0.000000
0.152402 -4.114797 -19.964399 -0.000000 1.000000 0.000000 -0.000000 -0.000000 1.000000 -65.000000 0.000000 0 0 0 0 0.000000 0.000000 0.000000 0.000000
-0.152398 -4.114797 -19.964399 -0.000000 1.000000 0.000000 -0.000000 -0.000000 1.000000 -65.000000 -1.000000 0 0 0 0 0.000000 0.000000 0.000000 0.000000
-0.152398 -4.114797 -20.269199 -0.000000 1.000000 0.000000 -0.000000 -0.000000 1.000000 -66.000000 -1.000000 0 0 0 0 0.000000 0.000000 0.000000 0.000000
0.152402 -4.114796 -22.098000 -0.000000 1.000000 0.000000 -0.000000 -0.000000 1.000000 -72.000000 0.000000 0 0 0 0 0.000000 0.000000 0.000000 0.000000
0.152402 -4.114796 -21.793200 -0.000000 1.000000 0.000000 -0.000000 -0.000000 1.000000 -71.000000 0.000000 0 0 0 0 0.000000 0.000000 0.000000 0.000000
-0.152398 -4.114796 -21.793200 -0.000000 1.000000 0.000000 -0.000000 -0.000000 1.000000 -71.000000 -1.000000 0 0 0 0 0.000000 0.000000 0.000000 0.000000
-0.152398 -4.114796 -22.098000 -0.000000 1.000000 0.000000 -0.000000 -0.000000 1.000000 -72.000000 -1.000000 0 0 0 0 0.000000 0.000000 0.000000 0.000000
-1.981198 -4.114797 -20.269199 -0.000000 1.000000 0.000000 -0.000001 -0.000000 1.000000 -66.000000 -6.000000 0 0 0 0 0.000000 0.000000 0.000000 0.000000
-1.981198 -4.114797 -19.964399 -0.000000 1.000000 0.000000 -0.000001 -0.000000 1.000000 -65.000000 -6.000000 0 0 0 0 0.000000 0.000000 0.000000 0.000000
-2.285998 -4.114797 -19.964399 -0.000000 1.000000 0.000000 -0.000001 -0.000000 1.000000 -65.000000 -7.000000 0 0 0 0 0.000000 0.000000 0.000000 0.000000
-2.285998 -4.114797 -20.269199 -0.000000 1.000000 0.000000 -0.000001 -0.000000 1.000000 -66.000000 -7.000000 0 0 0 0 0.000000 0.000000 0.000000 0.000000
-1.981198 -4.114797 -22.098000 -0.000000 1.000000 0.000000 -0.000001 -0.000000 1.000000 -72.000000 -6.000000 0 0 0 0 0.000000 0.000000 0.000000 0.000000
-1.981198 -4.114797 -21.793200 -0.000000 1.000000 0.000000 -0.000001 -0.000000 1.000000 -71.000000 -6.000000 0 0 0 0 0.000000 0.000000 0.000000 0.000000
-2.285998 -4.114797 -21.793200 -0.000000 1.000000 0.000000 -0.000001 -0.000000 1.000000 -71.000000 -7.000000 0 0 0 0 0.000000 0.000000 0.000000 0.000000
-2.285998 -4.114797 -22.098000 -0.000000 1.000000 0.000000 -0.000001 -0.000000 1.000000 -72.000000 -7.000000 0 0 0 0 0.000000 0.000000 0.000000 0.000000
-4.114798 -4.114797 -20.269199 -0.000000 1.000000 0.000000 -0.000000 -0.000000 1.000000 -66.000000 -13.000000 0 0 0 0 0.000000 0.000000 0.000000 0.000000
-4.114798 -4.114797 -19.964399 -0.000000 1.000000 0.000000 -0.000000 -0.000000 1.000000 -65.000000 -13.000000 0 0 0 0 0.000000 0.000000 0.000000 0.000000
-4.419598 -4.114797 -19.964399 -0.000000 1.000000 0.000000 -0.000000 -0.000000 1.000000 -65.000000 -14.000000 0 0 0 0 0.000000 0.000000 0.000000 0.000000
-4.419598 -4.114797 -20.269199 -0.000000 1.000000 0.000000 -0.000000 -0.000000 1.000000 -66.000000 -14.000000 0 0 0 0 0.000000 0.000000 0.000000 0.000000
-4.114798 -4.114797 -22.098000 -0.000000 1.000000 0.000000 -0.000000 -0.000000 1.000000 -72.000000 -13.000000 0 0 0 0 0.000000 0.000000 0.000000 0.000000
-4.114798 -4.114797 -21.793200 -0.000000 1.000000 0.000000 -0.000000 -0.000000 1.000000 -71.000000 -13.000000 0 0 0 0 0.000000 0.000000 0.000000 0.000000
-4.419598 -4.114797 -21.793200 -0.000000 1.000000 0.000000 -0.000000 -0.000000 1.000000 -71.000000 -14.000000 0 0 0 0 0.000000 0.000000 0.000000 0.000000
-4.419598 -4.114797 -22.098000 -0.000000 1.000000 0.000000 -0.000000 -0.000000 1.000000 -72.000000 -14.000000 0 0 0 0 0.000000 0.000000 0.000000 0.000000
-6.248398 -4.114797 -22.098000 -0.000000 1.000000 0.000000 0.000000 -0.000000 1.000000 -72.000000 -20.000000 0 0 0 0 0.000000 0.000000 0.000000 0.000000
-6.248398 -4.114797 -21.793200 -0.000000 1.000000 0.000000 0.000000 -0.000000 1.000000 -71.000000 -20.000000 0 0 0 0 0.000000 0.000000 0.000000 0.000000
-6.553197 -4.114797 -21.793200 -0.000000 1.000000 0.000000 0.000000 -0.000000 1.000000 -71.000000 -21.000000 0 0 0 0 0.000000 0.000000 0.000000 0.000000
-6.553197 -4.114797 -22.098000 -0.000000 1.000000 0.000000 0.000000 -0.000000 1.000000 -72.000000 -21.000000 0 0 0 0 0.000000 0.000000 0.000000 0.000000
-6.248398 -4.114797 -20.269199 -0.000000 1.000000 0.000000 0.000000 -0.000000 1.000000 -66.000000 -20.000000 0 0 0 0 0.000000 0.000000 0.000000 0.000000
-6.248398 -4.114797 -19.964399 -0.000000 1.000000 0.000000 0.000000 -0.000000 1.000000 -65.000000 -20.000000 0 0 0 0 0.000000 0.000000 0.000000 0.000000
-6.553197 -4.114797 -19.964399 -0.000000 1.000000 0.000000 0.000000 -0.000000 1.000000 -65.000000 -21.000000 0 0 0 0 0.000000 0.000000 0.000000 0.000000
-6.553197 -4.114797 -20.269199 -0.000000 1.000000 0.000000 0.000000 -0.000000 1.000000 -66.000000 -21.000000 0 0 0 0 0.000000 0.000000 0.000000 0.000000
-8.381997 -4.114798 -20.269201 -0.000000 1.000000 0.000000 0.000000 -0.000000 1.000000 -66.000000 -27.000000 0 0 0 0 0.000000 0.000000 0.000000 0.000000
-8.381997 -4.114798 -19.964401 -0.000000 1.000000 0.000000 0.000000 -0.000000 1.000000 -65.000000 -27.000000 0 0 0 0 0.000000 0.000000 0.000000 0.000000
-8.686797 -4.114798 -19.964401 -0.000000 1.000000 0.000000 0.000000 -0.000000 1.000000 -65.000000 -28.000000 0 0 0 0 0.000000 0.000000 0.000000 0.000000
-8.686797 -4.114798 -20.269201 -0.000000 1.000000 0.000000 0.000000 -0.000000 1.000000 -66.000000 -28.000000 0 0 0 0 0.000000 0.000000 0.000000 0.000000
-8.381997 -4.114797 -22.098000 -0.000000 1.000000 0.000000 0.000000 -0.000000 1.000000 -72.000000 -27.000000 0 0 0 0 0.000000 0.000000 0.000000 0.000000
-8.381997 -4.114797 -21.793200 -0.000000 1.000000 0.000000 0.000000 -0.000000 1.000000 -71.000000 -27.000000 0 0 0 0 0.000000 0.000000 0.000000 0.000000
-8.686797 -4.114797 -21.793200 -0.000000 1.000000 0.000000 0.000000 -0.000000 1.000000 -71.000000 -28.000000 0 0 0 0 0.000000 0.000000 0.000000 0.000000
-8.686797 -4.114797 -22.098000 -0.000000 1.000000 0.000000 0.000000 -0.000000 1.000000 -72.000000 -28.000000 0 0 0 0 0.000000 0.000000 0.000000 0.000000
-11.582397 -4.114798 -22.098000 -0.000000 1.000000 0.000000 0.000000 -0.000000 1.000000 -72.000000 -38.000000 0 0 0 0 0.000000 0.000000 0.000000 0.000000
-11.582397 -4.114798 -21.793200 -0.000000 1.000000 0.000000 0.000000 -0.000000 1.000000 -71.000000 -38.000000 0 0 0 0 0.000000 0.000000 0.000000 0.000000
-11.887198 -4.114798 -21.793200 -0.000000 1.000000 0.000000 0.000000 -0.000000 1.000000 -71.000000 -39.000000 0 0 0 0 0.000000 0.000000 0.000000 0.000000
-11.887198 -4.114798 -22.098000 -0.000000 1.000000 0.000000 0.000000 -0.000000 1.000000 -72.000000 -39.000000 0 0 0 0 0.000000 0.000000 0.000000 0.000000
-12.496799 -4.114798 -18.592802 -0.000000 1.000000 0.000000 -0.000000 -0.000000 1.000000 -61.000000 -41.000000 0 0 0 0 0.000000 0.000000 0.000000 0.000000
-12.801599 -4.114798 -18.592802 -0.000000 1.000000 0.000000 -0.000000 -0.000000 1.000000 -61.000000 -42.000000 0 0 0 0 0.000000 0.000000 0.000000 0.000000
-12.801599 -4.114798 -18.897602 -0.000000 1.000000 0.000000 0.000000 -0.000000 1.000000 -62.000000 -42.000000 0 0 0 0 0.000000 0.000000 0.000000 0.000000
-12.496799 -4.114798 -18.897602 -0.000000 1.000000 0.000000 -0.000000 -0.000000 1.000000 -62.000000 -41.000000 0 0 0 0 0.000000 0.000000 0.000000 0.000000
-10.667999 -4.114798 -18.592802 -0.000000 1.000000 0.000000 0.000000 -0.000000 1.000000 -61.000000 -35.000000 0 0 0 0 0.000000 0.000000 0.000000 0.000000
-10.972799 -4.114798 -18.592802 -0.000000 1.000000 0.000000 0.000000 -0.000000 1.000000 -61.000000 -36.000000 0 0 0 0 0.000000 0.000000 0.000000 0.000000
-10.972799 -4.114798 -18.897602 -0.000000 1.000000 0.000000 0.000000 -0.000000 1.000000 -62.000000 -36.000000 0 0 0 0 0.000000 0.000000 0.000000 0.000000
-10.667999 -4.114798 -18.897602 -0.000000 1.000000 0.000000 0.000000 -0.000000 1.000000 -62.000000 -35.000000 0 0 0 0 0.000000 0.000000 0.000000 0.000000
IndexCount: 114
3 1 0
3 2 1
7 5 4
7 6 5
11 9 8
11 10 9
15 13 12
15 14 13
19 17 16
19 18 17
23 21 20
23 22 21
27 25 24
27 26 25
31 29 28
31 30 29
35 33 32
35 34 33
39 37 36
39 38 37
43 41 40
43 42 41
47 45 44
47 46 45
51 49 48
51 50 49
55 53 52
55 54 53
59 57 56
59 58 57
63 61 60
63 62 61
67 65 64
67 66 65
71 69 68
71 70 69
75 73 72
75 74 73
