VertexCount: 46
-9.601200 -3.962402 10.667997 0.000000 -1.000000 -0.000000 -0.000000 -0.000000 1.000000 11.609375 -21.750000 0 0 0 0 0.000000 0.000000 0.000000 0.000000
-10.629901 -3.962403 10.667997 0.000000 -1.000000 -0.000000 -0.000000 -0.000000 1.000000 11.609375 -24.160715 0 0 0 0 0.000000 0.000000 0.000000 0.000000
-10.629901 -3.962403 11.125197 0.000000 -1.000000 -0.000000 0.000000 -0.000000 1.000000 12.145089 -24.160715 0 0 0 0 0.000000 0.000000 0.000000 0.000000
-9.601200 -3.962403 11.125197 0.000000 -1.000000 -0.000000 -0.000000 -0.000000 1.000000 12.145089 -21.750000 0 0 0 0 0.000000 0.000000 0.000000 0.000000
-9.601201 -3.352803 11.125198 -0.000000 0.707107 -0.707106 1.000000 0.000000 -0.000000 -11.140625 -25.102678 0 0 0 0 0.000000 0.000000 0.000000 0.000000
-10.629901 -3.352803 11.125198 -0.000000 0.707107 -0.707106 1.000000 0.000000 -0.000000 -12.345983 -25.102678 0 0 0 0 0.000000 0.000000 0.000000 0.000000
-10.629901 -3.810003 10.667997 -0.000000 0.707107 -0.707106 1.000000 0.000000 0.000000 -12.345983 -24.031250 0 0 0 0 0.000000 0.000000 0.000000 0.000000
-9.601200 -3.810002 10.667997 -0.000000 0.707107 -0.707106 1.000000 0.000000 -0.000000 -11.140625 -24.031250 0 0 0 0 0.000000 0.000000 0.000000 0.000000
-5.943601 -3.352802 7.296148 -0.707107 0.707107 0.000000 -0.000000 -0.000000 1.000000 5.859375 -12.959822 0 0 0 0 0.000000 0.000000 0.000000 0.000000
-5.943601 -3.352802 7.467599 -0.707107 0.707107 0.000000 0.000000 -0.000000 1.000000 6.000000 -12.959822 0 0 0 0 0.000000 0.000000 0.000000 0.000000
-6.400800 -3.810002 7.467599 -0.707107 0.707107 0.000000 0.000000 -0.000000 1.000000 6.000000 -14.031250 0 0 0 0 0.000000 0.000000 0.000000 0.000000
-6.400800 -3.810002 7.296148 -0.707107 0.707107 0.000000 -0.000000 -0.000000 1.000000 5.859375 -14.031250 0 0 0 0 0.000000 0.000000 0.000000 0.000000
-5.943600 -3.352801 2.895599 -0.707107 0.707107 0.000000 -0.000001 -0.000001 1.000000 2.250000 -12.959822 0 0 0 0 0.000000 0.000000 0.000000 0.000000
-5.943601 -3.352801 3.581399 -0.707107 0.707107 0.000000 -0.000001 -0.000001 1.000000 2.812500 -12.959822 0 0 0 0 0.000000 0.000000 0.000000 0.000000
-5.943601 -3.352801 4.952999 -0.707107 0.707107 0.000000 0.000000 -0.000000 1.000000 3.937500 -12.959822 0 0 0 0 0.000000 0.000000 0.000000 0.000000
-5.943601 -3.352801 5.600699 -0.707107 0.707107 0.000000 -0.000000 -0.000000 1.000000 4.468750 -12.959822 0 0 0 0 0.000000 0.000000 0.000000 0.000000
-5.943601 -3.352801 7.010399 -0.707107 0.707107 0.000000 0.000000 -0.000000 1.000000 5.625000 -12.959822 0 0 0 0 0.000000 0.000000 0.000000 0.000000
-6.400800 -3.810001 3.882389 -0.707107 0.707107 0.000000 -0.000000 -0.000000 1.000000 3.059375 -14.031250 0 0 0 0 0.000000 0.000000 0.000000 0.000000
-6.400799 -3.810001 2.895599 -0.707107 0.707107 0.000000 -0.000000 -0.000001 1.000000 2.250000 -14.031250 0 0 0 0 0.000000 0.000000 0.000000 0.000000
-12.710162 -3.962403 10.667997 0.000000 -1.000000 -0.000000 0.000000 -0.000000 1.000000 11.609375 -29.035719 0 0 0 0 0.000000 0.000000 0.000000 0.000000
-12.710162 -3.962403 11.125197 0.000000 -1.000000 -0.000000 -0.000000 -0.000000 1.000000 12.145089 -29.035719 0 0 0 0 0.000000 0.000000 0.000000 0.000000
-12.710162 -3.962403 10.667997 0.000000 -1.000000 -0.000000 1.000000 0.000000 -0.000000 11.609375 -29.035719 0 0 0 0 0.000000 0.000000 0.000000 0.000000
-13.487401 -3.962403 10.667997 0.000000 -1.000000 -0.000000 1.000000 0.000000 -0.000000 11.609375 -30.857143 0 0 0 0 0.000000 0.000000 0.000000 0.000000
-13.868402 -3.962403 10.667997 0.000000 -1.000000 -0.000000 1.000000 0.000000 0.000000 11.609375 -31.750000 0 0 0 0 0.000000 0.000000 0.000000 0.000000
-15.697201 -3.962403 10.667997 0.000000 -1.000000 -0.000000 1.000000 0.000000 -0.000000 11.609375 -36.035717 0 0 0 0 0.000000 0.000000 0.000000 0.000000
-15.697201 -3.962403 11.125197 0.000000 -1.000000 -0.000000 0.000000 -0.000000 1.000000 12.145089 -36.035717 0 0 0 0 0.000000 0.000000 0.000000 0.000000
-13.792201 -3.962403 11.125197 0.000000 -1.000000 -0.000000 -0.000000 -0.000000 1.000000 12.145089 -31.571430 0 0 0 0 0.000000 0.000000 0.000000 0.000000
-12.725401 -3.962403 11.125197 0.000000 -1.000000 -0.000000 -0.000001 -0.000000 1.000000 12.145089 -29.071430 0 0 0 0 0.000000 0.000000 0.000000 0.000000
-10.629901 -3.352803 11.125198 -0.000000 0.707108 -0.707106 1.000000 0.000000 0.000000 -12.345983 -25.102678 0 0 0 0 0.000000 0.000000 0.000000 0.000000
-10.820401 -3.352803 11.125198 -0.000000 0.707108 -0.707106 1.000000 0.000000 0.000000 -12.569197 -25.102678 0 0 0 0 0.000000 0.000000 0.000000 0.000000
-12.710162 -3.352803 11.125198 -0.000000 0.707108 -0.707106 1.000000 0.000000 0.000000 -14.783484 -25.102678 0 0 0 0 0.000000 0.000000 0.000000 0.000000
-12.710162 -3.810003 10.667997 -0.000000 0.707108 -0.707106 1.000000 0.000000 0.000000 -14.783484 -24.031250 0 0 0 0 0.000000 0.000000 0.000000 0.000000
-12.725401 -3.352803 11.125198 -0.000000 0.707107 -0.707106 1.000000 0.000000 -0.000000 -14.801340 -25.102678 0 0 0 0 0.000000 0.000000 0.000000 0.000000
-13.792201 -3.352803 11.125198 -0.000000 0.707107 -0.707106 1.000000 0.000000 -0.000000 -16.051340 -25.102678 0 0 0 0 0.000000 0.000000 0.000000 0.000000
-15.697201 -3.352803 11.125198 -0.000000 0.707107 -0.707106 1.000000 0.000000 -0.000000 -18.283484 -25.102678 0 0 0 0 0.000000 0.000000 0.000000 0.000000
-15.697201 -3.810003 10.667997 -0.000000 0.707107 -0.707106 1.000000 0.000000 -0.000000 -18.283484 -24.031250 0 0 0 0 0.000000 0.000000 0.000000 0.000000
-13.868402 -3.810003 10.667997 -0.000000 0.707107 -0.707106 1.000000 0.000000 -0.000000 -16.140625 -24.031250 0 0 0 0 0.000000 0.000000 0.000000 0.000000
-13.487401 -3.810003 10.667997 -0.000000 0.707107 -0.707106 1.000000 0.000000 -0.000000 -15.694197 -24.031250 0 0 0 0 0.000000 0.000000 0.000000 0.000000
-36.804600 -3.657604 7.391397 1.000000 0.000000 0.000000 -0.000000 -0.000000 1.000000 7.986112 5.031250 0 0 0 0 0.000000 0.000000 0.000000 0.000000
-36.804600 -4.876804 7.391397 1.000000 0.000000 0.000000 -0.000000 -0.000000 1.000000 7.986112 7.031250 0 0 0 0 0.000000 0.000000 0.000000 0.000000
-36.804600 -4.876805 10.667995 1.000000 0.000000 0.000000 -0.000000 -0.000000 1.000000 10.972222 7.031250 0 0 0 0 0.000000 0.000000 0.000000 0.000000
-36.804600 -3.657605 10.667996 1.000000 0.000000 0.000000 -0.000000 -0.000000 1.000000 10.972222 5.031250 0 0 0 0 0.000000 0.000000 0.000000 0.000000
-32.308800 -3.505203 4.114797 -1.000000 -0.000000 -0.000000 -0.000000 -0.000000 1.000000 2.908654 4.781250 0 0 0 0 0.000000 0.000000 0.000000 0.000000
-32.308800 -4.876803 4.114796 -1.000000 -0.000000 -0.000000 -0.000000 -0.000000 1.000000 2.908654 7.031250 0 0 0 0 0.000000 0.000000 0.000000 0.000000
-32.308800 -4.876802 -0.304804 -1.000000 -0.000000 -0.000000 -0.000000 -0.000000 1.000000 0.120192 7.031250 0 0 0 0 0.000000 0.000000 0.000000 0.000000
-32.308800 -3.505203 -0.304803 -1.000000 -0.000000 -0.000000 -0.000000 -0.000000 1.000000 0.120192 4.781250 0 0 0 0 0.000000 0.000000 0.000000 0.000000
IndexCount: 102
3 1 0
3 2 1
2 19 1
2 20 19
21 20 27
21 27 26
21 26 25
21 25 24
24 22 21
24 23 22
7 5 4
7 6 5
28 6 31
28 31 30
30 29 28
30 31 37
30 37 36
30 36 35
30 35 34
34 32 30
34 33 32
11 9 8
11 8 16
11 10 9
12 17 11
11 16 15
11 15 14
11 14 13
11 13 12
12 18 17
41 39 38
41 40 39
45 43 42
45 44 43
