VertexCount: 9
-5.029201 -3.657601 7.296148 1.000000 0.000000 0.000000 -0.000000 -0.000000 1.000000 2.523438 1.000000 0 0 0 0 0.000000 0.000000 0.000000 0.000000
-5.029201 -3.657601 7.467599 1.000000 0.000000 0.000000 -0.000000 -0.000000 1.000000 2.593750 1.000000 0 0 0 0 0.000000 0.000000 0.000000 0.000000
-5.029201 -3.657602 8.458200 1.000000 0.000000 0.000000 -0.000000 -0.000000 1.000000 3.000000 1.000000 0 0 0 0 0.000000 0.000000 0.000000 0.000000
-5.029201 -1.219202 8.458200 1.000000 0.000000 0.000000 -0.000000 -0.000000 1.000000 3.000000 0.000000 0 0 0 0 0.000000 0.000000 0.000000 0.000000
-5.029201 -1.219202 7.296149 1.000000 0.000000 0.000000 -0.000000 -0.000000 1.000000 2.523438 0.000000 0 0 0 0 0.000000 0.000000 0.000000 0.000000
-5.029201 -1.219201 6.019800 1.000000 0.000000 0.000000 -0.000000 -0.000000 1.000000 2.000000 0.000000 0 0 0 0 0.000000 0.000000 0.000000 0.000000
-5.029201 -3.657601 6.019799 1.000000 0.000000 0.000000 -0.000000 -0.000000 1.000000 2.000000 1.000000 0 0 0 0 0.000000 0.000000 0.000000 0.000000
-5.029201 -3.657601 6.172199 1.000000 0.000000 0.000000 0.000000 0.000000 -1.000000 2.062500 1.000000 0 0 0 0 0.000000 0.000000 0.000000 0.000000
-5.029201 -3.657601 7.162799 1.000000 0.000000 0.000000 0.000000 0.000000 -1.000000 2.468750 1.000000 0 0 0 0 0.000000 0.000000 0.000000 0.000000
IndexCount: 21
0 4 3
3 2 1
3 1 0
0 8 7
0 7 6
6 5 4
6 4 0
