VertexCount: 8
-19.697701 -3.047999 -7.277101 0.000000 0.000000 -1.000000 1.000000 0.000000 0.000000 -31.500000 9.625000 0 0 0 0 0.000000 0.000000 0.000000 0.000000
-19.697701 -3.428999 -7.277101 0.000000 0.000000 -1.000000 1.000000 0.000000 0.000000 -31.500000 10.875000 0 0 0 0 0.000000 0.000000 0.000000 0.000000
-19.202400 -3.428999 -7.277101 0.000000 0.000000 -1.000000 1.000000 0.000000 0.000000 -30.687500 10.875000 0 0 0 0 0.000000 0.000000 0.000000 0.000000
-19.202400 -3.047999 -7.277101 0.000000 0.000000 -1.000000 1.000000 0.000000 0.000000 -30.687500 9.625000 0 0 0 0 0.000000 0.000000 0.000000 0.000000
-18.783300 -3.047997 -16.840200 0.000000 -0.000000 1.000000 1.000000 0.000000 0.000000 -30.625000 9.625000 0 0 0 0 0.000000 0.000000 0.000000 0.000000
-18.783300 -3.428998 -16.840200 0.000000 -0.000000 1.000000 1.000000 0.000000 0.000000 -30.625000 10.875000 0 0 0 0 0.000000 0.000000 0.000000 0.000000
-19.316700 -3.428998 -16.840200 0.000000 -0.000000 1.000000 1.000000 0.000000 0.000000 -31.500000 10.875000 0 0 0 0 0.000000 0.000000 0.000000 0.000000
-19.316700 -3.047997 -16.840200 0.000000 -0.000000 1.000000 1.000000 0.000000 0.000000 -31.500000 9.625000 0 0 0 0 0.000000 0.000000 0.000000 0.000000
IndexCount: 18
3 2 1
3 1 0
7 6 5
7 5 4
3 2 1
3 1 0