VertexCount: 16
-17.754601 -4.572001 6.705599 0.000000 -1.000000 -0.000000 1.000000 0.000000 0.000000 -14.062500 -3.285714 0 0 0 0 0.000000 0.000000 0.000000 0.000000
-17.754601 -4.572001 5.486400 0.000000 -1.000000 -0.000000 1.000000 0.000000 0.000000 -14.062500 -2.714286 0 0 0 0 0.000000 0.000000 0.000000 0.000000
-17.907000 -4.572001 5.486400 0.000000 -1.000000 -0.000000 1.000000 0.000000 0.000000 -14.187500 -2.714286 0 0 0 0 0.000000 0.000000 0.000000 0.000000
-17.907000 -4.572001 6.705599 0.000000 -1.000000 -0.000000 1.000000 0.000000 0.000000 -14.187500 -3.285714 0 0 0 0 0.000000 0.000000 0.000000 0.000000
-17.754601 -2.438401 5.486400 0.000000 1.000000 0.000000 1.000000 0.000000 0.000000 -14.062500 -2.714286 0 0 0 0 0.000000 0.000000 0.000000 0.000000
-17.754601 -2.438401 6.705599 0.000000 1.000000 0.000000 1.000000 0.000000 0.000000 -14.062500 -3.285714 0 0 0 0 0.000000 0.000000 0.000000 0.000000
-17.907000 -2.438401 6.705599 0.000000 1.000000 0.000000 1.000000 0.000000 0.000000 -14.187500 -3.285714 0 0 0 0 0.000000 0.000000 0.000000 0.000000
-17.907000 -2.438401 5.486400 0.000000 1.000000 0.000000 1.000000 0.000000 0.000000 -14.187500 -2.714286 0 0 0 0 0.000000 0.000000 0.000000 0.000000
-17.754601 -2.438401 6.705599 0.000000 -0.000000 1.000000 1.000000 0.000000 0.000000 -14.062500 1.000000 0 0 0 0 0.000000 0.000000 0.000000 0.000000
-17.754601 -4.572001 6.705599 0.000000 -0.000000 1.000000 1.000000 0.000000 0.000000 -14.062500 2.000000 0 0 0 0 0.000000 0.000000 0.000000 0.000000
-17.907000 -4.572001 6.705599 0.000000 -0.000000 1.000000 1.000000 0.000000 0.000000 -14.187500 2.000000 0 0 0 0 0.000000 0.000000 0.000000 0.000000
-17.907000 -2.438401 6.705599 0.000000 -0.000000 1.000000 1.000000 0.000000 0.000000 -14.187500 1.000000 0 0 0 0 0.000000 0.000000 0.000000 0.000000
-14.859000 -1.981197 -16.002001 0.000000 0.000000 -1.000000 1.000000 0.000000 0.000000 -12.062500 1.000000 0 0 0 0 0.000000 0.000000 0.000000 0.000000
-14.859000 -4.114797 -16.002001 0.000000 0.000000 -1.000000 1.000000 0.000000 0.000000 -12.062500 2.000000 0 0 0 0 0.000000 0.000000 0.000000 0.000000
-14.706600 -4.114797 -16.002001 0.000000 0.000000 -1.000000 1.000000 0.000000 0.000000 -11.937500 2.000000 0 0 0 0 0.000000 0.000000 0.000000 0.000000
-14.706600 -1.981197 -16.002001 0.000000 0.000000 -1.000000 1.000000 0.000000 0.000000 -11.937500 1.000000 0 0 0 0 0.000000 0.000000 0.000000 0.000000
IndexCount: 24
3 1 0
3 2 1
7 5 4
7 6 5
11 9 8
11 10 9
15 13 12
15 14 13