VertexCount: 4
-10.515600 -1.790701 0.533399 -0.000000 -0.000000 1.000000 1.000000 0.000000 0.000000 -15.062500 2.968750 0 0 0 0 0.000000 0.000000 0.000000 0.000000
-9.144000 -1.790701 0.533399 -0.000000 -0.000000 1.000000 1.000000 0.000000 0.000000 -13.062500 2.968750 0 0 0 0 0.000000 0.000000 0.000000 0.000000
-9.144000 -2.438401 0.533399 -0.000000 -0.000000 1.000000 1.000000 0.000000 0.000000 -13.062500 4.031250 0 0 0 0 0.000000 0.000000 0.000000 0.000000
-10.515600 -2.438401 0.533399 -0.000000 -0.000000 1.000000 1.000000 0.000000 0.000000 -15.062500 4.031250 0 0 0 0 0.000000 0.000000 0.000000 0.000000
IndexCount: 6
3 2 1
3 1 0
