VertexCount: 24
-17.754601 -2.438401 5.486400 1.000000 0.000000 0.000000 0.000000 0.000000 -1.000000 -4.000000 1.000000 0 0 0 0 0.000000 0.000000 0.000000 0.000000
-17.754601 -4.572001 5.486400 1.000000 0.000000 0.000000 0.000000 0.000000 -1.000000 -4.000000 2.000000 0 0 0 0 0.000000 0.000000 0.000000 0.000000
-17.754601 -4.572001 6.705599 1.000000 0.000000 0.000000 0.000000 0.000000 -1.000000 -5.000000 2.000000 0 0 0 0 0.000000 0.000000 0.000000 0.000000
-17.754601 -2.438401 6.705599 1.000000 0.000000 0.000000 0.000000 0.000000 -1.000000 -5.000000 1.000000 0 0 0 0 0.000000 0.000000 0.000000 0.000000
-17.907000 -2.438401 6.705599 -1.000000 0.000000 0.000000 0.000000 0.000000 -1.000000 -5.000000 1.000000 0 0 0 0 0.000000 0.000000 0.000000 0.000000
-17.907000 -4.572001 6.705599 -1.000000 0.000000 0.000000 0.000000 0.000000 -1.000000 -5.000000 2.000000 0 0 0 0 0.000000 0.000000 0.000000 0.000000
-17.907000 -4.572001 5.486400 -1.000000 0.000000 0.000000 0.000000 0.000000 -1.000000 -4.000000 2.000000 0 0 0 0 0.000000 0.000000 0.000000 0.000000
-17.907000 -2.438401 5.486400 -1.000000 0.000000 0.000000 0.000000 0.000000 -1.000000 -4.000000 1.000000 0 0 0 0 0.000000 0.000000 0.000000 0.000000
-14.859000 -1.981197 -14.782800 -1.000000 0.000000 0.000000 0.000000 0.000000 -1.000000 12.000000 1.000000 0 0 0 0 0.000000 0.000000 0.000000 0.000000
-14.859000 -4.114798 -14.782802 -1.000000 0.000000 0.000000 0.000000 0.000000 -1.000000 12.000000 2.000000 0 0 0 0 0.000000 0.000000 0.000000 0.000000
-14.859000 -4.114797 -16.002001 -1.000000 0.000000 0.000000 0.000000 0.000000 -1.000000 13.000000 2.000000 0 0 0 0 0.000000 0.000000 0.000000 0.000000
-14.859000 -1.981197 -16.002001 -1.000000 0.000000 0.000000 0.000000 0.000000 -1.000000 13.000000 1.000000 0 0 0 0 0.000000 0.000000 0.000000 0.000000
-14.706600 -1.981197 -16.002001 1.000000 0.000000 0.000000 0.000000 0.000000 -1.000000 13.000000 1.000000 0 0 0 0 0.000000 0.000000 0.000000 0.000000
-14.706600 -4.114797 -16.002001 1.000000 0.000000 0.000000 0.000000 0.000000 -1.000000 13.000000 2.000000 0 0 0 0 0.000000 0.000000 0.000000 0.000000
-14.706600 -4.114798 -14.782802 1.000000 0.000000 0.000000 0.000000 0.000000 -1.000000 12.000000 2.000000 0 0 0 0 0.000000 0.000000 0.000000 0.000000
-14.706600 -1.981197 -14.782800 1.000000 0.000000 0.000000 0.000000 0.000000 -1.000000 12.000000 1.000000 0 0 0 0 0.000000 0.000000 0.000000 0.000000
-8.763000 -1.981199 -8.534400 -1.000000 0.000000 0.000000 0.000000 -0.000000 1.000000 -7.000000 1.000000 0 0 0 0 0.000000 0.000000 0.000000 0.000000
-8.763000 -4.114799 -8.534400 -1.000000 0.000000 0.000000 0.000000 -0.000000 1.000000 -7.000000 2.000000 0 0 0 0 0.000000 0.000000 0.000000 0.000000
-8.763000 -4.114799 -9.753600 -1.000000 0.000000 0.000000 0.000000 0.000000 1.000000 -8.000000 2.000000 0 0 0 0 0.000000 0.000000 0.000000 0.000000
-8.763000 -1.981198 -9.753600 -1.000000 0.000000 0.000000 0.000000 -0.000000 1.000000 -8.000000 1.000000 0 0 0 0 0.000000 0.000000 0.000000 0.000000
-8.610600 -1.981198 -9.753600 1.000000 0.000000 0.000000 0.000000 -0.000000 1.000000 -8.000000 1.000000 0 0 0 0 0.000000 0.000000 0.000000 0.000000
-8.610600 -4.114799 -9.753600 1.000000 0.000000 0.000000 0.000000 -0.000000 1.000000 -8.000000 2.000000 0 0 0 0 0.000000 0.000000 0.000000 0.000000
-8.610600 -4.114799 -8.534400 1.000000 0.000000 0.000000 0.000000 0.000000 1.000000 -7.000000 2.000000 0 0 0 0 0.000000 0.000000 0.000000 0.000000
-8.610600 -1.981199 -8.534400 1.000000 0.000000 0.000000 0.000000 -0.000000 1.000000 -7.000000 1.000000 0 0 0 0 0.000000 0.000000 0.000000 0.000000
IndexCount: 36
3 1 0
3 2 1
7 5 4
7 6 5
11 9 8
11 10 9
15 13 12
15 14 13
19 17 16
19 18 17
23 21 20
23 22 21