VertexCount: 53
-0.990600 -3.543301 7.296149 -0.000000 -0.000000 1.000000 1.000000 -0.000000 0.000000 -4.187500 19.500000 0 0 0 0 0.000000 0.000000 0.000000 0.000000
-0.990600 -3.771901 7.296149 -0.000000 -0.000000 1.000000 1.000000 -0.000000 0.000000 -4.187500 20.750000 0 0 0 0 0.000000 0.000000 0.000000 0.000000
-1.219200 -3.771901 7.296149 -0.000000 -0.000000 1.000000 1.000000 -0.000000 0.000000 -5.125000 20.750000 0 0 0 0 0.000000 0.000000 0.000000 0.000000
-1.219200 -3.543301 7.296149 -0.000000 -0.000000 1.000000 1.000000 -0.000000 0.000000 -5.125000 19.500000 0 0 0 0 0.000000 0.000000 0.000000 0.000000
-0.952500 -3.505201 7.219949 -0.000000 1.000000 0.000000 1.000000 0.000000 0.000000 -4.031250 -39.354164 0 0 0 0 0.000000 0.000000 0.000000 0.000000
-1.257300 -3.505201 7.219949 -0.000000 1.000000 0.000000 1.000000 0.000000 0.000000 -5.281250 -39.354164 0 0 0 0 0.000000 0.000000 0.000000 0.000000
-1.257300 -3.505201 7.010400 -0.000000 1.000000 0.000000 1.000000 0.000000 0.000000 -5.281250 -38.208332 0 0 0 0 0.000000 0.000000 0.000000 0.000000
-0.952500 -3.505201 7.010400 -0.000000 1.000000 0.000000 1.000000 0.000000 0.000000 -4.031250 -38.208332 0 0 0 0 0.000000 0.000000 0.000000 0.000000
-1.219200 -3.543301 7.296149 -0.894427 -0.000000 0.447215 0.447215 0.000001 0.894427 29.890625 19.500000 0 0 0 0 0.000000 0.000000 0.000000 0.000000
-1.219200 -3.771901 7.296149 -0.894427 -0.000000 0.447215 0.447215 0.000001 0.894427 29.890625 20.750000 0 0 0 0 0.000000 0.000000 0.000000 0.000000
-1.257300 -3.810001 7.219949 -0.894427 -0.000000 0.447215 0.447215 0.000002 0.894427 29.578125 20.958332 0 0 0 0 0.000000 0.000000 0.000000 0.000000
-1.257300 -3.505201 7.219949 -0.894427 -0.000000 0.447215 0.447215 0.000001 0.894427 29.578125 19.291666 0 0 0 0 0.000000 0.000000 0.000000 0.000000
-1.257300 -3.505201 7.219949 -1.000000 -0.000000 -0.000000 -0.000000 -0.000000 1.000000 29.578125 19.291666 0 0 0 0 0.000000 0.000000 0.000000 0.000000
-1.257300 -3.810001 7.219949 -1.000000 -0.000000 -0.000000 -0.000000 -0.000000 1.000000 29.578125 20.958332 0 0 0 0 0.000000 0.000000 0.000000 0.000000
-1.257300 -3.810001 7.162799 -1.000000 -0.000000 -0.000000 -0.000000 -0.000000 1.000000 29.343750 20.958332 0 0 0 0 0.000000 0.000000 0.000000 0.000000
-1.257300 -3.810001 7.067549 -1.000000 -0.000000 -0.000000 -0.000000 -0.000000 1.000000 28.953125 20.958332 0 0 0 0 0.000000 0.000000 0.000000 0.000000
-1.257300 -3.810001 7.010400 -1.000000 -0.000000 -0.000000 -0.000000 -0.000000 1.000000 28.718750 20.958332 0 0 0 0 0.000000 0.000000 0.000000 0.000000
-1.257300 -3.505201 7.010400 -1.000000 -0.000000 -0.000000 -0.000000 -0.000000 1.000000 28.718750 19.291666 0 0 0 0 0.000000 0.000000 0.000000 0.000000
-0.952500 -3.810001 7.067549 0.000000 -1.000000 -0.000000 1.000000 0.000000 0.000000 -4.031250 -38.520832 0 0 0 0 0.000000 0.000000 0.000000 0.000000
-0.952500 -3.810001 7.010400 0.000000 -1.000000 -0.000000 1.000000 0.000000 0.000000 -4.031250 -38.208332 0 0 0 0 0.000000 0.000000 0.000000 0.000000
-1.257300 -3.810001 7.010400 0.000000 -1.000000 -0.000000 1.000000 0.000000 0.000000 -5.281250 -38.208332 0 0 0 0 0.000000 0.000000 0.000000 0.000000
-1.257300 -3.810001 7.067549 0.000000 -1.000000 -0.000000 1.000000 0.000000 0.000000 -5.281250 -38.520832 0 0 0 0 0.000000 0.000000 0.000000 0.000000
-1.181100 -3.810001 7.067549 0.000000 -1.000000 -0.000000 1.000000 0.000000 0.000000 -4.968750 -38.520832 0 0 0 0 0.000000 0.000000 0.000000 0.000000
-1.028700 -3.810001 7.067549 0.000000 -1.000000 -0.000000 -1.000000 -0.000000 -0.000000 -4.343750 -38.520832 0 0 0 0 0.000000 0.000000 0.000000 0.000000
-0.952500 -3.810001 7.162799 0.000000 -1.000000 -0.000000 1.000000 0.000000 0.000000 -4.031250 -39.041664 0 0 0 0 0.000000 0.000000 0.000000 0.000000
-1.028700 -3.810001 7.162799 0.000000 -1.000000 -0.000000 1.000000 0.000000 0.000000 -4.343750 -39.041664 0 0 0 0 0.000000 0.000000 0.000000 0.000000
-1.181100 -3.810001 7.162799 0.000000 -1.000000 -0.000000 1.000000 0.000000 0.000000 -4.968750 -39.041664 0 0 0 0 0.000000 0.000000 0.000000 0.000000
-1.257300 -3.810001 7.162799 0.000000 -1.000000 -0.000000 1.000000 0.000000 0.000000 -5.281250 -39.041664 0 0 0 0 0.000000 0.000000 0.000000 0.000000
-1.257300 -3.810001 7.219949 0.000000 -1.000000 -0.000000 1.000000 0.000000 0.000000 -5.281250 -39.354164 0 0 0 0 0.000000 0.000000 0.000000 0.000000
-0.952500 -3.810001 7.219949 0.000000 -1.000000 -0.000000 1.000000 0.000000 0.000000 -4.031250 -39.354164 0 0 0 0 0.000000 0.000000 0.000000 0.000000
-1.028700 -3.810001 7.162799 0.000000 -1.000000 -0.000000 1.000000 0.000000 0.000000 -4.343750 -39.041664 0 0 0 0 0.000000 0.000000 0.000000 0.000000
-0.952500 -3.810001 7.162799 0.000000 -1.000000 -0.000000 1.000000 0.000000 0.000000 -4.031250 -39.041664 0 0 0 0 0.000000 0.000000 0.000000 0.000000
-1.028700 -3.810001 7.067549 0.000000 -1.000000 -0.000000 1.000000 0.000000 0.000000 -4.343750 -38.520832 0 0 0 0 0.000000 0.000000 0.000000 0.000000
-1.181100 -3.810001 7.162799 0.000000 -1.000000 -0.000000 1.000000 0.000000 0.000000 -4.968750 -39.041664 0 0 0 0 0.000000 0.000000 0.000000 0.000000
-1.257300 -3.810001 7.162799 0.000000 -1.000000 -0.000000 1.000000 0.000000 0.000000 -5.281250 -39.041664 0 0 0 0 0.000000 0.000000 0.000000 0.000000
-0.952500 -3.505201 7.010400 1.000000 0.000000 0.000000 -0.000000 -0.000000 1.000000 28.718750 19.291666 0 0 0 0 0.000000 0.000000 0.000000 0.000000
-0.952500 -3.810001 7.010400 1.000000 0.000000 0.000000 -0.000000 -0.000000 1.000000 28.718750 20.958332 0 0 0 0 0.000000 0.000000 0.000000 0.000000
-0.952500 -3.810001 7.067549 1.000000 0.000000 0.000000 -0.000000 -0.000000 1.000000 28.953125 20.958332 0 0 0 0 0.000000 0.000000 0.000000 0.000000
-0.952500 -3.810001 7.162799 1.000000 0.000000 0.000000 -0.000000 -0.000000 1.000000 29.343750 20.958332 0 0 0 0 0.000000 0.000000 0.000000 0.000000
-0.952500 -3.810001 7.219949 1.000000 0.000000 0.000000 -0.000000 -0.000000 1.000000 29.578125 20.958332 0 0 0 0 0.000000 0.000000 0.000000 0.000000
-0.952500 -3.505201 7.219949 1.000000 0.000000 0.000000 -0.000000 -0.000000 1.000000 29.578125 19.291666 0 0 0 0 0.000000 0.000000 0.000000 0.000000
-0.990600 -3.543301 7.296149 -0.000000 0.894425 0.447218 1.000000 0.000000 0.000000 -4.187500 -39.770832 0 0 0 0 0.000000 0.000000 0.000000 0.000000
-1.219200 -3.543301 7.296149 -0.000000 0.894425 0.447218 1.000000 0.000000 0.000000 -5.125000 -39.770832 0 0 0 0 0.000000 0.000000 0.000000 0.000000
-1.257300 -3.505201 7.219949 -0.000000 0.894425 0.447218 1.000000 0.000000 0.000000 -5.281250 -39.354164 0 0 0 0 0.000000 0.000000 0.000000 0.000000
-0.952500 -3.505201 7.219949 -0.000000 0.894425 0.447218 1.000000 0.000000 0.000000 -4.031250 -39.354164 0 0 0 0 0.000000 0.000000 0.000000 0.000000
-0.952500 -3.810001 7.219949 0.000000 -0.894425 0.447217 1.000000 0.000000 -0.000000 -4.031250 -39.354164 0 0 0 0 0.000000 0.000000 0.000000 0.000000
-1.257300 -3.810001 7.219949 0.000000 -0.894425 0.447217 1.000000 0.000000 -0.000000 -5.281250 -39.354164 0 0 0 0 0.000000 0.000000 0.000000 0.000000
-1.219200 -3.771901 7.296149 0.000000 -0.894425 0.447217 1.000000 0.000000 -0.000000 -5.125000 -39.770832 0 0 0 0 0.000000 0.000000 0.000000 0.000000
-0.990600 -3.771901 7.296149 0.000000 -0.894425 0.447217 1.000000 0.000000 -0.000000 -4.187500 -39.770832 0 0 0 0 0.000000 0.000000 0.000000 0.000000
-0.952500 -3.505201 7.219949 0.894427 0.000000 0.447215 -0.447215 0.000002 0.894427 29.578125 19.291666 0 0 0 0 0.000000 0.000000 0.000000 0.000000
-0.952500 -3.810001 7.219949 0.894427 0.000000 0.447215 -0.447215 0.000002 0.894427 29.578125 20.958332 0 0 0 0 0.000000 0.000000 0.000000 0.000000
-0.990600 -3.771901 7.296149 0.894427 0.000000 0.447215 -0.447215 0.000003 0.894427 29.890625 20.750000 0 0 0 0 0.000000 0.000000 0.000000 0.000000
-0.990600 -3.543301 7.296149 0.894427 0.000000 0.447215 -0.447215 0.000002 0.894427 29.890625 19.500000 0 0 0 0 0.000000 0.000000 0.000000 0.000000
IndexCount: 96
3 1 0
3 2 1
7 5 4
7 6 5
11 9 8
11 10 9
12 17 16
12 16 15
12 15 14
14 13 12
18 23 22
22 19 18
32 18 31
22 21 20
22 20 19
34 21 22
34 22 33
32 31 30
24 29 28
24 28 27
27 25 24
27 26 25
35 40 39
35 39 38
35 38 37
37 36 35
44 42 41
44 43 42
48 46 45
48 47 46
52 50 49
52 51 50
