VertexCount: 32
-21.640800 -3.200398 -11.049000 0.000000 -1.000000 -0.000000 1.000000 0.000000 0.000000 -8.875000 3.625000 0 0 0 0 0.000000 0.000000 0.000000 0.000000
-21.602699 -3.200398 -11.049000 0.000000 -1.000000 -0.000000 1.000000 0.000000 0.000000 -8.859375 3.625000 0 0 0 0 0.000000 0.000000 0.000000 0.000000
-21.602699 -3.200398 -12.877800 0.000000 -1.000000 -0.000000 1.000000 0.000000 0.000000 -8.859375 4.225000 0 0 0 0 0.000000 0.000000 0.000000 0.000000
-21.640800 -3.200398 -12.877800 0.000000 -1.000000 -0.000000 1.000000 0.000000 0.000000 -8.875000 4.225000 0 0 0 0 0.000000 0.000000 0.000000 0.000000
-21.640800 -1.981198 -11.049000 -1.000000 0.000000 0.000000 0.000000 -0.000000 1.000000 -4.531250 0.650000 0 0 0 0 0.000000 0.000000 0.000000 0.000000
-21.640800 -3.200398 -11.049000 -1.000000 0.000000 0.000000 0.000000 -0.000000 1.000000 -4.531250 1.050000 0 0 0 0 0.000000 0.000000 0.000000 0.000000
-21.640800 -3.200398 -12.877800 -1.000000 0.000000 0.000000 0.000000 -0.000000 1.000000 -5.281250 1.050000 0 0 0 0 0.000000 0.000000 0.000000 0.000000
-21.640800 -1.981198 -12.877800 -1.000000 0.000000 0.000000 0.000000 -0.000000 1.000000 -5.281250 0.650000 0 0 0 0 0.000000 0.000000 0.000000 0.000000
-21.640800 -2.781298 -8.839200 0.000000 -1.000000 -0.000000 1.000000 0.000000 0.000000 -8.875000 2.900000 0 0 0 0 0.000000 0.000000 0.000000 0.000000
-21.621750 -2.781298 -8.839200 0.000000 -1.000000 -0.000000 1.000000 0.000000 0.000000 -8.867188 2.900000 0 0 0 0 0.000000 0.000000 0.000000 0.000000
-21.621750 -2.781298 -9.753600 0.000000 -1.000000 -0.000000 1.000000 0.000000 0.000000 -8.867188 3.200000 0 0 0 0 0.000000 0.000000 0.000000 0.000000
-21.640800 -2.781298 -9.753600 0.000000 -1.000000 -0.000000 1.000000 0.000000 0.000000 -8.875000 3.200000 0 0 0 0 0.000000 0.000000 0.000000 0.000000
-21.640800 -2.057399 -8.839200 -1.000000 0.000000 0.000000 0.000000 -0.000000 1.000000 -3.625000 0.675000 0 0 0 0 0.000000 0.000000 0.000000 0.000000
-21.640800 -2.781298 -8.839200 -1.000000 0.000000 0.000000 0.000000 -0.000000 1.000000 -3.625000 0.912500 0 0 0 0 0.000000 0.000000 0.000000 0.000000
-21.640800 -2.781298 -9.753600 -1.000000 0.000000 0.000000 0.000000 0.000000 1.000000 -4.000000 0.912500 0 0 0 0 0.000000 0.000000 0.000000 0.000000
-21.640800 -2.057399 -9.753600 -1.000000 0.000000 0.000000 0.000000 -0.000000 1.000000 -4.000000 0.675000 0 0 0 0 0.000000 0.000000 0.000000 0.000000
-21.640800 -3.124198 -9.982200 0.000000 -1.000000 -0.000000 1.000000 0.000000 0.000000 -8.875000 3.275000 0 0 0 0 0.000000 0.000000 0.000000 0.000000
-21.621750 -3.124198 -9.982200 0.000000 -1.000000 -0.000000 1.000000 0.000000 0.000000 -8.867188 3.275000 0 0 0 0 0.000000 0.000000 0.000000 0.000000
-21.621750 -3.124198 -10.706100 0.000000 -1.000000 -0.000000 1.000000 0.000000 0.000000 -8.867188 3.512500 0 0 0 0 0.000000 0.000000 0.000000 0.000000
-21.640800 -3.124198 -10.706100 0.000000 -1.000000 -0.000000 1.000000 0.000000 0.000000 -8.875000 3.512500 0 0 0 0 0.000000 0.000000 0.000000 0.000000
-21.640800 -2.590799 -9.982200 -1.000000 0.000000 0.000000 0.000000 -0.000000 1.000000 -4.093750 0.850000 0 0 0 0 0.000000 0.000000 0.000000 0.000000
-21.640800 -3.124198 -9.982200 -1.000000 0.000000 0.000000 0.000000 -0.000000 1.000000 -4.093750 1.025000 0 0 0 0 0.000000 0.000000 0.000000 0.000000
-21.640800 -3.124198 -10.706100 -1.000000 0.000000 0.000000 0.000000 -0.000000 1.000000 -4.390625 1.025000 0 0 0 0 0.000000 0.000000 0.000000 0.000000
-21.640800 -2.590798 -10.706100 -1.000000 0.000000 0.000000 0.000000 -0.000000 1.000000 -4.390625 0.850000 0 0 0 0 0.000000 0.000000 0.000000 0.000000
-21.640800 -3.124198 -13.639799 0.000000 -1.000000 -0.000000 1.000000 0.000000 0.000000 -8.875000 4.475000 0 0 0 0 0.000000 0.000000 0.000000 0.000000
-21.602699 -3.124198 -13.639799 0.000000 -1.000000 -0.000000 1.000000 0.000000 0.000000 -8.859375 4.475000 0 0 0 0 0.000000 0.000000 0.000000 0.000000
-21.602699 -3.124198 -14.935200 0.000000 -1.000000 -0.000000 1.000000 0.000000 0.000000 -8.859375 4.900000 0 0 0 0 0.000000 0.000000 0.000000 0.000000
-21.640800 -3.124198 -14.935200 0.000000 -1.000000 -0.000000 1.000000 0.000000 0.000000 -8.875000 4.900000 0 0 0 0 0.000000 0.000000 0.000000 0.000000
-21.640800 -2.247898 -13.639799 -1.000000 0.000000 0.000000 0.000000 -0.000000 1.000000 -5.593750 0.737500 0 0 0 0 0.000000 0.000000 0.000000 0.000000
-21.640800 -3.124198 -13.639799 -1.000000 0.000000 0.000000 0.000000 -0.000000 1.000000 -5.593750 1.025000 0 0 0 0 0.000000 0.000000 0.000000 0.000000
-21.640800 -3.124198 -14.935200 -1.000000 0.000000 0.000000 0.000000 -0.000000 1.000000 -6.125000 1.025000 0 0 0 0 0.000000 0.000000 0.000000 0.000000
-21.640800 -2.247898 -14.935200 -1.000000 0.000000 0.000000 0.000000 -0.000000 1.000000 -6.125000 0.737500 0 0 0 0 0.000000 0.000000 0.000000 0.000000
IndexCount: 48
3 1 0
3 2 1
7 5 4
7 6 5
11 9 8
11 10 9
15 13 12
15 14 13
19 17 16
19 18 17
23 21 20
23 22 21
27 25 24
27 26 25
31 29 28
31 30 29