VertexCount: 19
6.400800 -4.572001 7.315199 -0.000000 1.000000 0.000000 1.000000 0.000000 0.000000 7.468750 -8.312500 0 0 0 0 0.000000 0.000000 0.000000 0.000000
6.400800 -4.572001 7.543800 -0.000000 1.000000 0.000000 1.000000 0.000000 0.000000 7.468750 -8.562500 0 0 0 0 0.000000 0.000000 0.000000 0.000000
6.248400 -4.572001 7.543800 -0.000000 1.000000 0.000000 1.000000 0.000000 0.000000 7.302083 -8.562500 0 0 0 0 0.000000 0.000000 0.000000 0.000000
6.248400 -4.572001 7.315199 -0.000000 1.000000 0.000000 1.000000 0.000000 0.000000 7.302083 -8.312500 0 0 0 0 0.000000 0.000000 0.000000 0.000000
5.486400 -4.572001 7.543800 -0.000000 1.000000 0.000000 1.000000 0.000000 0.000000 6.468750 -8.562500 0 0 0 0 0.000000 0.000000 0.000000 0.000000
5.486400 -4.572001 7.315199 -0.000000 1.000000 0.000000 1.000000 0.000000 0.000000 6.468750 -8.312500 0 0 0 0 0.000000 0.000000 0.000000 0.000000
5.638800 -4.572001 7.315199 -0.000000 1.000000 0.000000 1.000000 0.000000 0.000000 6.635417 -8.312500 0 0 0 0 0.000000 0.000000 0.000000 0.000000
5.638800 -4.572001 7.543800 -0.000000 1.000000 0.000000 1.000000 0.000000 0.000000 6.635417 -8.562500 0 0 0 0 0.000000 0.000000 0.000000 0.000000
6.400800 -4.572001 4.724400 -0.000000 1.000000 0.000000 1.000000 0.000000 0.000000 7.468750 -5.479167 0 0 0 0 0.000000 0.000000 0.000000 0.000000
6.248400 -4.572001 4.724400 -0.000000 1.000000 0.000000 1.000000 0.000000 0.000000 7.302083 -5.479167 0 0 0 0 0.000000 0.000000 0.000000 0.000000
6.286500 -4.572001 4.724400 -0.000000 1.000000 0.000000 -1.000000 -0.000000 -0.000000 7.343750 -5.479167 0 0 0 0 0.000000 0.000000 0.000000 0.000000
6.286500 -4.572001 4.724400 -0.000000 1.000000 0.000000 1.000000 0.000000 0.000000 7.343750 -5.479167 0 0 0 0 0.000000 0.000000 0.000000 0.000000
6.248400 -4.572001 4.495800 -0.000000 1.000000 0.000000 1.000000 0.000000 0.000000 7.302083 -5.229167 0 0 0 0 0.000000 0.000000 0.000000 0.000000
6.286500 -4.572001 4.495800 -0.000000 1.000000 0.000000 1.000000 0.000000 0.000000 7.343750 -5.229167 0 0 0 0 0.000000 0.000000 0.000000 0.000000
5.486400 -4.572001 4.724400 -0.000000 1.000000 0.000000 1.000000 0.000000 0.000000 6.468750 -5.479167 0 0 0 0 0.000000 0.000000 0.000000 0.000000
5.600700 -4.572001 4.724400 -0.000000 1.000000 0.000000 1.000000 0.000000 0.000000 6.593750 -5.479167 0 0 0 0 0.000000 0.000000 0.000000 0.000000
5.638800 -4.572001 4.724400 -0.000000 1.000000 0.000000 1.000000 0.000000 0.000000 6.635417 -5.479167 0 0 0 0 0.000000 0.000000 0.000000 0.000000
5.600700 -4.572001 4.495800 -0.000000 1.000000 0.000000 1.000000 0.000000 0.000000 6.593750 -5.229167 0 0 0 0 0.000000 0.000000 0.000000 0.000000
5.638800 -4.572001 4.495800 -0.000000 1.000000 0.000000 1.000000 0.000000 0.000000 6.635417 -5.229167 0 0 0 0 0.000000 0.000000 0.000000 0.000000
IndexCount: 42
3 1 0
3 0 8
3 2 1
8 9 3
8 10 9
13 12 9
13 9 11
7 5 4
7 6 5
5 6 16
5 16 15
15 14 5
16 18 17
16 17 15
