VertexCount: 24
4.152899 -0.571501 10.058401 -1.000000 -0.000000 -0.000000 -0.000000 -0.000000 1.000000 16.531250 0.343750 0 0 0 0 0.000000 0.000000 0.000000 0.000000
4.152899 -0.647701 10.058401 -1.000000 -0.000000 -0.000000 -0.000000 -0.000000 1.000000 16.531250 0.468750 0 0 0 0 0.000000 0.000000 0.000000 0.000000
4.152899 -0.647701 9.906001 -1.000000 -0.000000 -0.000000 -0.000000 -0.000001 1.000000 16.281250 0.468750 0 0 0 0 0.000000 0.000000 0.000000 0.000000
4.152899 -0.571501 9.906001 -1.000000 -0.000000 -0.000000 -0.000000 -0.000000 1.000000 16.281250 0.343750 0 0 0 0 0.000000 0.000000 0.000000 0.000000
4.190999 -0.533401 10.096500 -0.707116 -0.000000 0.707097 0.707098 -0.000001 0.707116 17.406250 0.281250 0 0 0 0 0.000000 0.000000 0.000000 0.000000
4.190999 -0.685801 10.096500 -0.707116 -0.000000 0.707097 0.707098 -0.000001 0.707116 17.406250 0.531250 0 0 0 0 0.000000 0.000000 0.000000 0.000000
4.152899 -0.647701 10.058401 -0.707116 -0.000000 0.707097 0.707098 0.000001 0.707116 17.343750 0.468750 0 0 0 0 0.000000 0.000000 0.000000 0.000000
4.152899 -0.571501 10.058401 -0.707116 -0.000000 0.707097 0.707098 -0.000001 0.707116 17.343750 0.343750 0 0 0 0 0.000000 0.000000 0.000000 0.000000
4.190999 -0.533401 10.096500 -0.707108 0.707105 0.000000 0.707105 0.707108 -0.000002 6.906250 -16.906250 0 0 0 0 0.000000 0.000000 0.000000 0.000000
4.152899 -0.571501 10.058401 -0.707108 0.707105 0.000000 0.707105 0.707108 -0.000002 6.843750 -16.843750 0 0 0 0 0.000000 0.000000 0.000000 0.000000
4.152899 -0.571501 9.906001 -0.707108 0.707105 0.000000 0.707105 0.707108 -0.000011 6.843750 -16.593750 0 0 0 0 0.000000 0.000000 0.000000 0.000000
4.190999 -0.533401 9.867900 -0.707108 0.707105 0.000000 0.707105 0.707108 -0.000002 6.906250 -16.531250 0 0 0 0 0.000000 0.000000 0.000000 0.000000
4.152899 -0.571501 9.906001 -0.707114 0.000000 -0.707100 -0.707100 -0.000000 0.707114 16.812500 0.343750 0 0 0 0 0.000000 0.000000 0.000000 0.000000
4.152899 -0.647701 9.906001 -0.707114 0.000000 -0.707100 -0.707100 -0.000000 0.707114 16.812500 0.468750 0 0 0 0 0.000000 0.000000 0.000000 0.000000
4.190999 -0.685801 9.867900 -0.707114 0.000000 -0.707100 -0.707100 -0.000000 0.707114 16.750000 0.531250 0 0 0 0 0.000000 0.000000 0.000000 0.000000
4.190999 -0.533401 9.867900 -0.707114 0.000000 -0.707100 -0.707100 -0.000000 0.707114 16.750000 0.281250 0 0 0 0 0.000000 0.000000 0.000000 0.000000
4.190999 -0.685801 9.867900 -0.707108 -0.707105 -0.000000 0.707105 -0.707108 -0.000009 6.906250 -16.781250 0 0 0 0 0.000000 0.000000 0.000000 0.000000
4.152899 -0.647701 9.906001 -0.707108 -0.707105 -0.000000 0.707105 -0.707108 -0.000009 6.843750 -16.843750 0 0 0 0 0.000000 0.000000 0.000000 0.000000
4.152899 -0.647701 10.058401 -0.707108 -0.707105 -0.000000 0.707105 -0.707108 -0.000000 6.843750 -17.093750 0 0 0 0 0.000000 0.000000 0.000000 0.000000
4.190999 -0.685801 10.096500 -0.707108 -0.707105 -0.000000 0.707105 -0.707108 -0.000009 6.906250 -17.156250 0 0 0 0 0.000000 0.000000 0.000000 0.000000
-6.400799 -3.371849 -7.581901 -0.000001 1.000000 0.000000 1.000000 0.000001 0.000000 -10.000000 12.343750 0 0 0 0 0.000000 0.000000 0.000000 0.000000
-6.743699 -3.371849 -7.391401 -0.000001 1.000000 0.000000 1.000000 0.000001 0.000000 -10.562500 12.031250 0 0 0 0 0.000000 0.000000 0.000000 0.000000
-6.858000 -3.371849 -7.581901 -0.000001 1.000000 0.000000 1.000000 0.000001 0.000000 -10.750000 12.343750 0 0 0 0 0.000000 0.000000 0.000000 0.000000
-6.515100 -3.371849 -7.772401 -0.000001 1.000000 0.000000 1.000000 0.000001 0.000000 -10.187500 12.656250 0 0 0 0 0.000000 0.000000 0.000000 0.000000
IndexCount: 36
3 1 0
3 2 1
7 5 4
7 6 5
11 9 8
11 10 9
15 13 12
15 14 13
19 17 16
19 18 17
23 21 20
23 22 21
