VertexCount: 20
3.657600 -3.600451 4.381500 0.000000 -1.000000 -0.000000 1.000000 0.000000 0.000000 5.750000 -6.781250 0 0 0 0 0.000000 0.000000 0.000000 0.000000
3.771900 -3.600451 4.381500 0.000000 -1.000000 -0.000000 1.000000 0.000000 0.000000 5.937500 -6.781250 0 0 0 0 0.000000 0.000000 0.000000 0.000000
3.771900 -3.600451 4.229100 0.000000 -1.000000 -0.000000 1.000000 0.000000 0.000000 5.937500 -6.531250 0 0 0 0 0.000000 0.000000 0.000000 0.000000
3.657600 -3.600451 4.229100 0.000000 -1.000000 -0.000000 1.000000 0.000000 0.000000 5.750000 -6.531250 0 0 0 0 0.000000 0.000000 0.000000 0.000000
3.657600 -3.409950 4.381500 -1.000000 0.000000 0.000000 0.000000 0.000000 1.000000 14.062500 12.000000 0 0 0 0 0.000000 0.000000 0.000000 0.000000
3.657600 -3.600451 4.381500 -1.000000 0.000000 0.000000 0.000000 0.000000 1.000000 14.062500 12.625000 0 0 0 0 0.000000 0.000000 0.000000 0.000000
3.657600 -3.600451 4.229100 -1.000000 0.000000 0.000000 0.000000 0.000000 1.000000 13.562500 12.625000 0 0 0 0 0.000000 0.000000 0.000000 0.000000
3.657600 -3.409950 4.229100 -1.000000 0.000000 0.000000 0.000000 0.000000 1.000000 13.562500 12.000000 0 0 0 0 0.000000 0.000000 0.000000 0.000000
3.771900 -3.409950 4.229100 1.000000 0.000000 0.000000 0.000000 0.000000 1.000000 6.531250 5.093750 0 0 0 0 0.000000 0.000000 0.000000 0.000000
3.771900 -3.600451 4.229100 1.000000 0.000000 0.000000 0.000000 0.000000 1.000000 6.531250 5.406250 0 0 0 0 0.000000 0.000000 0.000000 0.000000
3.771900 -3.600451 4.381500 1.000000 0.000000 0.000000 0.000000 0.000000 1.000000 6.781250 5.406250 0 0 0 0 0.000000 0.000000 0.000000 0.000000
3.771900 -3.409950 4.381500 1.000000 0.000000 0.000000 0.000000 0.000000 1.000000 6.781250 5.093750 0 0 0 0 0.000000 0.000000 0.000000 0.000000
-0.933450 -3.962401 6.743699 -1.000000 0.000000 0.000000 0.000000 0.000000 1.000000 22.000000 12.000000 0 0 0 0 0.000000 0.000000 0.000000 0.000000
-0.933450 -4.038601 6.743699 -1.000000 0.000000 0.000000 0.000000 0.000000 1.000000 22.000000 12.250000 0 0 0 0 0.000000 0.000000 0.000000 0.000000
-0.933450 -4.038601 6.629399 -1.000000 0.000000 0.000000 0.000000 0.000000 1.000000 21.625000 12.250000 0 0 0 0 0.000000 0.000000 0.000000 0.000000
-0.933450 -3.962401 6.629399 -1.000000 0.000000 0.000000 0.000000 0.000000 1.000000 21.625000 12.000000 0 0 0 0 0.000000 0.000000 0.000000 0.000000
3.924300 -3.676650 1.066799 -0.707106 -0.000000 0.707107 0.707107 0.000000 0.707106 3.000000 13.000000 0 0 0 0 0.000000 0.000000 0.000000 0.000000
3.924300 -3.924300 1.066799 -0.707106 -0.000000 0.707107 0.707107 0.000000 0.707106 3.000000 13.812500 0 0 0 0 0.000000 0.000000 0.000000 0.000000
3.810000 -3.924300 0.952499 -0.707106 -0.000000 0.707107 0.707107 0.000000 0.707106 2.625000 13.812500 0 0 0 0 0.000000 0.000000 0.000000 0.000000
3.810000 -3.676650 0.952499 -0.707106 -0.000000 0.707107 0.707107 0.000000 0.707106 2.625000 13.000000 0 0 0 0 0.000000 0.000000 0.000000 0.000000
IndexCount: 30
3 1 0
3 2 1
7 5 4
7 6 5
11 9 8
11 10 9
15 13 12
15 14 13
19 17 16
19 18 17