VertexCount: 16
5.638800 -3.352801 7.543799 -1.000000 0.000000 0.000000 0.000000 -0.000000 1.000000 1.993750 1.492188 0 0 0 0 0.000000 0.000000 0.000000 0.000000
5.638800 -4.572001 7.543799 -1.000000 0.000000 0.000000 0.000000 -0.000000 1.000000 1.993750 1.992188 0 0 0 0 0.000000 0.000000 0.000000 0.000000
5.638800 -4.572001 4.495800 -1.000000 0.000000 0.000000 0.000000 -0.000000 1.000000 0.993750 1.992188 0 0 0 0 0.000000 0.000000 0.000000 0.000000
5.638800 -3.352801 4.495800 -1.000000 0.000000 0.000000 0.000000 -0.000000 1.000000 0.993750 1.492188 0 0 0 0 0.000000 0.000000 0.000000 0.000000
6.248400 -3.352801 4.495800 1.000000 0.000000 0.000000 0.000000 -0.000000 1.000000 0.993750 1.492188 0 0 0 0 0.000000 0.000000 0.000000 0.000000
6.248400 -4.572001 4.495800 1.000000 0.000000 0.000000 0.000000 -0.000000 1.000000 0.993750 1.992188 0 0 0 0 0.000000 0.000000 0.000000 0.000000
6.248400 -4.572001 7.543799 1.000000 0.000000 0.000000 0.000000 -0.000000 1.000000 1.993750 1.992188 0 0 0 0 0.000000 0.000000 0.000000 0.000000
6.248400 -3.352801 7.543799 1.000000 0.000000 0.000000 0.000000 -0.000000 1.000000 1.993750 1.492188 0 0 0 0 0.000000 0.000000 0.000000 0.000000
5.638800 -2.133601 7.543799 -1.000000 0.000000 0.000000 0.000000 -0.000000 1.000000 1.993750 0.992188 0 0 0 0 0.000000 0.000000 0.000000 0.000000
5.638800 -2.133601 4.495800 -1.000000 0.000000 0.000000 0.000000 -0.000000 1.000000 0.993750 0.992188 0 0 0 0 0.000000 0.000000 0.000000 0.000000
6.248400 -2.133601 4.495800 1.000000 0.000000 0.000000 0.000000 -0.000000 1.000000 0.993750 0.992188 0 0 0 0 0.000000 0.000000 0.000000 0.000000
6.248400 -2.133601 7.543799 1.000000 0.000000 0.000000 0.000000 -0.000000 1.000000 1.993750 0.992188 0 0 0 0 0.000000 0.000000 0.000000 0.000000
14.973299 -4.572001 7.543799 -1.000000 0.000000 0.000000 0.000000 -0.000000 1.000000 1.993750 1.992188 0 0 0 0 0.000000 0.000000 0.000000 0.000000
14.973299 -4.572001 4.495800 -1.000000 0.000000 0.000000 0.000000 -0.000000 1.000000 0.993750 1.992188 0 0 0 0 0.000000 0.000000 0.000000 0.000000
14.973299 -2.133601 4.495800 -1.000000 0.000000 0.000000 0.000000 -0.000000 1.000000 0.993750 0.992188 0 0 0 0 0.000000 0.000000 0.000000 0.000000
14.973299 -2.133601 7.543799 -1.000000 0.000000 0.000000 0.000000 -0.000000 1.000000 1.993750 0.992188 0 0 0 0 0.000000 0.000000 0.000000 0.000000
IndexCount: 30
3 1 0
9 3 0
9 0 8
3 2 1
7 5 4
11 7 4
11 4 10
7 6 5
15 13 12
15 14 13