VertexCount: 6
15.697198 -2.133600 7.315200 -1.000000 -0.000000 -0.000000 -0.000000 -0.000000 1.000000 11.656250 3.312500 0 0 0 0 0.000000 0.000000 0.000000 0.000000
15.697198 -2.133600 7.543800 -1.000000 -0.000000 -0.000000 -0.000000 -0.000000 1.000000 12.031250 3.312500 0 0 0 0 0.000000 0.000000 0.000000 0.000000
15.697198 -4.572000 7.543800 -1.000000 -0.000000 -0.000000 -0.000000 -0.000001 1.000000 12.031250 7.312500 0 0 0 0 0.000000 0.000000 0.000000 0.000000
15.697198 -4.572000 7.315200 -1.000000 -0.000000 -0.000000 -0.000000 -0.000000 1.000000 11.656250 7.312500 0 0 0 0 0.000000 0.000000 0.000000 0.000000
15.697200 -4.572000 4.495800 -1.000000 -0.000000 -0.000000 -0.000000 -0.000000 1.000000 7.031250 7.312500 0 0 0 0 0.000000 0.000000 0.000000 0.000000
15.697200 -2.133599 4.495801 -1.000000 -0.000000 -0.000000 -0.000000 -0.000000 1.000000 7.031250 3.312500 0 0 0 0 0.000000 0.000000 0.000000 0.000000
IndexCount: 12
3 2 1
3 1 0
5 4 3
5 3 0
