VertexCount: 29
4.143375 -3.695700 0.942975 0.000001 -1.000000 -0.000000 1.000000 0.000001 0.000000 3.367188 -1.578125 0 0 0 0 0.000000 0.000000 0.000000 0.000000
3.933825 -3.695700 0.733425 0.000001 -1.000000 -0.000000 1.000000 0.000001 0.000000 3.195312 -1.234375 0 0 0 0 0.000000 0.000000 0.000000 0.000000
3.829050 -3.695700 0.838200 0.000001 -1.000000 -0.000000 1.000000 0.000001 0.000001 3.109375 -1.406250 0 0 0 0 0.000000 0.000000 0.000000 0.000000
4.038600 -3.695700 1.047750 0.000001 -1.000000 -0.000000 1.000000 0.000001 0.000000 3.281250 -1.750000 0 0 0 0 0.000000 0.000000 0.000000 0.000000
-9.601200 -3.810002 10.667997 -0.000000 0.948683 -0.316227 1.000000 0.000000 0.000000 -8.968750 -21.000000 0 0 0 0 0.000000 0.000000 0.000000 0.000000
-10.629901 -3.810003 10.667997 -0.000000 0.948683 -0.316227 1.000000 0.000000 0.000000 -10.023438 -21.000000 0 0 0 0 0.000000 0.000000 0.000000 0.000000
-10.629901 -3.962402 10.210798 -0.000000 0.948683 -0.316227 1.000000 0.000000 0.000000 -10.023438 -20.062500 0 0 0 0 0.000000 0.000000 0.000000 0.000000
-9.601200 -3.962402 10.210798 -0.000000 0.948683 -0.316227 1.000000 0.000000 0.000000 -8.968750 -20.062500 0 0 0 0 0.000000 0.000000 0.000000 0.000000
-6.400800 -3.810002 7.296148 -0.316227 0.948683 0.000000 -0.000000 0.000000 -1.000000 -6.839844 14.000000 0 0 0 0 0.000000 0.000000 0.000000 0.000000
-6.400800 -3.810002 7.467599 -0.316227 0.948683 0.000000 -0.000000 0.000000 -1.000000 -7.015625 14.000000 0 0 0 0 0.000000 0.000000 0.000000 0.000000
-6.858000 -3.962402 7.467599 -0.316227 0.948683 0.000000 -0.000000 0.000000 -1.000000 -7.015625 14.937500 0 0 0 0 0.000000 0.000000 0.000000 0.000000
-6.858000 -3.962402 7.296148 -0.316227 0.948683 0.000000 -0.000000 0.000000 -1.000000 -6.839844 14.937500 0 0 0 0 0.000000 0.000000 0.000000 0.000000
-1.143000 -3.962401 6.515100 -0.000000 1.000000 0.000000 1.000000 0.000000 0.000000 -3.000000 -40.949516 0 0 0 0 0.000000 0.000000 0.000000 0.000000
-1.143000 -3.962401 6.686550 -0.000000 1.000000 0.000000 1.000000 0.000000 0.000000 -3.000000 -42.031250 0 0 0 0 0.000000 0.000000 0.000000 0.000000
-1.447800 -3.962401 6.686550 -0.000000 1.000000 0.000000 1.000000 0.000000 0.000000 -4.000000 -42.031250 0 0 0 0 0.000000 0.000000 0.000000 0.000000
-1.447800 -3.962401 6.515100 -0.000000 1.000000 0.000000 1.000000 0.000000 0.000000 -4.000000 -40.949516 0 0 0 0 0.000000 0.000000 0.000000 0.000000
-6.400799 -3.810001 2.895599 -0.316228 0.948683 0.000000 0.000001 0.000000 -1.000000 -2.328125 14.000000 0 0 0 0 0.000000 0.000000 0.000000 0.000000
-6.400800 -3.810001 3.882389 -0.316228 0.948683 0.000000 0.000000 0.000000 -1.000000 -3.339844 14.000000 0 0 0 0 0.000000 0.000000 0.000000 0.000000
-6.858000 -3.962401 3.882389 -0.316228 0.948683 0.000000 0.000000 0.000000 -1.000000 -3.339844 14.937500 0 0 0 0 0.000000 0.000000 0.000000 0.000000
-6.858000 -3.962401 2.895599 -0.316228 0.948683 0.000000 0.000001 0.000000 -1.000000 -2.328125 14.937500 0 0 0 0 0.000000 0.000000 0.000000 0.000000
-10.629901 -3.810003 10.667997 -0.000000 0.948683 -0.316228 1.000000 0.000000 0.000000 -10.023438 -21.000000 0 0 0 0 0.000000 0.000000 0.000000 0.000000
-12.710162 -3.810003 10.667997 -0.000000 0.948683 -0.316228 1.000000 0.000000 0.000000 -12.156252 -21.000000 0 0 0 0 0.000000 0.000000 0.000000 0.000000
-13.487401 -3.810003 10.667997 -0.000000 0.948683 -0.316228 1.000000 0.000000 0.000000 -12.953125 -21.000000 0 0 0 0 0.000000 0.000000 0.000000 0.000000
-13.487401 -3.962403 10.210798 -0.000000 0.948683 -0.316228 1.000000 0.000000 0.000000 -12.953125 -20.062500 0 0 0 0 0.000000 0.000000 0.000000 0.000000
-11.430001 -3.962403 10.210798 -0.000000 0.948683 -0.316228 1.000000 0.000000 -0.000000 -10.843750 -20.062500 0 0 0 0 0.000000 0.000000 0.000000 0.000000
-13.868402 -3.810003 10.667997 -0.000000 0.948683 -0.316228 1.000000 0.000000 -0.000000 -14.125000 -21.000000 0 0 0 0 0.000000 0.000000 0.000000 0.000000
-15.697201 -3.810003 10.667997 -0.000000 0.948683 -0.316228 1.000000 0.000000 -0.000000 -16.000000 -21.000000 0 0 0 0 0.000000 0.000000 0.000000 0.000000
-15.697201 -3.962403 10.210798 -0.000000 0.948683 -0.316228 1.000000 0.000000 0.000000 -16.000000 -20.062500 0 0 0 0 0.000000 0.000000 0.000000 0.000000
-13.868402 -3.962403 10.210798 -0.000000 0.948683 -0.316228 1.000000 0.000000 -0.000000 -14.125000 -20.062500 0 0 0 0 0.000000 0.000000 0.000000 0.000000
IndexCount: 54
3 1 0
3 2 1
7 5 4
7 6 5
20 6 24
20 24 23
20 23 22
22 21 20
11 9 8
18 11 8
18 8 17
11 10 9
19 18 17
19 17 16
15 13 12
15 14 13
28 26 25
28 27 26
