VertexCount: 4
-16.306801 -3.143247 -17.068800 0.000000 0.000000 -1.000000 1.000000 0.000000 0.000000 -26.125000 5.156250 0 0 0 0 0.000000 0.000000 0.000000 0.000000
-16.306801 -3.333747 -17.068800 0.000000 0.000000 -1.000000 1.000000 0.000000 0.000000 -26.125000 5.468750 0 0 0 0 0.000000 0.000000 0.000000 0.000000
-16.192501 -3.333747 -17.068800 0.000000 0.000000 -1.000000 1.000000 0.000000 0.000000 -25.937500 5.468750 0 0 0 0 0.000000 0.000000 0.000000 0.000000
-16.192501 -3.143247 -17.068800 0.000000 0.000000 -1.000000 1.000000 0.000000 0.000000 -25.937500 5.156250 0 0 0 0 0.000000 0.000000 0.000000 0.000000
IndexCount: 6
3 2 1
3 1 0