VertexCount: 51
-4.876801 -0.914402 7.296149 0.000000 -1.000000 -0.000000 1.000000 0.000000 0.000000 -16.000000 -5.687500 0 0 0 0 0.000000 0.000000 0.000000 0.000000
-5.029201 -0.914402 7.296149 0.000000 -1.000000 -0.000000 1.000000 0.000000 0.000000 -16.500000 -5.687500 0 0 0 0 0.000000 0.000000 0.000000 0.000000
-5.029201 -0.914402 7.467599 0.000000 -1.000000 -0.000000 1.000000 0.000000 0.000000 -16.500000 -5.828125 0 0 0 0 0.000000 0.000000 0.000000 0.000000
-4.876801 -0.914402 7.467599 0.000000 -1.000000 -0.000000 1.000000 0.000000 0.000000 -16.000000 -5.828125 0 0 0 0 0.000000 0.000000 0.000000 0.000000
-0.933450 -2.552701 6.705599 0.000000 -1.000000 -0.000000 1.000000 0.000000 0.000000 -0.612500 -1.100000 0 0 0 0 0.000000 0.000000 0.000000 0.000000
-1.066800 -2.552701 6.705599 0.000000 -1.000000 -0.000000 1.000000 0.000000 0.000000 -0.700000 -1.100000 0 0 0 0 0.000000 0.000000 0.000000 0.000000
-1.066800 -2.552701 6.838949 0.000000 -1.000000 -0.000000 1.000000 0.000000 0.000000 -0.700000 -1.121875 0 0 0 0 0.000000 0.000000 0.000000 0.000000
-0.933450 -2.552701 6.838949 0.000000 -1.000000 -0.000000 1.000000 0.000000 0.000000 -0.612500 -1.121875 0 0 0 0 0.000000 0.000000 0.000000 0.000000
-0.933450 -2.552701 5.353050 0.000000 -1.000000 -0.000000 1.000000 0.000000 0.000000 -0.612500 -0.878125 0 0 0 0 0.000000 0.000000 0.000000 0.000000
-1.066800 -2.552701 5.353050 0.000000 -1.000000 -0.000000 1.000000 0.000000 0.000000 -0.700000 -0.878125 0 0 0 0 0.000000 0.000000 0.000000 0.000000
-1.066800 -2.552701 5.486400 0.000000 -1.000000 -0.000000 1.000000 0.000000 0.000000 -0.700000 -0.900000 0 0 0 0 0.000000 0.000000 0.000000 0.000000
-0.933450 -2.552701 5.486400 0.000000 -1.000000 -0.000000 1.000000 0.000000 0.000000 -0.612500 -0.900000 0 0 0 0 0.000000 0.000000 0.000000 0.000000
-5.029201 -0.914401 6.172200 0.000000 -1.000000 -0.000000 1.000000 0.000000 0.000000 -16.500000 -4.890625 0 0 0 0 0.000000 0.000000 0.000000 0.000000
-4.876801 -0.914401 6.172200 0.000000 -1.000000 -0.000000 1.000000 0.000000 0.000000 -16.000000 -4.890625 0 0 0 0 0.000000 0.000000 0.000000 0.000000
-4.876801 -0.914401 5.867399 0.000000 -1.000000 -0.000000 1.000000 0.000000 0.000000 -16.000000 -4.640625 0 0 0 0 0.000000 0.000000 0.000000 0.000000
-5.029201 -0.914401 5.867399 0.000000 -1.000000 -0.000000 1.000000 0.000000 0.000000 -16.500000 -4.640625 0 0 0 0 0.000000 0.000000 0.000000 0.000000
-5.029201 -0.914401 6.019800 0.000000 -1.000000 -0.000000 0.000000 0.000000 -1.000000 -16.500000 -4.765625 0 0 0 0 0.000000 0.000000 0.000000 0.000000
-4.876800 -0.914401 4.572000 0.000000 -1.000000 -0.000000 1.000000 0.000000 -0.000000 -16.000000 -3.578125 0 0 0 0 0.000000 0.000000 0.000000 0.000000
-5.029201 -0.914401 4.572000 0.000000 -1.000000 -0.000000 1.000000 0.000000 -0.000000 -16.500000 -3.578125 0 0 0 0 0.000000 0.000000 0.000000 0.000000
-5.029201 -0.914401 4.876800 0.000000 -1.000000 -0.000000 1.000000 0.000000 0.000000 -16.500000 -3.828125 0 0 0 0 0.000000 0.000000 0.000000 0.000000
-4.876800 -0.914401 4.876800 0.000000 -1.000000 -0.000000 1.000000 0.000000 -0.000000 -16.000000 -3.828125 0 0 0 0 0.000000 0.000000 0.000000 0.000000
-4.876801 -0.914402 7.162799 0.000000 -1.000000 -0.000000 1.000000 0.000000 0.000000 -16.000000 -5.578125 0 0 0 0 0.000000 0.000000 0.000000 0.000000
-5.029201 -0.914402 7.162799 0.000000 -1.000000 -0.000000 1.000000 0.000000 0.000000 -16.500000 -5.578125 0 0 0 0 0.000000 0.000000 0.000000 0.000000
-3.657600 -1.295401 0.761999 -0.000000 -0.554700 0.832050 0.000000 0.832050 0.554700 -4.125000 -2.000000 0 0 0 0 0.000000 0.000000 0.000000 0.000000
-2.438400 -1.295400 0.762000 -0.000000 -0.554700 0.832050 0.000000 0.832050 0.554700 -4.125000 -1.000000 0 0 0 0 0.000000 0.000000 0.000000 0.000000
-2.438400 -1.524000 0.609599 -0.000000 -0.554700 0.832050 0.000000 0.832050 0.554700 -4.875000 -1.000000 0 0 0 0 0.000000 0.000000 0.000000 0.000000
-3.657600 -1.524001 0.609599 -0.000000 -0.554700 0.832050 0.000000 0.832050 0.554700 -4.875000 -2.000000 0 0 0 0 0.000000 0.000000 0.000000 0.000000
0.609600 -1.295400 0.762000 -0.000000 -0.554700 0.832050 -0.000000 0.832050 0.554700 -4.125000 1.000000 0 0 0 0 0.000000 0.000000 0.000000 0.000000
1.828800 -1.295400 0.762000 -0.000000 -0.554700 0.832050 -0.000000 0.832050 0.554700 -4.125000 2.000000 0 0 0 0 0.000000 0.000000 0.000000 0.000000
1.828800 -1.524000 0.609600 -0.000000 -0.554700 0.832050 0.000000 0.832050 0.554700 -4.875000 2.000000 0 0 0 0 0.000000 0.000000 0.000000 0.000000
0.609600 -1.524000 0.609600 -0.000000 -0.554700 0.832050 -0.000000 0.832050 0.554700 -4.875000 1.000000 0 0 0 0 0.000000 0.000000 0.000000 0.000000
-20.726400 0.914397 9.296398 0.000000 -1.000000 -0.000000 -0.000000 -0.000000 1.000000 30.500000 -17.000000 0 0 0 0 0.000000 0.000000 0.000000 0.000000
-20.726400 0.914397 8.991598 0.000000 -1.000000 -0.000000 -0.000000 -0.000000 1.000000 29.500000 -17.000000 0 0 0 0 0.000000 0.000000 0.000000 0.000000
-21.945601 0.914397 8.991598 0.000000 -1.000000 -0.000000 -0.000000 -0.000000 1.000000 29.500000 -18.000000 0 0 0 0 0.000000 0.000000 0.000000 0.000000
-21.945601 0.914396 9.296398 0.000000 -1.000000 -0.000000 -0.000000 -0.000000 1.000000 30.500000 -18.000000 0 0 0 0 0.000000 0.000000 0.000000 0.000000
-20.726400 0.914398 -1.371602 0.000000 -1.000000 -0.000000 -0.000000 -0.000000 1.000000 -4.500000 -17.000000 0 0 0 0 0.000000 0.000000 0.000000 0.000000
-20.726400 0.914398 -1.676402 0.000000 -1.000000 -0.000000 -0.000000 -0.000000 1.000000 -5.500000 -17.000000 0 0 0 0 0.000000 0.000000 0.000000 0.000000
-21.945601 0.914398 -1.676402 0.000000 -1.000000 -0.000000 0.000000 -0.000000 1.000000 -5.500000 -18.000000 0 0 0 0 0.000000 0.000000 0.000000 0.000000
-21.945601 0.914398 -1.371602 0.000000 -1.000000 -0.000000 -0.000000 -0.000000 1.000000 -4.500000 -18.000000 0 0 0 0 0.000000 0.000000 0.000000 0.000000
-20.726400 0.914398 0.761998 0.000000 -1.000000 -0.000000 0.000000 -0.000000 1.000000 2.500000 -17.000000 0 0 0 0 0.000000 0.000000 0.000000 0.000000
-20.726400 0.914398 0.457198 0.000000 -1.000000 -0.000000 0.000000 -0.000000 1.000000 1.500000 -17.000000 0 0 0 0 0.000000 0.000000 0.000000 0.000000
-21.945601 0.914398 0.457198 0.000000 -1.000000 -0.000000 -0.000000 -0.000000 1.000000 1.500000 -18.000000 0 0 0 0 0.000000 0.000000 0.000000 0.000000
-21.945601 0.914398 0.761998 0.000000 -1.000000 -0.000000 0.000000 -0.000000 1.000000 2.500000 -18.000000 0 0 0 0 0.000000 0.000000 0.000000 0.000000
-20.726400 0.914397 7.162798 0.000000 -1.000000 -0.000000 -0.000000 -0.000000 1.000000 23.500000 -17.000000 0 0 0 0 0.000000 0.000000 0.000000 0.000000
-20.726400 0.914397 6.857998 0.000000 -1.000000 -0.000000 -0.000000 -0.000000 1.000000 22.500000 -17.000000 0 0 0 0 0.000000 0.000000 0.000000 0.000000
-21.945601 0.914397 6.857998 0.000000 -1.000000 -0.000000 0.000000 -0.000000 1.000000 22.500000 -18.000000 0 0 0 0 0.000000 0.000000 0.000000 0.000000
-21.945601 0.914397 7.162798 0.000000 -1.000000 -0.000000 -0.000000 -0.000000 1.000000 23.500000 -18.000000 0 0 0 0 0.000000 0.000000 0.000000 0.000000
-20.726400 0.914397 5.029198 0.000000 -1.000000 -0.000000 0.000000 -0.000000 1.000000 16.500000 -17.000000 0 0 0 0 0.000000 0.000000 0.000000 0.000000
-20.726400 0.914397 4.724398 0.000000 -1.000000 -0.000000 0.000000 -0.000000 1.000000 15.500000 -17.000000 0 0 0 0 0.000000 0.000000 0.000000 0.000000
-21.945601 0.914397 4.724398 0.000000 -1.000000 -0.000000 -0.000000 -0.000000 1.000000 15.500000 -18.000000 0 0 0 0 0.000000 0.000000 0.000000 0.000000
-21.945601 0.914397 5.029198 0.000000 -1.000000 -0.000000 0.000000 -0.000000 1.000000 16.500000 -18.000000 0 0 0 0 0.000000 0.000000 0.000000 0.000000
IndexCount: 81
3 1 0
1 21 0
3 2 1
1 22 21
7 5 4
7 6 5
11 9 8
11 10 9
12 16 15
12 15 14
14 13 12
20 18 17
20 19 18
26 24 23
26 25 24
30 28 27
30 29 28
34 32 31
34 33 32
38 36 35
38 37 36
42 40 39
42 41 40
46 44 43
46 45 44
50 48 47
50 49 48
