VertexCount: 9
-5.029201 -1.219201 5.714999 1.000000 0.000000 0.000000 -0.000000 -0.000000 1.000000 1.875000 4.000000 0 0 0 0 0.000000 0.000000 0.000000 0.000000
-5.029201 -1.219201 6.019800 1.000000 0.000000 0.000000 -0.000000 -0.000000 1.000000 2.000000 4.000000 0 0 0 0 0.000000 0.000000 0.000000 0.000000
-5.029201 -0.914401 6.019800 1.000000 0.000000 0.000000 -0.000000 -0.000000 1.000000 2.000000 3.000000 0 0 0 0 0.000000 0.000000 0.000000 0.000000
-5.029201 -0.914401 5.867399 1.000000 0.000000 0.000000 -0.000000 -0.000001 1.000000 1.937500 3.000000 0 0 0 0 0.000000 0.000000 0.000000 0.000000
-5.029201 -0.914401 5.714999 1.000000 0.000000 0.000000 -0.000000 -0.000000 1.000000 1.875000 3.000000 0 0 0 0 0.000000 0.000000 0.000000 0.000000
-5.029201 -0.914401 4.876800 1.000000 0.000000 0.000000 -0.000000 -0.000000 1.000000 1.531250 3.000000 0 0 0 0 0.000000 0.000000 0.000000 0.000000
-5.029201 -0.914401 4.572000 1.000000 0.000000 0.000000 -0.000000 -0.000000 1.000000 1.406250 3.000000 0 0 0 0 0.000000 0.000000 0.000000 0.000000
-5.029201 -0.914401 3.581400 1.000000 0.000000 0.000000 -0.000000 -0.000000 1.000000 1.000000 3.000000 0 0 0 0 0.000000 0.000000 0.000000 0.000000
-5.029201 -1.219201 3.581399 1.000000 0.000000 0.000000 -0.000000 -0.000000 1.000000 1.000000 4.000000 0 0 0 0 0.000000 0.000000 0.000000 0.000000
IndexCount: 21
0 4 3
0 3 2
2 1 0
0 8 7
0 7 6
0 6 5
5 4 0
