VertexCount: 112
2.857500 -1.600200 -20.535900 0.000000 -0.000000 1.000000 1.000000 0.000000 0.000000 2.343750 0.656250 0 0 0 0 0.000000 0.000000 0.000000 0.000000
2.857500 -1.638300 -20.535900 0.000000 -0.000000 1.000000 1.000000 0.000000 0.000000 2.343750 0.671875 0 0 0 0 0.000000 0.000000 0.000000 0.000000
2.705100 -1.638300 -20.535900 0.000000 -0.000000 1.000000 1.000000 0.000000 0.000000 2.218750 0.671875 0 0 0 0 0.000000 0.000000 0.000000 0.000000
2.705100 -1.600200 -20.535900 0.000000 -0.000000 1.000000 1.000000 0.000000 0.000000 2.218750 0.656250 0 0 0 0 0.000000 0.000000 0.000000 0.000000
3.238500 -1.600200 -21.107399 1.000000 0.000000 0.000000 0.000000 0.000000 1.000000 -17.312500 0.656250 0 0 0 0 0.000000 0.000000 0.000000 0.000000
3.238500 -1.638300 -21.107399 1.000000 0.000000 0.000000 0.000000 0.000000 1.000000 -17.312500 0.671875 0 0 0 0 0.000000 0.000000 0.000000 0.000000
3.238500 -1.638300 -20.916901 1.000000 0.000000 0.000000 0.000000 -0.000001 1.000000 -17.156250 0.671875 0 0 0 0 0.000000 0.000000 0.000000 0.000000
3.238500 -1.600200 -20.916901 1.000000 0.000000 0.000000 0.000000 0.000000 1.000000 -17.156250 0.656250 0 0 0 0 0.000000 0.000000 0.000000 0.000000
2.857500 -1.600200 -21.488400 0.000000 0.000000 -1.000000 1.000000 0.000000 0.000000 2.343750 0.656250 0 0 0 0 0.000000 0.000000 0.000000 0.000000
2.705100 -1.600200 -21.488400 0.000000 0.000000 -1.000000 1.000000 0.000000 0.000000 2.218750 0.656250 0 0 0 0 0.000000 0.000000 0.000000 0.000000
2.705100 -1.638300 -21.488400 0.000000 0.000000 -1.000000 1.000000 0.000000 0.000000 2.218750 0.671875 0 0 0 0 0.000000 0.000000 0.000000 0.000000
2.857500 -1.638300 -21.488400 0.000000 0.000000 -1.000000 1.000000 0.000000 0.000000 2.343750 0.671875 0 0 0 0 0.000000 0.000000 0.000000 0.000000
2.324100 -1.600200 -21.107399 -1.000000 0.000000 0.000000 0.000000 0.000000 1.000000 -16.921875 0.656250 0 0 0 0 0.000000 0.000000 0.000000 0.000000
2.324100 -1.600200 -20.916901 -1.000000 0.000000 0.000000 0.000000 0.000000 1.000000 -16.765625 0.656250 0 0 0 0 0.000000 0.000000 0.000000 0.000000
2.324100 -1.638300 -20.916901 -1.000000 0.000000 0.000000 0.000000 -0.000001 1.000000 -16.765625 0.671875 0 0 0 0 0.000000 0.000000 0.000000 0.000000
2.324100 -1.638300 -21.107399 -1.000000 0.000000 0.000000 0.000000 0.000000 1.000000 -16.921875 0.671875 0 0 0 0 0.000000 0.000000 0.000000 0.000000
2.805493 -1.600200 -20.934998 0.000000 1.000000 0.000000 1.000000 -0.000000 0.000074 2.301094 8.585546 0 0 0 0 0.000000 0.000000 0.000000 0.000000
2.810637 -1.600200 -20.894802 0.000000 1.000000 0.000000 1.000000 0.000000 0.000068 2.305312 8.569063 0 0 0 0 0.000000 0.000000 0.000000 0.000000
2.781300 -1.600200 -20.916901 0.000000 1.000000 0.000000 1.000000 -0.000000 0.000074 2.281250 8.578125 0 0 0 0 0.000000 0.000000 0.000000 0.000000
2.857500 -1.600200 -20.535900 -0.000000 1.000000 0.000000 1.000000 0.000000 0.000055 2.343750 8.421875 0 0 0 0 0.000000 0.000000 0.000000 0.000000
2.705100 -1.600200 -20.535900 -0.000000 1.000000 0.000000 1.000000 0.000000 0.000000 2.218750 8.421875 0 0 0 0 0.000000 0.000000 0.000000 0.000000
2.757107 -1.600200 -20.934998 -0.000000 1.000000 0.000000 1.000000 0.000000 0.000055 2.261406 8.585546 0 0 0 0 0.000000 0.000000 0.000000 0.000000
2.781300 -1.600200 -21.107399 0.000000 1.000000 0.000000 1.000000 0.000000 -0.000047 2.281250 8.656250 0 0 0 0 0.000000 0.000000 0.000000 0.000000
2.827401 -1.600200 -21.141882 0.000000 1.000000 0.000000 1.000000 0.000000 -0.000022 2.319062 8.670391 0 0 0 0 0.000000 0.000000 0.000000 0.000000
2.821686 -1.600200 -21.077112 0.000000 1.000000 0.000000 1.000000 0.000000 -0.000047 2.314375 8.643827 0 0 0 0 0.000000 0.000000 0.000000 0.000000
2.740914 -1.600200 -21.077112 -0.000000 1.000000 0.000000 1.000000 0.000000 0.000029 2.248125 8.643827 0 0 0 0 0.000000 0.000000 0.000000 0.000000
2.705100 -1.600200 -21.488400 -0.000000 1.000000 0.000000 1.000000 0.000000 0.000000 2.218750 8.812500 0 0 0 0 0.000000 0.000000 0.000000 0.000000
2.857500 -1.600200 -21.488400 -0.000000 1.000000 0.000000 1.000000 0.000000 0.000029 2.343750 8.812500 0 0 0 0 0.000000 0.000000 0.000000 0.000000
2.705100 -1.600200 -21.050251 -0.000000 1.000000 0.000000 1.000000 0.000000 0.000008 2.609375 8.632812 0 0 0 0 0.000000 0.000000 0.000000 0.000000
2.705100 -1.600200 -20.974051 -0.000000 1.000000 0.000000 1.000000 0.000000 0.000008 2.609375 8.601562 0 0 0 0 0.000000 0.000000 0.000000 0.000000
2.705100 -1.600200 -20.968906 -0.000000 1.000000 0.000000 1.000000 0.000000 0.000011 2.609375 8.599453 0 0 0 0 0.000000 0.000000 0.000000 0.000000
2.572512 -1.600200 -20.950809 -0.000000 1.000000 0.000000 1.000000 0.000000 0.000006 2.500625 8.592031 0 0 0 0 0.000000 0.000000 0.000000 0.000000
2.711005 -1.600200 -21.054630 -0.000000 1.000000 0.000000 1.000000 0.000000 0.000003 2.614219 8.634609 0 0 0 0 0.000000 0.000000 0.000000 0.000000
2.324100 -1.600200 -20.916901 -0.000000 1.000000 0.000000 1.000000 0.000000 0.000003 2.296875 8.578125 0 0 0 0 0.000000 0.000000 0.000000 0.000000
2.324100 -1.600200 -21.107399 -0.000000 1.000000 0.000000 1.000000 0.000000 0.000001 2.296875 8.656250 0 0 0 0 0.000000 0.000000 0.000000 0.000000
2.705100 -1.600200 -21.055437 -0.000000 1.000000 0.000000 0.984812 -0.000000 0.173626 2.609375 8.634939 0 0 0 0 0.000000 0.000000 0.000000 0.000000
2.857500 -1.600200 -21.055395 0.000000 1.000000 0.000000 1.000000 -0.000000 0.000011 2.343750 8.634922 0 0 0 0 0.000000 0.000000 0.000000 0.000000
2.990088 -1.600200 -21.073490 0.000000 1.000000 0.000000 1.000000 -0.000000 0.000008 2.452500 8.642344 0 0 0 0 0.000000 0.000000 0.000000 0.000000
2.857500 -1.600200 -20.974051 0.000000 1.000000 0.000000 1.000000 -0.000000 0.000008 2.343750 8.601562 0 0 0 0 0.000000 0.000000 0.000000 0.000000
2.857500 -1.600200 -21.050251 0.000000 1.000000 0.000000 1.000000 -0.000000 0.000011 2.343750 8.632812 0 0 0 0 0.000000 0.000000 0.000000 0.000000
3.238500 -1.600200 -21.107399 0.000000 1.000000 0.000000 1.000000 -0.000000 0.000003 2.656250 8.656250 0 0 0 0 0.000000 0.000000 0.000000 0.000000
3.238500 -1.600200 -20.916901 0.000000 1.000000 0.000000 1.000000 -0.000000 0.000001 2.656250 8.578125 0 0 0 0 0.000000 0.000000 0.000000 0.000000
2.851594 -1.600200 -20.969669 0.000000 1.000000 0.000000 1.000000 -0.000000 0.000003 2.338906 8.599766 0 0 0 0 0.000000 0.000000 0.000000 0.000000
2.827401 -1.638300 -21.141882 0.000000 -1.000000 -0.000000 1.000000 -0.000000 0.000003 2.319062 8.670391 0 0 0 0 0.000000 0.000000 0.000000 0.000000
2.857500 -1.638300 -21.488400 0.000000 -1.000000 -0.000000 1.000000 -0.000000 0.000029 2.343750 8.812500 0 0 0 0 0.000000 0.000000 0.000000 0.000000
2.705100 -1.638300 -21.488400 0.000000 -1.000000 -0.000000 1.000000 0.000000 0.000000 2.218750 8.812500 0 0 0 0 0.000000 0.000000 0.000000 0.000000
2.740914 -1.638300 -21.077112 0.000000 -1.000000 -0.000000 1.000000 -0.000000 0.000029 2.248125 8.643827 0 0 0 0 0.000000 0.000000 0.000000 0.000000
2.705100 -1.638300 -21.050251 -0.000001 -1.000000 -0.000000 1.000000 -0.000001 0.000095 2.609375 8.632812 0 0 0 0 0.000000 0.000000 0.000000 0.000000
2.711005 -1.638300 -21.054630 -0.000001 -1.000000 -0.000000 1.000000 -0.000001 0.000185 2.614219 8.634609 0 0 0 0 0.000000 0.000000 0.000000 0.000000
2.705100 -1.638300 -21.055437 -0.000001 -1.000000 -0.000000 1.000000 -0.000001 0.000123 2.609375 8.634939 0 0 0 0 0.000000 0.000000 0.000000 0.000000
2.711005 -1.600200 -21.054630 0.135135 0.000000 -0.990827 0.990827 0.000000 0.135135 2.614219 0.656250 0 0 0 0 0.000000 0.000000 0.000000 0.000000
2.705100 -1.600200 -21.055437 0.135135 0.000000 -0.990827 0.990827 0.000000 0.135135 2.609375 0.656250 0 0 0 0 0.000000 0.000000 0.000000 0.000000
2.705100 -1.638300 -21.055437 0.135135 0.000000 -0.990827 0.990827 0.000000 0.135135 2.609375 0.671875 0 0 0 0 0.000000 0.000000 0.000000 0.000000
2.711005 -1.638300 -21.054630 0.135135 0.000000 -0.990827 0.990827 0.000000 0.135135 2.614219 0.671875 0 0 0 0 0.000000 0.000000 0.000000 0.000000
2.827401 -1.638300 -21.141882 0.996249 -0.000000 0.086535 -0.086988 0.000000 0.996209 -17.340782 0.671875 0 0 0 0 0.000000 0.000000 0.000000 0.000000
2.827401 -1.600200 -21.141882 0.996249 -0.000000 0.086535 -0.086988 0.000000 0.996209 -17.340782 0.656250 0 0 0 0 0.000000 0.000000 0.000000 0.000000
2.857500 -1.600200 -21.488400 0.996249 -0.000000 0.086535 -0.086535 0.000000 0.996249 -17.625000 0.656250 0 0 0 0 0.000000 0.000000 0.000000 0.000000
2.857500 -1.638300 -21.488400 0.996249 -0.000000 0.086535 -0.086535 0.000000 0.996249 -17.625000 0.671875 0 0 0 0 0.000000 0.000000 0.000000 0.000000
2.705100 -1.600200 -21.488400 -0.996230 -0.000000 0.086749 0.086749 0.000000 0.996230 -17.625000 0.656250 0 0 0 0 0.000000 0.000000 0.000000 0.000000
2.740914 -1.600200 -21.077112 -0.996230 -0.000000 0.086749 0.086749 0.000000 0.996230 -17.287657 0.656250 0 0 0 0 0.000000 0.000000 0.000000 0.000000
2.740914 -1.638300 -21.077112 -0.996230 -0.000000 0.086749 0.086749 0.000000 0.996230 -17.287657 0.671875 0 0 0 0 0.000000 0.000000 0.000000 0.000000
2.705100 -1.638300 -21.488400 -0.996230 -0.000000 0.086749 0.086749 0.000000 0.996230 -17.625000 0.671875 0 0 0 0 0.000000 0.000000 0.000000 0.000000
2.757107 -1.600200 -20.934998 -0.991616 0.000000 -0.129218 -0.129218 -0.000000 0.991616 -17.171093 0.656250 0 0 0 0 0.000000 0.000000 0.000000 0.000000
2.705100 -1.600200 -20.535900 -0.991616 0.000000 -0.129218 -0.129218 -0.000000 0.991616 -16.843750 0.656250 0 0 0 0 0.000000 0.000000 0.000000 0.000000
2.705100 -1.638300 -20.535900 -0.991616 0.000000 -0.129218 -0.129218 -0.000000 0.991616 -16.843750 0.671875 0 0 0 0 0.000000 0.000000 0.000000 0.000000
2.757107 -1.638300 -20.934998 -0.991616 0.000000 -0.129218 -0.129218 -0.000000 0.991616 -17.171093 0.671875 0 0 0 0 0.000000 0.000000 0.000000 0.000000
3.238500 -1.638300 -21.107399 0.000000 -1.000000 -0.000000 1.000000 -0.000000 0.000002 2.656250 8.656250 0 0 0 0 0.000000 0.000000 0.000000 0.000000
2.990088 -1.638300 -21.073490 0.000000 -1.000000 -0.000000 1.000000 -0.000000 0.000004 2.452500 8.642344 0 0 0 0 0.000000 0.000000 0.000000 0.000000
2.851594 -1.638300 -20.969669 0.000000 -1.000000 -0.000000 1.000000 -0.000000 0.000000 2.338906 8.599766 0 0 0 0 0.000000 0.000000 0.000000 0.000000
3.238500 -1.638300 -20.916901 0.000000 -1.000000 -0.000000 1.000000 -0.000000 0.000002 2.656250 8.578125 0 0 0 0 0.000000 0.000000 0.000000 0.000000
2.857500 -1.638300 -20.974051 -0.000000 -1.000000 -0.000000 1.000000 -0.000000 0.000008 2.343750 8.601562 0 0 0 0 0.000000 0.000000 0.000000 0.000000
2.857500 -1.638300 -21.055395 -0.000000 -1.000000 -0.000000 1.000000 -0.000000 0.000011 2.343750 8.634922 0 0 0 0 0.000000 0.000000 0.000000 0.000000
2.857500 -1.638300 -21.050251 -0.000000 -1.000000 -0.000000 1.000000 -0.000000 0.000008 2.343750 8.632812 0 0 0 0 0.000000 0.000000 0.000000 0.000000
2.821686 -1.638300 -21.077112 -0.000000 -1.000000 -0.000000 1.000000 -0.000000 -0.000047 2.314375 8.643827 0 0 0 0 0.000000 0.000000 0.000000 0.000000
2.781300 -1.638300 -21.107399 -0.000000 -1.000000 -0.000000 1.000000 -0.000000 -0.000047 2.281250 8.656250 0 0 0 0 0.000000 0.000000 0.000000 0.000000
2.810637 -1.638300 -20.894802 0.000000 -1.000000 -0.000000 1.000000 0.000000 0.000062 2.305312 8.569063 0 0 0 0 0.000000 0.000000 0.000000 0.000000
2.757107 -1.638300 -20.934998 0.000000 -1.000000 -0.000000 1.000000 0.000000 0.000056 2.261406 8.585546 0 0 0 0 0.000000 0.000000 0.000000 0.000000
2.705100 -1.638300 -20.535900 0.000000 -1.000000 -0.000000 1.000000 0.000000 0.000000 2.218750 8.421875 0 0 0 0 0.000000 0.000000 0.000000 0.000000
2.857500 -1.638300 -20.535900 0.000000 -1.000000 -0.000000 1.000000 0.000000 0.000056 2.343750 8.421875 0 0 0 0 0.000000 0.000000 0.000000 0.000000
2.781300 -1.638300 -20.916901 0.000000 -1.000000 -0.000000 1.000000 -0.000000 0.000074 2.281250 8.578125 0 0 0 0 0.000000 0.000000 0.000000 0.000000
2.805493 -1.638300 -20.934998 0.000000 -1.000000 -0.000000 1.000000 -0.000000 0.000074 2.301094 8.585546 0 0 0 0 0.000000 0.000000 0.000000 0.000000
2.805493 -1.600200 -20.934998 0.991616 0.000000 -0.129218 0.129218 -0.000000 0.991616 -17.171093 0.656250 0 0 0 0 0.000000 0.000000 0.000000 0.000000
2.805493 -1.638300 -20.934998 0.991616 0.000000 -0.129218 0.129218 -0.000000 0.991616 -17.171093 0.671875 0 0 0 0 0.000000 0.000000 0.000000 0.000000
2.857500 -1.638300 -20.535900 0.991616 0.000000 -0.129218 0.129218 -0.000000 0.991616 -16.843750 0.671875 0 0 0 0 0.000000 0.000000 0.000000 0.000000
2.857500 -1.600200 -20.535900 0.991616 0.000000 -0.129218 0.129218 -0.000000 0.991616 -16.843750 0.656250 0 0 0 0 0.000000 0.000000 0.000000 0.000000
2.990088 -1.600200 -21.073490 -0.135249 0.000000 -0.990812 0.990812 0.000000 -0.135246 2.452500 0.656250 0 0 0 0 0.000000 0.000000 0.000000 0.000000
2.990088 -1.638300 -21.073490 -0.135249 0.000000 -0.990812 0.990812 0.000000 -0.135246 2.452500 0.671875 0 0 0 0 0.000000 0.000000 0.000000 0.000000
3.238500 -1.638300 -21.107399 -0.135249 0.000000 -0.990812 0.990812 0.000000 -0.135249 2.656250 0.671875 0 0 0 0 0.000000 0.000000 0.000000 0.000000
3.238500 -1.600200 -21.107399 -0.135249 0.000000 -0.990812 0.990812 0.000000 -0.135249 2.656250 0.656250 0 0 0 0 0.000000 0.000000 0.000000 0.000000
2.851594 -1.600200 -20.969669 -0.135135 -0.000000 0.990827 0.990827 0.000000 0.135135 2.338906 0.656250 0 0 0 0 0.000000 0.000000 0.000000 0.000000
3.238500 -1.600200 -20.916901 -0.135135 -0.000000 0.990827 0.990827 0.000000 0.135135 2.656250 0.656250 0 0 0 0 0.000000 0.000000 0.000000 0.000000
3.238500 -1.638300 -20.916901 -0.135135 -0.000000 0.990827 0.990827 0.000000 0.135135 2.656250 0.671875 0 0 0 0 0.000000 0.000000 0.000000 0.000000
2.851594 -1.638300 -20.969669 -0.135135 -0.000000 0.990827 0.990827 0.000000 0.135135 2.338906 0.671875 0 0 0 0 0.000000 0.000000 0.000000 0.000000
2.827401 -1.638300 -21.141882 0.996130 -0.000000 0.087894 -0.086988 0.000000 0.996209 -17.340782 0.671875 0 0 0 0 0.000000 0.000000 0.000000 0.000000
2.821686 -1.638300 -21.077112 0.996130 -0.000000 0.087894 -0.087894 0.000000 0.996130 -17.287657 0.671875 0 0 0 0 0.000000 0.000000 0.000000 0.000000
2.821686 -1.600200 -21.077112 0.996130 -0.000000 0.087894 -0.087894 0.000000 0.996130 -17.287657 0.656250 0 0 0 0 0.000000 0.000000 0.000000 0.000000
2.827401 -1.600200 -21.141882 0.996130 -0.000000 0.087894 -0.086988 0.000000 0.996209 -17.340782 0.656250 0 0 0 0 0.000000 0.000000 0.000000 0.000000
2.857500 -1.600200 -21.055395 -0.135240 0.000000 -0.990813 0.990813 0.000000 -0.135240 2.343750 0.656250 0 0 0 0 0.000000 0.000000 0.000000 0.000000
2.857500 -1.638300 -21.055395 -0.135240 0.000000 -0.990813 0.990813 0.000000 -0.135240 2.343750 0.671875 0 0 0 0 0.000000 0.000000 0.000000 0.000000
2.324100 -1.638300 -21.107399 -0.000000 -1.000000 -0.000000 1.000000 -0.000000 0.000001 2.296875 8.656250 0 0 0 0 0.000000 0.000000 0.000000 0.000000
2.324100 -1.638300 -20.916901 -0.000000 -1.000000 -0.000000 1.000000 -0.000000 -0.000003 2.296875 8.578125 0 0 0 0 0.000000 0.000000 0.000000 0.000000
2.572512 -1.638300 -20.950809 -0.000000 -1.000000 -0.000000 1.000000 0.000000 0.000006 2.500625 8.592031 0 0 0 0 0.000000 0.000000 0.000000 0.000000
2.705100 -1.638300 -20.968906 0.000000 -1.000000 -0.000000 1.000000 0.000000 0.000011 2.609375 8.599453 0 0 0 0 0.000000 0.000000 0.000000 0.000000
2.705100 -1.638300 -20.974051 0.000000 -1.000000 -0.000000 1.000000 0.000000 0.000008 2.609375 8.601562 0 0 0 0 0.000000 0.000000 0.000000 0.000000
2.324100 -1.600200 -21.107399 0.135135 0.000000 -0.990827 0.990827 -0.000000 0.135135 2.296875 0.656250 0 0 0 0 0.000000 0.000000 0.000000 0.000000
2.324100 -1.638300 -21.107399 0.135135 0.000000 -0.990827 0.990827 -0.000000 0.135135 2.296875 0.671875 0 0 0 0 0.000000 0.000000 0.000000 0.000000
2.705100 -1.600200 -20.968906 0.135246 -0.000000 0.990812 0.990812 0.000000 -0.135246 2.609375 0.656250 0 0 0 0 0.000000 0.000000 0.000000 0.000000
2.705100 -1.638300 -20.968906 0.135246 -0.000000 0.990812 0.990812 0.000000 -0.135246 2.609375 0.671875 0 0 0 0 0.000000 0.000000 0.000000 0.000000
2.572512 -1.638300 -20.950809 0.135246 -0.000000 0.990812 0.990812 0.000000 -0.135246 2.500625 0.671875 0 0 0 0 0.000000 0.000000 0.000000 0.000000
2.324100 -1.638300 -20.916901 0.135246 -0.000000 0.990812 0.990812 -0.000000 -0.135246 2.296875 0.671875 0 0 0 0 0.000000 0.000000 0.000000 0.000000
2.324100 -1.600200 -20.916901 0.135246 -0.000000 0.990812 0.990812 0.000000 -0.135246 2.296875 0.656250 0 0 0 0 0.000000 0.000000 0.000000 0.000000
2.572512 -1.600200 -20.950809 0.135246 -0.000000 0.990812 -0.990812 -0.000000 0.135246 2.500625 0.656250 0 0 0 0 0.000000 0.000000 0.000000 0.000000
IndexCount: 189
3 1 0
3 2 1
7 5 4
7 6 5
11 9 8
11 10 9
15 13 12
15 14 13
18 17 16
21 19 17
21 20 19
24 23 22
27 25 23
27 26 25
31 29 28
31 30 29
33 31 32
32 34 33
32 35 34
39 37 36
39 38 37
42 40 37
42 41 40
46 44 43
74 43 73
46 45 44
49 48 47
47 101 100
47 100 99
99 49 47
103 101 47
103 102 101
53 51 50
53 52 51
52 104 51
52 105 104
57 55 54
57 56 55
61 59 58
61 60 59
65 63 62
65 64 63
69 67 66
69 68 67
72 71 67
72 67 70
78 76 75
80 75 79
78 77 76
84 82 81
84 83 82
88 86 85
86 97 85
88 87 86
86 98 97
92 90 89
92 91 90
96 94 93
96 95 94
106 111 110
106 110 109
106 109 108
108 107 106