VertexCount: 6
-10.058401 -1.524003 14.630398 0.000000 -1.000000 -0.000000 1.000000 0.000000 -0.000000 -8.000000 -10.000000 0 0 0 0 0.000000 0.000000 0.000000 0.000000
-10.629901 -1.524003 14.630398 0.000000 -1.000000 -0.000000 1.000000 0.000000 -0.000000 -8.468750 -10.000000 0 0 0 0 0.000000 0.000000 0.000000 0.000000
-10.629901 -1.524004 16.154398 0.000000 -1.000000 -0.000000 1.000000 0.000000 0.000000 -8.468750 -11.000000 0 0 0 0 0.000000 0.000000 0.000000 0.000000
-10.058401 -1.524004 16.154398 0.000000 -1.000000 -0.000000 1.000000 0.000000 -0.000000 -8.000000 -11.000000 0 0 0 0 0.000000 0.000000 0.000000 0.000000
-11.277601 -1.524003 14.630398 0.000000 -1.000000 -0.000000 1.000000 0.000000 0.000000 -9.000000 -10.000000 0 0 0 0 0.000000 0.000000 0.000000 0.000000
-11.277601 -1.524004 16.154398 0.000000 -1.000000 -0.000000 1.000000 0.000000 -0.000000 -9.000000 -11.000000 0 0 0 0 0.000000 0.000000 0.000000 0.000000
IndexCount: 12
3 2 1
3 1 0
2 5 4
2 4 1
