VertexCount: 32
-21.640800 -1.981198 -11.049000 0.000000 -0.000000 1.000000 1.000000 0.000000 0.000000 -70.250000 6.000000 0 0 0 0 0.000000 0.000000 0.000000 0.000000
-21.602699 -1.981198 -11.049000 0.000000 -0.000000 1.000000 1.000000 0.000000 0.000000 -70.125000 6.000000 0 0 0 0 0.000000 0.000000 0.000000 0.000000
-21.602699 -3.200398 -11.049000 0.000000 -0.000000 1.000000 1.000000 0.000000 0.000000 -70.125000 10.000000 0 0 0 0 0.000000 0.000000 0.000000 0.000000
-21.640800 -3.200398 -11.049000 0.000000 -0.000000 1.000000 1.000000 0.000000 0.000000 -70.250000 10.000000 0 0 0 0 0.000000 0.000000 0.000000 0.000000
-21.640800 -1.981198 -12.877800 0.000000 0.000000 -1.000000 1.000000 0.000000 0.000000 -70.250000 6.000000 0 0 0 0 0.000000 0.000000 0.000000 0.000000
-21.640800 -3.200398 -12.877800 0.000000 0.000000 -1.000000 1.000000 0.000000 0.000000 -70.250000 10.000000 0 0 0 0 0.000000 0.000000 0.000000 0.000000
-21.602699 -3.200398 -12.877800 0.000000 0.000000 -1.000000 1.000000 0.000000 0.000000 -70.125000 10.000000 0 0 0 0 0.000000 0.000000 0.000000 0.000000
-21.602699 -1.981198 -12.877800 0.000000 0.000000 -1.000000 1.000000 0.000000 0.000000 -70.125000 6.000000 0 0 0 0 0.000000 0.000000 0.000000 0.000000
-21.640800 -2.057399 -9.753600 0.000000 0.000000 -1.000000 1.000000 0.000000 0.000000 -70.312500 6.625000 0 0 0 0 0.000000 0.000000 0.000000 0.000000
-21.640800 -2.781298 -9.753600 0.000000 0.000000 -1.000000 1.000000 0.000000 0.000000 -70.312500 9.000000 0 0 0 0 0.000000 0.000000 0.000000 0.000000
-21.621750 -2.781298 -9.753600 0.000000 0.000000 -1.000000 1.000000 0.000000 0.000000 -70.250000 9.000000 0 0 0 0 0.000000 0.000000 0.000000 0.000000
-21.621750 -2.057399 -9.753600 0.000000 0.000000 -1.000000 1.000000 0.000000 0.000000 -70.250000 6.625000 0 0 0 0 0.000000 0.000000 0.000000 0.000000
-21.640800 -2.057399 -8.839200 0.000000 -0.000000 1.000000 1.000000 0.000000 0.000000 -70.312500 6.625000 0 0 0 0 0.000000 0.000000 0.000000 0.000000
-21.621750 -2.057399 -8.839200 0.000000 -0.000000 1.000000 1.000000 0.000000 0.000000 -70.250000 6.625000 0 0 0 0 0.000000 0.000000 0.000000 0.000000
-21.621750 -2.781298 -8.839200 0.000000 -0.000000 1.000000 1.000000 0.000000 0.000000 -70.250000 9.000000 0 0 0 0 0.000000 0.000000 0.000000 0.000000
-21.640800 -2.781298 -8.839200 0.000000 -0.000000 1.000000 1.000000 0.000000 0.000000 -70.312500 9.000000 0 0 0 0 0.000000 0.000000 0.000000 0.000000
-21.640800 -2.590798 -10.706100 0.000000 0.000000 -1.000000 1.000000 0.000000 0.000000 -70.312500 7.625000 0 0 0 0 0.000000 0.000000 0.000000 0.000000
-21.640800 -3.124198 -10.706100 0.000000 0.000000 -1.000000 1.000000 0.000000 0.000000 -70.312500 9.375000 0 0 0 0 0.000000 0.000000 0.000000 0.000000
-21.621750 -3.124198 -10.706100 0.000000 0.000000 -1.000000 1.000000 0.000000 0.000000 -70.250000 9.375000 0 0 0 0 0.000000 0.000000 0.000000 0.000000
-21.621750 -2.590798 -10.706100 0.000000 0.000000 -1.000000 1.000000 0.000000 0.000000 -70.250000 7.625000 0 0 0 0 0.000000 0.000000 0.000000 0.000000
-21.640800 -2.590799 -9.982200 0.000000 -0.000000 1.000000 1.000000 0.000000 0.000000 -70.312500 7.625000 0 0 0 0 0.000000 0.000000 0.000000 0.000000
-21.621750 -2.590799 -9.982200 0.000000 -0.000000 1.000000 1.000000 0.000000 0.000000 -70.250000 7.625000 0 0 0 0 0.000000 0.000000 0.000000 0.000000
-21.621750 -3.124198 -9.982200 0.000000 -0.000000 1.000000 1.000000 0.000000 0.000000 -70.250000 9.375000 0 0 0 0 0.000000 0.000000 0.000000 0.000000
-21.640800 -3.124198 -9.982200 0.000000 -0.000000 1.000000 1.000000 0.000000 0.000000 -70.312500 9.375000 0 0 0 0 0.000000 0.000000 0.000000 0.000000
-21.640800 -2.247898 -14.935200 0.000000 0.000000 -1.000000 1.000000 0.000000 0.000000 -70.312500 7.000000 0 0 0 0 0.000000 0.000000 0.000000 0.000000
-21.640800 -3.124198 -14.935200 0.000000 0.000000 -1.000000 1.000000 0.000000 0.000000 -70.312500 9.875000 0 0 0 0 0.000000 0.000000 0.000000 0.000000
-21.602699 -3.124198 -14.935200 0.000000 0.000000 -1.000000 1.000000 0.000000 0.000000 -70.187500 9.875000 0 0 0 0 0.000000 0.000000 0.000000 0.000000
-21.602699 -2.247898 -14.935200 0.000000 0.000000 -1.000000 1.000000 0.000000 0.000000 -70.187500 7.000000 0 0 0 0 0.000000 0.000000 0.000000 0.000000
-21.640800 -2.247898 -13.639799 0.000000 -0.000000 1.000000 1.000000 0.000000 0.000000 -70.312500 7.000000 0 0 0 0 0.000000 0.000000 0.000000 0.000000
-21.602699 -2.247898 -13.639799 0.000000 -0.000000 1.000000 1.000000 0.000000 0.000000 -70.187500 7.000000 0 0 0 0 0.000000 0.000000 0.000000 0.000000
-21.602699 -3.124198 -13.639799 0.000000 -0.000000 1.000000 1.000000 0.000000 0.000000 -70.187500 9.875000 0 0 0 0 0.000000 0.000000 0.000000 0.000000
-21.640800 -3.124198 -13.639799 0.000000 -0.000000 1.000000 1.000000 0.000000 0.000000 -70.312500 9.875000 0 0 0 0 0.000000 0.000000 0.000000 0.000000
IndexCount: 48
3 1 0
3 2 1
7 5 4
7 6 5
11 9 8
11 10 9
15 13 12
15 14 13
19 17 16
19 18 17
23 21 20
23 22 21
27 25 24
27 26 25
31 29 28
31 30 29