VertexCount: 99
-17.983198 -3.429000 -7.010403 -0.000000 1.000000 0.000000 1.000000 0.000000 0.000000 -29.437500 11.125000 0 0 0 0 0.000000 0.000000 0.000000 0.000000
-21.640800 -3.429001 -7.010403 -0.000000 1.000000 0.000000 1.000000 0.000000 -0.000000 -35.437500 11.125000 0 0 0 0 0.000000 0.000000 0.000000 0.000000
-20.421598 -3.429000 -8.229603 -0.000000 1.000000 0.000000 1.000000 0.000000 -0.000000 -33.437500 13.125000 0 0 0 0 0.000000 0.000000 0.000000 0.000000
-17.983198 -3.429000 -8.229603 -0.000000 1.000000 0.000000 1.000000 0.000000 0.000000 -29.437500 13.125000 0 0 0 0 0.000000 0.000000 0.000000 0.000000
-20.612099 -3.429000 -8.953502 -0.000000 1.000000 0.000000 1.000000 0.000000 0.000000 -33.750000 14.312500 0 0 0 0 0.000000 0.000000 0.000000 0.000000
-20.993099 -3.429000 -8.953502 -0.000000 1.000000 0.000000 1.000000 0.000000 0.000000 -34.375000 14.312500 0 0 0 0 0.000000 0.000000 0.000000 0.000000
-20.993099 -3.429000 -10.363203 -0.000000 1.000000 0.000000 1.000000 0.000000 0.000003 -34.375000 16.625000 0 0 0 0 0.000000 0.000000 0.000000 0.000000
-20.612099 -3.429000 -10.363202 -0.000000 1.000000 0.000000 1.000000 0.000000 0.000000 -33.750000 16.625000 0 0 0 0 0.000000 0.000000 0.000000 0.000000
-20.993099 -3.429000 -10.363203 -0.000000 1.000000 0.000000 0.000000 0.000000 -1.000000 -34.375000 16.625000 0 0 0 0 0.000000 0.000000 0.000000 0.000000
-20.993099 -3.429000 -8.953502 -0.000000 1.000000 0.000000 0.000000 0.000000 -1.000000 -34.375000 14.312500 0 0 0 0 0.000000 0.000000 0.000000 0.000000
-20.993099 -3.429000 -8.724903 -0.000000 1.000000 0.000000 -0.000000 0.000000 -1.000000 -34.375000 13.937500 0 0 0 0 0.000000 0.000000 0.000000 0.000000
-20.993099 -3.429000 -8.496303 -0.000000 1.000000 0.000000 0.000000 0.000000 -1.000000 -34.375000 13.562500 0 0 0 0 0.000000 0.000000 0.000000 0.000000
-21.640800 -3.429001 -8.496303 -0.000000 1.000000 0.000000 1.000000 0.000000 -0.000000 -35.437500 13.562500 0 0 0 0 0.000000 0.000000 0.000000 0.000000
-21.640800 -3.429000 -9.982202 -0.000000 1.000000 0.000000 1.000000 0.000000 -0.000002 -35.437500 16.000000 0 0 0 0 0.000000 0.000000 0.000000 0.000000
-21.640800 -3.429000 -10.363203 -0.000000 1.000000 0.000000 1.000000 0.000000 -0.000000 -35.437500 16.625000 0 0 0 0 0.000000 0.000000 0.000000 0.000000
-20.421598 -3.429000 -10.363202 -0.000000 1.000000 0.000000 1.000000 0.000000 0.000000 -33.437500 16.625000 0 0 0 0 0.000000 0.000000 0.000000 0.000000
-20.421598 -3.429000 -8.496303 -0.000000 1.000000 0.000000 1.000000 0.000000 -0.000000 -33.437500 13.562500 0 0 0 0 0.000000 0.000000 0.000000 0.000000
-20.612099 -3.429000 -8.496303 -0.000000 1.000000 0.000000 1.000000 0.000000 0.000000 -33.750000 13.562500 0 0 0 0 0.000000 0.000000 0.000000 0.000000
-20.612099 -3.429000 -8.724903 -0.000000 1.000000 0.000000 -0.000000 -0.000000 1.000000 -33.750000 13.937500 0 0 0 0 0.000000 0.000000 0.000000 0.000000
-20.612099 -3.429000 -8.953502 -0.000000 1.000000 0.000000 -0.000000 -0.000000 1.000000 -33.750000 14.312500 0 0 0 0 0.000000 0.000000 0.000000 0.000000
-20.993099 -3.429000 -8.496303 -0.000000 1.000000 0.000000 -1.000000 -0.000000 0.000000 -34.375000 13.562500 0 0 0 0 0.000000 0.000000 0.000000 0.000000
-20.612099 -3.429000 -8.496303 -0.000000 1.000000 0.000000 -1.000000 -0.000000 -0.000000 -33.750000 13.562500 0 0 0 0 0.000000 0.000000 0.000000 0.000000
-21.640800 -3.505201 -7.124702 0.000000 -1.000000 -0.000000 1.000000 -0.000000 0.000000 -35.437500 11.312500 0 0 0 0 0.000000 0.000000 0.000000 0.000000
-21.640800 -3.505201 -7.010403 0.000000 -1.000000 -0.000000 1.000000 0.000000 0.000000 -35.437500 11.125000 0 0 0 0 0.000000 0.000000 0.000000 0.000000
-21.526501 -3.505201 -7.010403 0.000000 -1.000000 -0.000000 1.000000 0.000000 0.000000 -35.250000 11.125000 0 0 0 0 0.000000 0.000000 0.000000 0.000000
-20.935949 -3.505201 -7.715252 -0.000000 -1.000000 -0.000000 1.000000 -0.000000 0.000001 -34.281250 12.281250 0 0 0 0 0.000000 0.000000 0.000000 0.000000
-20.726400 -3.505201 -7.924802 -0.000000 -1.000000 -0.000000 1.000000 0.000000 0.000000 -33.937500 12.625000 0 0 0 0 0.000000 0.000000 0.000000 0.000000
-20.726400 -3.505200 -9.829802 -0.000000 -1.000000 -0.000000 1.000000 -0.000000 0.000001 -33.937500 15.750000 0 0 0 0 0.000000 0.000000 0.000000 0.000000
-21.640800 -3.505200 -9.829802 -0.000000 -1.000000 -0.000000 1.000000 -0.000000 -0.000000 -35.437500 15.750000 0 0 0 0 0.000000 0.000000 0.000000 0.000000
-21.640800 -3.505201 -8.420102 -0.000000 -1.000000 -0.000000 1.000000 -0.000000 0.000000 -35.437500 13.437500 0 0 0 0 0.000000 0.000000 0.000000 0.000000
-20.993099 -3.505201 -7.772402 -0.000000 -1.000000 -0.000000 -0.707107 0.000000 -0.707106 -34.375000 12.375000 0 0 0 0 0.000000 0.000000 0.000000 0.000000
-20.993099 -3.505201 -7.772402 -0.000001 -1.000000 -0.000000 1.000000 -0.000001 0.000000 -34.375000 12.375000 0 0 0 0 0.000000 0.000000 0.000000 0.000000
-20.726400 -3.505200 -9.982202 0.000000 -1.000000 -0.000000 1.000000 0.000000 0.000000 -33.937500 16.000000 0 0 0 0 0.000000 0.000000 0.000000 0.000000
-20.726400 -3.505200 -10.363202 0.000000 -1.000000 -0.000000 1.000000 0.000000 0.000000 -33.937500 16.625000 0 0 0 0 0.000000 0.000000 0.000000 0.000000
-21.640800 -3.505200 -10.363203 0.000000 -1.000000 -0.000000 1.000000 0.000000 0.000001 -35.437500 16.625000 0 0 0 0 0.000000 0.000000 0.000000 0.000000
-21.640800 -3.505200 -9.982202 0.000000 -1.000000 -0.000000 1.000000 0.000000 0.000000 -35.437500 16.000000 0 0 0 0 0.000000 0.000000 0.000000 0.000000
-20.421598 -3.505200 -8.229603 0.000000 -1.000000 -0.000000 1.000000 0.000000 -0.000001 -33.437500 13.125000 0 0 0 0 0.000000 0.000000 0.000000 0.000000
-20.421598 -3.505200 -10.363202 0.000000 -1.000000 -0.000000 1.000000 0.000000 0.000000 -33.437500 16.625000 0 0 0 0 0.000000 0.000000 0.000000 0.000000
-20.726400 -3.505200 -9.982202 0.000000 -1.000000 -0.000000 0.000000 0.000000 -1.000000 -33.937500 16.000000 0 0 0 0 0.000000 0.000000 0.000000 0.000000
-20.878798 -3.505201 -7.658102 0.000000 -1.000000 -0.000000 1.000000 0.000000 0.000000 -34.187500 12.187500 0 0 0 0 0.000000 0.000000 0.000000 0.000000
-20.231098 -3.505201 -7.010403 0.000000 -1.000000 -0.000000 1.000000 0.000000 0.000000 -33.125000 11.125000 0 0 0 0 0.000000 0.000000 0.000000 0.000000
-17.983198 -3.505200 -7.924802 0.000000 -1.000000 -0.000000 1.000000 0.000000 0.000000 -29.437500 12.625000 0 0 0 0 0.000000 0.000000 0.000000 0.000000
-17.983198 -3.505200 -8.229603 0.000000 -1.000000 -0.000000 1.000000 0.000000 -0.000000 -29.437500 13.125000 0 0 0 0 0.000000 0.000000 0.000000 0.000000
-18.516598 -3.505200 -7.924802 0.000000 -1.000000 -0.000000 -1.000000 -0.000000 0.000000 -30.312500 12.625000 0 0 0 0 0.000000 0.000000 0.000000 0.000000
-18.364199 -3.505200 -7.924802 0.000000 -1.000000 -0.000000 -1.000000 -0.000000 -0.000000 -30.062500 12.625000 0 0 0 0 0.000000 0.000000 0.000000 0.000000
-18.516598 -3.505200 -7.924802 0.000000 -1.000000 -0.000000 1.000000 0.000000 -0.000000 -30.312500 12.625000 0 0 0 0 0.000000 0.000000 0.000000 0.000000
-18.516598 -3.505201 -7.010403 0.000000 -1.000000 -0.000000 1.000000 0.000000 0.000000 -30.312500 11.125000 0 0 0 0 0.000000 0.000000 0.000000 0.000000
-18.364199 -3.505200 -7.924802 0.000000 -1.000000 -0.000000 1.000000 0.000000 0.000000 -30.062500 12.625000 0 0 0 0 0.000000 0.000000 0.000000 0.000000
-18.364199 -3.505201 -7.010403 0.000000 -1.000000 -0.000000 1.000000 0.000000 -0.000000 -30.062500 11.125000 0 0 0 0 0.000000 0.000000 0.000000 0.000000
-17.983198 -3.505200 -7.010403 0.000000 -1.000000 -0.000000 1.000000 0.000000 0.000000 -29.437500 11.125000 0 0 0 0 0.000000 0.000000 0.000000 0.000000
-20.421598 -3.429000 -14.249401 -0.000000 1.000000 0.000000 1.000000 0.000000 0.000001 -33.437500 23.000000 0 0 0 0 0.000000 0.000000 0.000000 0.000000
-20.421598 -3.429000 -13.716002 -0.000000 1.000000 0.000000 1.000000 0.000000 0.000001 -33.437500 22.125000 0 0 0 0 0.000000 0.000000 0.000000 0.000000
-21.640800 -3.429000 -13.716003 -0.000000 1.000000 0.000000 1.000000 0.000000 0.000001 -35.437500 22.125000 0 0 0 0 0.000000 0.000000 0.000000 0.000000
-21.640799 -3.429000 -14.249403 -0.000000 1.000000 0.000000 1.000000 0.000000 0.000001 -35.437500 23.000000 0 0 0 0 0.000000 0.000000 0.000000 0.000000
-20.726398 -3.505199 -14.249401 0.000000 -1.000000 -0.000000 1.000000 0.000000 -0.000014 -33.937500 23.000000 0 0 0 0 0.000000 0.000000 0.000000 0.000000
-20.726398 -3.505199 -14.097000 0.000000 -1.000000 -0.000000 1.000000 0.000000 -0.000009 -33.937500 22.750000 0 0 0 0 0.000000 0.000000 0.000000 0.000000
-20.726400 -3.505200 -13.716002 0.000000 -1.000000 -0.000000 1.000000 0.000000 0.000000 -33.937500 22.125000 0 0 0 0 0.000000 0.000000 0.000000 0.000000
-20.421598 -3.505200 -13.716002 0.000000 -1.000000 -0.000000 1.000000 0.000000 -0.000014 -33.437500 22.125000 0 0 0 0 0.000000 0.000000 0.000000 0.000000
-20.421598 -3.505199 -14.249401 0.000000 -1.000000 -0.000000 1.000000 0.000000 -0.000000 -33.437500 23.000000 0 0 0 0 0.000000 0.000000 0.000000 0.000000
-21.640799 -3.505200 -14.097002 0.000000 -1.000000 -0.000000 1.000000 0.000000 0.000001 -35.437500 22.750000 0 0 0 0 0.000000 0.000000 0.000000 0.000000
-21.640800 -3.505200 -13.716003 0.000000 -1.000000 -0.000000 1.000000 0.000000 0.000001 -35.437500 22.125000 0 0 0 0 0.000000 0.000000 0.000000 0.000000
-20.421598 -3.428999 -15.849601 -0.000000 1.000000 0.000000 1.000000 0.000000 0.000001 -33.437500 25.625000 0 0 0 0 0.000000 0.000000 0.000000 0.000000
-21.640799 -3.428999 -17.068802 -0.000000 1.000000 0.000000 1.000000 0.000000 0.000001 -35.437500 27.625000 0 0 0 0 0.000000 0.000000 0.000000 0.000000
-19.735798 -3.428999 -15.849601 -0.000000 1.000000 0.000000 1.000000 0.000000 0.000000 -32.312500 25.625000 0 0 0 0 0.000000 0.000000 0.000000 0.000000
-19.735798 -3.428999 -17.068800 -0.000000 1.000000 0.000000 1.000000 0.000000 -0.000000 -32.312500 27.625000 0 0 0 0 0.000000 0.000000 0.000000 0.000000
-19.735798 -3.428999 -16.535400 -0.000000 1.000000 0.000000 -0.000000 0.000000 -1.000000 -32.312500 26.750000 0 0 0 0 0.000000 0.000000 0.000000 0.000000
-19.735798 -3.428999 -16.154400 -0.000000 1.000000 0.000000 -0.000000 0.000000 -1.000000 -32.312500 26.125000 0 0 0 0 0.000000 0.000000 0.000000 0.000000
-17.983198 -3.428999 -16.154400 -0.000000 1.000000 0.000000 1.000000 0.000000 0.000000 -29.437500 26.125000 0 0 0 0 0.000000 0.000000 0.000000 0.000000
-17.983198 -3.428999 -15.849601 -0.000000 1.000000 0.000000 1.000000 0.000000 0.000000 -29.437500 25.625000 0 0 0 0 0.000000 0.000000 0.000000 0.000000
-19.735798 -3.428999 -16.154400 -0.000000 1.000000 0.000000 1.000000 0.000000 0.000000 -32.312500 26.125000 0 0 0 0 0.000000 0.000000 0.000000 0.000000
-19.507198 -3.428999 -16.154400 -0.000000 1.000000 0.000000 -1.000000 -0.000000 -0.000000 -31.937500 26.125000 0 0 0 0 0.000000 0.000000 0.000000 0.000000
-19.278599 -3.428999 -16.154400 -0.000000 1.000000 0.000000 -1.000000 -0.000000 -0.000000 -31.562500 26.125000 0 0 0 0 0.000000 0.000000 0.000000 0.000000
-17.983198 -3.428999 -16.535400 -0.000000 1.000000 0.000000 1.000000 0.000000 -0.000000 -29.437500 26.750000 0 0 0 0 0.000000 0.000000 0.000000 0.000000
-19.278599 -3.428999 -16.535400 -0.000000 1.000000 0.000000 1.000000 0.000000 -0.000000 -31.562500 26.750000 0 0 0 0 0.000000 0.000000 0.000000 0.000000
-19.507198 -3.428999 -16.535400 -0.000000 1.000000 0.000000 1.000000 0.000000 -0.000000 -31.937500 26.750000 0 0 0 0 0.000000 0.000000 0.000000 0.000000
-19.735798 -3.428999 -16.535400 -0.000000 1.000000 0.000000 -1.000000 -0.000000 0.000000 -32.312500 26.750000 0 0 0 0 0.000000 0.000000 0.000000 0.000000
-17.983198 -3.428999 -17.068800 -0.000000 1.000000 0.000000 1.000000 0.000000 -0.000000 -29.437500 27.625000 0 0 0 0 0.000000 0.000000 0.000000 0.000000
-19.278599 -3.428999 -16.154400 -0.000000 1.000000 0.000000 1.000000 0.000000 0.000000 -31.562500 26.125000 0 0 0 0 0.000000 0.000000 0.000000 0.000000
-19.278599 -3.428999 -16.535400 -0.000000 1.000000 0.000000 1.000000 0.000000 0.000000 -31.562500 26.750000 0 0 0 0 0.000000 0.000000 0.000000 0.000000
-17.983198 -3.428999 -16.535400 -0.000000 1.000000 0.000000 1.000000 0.000000 -0.000000 -29.437500 26.750000 0 0 0 0 0.000000 0.000000 0.000000 0.000000
-20.421598 -3.505199 -15.849601 -0.000000 -1.000000 -0.000000 1.000000 -0.000000 -0.000000 -33.437500 25.625000 0 0 0 0 0.000000 0.000000 0.000000 0.000000
-20.726398 -3.505199 -16.154400 -0.000000 -1.000000 -0.000000 1.000000 -0.000000 -0.000000 -33.937500 26.125000 0 0 0 0 0.000000 0.000000 0.000000 0.000000
-20.935947 -3.505199 -16.363951 -0.000000 -1.000000 -0.000000 1.000000 -0.000000 0.000003 -34.281250 26.468750 0 0 0 0 0.000000 0.000000 0.000000 0.000000
-20.993097 -3.505199 -16.306803 -0.000000 -1.000000 -0.000000 1.000000 -0.000000 0.000015 -34.375000 26.375000 0 0 0 0 0.000000 0.000000 0.000000 0.000000
-21.640799 -3.505199 -15.659102 -0.000000 -1.000000 -0.000000 1.000000 -0.000000 0.000000 -35.437500 25.312500 0 0 0 0 0.000000 0.000000 0.000000 0.000000
-21.640799 -3.505200 -14.249403 -0.000000 -1.000000 -0.000000 1.000000 -0.000000 0.000001 -35.437500 23.000000 0 0 0 0 0.000000 0.000000 0.000000 0.000000
-20.726398 -3.505199 -14.249401 -0.000000 -1.000000 -0.000000 -1.000000 0.000000 -0.000001 -33.937500 23.000000 0 0 0 0 0.000000 0.000000 0.000000 0.000000
-21.640799 -3.505199 -16.954502 0.000000 -1.000000 -0.000000 1.000000 0.000000 -0.000000 -35.437500 27.437500 0 0 0 0 0.000000 0.000000 0.000000 0.000000
-21.526499 -3.505199 -17.068802 0.000000 -1.000000 -0.000000 1.000000 0.000000 0.000000 -35.250000 27.625000 0 0 0 0 0.000000 0.000000 0.000000 0.000000
-21.640799 -3.505199 -17.068802 0.000000 -1.000000 -0.000000 1.000000 0.000000 0.000000 -35.437500 27.625000 0 0 0 0 0.000000 0.000000 0.000000 0.000000
-18.364199 -3.505199 -16.154400 0.000000 -1.000000 -0.000000 1.000000 0.000000 0.000000 -30.062500 26.125000 0 0 0 0 0.000000 0.000000 0.000000 0.000000
-17.983198 -3.505199 -16.154400 0.000000 -1.000000 -0.000000 1.000000 0.000000 0.000000 -29.437500 26.125000 0 0 0 0 0.000000 0.000000 0.000000 0.000000
-17.983198 -3.505199 -17.068800 0.000000 -1.000000 -0.000000 1.000000 0.000000 0.000000 -29.437500 27.625000 0 0 0 0 0.000000 0.000000 0.000000 0.000000
-18.364199 -3.505199 -17.068800 0.000000 -1.000000 -0.000000 1.000000 0.000000 0.000000 -30.062500 27.625000 0 0 0 0 0.000000 0.000000 0.000000 0.000000
-18.516598 -3.505199 -16.154400 0.000000 -1.000000 -0.000000 1.000000 0.000000 -0.000000 -30.312500 26.125000 0 0 0 0 0.000000 0.000000 0.000000 0.000000
-18.516598 -3.505199 -17.068800 0.000000 -1.000000 -0.000000 1.000000 0.000000 -0.000000 -30.312500 27.625000 0 0 0 0 0.000000 0.000000 0.000000 0.000000
-20.231098 -3.505199 -17.068800 0.000000 -1.000000 -0.000000 1.000000 0.000000 0.000000 -33.125000 27.625000 0 0 0 0 0.000000 0.000000 0.000000 0.000000
-20.878796 -3.505199 -16.421103 0.000000 -1.000000 -0.000000 1.000000 0.000000 0.000001 -34.187500 26.562500 0 0 0 0 0.000000 0.000000 0.000000 0.000000
-17.983198 -3.505199 -15.849601 0.000000 -1.000000 -0.000000 1.000000 0.000000 0.000000 -29.437500 25.625000 0 0 0 0 0.000000 0.000000 0.000000 0.000000
IndexCount: 246
3 1 0
3 2 1
16 12 1
1 2 16
7 17 16
16 15 7
16 21 20
16 20 12
8 13 12
8 12 11
8 14 13
11 9 8
11 10 9
7 6 5
7 5 4
7 19 18
7 18 17
24 23 22
22 29 31
40 24 39
45 46 40
45 40 39
45 39 25
25 26 45
25 30 29
25 29 28
25 28 27
27 26 25
27 36 26
41 43 26
26 36 42
26 42 41
27 38 33
27 33 37
27 37 36
35 34 33
35 33 32
41 44 43
49 47 41
49 48 47
53 51 50
62 53 50
62 50 61
53 52 51
64 62 61
64 61 63
63 65 64
72 76 64
72 64 75
63 66 65
67 69 63
63 68 67
67 71 70
67 70 69
67 79 78
67 78 77
72 75 74
74 73 72
54 58 57
57 55 54
57 56 55
60 59 55
60 55 56
58 86 85
58 85 84
58 84 83
58 83 82
58 82 81
81 80 58
84 87 83
89 88 87
88 96 97
94 97 96
96 95 94
94 82 97
94 81 82
80 81 94
80 94 90
93 91 90
80 90 91
93 92 91
91 98 80
