VertexCount: 67
-8.534399 -1.676399 -10.058401 1.000000 0.000000 0.000001 -0.000001 -0.000000 1.000000 -6.000000 1.000000 0 0 0 0 0.000000 0.000000 0.000000 0.000000
-8.534399 -4.114799 -10.058401 1.000000 0.000000 0.000001 -0.000001 -0.000000 1.000000 -6.000000 2.000000 0 0 0 0 0.000000 0.000000 0.000000 0.000000
-8.534399 -4.114799 -9.753601 1.000000 0.000000 0.000001 -0.000001 -0.000000 1.000000 -5.833333 2.000000 0 0 0 0 0.000000 0.000000 0.000000 0.000000
-8.534399 -1.981199 -9.753601 1.000000 0.000000 0.000001 -0.000001 0.000000 1.000000 -5.833333 1.125000 0 0 0 0 0.000000 0.000000 0.000000 0.000000
-8.534399 -1.676399 -9.753600 1.000000 0.000000 0.000001 -0.000001 -0.000000 1.000000 -5.833333 1.000000 0 0 0 0 0.000000 0.000000 0.000000 0.000000
-8.534399 -1.981199 -8.534401 1.000000 0.000000 0.000000 -0.000000 -0.000000 1.000000 -5.166667 1.125000 0 0 0 0 0.000000 0.000000 0.000000 0.000000
-8.534399 -1.676399 -8.534400 1.000000 0.000000 0.000000 -0.000000 -0.000000 1.000000 -5.166667 1.000000 0 0 0 0 0.000000 0.000000 0.000000 0.000000
-8.534399 -1.676399 -8.534400 1.000000 0.000000 0.000000 -0.000000 1.000000 0.000000 -5.166667 1.000000 0 0 0 0 0.000000 0.000000 0.000000 0.000000
-8.534399 -1.981199 -8.534401 1.000000 0.000000 0.000000 -0.000000 1.000000 0.000000 -5.166667 1.125000 0 0 0 0 0.000000 0.000000 0.000000 0.000000
-8.534399 -4.114799 -8.534401 1.000000 0.000000 0.000000 -0.000000 1.000000 0.000000 -5.166667 2.000000 0 0 0 0 0.000000 0.000000 0.000000 0.000000
-8.534399 -4.114799 -8.229601 1.000000 0.000000 0.000000 -0.000000 -0.000000 1.000000 -5.000000 2.000000 0 0 0 0 0.000000 0.000000 0.000000 0.000000
-8.534399 -1.676399 -8.229601 1.000000 0.000000 0.000000 -0.000000 -0.000000 1.000000 -5.000000 1.000000 0 0 0 0 0.000000 0.000000 0.000000 0.000000
-8.839199 -1.676399 -9.753600 -1.000000 -0.000000 -0.000003 -0.000002 -0.000000 1.000000 -5.833333 1.000000 0 0 0 0 0.000000 0.000000 0.000000 0.000000
-8.839199 -1.981199 -9.753601 -1.000000 -0.000000 -0.000003 -0.000002 -0.000000 1.000000 -5.833333 1.125000 0 0 0 0 0.000000 0.000000 0.000000 0.000000
-8.839198 -4.114799 -9.753601 -1.000000 -0.000000 -0.000003 -0.000003 -0.000000 1.000000 -5.833333 2.000000 0 0 0 0 0.000000 0.000000 0.000000 0.000000
-8.839198 -4.114799 -10.058401 -1.000000 -0.000000 -0.000003 -0.000003 -0.000000 1.000000 -6.000000 2.000000 0 0 0 0 0.000000 0.000000 0.000000 0.000000
-8.839199 -1.676399 -10.058401 -1.000000 -0.000000 -0.000003 -0.000003 -0.000001 1.000000 -6.000000 1.000000 0 0 0 0 0.000000 0.000000 0.000000 0.000000
-8.839199 -1.676399 -8.534400 -1.000000 -0.000000 -0.000000 0.000001 -0.000000 1.000000 -5.166667 1.000000 0 0 0 0 0.000000 0.000000 0.000000 0.000000
-8.839199 -1.981199 -8.534401 -1.000000 -0.000000 -0.000000 0.000001 -0.000000 1.000000 -5.166667 1.125000 0 0 0 0 0.000000 0.000000 0.000000 0.000000
-8.839199 -1.676399 -8.229601 -1.000000 -0.000000 0.000003 0.000003 0.000000 1.000000 -5.000000 1.000000 0 0 0 0 0.000000 0.000000 0.000000 0.000000
-8.839198 -4.114799 -8.229601 -1.000000 -0.000000 0.000003 0.000003 0.000000 1.000000 -5.000000 2.000000 0 0 0 0 0.000000 0.000000 0.000000 0.000000
-8.839198 -4.114799 -8.534401 -1.000000 -0.000000 0.000003 0.000003 0.000000 1.000000 -5.166667 2.000000 0 0 0 0 0.000000 0.000000 0.000000 0.000000
-17.983200 -2.133603 6.705597 -1.000000 -0.000000 -0.000000 0.000001 -0.000000 1.000000 4.833333 1.000000 0 0 0 0 0.000000 0.000000 0.000000 0.000000
-17.983200 -2.438402 6.705597 -1.000000 -0.000000 -0.000000 0.000001 -0.000000 1.000000 4.833333 1.125000 0 0 0 0 0.000000 0.000000 0.000000 0.000000
-17.983200 -2.438402 5.486398 -1.000000 -0.000000 -0.000000 -0.000002 -0.000000 1.000000 4.166667 1.125000 0 0 0 0 0.000000 0.000000 0.000000 0.000000
-17.983200 -2.133602 5.486398 -1.000000 -0.000000 -0.000000 -0.000002 -0.000000 1.000000 4.166667 1.000000 0 0 0 0 0.000000 0.000000 0.000000 0.000000
-17.983200 -4.572002 5.183884 -1.000000 -0.000000 -0.000005 -0.000005 -0.000000 1.000000 4.001250 2.000000 0 0 0 0 0.000000 0.000000 0.000000 0.000000
-17.983200 -2.133602 5.183884 -1.000000 -0.000000 -0.000005 -0.000005 -0.000000 1.000000 4.001250 1.000000 0 0 0 0 0.000000 0.000000 0.000000 0.000000
-17.983200 -4.572002 5.486398 -1.000000 -0.000000 -0.000005 -0.000005 -0.000000 1.000000 4.166667 2.000000 0 0 0 0 0.000000 0.000000 0.000000 0.000000
-17.983202 -2.133603 7.008112 -1.000000 -0.000000 0.000003 0.000003 0.000000 1.000000 4.998750 1.000000 0 0 0 0 0.000000 0.000000 0.000000 0.000000
-17.983202 -4.572003 7.008112 -1.000000 -0.000000 0.000003 0.000003 0.000000 1.000000 4.998750 2.000000 0 0 0 0 0.000000 0.000000 0.000000 0.000000
-17.983200 -4.572003 6.705597 -1.000000 -0.000000 0.000003 0.000003 0.000000 1.000000 4.833333 2.000000 0 0 0 0 0.000000 0.000000 0.000000 0.000000
-17.678400 -2.133602 5.486398 1.000000 0.000000 0.000000 -0.000001 -0.000000 1.000000 4.166667 1.000000 0 0 0 0 0.000000 0.000000 0.000000 0.000000
-17.678400 -2.438402 5.486398 1.000000 0.000000 0.000000 -0.000001 -0.000000 1.000000 4.166667 1.125000 0 0 0 0 0.000000 0.000000 0.000000 0.000000
-17.678400 -2.438402 6.705597 1.000000 0.000000 0.000000 -0.000000 -0.000000 1.000000 4.833333 1.125000 0 0 0 0 0.000000 0.000000 0.000000 0.000000
-17.678400 -2.133603 6.705597 1.000000 0.000000 0.000000 -0.000000 -0.000000 1.000000 4.833333 1.000000 0 0 0 0 0.000000 0.000000 0.000000 0.000000
-17.678400 -2.133602 5.181598 1.000000 0.000000 0.000003 -0.000003 -0.000000 1.000000 4.000000 1.000000 0 0 0 0 0.000000 0.000000 0.000000 0.000000
-17.678400 -4.572002 5.181598 1.000000 0.000000 0.000003 -0.000003 -0.000000 1.000000 4.000000 2.000000 0 0 0 0 0.000000 0.000000 0.000000 0.000000
-17.678400 -4.572002 5.486398 1.000000 0.000000 0.000003 -0.000003 -0.000000 1.000000 4.166667 2.000000 0 0 0 0 0.000000 0.000000 0.000000 0.000000
-17.678400 -2.133603 6.705597 1.000000 0.000000 -0.000005 -0.000000 1.000000 0.000000 4.833333 1.000000 0 0 0 0 0.000000 0.000000 0.000000 0.000000
-17.678400 -2.438402 6.705597 1.000000 0.000000 -0.000005 -0.000000 1.000000 0.000000 4.833333 1.125000 0 0 0 0 0.000000 0.000000 0.000000 0.000000
-17.678400 -4.572003 6.705597 1.000000 0.000000 -0.000005 -0.000000 1.000000 0.000000 4.833333 2.000000 0 0 0 0 0.000000 0.000000 0.000000 0.000000
-17.678400 -4.572003 7.010398 1.000000 0.000000 -0.000005 0.000005 0.000000 1.000000 5.000000 2.000000 0 0 0 0 0.000000 0.000000 0.000000 0.000000
-17.678400 -2.133603 7.010398 1.000000 0.000000 -0.000005 0.000005 -0.000001 1.000000 5.000000 1.000000 0 0 0 0 0.000000 0.000000 0.000000 0.000000
-14.935199 -1.676399 -14.478002 -1.000000 -0.000000 0.000002 0.000002 -0.000001 1.000000 -7.000000 1.000000 0 0 0 0 0.000000 0.000000 0.000000 0.000000
-14.935199 -4.114799 -14.478003 -1.000000 -0.000000 0.000002 0.000002 -0.000001 1.000000 -7.000000 2.000000 0 0 0 0 0.000000 0.000000 0.000000 0.000000
-14.935199 -4.114799 -14.782803 -1.000000 -0.000000 0.000002 0.000002 -0.000001 1.000000 -7.166667 2.000000 0 0 0 0 0.000000 0.000000 0.000000 0.000000
-14.935199 -1.981199 -14.782802 -1.000000 -0.000000 0.000002 0.000001 -0.000000 1.000000 -7.166667 1.125000 0 0 0 0 0.000000 0.000000 0.000000 0.000000
-14.935199 -1.676399 -14.782802 -1.000000 -0.000000 0.000002 0.000001 -0.000000 1.000000 -7.166667 1.000000 0 0 0 0 0.000000 0.000000 0.000000 0.000000
-14.935199 -1.981199 -16.002001 -1.000000 -0.000000 -0.000000 -0.000000 -0.000000 1.000000 -7.833333 1.125000 0 0 0 0 0.000000 0.000000 0.000000 0.000000
-14.935199 -1.676399 -16.002001 -1.000000 -0.000000 -0.000000 -0.000000 -0.000000 1.000000 -7.833333 1.000000 0 0 0 0 0.000000 0.000000 0.000000 0.000000
-14.935199 -1.676399 -16.002001 -1.000000 -0.000000 -0.000000 -0.000000 1.000000 0.000001 -7.833333 1.000000 0 0 0 0 0.000000 0.000000 0.000000 0.000000
-14.935199 -1.981199 -16.002001 -1.000000 -0.000000 -0.000000 -0.000000 1.000000 0.000001 -7.833333 1.125000 0 0 0 0 0.000000 0.000000 0.000000 0.000000
-14.935199 -4.114799 -16.002003 -1.000000 -0.000000 -0.000000 -0.000000 1.000000 0.000001 -7.833333 2.000000 0 0 0 0 0.000000 0.000000 0.000000 0.000000
-14.935199 -4.114799 -16.154402 -1.000000 -0.000000 -0.000000 -0.000000 -0.000000 1.000000 -7.916667 2.000000 0 0 0 0 0.000000 0.000000 0.000000 0.000000
-14.935199 -4.114799 -16.306803 -1.000000 -0.000000 -0.000000 -0.000000 -0.000000 1.000000 -8.000000 2.000000 0 0 0 0 0.000000 0.000000 0.000000 0.000000
-14.935199 -1.676399 -16.306801 -1.000000 -0.000000 -0.000000 -0.000000 -0.000000 1.000000 -8.000000 1.000000 0 0 0 0 0.000000 0.000000 0.000000 0.000000
-14.630398 -1.676399 -14.782802 1.000000 0.000000 -0.000005 0.000003 -0.000000 1.000000 -7.166667 1.000000 0 0 0 0 0.000000 0.000000 0.000000 0.000000
-14.630398 -1.981199 -14.782802 1.000000 0.000000 -0.000005 0.000003 -0.000000 1.000000 -7.166667 1.125000 0 0 0 0 0.000000 0.000000 0.000000 0.000000
-14.630398 -4.114799 -14.782803 1.000000 0.000000 -0.000005 0.000005 0.000000 1.000000 -7.166667 2.000000 0 0 0 0 0.000000 0.000000 0.000000 0.000000
-14.630398 -4.114799 -14.478003 1.000000 0.000000 -0.000005 0.000005 0.000000 1.000000 -7.000000 2.000000 0 0 0 0 0.000000 0.000000 0.000000 0.000000
-14.630398 -1.676399 -14.478002 1.000000 0.000000 -0.000005 0.000005 0.000000 1.000000 -7.000000 1.000000 0 0 0 0 0.000000 0.000000 0.000000 0.000000
-14.630398 -1.676399 -16.002001 1.000000 0.000000 0.000000 -0.000002 -0.000000 1.000000 -7.833333 1.000000 0 0 0 0 0.000000 0.000000 0.000000 0.000000
-14.630398 -1.981199 -16.002001 1.000000 0.000000 0.000000 -0.000002 -0.000000 1.000000 -7.833333 1.125000 0 0 0 0 0.000000 0.000000 0.000000 0.000000
-14.630398 -1.676399 -16.306801 1.000000 0.000000 0.000005 -0.000005 -0.000001 1.000000 -8.000000 1.000000 0 0 0 0 0.000000 0.000000 0.000000 0.000000
-14.630398 -4.114799 -16.306803 1.000000 0.000000 0.000005 -0.000005 -0.000001 1.000000 -8.000000 2.000000 0 0 0 0 0.000000 0.000000 0.000000 0.000000
-14.630398 -4.114799 -16.002003 1.000000 0.000000 0.000005 -0.000005 -0.000001 1.000000 -7.833333 2.000000 0 0 0 0 0.000000 0.000000 0.000000 0.000000
IndexCount: 147
0 4 3
0 3 2
2 1 0
6 3 4
6 5 3
7 11 10
7 10 9
9 8 7
12 16 15
15 13 12
12 13 18
12 18 17
15 14 13
19 17 18
19 18 21
21 20 19
25 23 22
29 22 23
25 24 23
26 24 25
25 27 26
29 23 31
31 30 29
26 28 24
35 33 32
36 32 33
35 34 33
36 33 38
38 37 36
39 43 42
39 42 41
41 40 39
44 48 47
44 47 46
46 45 44
50 47 48
50 49 47
51 56 55
51 55 54
51 54 53
53 52 51
57 61 60
60 58 57
57 58 63
57 63 62
60 59 58
64 62 63
64 63 66
66 65 64
