VertexCount: 116
-19.202400 -3.047999 -7.048500 1.000000 0.000000 0.000000 0.000000 0.000000 1.000000 -10.991072 4.386905 0 0 0 0 0.000000 0.000000 0.000000 0.000000
-19.202400 -3.047999 -7.277101 1.000000 0.000000 0.000000 0.000000 0.000000 1.000000 -11.348214 4.386905 0 0 0 0 0.000000 0.000000 0.000000 0.000000
-19.202400 -3.428999 -7.277101 1.000000 0.000000 0.000000 0.000000 0.000000 1.000000 -11.348214 4.982143 0 0 0 0 0.000000 0.000000 0.000000 0.000000
-19.202400 -3.428999 -7.048500 1.000000 0.000000 0.000000 0.000000 0.000000 1.000000 -10.991072 4.982143 0 0 0 0 0.000000 0.000000 0.000000 0.000000
-19.697701 -3.047999 -7.048500 -1.000000 0.000000 0.000000 0.000000 0.000000 1.000000 -10.991072 4.386905 0 0 0 0 0.000000 0.000000 0.000000 0.000000
-19.697701 -3.428999 -7.048500 -1.000000 0.000000 0.000000 0.000000 0.000000 1.000000 -10.991072 4.982143 0 0 0 0 0.000000 0.000000 0.000000 0.000000
-19.697701 -3.428999 -7.277101 -1.000000 0.000000 0.000000 0.000000 0.000000 1.000000 -11.348214 4.982143 0 0 0 0 0.000000 0.000000 0.000000 0.000000
-19.697701 -3.047999 -7.277101 -1.000000 0.000000 0.000000 0.000000 0.000000 1.000000 -11.348214 4.386905 0 0 0 0 0.000000 0.000000 0.000000 0.000000
-19.316700 -3.047997 -17.068800 -1.000000 0.000000 0.000000 0.000000 0.000000 1.000000 -26.645834 4.386905 0 0 0 0 0.000000 0.000000 0.000000 0.000000
-19.316700 -3.047997 -16.840200 -1.000000 0.000000 0.000000 0.000000 0.000000 1.000000 -26.288691 4.386905 0 0 0 0 0.000000 0.000000 0.000000 0.000000
-19.316700 -3.428998 -16.840200 -1.000000 0.000000 0.000000 0.000000 0.000000 1.000000 -26.288691 4.982143 0 0 0 0 0.000000 0.000000 0.000000 0.000000
-19.316700 -3.428998 -17.068800 -1.000000 0.000000 0.000000 0.000000 0.000000 1.000000 -26.645834 4.982143 0 0 0 0 0.000000 0.000000 0.000000 0.000000
-18.783300 -3.047997 -17.068800 1.000000 0.000000 0.000000 0.000000 0.000000 1.000000 -26.645834 4.386905 0 0 0 0 0.000000 0.000000 0.000000 0.000000
-18.783300 -3.428998 -17.068800 1.000000 0.000000 0.000000 0.000000 0.000000 1.000000 -26.645834 4.982143 0 0 0 0 0.000000 0.000000 0.000000 0.000000
-18.783300 -3.428998 -16.840200 1.000000 0.000000 0.000000 0.000000 0.000000 1.000000 -26.288691 4.982143 0 0 0 0 0.000000 0.000000 0.000000 0.000000
-18.783300 -3.047997 -16.840200 1.000000 0.000000 0.000000 0.000000 0.000000 1.000000 -26.288691 4.386905 0 0 0 0 0.000000 0.000000 0.000000 0.000000
-20.421600 -3.371849 -7.962901 0.000000 -1.000000 -0.000000 -0.000036 -0.000000 1.000000 -9.125000 -22.833334 0 0 0 0 0.000000 0.000000 0.000000 0.000000
-20.688301 -3.371849 -8.229601 0.000000 -1.000000 -0.000000 -0.000036 -0.000000 1.000000 -9.416667 -23.125000 0 0 0 0 0.000000 0.000000 0.000000 0.000000
-20.707348 -3.371849 -8.210551 0.000000 -1.000000 -0.000000 0.000066 -0.000000 1.000000 -9.395833 -23.145834 0 0 0 0 0.000000 0.000000 0.000000 0.000000
-20.440651 -3.371849 -7.943851 0.000000 -1.000000 -0.000000 -0.000036 -0.000000 1.000000 -9.104167 -22.854166 0 0 0 0 0.000000 0.000000 0.000000 0.000000
-20.688301 -2.990849 -8.229601 0.000000 1.000000 0.000000 1.000000 -0.000000 0.000001 -22.812500 9.770833 0 0 0 0 0.000000 0.000000 0.000000 0.000000
-20.421600 -2.990849 -7.962901 0.000000 1.000000 0.000000 1.000000 -0.000000 0.000001 -22.520834 9.479167 0 0 0 0 0.000000 0.000000 0.000000 0.000000
-20.440651 -2.990849 -7.943851 0.000000 1.000000 0.000000 1.000000 -0.000000 0.000008 -22.541666 9.458333 0 0 0 0 0.000000 0.000000 0.000000 0.000000
-20.707348 -2.990849 -8.210551 0.000000 1.000000 0.000000 1.000000 -0.000000 0.000001 -22.833334 9.750000 0 0 0 0 0.000000 0.000000 0.000000 0.000000
-20.707348 -2.990849 -8.210551 -0.707109 -0.000000 0.707104 0.707104 0.000000 0.707109 -9.458333 3.270833 0 0 0 0 0.000000 0.000000 0.000000 0.000000
-20.440651 -2.990849 -7.943851 -0.707109 -0.000000 0.707104 0.707104 0.000000 0.707109 -9.166667 3.270833 0 0 0 0 0.000000 0.000000 0.000000 0.000000
-20.440651 -3.371849 -7.943851 -0.707109 -0.000000 0.707104 0.707104 0.000000 0.707109 -9.166667 3.687500 0 0 0 0 0.000000 0.000000 0.000000 0.000000
-20.707348 -3.371849 -8.210551 -0.707109 -0.000000 0.707104 0.707104 0.000000 0.707109 -9.458333 3.687500 0 0 0 0 0.000000 0.000000 0.000000 0.000000
-20.688301 -2.990849 -8.229601 -0.707129 0.000000 -0.707085 -0.707085 0.000000 0.707129 -8.895833 2.312500 0 0 0 0 0.000000 0.000000 0.000000 0.000000
-20.707348 -2.990849 -8.210551 -0.707129 0.000000 -0.707085 -0.707085 0.000000 0.707129 -8.875000 2.312500 0 0 0 0 0.000000 0.000000 0.000000 0.000000
-20.707348 -3.371849 -8.210551 -0.707129 0.000000 -0.707085 -0.707085 0.000000 0.707129 -8.875000 2.729167 0 0 0 0 0.000000 0.000000 0.000000 0.000000
-20.688301 -3.371849 -8.229601 -0.707129 0.000000 -0.707085 -0.707092 0.000000 0.707122 -8.895833 2.729167 0 0 0 0 0.000000 0.000000 0.000000 0.000000
-20.421600 -2.990849 -7.962901 0.707091 -0.000000 0.707122 -0.707122 0.000000 0.707091 -8.541667 3.270833 0 0 0 0 0.000000 0.000000 0.000000 0.000000
-20.421600 -3.371849 -7.962901 0.707091 -0.000000 0.707122 -0.707118 0.000000 0.707095 -8.541667 3.687500 0 0 0 0 0.000000 0.000000 0.000000 0.000000
-20.440651 -3.371849 -7.943851 0.707091 -0.000000 0.707122 -0.707122 0.000000 0.707091 -8.520833 3.687500 0 0 0 0 0.000000 0.000000 0.000000 0.000000
-20.440651 -2.990849 -7.943851 0.707091 -0.000000 0.707122 -0.707122 0.000000 0.707091 -8.520833 3.270833 0 0 0 0 0.000000 0.000000 0.000000 0.000000
-20.250149 -3.409949 -8.134351 0.000000 -1.000000 -0.000000 1.000000 0.000000 0.000001 -22.687500 9.375000 0 0 0 0 0.000000 0.000000 0.000000 0.000000
-20.516850 -3.409949 -8.401051 0.000000 -1.000000 -0.000000 1.000000 0.000000 0.000001 -22.979166 9.666667 0 0 0 0 0.000000 0.000000 0.000000 0.000000
-20.612099 -3.409949 -8.305800 0.000000 -1.000000 -0.000000 1.000000 0.000000 0.000001 -23.083334 9.562500 0 0 0 0 0.000000 0.000000 0.000000 0.000000
-20.688301 -3.409949 -8.229601 0.000000 -1.000000 -0.000000 1.000000 0.000000 -0.000001 -23.166666 9.479167 0 0 0 0 0.000000 0.000000 0.000000 0.000000
-20.421600 -3.409949 -7.962901 0.000000 -1.000000 -0.000000 1.000000 0.000000 0.000000 -22.875000 9.187500 0 0 0 0 0.000000 0.000000 0.000000 0.000000
-20.345400 -3.409949 -8.039100 0.000000 -1.000000 -0.000000 0.637568 0.000000 0.770394 -22.791666 9.270833 0 0 0 0 0.000000 0.000000 0.000000 0.000000
-20.421600 -3.371849 -7.962901 -0.707107 -0.000000 0.707107 -0.000000 1.000000 0.000000 -3.687500 -8.770833 0 0 0 0 0.000000 0.000000 0.000000 0.000000
-20.421600 -3.409949 -7.962901 -0.707107 -0.000000 0.707107 -0.000000 1.000000 0.000000 -3.729167 -8.770833 0 0 0 0 0.000000 0.000000 0.000000 0.000000
-20.688301 -3.409949 -8.229601 -0.707107 -0.000000 0.707107 -0.000000 1.000000 0.000000 -3.729167 -9.062500 0 0 0 0 0.000000 0.000000 0.000000 0.000000
-20.688301 -3.371849 -8.229601 -0.707107 -0.000000 0.707107 -0.000000 1.000000 0.000000 -3.687500 -9.062500 0 0 0 0 0.000000 0.000000 0.000000 0.000000
-20.688301 -3.371849 -8.229601 -0.707107 0.000000 -0.707107 -0.707092 0.000000 0.707122 -9.916667 3.687500 0 0 0 0 0.000000 0.000000 0.000000 0.000000
-20.688301 -3.409949 -8.229601 -0.707107 0.000000 -0.707107 -0.707107 -0.000000 0.707107 -9.916667 3.729167 0 0 0 0 0.000000 0.000000 0.000000 0.000000
-20.612099 -3.409949 -8.305800 -0.707107 0.000000 -0.707107 -0.707109 -0.000000 0.707105 -10.000000 3.729167 0 0 0 0 0.000000 0.000000 0.000000 0.000000
-20.612099 -3.371849 -8.305800 -0.707107 0.000000 -0.707107 -0.707109 -0.000000 0.707105 -10.000000 3.687500 0 0 0 0 0.000000 0.000000 0.000000 0.000000
-20.612099 -3.371849 -8.305800 -0.707101 0.000000 -0.707113 -0.707109 -0.000000 0.707105 -9.208333 3.687500 0 0 0 0 0.000000 0.000000 0.000000 0.000000
-20.612099 -3.409949 -8.305800 -0.707101 0.000000 -0.707113 -0.707109 -0.000000 0.707105 -9.208333 3.729167 0 0 0 0 0.000000 0.000000 0.000000 0.000000
-20.516850 -3.409949 -8.401051 -0.707101 0.000000 -0.707113 -0.707113 0.000000 0.707101 -9.312500 3.729167 0 0 0 0 0.000000 0.000000 0.000000 0.000000
-20.516850 -3.371849 -8.401051 -0.707101 0.000000 -0.707113 -0.707113 0.000000 0.707101 -9.312500 3.687500 0 0 0 0 0.000000 0.000000 0.000000 0.000000
-20.516850 -3.371849 -8.401051 0.707111 0.000000 -0.707103 0.707103 -0.000000 0.707111 -9.854167 3.687500 0 0 0 0 0.000000 0.000000 0.000000 0.000000
-20.516850 -3.409949 -8.401051 0.707111 0.000000 -0.707103 0.707103 -0.000000 0.707111 -9.854167 3.729167 0 0 0 0 0.000000 0.000000 0.000000 0.000000
-20.250149 -3.409949 -8.134351 0.707111 0.000000 -0.707103 0.707103 -0.000000 0.707111 -9.562500 3.729167 0 0 0 0 0.000000 0.000000 0.000000 0.000000
-20.250149 -3.371849 -8.134351 0.707111 0.000000 -0.707103 0.707103 -0.000000 0.707111 -9.562500 3.687500 0 0 0 0 0.000000 0.000000 0.000000 0.000000
-20.421600 -3.371849 -7.962901 0.707103 -0.000000 0.707110 -0.707118 0.000000 0.707095 -9.500000 3.687500 0 0 0 0 0.000000 0.000000 0.000000 0.000000
-20.345400 -3.371849 -8.039100 0.707103 -0.000000 0.707110 -0.707109 0.000000 0.707104 -9.583333 3.687500 0 0 0 0 0.000000 0.000000 0.000000 0.000000
-20.345400 -3.409949 -8.039100 0.707103 -0.000000 0.707110 -0.707109 0.000000 0.707104 -9.583333 3.729167 0 0 0 0 0.000000 0.000000 0.000000 0.000000
-20.421600 -3.409949 -7.962901 0.707103 -0.000000 0.707110 -0.707110 0.000000 0.707103 -9.500000 3.729167 0 0 0 0 0.000000 0.000000 0.000000 0.000000
-20.345400 -3.371849 -8.039100 0.707107 -0.000000 0.707107 -0.707109 0.000000 0.707104 -8.541667 3.687500 0 0 0 0 0.000000 0.000000 0.000000 0.000000
-20.250149 -3.371849 -8.134351 0.707107 -0.000000 0.707107 -0.707107 0.000000 0.707107 -8.645833 3.687500 0 0 0 0 0.000000 0.000000 0.000000 0.000000
-20.250149 -3.409949 -8.134351 0.707107 -0.000000 0.707107 -0.707107 0.000000 0.707107 -8.645833 3.729167 0 0 0 0 0.000000 0.000000 0.000000 0.000000
-20.345400 -3.409949 -8.039100 0.707107 -0.000000 0.707107 -0.707109 0.000000 0.707104 -8.541667 3.729167 0 0 0 0 0.000000 0.000000 0.000000 0.000000
-20.764500 -3.371847 -15.925800 0.000000 -1.000000 -0.000000 0.000021 -0.000000 1.000000 -17.291666 -23.125000 0 0 0 0 0.000000 0.000000 0.000000 0.000000
-20.497799 -3.371847 -16.192501 0.000000 -1.000000 -0.000000 0.000021 -0.000000 1.000000 -17.583334 -22.833334 0 0 0 0 0.000000 0.000000 0.000000 0.000000
-20.516850 -3.371847 -16.211550 0.000000 -1.000000 -0.000000 0.000041 -0.000000 1.000000 -17.604166 -22.854166 0 0 0 0 0.000000 0.000000 0.000000 0.000000
-20.802599 -3.371847 -15.944850 0.000000 -1.000000 -0.000000 0.000021 -0.000000 1.000000 -17.312500 -23.166666 0 0 0 0 0.000000 0.000000 0.000000 0.000000
-20.497799 -2.990847 -16.192501 0.000000 1.000000 0.000000 1.000000 0.000000 -0.000042 -22.520834 17.937500 0 0 0 0 0.000000 0.000000 0.000000 0.000000
-20.764500 -2.990847 -15.925800 0.000000 1.000000 0.000000 1.000000 0.000000 -0.000042 -22.812500 17.645834 0 0 0 0 0.000000 0.000000 0.000000 0.000000
-20.802599 -2.990847 -15.944850 0.000000 1.000000 0.000000 1.000000 -0.000000 0.000005 -22.854166 17.666666 0 0 0 0 0.000000 0.000000 0.000000 0.000000
-20.516850 -2.990847 -16.211550 0.000000 1.000000 0.000000 1.000000 0.000000 -0.000042 -22.541666 17.958334 0 0 0 0 0.000000 0.000000 0.000000 0.000000
-20.516850 -2.990847 -16.211550 -0.682317 0.000000 -0.731056 0.731056 -0.000000 -0.682317 -22.375000 3.270833 0 0 0 0 0.000000 0.000000 0.000000 0.000000
-20.802599 -2.990847 -15.944850 -0.682317 0.000000 -0.731056 0.731056 -0.000000 -0.682317 -22.687500 3.270833 0 0 0 0 0.000000 0.000000 0.000000 0.000000
-20.802599 -3.371847 -15.944850 -0.682317 0.000000 -0.731056 0.731056 -0.000000 -0.682317 -22.687500 3.687500 0 0 0 0 0.000000 0.000000 0.000000 0.000000
-20.516850 -3.371847 -16.211550 -0.682317 0.000000 -0.731056 0.731056 -0.000000 -0.682317 -22.375000 3.687500 0 0 0 0 0.000000 0.000000 0.000000 0.000000
-20.497799 -2.990847 -16.192501 0.707088 0.000000 -0.707125 0.707125 -0.000000 0.707088 -17.458334 3.270833 0 0 0 0 0.000000 0.000000 0.000000 0.000000
-20.516850 -2.990847 -16.211550 0.707088 0.000000 -0.707125 0.707125 -0.000000 0.707088 -17.479166 3.270833 0 0 0 0 0.000000 0.000000 0.000000 0.000000
-20.516850 -3.371847 -16.211550 0.707088 0.000000 -0.707125 0.707125 -0.000000 0.707088 -17.479166 3.687500 0 0 0 0 0.000000 0.000000 0.000000 0.000000
-20.497799 -3.371847 -16.192501 0.707088 0.000000 -0.707125 0.707116 -0.000000 0.707098 -17.458334 3.687500 0 0 0 0 0.000000 0.000000 0.000000 0.000000
-20.764500 -2.990847 -15.925800 -0.447201 -0.000000 0.894434 0.894434 -0.000000 0.447201 -22.520834 2.312500 0 0 0 0 0.000000 0.000000 0.000000 0.000000
-20.764500 -3.371847 -15.925800 -0.447201 -0.000000 0.894434 0.894434 -0.000000 0.447201 -22.520834 2.729167 0 0 0 0 0.000000 0.000000 0.000000 0.000000
-20.802599 -3.371847 -15.944850 -0.447201 -0.000000 0.894434 0.894434 -0.000000 0.447201 -22.562500 2.729167 0 0 0 0 0.000000 0.000000 0.000000 0.000000
-20.802599 -2.990847 -15.944850 -0.447201 -0.000000 0.894434 0.894434 -0.000000 0.447201 -22.562500 2.312500 0 0 0 0 0.000000 0.000000 0.000000 0.000000
-20.593048 -3.409947 -15.754351 -0.000001 -1.000000 -0.000000 1.000000 -0.000001 0.000001 -22.979166 17.166666 0 0 0 0 0.000000 0.000000 0.000000 0.000000
-20.326351 -3.409947 -16.021049 -0.000001 -1.000000 -0.000000 1.000000 -0.000001 0.000001 -22.687500 17.458334 0 0 0 0 0.000000 0.000000 0.000000 0.000000
-20.440651 -3.409947 -16.135349 -0.000001 -1.000000 -0.000000 1.000000 -0.000001 0.000001 -22.812500 17.583334 0 0 0 0 0.000000 0.000000 0.000000 0.000000
-20.497799 -3.409947 -16.192501 -0.000001 -1.000000 -0.000000 1.000000 -0.000001 0.000031 -22.875000 17.645834 0 0 0 0 0.000000 0.000000 0.000000 0.000000
-20.764500 -3.409947 -15.925800 -0.000001 -1.000000 -0.000000 1.000000 -0.000001 0.000002 -23.166666 17.354166 0 0 0 0 0.000000 0.000000 0.000000 0.000000
-20.707348 -3.409947 -15.868649 -0.000001 -1.000000 -0.000000 -0.707107 0.000001 -0.707107 -23.104166 17.291666 0 0 0 0 0.000000 0.000000 0.000000 0.000000
-20.764500 -3.371847 -15.925800 -0.707111 0.000000 -0.707103 0.000000 1.000000 0.000000 -3.687500 -17.937500 0 0 0 0 0.000000 0.000000 0.000000 0.000000
-20.764500 -3.409947 -15.925800 -0.707111 0.000000 -0.707103 0.000000 1.000000 0.000000 -3.729167 -17.937500 0 0 0 0 0.000000 0.000000 0.000000 0.000000
-20.497799 -3.409947 -16.192501 -0.707111 0.000000 -0.707103 0.000000 1.000000 0.000000 -3.729167 -18.229166 0 0 0 0 0.000000 0.000000 0.000000 0.000000
-20.497799 -3.371847 -16.192501 -0.707111 0.000000 -0.707103 0.000000 1.000000 0.000000 -3.687500 -18.229166 0 0 0 0 0.000000 0.000000 0.000000 0.000000
-20.764500 -3.371847 -15.925800 -0.707107 -0.000000 0.707107 0.707107 -0.000004 0.707107 -16.979166 3.687500 0 0 0 0 0.000000 0.000000 0.000000 0.000000
-20.707348 -3.371847 -15.868649 -0.707107 -0.000000 0.707107 0.707105 -0.000003 0.707108 -16.916666 3.687500 0 0 0 0 0.000000 0.000000 0.000000 0.000000
-20.707348 -3.409947 -15.868649 -0.707107 -0.000000 0.707107 0.707105 -0.000003 0.707108 -16.916666 3.729167 0 0 0 0 0.000000 0.000000 0.000000 0.000000
-20.764500 -3.409947 -15.925800 -0.707107 -0.000000 0.707107 0.707107 -0.000004 0.707107 -16.979166 3.729167 0 0 0 0 0.000000 0.000000 0.000000 0.000000
-20.707348 -3.371847 -15.868649 -0.707112 -0.000000 0.707102 0.707105 -0.000003 0.707108 -17.395834 3.687500 0 0 0 0 0.000000 0.000000 0.000000 0.000000
-20.593048 -3.371847 -15.754351 -0.707112 -0.000000 0.707102 0.707102 -0.000000 0.707112 -17.270834 3.687500 0 0 0 0 0.000000 0.000000 0.000000 0.000000
-20.593048 -3.409947 -15.754351 -0.707112 -0.000000 0.707102 0.707102 -0.000000 0.707112 -17.270834 3.729167 0 0 0 0 0.000000 0.000000 0.000000 0.000000
-20.707348 -3.409947 -15.868649 -0.707112 -0.000000 0.707102 0.707105 -0.000003 0.707108 -17.395834 3.729167 0 0 0 0 0.000000 0.000000 0.000000 0.000000
-20.326351 -3.371847 -16.021049 0.707109 -0.000000 0.707105 -0.707105 -0.000001 0.707109 -17.645834 3.687500 0 0 0 0 0.000000 0.000000 0.000000 0.000000
-20.326351 -3.409947 -16.021049 0.707109 -0.000000 0.707105 -0.707105 -0.000001 0.707109 -17.645834 3.729167 0 0 0 0 0.000000 0.000000 0.000000 0.000000
-20.593048 -3.409947 -15.754351 0.707109 -0.000000 0.707105 -0.707105 -0.000001 0.707109 -17.354166 3.729167 0 0 0 0 0.000000 0.000000 0.000000 0.000000
-20.593048 -3.371847 -15.754351 0.707109 -0.000000 0.707105 -0.707105 -0.000001 0.707109 -17.354166 3.687500 0 0 0 0 0.000000 0.000000 0.000000 0.000000
-20.497799 -3.371847 -16.192501 0.707116 0.000000 -0.707097 0.707116 -0.000000 0.707098 -17.958334 3.687500 0 0 0 0 0.000000 0.000000 0.000000 0.000000
-20.497799 -3.409947 -16.192501 0.707116 0.000000 -0.707097 0.707097 0.000000 0.707116 -17.958334 3.729167 0 0 0 0 0.000000 0.000000 0.000000 0.000000
-20.440651 -3.409947 -16.135349 0.707116 0.000000 -0.707097 0.707099 0.000000 0.707115 -17.895834 3.729167 0 0 0 0 0.000000 0.000000 0.000000 0.000000
-20.440651 -3.371847 -16.135349 0.707116 0.000000 -0.707097 0.707099 0.000000 0.707115 -17.895834 3.687500 0 0 0 0 0.000000 0.000000 0.000000 0.000000
-20.440651 -3.371847 -16.135349 0.707112 0.000000 -0.707102 0.707099 0.000000 0.707115 -17.312500 3.687500 0 0 0 0 0.000000 0.000000 0.000000 0.000000
-20.440651 -3.409947 -16.135349 0.707112 0.000000 -0.707102 0.707099 0.000000 0.707115 -17.312500 3.729167 0 0 0 0 0.000000 0.000000 0.000000 0.000000
-20.326351 -3.409947 -16.021049 0.707112 0.000000 -0.707102 0.707102 -0.000000 0.707112 -17.187500 3.729167 0 0 0 0 0.000000 0.000000 0.000000 0.000000
-20.326351 -3.371847 -16.021049 0.707112 0.000000 -0.707102 0.707102 -0.000000 0.707112 -17.187500 3.687500 0 0 0 0 0.000000 0.000000 0.000000 0.000000
IndexCount: 192
3 1 0
3 1 0
3 2 1
3 2 1
7 5 4
7 5 4
7 6 5
7 6 5
11 9 8
11 10 9
15 13 12
15 14 13
19 17 16
19 18 17
23 21 20
23 22 21
27 25 24
27 26 25
31 29 28
31 30 29
35 33 32
35 34 33
36 41 40
36 40 39
36 39 38
38 37 36
45 43 42
45 44 43
49 47 46
49 48 47
53 51 50
53 52 51
57 55 54
57 56 55
61 59 58
61 60 59
65 63 62
65 64 63
69 67 66
69 68 67
73 71 70
73 72 71
77 75 74
77 76 75
81 79 78
81 80 79
85 83 82
85 84 83
86 91 90
86 90 89
86 89 88
88 87 86
95 93 92
95 94 93
99 97 96
99 98 97
103 101 100
103 102 101
107 105 104
107 106 105
111 109 108
111 110 109
115 113 112
115 114 113