VertexCount: 171
-4.267200 -4.114799 -3.543301 -0.000000 1.000000 0.000000 1.000000 0.000000 0.000000 -3.218750 3.093750 0 0 0 0 0.000000 0.000000 0.000000 0.000000
-3.048000 -4.114799 -3.543301 -0.000000 1.000000 0.000000 1.000000 0.000000 0.000000 -2.218750 3.093750 0 0 0 0 0.000000 0.000000 0.000000 0.000000
-3.048000 -4.114800 -1.676401 -0.000000 1.000000 0.000000 1.000000 0.000000 0.000000 -2.218750 1.562500 0 0 0 0 0.000000 0.000000 0.000000 0.000000
-4.267200 -4.114800 -1.676401 -0.000000 1.000000 0.000000 1.000000 0.000000 0.000000 -3.218750 1.562500 0 0 0 0 0.000000 0.000000 0.000000 0.000000
-5.791199 -4.114800 -1.676401 -0.000000 1.000000 0.000000 1.000000 0.000000 0.000000 -4.468750 1.562500 0 0 0 0 0.000000 0.000000 0.000000 0.000000
-6.705599 -4.114800 -1.676401 -0.000000 1.000000 0.000000 1.000000 0.000000 0.000000 -5.218750 1.562500 0 0 0 0 0.000000 0.000000 0.000000 0.000000
-7.619999 -4.114800 -1.676401 -0.000000 1.000000 0.000000 1.000000 0.000000 0.000000 -5.968750 1.562500 0 0 0 0 0.000000 0.000000 0.000000 0.000000
-8.534399 -4.114800 -1.676401 -0.000000 1.000000 0.000000 1.000000 0.000000 0.000000 -6.718750 1.562500 0 0 0 0 0.000000 0.000000 0.000000 0.000000
-8.534399 -4.114800 -3.543301 -0.000000 1.000000 0.000000 1.000000 0.000000 0.000000 -6.718750 3.093750 0 0 0 0 0.000000 0.000000 0.000000 0.000000
-4.267200 -4.114799 -3.810001 -0.000000 1.000000 0.000000 1.000000 0.000000 0.000000 -3.218750 3.312500 0 0 0 0 0.000000 0.000000 0.000000 0.000000
-3.048000 -4.114799 -3.810001 -0.000000 1.000000 0.000000 1.000000 0.000000 0.000000 -2.218750 3.312500 0 0 0 0 0.000000 0.000000 0.000000 0.000000
-8.534399 -4.114800 -3.810001 -0.000000 1.000000 0.000000 1.000000 0.000000 0.000000 -6.718750 3.312500 0 0 0 0 0.000000 0.000000 0.000000 0.000000
-5.791199 -4.114800 -3.810001 -0.000000 1.000000 0.000000 -1.000000 -0.000000 -0.000000 -4.468750 3.312500 0 0 0 0 0.000000 0.000000 0.000000 0.000000
-5.791199 -4.114799 -4.267201 -0.000000 1.000000 0.000000 1.000000 0.000000 0.000000 -4.468750 3.687500 0 0 0 0 0.000000 0.000000 0.000000 0.000000
-5.791199 -4.114800 -3.810001 -0.000000 1.000000 0.000000 1.000000 0.000000 -0.000000 -4.468750 3.312500 0 0 0 0 0.000000 0.000000 0.000000 0.000000
-8.534399 -4.114800 -4.267201 -0.000000 1.000000 0.000000 1.000000 0.000000 -0.000000 -6.718750 3.687500 0 0 0 0 0.000000 0.000000 0.000000 0.000000
-7.162799 -4.114799 -8.763001 -0.000000 1.000000 0.000000 1.000000 0.000000 -0.000000 -5.593750 7.375000 0 0 0 0 0.000000 0.000000 0.000000 0.000000
-7.162799 -4.114799 -6.934202 -0.000000 1.000000 0.000000 1.000000 0.000000 -0.000000 -5.593750 5.875000 0 0 0 0 0.000000 0.000000 0.000000 0.000000
-8.534399 -4.114799 -6.934202 -0.000000 1.000000 0.000000 1.000000 0.000000 -0.000000 -6.718750 5.875000 0 0 0 0 0.000000 0.000000 0.000000 0.000000
-8.534399 -4.114799 -7.315201 -0.000000 1.000000 0.000000 1.000000 0.000000 -0.000003 -6.718750 6.187500 0 0 0 0 0.000000 0.000000 0.000000 0.000000
-8.534399 -4.114799 -8.229601 -0.000000 1.000000 0.000000 1.000000 0.000000 0.000000 -6.718750 6.937500 0 0 0 0 0.000000 0.000000 0.000000 0.000000
-8.534399 -4.114799 -8.534401 -0.000000 1.000000 0.000000 1.000000 0.000000 -0.000000 -6.718750 7.187500 0 0 0 0 0.000000 0.000000 0.000000 0.000000
-8.534399 -4.114799 -8.763001 -0.000000 1.000000 0.000000 1.000000 0.000000 -0.000000 -6.718750 7.375000 0 0 0 0 0.000000 0.000000 0.000000 0.000000
-6.248399 -4.114799 -8.763001 -0.000000 1.000000 0.000000 1.000000 0.000000 0.000000 -4.843750 7.375000 0 0 0 0 0.000000 0.000000 0.000000 0.000000
-4.267199 -4.114799 -8.763001 -0.000000 1.000000 0.000000 1.000000 0.000000 0.000000 -3.218750 7.375000 0 0 0 0 0.000000 0.000000 0.000000 0.000000
-3.047999 -4.114799 -8.763000 -0.000000 1.000000 0.000000 1.000000 0.000000 0.000001 -2.218750 7.375000 0 0 0 0 0.000000 0.000000 0.000000 0.000000
-3.047999 -4.114799 -8.382001 -0.000000 1.000000 0.000000 1.000000 0.000000 0.000000 -2.218750 7.062500 0 0 0 0 0.000000 0.000000 0.000000 0.000000
-3.047999 -4.114799 -6.934201 -0.000000 1.000000 0.000000 1.000000 0.000000 0.000000 -2.218750 5.875000 0 0 0 0 0.000000 0.000000 0.000000 0.000000
-4.267199 -4.114799 -6.934202 -0.000000 1.000000 0.000000 1.000000 0.000000 0.000000 -3.218750 5.875000 0 0 0 0 0.000000 0.000000 0.000000 0.000000
-6.248399 -4.114799 -6.934202 -0.000000 1.000000 0.000000 1.000000 0.000000 0.000000 -4.843750 5.875000 0 0 0 0 0.000000 0.000000 0.000000 0.000000
-4.267199 -4.114799 -10.820401 -0.000000 1.000000 0.000000 1.000000 0.000000 0.000000 -3.218750 9.062500 0 0 0 0 0.000000 0.000000 0.000000 0.000000
-3.047999 -4.114799 -10.820401 -0.000000 1.000000 0.000000 1.000000 0.000000 0.000000 -2.218750 9.062500 0 0 0 0 0.000000 0.000000 0.000000 0.000000
-8.534399 -4.114799 -9.753601 -0.000000 1.000000 0.000000 1.000000 0.000000 -0.000001 -6.718750 8.187500 0 0 0 0 0.000000 0.000000 0.000000 0.000000
-8.534399 -4.114799 -10.058401 -0.000000 1.000000 0.000000 1.000000 0.000000 0.000000 -6.718750 8.437500 0 0 0 0 0.000000 0.000000 0.000000 0.000000
-8.534398 -4.114799 -10.820402 -0.000000 1.000000 0.000000 1.000000 0.000000 0.000001 -6.718750 9.062500 0 0 0 0 0.000000 0.000000 0.000000 0.000000
-6.515098 -4.114799 -10.820401 -0.000000 1.000000 0.000000 1.000000 0.000000 -0.000000 -5.062500 9.062500 0 0 0 0 0.000000 0.000000 0.000000 0.000000
-6.057898 -4.114799 -10.820401 -0.000000 1.000000 0.000000 -1.000000 -0.000000 0.000000 -4.687500 9.062500 0 0 0 0 0.000000 0.000000 0.000000 0.000000
-3.047999 -4.114799 -5.943601 -0.000000 1.000000 0.000000 1.000000 0.000000 0.000000 -2.218750 5.062500 0 0 0 0 0.000000 0.000000 0.000000 0.000000
-3.048000 -4.114799 -4.267201 -0.000000 1.000000 0.000000 1.000000 0.000000 0.000000 -2.218750 3.687500 0 0 0 0 0.000000 0.000000 0.000000 0.000000
-3.962399 -4.114799 -4.267201 -0.000000 1.000000 0.000000 1.000000 0.000000 0.000000 -2.968750 3.687500 0 0 0 0 0.000000 0.000000 0.000000 0.000000
-4.267200 -4.114799 -4.267201 -0.000000 1.000000 0.000000 1.000000 0.000000 0.000000 -3.218750 3.687500 0 0 0 0 0.000000 0.000000 0.000000 0.000000
-4.876799 -4.114799 -4.267201 -0.000000 1.000000 0.000000 1.000000 0.000000 0.000000 -3.718750 3.687500 0 0 0 0 0.000000 0.000000 0.000000 0.000000
-6.248399 -4.114799 -6.934202 -0.000000 1.000000 0.000000 -1.000000 -0.000000 -0.000000 -4.843750 5.875000 0 0 0 0 0.000000 0.000000 0.000000 0.000000
-0.457198 -4.114797 -17.678400 -0.000000 1.000000 0.000000 1.000000 0.000000 0.000000 -0.375000 14.500000 0 0 0 0 0.000000 0.000000 0.000000 0.000000
-1.066798 -4.114797 -17.678400 -0.000000 1.000000 0.000000 1.000000 0.000000 0.000000 -0.875000 14.500000 0 0 0 0 0.000000 0.000000 0.000000 0.000000
-1.066798 -4.114797 -19.812002 -0.000000 1.000000 0.000000 1.000000 0.000000 -0.000000 -0.875000 16.250000 0 0 0 0 0.000000 0.000000 0.000000 0.000000
-0.457198 -4.114797 -19.812002 -0.000000 1.000000 0.000000 1.000000 0.000000 0.000000 -0.375000 16.250000 0 0 0 0 0.000000 0.000000 0.000000 0.000000
-0.457198 -4.114797 -19.507200 -0.000000 1.000000 0.000000 0.000000 0.000000 -1.000000 -0.375000 16.000000 0 0 0 0 0.000000 0.000000 0.000000 0.000000
-0.457198 -4.114797 -18.592802 -0.000000 1.000000 0.000000 1.000000 0.000000 0.000000 -0.375000 15.250000 0 0 0 0 0.000000 0.000000 0.000000 0.000000
-0.457198 -4.114796 -22.250401 0.000000 1.000000 0.000000 1.000000 -0.000000 -0.000000 -0.375000 18.250000 0 0 0 0 0.000000 0.000000 0.000000 0.000000
-1.066798 -4.114796 -22.250401 0.000000 1.000000 0.000000 1.000000 -0.000000 -0.000000 -0.875000 18.250000 0 0 0 0 0.000000 0.000000 0.000000 0.000000
-1.066797 -4.114796 -24.384001 0.000000 1.000000 0.000000 1.000000 -0.000000 -0.000000 -0.875000 20.000000 0 0 0 0 0.000000 0.000000 0.000000 0.000000
-0.457197 -4.114796 -24.384001 0.000000 1.000000 0.000000 1.000000 -0.000000 -0.000000 -0.375000 20.000000 0 0 0 0 0.000000 0.000000 0.000000 0.000000
-0.457198 -4.114796 -23.469599 0.000000 1.000000 0.000000 0.000000 0.000000 -1.000000 -0.375000 19.250000 0 0 0 0 0.000000 0.000000 0.000000 0.000000
-0.457198 -4.114796 -22.555201 0.000000 1.000000 0.000000 0.000000 0.000000 -1.000000 -0.375000 18.500000 0 0 0 0 0.000000 0.000000 0.000000 0.000000
-1.981198 -4.114797 -17.678400 -0.000000 1.000000 0.000000 1.000000 0.000000 0.000000 -1.625000 14.500000 0 0 0 0 0.000000 0.000000 0.000000 0.000000
-1.981198 -4.114797 -19.812002 -0.000000 1.000000 0.000000 1.000000 0.000000 0.000000 -1.625000 16.250000 0 0 0 0 0.000000 0.000000 0.000000 0.000000
-1.981198 -4.114797 -17.678400 -0.000000 1.000000 0.000000 1.000000 0.000000 0.000000 -1.625000 14.500000 0 0 0 0 0.000000 0.000000 0.000000 0.000000
-2.895598 -4.114797 -17.678400 -0.000000 1.000000 0.000000 1.000000 0.000000 -0.000000 -2.375000 14.500000 0 0 0 0 0.000000 0.000000 0.000000 0.000000
-3.505198 -4.114798 -17.678400 -0.000000 1.000000 0.000000 1.000000 0.000000 0.000000 -2.875000 14.500000 0 0 0 0 0.000000 0.000000 0.000000 0.000000
-5.638797 -4.114798 -17.678400 -0.000000 1.000000 0.000000 1.000000 0.000000 0.000000 -4.625000 14.500000 0 0 0 0 0.000000 0.000000 0.000000 0.000000
-6.248398 -4.114798 -17.678400 -0.000000 1.000000 0.000000 1.000000 0.000000 0.000000 -5.125000 14.500000 0 0 0 0 0.000000 0.000000 0.000000 0.000000
-6.248398 -4.114797 -19.812002 -0.000000 1.000000 0.000000 1.000000 0.000000 0.000000 -5.125000 16.250000 0 0 0 0 0.000000 0.000000 0.000000 0.000000
-4.419598 -4.114797 -19.812002 -0.000000 1.000000 0.000000 1.000000 0.000000 0.000000 -3.625000 16.250000 0 0 0 0 0.000000 0.000000 0.000000 0.000000
-4.114798 -4.114797 -19.812002 -0.000000 1.000000 0.000000 1.000000 0.000000 0.000000 -3.375000 16.250000 0 0 0 0 0.000000 0.000000 0.000000 0.000000
-2.285998 -4.114797 -19.812002 -0.000000 1.000000 0.000000 1.000000 0.000000 -0.000000 -1.875000 16.250000 0 0 0 0 0.000000 0.000000 0.000000 0.000000
-1.981198 -4.114797 -22.250401 -0.000000 1.000000 0.000000 1.000000 0.000000 -0.000000 -1.625000 18.250000 0 0 0 0 0.000000 0.000000 0.000000 0.000000
-1.981197 -4.114796 -24.384001 -0.000000 1.000000 0.000000 1.000000 0.000000 -0.000000 -1.625000 20.000000 0 0 0 0 0.000000 0.000000 0.000000 0.000000
-1.981198 -4.114797 -22.250401 -0.000000 1.000000 0.000000 -1.000000 -0.000000 -0.000000 -1.625000 18.250000 0 0 0 0 0.000000 0.000000 0.000000 0.000000
-2.285998 -4.114797 -22.250401 -0.000000 1.000000 0.000000 1.000000 0.000000 0.000000 -1.875000 18.250000 0 0 0 0 0.000000 0.000000 0.000000 0.000000
-4.114798 -4.114797 -22.250401 -0.000000 1.000000 0.000000 1.000000 0.000000 0.000000 -3.375000 18.250000 0 0 0 0 0.000000 0.000000 0.000000 0.000000
-4.419598 -4.114797 -22.250401 -0.000000 1.000000 0.000000 1.000000 0.000000 0.000000 -3.625000 18.250000 0 0 0 0 0.000000 0.000000 0.000000 0.000000
-6.248398 -4.114797 -22.250401 -0.000000 1.000000 0.000000 1.000000 0.000000 0.000000 -5.125000 18.250000 0 0 0 0 0.000000 0.000000 0.000000 0.000000
-6.248398 -4.114797 -24.384001 -0.000000 1.000000 0.000000 1.000000 0.000000 0.000000 -5.125000 20.000000 0 0 0 0 0.000000 0.000000 0.000000 0.000000
-5.638797 -4.114797 -24.384001 -0.000000 1.000000 0.000000 1.000000 0.000000 0.000000 -4.625000 20.000000 0 0 0 0 0.000000 0.000000 0.000000 0.000000
-3.505198 -4.114796 -24.384001 -0.000000 1.000000 0.000000 1.000000 0.000000 -0.000000 -2.875000 20.000000 0 0 0 0 0.000000 0.000000 0.000000 0.000000
-2.895597 -4.114796 -24.384001 -0.000000 1.000000 0.000000 1.000000 0.000000 0.000000 -2.375000 20.000000 0 0 0 0 0.000000 0.000000 0.000000 0.000000
-16.459198 -4.114799 -12.192003 -0.000000 1.000000 0.000000 1.000000 0.000000 0.000000 -13.218750 9.250000 0 0 0 0 0.000000 0.000000 0.000000 0.000000
-16.459198 -4.114799 -14.249403 -0.000000 1.000000 0.000000 1.000000 0.000000 0.000000 -13.218750 10.937500 0 0 0 0 0.000000 0.000000 0.000000 0.000000
-14.935199 -4.114799 -14.249403 -0.000000 1.000000 0.000000 1.000000 0.000000 0.000000 -11.968750 10.937500 0 0 0 0 0.000000 0.000000 0.000000 0.000000
-14.935199 -4.114799 -13.106402 -0.000000 1.000000 0.000000 1.000000 0.000000 0.000001 -11.968750 10.000000 0 0 0 0 0.000000 0.000000 0.000000 0.000000
-14.935199 -4.114799 -12.192003 -0.000000 1.000000 0.000000 1.000000 0.000000 0.000000 -11.968750 9.250000 0 0 0 0 0.000000 0.000000 0.000000 0.000000
-16.459198 -4.114800 -7.924801 0.000000 1.000000 0.000000 1.000000 -0.000000 0.000000 -13.218750 5.750000 0 0 0 0 0.000000 0.000000 0.000000 0.000000
-14.935199 -4.114799 -11.582402 0.000000 1.000000 0.000000 1.000000 -0.000000 0.000002 -11.968750 8.750000 0 0 0 0 0.000000 0.000000 0.000000 0.000000
-14.935199 -4.114799 -10.058402 0.000000 1.000000 0.000000 1.000000 -0.000000 -0.000000 -11.968750 7.500000 0 0 0 0 0.000000 0.000000 0.000000 0.000000
-14.935199 -4.114800 -8.534402 0.000000 1.000000 0.000000 1.000000 -0.000000 -0.000000 -11.968750 6.250000 0 0 0 0 0.000000 0.000000 0.000000 0.000000
-14.935199 -4.114800 -7.924801 0.000000 1.000000 0.000000 1.000000 -0.000000 -0.000000 -11.968750 5.750000 0 0 0 0 0.000000 0.000000 0.000000 0.000000
-15.697198 -4.114800 -7.924801 0.000000 1.000000 0.000000 1.000000 -0.000000 -0.000000 -12.593750 5.750000 0 0 0 0 0.000000 0.000000 0.000000 0.000000
-16.306799 -4.114800 -7.924801 0.000000 1.000000 0.000000 1.000000 -0.000000 -0.000000 -13.093750 5.750000 0 0 0 0 0.000000 0.000000 0.000000 0.000000
-20.726400 -4.114799 -12.192003 -0.000000 1.000000 0.000000 1.000000 0.000000 -0.000001 -16.718750 9.250000 0 0 0 0 0.000000 0.000000 0.000000 0.000000
-20.726398 -4.114799 -14.097002 -0.000000 1.000000 0.000000 1.000000 0.000000 -0.000001 -16.718750 10.812500 0 0 0 0 0.000000 0.000000 0.000000 0.000000
-20.726398 -4.114799 -14.249403 -0.000000 1.000000 0.000000 1.000000 0.000000 0.000001 -16.718750 10.937500 0 0 0 0 0.000000 0.000000 0.000000 0.000000
-18.364199 -4.114800 -7.924802 -0.000000 1.000000 0.000000 1.000000 0.000000 0.000000 -14.781250 5.750000 0 0 0 0 0.000000 0.000000 0.000000 0.000000
-18.516598 -4.114800 -7.924802 -0.000000 1.000000 0.000000 1.000000 0.000000 0.000000 -14.906250 5.750000 0 0 0 0 0.000000 0.000000 0.000000 0.000000
-20.726400 -4.114800 -7.924802 -0.000000 1.000000 0.000000 1.000000 0.000000 -0.000000 -16.718750 5.750000 0 0 0 0 0.000000 0.000000 0.000000 0.000000
-20.726400 -4.114800 -9.829802 -0.000000 1.000000 0.000000 1.000000 0.000000 -0.000000 -16.718750 7.312500 0 0 0 0 0.000000 0.000000 0.000000 0.000000
-20.726400 -4.114800 -9.982202 -0.000000 1.000000 0.000000 1.000000 0.000000 -0.000000 -16.718750 7.437500 0 0 0 0 0.000000 0.000000 0.000000 0.000000
-18.516598 -4.114800 -7.010403 -0.000000 1.000000 0.000000 1.000000 0.000000 -0.000000 -14.906250 5.000000 0 0 0 0 0.000000 0.000000 0.000000 0.000000
-20.726400 -4.114800 -7.010403 -0.000000 1.000000 0.000000 1.000000 0.000000 0.000000 -16.718750 5.000000 0 0 0 0 0.000000 0.000000 0.000000 0.000000
-20.726400 -4.114800 -7.505702 -0.000000 1.000000 0.000000 0.000000 -0.000000 1.000000 -16.718750 5.406250 0 0 0 0 0.000000 0.000000 0.000000 0.000000
-15.697198 -4.114800 -7.696202 -0.000000 1.000000 0.000000 1.000000 0.000000 -0.000000 -12.593750 5.562500 0 0 0 0 0.000000 0.000000 0.000000 0.000000
-16.306799 -4.114800 -7.696202 -0.000000 1.000000 0.000000 1.000000 0.000000 -0.000000 -13.093750 5.562500 0 0 0 0 0.000000 0.000000 0.000000 0.000000
-16.306799 -4.114800 -7.924801 -0.000000 1.000000 0.000000 1.000000 0.000000 0.000000 -13.093750 5.750000 0 0 0 0 0.000000 0.000000 0.000000 0.000000
-15.697198 -4.114800 -7.924801 -0.000000 1.000000 0.000000 1.000000 0.000000 -0.000000 -12.593750 5.750000 0 0 0 0 0.000000 0.000000 0.000000 0.000000
-15.697198 -4.114800 -7.086602 -0.000000 1.000000 0.000000 -0.000000 -0.000000 1.000000 -12.593750 5.062500 0 0 0 0 0.000000 0.000000 0.000000 0.000000
-15.697198 -4.114800 -7.696202 -0.000000 1.000000 0.000000 -0.000000 -0.000000 1.000000 -12.593750 5.562500 0 0 0 0 0.000000 0.000000 0.000000 0.000000
-15.697198 -4.114800 -7.924801 -0.000000 1.000000 0.000000 -0.000000 -0.000000 1.000000 -12.593750 5.750000 0 0 0 0 0.000000 0.000000 0.000000 0.000000
-14.935199 -4.114800 -7.086602 -0.000000 1.000000 0.000000 1.000000 0.000000 -0.000000 -11.968750 5.062500 0 0 0 0 0.000000 0.000000 0.000000 0.000000
-16.306799 -4.114800 -7.086602 -0.000000 1.000000 0.000000 1.000000 0.000000 0.000000 -13.093750 5.062500 0 0 0 0 0.000000 0.000000 0.000000 0.000000
-16.459198 -4.114800 -7.086602 -0.000000 1.000000 0.000000 1.000000 0.000000 0.000000 -13.218750 5.062500 0 0 0 0 0.000000 0.000000 0.000000 0.000000
-16.459198 -4.114800 -7.696202 -0.000000 1.000000 0.000000 1.000000 0.000000 0.000000 -13.218750 5.562500 0 0 0 0 0.000000 0.000000 0.000000 0.000000
-16.306799 -4.114800 -7.696202 -0.000000 1.000000 0.000000 0.000000 0.000000 -1.000000 -13.093750 5.562500 0 0 0 0 0.000000 0.000000 0.000000 0.000000
-16.459198 -4.114800 -7.696202 -0.000000 1.000000 0.000000 1.000000 0.000000 0.000000 -13.218750 5.562500 0 0 0 0 0.000000 0.000000 0.000000 0.000000
-17.068798 -4.114800 -7.696202 -0.000000 1.000000 0.000000 1.000000 0.000000 0.000000 -13.718750 5.562500 0 0 0 0 0.000000 0.000000 0.000000 0.000000
-18.364199 -4.114800 -7.696202 -0.000000 1.000000 0.000000 1.000000 0.000000 0.000000 -14.781250 5.562500 0 0 0 0 0.000000 0.000000 0.000000 0.000000
-17.068798 -4.114800 -7.696202 -0.000000 1.000000 0.000000 1.000000 0.000000 0.000000 -13.718750 5.562500 0 0 0 0 0.000000 0.000000 0.000000 0.000000
-17.068798 -4.114800 -7.086602 -0.000000 1.000000 0.000000 1.000000 0.000000 0.000000 -13.718750 5.062500 0 0 0 0 0.000000 0.000000 0.000000 0.000000
-18.364199 -4.114800 -7.086603 -0.000000 1.000000 0.000000 1.000000 0.000000 0.000000 -14.781250 5.062500 0 0 0 0 0.000000 0.000000 0.000000 0.000000
-18.364199 -4.114800 -7.696202 -0.000000 1.000000 0.000000 1.000000 0.000000 0.000000 -14.781250 5.562500 0 0 0 0 0.000000 0.000000 0.000000 0.000000
-16.459198 -4.114800 -7.086602 -0.000000 1.000000 0.000000 -1.000000 -0.000000 0.000000 -13.218750 5.062500 0 0 0 0 0.000000 0.000000 0.000000 0.000000
-16.306799 -4.114800 -7.086602 -0.000000 1.000000 0.000000 -1.000000 -0.000000 0.000000 -13.093750 5.062500 0 0 0 0 0.000000 0.000000 0.000000 0.000000
-15.697198 -4.114800 -7.086602 -0.000000 1.000000 0.000000 -1.000000 -0.000000 0.000000 -12.593750 5.062500 0 0 0 0 0.000000 0.000000 0.000000 0.000000
-14.935199 -4.114800 -7.086602 -0.000000 1.000000 0.000000 -1.000000 -0.000000 0.000000 -11.968750 5.062500 0 0 0 0 0.000000 0.000000 0.000000 0.000000
-14.935199 -4.114800 -7.010402 -0.000000 1.000000 0.000000 1.000000 0.000000 0.000000 -11.968750 5.000000 0 0 0 0 0.000000 0.000000 0.000000 0.000000
-18.364199 -4.114800 -7.010403 -0.000000 1.000000 0.000000 1.000000 0.000000 0.000000 -14.781250 5.000000 0 0 0 0 0.000000 0.000000 0.000000 0.000000
-21.640800 -4.114800 -9.982202 -0.000001 1.000000 0.000000 1.000000 0.000001 -0.000003 -17.468750 7.437500 0 0 0 0 0.000000 0.000000 0.000000 0.000000
-21.640799 -4.114799 -14.097003 -0.000001 1.000000 0.000000 1.000000 0.000001 0.000001 -17.468750 10.812500 0 0 0 0 0.000000 0.000000 0.000000 0.000000
-20.878798 -4.114800 -7.658102 -0.000000 1.000000 0.000000 1.000000 -0.000000 -0.000000 -16.843750 5.531250 0 0 0 0 0.000000 0.000000 0.000000 0.000000
-20.726400 -4.114800 -7.505702 -0.000000 1.000000 0.000000 1.000000 0.000000 0.000000 -16.718750 5.406250 0 0 0 0 0.000000 0.000000 0.000000 0.000000
-21.526501 -4.114800 -7.010403 -0.000000 1.000000 0.000000 1.000000 0.000000 0.000000 -17.375000 5.000000 0 0 0 0 0.000000 0.000000 0.000000 0.000000
-20.993099 -4.114800 -7.772402 0.000001 1.000000 0.000000 1.000000 -0.000001 -0.000000 -16.937500 5.625000 0 0 0 0 0.000000 0.000000 0.000000 0.000000
-21.640800 -4.114800 -7.124702 0.000001 1.000000 0.000000 1.000000 -0.000001 0.000000 -17.468750 5.093750 0 0 0 0 0.000000 0.000000 0.000000 0.000000
-21.640800 -4.114800 -8.420102 0.000001 1.000000 0.000000 1.000000 -0.000001 0.000000 -17.468750 6.156250 0 0 0 0 0.000000 0.000000 0.000000 0.000000
-20.726400 -4.114800 -9.829802 0.000000 1.000000 0.000000 0.000000 0.000000 -1.000000 -16.718750 7.312500 0 0 0 0 0.000000 0.000000 0.000000 0.000000
-20.726400 -4.114800 -7.924802 0.000000 1.000000 0.000000 0.000000 0.000000 -1.000000 -16.718750 5.750000 0 0 0 0 0.000000 0.000000 0.000000 0.000000
-20.726400 -4.114800 -7.505702 0.000000 1.000000 0.000000 0.000000 0.000000 -1.000000 -16.718750 5.406250 0 0 0 0 0.000000 0.000000 0.000000 0.000000
-21.640800 -4.114800 -9.829802 0.000000 1.000000 0.000000 1.000000 -0.000000 -0.000000 -17.468750 7.312500 0 0 0 0 0.000000 0.000000 0.000000 0.000000
-21.640800 -4.114800 -7.010403 -0.000000 1.000000 0.000000 1.000000 0.000000 0.000000 -17.468750 5.000000 0 0 0 0 0.000000 0.000000 0.000000 0.000000
-21.526499 -4.114799 -17.068804 -0.000000 1.000000 0.000000 1.000000 0.000000 0.000001 -17.375000 13.250000 0 0 0 0 0.000000 0.000000 0.000000 0.000000
-21.640799 -4.114799 -16.954504 -0.000000 1.000000 0.000000 1.000000 -0.000000 -0.000000 -17.468750 13.156250 0 0 0 0 0.000000 0.000000 0.000000 0.000000
-21.640799 -4.114799 -17.068804 -0.000000 1.000000 0.000000 1.000000 0.000000 0.000000 -17.468750 13.250000 0 0 0 0 0.000000 0.000000 0.000000 0.000000
-20.726398 -4.114799 -16.573502 -0.000000 1.000000 0.000000 1.000000 0.000000 0.000007 -16.718750 12.843750 0 0 0 0 0.000000 0.000000 0.000000 0.000000
-20.726398 -4.114799 -16.154402 -0.000000 1.000000 0.000000 1.000000 0.000000 0.000005 -16.718750 12.500000 0 0 0 0 0.000000 0.000000 0.000000 0.000000
-21.640799 -4.114799 -14.249404 -0.000000 1.000000 0.000000 1.000000 0.000000 0.000001 -17.468750 10.937500 0 0 0 0 0.000000 0.000000 0.000000 0.000000
-21.640799 -4.114799 -15.659103 -0.000000 1.000000 0.000000 1.000000 -0.000000 0.000000 -17.468750 12.093750 0 0 0 0 0.000000 0.000000 0.000000 0.000000
-20.993097 -4.114799 -16.306805 -0.000000 1.000000 0.000000 -0.707108 -0.000000 0.707106 -16.937500 12.625000 0 0 0 0 0.000000 0.000000 0.000000 0.000000
-20.878796 -4.114799 -16.421103 -0.000000 1.000000 0.000000 1.000000 0.000000 0.000007 -16.843750 12.718750 0 0 0 0 0.000000 0.000000 0.000000 0.000000
-20.993097 -4.114799 -16.306805 0.000001 1.000000 0.000000 1.000000 -0.000001 -0.000000 -16.937500 12.625000 0 0 0 0 0.000000 0.000000 0.000000 0.000000
-20.726398 -4.114799 -17.068802 -0.000000 1.000000 0.000000 1.000000 0.000000 0.000001 -16.718750 13.250000 0 0 0 0 0.000000 0.000000 0.000000 0.000000
-17.297398 -4.114799 -16.154402 -0.000000 1.000000 0.000000 0.000000 -0.000000 1.000000 -13.906250 12.500000 0 0 0 0 0.000000 0.000000 0.000000 0.000000
-17.297398 -4.114799 -16.306803 -0.000000 1.000000 0.000000 0.000000 -0.000000 1.000000 -13.906250 12.625000 0 0 0 0 0.000000 0.000000 0.000000 0.000000
-17.297398 -4.114799 -17.068802 -0.000000 1.000000 0.000000 0.000000 -0.000000 1.000000 -13.906250 13.250000 0 0 0 0 0.000000 0.000000 0.000000 0.000000
-14.935199 -4.114799 -17.068802 -0.000000 1.000000 0.000000 1.000000 0.000000 -0.000000 -11.968750 13.250000 0 0 0 0 0.000000 0.000000 0.000000 0.000000
-14.935199 -4.114799 -16.306803 -0.000000 1.000000 0.000000 1.000000 0.000000 -0.000001 -11.968750 12.625000 0 0 0 0 0.000000 0.000000 0.000000 0.000000
-14.935199 -4.114799 -16.154402 -0.000000 1.000000 0.000000 1.000000 0.000000 0.000000 -11.968750 12.500000 0 0 0 0 0.000000 0.000000 0.000000 0.000000
-16.459198 -4.114799 -16.154402 -0.000000 1.000000 0.000000 1.000000 0.000000 0.000000 -13.218750 12.500000 0 0 0 0 0.000000 0.000000 0.000000 0.000000
-17.887949 -4.114799 -16.154402 -0.000000 1.000000 0.000000 1.000000 0.000000 -0.000000 -14.390625 12.500000 0 0 0 0 0.000000 0.000000 0.000000 0.000000
-18.364199 -4.114799 -16.154402 -0.000000 1.000000 0.000000 1.000000 0.000000 0.000000 -14.781250 12.500000 0 0 0 0 0.000000 0.000000 0.000000 0.000000
-18.364199 -4.114799 -17.068802 -0.000000 1.000000 0.000000 1.000000 0.000000 0.000000 -14.781250 13.250000 0 0 0 0 0.000000 0.000000 0.000000 0.000000
-17.983198 -4.114799 -17.068802 -0.000000 1.000000 0.000000 1.000000 0.000000 0.000000 -14.468750 13.250000 0 0 0 0 0.000000 0.000000 0.000000 0.000000
-17.887949 -4.114799 -17.068802 -0.000000 1.000000 0.000000 1.000000 0.000000 0.000000 -14.390625 13.250000 0 0 0 0 0.000000 0.000000 0.000000 0.000000
-17.887949 -4.114799 -16.306803 -0.000000 1.000000 0.000000 0.000000 0.000000 -1.000000 -14.390625 12.625000 0 0 0 0 0.000000 0.000000 0.000000 0.000000
-17.297398 -4.114799 -16.306803 -0.000000 1.000000 0.000000 1.000000 0.000000 0.000000 -13.906250 12.625000 0 0 0 0 0.000000 0.000000 0.000000 0.000000
-17.297398 -4.114799 -16.154402 -0.000000 1.000000 0.000000 1.000000 0.000000 -0.000000 -13.906250 12.500000 0 0 0 0 0.000000 0.000000 0.000000 0.000000
-17.887949 -4.114799 -16.306803 -0.000000 1.000000 0.000000 1.000000 0.000000 0.000000 -14.390625 12.625000 0 0 0 0 0.000000 0.000000 0.000000 0.000000
-18.516598 -4.114799 -16.154402 -0.000000 1.000000 0.000000 1.000000 0.000000 0.000000 -14.906250 12.500000 0 0 0 0 0.000000 0.000000 0.000000 0.000000
-18.516598 -4.114799 -17.068802 -0.000000 1.000000 0.000000 1.000000 0.000000 -0.000000 -14.906250 13.250000 0 0 0 0 0.000000 0.000000 0.000000 0.000000
-16.459198 -4.114799 -16.154402 -0.000000 1.000000 0.000000 1.000000 0.000000 0.000000 -13.218750 12.500000 0 0 0 0 0.000000 0.000000 0.000000 0.000000
-14.935199 -4.114799 -16.002003 -0.000000 1.000000 0.000000 1.000000 0.000000 -0.000010 -11.968750 12.375000 0 0 0 0 0.000000 0.000000 0.000000 0.000000
-14.935199 -4.114799 -14.782803 -0.000000 1.000000 0.000000 1.000000 0.000000 0.000000 -11.968750 11.375000 0 0 0 0 0.000000 0.000000 0.000000 0.000000
-14.935199 -4.114799 -14.478003 -0.000000 1.000000 0.000000 1.000000 0.000000 0.000000 -11.968750 11.125000 0 0 0 0 0.000000 0.000000 0.000000 0.000000
IndexCount: 474
3 1 0
0 8 7
0 7 6
0 6 5
0 5 4
4 3 0
0 1 10
0 10 9
8 0 9
3 2 1
9 12 11
9 11 8
15 11 14
15 14 13
17 18 15
17 15 13
17 13 41
18 17 16
28 42 17
17 41 40
17 40 28
16 19 18
16 20 19
16 21 20
16 22 21
35 22 16
35 16 23
35 32 22
35 33 32
30 36 35
35 34 33
35 23 24
35 24 30
24 31 30
26 25 24
26 24 23
24 25 31
23 27 26
23 28 27
37 27 28
23 29 28
28 40 39
28 39 38
28 38 37
48 44 43
48 47 46
48 46 45
48 45 44
45 55 44
45 56 55
57 56 65
57 65 64
57 64 63
57 63 62
57 62 61
59 58 57
61 59 57
61 60 59
49 54 53
49 53 52
49 52 51
51 50 49
51 67 66
51 66 50
68 67 76
68 76 75
68 75 74
68 74 73
68 73 72
69 68 72
72 71 69
71 70 69
77 81 80
77 80 79
79 78 77
81 77 82
77 78 91
77 91 90
90 89 77
77 89 96
77 96 95
77 95 94
77 94 93
77 93 92
92 82 77
90 126 125
125 89 90
125 96 89
82 88 87
82 87 86
82 86 85
82 85 84
82 84 83
82 83 81
108 102 82
108 82 110
112 82 92
108 111 102
110 109 108
103 102 101
103 101 100
112 92 114
114 113 112
104 107 86
104 86 106
106 105 104
97 93 94
94 98 97
94 99 98
129 98 128
129 128 127
131 137 129
133 130 127
133 127 135
133 136 132
133 132 130
135 134 133
132 131 130
146 143 91
146 91 142
142 91 78
146 144 143
146 145 144
139 144 147
140 139 138
146 148 138
146 141 148
165 166 148
165 148 141
146 142 141
141 142 165
78 157 165
78 165 142
158 157 156
78 156 157
156 159 158
156 161 160
156 160 159
164 156 163
78 163 156
164 163 162
78 167 163
154 167 78
149 155 154
149 154 153
78 168 154
149 153 152
149 152 151
151 150 149
78 169 168
78 79 170
78 170 169
118 116 115
118 117 116
117 124 123
117 123 122
122 121 120
122 120 119
