VertexCount: 23
-2.743200 -2.133600 0.609599 -0.000000 -0.000000 1.000000 -1.000000 -0.000000 -0.000000 3.000000 2.964744 0 0 0 0 0.000000 0.000000 0.000000 0.000000
-2.743200 -2.743200 0.609599 -0.000000 -0.000000 1.000000 -1.000000 -0.000000 -0.000000 3.000000 3.990385 0 0 0 0 0.000000 0.000000 0.000000 0.000000
-3.657599 -2.743200 0.609599 -0.000000 -0.000000 1.000000 -1.000000 0.000000 -0.000000 4.000000 3.990385 0 0 0 0 0.000000 0.000000 0.000000 0.000000
-3.657599 -2.133600 0.609599 -0.000000 -0.000000 1.000000 -1.000000 -0.000000 -0.000000 4.000000 2.964744 0 0 0 0 0.000000 0.000000 0.000000 0.000000
-2.743200 -3.352800 0.609599 -0.000000 -0.000000 1.000000 -1.000000 0.000000 -0.000000 3.000000 5.016026 0 0 0 0 0.000000 0.000000 0.000000 0.000000
-2.743200 -3.962400 0.609599 -0.000000 -0.000000 1.000000 -1.000000 0.000000 -0.000000 3.000000 6.041667 0 0 0 0 0.000000 0.000000 0.000000 0.000000
-3.657599 -3.962400 0.609599 -0.000000 -0.000000 1.000000 -1.000000 0.000000 -0.000000 4.000000 6.041667 0 0 0 0 0.000000 0.000000 0.000000 0.000000
-3.657599 -3.352800 0.609599 -0.000000 -0.000000 1.000000 -1.000000 0.000000 -0.000000 4.000000 5.016026 0 0 0 0 0.000000 0.000000 0.000000 0.000000
-1.828800 -2.743200 0.609599 -0.000000 -0.000000 1.000000 -1.000000 0.000000 -0.000000 2.000000 3.990385 0 0 0 0 0.000000 0.000000 0.000000 0.000000
-1.828800 -3.352800 0.609599 -0.000000 -0.000000 1.000000 -1.000000 0.000000 -0.000000 2.000000 5.016026 0 0 0 0 0.000000 0.000000 0.000000 0.000000
-0.914400 -2.743200 0.609599 -0.000000 -0.000000 1.000000 -1.000000 -0.000000 -0.000000 1.000000 3.990385 0 0 0 0 0.000000 0.000000 0.000000 0.000000
0.000000 -2.743200 0.609600 -0.000000 -0.000000 1.000000 -1.000000 -0.000000 -0.000000 0.000000 3.990385 0 0 0 0 0.000000 0.000000 0.000000 0.000000
0.000000 -3.352800 0.609599 -0.000000 -0.000000 1.000000 -1.000000 -0.000000 -0.000000 0.000000 5.016026 0 0 0 0 0.000000 0.000000 0.000000 0.000000
0.000000 -3.962400 0.609599 -0.000000 -0.000000 1.000000 -1.000000 -0.000000 -0.000000 0.000000 6.041667 0 0 0 0 0.000000 0.000000 0.000000 0.000000
-0.914400 -3.962400 0.609599 -0.000000 -0.000000 1.000000 -1.000000 -0.000000 -0.000000 1.000000 6.041667 0 0 0 0 0.000000 0.000000 0.000000 0.000000
1.828800 -2.133600 0.609600 -0.000000 -0.000000 1.000000 -1.000000 0.000000 -0.000000 -2.000000 2.964744 0 0 0 0 0.000000 0.000000 0.000000 0.000000
1.828800 -2.743200 0.609600 -0.000000 -0.000000 1.000000 -1.000000 0.000000 -0.000000 -2.000000 3.990385 0 0 0 0 0.000000 0.000000 0.000000 0.000000
0.914400 -2.743200 0.609600 -0.000000 -0.000000 1.000000 -1.000000 0.000000 -0.000000 -1.000000 3.990385 0 0 0 0 0.000000 0.000000 0.000000 0.000000
0.914400 -2.133600 0.609600 -0.000000 -0.000000 1.000000 -1.000000 0.000000 -0.000000 -1.000000 2.964744 0 0 0 0 0.000000 0.000000 0.000000 0.000000
-1.238250 -3.524251 6.991349 0.000000 0.000000 -1.000000 1.000000 -0.000000 0.000000 -2.931548 11.074405 0 0 0 0 0.000000 0.000000 0.000000 0.000000
-1.238250 -3.790951 6.991349 0.000000 0.000000 -1.000000 1.000000 -0.000000 0.000000 -2.931548 11.907739 0 0 0 0 0.000000 0.000000 0.000000 0.000000
-0.971550 -3.790951 6.991349 0.000000 0.000000 -1.000000 1.000000 -0.000000 0.000000 -2.098214 11.907739 0 0 0 0 0.000000 0.000000 0.000000 0.000000
-0.971550 -3.524251 6.991349 0.000000 0.000000 -1.000000 1.000000 -0.000000 0.000000 -2.098214 11.074405 0 0 0 0 0.000000 0.000000 0.000000 0.000000
IndexCount: 39
3 1 0
3 2 1
1 4 9
1 9 8
7 5 4
7 6 5
10 14 13
10 13 12
12 11 10
18 16 15
18 17 16
22 20 19
22 21 20
