VertexCount: 52
-0.723900 -3.848101 6.115049 1.000000 0.000000 -0.000000 -0.000000 1.000000 -0.000000 -6.062500 19.437500 0 0 0 0 0.000000 0.000000 0.000000 0.000000
-0.723900 -3.886201 6.115049 1.000000 0.000000 -0.000000 -0.000000 1.000000 -0.000000 -6.125000 19.437500 0 0 0 0 0.000000 0.000000 0.000000 0.000000
-0.723900 -3.886201 6.229349 1.000000 0.000000 -0.000000 -0.000000 1.000000 0.000000 -6.125000 19.812500 0 0 0 0 0.000000 0.000000 0.000000 0.000000
-0.723900 -3.867151 6.229349 1.000000 0.000000 -0.000000 -0.000000 1.000000 0.000000 -6.093750 19.812500 0 0 0 0 0.000000 0.000000 0.000000 0.000000
-0.723900 -3.867151 6.000750 1.000000 0.000000 0.000001 -0.000000 1.000000 -0.000000 -6.093750 19.312500 0 0 0 0 0.000000 0.000000 0.000000 0.000000
-0.723900 -3.886201 6.000750 1.000000 0.000000 0.000001 -0.000000 1.000000 -0.000000 -6.125000 19.312500 0 0 0 0 0.000000 0.000000 0.000000 0.000000
-0.723900 -3.886201 6.115049 1.000000 0.000000 0.000001 -0.000000 1.000000 -0.000000 -6.125000 19.687500 0 0 0 0 0.000000 0.000000 0.000000 0.000000
-0.723900 -3.848101 6.115049 1.000000 0.000000 0.000001 -0.000000 1.000000 -0.000000 -6.062500 19.687500 0 0 0 0 0.000000 0.000000 0.000000 0.000000
-0.914400 -3.886201 6.000750 -1.000000 -0.000000 0.000001 -0.000000 1.000000 0.000000 -6.093750 19.875000 0 0 0 0 0.000000 0.000000 0.000000 0.000000
-0.914400 -3.867151 6.000750 -1.000000 -0.000000 0.000001 -0.000000 1.000000 0.000000 -6.062500 19.875000 0 0 0 0 0.000000 0.000000 0.000000 0.000000
-0.914400 -3.848101 6.115049 -1.000000 -0.000000 0.000001 -0.000000 1.000000 0.000000 -6.031250 20.250000 0 0 0 0 0.000000 0.000000 0.000000 0.000000
-0.914400 -3.886201 6.115049 -1.000000 -0.000000 0.000001 -0.000000 1.000000 0.000000 -6.093750 20.250000 0 0 0 0 0.000000 0.000000 0.000000 0.000000
-0.914400 -3.848101 6.115049 -1.000000 -0.000000 -0.000001 -0.000000 1.000000 0.000000 -6.031250 20.000000 0 0 0 0 0.000000 0.000000 0.000000 0.000000
-0.914400 -3.867151 6.229349 -1.000000 -0.000000 -0.000001 -0.000000 1.000000 -0.000000 -6.062500 20.375000 0 0 0 0 0.000000 0.000000 0.000000 0.000000
-0.914400 -3.886201 6.229349 -1.000000 -0.000000 -0.000001 -0.000000 1.000000 -0.000000 -6.093750 20.375000 0 0 0 0 0.000000 0.000000 0.000000 0.000000
-0.914400 -3.886201 6.115049 -1.000000 -0.000000 -0.000001 -0.000000 1.000000 0.000000 -6.093750 20.000000 0 0 0 0 0.000000 0.000000 0.000000 0.000000
-6.400799 -3.371849 -7.581901 0.857494 0.000000 -0.514494 -0.000000 1.000000 0.000000 -4.656250 -24.062500 0 0 0 0 0.000000 0.000000 0.000000 0.000000
-6.515100 -3.371849 -7.772401 0.857494 0.000000 -0.514494 -0.000000 1.000000 0.000000 -4.656250 -24.687500 0 0 0 0 0.000000 0.000000 0.000000 0.000000
-6.515100 -3.409949 -7.772401 0.857494 0.000000 -0.514494 -0.000000 1.000000 0.000000 -4.718750 -24.687500 0 0 0 0 0.000000 0.000000 0.000000 0.000000
-6.400799 -3.409949 -7.581901 0.857494 0.000000 -0.514494 -0.000000 1.000000 0.000000 -4.718750 -24.062500 0 0 0 0 0.000000 0.000000 0.000000 0.000000
-20.612099 -3.409950 -8.953502 1.000000 0.000000 0.000000 -0.000000 1.000000 -0.000000 -5.093750 -29.062500 0 0 0 0 0.000000 0.000000 0.000000 0.000000
-20.612099 -3.429000 -8.953502 1.000000 0.000000 0.000000 -0.000000 1.000000 -0.000000 -5.125000 -29.062500 0 0 0 0 0.000000 0.000000 0.000000 0.000000
-20.612099 -3.429000 -8.724903 1.000000 0.000000 0.000000 -0.000000 1.000000 -0.000000 -5.125000 -28.312500 0 0 0 0 0.000000 0.000000 0.000000 0.000000
-20.612099 -3.390901 -8.724903 1.000000 0.000000 0.000000 -0.000000 1.000000 -0.000000 -5.062500 -28.312500 0 0 0 0 0.000000 0.000000 0.000000 0.000000
-20.612099 -3.390901 -8.724903 1.000000 0.000000 0.000000 -0.000000 1.000000 -0.000000 -5.062500 -28.562500 0 0 0 0 0.000000 0.000000 0.000000 0.000000
-20.612099 -3.429000 -8.724903 1.000000 0.000000 0.000000 -0.000000 1.000000 -0.000000 -5.125000 -28.562500 0 0 0 0 0.000000 0.000000 0.000000 0.000000
-20.612099 -3.429000 -8.496303 1.000000 0.000000 0.000000 -0.000000 1.000000 -0.000000 -5.125000 -27.812500 0 0 0 0 0.000000 0.000000 0.000000 0.000000
-20.612099 -3.409950 -8.496303 1.000000 0.000000 0.000000 -0.000000 1.000000 -0.000000 -5.093750 -27.812500 0 0 0 0 0.000000 0.000000 0.000000 0.000000
-20.993099 -3.429000 -8.953502 -1.000000 -0.000000 -0.000000 -0.000000 1.000000 -0.000000 -5.093750 -28.500000 0 0 0 0 0.000000 0.000000 0.000000 0.000000
-20.993099 -3.409950 -8.953502 -1.000000 -0.000000 -0.000000 -0.000000 1.000000 -0.000000 -5.062500 -28.500000 0 0 0 0 0.000000 0.000000 0.000000 0.000000
-20.993099 -3.390901 -8.724903 -1.000000 -0.000000 -0.000000 -0.000000 1.000000 -0.000000 -5.031250 -27.750000 0 0 0 0 0.000000 0.000000 0.000000 0.000000
-20.993099 -3.429000 -8.724903 -1.000000 -0.000000 -0.000000 -0.000000 1.000000 -0.000000 -5.093750 -27.750000 0 0 0 0 0.000000 0.000000 0.000000 0.000000
-20.993099 -3.390901 -8.724903 -1.000000 -0.000000 -0.000000 -0.000000 1.000000 -0.000000 -5.031250 -28.000000 0 0 0 0 0.000000 0.000000 0.000000 0.000000
-20.993099 -3.409950 -8.496303 -1.000000 -0.000000 -0.000000 -0.000000 1.000000 -0.000000 -5.062500 -27.250000 0 0 0 0 0.000000 0.000000 0.000000 0.000000
-20.993099 -3.429000 -8.496303 -1.000000 -0.000000 -0.000000 -0.000000 1.000000 -0.000000 -5.093750 -27.250000 0 0 0 0 0.000000 0.000000 0.000000 0.000000
-20.993099 -3.429000 -8.724903 -1.000000 -0.000000 -0.000000 -0.000000 1.000000 -0.000000 -5.093750 -28.000000 0 0 0 0 0.000000 0.000000 0.000000 0.000000
-19.507198 -3.390899 -16.154400 -0.000000 -0.000000 1.000000 -0.000000 1.000000 0.000000 -5.062500 -63.187500 0 0 0 0 0.000000 0.000000 0.000000 0.000000
-19.507198 -3.428999 -16.154400 -0.000000 -0.000000 1.000000 -0.000000 1.000000 0.000000 -5.125000 -63.187500 0 0 0 0 0.000000 0.000000 0.000000 0.000000
-19.735798 -3.428999 -16.154400 -0.000000 -0.000000 1.000000 -0.000000 1.000000 0.000000 -5.125000 -63.937500 0 0 0 0 0.000000 0.000000 0.000000 0.000000
-19.735798 -3.409949 -16.154400 -0.000000 -0.000000 1.000000 -0.000000 1.000000 0.000000 -5.093750 -63.937500 0 0 0 0 0.000000 0.000000 0.000000 0.000000
-19.278599 -3.409949 -16.154400 -0.000000 -0.000000 1.000000 -0.000000 1.000000 0.000000 -5.093750 -63.187500 0 0 0 0 0.000000 0.000000 0.000000 0.000000
-19.278599 -3.428999 -16.154400 -0.000000 -0.000000 1.000000 -0.000000 1.000000 0.000000 -5.125000 -63.187500 0 0 0 0 0.000000 0.000000 0.000000 0.000000
-19.507198 -3.428999 -16.154400 -0.000000 -0.000000 1.000000 -0.000000 1.000000 0.000000 -5.125000 -63.937500 0 0 0 0 0.000000 0.000000 0.000000 0.000000
-19.507198 -3.390899 -16.154400 -0.000000 -0.000000 1.000000 -0.000000 1.000000 0.000000 -5.062500 -63.937500 0 0 0 0 0.000000 0.000000 0.000000 0.000000
-19.507198 -3.390899 -16.535400 0.000000 0.000000 -1.000000 -0.000000 1.000000 0.000000 -5.031250 -63.625000 0 0 0 0 0.000000 0.000000 0.000000 0.000000
-19.735798 -3.409949 -16.535400 0.000000 0.000000 -1.000000 -0.000000 1.000000 0.000000 -5.062500 -64.375000 0 0 0 0 0.000000 0.000000 0.000000 0.000000
-19.735798 -3.428999 -16.535400 0.000000 0.000000 -1.000000 -0.000000 1.000000 0.000000 -5.093750 -64.375000 0 0 0 0 0.000000 0.000000 0.000000 0.000000
-19.507198 -3.428999 -16.535400 0.000000 0.000000 -1.000000 -0.000000 1.000000 0.000000 -5.093750 -63.625000 0 0 0 0 0.000000 0.000000 0.000000 0.000000
-19.278599 -3.428999 -16.535400 0.000000 0.000000 -1.000000 -0.000000 1.000000 0.000000 -5.093750 -62.625000 0 0 0 0 0.000000 0.000000 0.000000 0.000000
-19.278599 -3.409949 -16.535400 0.000000 0.000000 -1.000000 -0.000000 1.000000 0.000000 -5.062500 -62.625000 0 0 0 0 0.000000 0.000000 0.000000 0.000000
-19.507198 -3.390899 -16.535400 0.000000 0.000000 -1.000000 -0.000000 1.000000 0.000000 -5.031250 -63.375000 0 0 0 0 0.000000 0.000000 0.000000 0.000000
-19.507198 -3.428999 -16.535400 0.000000 0.000000 -1.000000 -0.000000 1.000000 0.000000 -5.093750 -63.375000 0 0 0 0 0.000000 0.000000 0.000000 0.000000
IndexCount: 78
3 1 0
3 2 1
7 5 4
7 6 5
11 9 8
11 10 9
15 13 12
15 14 13
19 17 16
19 18 17
23 21 20
23 22 21
27 25 24
27 26 25
31 29 28
31 30 29
35 33 32
35 34 33
39 37 36
39 38 37
43 41 40
43 42 41
47 45 44
47 46 45
51 49 48
51 50 49
