VertexCount: 116
-11.696700 -1.143001 5.391150 1.000000 0.000000 0.000000 0.000000 -0.000000 1.000000 4.296875 0.375000 0 0 0 0 0.000000 0.000000 0.000000 0.000000
-11.696700 -1.295401 5.391150 1.000000 0.000000 0.000000 0.000000 -0.000000 1.000000 4.296875 0.500000 0 0 0 0 0.000000 0.000000 0.000000 0.000000
-11.696700 -1.295401 6.000750 1.000000 0.000000 0.000000 0.000000 0.000000 1.000000 4.796875 0.500000 0 0 0 0 0.000000 0.000000 0.000000 0.000000
-11.696700 -1.143001 6.000750 1.000000 0.000000 0.000000 0.000000 -0.000000 1.000000 4.796875 0.375000 0 0 0 0 0.000000 0.000000 0.000000 0.000000
-12.306300 -1.143001 5.391150 0.000000 0.000000 -1.000000 1.000000 0.000000 0.000000 -9.453125 0.375000 0 0 0 0 0.000000 0.000000 0.000000 0.000000
-12.306300 -1.295401 5.391150 0.000000 0.000000 -1.000000 1.000000 0.000000 0.000000 -9.453125 0.500000 0 0 0 0 0.000000 0.000000 0.000000 0.000000
-11.696700 -1.295401 5.391150 0.000000 0.000000 -1.000000 1.000000 0.000000 0.000000 -8.953125 0.500000 0 0 0 0 0.000000 0.000000 0.000000 0.000000
-11.696700 -1.143001 5.391150 0.000000 0.000000 -1.000000 1.000000 0.000000 0.000000 -8.953125 0.375000 0 0 0 0 0.000000 0.000000 0.000000 0.000000
-11.696700 -1.143001 6.000750 0.000000 -0.000000 1.000000 1.000000 0.000000 0.000000 -8.875000 0.500000 0 0 0 0 0.000000 0.000000 0.000000 0.000000
-11.696700 -1.295401 6.000750 0.000000 -0.000000 1.000000 1.000000 0.000000 0.000000 -8.875000 0.625000 0 0 0 0 0.000000 0.000000 0.000000 0.000000
-12.306300 -1.295401 6.000750 0.000000 -0.000000 1.000000 1.000000 0.000000 0.000000 -9.375000 0.625000 0 0 0 0 0.000000 0.000000 0.000000 0.000000
-12.306300 -1.143001 6.000750 0.000000 -0.000000 1.000000 1.000000 0.000000 0.000000 -9.375000 0.500000 0 0 0 0 0.000000 0.000000 0.000000 0.000000
-12.306300 -1.143001 6.000750 -1.000000 0.000000 0.000000 0.000000 -0.000000 1.000000 4.796875 0.375000 0 0 0 0 0.000000 0.000000 0.000000 0.000000
-12.306300 -1.295401 6.000750 -1.000000 0.000000 0.000000 0.000000 -0.000000 1.000000 4.796875 0.500000 0 0 0 0 0.000000 0.000000 0.000000 0.000000
-12.306300 -1.295401 5.391150 -1.000000 0.000000 0.000000 0.000000 0.000000 1.000000 4.296875 0.500000 0 0 0 0 0.000000 0.000000 0.000000 0.000000
-12.306300 -1.143001 5.391150 -1.000000 0.000000 0.000000 0.000000 -0.000000 1.000000 4.296875 0.375000 0 0 0 0 0.000000 0.000000 0.000000 0.000000
-11.696700 -1.143001 5.391150 0.000000 1.000000 0.000000 1.000000 0.000000 0.000000 -8.968750 -3.718750 0 0 0 0 0.000000 0.000000 0.000000 0.000000
-11.696700 -1.143001 6.000750 0.000000 1.000000 0.000000 1.000000 0.000000 0.000000 -8.968750 -4.218750 0 0 0 0 0.000000 0.000000 0.000000 0.000000
-12.306300 -1.143001 6.000750 0.000000 1.000000 0.000000 1.000000 0.000000 0.000000 -9.468750 -4.218750 0 0 0 0 0.000000 0.000000 0.000000 0.000000
-12.306300 -1.143001 5.391150 0.000000 1.000000 0.000000 1.000000 0.000000 0.000000 -9.468750 -3.718750 0 0 0 0 0.000000 0.000000 0.000000 0.000000
-17.811750 -0.761998 -9.601200 0.000000 -0.000000 1.000000 0.000000 1.000000 0.000000 0.015625 -15.187500 0 0 0 0 0.000000 0.000000 0.000000 0.000000
-16.516350 -0.761998 -9.601200 0.000000 -0.000000 1.000000 0.000000 1.000000 0.000000 0.015625 -14.125000 0 0 0 0 0.000000 0.000000 0.000000 0.000000
-16.516350 -0.781048 -9.601200 0.000000 -0.000000 1.000000 0.000000 1.000000 0.000000 0.000000 -14.125000 0 0 0 0 0.000000 0.000000 0.000000 0.000000
-17.811750 -0.781048 -9.601200 0.000000 -0.000000 1.000000 0.000000 1.000000 0.000000 0.000000 -15.187500 0 0 0 0 0.000000 0.000000 0.000000 0.000000
-16.516350 -0.761998 -9.601200 1.000000 0.000000 0.000000 0.000000 1.000000 0.000000 0.015625 -8.562500 0 0 0 0 0.000000 0.000000 0.000000 0.000000
-16.516350 -0.761998 -11.201400 1.000000 0.000000 0.000000 0.000000 1.000000 0.000000 0.015625 -9.875000 0 0 0 0 0.000000 0.000000 0.000000 0.000000
-16.516350 -0.781048 -11.201400 1.000000 0.000000 0.000000 0.000000 1.000000 0.000000 0.000000 -9.875000 0 0 0 0 0.000000 0.000000 0.000000 0.000000
-16.516350 -0.781048 -9.601200 1.000000 0.000000 0.000000 0.000000 1.000000 0.000000 0.000000 -8.562500 0 0 0 0 0.000000 0.000000 0.000000 0.000000
-16.516350 -0.761998 -11.201400 0.000000 0.000000 -1.000000 0.000000 1.000000 0.000000 0.015625 -14.125000 0 0 0 0 0.000000 0.000000 0.000000 0.000000
-17.811750 -0.761998 -11.201400 0.000000 0.000000 -1.000000 0.000000 1.000000 0.000000 0.015625 -15.187500 0 0 0 0 0.000000 0.000000 0.000000 0.000000
-17.811750 -0.781048 -11.201400 0.000000 0.000000 -1.000000 0.000000 1.000000 0.000000 0.000000 -15.187500 0 0 0 0 0.000000 0.000000 0.000000 0.000000
-16.516350 -0.781048 -11.201400 0.000000 0.000000 -1.000000 0.000000 1.000000 0.000000 0.000000 -14.125000 0 0 0 0 0.000000 0.000000 0.000000 0.000000
-17.811750 -0.761998 -11.201400 -1.000000 0.000000 0.000000 0.000000 1.000000 0.000000 0.015625 -9.875000 0 0 0 0 0.000000 0.000000 0.000000 0.000000
-17.811750 -0.761998 -9.601200 -1.000000 0.000000 0.000000 0.000000 1.000000 0.000000 0.015625 -8.562500 0 0 0 0 0.000000 0.000000 0.000000 0.000000
-17.811750 -0.781048 -9.601200 -1.000000 0.000000 0.000000 0.000000 1.000000 0.000000 0.000000 -8.562500 0 0 0 0 0.000000 0.000000 0.000000 0.000000
-17.811750 -0.781048 -11.201400 -1.000000 0.000000 0.000000 0.000000 1.000000 0.000000 0.000000 -9.875000 0 0 0 0 0.000000 0.000000 0.000000 0.000000
-16.516350 -0.761998 -11.201400 0.000000 1.000000 0.000000 1.000000 0.000000 0.000000 -13.546875 9.187500 0 0 0 0 0.000000 0.000000 0.000000 0.000000
-16.516350 -0.761998 -9.601200 0.000000 1.000000 0.000000 1.000000 0.000000 0.000000 -13.546875 7.875000 0 0 0 0 0.000000 0.000000 0.000000 0.000000
-17.811750 -0.761998 -9.601200 0.000000 1.000000 0.000000 1.000000 0.000000 0.000000 -14.609375 7.875000 0 0 0 0 0.000000 0.000000 0.000000 0.000000
-17.811750 -0.761998 -11.201400 0.000000 1.000000 0.000000 1.000000 0.000000 0.000000 -14.609375 9.187500 0 0 0 0 0.000000 0.000000 0.000000 0.000000
-20.821650 -0.761998 -13.411200 0.000000 -0.000000 1.000000 0.000000 1.000000 0.000000 0.015625 -16.937500 0 0 0 0 0.000000 0.000000 0.000000 0.000000
-19.526251 -0.761998 -13.411200 0.000000 -0.000000 1.000000 0.000000 1.000000 0.000000 0.015625 -15.875000 0 0 0 0 0.000000 0.000000 0.000000 0.000000
-19.526251 -0.781048 -13.411200 0.000000 -0.000000 1.000000 0.000000 1.000000 0.000000 0.000000 -15.875000 0 0 0 0 0.000000 0.000000 0.000000 0.000000
-20.821650 -0.781048 -13.411200 0.000000 -0.000000 1.000000 0.000000 1.000000 0.000000 0.000000 -16.937500 0 0 0 0 0.000000 0.000000 0.000000 0.000000
-20.821650 -0.761998 -15.011400 -1.000000 0.000000 0.000000 0.000000 1.000000 0.000000 0.015625 -11.875000 0 0 0 0 0.000000 0.000000 0.000000 0.000000
-20.821650 -0.761998 -13.411200 -1.000000 0.000000 0.000000 0.000000 1.000000 0.000000 0.015625 -10.562500 0 0 0 0 0.000000 0.000000 0.000000 0.000000
-20.821650 -0.781048 -13.411200 -1.000000 0.000000 0.000000 0.000000 1.000000 0.000000 0.000000 -10.562500 0 0 0 0 0.000000 0.000000 0.000000 0.000000
-20.821650 -0.781048 -15.011400 -1.000000 0.000000 0.000000 0.000000 1.000000 0.000000 0.000000 -11.875000 0 0 0 0 0.000000 0.000000 0.000000 0.000000
-19.526251 -0.761998 -15.011400 0.000000 0.000000 -1.000000 0.000000 1.000000 0.000000 0.015625 -15.875000 0 0 0 0 0.000000 0.000000 0.000000 0.000000
-20.821650 -0.761998 -15.011400 0.000000 0.000000 -1.000000 0.000000 1.000000 0.000000 0.015625 -16.937500 0 0 0 0 0.000000 0.000000 0.000000 0.000000
-20.821650 -0.781048 -15.011400 0.000000 0.000000 -1.000000 0.000000 1.000000 0.000000 0.000000 -16.937500 0 0 0 0 0.000000 0.000000 0.000000 0.000000
-19.526251 -0.781048 -15.011400 0.000000 0.000000 -1.000000 0.000000 1.000000 0.000000 0.000000 -15.875000 0 0 0 0 0.000000 0.000000 0.000000 0.000000
-19.526251 -0.761998 -13.411200 1.000000 0.000000 0.000000 0.000000 1.000000 0.000000 0.015625 -10.562500 0 0 0 0 0.000000 0.000000 0.000000 0.000000
-19.526251 -0.761998 -15.011400 1.000000 0.000000 0.000000 0.000000 1.000000 0.000000 0.015625 -11.875000 0 0 0 0 0.000000 0.000000 0.000000 0.000000
-19.526251 -0.781048 -15.011400 1.000000 0.000000 0.000000 0.000000 1.000000 0.000000 0.000000 -11.875000 0 0 0 0 0.000000 0.000000 0.000000 0.000000
-19.526251 -0.781048 -13.411200 1.000000 0.000000 0.000000 0.000000 1.000000 0.000000 0.000000 -10.562500 0 0 0 0 0.000000 0.000000 0.000000 0.000000
-19.526251 -0.761998 -15.011400 0.000000 1.000000 0.000000 1.000000 0.000000 0.000000 -16.015625 12.312500 0 0 0 0 0.000000 0.000000 0.000000 0.000000
-19.526251 -0.761998 -13.411200 0.000000 1.000000 0.000000 1.000000 0.000000 0.000000 -16.015625 11.000000 0 0 0 0 0.000000 0.000000 0.000000 0.000000
-20.821650 -0.761998 -13.411200 0.000000 1.000000 0.000000 1.000000 0.000000 0.000000 -17.078125 11.000000 0 0 0 0 0.000000 0.000000 0.000000 0.000000
-20.821650 -0.761998 -15.011400 0.000000 1.000000 0.000000 1.000000 0.000000 0.000000 -17.078125 12.312500 0 0 0 0 0.000000 0.000000 0.000000 0.000000
-17.811750 -0.761998 -13.411200 0.000000 -0.000000 1.000000 0.000000 1.000000 0.000000 0.015625 -13.687500 0 0 0 0 0.000000 0.000000 0.000000 0.000000
-16.516350 -0.761998 -13.411200 0.000000 -0.000000 1.000000 0.000000 1.000000 0.000000 0.015625 -12.625000 0 0 0 0 0.000000 0.000000 0.000000 0.000000
-16.516350 -0.781048 -13.411200 0.000000 -0.000000 1.000000 0.000000 1.000000 0.000000 0.000000 -12.625000 0 0 0 0 0.000000 0.000000 0.000000 0.000000
-17.811750 -0.781048 -13.411200 0.000000 -0.000000 1.000000 0.000000 1.000000 0.000000 0.000000 -13.687500 0 0 0 0 0.000000 0.000000 0.000000 0.000000
-16.516350 -0.761998 -13.411200 1.000000 0.000000 0.000000 0.000000 1.000000 0.000000 0.015625 -11.312500 0 0 0 0 0.000000 0.000000 0.000000 0.000000
-16.516350 -0.761998 -15.011400 1.000000 0.000000 0.000000 0.000000 1.000000 0.000000 0.015625 -12.625000 0 0 0 0 0.000000 0.000000 0.000000 0.000000
-16.516350 -0.781048 -15.011400 1.000000 0.000000 0.000000 0.000000 1.000000 0.000000 0.000000 -12.625000 0 0 0 0 0.000000 0.000000 0.000000 0.000000
-16.516350 -0.781048 -13.411200 1.000000 0.000000 0.000000 0.000000 1.000000 0.000000 0.000000 -11.312500 0 0 0 0 0.000000 0.000000 0.000000 0.000000
-16.516350 -0.761998 -15.011400 0.000000 0.000000 -1.000000 0.000000 1.000000 0.000000 0.015625 -12.625000 0 0 0 0 0.000000 0.000000 0.000000 0.000000
-17.811750 -0.761998 -15.011400 0.000000 0.000000 -1.000000 0.000000 1.000000 0.000000 0.015625 -13.687500 0 0 0 0 0.000000 0.000000 0.000000 0.000000
-17.811750 -0.781048 -15.011400 0.000000 0.000000 -1.000000 0.000000 1.000000 0.000000 0.000000 -13.687500 0 0 0 0 0.000000 0.000000 0.000000 0.000000
-16.516350 -0.781048 -15.011400 0.000000 0.000000 -1.000000 0.000000 1.000000 0.000000 0.000000 -12.625000 0 0 0 0 0.000000 0.000000 0.000000 0.000000
-17.811750 -0.761998 -15.011400 -1.000000 0.000000 0.000000 0.000000 1.000000 0.000000 0.015625 -12.625000 0 0 0 0 0.000000 0.000000 0.000000 0.000000
-17.811750 -0.761998 -13.411200 -1.000000 0.000000 0.000000 0.000000 1.000000 0.000000 0.015625 -11.312500 0 0 0 0 0.000000 0.000000 0.000000 0.000000
-17.811750 -0.781048 -13.411200 -1.000000 0.000000 0.000000 0.000000 1.000000 0.000000 0.000000 -11.312500 0 0 0 0 0.000000 0.000000 0.000000 0.000000
-17.811750 -0.781048 -15.011400 -1.000000 0.000000 0.000000 0.000000 1.000000 0.000000 0.000000 -12.625000 0 0 0 0 0.000000 0.000000 0.000000 0.000000
-16.516350 -0.761998 -15.011400 0.000000 1.000000 0.000000 1.000000 0.000000 0.000000 -13.546875 12.312500 0 0 0 0 0.000000 0.000000 0.000000 0.000000
-16.516350 -0.761998 -13.411200 0.000000 1.000000 0.000000 1.000000 0.000000 0.000000 -13.546875 11.000000 0 0 0 0 0.000000 0.000000 0.000000 0.000000
-17.811750 -0.761998 -13.411200 0.000000 1.000000 0.000000 1.000000 0.000000 0.000000 -14.609375 11.000000 0 0 0 0 0.000000 0.000000 0.000000 0.000000
-17.811750 -0.761998 -15.011400 0.000000 1.000000 0.000000 1.000000 0.000000 0.000000 -14.609375 12.312500 0 0 0 0 0.000000 0.000000 0.000000 0.000000
-20.821650 -0.761998 -9.601200 0.000000 -0.000000 1.000000 0.000000 1.000000 0.000000 0.015625 -17.437500 0 0 0 0 0.000000 0.000000 0.000000 0.000000
-19.526251 -0.761998 -9.601200 0.000000 -0.000000 1.000000 0.000000 1.000000 0.000000 0.015625 -16.375000 0 0 0 0 0.000000 0.000000 0.000000 0.000000
-19.526251 -0.781048 -9.601200 0.000000 -0.000000 1.000000 0.000000 1.000000 0.000000 0.000000 -16.375000 0 0 0 0 0.000000 0.000000 0.000000 0.000000
-20.821650 -0.781048 -9.601200 0.000000 -0.000000 1.000000 0.000000 1.000000 0.000000 0.000000 -17.437500 0 0 0 0 0.000000 0.000000 0.000000 0.000000
-20.821650 -0.761998 -11.201400 -1.000000 0.000000 0.000000 0.000000 1.000000 0.000000 0.015625 -9.125000 0 0 0 0 0.000000 0.000000 0.000000 0.000000
-20.821650 -0.761998 -9.601200 -1.000000 0.000000 0.000000 0.000000 1.000000 0.000000 0.015625 -7.812500 0 0 0 0 0.000000 0.000000 0.000000 0.000000
-20.821650 -0.781048 -9.601200 -1.000000 0.000000 0.000000 0.000000 1.000000 0.000000 0.000000 -7.812500 0 0 0 0 0.000000 0.000000 0.000000 0.000000
-20.821650 -0.781048 -11.201400 -1.000000 0.000000 0.000000 0.000000 1.000000 0.000000 0.000000 -9.125000 0 0 0 0 0.000000 0.000000 0.000000 0.000000
-19.526251 -0.761998 -11.201400 0.000000 0.000000 -1.000000 0.000000 1.000000 0.000000 0.015625 -16.375000 0 0 0 0 0.000000 0.000000 0.000000 0.000000
-20.821650 -0.761998 -11.201400 0.000000 0.000000 -1.000000 0.000000 1.000000 0.000000 0.015625 -17.437500 0 0 0 0 0.000000 0.000000 0.000000 0.000000
-20.821650 -0.781048 -11.201400 0.000000 0.000000 -1.000000 0.000000 1.000000 0.000000 0.000000 -17.437500 0 0 0 0 0.000000 0.000000 0.000000 0.000000
-19.526251 -0.781048 -11.201400 0.000000 0.000000 -1.000000 0.000000 1.000000 0.000000 0.000000 -16.375000 0 0 0 0 0.000000 0.000000 0.000000 0.000000
-19.526251 -0.761998 -9.601200 1.000000 0.000000 0.000000 0.000000 1.000000 0.000000 0.015625 -7.812500 0 0 0 0 0.000000 0.000000 0.000000 0.000000
-19.526251 -0.761998 -11.201400 1.000000 0.000000 0.000000 0.000000 1.000000 0.000000 0.015625 -9.125000 0 0 0 0 0.000000 0.000000 0.000000 0.000000
-19.526251 -0.781048 -11.201400 1.000000 0.000000 0.000000 0.000000 1.000000 0.000000 0.000000 -9.125000 0 0 0 0 0.000000 0.000000 0.000000 0.000000
-19.526251 -0.781048 -9.601200 1.000000 0.000000 0.000000 0.000000 1.000000 0.000000 0.000000 -7.812500 0 0 0 0 0.000000 0.000000 0.000000 0.000000
-19.526251 -0.761998 -11.201400 0.000000 1.000000 0.000000 1.000000 0.000000 0.000000 -16.015625 9.187500 0 0 0 0 0.000000 0.000000 0.000000 0.000000
-19.526251 -0.761998 -9.601200 0.000000 1.000000 0.000000 1.000000 0.000000 0.000000 -16.015625 7.875000 0 0 0 0 0.000000 0.000000 0.000000 0.000000
-20.821650 -0.761998 -9.601200 0.000000 1.000000 0.000000 1.000000 0.000000 0.000000 -17.078125 7.875000 0 0 0 0 0.000000 0.000000 0.000000 0.000000
-20.821650 -0.761998 -11.201400 0.000000 1.000000 0.000000 1.000000 0.000000 0.000000 -17.078125 9.187500 0 0 0 0 0.000000 0.000000 0.000000 0.000000
-16.002001 -1.600200 -1.219200 1.000000 0.000000 0.000000 0.000000 0.000000 1.000000 -0.890625 1.500000 0 0 0 0 0.000000 0.000000 0.000000 0.000000
-16.002001 -2.514600 -1.219200 1.000000 0.000000 0.000000 0.000000 0.000000 1.000000 -0.890625 2.250000 0 0 0 0 0.000000 0.000000 0.000000 0.000000
-16.002001 -2.514600 -1.143000 1.000000 0.000000 0.000000 0.000000 0.000000 1.000000 -0.828125 2.250000 0 0 0 0 0.000000 0.000000 0.000000 0.000000
-16.002001 -1.600200 -1.143000 1.000000 0.000000 0.000000 0.000000 0.000000 1.000000 -0.828125 1.500000 0 0 0 0 0.000000 0.000000 0.000000 0.000000
-16.002001 -2.514600 -1.143000 0.000000 -1.000000 -0.000000 1.000000 0.000000 0.000000 -13.015625 1.125000 0 0 0 0 0.000000 0.000000 0.000000 0.000000
-16.002001 -2.514600 -1.219200 0.000000 -1.000000 -0.000000 1.000000 0.000000 0.000000 -13.015625 1.187500 0 0 0 0 0.000000 0.000000 0.000000 0.000000
-17.221201 -2.514600 -1.219200 0.000000 -1.000000 -0.000000 1.000000 0.000000 0.000000 -14.015625 1.187500 0 0 0 0 0.000000 0.000000 0.000000 0.000000
-17.221201 -2.514600 -1.143000 0.000000 -1.000000 -0.000000 1.000000 0.000000 0.000000 -14.015625 1.125000 0 0 0 0 0.000000 0.000000 0.000000 0.000000
-17.221201 -1.600200 -1.143000 -1.000000 0.000000 0.000000 0.000000 0.000000 1.000000 -0.828125 1.500000 0 0 0 0 0.000000 0.000000 0.000000 0.000000
-17.221201 -2.514600 -1.143000 -1.000000 0.000000 0.000000 0.000000 0.000000 1.000000 -0.828125 2.250000 0 0 0 0 0.000000 0.000000 0.000000 0.000000
-17.221201 -2.514600 -1.219200 -1.000000 0.000000 0.000000 0.000000 0.000000 1.000000 -0.890625 2.250000 0 0 0 0 0.000000 0.000000 0.000000 0.000000
-17.221201 -1.600200 -1.219200 -1.000000 0.000000 0.000000 0.000000 0.000000 1.000000 -0.890625 1.500000 0 0 0 0 0.000000 0.000000 0.000000 0.000000
-16.002001 -1.600200 -1.219200 0.000000 1.000000 0.000000 1.000000 0.000000 0.000000 -13.015625 1.187500 0 0 0 0 0.000000 0.000000 0.000000 0.000000
-16.002001 -1.600200 -1.143000 0.000000 1.000000 0.000000 1.000000 0.000000 0.000000 -13.015625 1.125000 0 0 0 0 0.000000 0.000000 0.000000 0.000000
-17.221201 -1.600200 -1.143000 0.000000 1.000000 0.000000 1.000000 0.000000 0.000000 -14.015625 1.125000 0 0 0 0 0.000000 0.000000 0.000000 0.000000
-17.221201 -1.600200 -1.219200 0.000000 1.000000 0.000000 1.000000 0.000000 0.000000 -14.015625 1.187500 0 0 0 0 0.000000 0.000000 0.000000 0.000000
IndexCount: 174
3 1 0
3 2 1
7 5 4
7 6 5
11 9 8
11 10 9
15 13 12
15 14 13
19 17 16
19 18 17
23 21 20
23 22 21
27 25 24
27 26 25
31 29 28
31 30 29
35 33 32
35 34 33
39 37 36
39 38 37
43 41 40
43 42 41
47 45 44
47 46 45
51 49 48
51 50 49
55 53 52
55 54 53
59 57 56
59 58 57
63 61 60
63 62 61
67 65 64
67 66 65
71 69 68
71 70 69
75 73 72
75 74 73
79 77 76
79 78 77
83 81 80
83 82 81
87 85 84
87 86 85
91 89 88
91 90 89
95 93 92
95 94 93
99 97 96
99 98 97
103 101 100
103 102 101
107 105 104
107 106 105
111 109 108
111 110 109
115 113 112
115 114 113