VertexCount: 72
-10.020300 -2.133602 7.619998 0.000000 -1.000000 -0.000000 1.000000 0.000000 0.000001 -13.023835 -25.000000 0 0 0 0 0.000000 0.000000 0.000000 0.000000
-10.629901 -2.133602 7.619998 0.000000 -1.000000 -0.000000 1.000000 0.000000 0.000001 -13.871293 -25.000000 0 0 0 0 0.000000 0.000000 0.000000 0.000000
-10.629901 -2.133602 7.696198 0.000000 -1.000000 -0.000000 1.000000 0.000000 0.000001 -13.871293 -25.250000 0 0 0 0 0.000000 0.000000 0.000000 0.000000
-10.020300 -2.133602 7.696198 0.000000 -1.000000 -0.000000 1.000000 0.000000 0.000001 -13.023835 -25.250000 0 0 0 0 0.000000 0.000000 0.000000 0.000000
-10.629901 -2.133602 7.010398 0.000000 -1.000000 -0.000000 1.000000 0.000000 0.000001 -13.871293 -23.000000 0 0 0 0 0.000000 0.000000 0.000000 0.000000
-10.020300 -2.133602 7.010399 0.000000 -1.000000 -0.000000 1.000000 0.000000 0.000001 -13.023835 -23.000000 0 0 0 0 0.000000 0.000000 0.000000 0.000000
-10.020300 -2.133602 6.934199 0.000000 -1.000000 -0.000000 1.000000 0.000000 0.000001 -13.023835 -22.750000 0 0 0 0 0.000000 0.000000 0.000000 0.000000
-10.629900 -2.133602 6.934198 0.000000 -1.000000 -0.000000 1.000000 0.000000 0.000001 -13.871293 -22.750000 0 0 0 0 0.000000 0.000000 0.000000 0.000000
-10.629900 -2.133601 3.657598 0.000000 -1.000000 -0.000000 1.000000 0.000000 0.000000 -13.871293 -12.000000 0 0 0 0 0.000000 0.000000 0.000000 0.000000
-10.020300 -2.133601 3.657598 0.000000 -1.000000 -0.000000 1.000000 0.000000 0.000000 -13.023835 -12.000000 0 0 0 0 0.000000 0.000000 0.000000 0.000000
-10.020300 -2.133601 3.581399 0.000000 -1.000000 -0.000000 1.000000 0.000000 0.000000 -13.023835 -11.750000 0 0 0 0 0.000000 0.000000 0.000000 0.000000
-10.629900 -2.133601 3.581399 0.000000 -1.000000 -0.000000 1.000000 0.000000 0.000000 -13.871293 -11.750000 0 0 0 0 0.000000 0.000000 0.000000 0.000000
-10.020300 -2.133601 4.267199 0.000000 -1.000000 -0.000000 1.000000 0.000000 -0.000000 -13.023835 -14.000000 0 0 0 0 0.000000 0.000000 0.000000 0.000000
-10.629900 -2.133602 4.267199 0.000000 -1.000000 -0.000000 1.000000 0.000000 -0.000000 -13.871293 -14.000000 0 0 0 0 0.000000 0.000000 0.000000 0.000000
-10.629900 -2.133602 4.343399 0.000000 -1.000000 -0.000000 1.000000 0.000000 -0.000000 -13.871293 -14.250000 0 0 0 0 0.000000 0.000000 0.000000 0.000000
-10.020300 -2.133601 4.343399 0.000000 -1.000000 -0.000000 1.000000 0.000000 -0.000000 -13.023835 -14.250000 0 0 0 0 0.000000 0.000000 0.000000 0.000000
-7.848600 -2.743201 0.380999 0.000000 -1.000000 -0.000000 1.000000 0.000000 0.000000 -10.041666 -1.437500 0 0 0 0 0.000000 0.000000 0.000000 0.000000
-8.496300 -2.743201 0.380999 0.000000 -1.000000 -0.000000 1.000000 0.000000 0.000000 -10.927083 -1.437500 0 0 0 0 0.000000 0.000000 0.000000 0.000000
-8.534400 -2.743201 0.380999 0.000000 -1.000000 -0.000000 1.000000 0.000000 0.000000 -10.979166 -1.437500 0 0 0 0 0.000000 0.000000 0.000000 0.000000
-8.534400 -2.743201 0.533399 0.000000 -1.000000 -0.000000 1.000000 0.000000 0.000000 -10.979166 -2.062500 0 0 0 0 0.000000 0.000000 0.000000 0.000000
-8.496300 -2.743201 0.533399 0.000000 -1.000000 -0.000000 1.000000 0.000000 0.000001 -10.927083 -2.062500 0 0 0 0 0.000000 0.000000 0.000000 0.000000
-7.848600 -2.743201 0.533399 0.000000 -1.000000 -0.000000 1.000000 0.000000 0.000000 -10.041666 -2.062500 0 0 0 0 0.000000 0.000000 0.000000 0.000000
-10.058400 -2.743201 0.380999 0.000000 -1.000000 -0.000000 1.000000 0.000000 0.000000 -13.046875 -1.437500 0 0 0 0 0.000000 0.000000 0.000000 0.000000
-10.629900 -2.743201 0.380999 0.000000 -1.000000 -0.000000 1.000000 0.000000 0.000000 -13.828125 -1.437500 0 0 0 0 0.000000 0.000000 0.000000 0.000000
-10.629900 -2.743201 0.533399 0.000000 -1.000000 -0.000000 1.000000 0.000000 0.000000 -13.828125 -2.062500 0 0 0 0 0.000000 0.000000 0.000000 0.000000
-10.058400 -2.743201 0.533399 0.000000 -1.000000 -0.000000 1.000000 0.000000 0.000000 -13.046875 -2.062500 0 0 0 0 0.000000 0.000000 0.000000 0.000000
-10.706102 -2.133602 7.619998 0.000000 -1.000000 -0.000000 1.000000 0.000000 0.000000 -13.977225 -25.000000 0 0 0 0 0.000000 0.000000 0.000000 0.000000
-10.706102 -2.133602 7.696198 0.000000 -1.000000 -0.000000 1.000000 0.000000 0.000000 -13.977225 -25.250000 0 0 0 0 0.000000 0.000000 0.000000 0.000000
-13.982701 -2.133602 7.619998 0.000000 -1.000000 -0.000000 1.000000 0.000000 -0.000000 -19.016685 -25.000000 0 0 0 0 0.000000 0.000000 0.000000 0.000000
-14.668501 -2.133603 7.619998 0.000000 -1.000000 -0.000000 1.000000 0.000000 -0.000000 -19.970074 -25.000000 0 0 0 0 0.000000 0.000000 0.000000 0.000000
-14.668501 -2.133603 7.696198 0.000000 -1.000000 -0.000000 1.000000 0.000000 -0.000000 -19.970074 -25.250000 0 0 0 0 0.000000 0.000000 0.000000 0.000000
-13.982701 -2.133602 7.696198 0.000000 -1.000000 -0.000000 1.000000 0.000000 -0.000000 -19.016685 -25.250000 0 0 0 0 0.000000 0.000000 0.000000 0.000000
-10.706100 -2.133602 6.934198 0.000000 -1.000000 -0.000000 1.000000 0.000000 -0.000000 -13.977225 -22.750000 0 0 0 0 0.000000 0.000000 0.000000 0.000000
-10.706102 -2.133602 7.010398 0.000000 -1.000000 -0.000000 1.000000 0.000000 0.000000 -13.977225 -23.000000 0 0 0 0 0.000000 0.000000 0.000000 0.000000
-13.982701 -2.133602 7.010398 0.000000 -1.000000 -0.000000 1.000000 0.000000 -0.000000 -19.016685 -23.000000 0 0 0 0 0.000000 0.000000 0.000000 0.000000
-13.982700 -2.133602 6.934198 0.000000 -1.000000 -0.000000 1.000000 0.000000 -0.000000 -19.016685 -22.750000 0 0 0 0 0.000000 0.000000 0.000000 0.000000
-14.668499 -2.133602 6.934198 0.000000 -1.000000 -0.000000 1.000000 0.000000 -0.000000 -19.970074 -22.750000 0 0 0 0 0.000000 0.000000 0.000000 0.000000
-14.668501 -2.133602 7.010398 0.000000 -1.000000 -0.000000 1.000000 0.000000 -0.000000 -19.970074 -23.000000 0 0 0 0 0.000000 0.000000 0.000000 0.000000
-10.706100 -2.133601 3.581399 0.000000 -1.000000 -0.000000 1.000000 0.000000 0.000000 -13.977225 -11.750000 0 0 0 0 0.000000 0.000000 0.000000 0.000000
-10.706100 -2.133601 3.657598 0.000000 -1.000000 -0.000000 1.000000 0.000000 0.000000 -13.977225 -12.000000 0 0 0 0 0.000000 0.000000 0.000000 0.000000
-10.706100 -2.133602 4.267199 0.000000 -1.000000 -0.000000 1.000000 0.000000 0.000000 -13.977225 -14.000000 0 0 0 0 0.000000 0.000000 0.000000 0.000000
-10.706100 -2.133602 4.343399 0.000000 -1.000000 -0.000000 1.000000 0.000000 0.000000 -13.977225 -14.250000 0 0 0 0 0.000000 0.000000 0.000000 0.000000
-12.001500 -2.133602 3.657598 0.000000 -1.000000 -0.000000 1.000000 0.000000 0.000000 -16.028072 -12.000000 0 0 0 0 0.000000 0.000000 0.000000 0.000000
-12.001500 -2.133602 3.581399 0.000000 -1.000000 -0.000000 1.000000 0.000000 0.000000 -16.028072 -11.750000 0 0 0 0 0.000000 0.000000 0.000000 0.000000
-12.687300 -2.133602 3.581398 0.000000 -1.000000 -0.000000 1.000000 0.000000 0.000000 -16.981462 -11.750000 0 0 0 0 0.000000 0.000000 0.000000 0.000000
-12.687300 -2.133602 3.657598 0.000000 -1.000000 -0.000000 1.000000 0.000000 0.000000 -16.981462 -12.000000 0 0 0 0 0.000000 0.000000 0.000000 0.000000
-12.001500 -2.133602 4.267199 0.000000 -1.000000 -0.000000 1.000000 0.000000 0.000000 -16.028072 -14.000000 0 0 0 0 0.000000 0.000000 0.000000 0.000000
-12.687300 -2.133602 4.267199 0.000000 -1.000000 -0.000000 1.000000 0.000000 0.000000 -16.981462 -14.000000 0 0 0 0 0.000000 0.000000 0.000000 0.000000
-12.687300 -2.133602 4.343399 0.000000 -1.000000 -0.000000 1.000000 0.000000 0.000000 -16.981462 -14.250000 0 0 0 0 0.000000 0.000000 0.000000 0.000000
-12.001500 -2.133602 4.343399 0.000000 -1.000000 -0.000000 1.000000 0.000000 0.000000 -16.028072 -14.250000 0 0 0 0 0.000000 0.000000 0.000000 0.000000
-13.982700 -2.133602 3.657598 0.000000 -1.000000 -0.000000 1.000000 0.000000 0.000000 -19.016685 -12.000000 0 0 0 0 0.000000 0.000000 0.000000 0.000000
-13.982700 -2.133602 3.581398 0.000000 -1.000000 -0.000000 1.000000 0.000000 0.000000 -19.016685 -11.750000 0 0 0 0 0.000000 0.000000 0.000000 0.000000
-14.668499 -2.133602 3.581398 0.000000 -1.000000 -0.000000 1.000000 0.000000 0.000000 -19.970074 -11.750000 0 0 0 0 0.000000 0.000000 0.000000 0.000000
-14.668499 -2.133602 3.657598 0.000000 -1.000000 -0.000000 1.000000 0.000000 0.000000 -19.970074 -12.000000 0 0 0 0 0.000000 0.000000 0.000000 0.000000
-13.982700 -2.133602 4.267199 0.000000 -1.000000 -0.000000 1.000000 0.000000 0.000000 -19.016685 -14.000000 0 0 0 0 0.000000 0.000000 0.000000 0.000000
-14.668499 -2.133602 4.267199 0.000000 -1.000000 -0.000000 1.000000 0.000000 0.000000 -19.970074 -14.000000 0 0 0 0 0.000000 0.000000 0.000000 0.000000
-14.668499 -2.133602 4.343399 0.000000 -1.000000 -0.000000 1.000000 0.000000 0.000000 -19.970074 -14.250000 0 0 0 0 0.000000 0.000000 0.000000 0.000000
-13.982700 -2.133602 4.343399 0.000000 -1.000000 -0.000000 1.000000 0.000000 0.000000 -19.016685 -14.250000 0 0 0 0 0.000000 0.000000 0.000000 0.000000
-14.478001 -2.743201 0.380998 0.000000 -1.000000 -0.000000 1.000000 0.000000 0.000000 -19.041666 -1.437500 0 0 0 0 0.000000 0.000000 0.000000 0.000000
-14.782800 -2.743201 0.380998 0.000000 -1.000000 -0.000000 1.000000 0.000000 0.000000 -19.458332 -1.437500 0 0 0 0 0.000000 0.000000 0.000000 0.000000
-15.163799 -2.743201 0.380998 0.000000 -1.000000 -0.000000 1.000000 0.000000 0.000000 -19.979166 -1.437500 0 0 0 0 0.000000 0.000000 0.000000 0.000000
-15.163799 -2.743201 0.533398 0.000000 -1.000000 -0.000000 1.000000 0.000000 0.000000 -19.979166 -2.062500 0 0 0 0 0.000000 0.000000 0.000000 0.000000
-14.782800 -2.743201 0.533398 0.000000 -1.000000 -0.000000 1.000000 0.000000 0.000000 -19.458332 -2.062500 0 0 0 0 0.000000 0.000000 0.000000 0.000000
-14.478001 -2.743201 0.533398 0.000000 -1.000000 -0.000000 1.000000 0.000000 0.000000 -19.041666 -2.062500 0 0 0 0 0.000000 0.000000 0.000000 0.000000
-10.744199 -2.743201 0.380999 0.000000 -1.000000 -0.000000 1.000000 0.000000 0.000000 -13.984375 -1.437500 0 0 0 0 0.000000 0.000000 0.000000 0.000000
-10.744199 -2.743201 0.533399 0.000000 -1.000000 -0.000000 1.000000 0.000000 0.000000 -13.984375 -2.062500 0 0 0 0 0.000000 0.000000 0.000000 0.000000
-12.268199 -2.743201 0.380998 0.000000 -1.000000 -0.000000 1.000000 0.000000 0.000000 -16.052082 -1.437500 0 0 0 0 0.000000 0.000000 0.000000 0.000000
-12.649200 -2.743201 0.380998 0.000000 -1.000000 -0.000000 1.000000 0.000000 0.000000 -16.572916 -1.437500 0 0 0 0 0.000000 0.000000 0.000000 0.000000
-12.954000 -2.743201 0.380998 0.000000 -1.000000 -0.000000 1.000000 0.000000 0.000000 -16.989582 -1.437500 0 0 0 0 0.000000 0.000000 0.000000 0.000000
-12.954000 -2.743201 0.533398 0.000000 -1.000000 -0.000000 1.000000 0.000000 0.000000 -16.989582 -2.062500 0 0 0 0 0.000000 0.000000 0.000000 0.000000
-12.649200 -2.743201 0.533398 0.000000 -1.000000 -0.000000 1.000000 0.000000 0.000000 -16.572916 -2.062500 0 0 0 0 0.000000 0.000000 0.000000 0.000000
-12.268199 -2.743201 0.533398 0.000000 -1.000000 -0.000000 1.000000 0.000000 0.000000 -16.052082 -2.062500 0 0 0 0 0.000000 0.000000 0.000000 0.000000
IndexCount: 132
3 1 0
3 2 1
2 26 1
2 27 26
7 5 4
33 7 4
7 6 5
33 32 7
11 9 8
39 11 8
11 10 9
39 38 11
15 13 12
15 14 13
14 40 13
14 41 40
16 21 20
16 20 19
16 19 18
18 17 16
25 23 22
25 24 23
24 64 23
24 65 64
31 29 28
31 30 29
37 35 34
37 36 35
45 43 42
45 44 43
49 47 46
49 48 47
53 51 50
53 52 51
57 55 54
57 56 55
58 63 62
58 62 61
58 61 60
60 59 58
66 71 70
66 70 69
66 69 68
68 67 66
