VertexCount: 53
3.162302 -1.828796 -22.250401 -0.000000 -0.000000 1.000000 -1.000000 0.000000 -0.000000 -1.052083 1.763221 0 0 0 0 0.000000 0.000000 0.000000 0.000000
3.352802 -1.828796 -22.250401 -0.000000 -0.000000 1.000000 -1.000000 0.000000 -0.000000 -1.052083 1.823317 0 0 0 0 0.000000 0.000000 0.000000 0.000000
3.695702 -1.828796 -22.250401 -0.000000 -0.000000 1.000000 -1.000000 0.000000 -0.000000 -1.052083 1.931490 0 0 0 0 0.000000 0.000000 0.000000 0.000000
4.076702 -1.828796 -22.250401 -0.000000 -0.000000 1.000000 -1.000000 0.000000 -0.000000 -1.052083 2.051683 0 0 0 0 0.000000 0.000000 0.000000 0.000000
4.076702 -4.114796 -22.250401 -0.000000 -0.000000 1.000000 -0.000000 1.000000 0.000000 -2.093750 2.051683 0 0 0 0 0.000000 0.000000 0.000000 0.000000
3.162302 -4.114796 -22.250401 -0.000000 -0.000000 1.000000 -0.000000 1.000000 0.000000 -2.093750 1.763221 0 0 0 0 0.000000 0.000000 0.000000 0.000000
3.162302 -1.943096 -22.250401 -0.000000 -0.000000 1.000000 0.000000 -1.000000 -0.000000 -1.104167 1.763221 0 0 0 0 0.000000 0.000000 0.000000 0.000000
2.819402 -1.943096 -22.250401 -0.000000 -0.000000 1.000000 -1.000000 -0.000000 -0.000000 -1.104167 1.655048 0 0 0 0 0.000000 0.000000 0.000000 0.000000
3.048002 -1.943096 -22.250401 -0.000000 -0.000000 1.000000 -1.000000 -0.000000 -0.000000 -1.104167 1.727164 0 0 0 0 0.000000 0.000000 0.000000 0.000000
3.162302 -1.943096 -22.250401 -0.000000 -0.000000 1.000000 -1.000000 -0.000000 -0.000000 -1.104167 1.763221 0 0 0 0 0.000000 0.000000 0.000000 0.000000
2.819402 -4.114796 -22.250401 -0.000000 -0.000000 1.000000 -0.000000 1.000000 0.000000 -2.093750 1.655048 0 0 0 0 0.000000 0.000000 0.000000 0.000000
2.819402 -1.943096 -19.812000 0.000000 0.000000 -1.000000 -0.000000 1.000000 0.000000 -1.104167 1.655048 0 0 0 0 0.000000 0.000000 0.000000 0.000000
2.819402 -4.114797 -19.812002 0.000000 0.000000 -1.000000 0.000000 1.000000 0.000000 -2.093750 1.655048 0 0 0 0 0.000000 0.000000 0.000000 0.000000
3.162302 -4.114797 -19.812002 0.000000 0.000000 -1.000000 0.000000 1.000000 0.000000 -2.093750 1.763221 0 0 0 0 0.000000 0.000000 0.000000 0.000000
3.162302 -1.943096 -19.812000 0.000000 0.000000 -1.000000 -0.000000 1.000000 0.000000 -1.104167 1.763221 0 0 0 0 0.000000 0.000000 0.000000 0.000000
3.048002 -1.943096 -19.812000 0.000000 0.000000 -1.000000 1.000000 -0.000000 0.000000 -1.104167 1.727164 0 0 0 0 0.000000 0.000000 0.000000 0.000000
4.076702 -1.828796 -19.812000 0.000000 0.000000 -1.000000 1.000000 -0.000000 0.000000 -1.052083 2.051683 0 0 0 0 0.000000 0.000000 0.000000 0.000000
3.695702 -1.828796 -19.812000 0.000000 0.000000 -1.000000 1.000000 -0.000000 0.000000 -1.052083 1.931490 0 0 0 0 0.000000 0.000000 0.000000 0.000000
3.352802 -1.828796 -19.812000 0.000000 0.000000 -1.000000 1.000000 -0.000000 0.000000 -1.052083 1.823317 0 0 0 0 0.000000 0.000000 0.000000 0.000000
3.162302 -1.828796 -19.812000 0.000000 0.000000 -1.000000 1.000000 -0.000000 0.000000 -1.052083 1.763221 0 0 0 0 0.000000 0.000000 0.000000 0.000000
4.076702 -4.114796 -19.812002 0.000000 0.000000 -1.000000 0.000000 1.000000 0.000000 -2.093750 2.051683 0 0 0 0 0.000000 0.000000 0.000000 0.000000
2.286002 -1.943097 -19.812000 0.000000 0.000000 -1.000000 -0.000000 1.000000 0.000000 -1.104167 1.486779 0 0 0 0 0.000000 0.000000 0.000000 0.000000
2.286002 -2.857497 -19.812000 0.000000 0.000000 -1.000000 -0.000000 1.000000 0.000000 -1.520833 1.486779 0 0 0 0 0.000000 0.000000 0.000000 0.000000
2.286002 -3.086097 -19.812000 0.000000 0.000000 -1.000000 0.000000 1.000000 0.000000 -1.625000 1.486779 0 0 0 0 0.000000 0.000000 0.000000 0.000000
2.286002 -4.114797 -19.812002 0.000000 0.000000 -1.000000 0.000000 1.000000 0.000000 -2.093750 1.486779 0 0 0 0 0.000000 0.000000 0.000000 0.000000
2.133602 -1.943097 -19.812000 0.000000 0.000000 -1.000000 -0.000000 1.000000 0.000000 -1.104167 1.438702 0 0 0 0 0.000000 0.000000 0.000000 0.000000
2.133602 -2.857497 -19.812000 0.000000 0.000000 -1.000000 -0.000000 1.000000 0.000000 -1.520833 1.438702 0 0 0 0 0.000000 0.000000 0.000000 0.000000
2.228852 -3.086097 -19.812000 0.000000 0.000000 -1.000000 0.000000 1.000000 0.000000 -1.625000 1.468750 0 0 0 0 0.000000 0.000000 0.000000 0.000000
2.228852 -4.095747 -19.812002 0.000000 0.000000 -1.000000 0.000000 1.000000 0.000000 -2.085069 1.468750 0 0 0 0 0.000000 0.000000 0.000000 0.000000
2.228852 -4.114797 -19.812002 0.000000 0.000000 -1.000000 -0.000000 1.000000 0.000000 -2.093750 1.468750 0 0 0 0 0.000000 0.000000 0.000000 0.000000
2.190752 -3.086097 -19.812000 0.000000 0.000000 -1.000000 0.000000 1.000000 0.000000 -1.625000 1.456731 0 0 0 0 0.000000 0.000000 0.000000 0.000000
2.133602 -3.086097 -19.812000 0.000000 0.000000 -1.000000 0.000000 1.000000 0.000000 -1.625000 1.438702 0 0 0 0 0.000000 0.000000 0.000000 0.000000
2.133602 -4.114797 -19.812002 0.000000 0.000000 -1.000000 0.000000 1.000000 0.000000 -2.093750 1.438702 0 0 0 0 0.000000 0.000000 0.000000 0.000000
2.190752 -4.114797 -19.812002 0.000000 0.000000 -1.000000 0.000000 1.000000 0.000000 -2.093750 1.456731 0 0 0 0 0.000000 0.000000 0.000000 0.000000
2.190752 -4.095747 -19.812002 0.000000 0.000000 -1.000000 -0.000000 -1.000000 -0.000000 -2.085069 1.456731 0 0 0 0 0.000000 0.000000 0.000000 0.000000
2.190752 -4.095747 -19.812002 0.000000 0.000000 -1.000000 -0.000000 1.000000 0.000000 -2.085069 1.456731 0 0 0 0 0.000000 0.000000 0.000000 0.000000
2.133602 -4.114797 -19.812002 0.000000 0.000000 -1.000000 -0.000000 -1.000000 -0.000000 -2.093750 1.438702 0 0 0 0 0.000000 0.000000 0.000000 0.000000
2.133602 -3.086097 -19.812000 0.000000 0.000000 -1.000000 -0.000000 -1.000000 -0.000000 -1.625000 1.438702 0 0 0 0 0.000000 0.000000 0.000000 0.000000
2.133602 -2.857497 -19.812000 0.000000 0.000000 -1.000000 -0.000000 -1.000000 -0.000000 -1.520833 1.438702 0 0 0 0 0.000000 0.000000 0.000000 0.000000
2.133602 -1.943097 -19.812000 0.000000 0.000000 -1.000000 0.000000 1.000000 0.000000 -1.104167 1.438702 0 0 0 0 0.000000 0.000000 0.000000 0.000000
1.409702 -1.943097 -19.812000 0.000000 0.000000 -1.000000 -0.000000 1.000000 0.000000 -1.104167 1.210337 0 0 0 0 0.000000 0.000000 0.000000 0.000000
1.295402 -1.943097 -19.812000 0.000000 0.000000 -1.000000 -0.000000 1.000000 0.000000 -1.104167 1.174279 0 0 0 0 0.000000 0.000000 0.000000 0.000000
1.295402 -4.114797 -19.812002 0.000000 0.000000 -1.000000 -0.000000 1.000000 0.000000 -2.093750 1.174279 0 0 0 0 0.000000 0.000000 0.000000 0.000000
2.819402 -1.943096 -22.250401 -0.000000 -0.000000 1.000000 -0.000000 1.000000 0.000000 -1.104167 1.655048 0 0 0 0 0.000000 0.000000 0.000000 0.000000
1.295402 -4.114796 -22.250401 -0.000000 -0.000000 1.000000 -0.000000 1.000000 0.000000 -2.093750 1.174279 0 0 0 0 0.000000 0.000000 0.000000 0.000000
1.295402 -1.943096 -22.250401 -0.000000 -0.000000 1.000000 -0.000000 1.000000 0.000000 -1.104167 1.174279 0 0 0 0 0.000000 0.000000 0.000000 0.000000
1.409702 -1.943096 -22.250401 -0.000000 -0.000000 1.000000 -1.000000 -0.000000 -0.000000 -1.104167 1.210337 0 0 0 0 0.000000 0.000000 0.000000 0.000000
0.723902 -1.828796 -22.250401 -0.000000 -0.000000 1.000000 -0.000000 1.000000 0.000000 -1.052083 0.993990 0 0 0 0 0.000000 0.000000 0.000000 0.000000
1.295402 -1.828796 -22.250401 -0.000000 -0.000000 1.000000 -0.000000 1.000000 0.000000 -1.052083 1.174279 0 0 0 0 0.000000 0.000000 0.000000 0.000000
0.723902 -4.114796 -22.250401 -0.000000 -0.000000 1.000000 -0.000000 1.000000 0.000000 -2.093750 0.993990 0 0 0 0 0.000000 0.000000 0.000000 0.000000
1.295402 -1.828797 -19.812000 0.000000 0.000000 -1.000000 -0.000000 1.000000 0.000000 -1.052083 1.174279 0 0 0 0 0.000000 0.000000 0.000000 0.000000
0.723902 -1.828797 -19.812000 0.000000 0.000000 -1.000000 -0.000000 1.000000 0.000000 -1.052083 0.993990 0 0 0 0 0.000000 0.000000 0.000000 0.000000
0.723902 -4.114797 -19.812002 0.000000 0.000000 -1.000000 -0.000000 1.000000 0.000000 -2.093750 0.993990 0 0 0 0 0.000000 0.000000 0.000000 0.000000
IndexCount: 132
0 6 5
0 5 4
0 4 3
3 1 0
7 10 5
7 5 9
9 8 7
44 10 43
43 45 44
47 49 44
47 44 45
43 46 45
45 48 47
3 2 1
11 15 14
11 14 13
13 12 11
11 12 24
11 24 23
11 23 22
22 21 11
16 13 14
16 14 19
16 20 13
19 17 16
19 18 17
26 25 21
26 21 22
23 24 29
23 29 28
28 27 23
29 33 35
29 35 28
30 34 33
30 33 32
32 31 30
36 42 41
36 41 40
36 40 39
36 39 38
38 37 36
41 42 52
41 52 51
41 51 50
