VertexCount: 288
4.305300 -2.133597 -20.955000 0.000000 0.000000 -1.000000 1.000000 0.000000 0.000000 1.765625 0.875000 0 0 0 0 0.000000 0.000000 0.000000 0.000000
4.305300 -2.781297 -20.955000 0.000000 0.000000 -1.000000 1.000000 0.000000 0.000000 1.765625 1.140625 0 0 0 0 0.000000 0.000000 0.000000 0.000000
4.419600 -2.781297 -20.955000 0.000000 0.000000 -1.000000 1.000000 0.000000 0.000000 1.812500 1.140625 0 0 0 0 0.000000 0.000000 0.000000 0.000000
4.419600 -2.133597 -20.955000 0.000000 0.000000 -1.000000 1.000000 0.000000 0.000000 1.812500 0.875000 0 0 0 0 0.000000 0.000000 0.000000 0.000000
4.419600 -3.162297 -20.955000 0.000000 0.000000 -1.000000 1.000000 0.000000 0.000000 1.812500 1.296875 0 0 0 0 0.000000 0.000000 0.000000 0.000000
4.305300 -3.162297 -20.955000 0.000000 0.000000 -1.000000 1.000000 0.000000 0.000000 1.765625 1.296875 0 0 0 0 0.000000 0.000000 0.000000 0.000000
4.305300 -3.809997 -20.955000 0.000000 0.000000 -1.000000 1.000000 0.000000 0.000000 1.765625 1.562500 0 0 0 0 0.000000 0.000000 0.000000 0.000000
4.419600 -3.809997 -20.955000 0.000000 0.000000 -1.000000 1.000000 0.000000 0.000000 1.812500 1.562500 0 0 0 0 0.000000 0.000000 0.000000 0.000000
4.419600 -2.133597 -20.078701 0.000000 1.000000 0.000000 1.000000 0.000000 0.000000 1.812500 8.234375 0 0 0 0 0.000000 0.000000 0.000000 0.000000
4.305300 -2.133597 -20.078701 0.000000 1.000000 0.000000 1.000000 0.000000 0.000000 1.765625 8.234375 0 0 0 0 0.000000 0.000000 0.000000 0.000000
4.305300 -2.133597 -20.955000 0.000000 1.000000 0.000000 1.000000 0.000000 0.000000 1.765625 8.593750 0 0 0 0 0.000000 0.000000 0.000000 0.000000
4.419600 -2.133597 -20.955000 0.000000 1.000000 0.000000 1.000000 0.000000 0.000000 1.812500 8.593750 0 0 0 0 0.000000 0.000000 0.000000 0.000000
4.419600 -3.809997 -20.078701 0.000000 -1.000000 -0.000000 1.000000 0.000000 0.000000 1.812500 8.234375 0 0 0 0 0.000000 0.000000 0.000000 0.000000
4.419600 -3.809997 -20.955000 0.000000 -1.000000 -0.000000 1.000000 0.000000 0.000000 1.812500 8.593750 0 0 0 0 0.000000 0.000000 0.000000 0.000000
4.305300 -3.809997 -20.955000 0.000000 -1.000000 -0.000000 1.000000 0.000000 0.000000 1.765625 8.593750 0 0 0 0 0.000000 0.000000 0.000000 0.000000
4.305300 -3.809997 -20.078701 0.000000 -1.000000 -0.000000 1.000000 0.000000 0.000000 1.765625 8.234375 0 0 0 0 0.000000 0.000000 0.000000 0.000000
4.419600 -2.209797 -20.078701 0.000000 -0.000000 1.000000 1.000000 0.000000 0.000000 1.812500 0.906250 0 0 0 0 0.000000 0.000000 0.000000 0.000000
4.419600 -3.733797 -20.078701 0.000000 -0.000000 1.000000 1.000000 0.000000 0.000000 1.812500 1.531250 0 0 0 0 0.000000 0.000000 0.000000 0.000000
4.305300 -3.733797 -20.078701 0.000000 -0.000000 1.000000 1.000000 0.000000 0.000000 1.765625 1.531250 0 0 0 0 0.000000 0.000000 0.000000 0.000000
4.305300 -2.209797 -20.078701 0.000000 -0.000000 1.000000 1.000000 0.000000 0.000000 1.765625 0.906250 0 0 0 0 0.000000 0.000000 0.000000 0.000000
4.305300 -2.133597 -20.078701 -1.000000 0.000000 0.000000 0.000000 -0.000000 1.000000 -8.234375 0.875000 0 0 0 0 0.000000 0.000000 0.000000 0.000000
4.305300 -2.781297 -20.726400 -1.000000 0.000000 0.000000 0.000000 -0.000000 1.000000 -8.500000 1.140625 0 0 0 0 0.000000 0.000000 0.000000 0.000000
4.305300 -2.781297 -20.955000 -1.000000 0.000000 0.000000 0.000000 0.000000 1.000000 -8.593750 1.140625 0 0 0 0 0.000000 0.000000 0.000000 0.000000
4.305300 -2.133597 -20.955000 -1.000000 0.000000 0.000000 0.000000 -0.000000 1.000000 -8.593750 0.875000 0 0 0 0 0.000000 0.000000 0.000000 0.000000
4.305300 -2.209797 -20.078701 -1.000000 -0.000000 0.000000 0.000000 -0.000000 1.000000 -8.234375 0.906250 0 0 0 0 0.000000 0.000000 0.000000 0.000000
4.305300 -3.733797 -20.078701 -1.000000 -0.000000 0.000000 0.000000 -0.000000 1.000000 -8.234375 1.531250 0 0 0 0 0.000000 0.000000 0.000000 0.000000
4.305300 -3.086097 -20.726400 -1.000000 -0.000000 0.000000 0.000000 0.000001 1.000000 -8.500000 1.265625 0 0 0 0 0.000000 0.000000 0.000000 0.000000
4.305300 -2.857497 -20.726400 -1.000000 -0.000000 0.000000 0.000000 -0.000000 1.000000 -8.500000 1.171875 0 0 0 0 0.000000 0.000000 0.000000 0.000000
4.305300 -3.162297 -20.955000 -1.000000 0.000000 0.000000 0.000000 0.000000 1.000000 -8.593750 1.296875 0 0 0 0 0.000000 0.000000 0.000000 0.000000
4.305300 -3.162297 -20.726400 -1.000000 0.000000 0.000000 0.000000 0.000000 1.000000 -8.500000 1.296875 0 0 0 0 0.000000 0.000000 0.000000 0.000000
4.305300 -3.809997 -20.078701 -1.000000 0.000000 0.000000 0.000000 0.000000 1.000000 -8.234375 1.562500 0 0 0 0 0.000000 0.000000 0.000000 0.000000
4.305300 -3.809997 -20.955000 -1.000000 0.000000 0.000000 0.000000 0.000000 1.000000 -8.593750 1.562500 0 0 0 0 0.000000 0.000000 0.000000 0.000000
4.419600 -3.086097 -20.726400 0.000000 -0.707107 -0.707107 1.000000 0.000000 0.000000 1.812500 8.500000 0 0 0 0 0.000000 0.000000 0.000000 0.000000
4.305300 -3.086097 -20.726400 0.000000 -0.707107 -0.707107 1.000000 0.000000 0.000000 1.765625 8.500000 0 0 0 0 0.000000 0.000000 0.000000 0.000000
4.305300 -3.733797 -20.078701 0.000000 -0.707107 -0.707107 1.000000 0.000000 0.000000 1.765625 8.234375 0 0 0 0 0.000000 0.000000 0.000000 0.000000
4.419600 -3.733797 -20.078701 0.000000 -0.707107 -0.707107 1.000000 0.000000 0.000000 1.812500 8.234375 0 0 0 0 0.000000 0.000000 0.000000 0.000000
4.419600 -2.857497 -20.726400 1.000000 0.000000 -0.000001 0.000001 -0.000001 1.000000 -8.500000 1.171875 0 0 0 0 0.000000 0.000000 0.000000 0.000000
4.419600 -3.086097 -20.726400 1.000000 0.000000 -0.000001 0.000001 -0.000001 1.000000 -8.500000 1.265625 0 0 0 0 0.000000 0.000000 0.000000 0.000000
4.419600 -3.733797 -20.078701 1.000000 0.000000 -0.000001 0.000001 0.000000 1.000000 -8.234375 1.531250 0 0 0 0 0.000000 0.000000 0.000000 0.000000
4.419600 -2.209797 -20.078701 1.000000 0.000000 -0.000001 0.000001 -0.000001 1.000000 -8.234375 0.906250 0 0 0 0 0.000000 0.000000 0.000000 0.000000
4.419600 -2.133597 -20.955000 1.000000 0.000000 0.000000 0.000000 -0.000000 1.000000 -8.593750 0.875000 0 0 0 0 0.000000 0.000000 0.000000 0.000000
4.419600 -2.781297 -20.955000 1.000000 0.000000 0.000000 0.000000 -0.000000 1.000000 -8.593750 1.140625 0 0 0 0 0.000000 0.000000 0.000000 0.000000
4.419600 -2.781297 -20.726400 1.000000 0.000000 0.000000 0.000000 0.000000 1.000000 -8.500000 1.140625 0 0 0 0 0.000000 0.000000 0.000000 0.000000
4.419600 -2.133597 -20.078701 1.000000 0.000000 0.000000 0.000000 -0.000000 1.000000 -8.234375 0.875000 0 0 0 0 0.000000 0.000000 0.000000 0.000000
4.305300 -2.857497 -20.726400 0.000000 0.000000 -1.000000 1.000000 0.000000 0.000000 1.765625 1.171875 0 0 0 0 0.000000 0.000000 0.000000 0.000000
4.305300 -3.086097 -20.726400 0.000000 0.000000 -1.000000 1.000000 0.000000 0.000000 1.765625 1.265625 0 0 0 0 0.000000 0.000000 0.000000 0.000000
4.419600 -3.086097 -20.726400 0.000000 0.000000 -1.000000 1.000000 0.000000 0.000000 1.812500 1.265625 0 0 0 0 0.000000 0.000000 0.000000 0.000000
4.419600 -2.857497 -20.726400 0.000000 0.000000 -1.000000 1.000000 0.000000 0.000000 1.812500 1.171875 0 0 0 0 0.000000 0.000000 0.000000 0.000000
4.419600 -2.133597 -20.078701 0.000000 -0.707106 0.707108 1.000000 0.000000 0.000000 1.812500 8.234375 0 0 0 0 0.000000 0.000000 0.000000 0.000000
4.419600 -2.781297 -20.726400 0.000000 -0.707106 0.707108 1.000000 0.000000 0.000000 1.812500 8.500000 0 0 0 0 0.000000 0.000000 0.000000 0.000000
4.305300 -2.781297 -20.726400 0.000000 -0.707106 0.707108 1.000000 0.000000 0.000000 1.765625 8.500000 0 0 0 0 0.000000 0.000000 0.000000 0.000000
4.305300 -2.133597 -20.078701 0.000000 -0.707106 0.707108 1.000000 0.000000 0.000000 1.765625 8.234375 0 0 0 0 0.000000 0.000000 0.000000 0.000000
4.419600 -2.209797 -20.078701 0.000000 0.707106 -0.707108 1.000000 0.000000 0.000000 1.812500 8.234375 0 0 0 0 0.000000 0.000000 0.000000 0.000000
4.305300 -2.209797 -20.078701 0.000000 0.707106 -0.707108 1.000000 0.000000 0.000000 1.765625 8.234375 0 0 0 0 0.000000 0.000000 0.000000 0.000000
4.305300 -2.857497 -20.726400 0.000000 0.707106 -0.707108 1.000000 0.000000 0.000000 1.765625 8.500000 0 0 0 0 0.000000 0.000000 0.000000 0.000000
4.419600 -2.857497 -20.726400 0.000000 0.707106 -0.707108 1.000000 0.000000 0.000000 1.812500 8.500000 0 0 0 0 0.000000 0.000000 0.000000 0.000000
4.419600 -2.781297 -20.955000 0.000000 -1.000000 -0.000000 1.000000 0.000000 0.000000 1.812500 8.593750 0 0 0 0 0.000000 0.000000 0.000000 0.000000
4.305300 -2.781297 -20.955000 0.000000 -1.000000 -0.000000 1.000000 0.000000 0.000000 1.765625 8.593750 0 0 0 0 0.000000 0.000000 0.000000 0.000000
4.305300 -2.781297 -20.726400 0.000000 -1.000000 -0.000000 1.000000 0.000000 0.000000 1.765625 8.500000 0 0 0 0 0.000000 0.000000 0.000000 0.000000
4.419600 -2.781297 -20.726400 0.000000 -1.000000 -0.000000 1.000000 0.000000 0.000000 1.812500 8.500000 0 0 0 0 0.000000 0.000000 0.000000 0.000000
4.419600 -3.162297 -20.955000 0.000000 1.000000 0.000000 1.000000 0.000000 0.000000 1.812500 8.593750 0 0 0 0 0.000000 0.000000 0.000000 0.000000
4.419600 -3.162297 -20.726400 0.000000 1.000000 0.000000 1.000000 0.000000 0.000000 1.812500 8.500000 0 0 0 0 0.000000 0.000000 0.000000 0.000000
4.305300 -3.162297 -20.726400 0.000000 1.000000 0.000000 1.000000 0.000000 0.000000 1.765625 8.500000 0 0 0 0 0.000000 0.000000 0.000000 0.000000
4.305300 -3.162297 -20.955000 0.000000 1.000000 0.000000 1.000000 0.000000 0.000000 1.765625 8.593750 0 0 0 0 0.000000 0.000000 0.000000 0.000000
4.419600 -3.162297 -20.726400 1.000000 0.000000 0.000000 0.000000 0.000000 1.000000 -8.500000 1.296875 0 0 0 0 0.000000 0.000000 0.000000 0.000000
4.419600 -3.162297 -20.955000 1.000000 0.000000 0.000000 0.000000 0.000000 1.000000 -8.593750 1.296875 0 0 0 0 0.000000 0.000000 0.000000 0.000000
4.419600 -3.809997 -20.955000 1.000000 0.000000 0.000000 0.000000 0.000000 1.000000 -8.593750 1.562500 0 0 0 0 0.000000 0.000000 0.000000 0.000000
4.419600 -3.809997 -20.078701 1.000000 0.000000 0.000000 0.000000 0.000000 1.000000 -8.234375 1.562500 0 0 0 0 0.000000 0.000000 0.000000 0.000000
4.305300 -3.162297 -20.726400 0.000000 0.707107 0.707107 1.000000 0.000000 0.000000 1.765625 8.500000 0 0 0 0 0.000000 0.000000 0.000000 0.000000
4.419600 -3.162297 -20.726400 0.000000 0.707107 0.707107 1.000000 0.000000 0.000000 1.812500 8.500000 0 0 0 0 0.000000 0.000000 0.000000 0.000000
4.419600 -3.809997 -20.078701 0.000000 0.707107 0.707107 1.000000 0.000000 0.000000 1.812500 8.234375 0 0 0 0 0.000000 0.000000 0.000000 0.000000
4.305300 -3.809997 -20.078701 0.000000 0.707107 0.707107 1.000000 0.000000 0.000000 1.765625 8.234375 0 0 0 0 0.000000 0.000000 0.000000 0.000000
4.419600 -2.133596 -21.107399 0.000000 1.000000 0.000000 1.000000 0.000000 0.000000 1.812500 8.656250 0 0 0 0 0.000000 0.000000 0.000000 0.000000
4.305300 -2.133596 -21.107399 0.000000 1.000000 0.000000 1.000000 0.000000 0.000000 1.765625 8.656250 0 0 0 0 0.000000 0.000000 0.000000 0.000000
4.305300 -2.133596 -21.983698 0.000000 1.000000 0.000000 1.000000 0.000000 0.000000 1.765625 9.015625 0 0 0 0 0.000000 0.000000 0.000000 0.000000
4.419600 -2.133596 -21.983698 0.000000 1.000000 0.000000 1.000000 0.000000 0.000000 1.812500 9.015625 0 0 0 0 0.000000 0.000000 0.000000 0.000000
4.419600 -3.809997 -21.107399 0.000000 -1.000000 -0.000000 1.000000 0.000000 0.000000 1.812500 8.656250 0 0 0 0 0.000000 0.000000 0.000000 0.000000
4.419600 -3.809996 -21.983698 0.000000 -1.000000 -0.000000 1.000000 0.000000 0.000000 1.812500 9.015625 0 0 0 0 0.000000 0.000000 0.000000 0.000000
4.305300 -3.809996 -21.983698 0.000000 -1.000000 -0.000000 1.000000 0.000000 0.000000 1.765625 9.015625 0 0 0 0 0.000000 0.000000 0.000000 0.000000
4.305300 -3.809997 -21.107399 0.000000 -1.000000 -0.000000 1.000000 0.000000 0.000000 1.765625 8.656250 0 0 0 0 0.000000 0.000000 0.000000 0.000000
4.305300 -2.209796 -21.983698 0.000000 0.000000 -1.000000 1.000000 0.000000 0.000000 1.765625 0.906250 0 0 0 0 0.000000 0.000000 0.000000 0.000000
4.305300 -3.733796 -21.983698 0.000000 0.000000 -1.000000 1.000000 0.000000 0.000000 1.765625 1.531250 0 0 0 0 0.000000 0.000000 0.000000 0.000000
4.419600 -3.733796 -21.983698 0.000000 0.000000 -1.000000 1.000000 0.000000 0.000000 1.812500 1.531250 0 0 0 0 0.000000 0.000000 0.000000 0.000000
4.419600 -2.209796 -21.983698 0.000000 0.000000 -1.000000 1.000000 0.000000 0.000000 1.812500 0.906250 0 0 0 0 0.000000 0.000000 0.000000 0.000000
4.305300 -3.162297 -21.336000 -1.000000 0.000000 0.000000 0.000000 0.000000 1.000000 -8.750000 1.296875 0 0 0 0 0.000000 0.000000 0.000000 0.000000
4.305300 -3.162297 -21.107399 -1.000000 0.000000 0.000000 0.000000 0.000000 1.000000 -8.656250 1.296875 0 0 0 0 0.000000 0.000000 0.000000 0.000000
4.305300 -3.809997 -21.107399 -1.000000 0.000000 0.000000 0.000000 -0.000000 1.000000 -8.656250 1.562500 0 0 0 0 0.000000 0.000000 0.000000 0.000000
4.305300 -3.809996 -21.983698 -1.000000 0.000000 0.000000 0.000000 0.000000 1.000000 -9.015625 1.562500 0 0 0 0 0.000000 0.000000 0.000000 0.000000
4.305300 -2.857497 -21.336000 -1.000000 0.000000 0.000000 0.000000 0.000000 1.000000 -8.750000 1.171875 0 0 0 0 0.000000 0.000000 0.000000 0.000000
4.305300 -3.086097 -21.336000 -1.000000 0.000000 0.000000 0.000000 0.000000 1.000000 -8.750000 1.265625 0 0 0 0 0.000000 0.000000 0.000000 0.000000
4.305300 -3.733796 -21.983698 -1.000000 0.000000 0.000000 0.000000 -0.000001 1.000000 -9.015625 1.531250 0 0 0 0 0.000000 0.000000 0.000000 0.000000
4.305300 -2.209796 -21.983698 -1.000000 0.000000 0.000000 0.000000 0.000000 1.000000 -9.015625 0.906250 0 0 0 0 0.000000 0.000000 0.000000 0.000000
4.305300 -2.133596 -21.107399 -1.000000 0.000000 0.000000 0.000000 0.000000 1.000000 -8.656250 0.875000 0 0 0 0 0.000000 0.000000 0.000000 0.000000
4.305300 -2.781297 -21.107399 -1.000000 0.000000 0.000000 0.000000 0.000000 1.000000 -8.656250 1.140625 0 0 0 0 0.000000 0.000000 0.000000 0.000000
4.305300 -2.781297 -21.336000 -1.000000 0.000000 0.000000 0.000000 0.000000 1.000000 -8.750000 1.140625 0 0 0 0 0.000000 0.000000 0.000000 0.000000
4.305300 -2.133596 -21.983698 -1.000000 0.000000 0.000000 0.000000 0.000000 1.000000 -9.015625 0.875000 0 0 0 0 0.000000 0.000000 0.000000 0.000000
4.305300 -3.086097 -21.336000 0.000000 -0.707108 0.707106 1.000000 0.000000 0.000000 1.765625 8.750000 0 0 0 0 0.000000 0.000000 0.000000 0.000000
4.419600 -3.086097 -21.336000 0.000000 -0.707108 0.707106 1.000000 0.000000 0.000000 1.812500 8.750000 0 0 0 0 0.000000 0.000000 0.000000 0.000000
4.419600 -3.733796 -21.983698 0.000000 -0.707108 0.707106 1.000000 0.000000 0.000000 1.812500 9.015625 0 0 0 0 0.000000 0.000000 0.000000 0.000000
4.305300 -3.733796 -21.983698 0.000000 -0.707108 0.707106 1.000000 0.000000 0.000000 1.765625 9.015625 0 0 0 0 0.000000 0.000000 0.000000 0.000000
4.419600 -2.133596 -21.107399 0.000000 -0.000000 1.000000 1.000000 0.000000 0.000000 1.812500 0.875000 0 0 0 0 0.000000 0.000000 0.000000 0.000000
4.419600 -2.781297 -21.107399 0.000000 -0.000000 1.000000 1.000000 0.000000 0.000000 1.812500 1.140625 0 0 0 0 0.000000 0.000000 0.000000 0.000000
4.305300 -2.781297 -21.107399 0.000000 -0.000000 1.000000 1.000000 0.000000 0.000000 1.765625 1.140625 0 0 0 0 0.000000 0.000000 0.000000 0.000000
4.305300 -2.133596 -21.107399 0.000000 -0.000000 1.000000 1.000000 0.000000 0.000000 1.765625 0.875000 0 0 0 0 0.000000 0.000000 0.000000 0.000000
4.305300 -2.209796 -21.983698 0.000000 0.707107 0.707107 1.000000 0.000000 0.000000 1.765625 9.015625 0 0 0 0 0.000000 0.000000 0.000000 0.000000
4.419600 -2.209796 -21.983698 0.000000 0.707107 0.707107 1.000000 0.000000 0.000000 1.812500 9.015625 0 0 0 0 0.000000 0.000000 0.000000 0.000000
4.419600 -2.857497 -21.336000 0.000000 0.707107 0.707107 1.000000 0.000000 0.000000 1.812500 8.750000 0 0 0 0 0.000000 0.000000 0.000000 0.000000
4.305300 -2.857497 -21.336000 0.000000 0.707107 0.707107 1.000000 0.000000 0.000000 1.765625 8.750000 0 0 0 0 0.000000 0.000000 0.000000 0.000000
4.419600 -2.857497 -21.336000 0.000000 -0.000000 1.000000 1.000000 0.000000 0.000000 1.812500 1.171875 0 0 0 0 0.000000 0.000000 0.000000 0.000000
4.419600 -3.086097 -21.336000 0.000000 -0.000000 1.000000 1.000000 0.000000 0.000000 1.812500 1.265625 0 0 0 0 0.000000 0.000000 0.000000 0.000000
4.305300 -3.086097 -21.336000 0.000000 -0.000000 1.000000 1.000000 0.000000 0.000000 1.765625 1.265625 0 0 0 0 0.000000 0.000000 0.000000 0.000000
4.305300 -2.857497 -21.336000 0.000000 -0.000000 1.000000 1.000000 0.000000 0.000000 1.765625 1.171875 0 0 0 0 0.000000 0.000000 0.000000 0.000000
4.419600 -2.209796 -21.983698 1.000000 -0.000000 0.000000 -0.000000 -0.000000 1.000000 -9.015625 0.906250 0 0 0 0 0.000000 0.000000 0.000000 0.000000
4.419600 -3.733796 -21.983698 1.000000 -0.000000 0.000000 -0.000000 -0.000000 1.000000 -9.015625 1.531250 0 0 0 0 0.000000 0.000000 0.000000 0.000000
4.419600 -3.086097 -21.336000 1.000000 -0.000000 0.000000 -0.000000 -0.000001 1.000000 -8.750000 1.265625 0 0 0 0 0.000000 0.000000 0.000000 0.000000
4.419600 -2.857497 -21.336000 1.000000 -0.000000 0.000000 -0.000000 -0.000000 1.000000 -8.750000 1.171875 0 0 0 0 0.000000 0.000000 0.000000 0.000000
4.419600 -2.781297 -21.336000 0.000000 -1.000000 -0.000000 1.000000 0.000000 0.000000 1.812500 8.750000 0 0 0 0 0.000000 0.000000 0.000000 0.000000
4.305300 -2.781297 -21.336000 0.000000 -1.000000 -0.000000 1.000000 0.000000 0.000000 1.765625 8.750000 0 0 0 0 0.000000 0.000000 0.000000 0.000000
4.305300 -2.781297 -21.107399 0.000000 -1.000000 -0.000000 1.000000 0.000000 0.000000 1.765625 8.656250 0 0 0 0 0.000000 0.000000 0.000000 0.000000
4.419600 -2.781297 -21.107399 0.000000 -1.000000 -0.000000 1.000000 0.000000 0.000000 1.812500 8.656250 0 0 0 0 0.000000 0.000000 0.000000 0.000000
4.419600 -2.133596 -21.983698 1.000000 0.000000 0.000000 0.000000 0.000000 1.000000 -9.015625 0.875000 0 0 0 0 0.000000 0.000000 0.000000 0.000000
4.419600 -2.781297 -21.336000 1.000000 0.000000 0.000000 0.000000 0.000000 1.000000 -8.750000 1.140625 0 0 0 0 0.000000 0.000000 0.000000 0.000000
4.419600 -2.781297 -21.107399 1.000000 0.000000 0.000000 0.000000 0.000000 1.000000 -8.656250 1.140625 0 0 0 0 0.000000 0.000000 0.000000 0.000000
4.419600 -2.133596 -21.107399 1.000000 0.000000 0.000000 0.000000 0.000000 1.000000 -8.656250 0.875000 0 0 0 0 0.000000 0.000000 0.000000 0.000000
4.305300 -2.133596 -21.983698 0.000000 -0.707107 -0.707107 1.000000 0.000000 0.000000 1.765625 9.015625 0 0 0 0 0.000000 0.000000 0.000000 0.000000
4.305300 -2.781297 -21.336000 0.000000 -0.707107 -0.707107 1.000000 0.000000 0.000000 1.765625 8.750000 0 0 0 0 0.000000 0.000000 0.000000 0.000000
4.419600 -2.781297 -21.336000 0.000000 -0.707107 -0.707107 1.000000 0.000000 0.000000 1.812500 8.750000 0 0 0 0 0.000000 0.000000 0.000000 0.000000
4.419600 -2.133596 -21.983698 0.000000 -0.707107 -0.707107 1.000000 0.000000 0.000000 1.812500 9.015625 0 0 0 0 0.000000 0.000000 0.000000 0.000000
4.419600 -3.162297 -21.336000 0.000000 1.000000 0.000000 1.000000 0.000000 0.000000 1.812500 8.750000 0 0 0 0 0.000000 0.000000 0.000000 0.000000
4.419600 -3.162297 -21.107399 0.000000 1.000000 0.000000 1.000000 0.000000 0.000000 1.812500 8.656250 0 0 0 0 0.000000 0.000000 0.000000 0.000000
4.305300 -3.162297 -21.107399 0.000000 1.000000 0.000000 1.000000 0.000000 0.000000 1.765625 8.656250 0 0 0 0 0.000000 0.000000 0.000000 0.000000
4.305300 -3.162297 -21.336000 0.000000 1.000000 0.000000 1.000000 0.000000 0.000000 1.765625 8.750000 0 0 0 0 0.000000 0.000000 0.000000 0.000000
4.305300 -3.162297 -21.107399 0.000000 -0.000000 1.000000 1.000000 0.000000 0.000000 1.765625 1.296875 0 0 0 0 0.000000 0.000000 0.000000 0.000000
4.419600 -3.162297 -21.107399 0.000000 -0.000000 1.000000 1.000000 0.000000 0.000000 1.812500 1.296875 0 0 0 0 0.000000 0.000000 0.000000 0.000000
4.419600 -3.809997 -21.107399 0.000000 -0.000000 1.000000 1.000000 0.000000 0.000000 1.812500 1.562500 0 0 0 0 0.000000 0.000000 0.000000 0.000000
4.305300 -3.809997 -21.107399 0.000000 -0.000000 1.000000 1.000000 0.000000 0.000000 1.765625 1.562500 0 0 0 0 0.000000 0.000000 0.000000 0.000000
4.419600 -3.162297 -21.107399 1.000000 0.000000 0.000000 0.000000 0.000000 1.000000 -8.656250 1.296875 0 0 0 0 0.000000 0.000000 0.000000 0.000000
4.419600 -3.162297 -21.336000 1.000000 0.000000 0.000000 0.000000 0.000000 1.000000 -8.750000 1.296875 0 0 0 0 0.000000 0.000000 0.000000 0.000000
4.419600 -3.809996 -21.983698 1.000000 0.000000 0.000000 0.000000 -0.000000 1.000000 -9.015625 1.562500 0 0 0 0 0.000000 0.000000 0.000000 0.000000
4.419600 -3.809997 -21.107399 1.000000 0.000000 0.000000 0.000000 0.000000 1.000000 -8.656250 1.562500 0 0 0 0 0.000000 0.000000 0.000000 0.000000
4.419600 -3.162297 -21.336000 0.000000 0.707108 -0.707106 1.000000 0.000000 0.000000 1.812500 8.750000 0 0 0 0 0.000000 0.000000 0.000000 0.000000
4.305300 -3.162297 -21.336000 0.000000 0.707108 -0.707106 1.000000 0.000000 0.000000 1.765625 8.750000 0 0 0 0 0.000000 0.000000 0.000000 0.000000
4.305300 -3.809996 -21.983698 0.000000 0.707108 -0.707106 1.000000 0.000000 0.000000 1.765625 9.015625 0 0 0 0 0.000000 0.000000 0.000000 0.000000
4.419600 -3.809996 -21.983698 0.000000 0.707108 -0.707106 1.000000 0.000000 0.000000 1.812500 9.015625 0 0 0 0 0.000000 0.000000 0.000000 0.000000
0.495300 -3.162297 -20.955000 0.000000 0.000000 -1.000000 1.000000 0.000000 0.000000 0.203125 1.296875 0 0 0 0 0.000000 0.000000 0.000000 0.000000
0.381000 -3.162297 -20.955000 0.000000 0.000000 -1.000000 1.000000 0.000000 0.000000 0.156250 1.296875 0 0 0 0 0.000000 0.000000 0.000000 0.000000
0.381000 -3.809997 -20.955000 0.000000 0.000000 -1.000000 1.000000 0.000000 0.000000 0.156250 1.562500 0 0 0 0 0.000000 0.000000 0.000000 0.000000
0.495300 -3.809997 -20.955000 0.000000 0.000000 -1.000000 1.000000 0.000000 0.000000 0.203125 1.562500 0 0 0 0 0.000000 0.000000 0.000000 0.000000
0.381000 -2.133597 -20.955000 0.000000 0.000000 -1.000000 1.000000 0.000000 0.000000 0.156250 0.875000 0 0 0 0 0.000000 0.000000 0.000000 0.000000
0.381000 -2.781297 -20.955000 0.000000 0.000000 -1.000000 1.000000 0.000000 0.000000 0.156250 1.140625 0 0 0 0 0.000000 0.000000 0.000000 0.000000
0.495300 -2.781297 -20.955000 0.000000 0.000000 -1.000000 1.000000 0.000000 0.000000 0.203125 1.140625 0 0 0 0 0.000000 0.000000 0.000000 0.000000
0.495300 -2.133597 -20.955000 0.000000 0.000000 -1.000000 1.000000 0.000000 0.000000 0.203125 0.875000 0 0 0 0 0.000000 0.000000 0.000000 0.000000
0.495300 -2.133597 -20.078701 0.000000 1.000000 0.000000 1.000000 0.000000 0.000000 0.203125 8.234375 0 0 0 0 0.000000 0.000000 0.000000 0.000000
0.381000 -2.133597 -20.078701 0.000000 1.000000 0.000000 1.000000 0.000000 0.000000 0.156250 8.234375 0 0 0 0 0.000000 0.000000 0.000000 0.000000
0.381000 -2.133597 -20.955000 0.000000 1.000000 0.000000 1.000000 0.000000 0.000000 0.156250 8.593750 0 0 0 0 0.000000 0.000000 0.000000 0.000000
0.495300 -2.133597 -20.955000 0.000000 1.000000 0.000000 1.000000 0.000000 0.000000 0.203125 8.593750 0 0 0 0 0.000000 0.000000 0.000000 0.000000
0.495300 -3.809997 -20.078701 0.000000 -1.000000 -0.000000 1.000000 0.000000 0.000000 0.203125 8.234375 0 0 0 0 0.000000 0.000000 0.000000 0.000000
0.495300 -3.809997 -20.955000 0.000000 -1.000000 -0.000000 1.000000 0.000000 0.000000 0.203125 8.593750 0 0 0 0 0.000000 0.000000 0.000000 0.000000
0.381000 -3.809997 -20.955000 0.000000 -1.000000 -0.000000 1.000000 0.000000 0.000000 0.156250 8.593750 0 0 0 0 0.000000 0.000000 0.000000 0.000000
0.381000 -3.809997 -20.078701 0.000000 -1.000000 -0.000000 1.000000 0.000000 0.000000 0.156250 8.234375 0 0 0 0 0.000000 0.000000 0.000000 0.000000
0.495300 -2.209797 -20.078701 0.000000 -0.000000 1.000000 1.000000 0.000000 0.000000 0.203125 0.906250 0 0 0 0 0.000000 0.000000 0.000000 0.000000
0.495300 -3.733797 -20.078701 0.000000 -0.000000 1.000000 1.000000 0.000000 0.000000 0.203125 1.531250 0 0 0 0 0.000000 0.000000 0.000000 0.000000
0.381000 -3.733797 -20.078701 0.000000 -0.000000 1.000000 1.000000 0.000000 0.000000 0.156250 1.531250 0 0 0 0 0.000000 0.000000 0.000000 0.000000
0.381000 -2.209797 -20.078701 0.000000 -0.000000 1.000000 1.000000 0.000000 0.000000 0.156250 0.906250 0 0 0 0 0.000000 0.000000 0.000000 0.000000
0.381000 -3.162297 -20.955000 -1.000000 0.000000 0.000000 0.000000 0.000000 1.000000 -8.593750 1.296875 0 0 0 0 0.000000 0.000000 0.000000 0.000000
0.381000 -3.162297 -20.726400 -1.000000 0.000000 0.000000 0.000000 0.000000 1.000000 -8.500000 1.296875 0 0 0 0 0.000000 0.000000 0.000000 0.000000
0.381000 -3.809997 -20.078701 -1.000000 0.000000 0.000000 0.000000 0.000000 1.000000 -8.234375 1.562500 0 0 0 0 0.000000 0.000000 0.000000 0.000000
0.381000 -3.809997 -20.955000 -1.000000 0.000000 0.000000 0.000000 0.000000 1.000000 -8.593750 1.562500 0 0 0 0 0.000000 0.000000 0.000000 0.000000
0.381000 -2.209797 -20.078701 -1.000000 -0.000000 0.000000 0.000000 -0.000000 1.000000 -8.234375 0.906250 0 0 0 0 0.000000 0.000000 0.000000 0.000000
0.381000 -3.733797 -20.078701 -1.000000 -0.000000 0.000000 0.000000 -0.000000 1.000000 -8.234375 1.531250 0 0 0 0 0.000000 0.000000 0.000000 0.000000
0.381000 -3.086097 -20.726400 -1.000000 -0.000000 0.000000 0.000000 0.000001 1.000000 -8.500000 1.265625 0 0 0 0 0.000000 0.000000 0.000000 0.000000
0.381000 -2.857497 -20.726400 -1.000000 -0.000000 0.000000 0.000000 -0.000000 1.000000 -8.500000 1.171875 0 0 0 0 0.000000 0.000000 0.000000 0.000000
0.381000 -2.133597 -20.078701 -1.000000 0.000000 0.000000 0.000000 -0.000000 1.000000 -8.234375 0.875000 0 0 0 0 0.000000 0.000000 0.000000 0.000000
0.381000 -2.781297 -20.726400 -1.000000 0.000000 0.000000 0.000000 -0.000000 1.000000 -8.500000 1.140625 0 0 0 0 0.000000 0.000000 0.000000 0.000000
0.381000 -2.781297 -20.955000 -1.000000 0.000000 0.000000 0.000000 0.000000 1.000000 -8.593750 1.140625 0 0 0 0 0.000000 0.000000 0.000000 0.000000
0.381000 -2.133597 -20.955000 -1.000000 0.000000 0.000000 0.000000 -0.000000 1.000000 -8.593750 0.875000 0 0 0 0 0.000000 0.000000 0.000000 0.000000
0.495300 -3.086097 -20.726400 0.000000 -0.707107 -0.707107 1.000000 0.000000 0.000000 0.203125 8.500000 0 0 0 0 0.000000 0.000000 0.000000 0.000000
0.381000 -3.086097 -20.726400 0.000000 -0.707107 -0.707107 1.000000 0.000000 0.000000 0.156250 8.500000 0 0 0 0 0.000000 0.000000 0.000000 0.000000
0.381000 -3.733797 -20.078701 0.000000 -0.707107 -0.707107 1.000000 0.000000 0.000000 0.156250 8.234375 0 0 0 0 0.000000 0.000000 0.000000 0.000000
0.495300 -3.733797 -20.078701 0.000000 -0.707107 -0.707107 1.000000 0.000000 0.000000 0.203125 8.234375 0 0 0 0 0.000000 0.000000 0.000000 0.000000
0.495300 -2.133597 -20.955000 1.000000 0.000000 0.000000 0.000000 -0.000000 1.000000 -8.593750 0.875000 0 0 0 0 0.000000 0.000000 0.000000 0.000000
0.495300 -2.781297 -20.955000 1.000000 0.000000 0.000000 0.000000 -0.000000 1.000000 -8.593750 1.140625 0 0 0 0 0.000000 0.000000 0.000000 0.000000
0.495300 -2.781297 -20.726400 1.000000 0.000000 0.000000 0.000000 0.000000 1.000000 -8.500000 1.140625 0 0 0 0 0.000000 0.000000 0.000000 0.000000
0.495300 -2.133597 -20.078701 1.000000 0.000000 0.000000 0.000000 -0.000000 1.000000 -8.234375 0.875000 0 0 0 0 0.000000 0.000000 0.000000 0.000000
0.495300 -2.857497 -20.726400 1.000000 0.000000 0.000000 0.000000 -0.000001 1.000000 -8.500000 1.171875 0 0 0 0 0.000000 0.000000 0.000000 0.000000
0.495300 -3.086097 -20.726400 1.000000 0.000000 0.000000 0.000000 -0.000001 1.000000 -8.500000 1.265625 0 0 0 0 0.000000 0.000000 0.000000 0.000000
0.495300 -3.733797 -20.078701 1.000000 0.000000 0.000000 0.000000 0.000000 1.000000 -8.234375 1.531250 0 0 0 0 0.000000 0.000000 0.000000 0.000000
0.495300 -2.209797 -20.078701 1.000000 0.000000 0.000000 0.000000 -0.000001 1.000000 -8.234375 0.906250 0 0 0 0 0.000000 0.000000 0.000000 0.000000
0.381000 -2.857497 -20.726400 0.000000 0.000000 -1.000000 1.000000 0.000000 0.000000 0.156250 1.171875 0 0 0 0 0.000000 0.000000 0.000000 0.000000
0.381000 -3.086097 -20.726400 0.000000 0.000000 -1.000000 1.000000 0.000000 0.000000 0.156250 1.265625 0 0 0 0 0.000000 0.000000 0.000000 0.000000
0.495300 -3.086097 -20.726400 0.000000 0.000000 -1.000000 1.000000 0.000000 0.000000 0.203125 1.265625 0 0 0 0 0.000000 0.000000 0.000000 0.000000
0.495300 -2.857497 -20.726400 0.000000 0.000000 -1.000000 1.000000 0.000000 0.000000 0.203125 1.171875 0 0 0 0 0.000000 0.000000 0.000000 0.000000
0.495300 -2.133597 -20.078701 0.000000 -0.707107 0.707107 1.000000 0.000000 0.000000 0.203125 8.234375 0 0 0 0 0.000000 0.000000 0.000000 0.000000
0.495300 -2.781297 -20.726400 0.000000 -0.707107 0.707107 1.000000 0.000000 0.000000 0.203125 8.500000 0 0 0 0 0.000000 0.000000 0.000000 0.000000
0.381000 -2.781297 -20.726400 0.000000 -0.707107 0.707107 1.000000 0.000000 0.000000 0.156250 8.500000 0 0 0 0 0.000000 0.000000 0.000000 0.000000
0.381000 -2.133597 -20.078701 0.000000 -0.707107 0.707107 1.000000 0.000000 0.000000 0.156250 8.234375 0 0 0 0 0.000000 0.000000 0.000000 0.000000
0.495300 -2.209797 -20.078701 0.000000 0.707107 -0.707107 1.000000 0.000000 0.000000 0.203125 8.234375 0 0 0 0 0.000000 0.000000 0.000000 0.000000
0.381000 -2.209797 -20.078701 0.000000 0.707107 -0.707107 1.000000 0.000000 0.000000 0.156250 8.234375 0 0 0 0 0.000000 0.000000 0.000000 0.000000
0.381000 -2.857497 -20.726400 0.000000 0.707107 -0.707107 1.000000 0.000000 0.000000 0.156250 8.500000 0 0 0 0 0.000000 0.000000 0.000000 0.000000
0.495300 -2.857497 -20.726400 0.000000 0.707107 -0.707107 1.000000 0.000000 0.000000 0.203125 8.500000 0 0 0 0 0.000000 0.000000 0.000000 0.000000
0.495300 -2.781297 -20.955000 0.000000 -1.000000 -0.000000 1.000000 0.000000 0.000000 0.203125 8.593750 0 0 0 0 0.000000 0.000000 0.000000 0.000000
0.381000 -2.781297 -20.955000 0.000000 -1.000000 -0.000000 1.000000 0.000000 0.000000 0.156250 8.593750 0 0 0 0 0.000000 0.000000 0.000000 0.000000
0.381000 -2.781297 -20.726400 0.000000 -1.000000 -0.000000 1.000000 0.000000 0.000000 0.156250 8.500000 0 0 0 0 0.000000 0.000000 0.000000 0.000000
0.495300 -2.781297 -20.726400 0.000000 -1.000000 -0.000000 1.000000 0.000000 0.000000 0.203125 8.500000 0 0 0 0 0.000000 0.000000 0.000000 0.000000
0.495300 -3.162297 -20.955000 0.000000 1.000000 0.000000 1.000000 0.000000 0.000000 0.203125 8.593750 0 0 0 0 0.000000 0.000000 0.000000 0.000000
0.495300 -3.162297 -20.726400 0.000000 1.000000 0.000000 1.000000 0.000000 0.000000 0.203125 8.500000 0 0 0 0 0.000000 0.000000 0.000000 0.000000
0.381000 -3.162297 -20.726400 0.000000 1.000000 0.000000 1.000000 0.000000 0.000000 0.156250 8.500000 0 0 0 0 0.000000 0.000000 0.000000 0.000000
0.381000 -3.162297 -20.955000 0.000000 1.000000 0.000000 1.000000 0.000000 0.000000 0.156250 8.593750 0 0 0 0 0.000000 0.000000 0.000000 0.000000
0.495300 -3.162297 -20.726400 1.000000 0.000000 0.000000 0.000000 0.000000 1.000000 -8.500000 1.296875 0 0 0 0 0.000000 0.000000 0.000000 0.000000
0.495300 -3.162297 -20.955000 1.000000 0.000000 0.000000 0.000000 0.000000 1.000000 -8.593750 1.296875 0 0 0 0 0.000000 0.000000 0.000000 0.000000
0.495300 -3.809997 -20.955000 1.000000 0.000000 0.000000 0.000000 0.000000 1.000000 -8.593750 1.562500 0 0 0 0 0.000000 0.000000 0.000000 0.000000
0.495300 -3.809997 -20.078701 1.000000 0.000000 0.000000 0.000000 0.000000 1.000000 -8.234375 1.562500 0 0 0 0 0.000000 0.000000 0.000000 0.000000
0.381000 -3.162297 -20.726400 0.000000 0.707107 0.707107 1.000000 0.000000 0.000000 0.156250 8.500000 0 0 0 0 0.000000 0.000000 0.000000 0.000000
0.495300 -3.162297 -20.726400 0.000000 0.707107 0.707107 1.000000 0.000000 0.000000 0.203125 8.500000 0 0 0 0 0.000000 0.000000 0.000000 0.000000
0.495300 -3.809997 -20.078701 0.000000 0.707107 0.707107 1.000000 0.000000 0.000000 0.203125 8.234375 0 0 0 0 0.000000 0.000000 0.000000 0.000000
0.381000 -3.809997 -20.078701 0.000000 0.707107 0.707107 1.000000 0.000000 0.000000 0.156250 8.234375 0 0 0 0 0.000000 0.000000 0.000000 0.000000
0.495300 -2.133596 -21.107399 0.000000 1.000000 0.000000 1.000000 0.000000 0.000000 0.203125 8.656250 0 0 0 0 0.000000 0.000000 0.000000 0.000000
0.381000 -2.133596 -21.107399 0.000000 1.000000 0.000000 1.000000 0.000000 0.000000 0.156250 8.656250 0 0 0 0 0.000000 0.000000 0.000000 0.000000
0.381000 -2.133596 -21.983698 0.000000 1.000000 0.000000 1.000000 0.000000 0.000000 0.156250 9.015625 0 0 0 0 0.000000 0.000000 0.000000 0.000000
0.495300 -2.133596 -21.983698 0.000000 1.000000 0.000000 1.000000 0.000000 0.000000 0.203125 9.015625 0 0 0 0 0.000000 0.000000 0.000000 0.000000
0.495300 -3.809997 -21.107399 0.000000 -1.000000 -0.000000 1.000000 0.000000 0.000000 0.203125 8.656250 0 0 0 0 0.000000 0.000000 0.000000 0.000000
0.495300 -3.809996 -21.983698 0.000000 -1.000000 -0.000000 1.000000 0.000000 0.000000 0.203125 9.015625 0 0 0 0 0.000000 0.000000 0.000000 0.000000
0.381000 -3.809996 -21.983698 0.000000 -1.000000 -0.000000 1.000000 0.000000 0.000000 0.156250 9.015625 0 0 0 0 0.000000 0.000000 0.000000 0.000000
0.381000 -3.809997 -21.107399 0.000000 -1.000000 -0.000000 1.000000 0.000000 0.000000 0.156250 8.656250 0 0 0 0 0.000000 0.000000 0.000000 0.000000
0.381000 -2.209796 -21.983698 0.000000 0.000000 -1.000000 1.000000 0.000000 0.000000 0.156250 0.906250 0 0 0 0 0.000000 0.000000 0.000000 0.000000
0.381000 -3.733796 -21.983698 0.000000 0.000000 -1.000000 1.000000 0.000000 0.000000 0.156250 1.531250 0 0 0 0 0.000000 0.000000 0.000000 0.000000
0.495300 -3.733796 -21.983698 0.000000 0.000000 -1.000000 1.000000 0.000000 0.000000 0.203125 1.531250 0 0 0 0 0.000000 0.000000 0.000000 0.000000
0.495300 -2.209796 -21.983698 0.000000 0.000000 -1.000000 1.000000 0.000000 0.000000 0.203125 0.906250 0 0 0 0 0.000000 0.000000 0.000000 0.000000
0.381000 -2.857497 -21.336000 -1.000000 0.000000 0.000000 0.000000 0.000000 1.000000 -8.750000 1.171875 0 0 0 0 0.000000 0.000000 0.000000 0.000000
0.381000 -3.086097 -21.336000 -1.000000 0.000000 0.000000 0.000000 0.000000 1.000000 -8.750000 1.265625 0 0 0 0 0.000000 0.000000 0.000000 0.000000
0.381000 -3.733796 -21.983698 -1.000000 0.000000 0.000000 0.000000 -0.000001 1.000000 -9.015625 1.531250 0 0 0 0 0.000000 0.000000 0.000000 0.000000
0.381000 -2.209796 -21.983698 -1.000000 0.000000 0.000000 0.000000 0.000000 1.000000 -9.015625 0.906250 0 0 0 0 0.000000 0.000000 0.000000 0.000000
0.381000 -2.133596 -21.107399 -1.000000 0.000000 0.000000 0.000000 0.000000 1.000000 -8.656250 0.875000 0 0 0 0 0.000000 0.000000 0.000000 0.000000
0.381000 -2.781297 -21.107399 -1.000000 0.000000 0.000000 0.000000 0.000000 1.000000 -8.656250 1.140625 0 0 0 0 0.000000 0.000000 0.000000 0.000000
0.381000 -2.781297 -21.336000 -1.000000 0.000000 0.000000 0.000000 0.000000 1.000000 -8.750000 1.140625 0 0 0 0 0.000000 0.000000 0.000000 0.000000
0.381000 -2.133596 -21.983698 -1.000000 0.000000 0.000000 0.000000 0.000000 1.000000 -9.015625 0.875000 0 0 0 0 0.000000 0.000000 0.000000 0.000000
0.381000 -3.162297 -21.336000 -1.000000 0.000000 0.000000 0.000000 0.000000 1.000000 -8.750000 1.296875 0 0 0 0 0.000000 0.000000 0.000000 0.000000
0.381000 -3.162297 -21.107399 -1.000000 0.000000 0.000000 0.000000 0.000000 1.000000 -8.656250 1.296875 0 0 0 0 0.000000 0.000000 0.000000 0.000000
0.381000 -3.809997 -21.107399 -1.000000 0.000000 0.000000 0.000000 -0.000000 1.000000 -8.656250 1.562500 0 0 0 0 0.000000 0.000000 0.000000 0.000000
0.381000 -3.809996 -21.983698 -1.000000 0.000000 0.000000 0.000000 0.000000 1.000000 -9.015625 1.562500 0 0 0 0 0.000000 0.000000 0.000000 0.000000
0.381000 -3.086097 -21.336000 0.000000 -0.707107 0.707107 1.000000 0.000000 0.000000 0.156250 8.750000 0 0 0 0 0.000000 0.000000 0.000000 0.000000
0.495300 -3.086097 -21.336000 0.000000 -0.707107 0.707107 1.000000 0.000000 0.000000 0.203125 8.750000 0 0 0 0 0.000000 0.000000 0.000000 0.000000
0.495300 -3.733796 -21.983698 0.000000 -0.707107 0.707107 1.000000 0.000000 0.000000 0.203125 9.015625 0 0 0 0 0.000000 0.000000 0.000000 0.000000
0.381000 -3.733796 -21.983698 0.000000 -0.707107 0.707107 1.000000 0.000000 0.000000 0.156250 9.015625 0 0 0 0 0.000000 0.000000 0.000000 0.000000
0.495300 -2.133596 -21.107399 0.000000 -0.000000 1.000000 1.000000 0.000000 0.000000 0.203125 0.875000 0 0 0 0 0.000000 0.000000 0.000000 0.000000
0.495300 -2.781297 -21.107399 0.000000 -0.000000 1.000000 1.000000 0.000000 0.000000 0.203125 1.140625 0 0 0 0 0.000000 0.000000 0.000000 0.000000
0.381000 -2.781297 -21.107399 0.000000 -0.000000 1.000000 1.000000 0.000000 0.000000 0.156250 1.140625 0 0 0 0 0.000000 0.000000 0.000000 0.000000
0.381000 -2.133596 -21.107399 0.000000 -0.000000 1.000000 1.000000 0.000000 0.000000 0.156250 0.875000 0 0 0 0 0.000000 0.000000 0.000000 0.000000
0.381000 -2.209796 -21.983698 0.000000 0.707106 0.707107 1.000000 0.000000 0.000000 0.156250 9.015625 0 0 0 0 0.000000 0.000000 0.000000 0.000000
0.495300 -2.209796 -21.983698 0.000000 0.707106 0.707107 1.000000 0.000000 0.000000 0.203125 9.015625 0 0 0 0 0.000000 0.000000 0.000000 0.000000
0.495300 -2.857497 -21.336000 0.000000 0.707106 0.707107 1.000000 0.000000 0.000000 0.203125 8.750000 0 0 0 0 0.000000 0.000000 0.000000 0.000000
0.381000 -2.857497 -21.336000 0.000000 0.707106 0.707107 1.000000 0.000000 0.000000 0.156250 8.750000 0 0 0 0 0.000000 0.000000 0.000000 0.000000
0.495300 -2.857497 -21.336000 0.000000 -0.000000 1.000000 1.000000 0.000000 0.000000 0.203125 1.171875 0 0 0 0 0.000000 0.000000 0.000000 0.000000
0.495300 -3.086097 -21.336000 0.000000 -0.000000 1.000000 1.000000 0.000000 0.000000 0.203125 1.265625 0 0 0 0 0.000000 0.000000 0.000000 0.000000
0.381000 -3.086097 -21.336000 0.000000 -0.000000 1.000000 1.000000 0.000000 0.000000 0.156250 1.265625 0 0 0 0 0.000000 0.000000 0.000000 0.000000
0.381000 -2.857497 -21.336000 0.000000 -0.000000 1.000000 1.000000 0.000000 0.000000 0.156250 1.171875 0 0 0 0 0.000000 0.000000 0.000000 0.000000
0.495300 -2.209796 -21.983698 1.000000 0.000000 -0.000000 0.000000 -0.000000 1.000000 -9.015625 0.906250 0 0 0 0 0.000000 0.000000 0.000000 0.000000
0.495300 -3.733796 -21.983698 1.000000 0.000000 -0.000000 0.000000 -0.000000 1.000000 -9.015625 1.531250 0 0 0 0 0.000000 0.000000 0.000000 0.000000
0.495300 -3.086097 -21.336000 1.000000 0.000000 -0.000000 0.000000 -0.000001 1.000000 -8.750000 1.265625 0 0 0 0 0.000000 0.000000 0.000000 0.000000
0.495300 -2.857497 -21.336000 1.000000 0.000000 -0.000000 0.000000 -0.000000 1.000000 -8.750000 1.171875 0 0 0 0 0.000000 0.000000 0.000000 0.000000
0.495300 -2.781297 -21.336000 0.000000 -1.000000 -0.000000 1.000000 0.000000 0.000000 0.203125 8.750000 0 0 0 0 0.000000 0.000000 0.000000 0.000000
0.381000 -2.781297 -21.336000 0.000000 -1.000000 -0.000000 1.000000 0.000000 0.000000 0.156250 8.750000 0 0 0 0 0.000000 0.000000 0.000000 0.000000
0.381000 -2.781297 -21.107399 0.000000 -1.000000 -0.000000 1.000000 0.000000 0.000000 0.156250 8.656250 0 0 0 0 0.000000 0.000000 0.000000 0.000000
0.495300 -2.781297 -21.107399 0.000000 -1.000000 -0.000000 1.000000 0.000000 0.000000 0.203125 8.656250 0 0 0 0 0.000000 0.000000 0.000000 0.000000
0.495300 -2.133596 -21.983698 1.000000 0.000000 0.000000 0.000000 0.000000 1.000000 -9.015625 0.875000 0 0 0 0 0.000000 0.000000 0.000000 0.000000
0.495300 -2.781297 -21.336000 1.000000 0.000000 0.000000 0.000000 0.000000 1.000000 -8.750000 1.140625 0 0 0 0 0.000000 0.000000 0.000000 0.000000
0.495300 -2.781297 -21.107399 1.000000 0.000000 0.000000 0.000000 0.000000 1.000000 -8.656250 1.140625 0 0 0 0 0.000000 0.000000 0.000000 0.000000
0.495300 -2.133596 -21.107399 1.000000 0.000000 0.000000 0.000000 0.000000 1.000000 -8.656250 0.875000 0 0 0 0 0.000000 0.000000 0.000000 0.000000
0.381000 -2.133596 -21.983698 0.000000 -0.707106 -0.707107 1.000000 0.000000 0.000000 0.156250 9.015625 0 0 0 0 0.000000 0.000000 0.000000 0.000000
0.381000 -2.781297 -21.336000 0.000000 -0.707106 -0.707107 1.000000 0.000000 0.000000 0.156250 8.750000 0 0 0 0 0.000000 0.000000 0.000000 0.000000
0.495300 -2.781297 -21.336000 0.000000 -0.707106 -0.707107 1.000000 0.000000 0.000000 0.203125 8.750000 0 0 0 0 0.000000 0.000000 0.000000 0.000000
0.495300 -2.133596 -21.983698 0.000000 -0.707106 -0.707107 1.000000 0.000000 0.000000 0.203125 9.015625 0 0 0 0 0.000000 0.000000 0.000000 0.000000
0.495300 -3.162297 -21.336000 0.000000 1.000000 0.000000 1.000000 0.000000 0.000000 0.203125 8.750000 0 0 0 0 0.000000 0.000000 0.000000 0.000000
0.495300 -3.162297 -21.107399 0.000000 1.000000 0.000000 1.000000 0.000000 0.000000 0.203125 8.656250 0 0 0 0 0.000000 0.000000 0.000000 0.000000
0.381000 -3.162297 -21.107399 0.000000 1.000000 0.000000 1.000000 0.000000 0.000000 0.156250 8.656250 0 0 0 0 0.000000 0.000000 0.000000 0.000000
0.381000 -3.162297 -21.336000 0.000000 1.000000 0.000000 1.000000 0.000000 0.000000 0.156250 8.750000 0 0 0 0 0.000000 0.000000 0.000000 0.000000
0.381000 -3.162297 -21.107399 0.000000 -0.000000 1.000000 1.000000 0.000000 0.000000 0.156250 1.296875 0 0 0 0 0.000000 0.000000 0.000000 0.000000
0.495300 -3.162297 -21.107399 0.000000 -0.000000 1.000000 1.000000 0.000000 0.000000 0.203125 1.296875 0 0 0 0 0.000000 0.000000 0.000000 0.000000
0.495300 -3.809997 -21.107399 0.000000 -0.000000 1.000000 1.000000 0.000000 0.000000 0.203125 1.562500 0 0 0 0 0.000000 0.000000 0.000000 0.000000
0.381000 -3.809997 -21.107399 0.000000 -0.000000 1.000000 1.000000 0.000000 0.000000 0.156250 1.562500 0 0 0 0 0.000000 0.000000 0.000000 0.000000
0.495300 -3.162297 -21.107399 1.000000 0.000000 0.000000 0.000000 0.000000 1.000000 -8.656250 1.296875 0 0 0 0 0.000000 0.000000 0.000000 0.000000
0.495300 -3.162297 -21.336000 1.000000 0.000000 0.000000 0.000000 0.000000 1.000000 -8.750000 1.296875 0 0 0 0 0.000000 0.000000 0.000000 0.000000
0.495300 -3.809996 -21.983698 1.000000 0.000000 0.000000 0.000000 -0.000000 1.000000 -9.015625 1.562500 0 0 0 0 0.000000 0.000000 0.000000 0.000000
0.495300 -3.809997 -21.107399 1.000000 0.000000 0.000000 0.000000 0.000000 1.000000 -8.656250 1.562500 0 0 0 0 0.000000 0.000000 0.000000 0.000000
0.495300 -3.162297 -21.336000 0.000000 0.707107 -0.707107 1.000000 0.000000 0.000000 0.203125 8.750000 0 0 0 0 0.000000 0.000000 0.000000 0.000000
0.381000 -3.162297 -21.336000 0.000000 0.707107 -0.707107 1.000000 0.000000 0.000000 0.156250 8.750000 0 0 0 0 0.000000 0.000000 0.000000 0.000000
0.381000 -3.809996 -21.983698 0.000000 0.707107 -0.707107 1.000000 0.000000 0.000000 0.156250 9.015625 0 0 0 0 0.000000 0.000000 0.000000 0.000000
0.495300 -3.809996 -21.983698 0.000000 0.707107 -0.707107 1.000000 0.000000 0.000000 0.203125 9.015625 0 0 0 0 0.000000 0.000000 0.000000 0.000000
IndexCount: 432
3 1 0
3 2 1
7 5 4
7 6 5
11 9 8
11 10 9
15 13 12
15 14 13
19 17 16
19 18 17
23 21 20
23 22 21
27 25 24
27 26 25
31 29 28
31 30 29
35 33 32
35 34 33
39 37 36
39 38 37
43 41 40
43 42 41
47 45 44
47 46 45
51 49 48
51 50 49
55 53 52
55 54 53
59 57 56
59 58 57
63 61 60
63 62 61
67 65 64
67 66 65
71 69 68
71 70 69
75 73 72
75 74 73
79 77 76
79 78 77
83 81 80
83 82 81
87 85 84
87 86 85
91 89 88
91 90 89
95 93 92
95 94 93
99 97 96
99 98 97
103 101 100
103 102 101
107 105 104
107 106 105
111 109 108
111 110 109
115 113 112
115 114 113
119 117 116
119 118 117
123 121 120
123 122 121
127 125 124
127 126 125
131 129 128
131 130 129
135 133 132
135 134 133
139 137 136
139 138 137
143 141 140
143 142 141
147 145 144
147 146 145
151 149 148
151 150 149
155 153 152
155 154 153
159 157 156
159 158 157
163 161 160
163 162 161
167 165 164
167 166 165
171 169 168
171 170 169
175 173 172
175 174 173
179 177 176
179 178 177
183 181 180
183 182 181
187 185 184
187 186 185
191 189 188
191 190 189
195 193 192
195 194 193
199 197 196
199 198 197
203 201 200
203 202 201
207 205 204
207 206 205
211 209 208
211 210 209
215 213 212
215 214 213
219 217 216
219 218 217
223 221 220
223 222 221
227 225 224
227 226 225
231 229 228
231 230 229
235 233 232
235 234 233
239 237 236
239 238 237
243 241 240
243 242 241
247 245 244
247 246 245
251 249 248
251 250 249
255 253 252
255 254 253
259 257 256
259 258 257
263 261 260
263 262 261
267 265 264
267 266 265
271 269 268
271 270 269
275 273 272
275 274 273
279 277 276
279 278 277
283 281 280
283 282 281
287 285 284
287 286 285