VertexCount: 43
-4.876800 -3.657601 7.296148 -0.000000 1.000000 0.000000 1.000000 0.000000 0.000000 -32.000000 -22.437500 0 0 0 0 0.000000 0.000000 0.000000 0.000000
-4.876800 -3.657601 7.467599 -0.000000 1.000000 0.000000 1.000000 0.000000 0.000000 -32.000000 -23.000000 0 0 0 0 0.000000 0.000000 0.000000 0.000000
-5.029201 -3.657601 7.467599 -0.000000 1.000000 0.000000 1.000000 0.000000 0.000000 -33.000000 -23.000000 0 0 0 0 0.000000 0.000000 0.000000 0.000000
-5.029201 -3.657601 7.296148 -0.000000 1.000000 0.000000 1.000000 0.000000 0.000000 -33.000000 -22.437500 0 0 0 0 0.000000 0.000000 0.000000 0.000000
-5.029201 -3.657601 7.162799 -0.000000 1.000000 0.000000 1.000000 0.000000 0.000000 -33.000000 -22.000000 0 0 0 0 0.000000 0.000000 0.000000 0.000000
-4.876800 -3.657601 7.162799 -0.000000 1.000000 0.000000 1.000000 0.000000 0.000000 -32.000000 -22.000000 0 0 0 0 0.000000 0.000000 0.000000 0.000000
-4.876800 -3.657601 6.172199 -0.000000 1.000000 0.000000 1.000000 0.000000 0.000000 -32.000000 -19.000000 0 0 0 0 0.000000 0.000000 0.000000 0.000000
-5.029201 -3.657601 6.172199 -0.000000 1.000000 0.000000 1.000000 0.000000 0.000000 -33.000000 -19.000000 0 0 0 0 0.000000 0.000000 0.000000 0.000000
-5.029201 -3.657601 6.019799 -0.000000 1.000000 0.000000 1.000000 0.000000 0.000000 -33.000000 -18.500000 0 0 0 0 0.000000 0.000000 0.000000 0.000000
-5.029201 -3.657601 5.867399 -0.000000 1.000000 0.000000 1.000000 0.000000 -0.000004 -33.000000 -18.000000 0 0 0 0 0.000000 0.000000 0.000000 0.000000
-4.876800 -3.657601 5.867399 -0.000000 1.000000 0.000000 1.000000 0.000000 0.000000 -32.000000 -18.000000 0 0 0 0 0.000000 0.000000 0.000000 0.000000
-4.876800 -3.657601 4.876799 -0.000000 1.000000 0.000000 1.000000 0.000000 0.000000 -32.000000 -14.000000 0 0 0 0 0.000000 0.000000 0.000000 0.000000
-5.029200 -3.657601 4.876799 -0.000000 1.000000 0.000000 1.000000 0.000000 0.000000 -33.000000 -14.000000 0 0 0 0 0.000000 0.000000 0.000000 0.000000
-5.029200 -3.657601 4.571999 -0.000000 1.000000 0.000000 1.000000 0.000000 0.000000 -33.000000 -13.000000 0 0 0 0 0.000000 0.000000 0.000000 0.000000
-4.876800 -3.657601 4.571999 -0.000000 1.000000 0.000000 1.000000 0.000000 0.000000 -32.000000 -13.000000 0 0 0 0 0.000000 0.000000 0.000000 0.000000
4.191001 -1.600197 -18.440401 0.000000 -1.000000 -0.000000 0.000000 -0.000000 1.000000 -75.937500 18.000000 0 0 0 0 0.000000 0.000000 0.000000 0.000000
3.962401 -1.600197 -18.440401 0.000000 -1.000000 -0.000000 0.000000 -0.000000 1.000000 -75.937500 17.062500 0 0 0 0 0.000000 0.000000 0.000000 0.000000
3.962401 -1.600197 -18.211800 0.000000 -1.000000 -0.000000 0.000000 -0.000000 1.000000 -75.000000 17.062500 0 0 0 0 0.000000 0.000000 0.000000 0.000000
4.191001 -1.600197 -18.211800 0.000000 -1.000000 -0.000000 0.000000 -0.000000 1.000000 -75.000000 18.000000 0 0 0 0 0.000000 0.000000 0.000000 0.000000
-26.288998 -3.886204 7.696197 0.000000 0.000000 -1.000000 1.000000 -0.000000 0.000000 -86.000000 13.000000 0 0 0 0 0.000000 0.000000 0.000000 0.000000
-26.288998 -4.191004 7.696197 0.000000 0.000000 -1.000000 1.000000 -0.000000 0.000000 -86.000000 14.000000 0 0 0 0 0.000000 0.000000 0.000000 0.000000
-25.984200 -4.191004 7.696197 0.000000 0.000000 -1.000000 1.000000 -0.000000 0.000000 -85.000000 14.000000 0 0 0 0 0.000000 0.000000 0.000000 0.000000
-25.984200 -3.886204 7.696197 0.000000 0.000000 -1.000000 1.000000 -0.000000 0.000000 -85.000000 13.000000 0 0 0 0 0.000000 0.000000 0.000000 0.000000
-30.403801 -3.886204 7.696197 0.000000 0.000000 -1.000000 1.000000 -0.000000 0.000000 -100.000000 13.000000 0 0 0 0 0.000000 0.000000 0.000000 0.000000
-30.403801 -4.191004 7.696197 0.000000 0.000000 -1.000000 1.000000 -0.000000 0.000000 -100.000000 14.000000 0 0 0 0 0.000000 0.000000 0.000000 0.000000
-30.099001 -4.191004 7.696197 0.000000 0.000000 -1.000000 1.000000 -0.000000 0.000000 -99.000000 14.000000 0 0 0 0 0.000000 0.000000 0.000000 0.000000
-30.099001 -3.886204 7.696197 0.000000 0.000000 -1.000000 1.000000 -0.000000 0.000000 -99.000000 13.000000 0 0 0 0 0.000000 0.000000 0.000000 0.000000
-28.346401 -3.886204 7.696197 0.000000 0.000000 -1.000000 1.000000 -0.000000 0.000000 -93.000000 13.000000 0 0 0 0 0.000000 0.000000 0.000000 0.000000
-28.346401 -4.191004 7.696197 0.000000 0.000000 -1.000000 1.000000 -0.000000 0.000000 -93.000000 14.000000 0 0 0 0 0.000000 0.000000 0.000000 0.000000
-28.041601 -4.191004 7.696197 0.000000 0.000000 -1.000000 1.000000 -0.000000 0.000000 -92.000000 14.000000 0 0 0 0 0.000000 0.000000 0.000000 0.000000
-28.041601 -3.886204 7.696197 0.000000 0.000000 -1.000000 1.000000 -0.000000 0.000000 -92.000000 13.000000 0 0 0 0 0.000000 0.000000 0.000000 0.000000
-25.984200 -3.886203 4.495797 -0.000000 -0.000000 1.000000 1.000000 0.000000 0.000000 -85.000000 13.000000 0 0 0 0 0.000000 0.000000 0.000000 0.000000
-25.984200 -4.191003 4.495797 -0.000000 -0.000000 1.000000 1.000000 0.000000 0.000000 -85.000000 14.000000 0 0 0 0 0.000000 0.000000 0.000000 0.000000
-26.288998 -4.191003 4.495797 -0.000000 -0.000000 1.000000 1.000000 0.000000 0.000000 -86.000000 14.000000 0 0 0 0 0.000000 0.000000 0.000000 0.000000
-26.288998 -3.886203 4.495797 -0.000000 -0.000000 1.000000 1.000000 0.000000 0.000000 -86.000000 13.000000 0 0 0 0 0.000000 0.000000 0.000000 0.000000
-28.041601 -3.886203 4.495797 -0.000000 -0.000000 1.000000 1.000000 0.000001 0.000000 -92.000000 13.000000 0 0 0 0 0.000000 0.000000 0.000000 0.000000
-28.041601 -4.191003 4.495797 -0.000000 -0.000000 1.000000 1.000000 0.000001 0.000000 -92.000000 14.000000 0 0 0 0 0.000000 0.000000 0.000000 0.000000
-28.346401 -4.191003 4.495797 -0.000000 -0.000000 1.000000 1.000000 0.000001 0.000000 -93.000000 14.000000 0 0 0 0 0.000000 0.000000 0.000000 0.000000
-28.346401 -3.886203 4.495797 -0.000000 -0.000000 1.000000 1.000000 0.000001 0.000000 -93.000000 13.000000 0 0 0 0 0.000000 0.000000 0.000000 0.000000
-30.099001 -3.886203 4.495797 -0.000000 -0.000000 1.000000 1.000000 -0.000000 0.000000 -99.000000 13.000000 0 0 0 0 0.000000 0.000000 0.000000 0.000000
-30.099001 -4.191003 4.495797 -0.000000 -0.000000 1.000000 1.000000 -0.000000 0.000000 -99.000000 14.000000 0 0 0 0 0.000000 0.000000 0.000000 0.000000
-30.403801 -4.191003 4.495797 -0.000000 -0.000000 1.000000 1.000000 -0.000000 0.000000 -100.000000 14.000000 0 0 0 0 0.000000 0.000000 0.000000 0.000000
-30.403801 -3.886203 4.495797 -0.000000 -0.000000 1.000000 1.000000 -0.000000 0.000000 -100.000000 13.000000 0 0 0 0 0.000000 0.000000 0.000000 0.000000
IndexCount: 69
3 1 0
5 3 0
3 2 1
5 4 3
6 10 9
6 9 8
8 7 6
14 12 11
14 13 12
18 16 15
18 17 16
22 20 19
22 21 20
26 24 23
26 25 24
30 28 27
30 29 28
34 32 31
34 33 32
38 36 35
38 37 36
42 40 39
42 41 40
