VertexCount: 51
2.933702 -1.828796 -21.564600 0.000000 -1.000000 -0.000000 -0.000000 -0.000000 1.000000 -8.695513 1.722356 0 0 0 0 0.000000 0.000000 0.000000 0.000000
3.200402 -1.828796 -21.412201 0.000000 -1.000000 -0.000000 0.000000 -0.000000 1.000000 -8.631411 1.806490 0 0 0 0 0.000000 0.000000 0.000000 0.000000
3.352802 -1.828796 -21.564600 0.000000 -1.000000 -0.000000 0.000000 -0.000000 1.000000 -8.695513 1.854567 0 0 0 0 0.000000 0.000000 0.000000 0.000000
3.352802 -1.828796 -21.145500 0.000001 -1.000000 -0.000000 -0.000000 -0.000000 1.000000 -8.519231 1.854567 0 0 0 0 0.000000 0.000000 0.000000 0.000000
3.352802 -1.828796 -20.878798 0.000001 -1.000000 -0.000000 0.000000 -0.000000 1.000000 -8.407051 1.854567 0 0 0 0 0.000000 0.000000 0.000000 0.000000
3.200402 -1.828796 -20.612099 0.000001 -1.000000 -0.000000 -0.000000 -0.000000 1.000000 -8.294872 1.806490 0 0 0 0 0.000000 0.000000 0.000000 0.000000
3.352802 -1.828796 -20.459700 0.000001 -1.000000 -0.000000 -0.000000 -0.000000 1.000000 -8.230769 1.854567 0 0 0 0 0.000000 0.000000 0.000000 0.000000
2.933702 -1.828796 -20.459700 0.000000 -1.000000 -0.000000 -0.000000 -0.000000 1.000000 -8.230769 1.722356 0 0 0 0 0.000000 0.000000 0.000000 0.000000
3.352802 -1.828796 -22.136101 0.000000 -1.000000 -0.000000 1.000000 0.000000 -0.000000 -8.935898 1.854567 0 0 0 0 0.000000 0.000000 0.000000 0.000000
3.162302 -1.828796 -22.136101 0.000000 -1.000000 -0.000000 1.000000 0.000000 -0.000000 -8.935898 1.794471 0 0 0 0 0.000000 0.000000 0.000000 0.000000
3.048002 -1.828796 -22.136101 0.000000 -1.000000 -0.000000 1.000000 0.000000 0.000000 -8.935898 1.758414 0 0 0 0 0.000000 0.000000 0.000000 0.000000
2.819402 -1.828796 -22.136101 0.000000 -1.000000 -0.000000 1.000000 0.000000 -0.000000 -8.935898 1.686298 0 0 0 0 0.000000 0.000000 0.000000 0.000000
2.819402 -1.828796 -21.564600 0.000000 -1.000000 -0.000000 0.000000 -0.000000 1.000000 -8.695513 1.686298 0 0 0 0 0.000000 0.000000 0.000000 0.000000
3.162302 -1.828796 -22.136101 0.000000 -1.000000 -0.000000 -0.000000 -0.000000 1.000000 -8.935898 1.794471 0 0 0 0 0.000000 0.000000 0.000000 0.000000
3.352802 -1.828796 -22.136101 0.000000 -1.000000 -0.000000 -0.000000 -0.000000 1.000000 -8.935898 1.854567 0 0 0 0 0.000000 0.000000 0.000000 0.000000
3.352802 -1.828796 -22.250401 0.000000 -1.000000 -0.000000 0.000000 -0.000000 1.000000 -8.983974 1.854567 0 0 0 0 0.000000 0.000000 0.000000 0.000000
3.162302 -1.828796 -22.250401 0.000000 -1.000000 -0.000000 -0.000000 -0.000000 1.000000 -8.983974 1.794471 0 0 0 0 0.000000 0.000000 0.000000 0.000000
3.162302 -1.828796 -19.812000 0.000000 -1.000000 -0.000000 0.000000 -0.000000 1.000000 -7.958333 1.794471 0 0 0 0 0.000000 0.000000 0.000000 0.000000
3.352802 -1.828796 -19.812000 0.000000 -1.000000 -0.000000 0.000000 -0.000000 1.000000 -7.958333 1.854567 0 0 0 0 0.000000 0.000000 0.000000 0.000000
3.352802 -1.828796 -19.926300 0.000000 -1.000000 -0.000000 -0.000000 -0.000000 1.000000 -8.006411 1.854567 0 0 0 0 0.000000 0.000000 0.000000 0.000000
3.162302 -1.828796 -19.926300 0.000000 -1.000000 -0.000000 0.000000 -0.000000 1.000000 -8.006411 1.794471 0 0 0 0 0.000000 0.000000 0.000000 0.000000
2.819402 -1.828796 -19.926300 0.000000 -1.000000 -0.000000 -1.000000 -0.000000 -0.000000 -8.006411 1.686298 0 0 0 0 0.000000 0.000000 0.000000 0.000000
3.048002 -1.828796 -19.926300 0.000000 -1.000000 -0.000000 -1.000000 -0.000000 -0.000000 -8.006411 1.758414 0 0 0 0 0.000000 0.000000 0.000000 0.000000
3.162302 -1.828796 -19.926300 0.000000 -1.000000 -0.000000 -1.000000 -0.000000 -0.000000 -8.006411 1.794471 0 0 0 0 0.000000 0.000000 0.000000 0.000000
3.352802 -1.828796 -19.926300 0.000000 -1.000000 -0.000000 -1.000000 -0.000000 -0.000000 -8.006411 1.854567 0 0 0 0 0.000000 0.000000 0.000000 0.000000
2.819402 -1.828796 -20.459700 0.000000 -1.000000 -0.000000 0.000000 -0.000000 1.000000 -8.230769 1.686298 0 0 0 0 0.000000 0.000000 0.000000 0.000000
3.695702 -1.828796 -19.812000 0.000000 -1.000000 -0.000000 -0.000000 -0.000000 1.000000 -7.958333 1.962740 0 0 0 0 0.000000 0.000000 0.000000 0.000000
3.695702 -1.828796 -22.250401 0.000000 -1.000000 -0.000000 -0.000000 -0.000000 1.000000 -8.983974 1.962740 0 0 0 0 0.000000 0.000000 0.000000 0.000000
2.819402 -1.828796 -19.926300 0.000000 -1.000000 -0.000000 0.000000 -0.000000 1.000000 -8.006411 1.686298 0 0 0 0 0.000000 0.000000 0.000000 0.000000
2.628902 -1.828796 -20.459700 0.000000 -1.000000 -0.000000 0.000000 -0.000000 1.000000 -8.230769 1.626202 0 0 0 0 0.000000 0.000000 0.000000 0.000000
2.209802 -1.828796 -20.459700 0.000000 -1.000000 -0.000000 -0.000001 -0.000000 1.000000 -8.230769 1.493990 0 0 0 0 0.000000 0.000000 0.000000 0.000000
2.209802 -1.828796 -19.926300 0.000000 -1.000000 -0.000000 -0.000000 -0.000000 1.000000 -8.006411 1.493990 0 0 0 0 0.000000 0.000000 0.000000 0.000000
2.819402 -1.828796 -22.136101 0.000000 -1.000000 -0.000000 -0.000000 -0.000000 1.000000 -8.935898 1.686298 0 0 0 0 0.000000 0.000000 0.000000 0.000000
2.209802 -1.828796 -22.136101 0.000000 -1.000000 -0.000000 -0.000000 -0.000000 1.000000 -8.935898 1.493990 0 0 0 0 0.000000 0.000000 0.000000 0.000000
2.209802 -1.828796 -21.564600 0.000000 -1.000000 -0.000000 -0.000000 -0.000000 1.000000 -8.695513 1.493990 0 0 0 0 0.000000 0.000000 0.000000 0.000000
2.628902 -1.828796 -21.564600 0.000000 -1.000000 -0.000000 0.000001 -0.000000 1.000000 -8.695513 1.626202 0 0 0 0 0.000000 0.000000 0.000000 0.000000
0.723902 -1.828796 -22.136101 0.000000 -1.000000 -0.000000 -0.000000 -0.000000 1.000000 -8.935898 1.025240 0 0 0 0 0.000000 0.000000 0.000000 0.000000
0.723902 -1.828797 -19.926300 0.000000 -1.000000 -0.000000 -0.000000 -0.000000 1.000000 -8.006411 1.025240 0 0 0 0 0.000000 0.000000 0.000000 0.000000
1.295402 -1.828797 -19.926300 0.000000 -1.000000 -0.000000 -0.000000 -0.000000 1.000000 -8.006411 1.205529 0 0 0 0 0.000000 0.000000 0.000000 0.000000
1.409702 -1.828797 -19.926300 0.000000 -1.000000 -0.000000 -0.000000 -0.000000 1.000000 -8.006411 1.241587 0 0 0 0 0.000000 0.000000 0.000000 0.000000
2.209802 -1.828796 -20.878798 0.000000 -1.000000 -0.000000 0.000000 -0.000000 1.000000 -8.407051 1.493990 0 0 0 0 0.000000 0.000000 0.000000 0.000000
2.209802 -1.828796 -21.145500 0.000000 -1.000000 -0.000000 0.000000 -0.000000 1.000000 -8.519231 1.493990 0 0 0 0 0.000000 0.000000 0.000000 0.000000
1.409702 -1.828796 -22.136101 0.000000 -1.000000 -0.000000 -0.000000 -0.000000 1.000000 -8.935898 1.241587 0 0 0 0 0.000000 0.000000 0.000000 0.000000
1.295402 -1.828796 -22.136101 0.000000 -1.000000 -0.000000 1.000000 0.000000 0.000000 -8.935898 1.205529 0 0 0 0 0.000000 0.000000 0.000000 0.000000
0.723902 -1.828797 -19.812000 0.000000 -1.000000 -0.000000 0.000000 -0.000000 1.000000 -7.958333 1.025240 0 0 0 0 0.000000 0.000000 0.000000 0.000000
1.295402 -1.828797 -19.812000 0.000000 -1.000000 -0.000000 0.000000 -0.000000 1.000000 -7.958333 1.205529 0 0 0 0 0.000000 0.000000 0.000000 0.000000
1.295402 -1.828796 -22.250401 0.000000 -1.000000 -0.000000 0.000000 -0.000000 1.000000 -8.983974 1.205529 0 0 0 0 0.000000 0.000000 0.000000 0.000000
0.723902 -1.828796 -22.250401 0.000000 -1.000000 -0.000000 0.000000 -0.000000 1.000000 -8.983974 1.025240 0 0 0 0 0.000000 0.000000 0.000000 0.000000
1.295402 -1.828796 -22.136101 0.000000 -1.000000 -0.000000 0.000000 -0.000000 1.000000 -8.935898 1.205529 0 0 0 0 0.000000 0.000000 0.000000 0.000000
2.362202 -1.828796 -20.612099 0.000000 -1.000000 -0.000000 0.000000 -0.000000 1.000000 -8.294872 1.542067 0 0 0 0 0.000000 0.000000 0.000000 0.000000
2.362202 -1.828796 -21.412201 0.000000 -1.000000 -0.000000 0.000000 -0.000000 1.000000 -8.631411 1.542067 0 0 0 0 0.000000 0.000000 0.000000 0.000000
IndexCount: 150
2 1 0
8 2 0
8 0 12
1 2 3
26 3 2
26 2 14
26 4 3
6 5 4
26 6 4
5 6 7
21 7 6
21 6 24
26 19 6
21 25 7
24 22 21
24 23 22
29 25 28
28 30 29
30 49 29
28 31 30
42 40 30
42 30 31
49 30 40
42 31 39
42 39 38
42 38 37
45 37 38
42 37 36
45 44 37
36 43 42
48 36 47
48 47 46
42 33 34
42 34 41
42 41 40
34 33 32
32 35 34
41 34 50
35 50 34
32 12 35
8 12 11
11 9 8
11 10 9
20 19 18
26 18 19
20 18 17
26 14 15
15 27 26
16 15 14
16 14 13
