VertexCount: 4
-5.791199 -4.114800 -1.676401 0.000000 0.000000 -1.000000 1.000000 0.000000 0.000000 -6.000000 2.000000 0 0 0 0 0.000000 0.000000 0.000000 0.000000
-5.791200 -1.524000 -1.676401 0.000000 0.000000 -1.000000 1.000000 0.000000 0.000000 -6.000000 0.937500 0 0 0 0 0.000000 0.000000 0.000000 0.000000
-6.705600 -1.524000 -1.676401 0.000000 0.000000 -1.000000 1.000000 0.000000 0.000000 -7.000000 0.937500 0 0 0 0 0.000000 0.000000 0.000000 0.000000
-6.705599 -4.114800 -1.676401 0.000000 0.000000 -1.000000 1.000000 0.000000 0.000000 -7.000000 2.000000 0 0 0 0 0.000000 0.000000 0.000000 0.000000
IndexCount: 6
3 2 1
3 1 0
