VertexCount: 76
-0.933450 -3.962401 6.629399 0.000000 0.000000 -1.000000 1.000000 0.000000 0.000000 -5.875000 6.000000 0 0 0 0 0.000000 0.000000 0.000000 0.000000
-0.933450 -4.038601 6.629399 0.000000 0.000000 -1.000000 1.000000 0.000000 0.000000 -5.875000 6.125000 0 0 0 0 0.000000 0.000000 0.000000 0.000000
-0.895350 -4.038601 6.629399 0.000000 0.000000 -1.000000 1.000000 0.000000 0.000000 -5.625000 6.125000 0 0 0 0 0.000000 0.000000 0.000000 0.000000
-0.895350 -3.962401 6.629399 0.000000 0.000000 -1.000000 1.000000 0.000000 0.000000 -5.625000 6.000000 0 0 0 0 0.000000 0.000000 0.000000 0.000000
-0.933450 -4.038601 6.743699 0.000000 -1.000000 -0.000000 1.000000 0.000000 0.000000 -5.875000 -10.218750 0 0 0 0 0.000000 0.000000 0.000000 0.000000
-0.895350 -4.038601 6.743699 0.000000 -1.000000 -0.000000 1.000000 0.000000 0.000000 -5.625000 -10.218750 0 0 0 0 0.000000 0.000000 0.000000 0.000000
-0.895350 -4.038601 6.629399 0.000000 -1.000000 -0.000000 1.000000 0.000000 0.000000 -5.625000 -10.031250 0 0 0 0 0.000000 0.000000 0.000000 0.000000
-0.933450 -4.038601 6.629399 0.000000 -1.000000 -0.000000 1.000000 0.000000 0.000000 -5.875000 -10.031250 0 0 0 0 0.000000 0.000000 0.000000 0.000000
-0.933450 -3.962401 6.743699 0.000000 -0.000000 1.000000 1.000000 0.000000 0.000000 -5.875000 6.000000 0 0 0 0 0.000000 0.000000 0.000000 0.000000
-0.895350 -3.962401 6.743699 0.000000 -0.000000 1.000000 1.000000 0.000000 0.000000 -5.625000 6.000000 0 0 0 0 0.000000 0.000000 0.000000 0.000000
-0.895350 -4.038601 6.743699 0.000000 -0.000000 1.000000 1.000000 0.000000 0.000000 -5.625000 6.125000 0 0 0 0 0.000000 0.000000 0.000000 0.000000
-0.933450 -4.038601 6.743699 0.000000 -0.000000 1.000000 1.000000 0.000000 0.000000 -5.875000 6.125000 0 0 0 0 0.000000 0.000000 0.000000 0.000000
-0.933450 -3.962401 6.629399 0.000000 1.000000 0.000000 1.000000 0.000000 0.000000 -5.875000 -10.031250 0 0 0 0 0.000000 0.000000 0.000000 0.000000
-0.895350 -3.962401 6.629399 0.000000 1.000000 0.000000 1.000000 0.000000 0.000000 -5.625000 -10.031250 0 0 0 0 0.000000 0.000000 0.000000 0.000000
-0.895350 -3.962401 6.743699 0.000000 1.000000 0.000000 1.000000 0.000000 0.000000 -5.625000 -10.218750 0 0 0 0 0.000000 0.000000 0.000000 0.000000
-0.933450 -3.962401 6.743699 0.000000 1.000000 0.000000 1.000000 0.000000 0.000000 -5.875000 -10.218750 0 0 0 0 0.000000 0.000000 0.000000 0.000000
-0.895350 -3.962401 6.629399 1.000000 0.000000 0.000000 0.000000 0.000000 1.000000 43.250000 6.000000 0 0 0 0 0.000000 0.000000 0.000000 0.000000
-0.895350 -4.038601 6.629399 1.000000 0.000000 0.000000 0.000000 0.000000 1.000000 43.250000 6.125000 0 0 0 0 0.000000 0.000000 0.000000 0.000000
-0.895350 -4.038601 6.743699 1.000000 0.000000 0.000000 0.000000 0.000000 1.000000 44.000000 6.125000 0 0 0 0 0.000000 0.000000 0.000000 0.000000
-0.895350 -3.962401 6.743699 1.000000 0.000000 0.000000 0.000000 0.000000 1.000000 44.000000 6.000000 0 0 0 0 0.000000 0.000000 0.000000 0.000000
3.924300 -3.676650 1.066799 -0.000003 1.000000 0.000000 1.000000 0.000003 0.000000 25.500000 -1.250000 0 0 0 0 0.000000 0.000000 0.000000 0.000000
3.810000 -3.676650 0.952499 -0.000003 1.000000 0.000000 1.000000 0.000003 0.000000 24.750000 -1.062500 0 0 0 0 0.000000 0.000000 0.000000 0.000000
3.848100 -3.676650 0.914399 -0.000003 1.000000 0.000000 1.000000 0.000003 -0.000000 25.000000 -1.000000 0 0 0 0 0.000000 0.000000 0.000000 0.000000
3.962400 -3.676650 1.028699 -0.000003 1.000000 0.000000 1.000000 0.000003 0.000000 25.750000 -1.187500 0 0 0 0 0.000000 0.000000 0.000000 0.000000
3.924300 -3.924300 1.066799 0.000000 -1.000000 -0.000000 1.000000 -0.000000 0.000000 25.500000 -1.250000 0 0 0 0 0.000000 0.000000 0.000000 0.000000
3.962400 -3.924300 1.028699 0.000000 -1.000000 -0.000000 1.000000 -0.000000 0.000000 25.750000 -1.187500 0 0 0 0 0.000000 0.000000 0.000000 0.000000
3.848100 -3.924300 0.914399 0.000000 -1.000000 -0.000000 1.000000 0.000000 -0.000000 25.000000 -1.000000 0 0 0 0 0.000000 0.000000 0.000000 0.000000
3.810000 -3.924300 0.952499 0.000000 -1.000000 -0.000000 1.000000 -0.000000 0.000000 24.750000 -1.062500 0 0 0 0 0.000000 0.000000 0.000000 0.000000
3.848100 -3.676650 0.914399 0.707107 0.000000 -0.707106 0.707106 -0.000002 0.707107 6.125000 6.000000 0 0 0 0 0.000000 0.000000 0.000000 0.000000
3.848100 -3.924300 0.914399 0.707107 0.000000 -0.707106 0.707106 -0.000002 0.707107 6.125000 6.406250 0 0 0 0 0.000000 0.000000 0.000000 0.000000
3.962400 -3.924300 1.028699 0.707107 0.000000 -0.707106 0.707106 -0.000002 0.707107 6.875000 6.406250 0 0 0 0 0.000000 0.000000 0.000000 0.000000
3.962400 -3.676650 1.028699 0.707107 0.000000 -0.707106 0.707106 -0.000002 0.707107 6.875000 6.000000 0 0 0 0 0.000000 0.000000 0.000000 0.000000
3.924300 -3.676650 1.066799 0.707108 -0.000000 0.707105 -0.707105 -0.000000 0.707108 6.750000 6.000000 0 0 0 0 0.000000 0.000000 0.000000 0.000000
3.962400 -3.676650 1.028699 0.707108 -0.000000 0.707105 -0.707105 -0.000000 0.707108 6.500000 6.000000 0 0 0 0 0.000000 0.000000 0.000000 0.000000
3.962400 -3.924300 1.028699 0.707108 -0.000000 0.707105 -0.707105 -0.000000 0.707108 6.500000 6.406250 0 0 0 0 0.000000 0.000000 0.000000 0.000000
3.924300 -3.924300 1.066799 0.707108 -0.000000 0.707105 -0.707105 -0.000000 0.707108 6.750000 6.406250 0 0 0 0 0.000000 0.000000 0.000000 0.000000
3.810000 -3.676650 0.952499 -0.707106 0.000000 -0.707107 -0.707107 -0.000006 0.707106 6.000000 6.000000 0 0 0 0 0.000000 0.000000 0.000000 0.000000
3.810000 -3.924300 0.952499 -0.707106 0.000000 -0.707107 -0.707107 -0.000006 0.707106 6.000000 6.406250 0 0 0 0 0.000000 0.000000 0.000000 0.000000
3.848100 -3.924300 0.914399 -0.707106 0.000000 -0.707107 -0.707107 -0.000006 0.707106 5.750000 6.406250 0 0 0 0 0.000000 0.000000 0.000000 0.000000
3.848100 -3.676650 0.914399 -0.707106 0.000000 -0.707107 -0.707107 -0.000006 0.707106 5.750000 6.000000 0 0 0 0 0.000000 0.000000 0.000000 0.000000
3.905250 -3.676650 1.047750 0.000000 -0.000000 1.000000 0.000000 1.000000 0.000000 -26.430557 6.406250 0 0 0 0 0.000000 0.000000 0.000000 0.000000
3.905250 -3.657600 1.047750 0.000000 -0.000000 1.000000 0.000000 1.000000 0.000000 -26.291668 6.406250 0 0 0 0 0.000000 0.000000 0.000000 0.000000
4.076700 -3.657600 1.047750 0.000000 -0.000000 1.000000 0.000000 1.000000 0.000000 -26.291668 6.687500 0 0 0 0 0.000000 0.000000 0.000000 0.000000
4.076700 -3.676650 1.047750 0.000000 -0.000000 1.000000 0.000000 1.000000 0.000000 -26.430557 6.687500 0 0 0 0 0.000000 0.000000 0.000000 0.000000
4.076700 -3.676650 1.047750 1.000000 0.000000 0.000000 0.000000 1.000000 0.000000 -26.430557 2.437500 0 0 0 0 0.000000 0.000000 0.000000 0.000000
4.076700 -3.657600 1.047750 1.000000 0.000000 0.000000 0.000000 1.000000 0.000000 -26.291668 2.437500 0 0 0 0 0.000000 0.000000 0.000000 0.000000
4.076700 -3.657600 0.742950 1.000000 0.000000 0.000000 0.000000 1.000000 0.000000 -26.291668 1.937500 0 0 0 0 0.000000 0.000000 0.000000 0.000000
4.076700 -3.676650 0.742950 1.000000 0.000000 0.000000 0.000000 1.000000 0.000000 -26.430557 1.937500 0 0 0 0 0.000000 0.000000 0.000000 0.000000
4.076700 -3.676650 0.742950 0.000000 0.000000 -1.000000 0.000000 1.000000 0.000000 -26.430557 6.687500 0 0 0 0 0.000000 0.000000 0.000000 0.000000
4.076700 -3.657600 0.742950 0.000000 0.000000 -1.000000 0.000000 1.000000 0.000000 -26.291668 6.687500 0 0 0 0 0.000000 0.000000 0.000000 0.000000
3.905250 -3.657600 0.742950 0.000000 0.000000 -1.000000 0.000000 1.000000 0.000000 -26.291668 6.406250 0 0 0 0 0.000000 0.000000 0.000000 0.000000
3.905250 -3.676650 0.742950 0.000000 0.000000 -1.000000 0.000000 1.000000 0.000000 -26.430557 6.406250 0 0 0 0 0.000000 0.000000 0.000000 0.000000
3.905250 -3.676650 0.742950 -1.000000 0.000000 0.000000 0.000000 1.000000 0.000000 -26.430557 1.937500 0 0 0 0 0.000000 0.000000 0.000000 0.000000
3.905250 -3.657600 0.742950 -1.000000 0.000000 0.000000 0.000000 1.000000 0.000000 -26.291668 1.937500 0 0 0 0 0.000000 0.000000 0.000000 0.000000
3.905250 -3.657600 1.047750 -1.000000 0.000000 0.000000 0.000000 1.000000 0.000000 -26.291668 2.437500 0 0 0 0 0.000000 0.000000 0.000000 0.000000
3.905250 -3.676650 1.047750 -1.000000 0.000000 0.000000 0.000000 1.000000 0.000000 -26.430557 2.437500 0 0 0 0 0.000000 0.000000 0.000000 0.000000
4.191000 -3.657600 0.895349 0.000000 -0.000000 1.000000 1.000000 0.000015 0.000000 13.437500 2.937500 0 0 0 0 0.000000 0.000000 0.000000 0.000000
4.191000 -3.962400 0.895349 0.000000 -0.000000 1.000000 1.000000 0.000015 0.000000 13.437500 3.187500 0 0 0 0 0.000000 0.000000 0.000000 0.000000
4.171950 -3.943350 0.895349 0.000000 -0.000000 1.000000 1.000000 0.000017 0.000000 13.375000 3.171875 0 0 0 0 0.000000 0.000000 0.000000 0.000000
4.171950 -3.676650 0.895349 0.000000 -0.000000 1.000000 1.000000 0.000015 0.000000 13.375000 2.953125 0 0 0 0 0.000000 0.000000 0.000000 0.000000
3.981450 -3.676650 0.704849 -1.000000 0.000000 0.000000 0.000000 -0.000015 1.000000 2.312500 2.953125 0 0 0 0 0.000000 0.000000 0.000000 0.000000
3.981450 -3.943350 0.704849 -1.000000 0.000000 0.000000 0.000000 -0.000015 1.000000 2.312500 3.171875 0 0 0 0 0.000000 0.000000 0.000000 0.000000
3.981450 -3.962400 0.685799 -1.000000 0.000000 0.000000 0.000000 -0.000017 1.000000 2.250000 3.187500 0 0 0 0 0.000000 0.000000 0.000000 0.000000
3.981450 -3.657600 0.685799 -1.000000 0.000000 0.000000 0.000000 -0.000015 1.000000 2.250000 2.937500 0 0 0 0 0.000000 0.000000 0.000000 0.000000
3.981450 -3.943350 0.704849 -0.577351 -0.577353 0.577347 0.707110 -0.707104 0.000003 12.750000 -0.593750 0 0 0 0 0.000000 0.000000 0.000000 0.000000
4.171950 -3.943350 0.895349 -0.577351 -0.577353 0.577347 0.707110 -0.707104 0.000003 13.375000 -0.750000 0 0 0 0 0.000000 0.000000 0.000000 0.000000
4.191000 -3.962400 0.895349 -0.577351 -0.577353 0.577347 0.707112 -0.707102 0.000007 13.437500 -0.750000 0 0 0 0 0.000000 0.000000 0.000000 0.000000
3.981450 -3.962400 0.685799 -0.577351 -0.577353 0.577347 0.707110 -0.707104 0.000003 12.750000 -0.578125 0 0 0 0 0.000000 0.000000 0.000000 0.000000
3.981450 -3.657600 0.685799 -0.577348 0.577350 0.577353 0.707106 0.707108 -0.000004 12.750000 -0.578125 0 0 0 0 0.000000 0.000000 0.000000 0.000000
4.191000 -3.657600 0.895349 -0.577348 0.577350 0.577353 0.707106 0.707108 -0.000004 13.437500 -0.750000 0 0 0 0 0.000000 0.000000 0.000000 0.000000
4.171950 -3.676650 0.895349 -0.577348 0.577350 0.577353 0.707108 0.707106 -0.000001 13.375000 -0.750000 0 0 0 0 0.000000 0.000000 0.000000 0.000000
3.981450 -3.676650 0.704849 -0.577348 0.577350 0.577353 0.707106 0.707108 -0.000004 12.750000 -0.593750 0 0 0 0 0.000000 0.000000 0.000000 0.000000
3.981450 -3.657600 0.685799 0.707107 0.000000 -0.707106 0.707106 -0.000000 0.707107 2.250000 2.937500 0 0 0 0 0.000000 0.000000 0.000000 0.000000
3.981450 -3.962400 0.685799 0.707107 0.000000 -0.707106 0.707106 -0.000000 0.707107 2.250000 3.187500 0 0 0 0 0.000000 0.000000 0.000000 0.000000
4.191000 -3.962400 0.895349 0.707107 0.000000 -0.707106 0.707106 -0.000000 0.707107 2.937500 3.187500 0 0 0 0 0.000000 0.000000 0.000000 0.000000
4.191000 -3.657600 0.895349 0.707107 0.000000 -0.707106 0.707106 -0.000000 0.707107 2.937500 2.937500 0 0 0 0 0.000000 0.000000 0.000000 0.000000
IndexCount: 114
3 1 0
3 2 1
7 5 4
7 6 5
11 9 8
11 10 9
15 13 12
15 14 13
19 17 16
19 18 17
23 21 20
23 22 21
27 25 24
27 26 25
31 29 28
31 30 29
35 33 32
35 34 33
39 37 36
39 38 37
43 41 40
43 42 41
47 45 44
47 46 45
51 49 48
51 50 49
55 53 52
55 54 53
59 57 56
59 58 57
63 61 60
63 62 61
67 65 64
67 66 65
71 69 68
71 70 69
75 73 72
75 74 73