VertexCount: 177
4.267199 -0.495301 9.753600 -1.000000 -0.000000 -0.000000 -0.000000 -0.000000 1.000000 4.000000 0.162500 0 0 0 0 0.000000 0.000000 0.000000 0.000000
4.267199 0.914399 9.753600 -1.000000 -0.000000 -0.000000 -0.000000 -0.000000 1.000000 4.000000 -0.300000 0 0 0 0 0.000000 0.000000 0.000000 0.000000
4.267199 0.914399 10.210800 -1.000000 -0.000000 -0.000000 -0.000000 -0.000000 1.000000 4.187500 -0.300000 0 0 0 0 0.000000 0.000000 0.000000 0.000000
4.267199 -0.495301 10.210800 -1.000000 -0.000000 -0.000000 -0.000000 -0.000000 1.000000 4.187500 0.162500 0 0 0 0 0.000000 0.000000 0.000000 0.000000
4.267199 -0.723901 9.753600 -1.000000 -0.000000 -0.000000 -0.000000 -0.000001 1.000000 4.000000 0.237500 0 0 0 0 0.000000 0.000000 0.000000 0.000000
4.267199 -0.723901 10.210800 -1.000000 -0.000000 -0.000000 -0.000000 -0.000001 1.000000 4.187500 0.237500 0 0 0 0 0.000000 0.000000 0.000000 0.000000
4.267200 -3.352801 10.210800 -1.000000 -0.000000 -0.000000 -0.000000 -0.000000 1.000000 4.187500 1.100000 0 0 0 0 0.000000 0.000000 0.000000 0.000000
4.267200 -4.572001 10.210800 -1.000000 -0.000000 -0.000000 -0.000000 -0.000001 1.000000 4.187500 1.500000 0 0 0 0 0.000000 0.000000 0.000000 0.000000
4.267200 -4.572001 9.753599 -1.000000 -0.000000 -0.000000 -0.000000 -0.000000 1.000000 4.000000 1.500000 0 0 0 0 0.000000 0.000000 0.000000 0.000000
4.267200 -3.352801 9.753599 -1.000000 -0.000000 -0.000000 0.000000 -1.000000 -0.000000 4.000000 1.100000 0 0 0 0 0.000000 0.000000 0.000000 0.000000
4.267200 -3.352801 8.458200 -1.000000 -0.000000 -0.000000 -0.000000 -0.000000 1.000000 3.468750 1.100000 0 0 0 0 0.000000 0.000000 0.000000 0.000000
4.267200 -3.352801 9.753599 -1.000000 -0.000000 -0.000000 -0.000000 -0.000000 1.000000 4.000000 1.100000 0 0 0 0 0.000000 0.000000 0.000000 0.000000
4.267200 -4.572001 8.458200 -1.000000 -0.000000 -0.000000 -0.000000 -0.000000 1.000000 3.468750 1.500000 0 0 0 0 0.000000 0.000000 0.000000 0.000000
4.267200 0.914399 8.458201 -1.000000 -0.000000 -0.000000 -0.000000 -0.000000 1.000000 3.468750 -0.300000 0 0 0 0 0.000000 0.000000 0.000000 0.000000
4.267200 -3.352801 11.429999 -1.000000 -0.000000 -0.000000 -0.000001 -0.000000 1.000000 4.687500 1.100000 0 0 0 0 0.000000 0.000000 0.000000 0.000000
4.267200 -4.572001 11.429998 -1.000000 -0.000000 -0.000000 -0.000001 -0.000000 1.000000 4.687500 1.500000 0 0 0 0 0.000000 0.000000 0.000000 0.000000
4.267199 0.914398 11.429999 -1.000000 -0.000000 -0.000000 -0.000000 -0.000000 1.000000 4.687500 -0.300000 0 0 0 0 0.000000 0.000000 0.000000 0.000000
4.267199 -1.143002 11.429999 -1.000000 -0.000000 -0.000000 -0.000000 -0.000000 1.000000 4.687500 0.375000 0 0 0 0 0.000000 0.000000 0.000000 0.000000
4.267199 -1.295402 11.429999 -1.000000 -0.000000 -0.000000 -0.000001 -0.000002 1.000000 4.687500 0.425000 0 0 0 0 0.000000 0.000000 0.000000 0.000000
4.267199 -1.524002 11.582399 -1.000000 -0.000000 -0.000002 -0.000002 -0.000001 1.000000 4.750000 0.500000 0 0 0 0 0.000000 0.000000 0.000000 0.000000
4.267200 -4.572001 11.582398 -1.000000 -0.000000 -0.000002 -0.000002 -0.000001 1.000000 4.750000 1.500000 0 0 0 0 0.000000 0.000000 0.000000 0.000000
4.267199 0.914398 11.582399 -1.000000 -0.000000 -0.000000 -0.000000 -0.000000 1.000000 4.750000 -0.300000 0 0 0 0 0.000000 0.000000 0.000000 0.000000
4.267199 -1.143002 11.582399 -1.000000 -0.000000 -0.000000 -0.000000 -0.000000 1.000000 4.750000 0.375000 0 0 0 0 0.000000 0.000000 0.000000 0.000000
4.267200 0.914399 8.458201 0.000000 -1.000000 -0.000000 1.000000 0.000000 -0.000000 1.750000 -2.775000 0 0 0 0 0.000000 0.000000 0.000000 0.000000
3.657599 0.914399 8.458201 0.000000 -1.000000 -0.000000 1.000000 0.000000 -0.000000 1.500000 -2.775000 0 0 0 0 0.000000 0.000000 0.000000 0.000000
2.666999 0.914399 8.458200 0.000000 -1.000000 -0.000000 1.000000 0.000000 0.000000 1.093750 -2.775000 0 0 0 0 0.000000 0.000000 0.000000 0.000000
2.666999 0.914398 11.582399 0.000000 -1.000000 -0.000000 1.000000 0.000000 0.000000 1.093750 -3.800000 0 0 0 0 0.000000 0.000000 0.000000 0.000000
4.267199 0.914398 11.582399 0.000000 -1.000000 -0.000000 1.000000 0.000000 -0.000000 1.750000 -3.800000 0 0 0 0 0.000000 0.000000 0.000000 0.000000
4.267199 0.914398 11.429999 0.000000 -1.000000 -0.000000 -0.000000 -0.000000 1.000000 1.750000 -3.750000 0 0 0 0 0.000000 0.000000 0.000000 0.000000
4.267199 0.914399 10.210800 0.000000 -1.000000 -0.000000 -0.000000 -0.000000 1.000000 1.750000 -3.350000 0 0 0 0 0.000000 0.000000 0.000000 0.000000
4.267199 0.914399 9.753600 0.000000 -1.000000 -0.000000 1.000000 0.000000 -0.000000 1.750000 -3.200000 0 0 0 0 0.000000 0.000000 0.000000 0.000000
2.666999 0.914399 7.315199 0.000000 -1.000000 -0.000000 1.000000 0.000000 0.000000 1.093750 -2.400000 0 0 0 0 0.000000 0.000000 0.000000 0.000000
2.666999 0.914399 7.543800 0.000000 -1.000000 -0.000000 1.000000 0.000000 0.000000 1.093750 -2.475000 0 0 0 0 0.000000 0.000000 0.000000 0.000000
3.657599 0.914399 7.543800 0.000000 -1.000000 -0.000000 1.000000 0.000000 0.000001 1.500000 -2.475000 0 0 0 0 0.000000 0.000000 0.000000 0.000000
4.267200 0.914399 7.543800 0.000000 -1.000000 -0.000000 1.000000 0.000000 -0.000000 1.750000 -2.475000 0 0 0 0 0.000000 0.000000 0.000000 0.000000
4.267200 0.914399 7.315200 0.000000 -1.000000 -0.000000 1.000000 0.000000 0.000000 1.750000 -2.400000 0 0 0 0 0.000000 0.000000 0.000000 0.000000
4.267199 -1.143002 11.582399 -0.000000 1.000000 0.000000 1.000000 0.000000 -0.000000 1.750000 -3.800000 0 0 0 0 0.000000 0.000000 0.000000 0.000000
2.666999 -1.143002 11.582399 -0.000000 1.000000 0.000000 1.000000 0.000000 -0.000000 1.093750 -3.800000 0 0 0 0 0.000000 0.000000 0.000000 0.000000
2.666999 -1.143002 11.429999 -0.000000 1.000000 0.000000 1.000000 0.000000 0.000000 1.093750 -3.750000 0 0 0 0 0.000000 0.000000 0.000000 0.000000
4.267199 -1.143002 11.429999 -0.000000 1.000000 0.000000 1.000000 0.000000 -0.000000 1.750000 -3.750000 0 0 0 0 0.000000 0.000000 0.000000 0.000000
2.666999 -1.143002 11.429999 0.000000 0.000000 -1.000000 1.000000 0.000000 0.000000 1.093750 0.375000 0 0 0 0 0.000000 0.000000 0.000000 0.000000
2.666999 -1.295402 11.429999 0.000000 0.000000 -1.000000 1.000000 0.000000 0.000000 1.093750 0.425000 0 0 0 0 0.000000 0.000000 0.000000 0.000000
4.267199 -1.295402 11.429999 0.000000 0.000000 -1.000000 1.000000 0.000000 0.000000 1.750000 0.425000 0 0 0 0 0.000000 0.000000 0.000000 0.000000
4.267199 -1.143002 11.429999 0.000000 0.000000 -1.000000 1.000000 0.000000 0.000000 1.750000 0.375000 0 0 0 0 0.000000 0.000000 0.000000 0.000000
4.267199 -1.295402 11.429999 0.000000 -0.554702 -0.832049 1.000000 0.000000 0.000000 1.750000 0.425000 0 0 0 0 0.000000 0.000000 0.000000 0.000000
2.666999 -1.295402 11.429999 0.000000 -0.554702 -0.832049 1.000000 0.000000 0.000000 1.093750 0.425000 0 0 0 0 0.000000 0.000000 0.000000 0.000000
2.666999 -1.524002 11.582399 0.000000 -0.554702 -0.832049 1.000000 0.000000 0.000000 1.093750 0.500000 0 0 0 0 0.000000 0.000000 0.000000 0.000000
4.267199 -1.524002 11.582399 0.000000 -0.554702 -0.832049 1.000000 0.000000 0.000000 1.750000 0.500000 0 0 0 0 0.000000 0.000000 0.000000 0.000000
4.267200 -3.657599 1.219200 -1.000000 -0.000000 -0.000000 0.000000 0.000000 1.000000 0.500000 1.200000 0 0 0 0 0.000000 0.000000 0.000000 0.000000
4.267200 -3.657599 1.276350 -1.000000 -0.000000 -0.000000 -0.000000 -0.000000 1.000000 0.523438 1.200000 0 0 0 0 0.000000 0.000000 0.000000 0.000000
4.267200 -4.572000 1.276350 -1.000000 -0.000000 -0.000000 -0.000000 -0.000000 1.000000 0.523438 1.500000 0 0 0 0 0.000000 0.000000 0.000000 0.000000
4.267200 -4.572000 1.219200 -1.000000 -0.000000 -0.000000 -0.000000 -0.000000 1.000000 0.500000 1.500000 0 0 0 0 0.000000 0.000000 0.000000 0.000000
4.267200 -3.352800 1.276350 -1.000000 -0.000000 -0.000000 -0.000000 -0.000000 1.000000 0.523438 1.100000 0 0 0 0 0.000000 0.000000 0.000000 0.000000
4.267200 -3.352800 3.581400 -1.000000 -0.000000 -0.000000 -0.000000 -0.000000 1.000000 1.468750 1.100000 0 0 0 0 0.000000 0.000000 0.000000 0.000000
4.267200 -4.572001 3.581400 -1.000000 -0.000000 -0.000000 -0.000000 -0.000000 1.000000 1.468750 1.500000 0 0 0 0 0.000000 0.000000 0.000000 0.000000
4.267200 -4.572000 2.887408 -1.000000 -0.000000 -0.000000 -0.000000 -0.000000 1.000000 1.184141 1.500000 0 0 0 0 0.000000 0.000000 0.000000 0.000000
4.267200 -4.572000 1.371600 -1.000000 -0.000000 -0.000000 -0.000000 -0.000000 1.000000 0.562500 1.500000 0 0 0 0 0.000000 0.000000 0.000000 0.000000
4.267200 -3.657599 1.276350 -1.000000 -0.000000 -0.000000 0.000000 -1.000000 -0.000000 0.523438 1.200000 0 0 0 0 0.000000 0.000000 0.000000 0.000000
4.267200 0.914400 1.276350 -1.000000 -0.000000 -0.000000 -0.000000 -0.000000 1.000000 0.523438 -0.300000 0 0 0 0 0.000000 0.000000 0.000000 0.000000
4.267200 0.914400 3.581400 -1.000000 -0.000000 -0.000000 -0.000000 0.000000 1.000000 1.468750 -0.300000 0 0 0 0 0.000000 0.000000 0.000000 0.000000
4.267200 0.914400 1.276350 -1.000000 -0.000000 0.000000 -0.000000 1.000000 0.000000 0.523438 -0.300000 0 0 0 0 0.000000 0.000000 0.000000 0.000000
4.267200 -3.352800 1.276350 -1.000000 -0.000000 0.000000 -0.000000 1.000000 0.000000 0.523438 1.100000 0 0 0 0 0.000000 0.000000 0.000000 0.000000
4.267200 -3.657599 1.276350 -1.000000 -0.000000 0.000000 -0.000000 1.000000 0.000000 0.523438 1.200000 0 0 0 0 0.000000 0.000000 0.000000 0.000000
4.267200 -3.657599 1.066800 -1.000000 -0.000000 0.000000 0.000000 0.000000 1.000000 0.437500 1.200000 0 0 0 0 0.000000 0.000000 0.000000 0.000000
4.267200 -3.657599 0.990600 -1.000000 -0.000000 0.000000 0.000000 0.000000 1.000000 0.406250 1.200000 0 0 0 0 0.000000 0.000000 0.000000 0.000000
4.267200 -3.657599 0.971550 -1.000000 -0.000000 0.000000 0.000000 0.000000 1.000000 0.398438 1.200000 0 0 0 0 0.000000 0.000000 0.000000 0.000000
4.267200 -3.657599 0.762000 -1.000000 -0.000000 0.000000 0.000000 0.000000 1.000000 0.312500 1.200000 0 0 0 0 0.000000 0.000000 0.000000 0.000000
4.267200 -1.295400 0.762000 -1.000000 -0.000000 0.000000 0.000000 0.000001 1.000000 0.312500 0.425000 0 0 0 0 0.000000 0.000000 0.000000 0.000000
4.267200 -1.143000 0.762000 -1.000000 -0.000000 0.000000 0.000000 -0.000000 1.000000 0.312500 0.375000 0 0 0 0 0.000000 0.000000 0.000000 0.000000
4.267200 0.914400 0.762001 -1.000000 -0.000000 0.000000 0.000000 -0.000000 1.000000 0.312500 -0.300000 0 0 0 0 0.000000 0.000000 0.000000 0.000000
4.267200 -3.657599 0.609600 -1.000000 -0.000000 -0.000000 -0.000000 -0.000000 1.000000 0.250000 1.200000 0 0 0 0 0.000000 0.000000 0.000000 0.000000
4.267200 -1.524000 0.609600 -1.000000 -0.000000 -0.000000 -0.000000 0.000000 1.000000 0.250000 0.500000 0 0 0 0 0.000000 0.000000 0.000000 0.000000
4.267200 -1.143000 0.609600 -1.000000 -0.000000 -0.000000 -0.000000 -0.000001 1.000000 0.250000 0.375000 0 0 0 0 0.000000 0.000000 0.000000 0.000000
4.267200 0.914400 0.609600 -1.000000 -0.000000 -0.000000 -0.000000 -0.000001 1.000000 0.250000 -0.300000 0 0 0 0 0.000000 0.000000 0.000000 0.000000
4.267200 0.914400 4.495800 0.000000 -1.000000 -0.000000 1.000000 0.000000 0.000000 1.750000 -1.475000 0 0 0 0 0.000000 0.000000 0.000000 0.000000
3.657599 0.914400 4.495800 0.000000 -1.000000 -0.000000 1.000000 0.000000 0.000000 1.500000 -1.475000 0 0 0 0 0.000000 0.000000 0.000000 0.000000
2.667000 0.914399 4.495800 0.000000 -1.000000 -0.000000 1.000000 0.000000 0.000000 1.093750 -1.475000 0 0 0 0 0.000000 0.000000 0.000000 0.000000
2.666999 0.914399 7.296150 0.000000 -1.000000 -0.000000 0.000000 0.000000 -1.000000 1.093750 -2.393750 0 0 0 0 0.000000 0.000000 0.000000 0.000000
2.667000 0.914400 3.581400 0.000000 -1.000000 -0.000000 -1.000000 -0.000000 -0.000000 1.093750 -1.175000 0 0 0 0 0.000000 0.000000 0.000000 0.000000
3.657599 0.914400 3.581400 0.000000 -1.000000 -0.000000 -1.000000 -0.000000 -0.000000 1.500000 -1.175000 0 0 0 0 0.000000 0.000000 0.000000 0.000000
4.267200 0.914400 3.581400 0.000000 -1.000000 -0.000000 -1.000000 -0.000000 -0.000000 1.750000 -1.175000 0 0 0 0 0.000000 0.000000 0.000000 0.000000
4.267200 0.914400 1.276350 0.000000 -1.000000 -0.000000 1.000000 0.000000 0.000000 1.750000 -0.418750 0 0 0 0 0.000000 0.000000 0.000000 0.000000
4.267200 0.914400 0.762001 0.000000 -1.000000 -0.000000 1.000000 0.000000 -0.000000 1.750000 -0.250000 0 0 0 0 0.000000 0.000000 0.000000 0.000000
4.267200 0.914400 0.609600 0.000000 -1.000000 -0.000000 1.000000 0.000000 0.000000 1.750000 -0.200000 0 0 0 0 0.000000 0.000000 0.000000 0.000000
2.667000 0.914400 0.609600 0.000000 -1.000000 -0.000000 1.000000 0.000000 -0.000000 1.093750 -0.200000 0 0 0 0 0.000000 0.000000 0.000000 0.000000
-0.609601 0.914399 7.296150 0.000000 -1.000000 -0.000000 1.000000 0.000000 0.000000 -0.250000 -2.393750 0 0 0 0 0.000000 0.000000 0.000000 0.000000
-0.609601 0.914399 7.543800 0.000000 -1.000000 -0.000000 1.000000 0.000000 0.000000 -0.250000 -2.475000 0 0 0 0 0.000000 0.000000 0.000000 0.000000
2.666999 0.914399 7.296150 0.000000 -1.000000 -0.000000 1.000000 0.000000 0.000000 1.093750 -2.393750 0 0 0 0 0.000000 0.000000 0.000000 0.000000
-4.876801 0.914398 7.296149 0.000000 -1.000000 -0.000000 1.000000 0.000000 0.000000 -2.000000 -2.393750 0 0 0 0 0.000000 0.000000 0.000000 0.000000
-4.876801 0.914398 7.543799 0.000000 -1.000000 -0.000000 1.000000 0.000000 0.000000 -2.000000 -2.475000 0 0 0 0 0.000000 0.000000 0.000000 0.000000
-0.609601 0.914398 8.458200 0.000000 -1.000000 -0.000000 1.000000 0.000000 -0.000000 -0.250000 -2.775000 0 0 0 0 0.000000 0.000000 0.000000 0.000000
-0.914401 0.914398 8.458200 0.000000 -1.000000 -0.000000 1.000000 0.000000 0.000000 -0.375000 -2.775000 0 0 0 0 0.000000 0.000000 0.000000 0.000000
-0.914401 0.914398 11.582399 0.000000 -1.000000 -0.000000 1.000000 0.000000 -0.000000 -0.375000 -3.800000 0 0 0 0 0.000000 0.000000 0.000000 0.000000
-0.914401 0.914398 8.458200 0.000000 -1.000000 -0.000000 1.000000 0.000000 0.000000 -0.375000 -2.775000 0 0 0 0 0.000000 0.000000 0.000000 0.000000
-4.876801 0.914398 8.458200 0.000000 -1.000000 -0.000000 1.000000 0.000000 0.000000 -2.000000 -2.775000 0 0 0 0 0.000000 0.000000 0.000000 0.000000
-5.181601 0.914398 8.458200 0.000000 -1.000000 -0.000000 1.000000 0.000000 0.000000 -2.125000 -2.775000 0 0 0 0 0.000000 0.000000 0.000000 0.000000
-5.181602 0.914398 11.582399 0.000000 -1.000000 -0.000000 1.000000 0.000000 0.000000 -2.125000 -3.800000 0 0 0 0 0.000000 0.000000 0.000000 0.000000
-0.914401 -1.143002 11.429999 0.000000 0.000000 -1.000000 1.000000 0.000000 0.000000 -0.375000 0.375000 0 0 0 0 0.000000 0.000000 0.000000 0.000000
-0.914401 -1.295402 11.429999 0.000000 0.000000 -1.000000 1.000000 0.000000 0.000000 -0.375000 0.425000 0 0 0 0 0.000000 0.000000 0.000000 0.000000
-5.181602 -1.143002 11.429999 0.000000 0.000000 -1.000000 1.000000 0.000000 0.000000 -2.125000 0.375000 0 0 0 0 0.000000 0.000000 0.000000 0.000000
-5.181602 -1.295402 11.429999 0.000000 0.000000 -1.000000 1.000000 0.000000 0.000000 -2.125000 0.425000 0 0 0 0 0.000000 0.000000 0.000000 0.000000
-0.914401 -1.143002 11.582399 -0.000000 1.000000 0.000000 1.000000 0.000000 0.000000 -0.375000 -3.800000 0 0 0 0 0.000000 0.000000 0.000000 0.000000
-0.914401 -1.143002 11.429999 -0.000000 1.000000 0.000000 1.000000 0.000000 0.000000 -0.375000 -3.750000 0 0 0 0 0.000000 0.000000 0.000000 0.000000
-5.181602 -1.143002 11.582399 -0.000000 1.000000 0.000000 1.000000 0.000000 -0.000000 -2.125000 -3.800000 0 0 0 0 0.000000 0.000000 0.000000 0.000000
-5.181602 -1.143002 11.429999 -0.000000 1.000000 0.000000 1.000000 0.000000 -0.000000 -2.125000 -3.750000 0 0 0 0 0.000000 0.000000 0.000000 0.000000
-0.914401 -1.295402 11.429999 0.000000 -0.554701 -0.832050 1.000000 0.000000 0.000000 -0.375000 0.425000 0 0 0 0 0.000000 0.000000 0.000000 0.000000
-0.914401 -1.524002 11.582399 0.000000 -0.554701 -0.832050 1.000000 0.000000 0.000000 -0.375000 0.500000 0 0 0 0 0.000000 0.000000 0.000000 0.000000
-0.304801 -1.524002 11.582399 0.000000 -0.554701 -0.832050 1.000000 0.000000 0.000000 -0.125000 0.500000 0 0 0 0 0.000000 0.000000 0.000000 0.000000
0.685799 -1.524002 11.582399 0.000000 -0.554701 -0.832050 1.000000 0.000000 0.000000 0.281250 0.500000 0 0 0 0 0.000000 0.000000 0.000000 0.000000
-5.181602 -1.295402 11.429999 0.000000 -0.554700 -0.832050 1.000000 0.000000 0.000000 -2.125000 0.425000 0 0 0 0 0.000000 0.000000 0.000000 0.000000
-5.181602 -1.524002 11.582399 0.000000 -0.554700 -0.832050 1.000000 0.000000 0.000000 -2.125000 0.500000 0 0 0 0 0.000000 0.000000 0.000000 0.000000
-0.609600 0.914399 4.495800 0.000000 -1.000000 -0.000000 1.000000 0.000000 0.000000 -0.250000 -1.475000 0 0 0 0 0.000000 0.000000 0.000000 0.000000
-4.876800 0.914399 4.495800 0.000000 -1.000000 -0.000000 1.000000 0.000000 0.000000 -2.000000 -1.475000 0 0 0 0 0.000000 0.000000 0.000000 0.000000
-0.914400 0.914399 3.581400 0.000000 -1.000000 -0.000000 1.000000 0.000000 0.000000 -0.375000 -1.175000 0 0 0 0 0.000000 0.000000 0.000000 0.000000
-0.609600 0.914399 3.581400 0.000000 -1.000000 -0.000000 1.000000 0.000000 -0.000000 -0.250000 -1.175000 0 0 0 0 0.000000 0.000000 0.000000 0.000000
2.667000 0.914400 3.581400 0.000000 -1.000000 -0.000000 1.000000 0.000000 0.000000 1.093750 -1.175000 0 0 0 0 0.000000 0.000000 0.000000 0.000000
-0.914400 0.914400 0.609600 0.000000 -1.000000 -0.000000 1.000000 0.000000 0.000000 -0.375000 -0.200000 0 0 0 0 0.000000 0.000000 0.000000 0.000000
-5.181600 0.914399 0.609600 0.000000 -1.000000 -0.000000 1.000000 0.000000 0.000000 -2.125000 -0.200000 0 0 0 0 0.000000 0.000000 0.000000 0.000000
-5.181600 0.914399 0.762000 0.000000 -1.000000 -0.000000 1.000000 0.000000 -0.000020 -2.125000 -0.250000 0 0 0 0 0.000000 0.000000 0.000000 0.000000
-5.181601 0.914399 3.581400 0.000000 -1.000000 -0.000000 1.000000 0.000000 -0.000000 -2.125000 -1.175000 0 0 0 0 0.000000 0.000000 0.000000 0.000000
-4.876800 0.914399 3.581400 0.000000 -1.000000 -0.000000 1.000000 0.000000 0.000000 -2.000000 -1.175000 0 0 0 0 0.000000 0.000000 0.000000 0.000000
-23.164799 0.914397 8.077198 1.000000 0.000000 0.000000 -0.000000 -0.000000 1.000000 3.312500 -0.800000 0 0 0 0 0.000000 0.000000 0.000000 0.000000
-23.164799 -1.524003 8.077198 1.000000 0.000000 0.000000 -0.000000 -0.000000 1.000000 3.312500 0.000000 0 0 0 0 0.000000 0.000000 0.000000 0.000000
-23.164799 -1.524004 11.582397 1.000000 0.000000 0.000000 -0.000000 -0.000000 1.000000 4.750000 0.000000 0 0 0 0 0.000000 0.000000 0.000000 0.000000
-23.164799 0.914396 11.582397 1.000000 0.000000 0.000000 -0.000000 -0.000000 1.000000 4.750000 -0.800000 0 0 0 0 0.000000 0.000000 0.000000 0.000000
-23.164799 -1.524002 0.723898 1.000000 0.000000 0.000000 -0.000000 -0.000000 1.000000 0.296875 0.000000 0 0 0 0 0.000000 0.000000 0.000000 0.000000
-23.164799 -1.524003 4.114798 1.000000 0.000000 0.000000 -0.000000 -0.000000 1.000000 1.687500 0.000000 0 0 0 0 0.000000 0.000000 0.000000 0.000000
-23.164799 0.914397 4.114798 1.000000 0.000000 0.000000 -0.000000 -0.000000 1.000000 1.687500 -0.800000 0 0 0 0 0.000000 0.000000 0.000000 0.000000
-23.164799 0.914398 0.723898 1.000000 0.000000 0.000000 -0.000000 -0.000000 1.000000 0.296875 -0.800000 0 0 0 0 0.000000 0.000000 0.000000 0.000000
-23.164799 -1.524001 -3.543303 1.000000 0.000000 0.000000 -0.000000 -0.000000 1.000000 -1.453125 0.000000 0 0 0 0 0.000000 0.000000 0.000000 0.000000
-23.164799 0.914398 -0.152402 1.000000 0.000000 0.000000 -0.000000 -0.000000 1.000000 -0.062500 -0.800000 0 0 0 0 0.000000 0.000000 0.000000 0.000000
-23.164799 0.914398 -3.543302 1.000000 0.000000 0.000000 -0.000000 -0.000000 1.000000 -1.453125 -0.800000 0 0 0 0 0.000000 0.000000 0.000000 0.000000
-27.889198 -1.524004 7.315197 0.000000 -1.000000 -0.000000 1.000000 0.000000 0.000000 -11.437500 -2.900000 0 0 0 0 0.000000 0.000000 0.000000 0.000000
-27.889198 -1.524004 7.772398 0.000000 -1.000000 -0.000000 1.000000 0.000000 0.000000 -11.437500 -3.050000 0 0 0 0 0.000000 0.000000 0.000000 0.000000
-24.231598 -1.524003 7.772398 0.000000 -1.000000 -0.000000 1.000000 0.000000 0.000000 -9.937500 -3.050000 0 0 0 0 0.000000 0.000000 0.000000 0.000000
-24.231598 -1.524003 7.696198 0.000000 -1.000000 -0.000000 1.000000 0.000000 0.000001 -9.937500 -3.025000 0 0 0 0 0.000000 0.000000 0.000000 0.000000
-24.231598 -1.524003 7.315197 0.000000 -1.000000 -0.000000 1.000000 0.000000 0.000000 -9.937500 -2.900000 0 0 0 0 0.000000 0.000000 0.000000 0.000000
-32.156399 -1.524004 7.315197 0.000000 -1.000000 -0.000000 1.000000 0.000000 0.000000 -13.187500 -2.900000 0 0 0 0 0.000000 0.000000 0.000000 0.000000
-32.156399 -1.524004 7.696197 0.000000 -1.000000 -0.000000 1.000000 0.000000 0.000000 -13.187500 -3.025000 0 0 0 0 0.000000 0.000000 0.000000 0.000000
-32.156399 -1.524004 7.772397 0.000000 -1.000000 -0.000000 1.000000 0.000000 -0.000000 -13.187500 -3.050000 0 0 0 0 0.000000 0.000000 0.000000 0.000000
-27.889198 -1.524003 4.419597 0.000000 -1.000000 -0.000000 1.000000 0.000000 0.000000 -11.437500 -1.950000 0 0 0 0 0.000000 0.000000 0.000000 0.000000
-24.231598 -1.524003 4.876797 0.000000 -1.000000 -0.000000 1.000000 0.000000 0.000000 -9.937500 -2.100000 0 0 0 0 0.000000 0.000000 0.000000 0.000000
-24.231598 -1.524003 4.495798 0.000000 -1.000000 -0.000000 1.000000 0.000000 0.000000 -9.937500 -1.975000 0 0 0 0 0.000000 0.000000 0.000000 0.000000
-24.231598 -1.524003 4.419597 0.000000 -1.000000 -0.000000 1.000000 0.000000 0.000000 -9.937500 -1.950000 0 0 0 0 0.000000 0.000000 0.000000 0.000000
-32.156399 -1.524004 4.419597 0.000000 -1.000000 -0.000000 1.000000 0.000000 0.000000 -13.187500 -1.950000 0 0 0 0 0.000000 0.000000 0.000000 0.000000
-32.156399 -1.524004 4.495797 0.000000 -1.000000 -0.000000 1.000000 0.000000 0.000000 -13.187500 -1.975000 0 0 0 0 0.000000 0.000000 0.000000 0.000000
-32.156399 -1.524004 4.876797 0.000000 -1.000000 -0.000000 1.000000 0.000000 -0.000000 -13.187500 -2.100000 0 0 0 0 0.000000 0.000000 0.000000 0.000000
-28.346401 -4.267203 4.419597 -0.000000 -0.000000 1.000000 1.000000 -0.000000 0.000000 -11.625000 0.900000 0 0 0 0 0.000000 0.000000 0.000000 0.000000
-28.346401 -4.833179 4.419597 -0.000000 -0.000000 1.000000 1.000000 -0.000000 0.000000 -11.625000 1.085688 0 0 0 0 0.000000 0.000000 0.000000 0.000000
-30.099001 -5.133787 4.419596 -0.000000 -0.000000 1.000000 1.000000 -0.000000 0.000000 -12.343750 1.184312 0 0 0 0 0.000000 0.000000 0.000000 0.000000
-32.156399 -5.486403 4.419596 -0.000000 -0.000000 1.000000 1.000000 0.000001 0.000000 -13.187500 1.300000 0 0 0 0 0.000000 0.000000 0.000000 0.000000
-32.156399 -4.267204 4.419597 -0.000000 -0.000000 1.000000 1.000000 0.000000 0.000000 -13.187500 0.900000 0 0 0 0 0.000000 0.000000 0.000000 0.000000
-26.822399 -4.267203 4.419597 -0.000000 -0.000000 1.000000 1.000000 0.000000 0.000000 -11.000000 0.900000 0 0 0 0 0.000000 0.000000 0.000000 0.000000
-26.822399 -4.572003 4.419597 -0.000000 -0.000000 1.000000 1.000000 0.000000 0.000000 -11.000000 1.000000 0 0 0 0 0.000000 0.000000 0.000000 0.000000
-27.889198 -4.267203 4.419597 -0.000000 -0.000000 1.000000 -1.000000 0.000000 -0.000000 -11.437500 0.900000 0 0 0 0 0.000000 0.000000 0.000000 0.000000
-24.231598 -4.267203 4.419597 -0.000000 -0.000000 1.000000 1.000000 0.000000 0.000000 -9.937500 0.900000 0 0 0 0 0.000000 0.000000 0.000000 0.000000
-24.231598 -4.572003 4.419597 -0.000000 -0.000000 1.000000 1.000000 0.000000 0.000000 -9.937500 1.000000 0 0 0 0 0.000000 0.000000 0.000000 0.000000
-27.889198 -3.810003 4.419597 -0.000000 -0.000000 1.000000 1.000000 0.000000 0.000000 -11.437500 0.750000 0 0 0 0 0.000000 0.000000 0.000000 0.000000
-27.889198 -1.524003 4.419597 -0.000000 -0.000000 1.000000 1.000000 0.000000 0.000000 -11.437500 0.000000 0 0 0 0 0.000000 0.000000 0.000000 0.000000
-24.231598 -1.524003 4.419597 -0.000000 -0.000000 1.000000 1.000000 0.000000 0.000000 -9.937500 0.000000 0 0 0 0 0.000000 0.000000 0.000000 0.000000
-24.231598 -3.810003 4.419597 -0.000000 -0.000000 1.000000 1.000000 0.000000 0.000000 -9.937500 0.750000 0 0 0 0 0.000000 0.000000 0.000000 0.000000
-32.156399 -3.810004 4.419597 -0.000000 -0.000000 1.000000 1.000000 0.000000 0.000000 -13.187500 0.750000 0 0 0 0 0.000000 0.000000 0.000000 0.000000
-32.156399 -1.524004 4.419597 -0.000000 -0.000000 1.000000 1.000000 0.000000 0.000000 -13.187500 0.000000 0 0 0 0 0.000000 0.000000 0.000000 0.000000
-23.164799 -1.524001 -4.876802 1.000000 0.000000 0.000000 -0.000000 -0.000000 1.000000 -2.000000 0.000000 0 0 0 0 0.000000 0.000000 0.000000 0.000000
-23.164799 0.914399 -4.876802 1.000000 0.000000 0.000000 -0.000000 -0.000000 1.000000 -2.000000 -0.800000 0 0 0 0 0.000000 0.000000 0.000000 0.000000
-21.945601 -0.304801 -4.876801 -0.000000 -0.000000 1.000000 1.000000 0.000000 0.000000 -9.000000 -0.400000 0 0 0 0 0.000000 0.000000 0.000000 0.000000
-21.945601 0.914399 -4.876801 -0.000000 -0.000000 1.000000 1.000000 0.000000 0.000000 -9.000000 -0.800000 0 0 0 0 0.000000 0.000000 0.000000 0.000000
-19.507198 0.914399 -4.876801 -0.000000 -0.000000 1.000000 1.000000 0.000000 0.000000 -8.000000 -0.800000 0 0 0 0 0.000000 0.000000 0.000000 0.000000
-19.507198 -0.304801 -4.876801 -0.000000 -0.000000 1.000000 1.000000 0.000000 0.000000 -8.000000 -0.400000 0 0 0 0 0.000000 0.000000 0.000000 0.000000
-17.373600 0.914399 -4.876801 -0.000000 -0.000000 1.000000 1.000000 0.000000 0.000000 -7.125000 -0.800000 0 0 0 0 0.000000 0.000000 0.000000 0.000000
-17.373600 -1.524001 -4.876801 -0.000000 -0.000000 1.000000 1.000000 0.000000 0.000000 -7.125000 0.000000 0 0 0 0 0.000000 0.000000 0.000000 0.000000
-18.897600 -1.524001 -4.876801 -0.000000 -0.000000 1.000000 1.000000 -0.000000 0.000000 -7.750000 0.000000 0 0 0 0 0.000000 0.000000 0.000000 0.000000
-19.507198 -1.524001 -4.876802 -0.000000 -0.000000 1.000000 1.000000 0.000000 0.000000 -8.000000 0.000000 0 0 0 0 0.000000 0.000000 0.000000 0.000000
-18.897600 0.914399 -4.876801 -0.000000 -0.000000 1.000000 1.000000 0.000000 0.000000 -7.750000 -0.800000 0 0 0 0 0.000000 0.000000 0.000000 0.000000
-23.164799 -1.524001 -4.876802 -0.000000 -0.000000 1.000000 1.000000 0.000000 0.000000 -9.500000 0.000000 0 0 0 0 0.000000 0.000000 0.000000 0.000000
-23.164799 0.914399 -4.876802 -0.000000 -0.000000 1.000000 1.000000 0.000000 0.000000 -9.500000 -0.800000 0 0 0 0 0.000000 0.000000 0.000000 0.000000
-21.945601 -1.524001 -4.876802 -0.000000 -0.000000 1.000000 1.000000 0.000000 0.000000 -9.000000 0.000000 0 0 0 0 0.000000 0.000000 0.000000 0.000000
IndexCount: 456
3 1 0
10 4 0
10 0 1
3 2 1
16 2 3
16 3 5
1 13 10
12 11 10
10 11 4
12 8 11
4 9 8
4 8 7
4 7 6
7 15 14
7 14 6
14 15 20
6 14 18
14 20 19
14 19 18
6 18 17
6 17 16
22 16 17
16 5 6
22 21 16
6 5 4
30 24 23
30 25 24
30 29 28
30 28 27
30 27 26
30 26 25
25 26 92
92 90 25
92 91 90
93 92 96
93 96 95
95 94 93
31 35 34
31 34 33
33 32 31
31 77 76
31 76 75
31 75 74
74 35 31
85 87 31
85 31 32
32 86 85
86 88 85
111 87 85
112 111 85
112 85 88
111 76 87
86 89 88
39 37 36
39 38 37
38 101 37
38 102 101
102 103 101
102 104 103
43 41 40
41 97 40
43 42 41
41 98 97
98 99 97
98 100 99
47 45 44
47 46 45
45 46 108
45 108 107
45 107 106
106 105 45
106 110 109
106 109 105
51 49 48
60 63 48
60 48 62
51 50 49
52 57 50
50 56 55
50 55 52
55 53 52
53 58 52
55 54 53
53 59 58
62 61 60
60 69 68
60 68 67
60 67 66
60 66 65
60 65 64
60 64 63
73 68 69
73 72 68
71 70 66
71 66 67
78 84 83
78 83 82
78 82 81
78 81 80
80 79 78
113 116 84
84 115 114
84 114 113
120 116 113
120 117 116
120 119 118
120 118 117
124 122 121
124 123 122
128 126 125
128 125 129
128 127 126
129 130 128
129 131 130
164 131 129
164 129 163
132 136 135
132 135 134
134 133 132
132 133 139
132 139 138
138 137 132
136 132 140
140 132 137
140 141 136
140 143 142
140 142 141
140 137 146
140 146 145
145 144 140
147 151 150
147 150 149
149 148 147
152 154 147
152 147 148
148 153 152
156 155 152
156 152 153
160 158 157
158 161 157
160 159 158
158 162 161
168 166 165
174 176 165
174 165 166
168 167 166
173 167 168
173 168 172
166 175 174
173 172 171
173 171 170
173 170 169
