VertexCount: 46
-8.534399 -4.114799 -9.753601 -0.000000 1.000000 0.000000 0.000000 0.000000 -1.000000 -28.500000 8.000000 0 0 0 0 0.000000 0.000000 0.000000 0.000000
-8.534399 -4.114799 -8.763001 -0.000000 1.000000 0.000000 0.000000 0.000000 -1.000000 -28.500000 7.187500 0 0 0 0 0.000000 0.000000 0.000000 0.000000
-8.534399 -4.114799 -8.534401 -0.000000 1.000000 0.000000 0.000000 0.000000 -1.000000 -28.500000 7.000000 0 0 0 0 0.000000 0.000000 0.000000 0.000000
-8.839198 -4.114799 -8.534401 -0.000000 1.000000 0.000000 1.000000 0.000000 0.000000 -29.500000 7.000000 0 0 0 0 0.000000 0.000000 0.000000 0.000000
-8.839198 -4.114799 -9.622918 -0.000000 1.000000 0.000000 1.000000 0.000000 0.000001 -29.500000 7.892813 0 0 0 0 0.000000 0.000000 0.000000 0.000000
-8.839198 -4.114799 -9.753601 -0.000000 1.000000 0.000000 1.000000 0.000000 0.000000 -29.500000 8.000000 0 0 0 0 0.000000 0.000000 0.000000 0.000000
-8.839199 -1.981199 -8.534401 0.000000 0.000000 -1.000000 1.000000 -0.000000 0.000000 -29.500000 2.000000 0 0 0 0 0.000000 0.000000 0.000000 0.000000
-8.839198 -4.114799 -8.534401 0.000000 0.000000 -1.000000 1.000000 -0.000000 0.000000 -29.500000 3.750000 0 0 0 0 0.000000 0.000000 0.000000 0.000000
-8.534399 -4.114799 -8.534401 0.000000 0.000000 -1.000000 1.000000 -0.000000 0.000000 -28.500000 3.750000 0 0 0 0 0.000000 0.000000 0.000000 0.000000
-8.534399 -1.981199 -8.534401 0.000000 0.000000 -1.000000 1.000000 -0.000000 0.000000 -28.500000 2.000000 0 0 0 0 0.000000 0.000000 0.000000 0.000000
-8.534399 -1.981199 -8.534401 0.000000 -1.000000 -0.000000 1.000000 0.000000 0.000000 -28.500000 7.000000 0 0 0 0 0.000000 0.000000 0.000000 0.000000
-8.534399 -1.981199 -9.753601 0.000000 -1.000000 -0.000000 1.000000 0.000000 0.000000 -28.500000 8.000000 0 0 0 0 0.000000 0.000000 0.000000 0.000000
-8.839199 -1.981199 -9.753601 0.000000 -1.000000 -0.000000 1.000000 0.000000 -0.000000 -29.500000 8.000000 0 0 0 0 0.000000 0.000000 0.000000 0.000000
-8.839199 -1.981199 -8.534401 0.000000 -1.000000 -0.000000 1.000000 0.000000 0.000000 -29.500000 7.000000 0 0 0 0 0.000000 0.000000 0.000000 0.000000
-8.534399 -1.981199 -9.753601 -0.000000 -0.000000 1.000000 1.000000 0.000001 0.000000 -28.500000 2.000000 0 0 0 0 0.000000 0.000000 0.000000 0.000000
-8.534399 -4.114799 -9.753601 -0.000000 -0.000000 1.000000 1.000000 0.000001 0.000000 -28.500000 3.750000 0 0 0 0 0.000000 0.000000 0.000000 0.000000
-8.839198 -4.114799 -9.753601 -0.000000 -0.000000 1.000000 1.000000 -0.000000 0.000000 -29.500000 3.750000 0 0 0 0 0.000000 0.000000 0.000000 0.000000
-8.839199 -1.981199 -9.753601 -0.000000 -0.000000 1.000000 1.000000 0.000001 0.000000 -29.500000 2.000000 0 0 0 0 0.000000 0.000000 0.000000 0.000000
-17.678400 -2.438402 6.705597 0.000000 -1.000000 -0.000000 1.000000 0.000000 0.000000 -57.500000 -5.000000 0 0 0 0 0.000000 0.000000 0.000000 0.000000
-17.678400 -2.438402 5.486398 0.000000 -1.000000 -0.000000 1.000000 0.000000 0.000000 -57.500000 -4.000000 0 0 0 0 0.000000 0.000000 0.000000 0.000000
-17.983200 -2.438402 5.486398 0.000000 -1.000000 -0.000000 1.000000 0.000000 0.000000 -58.500000 -4.000000 0 0 0 0 0.000000 0.000000 0.000000 0.000000
-17.983200 -2.438402 6.705597 0.000000 -1.000000 -0.000000 1.000000 0.000000 0.000000 -58.500000 -5.000000 0 0 0 0 0.000000 0.000000 0.000000 0.000000
-17.678400 -2.438402 5.486398 -0.000000 -0.000000 1.000000 1.000000 -0.000000 0.000000 -57.500000 2.000000 0 0 0 0 0.000000 0.000000 0.000000 0.000000
-17.678400 -4.572002 5.486398 -0.000000 -0.000000 1.000000 1.000000 -0.000000 0.000000 -57.500000 3.750000 0 0 0 0 0.000000 0.000000 0.000000 0.000000
-17.983200 -4.572002 5.486398 -0.000000 -0.000000 1.000000 1.000000 -0.000000 0.000000 -58.500000 3.750000 0 0 0 0 0.000000 0.000000 0.000000 0.000000
-17.983200 -2.438402 5.486398 -0.000000 -0.000000 1.000000 1.000000 -0.000000 0.000000 -58.500000 2.000000 0 0 0 0 0.000000 0.000000 0.000000 0.000000
-17.983200 -2.438402 6.705597 0.000000 0.000000 -1.000000 1.000000 -0.000000 0.000000 -58.500000 2.000000 0 0 0 0 0.000000 0.000000 0.000000 0.000000
-17.983200 -4.572003 6.705597 0.000000 0.000000 -1.000000 1.000000 -0.000000 0.000000 -58.500000 3.750000 0 0 0 0 0.000000 0.000000 0.000000 0.000000
-17.678400 -4.572003 6.705597 0.000000 0.000000 -1.000000 1.000000 -0.000000 0.000000 -57.500000 3.750000 0 0 0 0 0.000000 0.000000 0.000000 0.000000
-17.678400 -2.438402 6.705597 0.000000 0.000000 -1.000000 1.000000 -0.000000 0.000000 -57.500000 2.000000 0 0 0 0 0.000000 0.000000 0.000000 0.000000
-14.630398 -4.114799 -16.002003 -0.000000 1.000000 0.000000 1.000000 0.000000 0.000000 -48.500000 13.000000 0 0 0 0 0.000000 0.000000 0.000000 0.000000
-14.630398 -4.114799 -14.782803 -0.000000 1.000000 0.000000 1.000000 0.000000 0.000000 -48.500000 12.000000 0 0 0 0 0.000000 0.000000 0.000000 0.000000
-14.935199 -4.114799 -14.782803 -0.000000 1.000000 0.000000 1.000000 0.000000 0.000000 -49.500000 12.000000 0 0 0 0 0.000000 0.000000 0.000000 0.000000
-14.935199 -4.114799 -16.002003 -0.000000 1.000000 0.000000 1.000000 0.000000 0.000000 -49.500000 13.000000 0 0 0 0 0.000000 0.000000 0.000000 0.000000
-14.630398 -1.981199 -14.782802 0.000000 -1.000000 -0.000000 1.000000 0.000000 0.000000 -48.500000 12.000000 0 0 0 0 0.000000 0.000000 0.000000 0.000000
-14.630398 -1.981199 -16.002001 0.000000 -1.000000 -0.000000 1.000000 0.000000 0.000000 -48.500000 13.000000 0 0 0 0 0.000000 0.000000 0.000000 0.000000
-14.935199 -1.981199 -16.002001 0.000000 -1.000000 -0.000000 1.000000 0.000000 0.000000 -49.500000 13.000000 0 0 0 0 0.000000 0.000000 0.000000 0.000000
-14.935199 -1.981199 -14.782802 0.000000 -1.000000 -0.000000 1.000000 0.000000 0.000000 -49.500000 12.000000 0 0 0 0 0.000000 0.000000 0.000000 0.000000
-14.630398 -1.981199 -16.002001 -0.000000 -0.000000 1.000000 1.000000 -0.000000 0.000000 -48.500000 2.000000 0 0 0 0 0.000000 0.000000 0.000000 0.000000
-14.630398 -4.114799 -16.002003 -0.000000 -0.000000 1.000000 1.000000 -0.000000 0.000000 -48.500000 3.750000 0 0 0 0 0.000000 0.000000 0.000000 0.000000
-14.935199 -4.114799 -16.002003 -0.000000 -0.000000 1.000000 1.000000 -0.000000 0.000000 -49.500000 3.750000 0 0 0 0 0.000000 0.000000 0.000000 0.000000
-14.935199 -1.981199 -16.002001 -0.000000 -0.000000 1.000000 1.000000 -0.000000 0.000000 -49.500000 2.000000 0 0 0 0 0.000000 0.000000 0.000000 0.000000
-14.935199 -1.981199 -14.782802 0.000000 0.000000 -1.000000 1.000000 -0.000000 0.000000 -49.500000 2.000000 0 0 0 0 0.000000 0.000000 0.000000 0.000000
-14.935199 -4.114799 -14.782803 0.000000 0.000000 -1.000000 1.000000 -0.000000 0.000000 -49.500000 3.750000 0 0 0 0 0.000000 0.000000 0.000000 0.000000
-14.630398 -4.114799 -14.782803 0.000000 0.000000 -1.000000 1.000000 -0.000000 0.000000 -48.500000 3.750000 0 0 0 0 0.000000 0.000000 0.000000 0.000000
-14.630398 -1.981199 -14.782802 0.000000 0.000000 -1.000000 1.000000 -0.000000 0.000000 -48.500000 2.000000 0 0 0 0 0.000000 0.000000 0.000000 0.000000
IndexCount: 72
0 5 4
0 4 3
0 3 2
2 1 0
9 7 6
9 8 7
13 11 10
13 12 11
17 15 14
17 16 15
21 19 18
21 20 19
25 23 22
25 24 23
29 27 26
29 28 27
33 31 30
33 32 31
37 35 34
37 36 35
41 39 38
41 40 39
45 43 42
45 44 43
