VertexCount: 142
4.267200 -4.572001 7.543800 -0.000000 1.000000 0.000000 1.000000 0.000000 0.000000 3.500000 -6.187500 0 0 0 0 0.000000 0.000000 0.000000 0.000000
4.267200 -4.572001 7.315199 -0.000000 1.000000 0.000000 1.000000 0.000000 0.000000 3.500000 -6.000000 0 0 0 0 0.000000 0.000000 0.000000 0.000000
4.572000 -4.572001 7.315199 -0.000000 1.000000 0.000000 1.000000 0.000000 0.000000 3.750000 -6.000000 0 0 0 0 0.000000 0.000000 0.000000 0.000000
5.486400 -4.572001 7.315199 -0.000000 1.000000 0.000000 1.000000 0.000000 -0.000000 4.500000 -6.000000 0 0 0 0 0.000000 0.000000 0.000000 0.000000
5.486400 -4.572001 7.543800 -0.000000 1.000000 0.000000 1.000000 0.000000 -0.000000 4.500000 -6.187500 0 0 0 0 0.000000 0.000000 0.000000 0.000000
5.334000 -4.572001 7.543800 -0.000000 1.000000 0.000000 1.000000 0.000000 -0.000000 4.375000 -6.187500 0 0 0 0 0.000000 0.000000 0.000000 0.000000
5.219699 -4.572001 7.543800 -0.000000 1.000000 0.000000 1.000000 0.000000 0.000000 4.281250 -6.187500 0 0 0 0 0.000000 0.000000 0.000000 0.000000
2.667000 -4.572001 7.543799 -0.000000 1.000000 0.000000 1.000000 0.000000 0.000000 2.187500 -6.187500 0 0 0 0 0.000000 0.000000 0.000000 0.000000
2.667000 -4.572001 7.315199 -0.000000 1.000000 0.000000 1.000000 0.000000 -0.000000 2.187500 -6.000000 0 0 0 0 0.000000 0.000000 0.000000 0.000000
3.657599 -4.572001 7.543800 -0.000000 1.000000 0.000000 1.000000 0.000000 0.000000 3.000000 -6.187500 0 0 0 0 0.000000 0.000000 0.000000 0.000000
2.667000 -4.572001 8.458200 -0.000000 1.000000 0.000000 1.000000 0.000000 0.000000 2.187500 -6.937500 0 0 0 0 0.000000 0.000000 0.000000 0.000000
3.657599 -4.572001 8.458200 -0.000000 1.000000 0.000000 1.000000 0.000000 0.000001 3.000000 -6.937500 0 0 0 0 0.000000 0.000000 0.000000 0.000000
4.267200 -4.572001 8.458200 -0.000000 1.000000 0.000000 1.000000 0.000000 0.000000 3.500000 -6.937500 0 0 0 0 0.000000 0.000000 0.000000 0.000000
4.267200 -4.572001 9.753599 -0.000000 1.000000 0.000000 1.000000 0.000000 0.000001 3.500000 -8.000000 0 0 0 0 0.000000 0.000000 0.000000 0.000000
4.267200 -4.572001 10.210800 -0.000000 1.000000 0.000000 1.000000 0.000000 -0.000001 3.500000 -8.375000 0 0 0 0 0.000000 0.000000 0.000000 0.000000
4.267200 -4.572001 11.429998 -0.000000 1.000000 0.000000 1.000000 0.000000 0.000001 3.500000 -9.375000 0 0 0 0 0.000000 0.000000 0.000000 0.000000
4.267200 -4.572001 11.582398 -0.000000 1.000000 0.000000 1.000000 0.000000 0.000000 3.500000 -9.500000 0 0 0 0 0.000000 0.000000 0.000000 0.000000
2.666999 -4.572001 11.582398 -0.000000 1.000000 0.000000 1.000000 0.000000 0.000000 2.187500 -9.500000 0 0 0 0 0.000000 0.000000 0.000000 0.000000
3.657599 -4.572001 7.543800 -0.000000 1.000000 0.000000 1.000000 0.000000 0.000001 3.000000 -6.187500 0 0 0 0 0.000000 0.000000 0.000000 0.000000
4.267200 -4.572001 4.495800 -0.000000 1.000000 0.000000 1.000000 0.000000 0.000000 3.500000 -3.687500 0 0 0 0 0.000000 0.000000 0.000000 0.000000
4.572000 -4.572001 4.495800 -0.000000 1.000000 0.000000 1.000000 0.000000 0.000000 3.750000 -3.687500 0 0 0 0 0.000000 0.000000 0.000000 0.000000
4.572000 -4.572001 4.724400 -0.000000 1.000000 0.000000 0.000000 0.000000 -1.000000 3.750000 -3.875000 0 0 0 0 0.000000 0.000000 0.000000 0.000000
5.372099 -4.572001 4.724400 -0.000000 1.000000 0.000000 1.000000 0.000000 0.000000 4.406250 -3.875000 0 0 0 0 0.000000 0.000000 0.000000 0.000000
4.572000 -4.572001 4.724400 -0.000000 1.000000 0.000000 1.000000 0.000000 0.000000 3.750000 -3.875000 0 0 0 0 0.000000 0.000000 0.000000 0.000000
5.219699 -4.572001 4.495800 -0.000000 1.000000 0.000000 1.000000 0.000000 0.000000 4.281250 -3.687500 0 0 0 0 0.000000 0.000000 0.000000 0.000000
5.486400 -4.572001 4.724400 -0.000000 1.000000 0.000000 1.000000 0.000000 0.000000 4.500000 -3.875000 0 0 0 0 0.000000 0.000000 0.000000 0.000000
2.667000 -4.572001 4.698749 -0.000000 1.000000 0.000000 1.000000 -0.000000 0.000000 2.187500 -3.853961 0 0 0 0 0.000000 0.000000 0.000000 0.000000
2.667000 -4.572001 4.278802 -0.000000 1.000000 0.000000 1.000000 -0.000000 0.000000 2.187500 -3.509517 0 0 0 0 0.000000 0.000000 0.000000 0.000000
3.469005 -4.572001 3.581400 -0.000000 1.000000 0.000000 1.000000 0.000000 0.000001 2.845313 -2.937500 0 0 0 0 0.000000 0.000000 0.000000 0.000000
3.657600 -4.572001 3.581400 -0.000000 1.000000 0.000000 1.000000 0.000000 0.000000 3.000000 -2.937500 0 0 0 0 0.000000 0.000000 0.000000 0.000000
3.657600 -4.572001 3.898582 -0.000000 1.000000 0.000000 1.000000 0.000000 -0.000000 3.000000 -3.197656 0 0 0 0 0.000000 0.000000 0.000000 0.000000
2.918270 -4.572001 4.495800 -0.000000 1.000000 0.000000 0.999979 0.000000 0.006503 2.393594 -3.687500 0 0 0 0 0.000000 0.000000 0.000000 0.000000
4.267200 -4.572000 2.887408 -0.000000 1.000000 0.000000 1.000000 0.000000 0.000000 3.500000 -2.368281 0 0 0 0 0.000000 0.000000 0.000000 0.000000
4.267200 -4.572001 3.581400 -0.000000 1.000000 0.000000 1.000000 0.000000 0.000000 3.500000 -2.937500 0 0 0 0 0.000000 0.000000 0.000000 0.000000
2.667000 -4.572001 7.296149 -0.000000 1.000000 0.000000 1.000000 0.000000 0.000000 2.187500 -5.984375 0 0 0 0 0.000000 0.000000 0.000000 0.000000
2.667000 -4.572001 6.803278 -0.000000 1.000000 0.000000 1.000000 0.000000 0.000000 2.187500 -5.580118 0 0 0 0 0.000000 0.000000 0.000000 0.000000
3.657600 -4.572001 4.495800 -0.000000 1.000000 0.000000 1.000000 0.000000 -0.000000 3.000000 -3.687500 0 0 0 0 0.000000 0.000000 0.000000 0.000000
4.143375 -4.572000 0.942975 -0.000001 1.000000 0.000000 1.000000 0.000001 0.000000 3.398438 -0.773438 0 0 0 0 0.000000 0.000000 0.000000 0.000000
4.038600 -4.572000 1.047750 -0.000001 1.000000 0.000000 1.000000 0.000001 0.000000 3.312500 -0.859375 0 0 0 0 0.000000 0.000000 0.000000 0.000000
3.829050 -4.572000 0.838199 -0.000001 1.000000 0.000000 1.000000 0.000001 0.000001 3.140625 -0.687500 0 0 0 0 0.000000 0.000000 0.000000 0.000000
3.933825 -4.572000 0.733425 -0.000001 1.000000 0.000000 1.000000 0.000001 0.000000 3.226562 -0.601562 0 0 0 0 0.000000 0.000000 0.000000 0.000000
2.667000 -4.572000 0.609599 0.000000 1.000000 0.000000 1.000000 -0.000000 0.000000 2.187500 -0.500000 0 0 0 0 0.000000 0.000000 0.000000 0.000000
3.505200 -4.572000 0.609600 0.000000 1.000000 0.000000 1.000000 -0.000000 0.000000 2.875000 -0.500000 0 0 0 0 0.000000 0.000000 0.000000 0.000000
3.657600 -4.572000 0.762000 0.000000 1.000000 0.000000 1.000000 -0.000000 -0.000001 3.000000 -0.625000 0 0 0 0 0.000000 0.000000 0.000000 0.000000
4.114800 -4.572000 1.219200 0.000000 1.000000 0.000000 1.000000 -0.000000 -0.000000 3.375000 -1.000000 0 0 0 0 0.000000 0.000000 0.000000 0.000000
4.267200 -4.572000 1.371600 0.000000 1.000000 0.000000 1.000000 -0.000000 0.000000 3.500000 -1.125000 0 0 0 0 0.000000 0.000000 0.000000 0.000000
2.667000 -4.572001 2.737103 0.000000 1.000000 0.000000 1.000000 -0.000000 0.000000 2.187500 -2.245000 0 0 0 0 0.000000 0.000000 0.000000 0.000000
2.667000 -4.572000 0.919868 0.000000 1.000000 0.000000 1.000000 -0.000000 0.000000 2.187500 -0.754485 0 0 0 0 0.000000 0.000000 0.000000 0.000000
4.267200 -4.572000 1.219200 -0.000000 1.000000 0.000000 1.000000 0.000000 0.000000 3.500000 -1.000000 0 0 0 0 0.000000 0.000000 0.000000 0.000000
4.267200 -4.572000 1.276350 -0.000000 1.000000 0.000000 1.000000 0.000000 0.000000 3.500000 -1.046875 0 0 0 0 0.000000 0.000000 0.000000 0.000000
3.657600 -4.572000 0.609600 -0.000000 1.000000 0.000000 1.000000 0.000000 0.000000 3.000000 -0.500000 0 0 0 0 0.000000 0.000000 0.000000 0.000000
3.600450 -4.572000 0.609600 -0.000000 1.000000 0.000000 1.000000 0.000000 0.000000 2.953125 -0.500000 0 0 0 0 0.000000 0.000000 0.000000 0.000000
-0.548822 -4.572001 7.296149 -0.000000 1.000000 0.000000 1.000000 -0.000000 -0.000000 -0.450149 -5.984375 0 0 0 0 0.000000 0.000000 0.000000 0.000000
-0.666750 -4.572001 7.391399 -0.000000 1.000000 0.000000 1.000000 0.000000 0.000000 -0.546875 -6.062500 0 0 0 0 0.000000 0.000000 0.000000 0.000000
-0.617672 -4.572001 7.296149 -0.000000 1.000000 0.000000 1.000000 -0.000000 -0.000000 -0.506621 -5.984375 0 0 0 0 0.000000 0.000000 0.000000 0.000000
0.757195 -4.572001 7.296149 -0.000000 1.000000 0.000000 1.000000 0.000000 0.000000 0.621059 -5.984375 0 0 0 0 0.000000 0.000000 0.000000 0.000000
-1.162050 -4.572001 7.791450 -0.000000 1.000000 0.000000 1.000000 0.000000 0.000000 -0.953125 -6.390625 0 0 0 0 0.000000 0.000000 0.000000 0.000000
-4.419600 -4.572002 8.458200 -0.000000 1.000000 0.000000 1.000000 0.000000 0.000000 -3.625000 -6.937500 0 0 0 0 0.000000 0.000000 0.000000 0.000000
-5.181600 -4.572002 8.648699 -0.000000 1.000000 0.000000 1.000000 0.000000 0.000001 -4.250000 -7.093750 0 0 0 0 0.000000 0.000000 0.000000 0.000000
-5.181600 -4.572002 8.458200 -0.000000 1.000000 0.000000 1.000000 0.000000 0.000000 -4.250000 -6.937500 0 0 0 0 0.000000 0.000000 0.000000 0.000000
-4.876800 -4.572002 8.458200 -0.000000 1.000000 0.000000 1.000000 0.000000 0.000000 -4.000000 -6.937500 0 0 0 0 0.000000 0.000000 0.000000 0.000000
-0.802958 -4.572001 7.296149 -0.000000 1.000000 0.000000 1.000000 0.000000 0.000000 -0.658594 -5.984375 0 0 0 0 0.000000 0.000000 0.000000 0.000000
-1.219200 -4.572001 7.658099 -0.000000 1.000000 0.000000 1.000000 0.000000 0.000000 -1.000000 -6.281250 0 0 0 0 0.000000 0.000000 0.000000 0.000000
-1.752600 -4.572001 7.791450 -0.000000 1.000000 0.000000 1.000000 0.000000 -0.000000 -1.437500 -6.390625 0 0 0 0 0.000000 0.000000 0.000000 0.000000
-4.876800 -4.572001 7.296148 -0.000000 1.000000 0.000000 1.000000 0.000000 0.000000 -4.000000 -5.984375 0 0 0 0 0.000000 0.000000 0.000000 0.000000
-1.676400 -4.572001 7.296149 -0.000000 1.000000 0.000000 1.000000 0.000000 0.000000 -1.375000 -5.984375 0 0 0 0 0.000000 0.000000 0.000000 0.000000
-1.447800 -4.572001 7.296149 -0.000000 1.000000 0.000000 -1.000000 -0.000000 -0.000000 -1.187500 -5.984375 0 0 0 0 0.000000 0.000000 0.000000 0.000000
-1.371600 -4.572001 7.296149 -0.000000 1.000000 0.000000 1.000000 0.000000 0.000000 -1.125000 -5.984375 0 0 0 0 0.000000 0.000000 0.000000 0.000000
-0.914400 -4.572001 7.727513 -0.000000 1.000000 0.000000 1.000000 0.000000 -0.000000 -0.750000 -6.338183 0 0 0 0 0.000000 0.000000 0.000000 0.000000
0.685799 -4.572002 11.582398 -0.000000 1.000000 0.000000 1.000000 0.000000 -0.000000 0.562500 -9.500000 0 0 0 0 0.000000 0.000000 0.000000 0.000000
-0.304801 -4.572002 11.582398 -0.000000 1.000000 0.000000 1.000000 0.000000 0.000000 -0.250000 -9.500000 0 0 0 0 0.000000 0.000000 0.000000 0.000000
-0.914401 -4.572002 11.582398 -0.000000 1.000000 0.000000 1.000000 0.000000 0.000000 -0.750000 -9.500000 0 0 0 0 0.000000 0.000000 0.000000 0.000000
-3.048001 -4.572002 11.582398 -0.000000 1.000000 0.000000 1.000000 0.000000 -0.000000 -2.500000 -9.500000 0 0 0 0 0.000000 0.000000 0.000000 0.000000
-5.181601 -4.572002 11.582398 -0.000000 1.000000 0.000000 1.000000 0.000000 -0.000000 -4.250000 -9.500000 0 0 0 0 0.000000 0.000000 0.000000 0.000000
-5.181600 -4.572002 10.439398 -0.000000 1.000000 0.000000 1.000000 0.000000 0.000001 -4.250000 -8.562500 0 0 0 0 0.000000 0.000000 0.000000 0.000000
-5.181600 -4.572002 9.220200 -0.000000 1.000000 0.000000 1.000000 0.000000 -0.000000 -4.250000 -7.562500 0 0 0 0 0.000000 0.000000 0.000000 0.000000
-5.181600 -4.572002 8.828722 -0.000000 1.000000 0.000000 1.000000 0.000000 0.000000 -4.250000 -7.241406 0 0 0 0 0.000000 0.000000 0.000000 0.000000
-1.752600 -4.572001 7.943849 -0.000000 1.000000 0.000000 1.000000 0.000000 -0.000000 -1.437500 -6.515625 0 0 0 0 0.000000 0.000000 0.000000 0.000000
0.432991 -4.572001 2.495549 0.000000 1.000000 0.000000 1.000000 0.000000 0.000000 0.355143 -2.046875 0 0 0 0 0.000000 0.000000 0.000000 0.000000
0.547295 -4.572001 1.866899 0.000000 1.000000 0.000000 1.000000 0.000000 -0.000000 0.448897 -1.531250 0 0 0 0 0.000000 0.000000 0.000000 0.000000
0.775907 -4.572000 0.609599 0.000000 1.000000 0.000000 1.000000 0.000000 -0.000000 0.636406 -0.500000 0 0 0 0 0.000000 0.000000 0.000000 0.000000
1.828800 -4.572000 0.609599 0.000000 1.000000 0.000000 1.000000 -0.000000 0.000000 1.500000 -0.500000 0 0 0 0 0.000000 0.000000 0.000000 0.000000
1.855303 -4.572001 2.495549 0.000000 1.000000 0.000000 0.999997 -0.000000 0.002336 1.521738 -2.046875 0 0 0 0 0.000000 0.000000 0.000000 0.000000
1.730881 -4.572001 2.737103 0.000000 1.000000 0.000000 1.000000 -0.000000 0.000000 1.419686 -2.245000 0 0 0 0 0.000000 0.000000 0.000000 0.000000
-0.342900 -4.572001 6.762750 0.000000 1.000000 0.000000 1.000000 -0.000000 0.000002 -0.281250 -5.546875 0 0 0 0 0.000000 0.000000 0.000000 0.000000
-0.228600 -4.572001 6.134099 0.000000 1.000000 0.000000 0.999032 0.000000 0.043995 -0.187500 -5.031250 0 0 0 0 0.000000 0.000000 0.000000 0.000000
-0.467297 -4.572001 7.004303 -0.000000 1.000000 0.000000 1.000000 -0.000000 -0.000001 -0.383281 -5.745000 0 0 0 0 0.000000 0.000000 0.000000 0.000000
-0.342900 -4.572001 5.314949 -0.000000 1.000000 0.000000 1.000000 0.000000 0.000001 -0.281250 -4.359375 0 0 0 0 0.000000 0.000000 0.000000 0.000000
-0.538734 -4.572001 4.934902 -0.000000 1.000000 0.000000 1.000000 0.000000 -0.000001 -0.441875 -4.047656 0 0 0 0 0.000000 0.000000 0.000000 0.000000
-1.003363 -4.572001 1.682686 -0.000000 1.000000 0.000000 1.000000 0.000000 0.000000 -0.822969 -1.380156 0 0 0 0 0.000000 0.000000 0.000000 0.000000
-0.228600 -4.572001 1.676399 -0.000000 1.000000 0.000000 1.000000 0.000000 0.000000 -0.187500 -1.375000 0 0 0 0 0.000000 0.000000 0.000000 0.000000
-1.004261 -4.572001 1.676399 -0.000000 1.000000 0.000000 1.000000 0.000000 0.000000 -0.823705 -1.375000 0 0 0 0 0.000000 0.000000 0.000000 0.000000
-1.156525 -4.572001 0.609599 -0.000000 1.000000 0.000000 1.000000 0.000000 0.000000 -0.948594 -0.500000 0 0 0 0 0.000000 0.000000 0.000000 0.000000
-0.228600 -4.572000 0.609599 -0.000000 1.000000 0.000000 1.000000 0.000000 0.000000 -0.187500 -0.500000 0 0 0 0 0.000000 0.000000 0.000000 0.000000
-0.228600 -4.572001 1.676399 -0.000000 1.000000 0.000000 0.000000 0.000000 -1.000000 -0.187500 -1.375000 0 0 0 0 0.000000 0.000000 0.000000 0.000000
-0.228600 -4.572001 1.866899 -0.000000 1.000000 0.000000 0.000000 0.000000 -1.000000 -0.187500 -1.531250 0 0 0 0 0.000000 0.000000 0.000000 0.000000
-0.228600 -4.572001 5.943600 -0.000000 1.000000 0.000000 0.000000 0.000000 -1.000000 -0.187500 -4.875000 0 0 0 0 0.000000 0.000000 0.000000 0.000000
-1.162050 -4.572001 4.286249 -0.000000 1.000000 0.000000 1.000000 0.000000 0.000000 -0.953125 -3.515625 0 0 0 0 0.000000 0.000000 0.000000 0.000000
-1.461325 -4.572001 4.208907 -0.000000 1.000000 0.000000 1.000000 0.000000 -0.000000 -1.198594 -3.452188 0 0 0 0 0.000000 0.000000 0.000000 0.000000
-4.120515 -4.572001 1.896807 -0.000000 1.000000 0.000000 1.000000 0.000000 -0.000000 -3.379688 -1.555781 0 0 0 0 0.000000 0.000000 0.000000 0.000000
-2.766822 -4.572001 0.609599 0.000000 1.000000 0.000000 1.000000 -0.000000 0.000000 -2.269375 -0.500000 0 0 0 0 0.000000 0.000000 0.000000 0.000000
-0.666750 -4.572001 4.686300 0.000000 1.000000 0.000000 1.000000 -0.000000 0.000000 -0.546875 -3.843750 0 0 0 0 0.000000 0.000000 0.000000 0.000000
-5.181600 -4.572001 0.974025 0.000000 1.000000 0.000000 1.000000 -0.000000 0.000000 -4.250000 -0.798906 0 0 0 0 0.000000 0.000000 0.000000 0.000000
-5.181600 -4.572001 0.609599 0.000000 1.000000 0.000000 1.000000 -0.000000 0.000000 -4.250000 -0.500000 0 0 0 0 0.000000 0.000000 0.000000 0.000000
-3.657599 -4.572001 0.609599 0.000000 1.000000 0.000000 1.000000 -0.000000 0.000000 -3.000000 -0.500000 0 0 0 0 0.000000 0.000000 0.000000 0.000000
-1.143000 -4.572001 6.191249 -0.000000 1.000000 0.000000 1.000000 0.000000 -0.000000 -0.937500 -5.078125 0 0 0 0 0.000000 0.000000 0.000000 0.000000
-1.143000 -4.572001 6.115049 -0.000000 1.000000 0.000000 1.000000 0.000000 -0.000000 -0.937500 -5.015625 0 0 0 0 0.000000 0.000000 0.000000 0.000000
-0.391859 -4.572001 6.115049 -0.000000 1.000000 0.000000 1.000000 0.000000 -0.000000 -0.321406 -5.015625 0 0 0 0 0.000000 0.000000 0.000000 0.000000
-0.402717 -4.572001 6.191249 -0.000000 1.000000 0.000000 1.000000 0.000000 -0.000000 -0.330312 -5.078125 0 0 0 0 0.000000 0.000000 0.000000 0.000000
-1.371600 -4.572001 7.296149 0.000000 1.000000 0.000000 -0.000000 -0.000000 1.000000 -1.125000 -5.984375 0 0 0 0 0.000000 0.000000 0.000000 0.000000
-1.371600 -4.572001 6.419849 0.000000 1.000000 0.000000 -0.000000 -0.000000 1.000000 -1.125000 -5.265625 0 0 0 0 0.000000 0.000000 0.000000 0.000000
-1.371600 -4.572001 6.191249 0.000000 1.000000 0.000000 -0.000000 -0.000000 1.000000 -1.125000 -5.078125 0 0 0 0 0.000000 0.000000 0.000000 0.000000
-0.476250 -4.572001 6.705599 0.000000 1.000000 0.000000 1.000000 -0.000000 0.000000 -0.390625 -5.500000 0 0 0 0 0.000000 0.000000 0.000000 0.000000
-0.781050 -4.572001 7.277100 0.000000 1.000000 0.000000 1.000000 -0.000000 0.000001 -0.640625 -5.968750 0 0 0 0 0.000000 0.000000 0.000000 0.000000
-1.676400 -4.572001 6.191249 -0.000000 1.000000 0.000000 1.000000 0.000000 0.000000 -1.375000 -5.078125 0 0 0 0 0.000000 0.000000 0.000000 0.000000
-1.447800 -4.572001 6.191249 -0.000000 1.000000 0.000000 1.000000 0.000000 0.000000 -1.187500 -5.078125 0 0 0 0 0.000000 0.000000 0.000000 0.000000
-1.447800 -4.572001 6.419849 -0.000000 1.000000 0.000000 1.000000 0.000000 -0.000001 -1.187500 -5.265625 0 0 0 0 0.000000 0.000000 0.000000 0.000000
-1.447800 -4.572001 7.296149 -0.000000 1.000000 0.000000 1.000000 0.000000 0.000000 -1.187500 -5.984375 0 0 0 0 0.000000 0.000000 0.000000 0.000000
-1.371600 -4.572001 6.419849 -0.000000 1.000000 0.000000 1.000000 0.000000 0.000000 -1.125000 -5.265625 0 0 0 0 0.000000 0.000000 0.000000 0.000000
-1.676400 -4.572001 5.886449 0.000000 1.000000 0.000000 1.000000 -0.000000 -0.000000 -1.375000 -4.828125 0 0 0 0 0.000000 0.000000 0.000000 0.000000
-1.676400 -4.572001 4.305300 0.000000 1.000000 0.000000 1.000000 -0.000000 0.000003 -1.375000 -3.531250 0 0 0 0 0.000000 0.000000 0.000000 0.000000
-1.219200 -4.572001 4.419599 0.000000 1.000000 0.000000 1.000000 -0.000000 -0.000001 -1.000000 -3.625000 0 0 0 0 0.000000 0.000000 0.000000 0.000000
-0.781050 -4.572001 4.800599 0.000000 1.000000 0.000000 1.000000 -0.000000 -0.000000 -0.640625 -3.937500 0 0 0 0 0.000000 0.000000 0.000000 0.000000
-0.476250 -4.572001 5.372099 0.000000 1.000000 0.000000 1.000000 -0.000000 -0.000001 -0.390625 -4.406250 0 0 0 0 0.000000 0.000000 0.000000 0.000000
-0.402717 -4.572001 5.886449 0.000000 1.000000 0.000000 1.000000 0.000000 -0.000000 -0.330312 -4.828125 0 0 0 0 0.000000 0.000000 0.000000 0.000000
-1.371600 -4.572001 5.886449 0.000000 1.000000 0.000000 1.000000 0.000000 0.000000 -1.125000 -4.828125 0 0 0 0 0.000000 0.000000 0.000000 0.000000
-1.447800 -4.572001 5.886449 0.000000 1.000000 0.000000 1.000000 -0.000000 -0.000000 -1.187500 -4.828125 0 0 0 0 0.000000 0.000000 0.000000 0.000000
-1.371600 -4.572001 6.115049 -0.000000 1.000000 0.000000 1.000000 0.000000 0.000000 -1.125000 -5.015625 0 0 0 0 0.000000 0.000000 0.000000 0.000000
-0.381000 -4.572001 6.038849 -0.000000 1.000000 0.000000 1.000000 0.000000 -0.000000 -0.312500 -4.953125 0 0 0 0 0.000000 0.000000 0.000000 0.000000
-1.447800 -4.572001 6.115049 -0.000000 1.000000 0.000000 1.000000 0.000000 0.000000 -1.187500 -5.015625 0 0 0 0 0.000000 0.000000 0.000000 0.000000
-1.676400 -4.572001 6.115049 -0.000000 1.000000 0.000000 1.000000 0.000000 0.000000 -1.375000 -5.015625 0 0 0 0 0.000000 0.000000 0.000000 0.000000
-4.876800 -4.572001 3.581399 -0.000000 1.000000 0.000000 1.000000 0.000000 0.000000 -4.000000 -2.937500 0 0 0 0 0.000000 0.000000 0.000000 0.000000
-4.572000 -4.572001 3.581399 -0.000000 1.000000 0.000000 1.000000 0.000000 0.000000 -3.750000 -2.937500 0 0 0 0 0.000000 0.000000 0.000000 0.000000
-1.752600 -4.572001 4.286249 -0.000000 1.000000 0.000000 1.000000 0.000000 -0.000000 -1.437500 -3.515625 0 0 0 0 0.000000 0.000000 0.000000 0.000000
-1.676400 -4.572001 5.886449 -0.000000 1.000000 0.000000 0.000000 0.000000 -1.000000 -1.375000 -4.828125 0 0 0 0 0.000000 0.000000 0.000000 0.000000
-5.181600 -4.572001 3.581399 -0.000000 1.000000 0.000000 1.000000 0.000000 0.000000 -4.250000 -2.937500 0 0 0 0 0.000000 0.000000 0.000000 0.000000
-5.181600 -4.572001 3.428999 -0.000000 1.000000 0.000000 1.000000 0.000000 0.000000 -4.250000 -2.812500 0 0 0 0 0.000000 0.000000 0.000000 0.000000
-5.181600 -4.572001 3.248977 -0.000000 1.000000 0.000000 1.000000 0.000000 -0.000000 -4.250000 -2.664844 0 0 0 0 0.000000 0.000000 0.000000 0.000000
-1.752600 -4.572001 4.133849 0.000000 1.000000 0.000000 1.000000 -0.000000 0.000000 -1.437500 -3.390625 0 0 0 0 0.000000 0.000000 0.000000 0.000000
-0.228600 -4.572001 1.866899 -0.000001 1.000000 0.000000 1.000000 0.000001 0.000000 -0.187500 -1.531250 0 0 0 0 0.000000 0.000000 0.000000 0.000000
0.609600 -4.572000 0.609599 -0.000001 1.000000 0.000000 -1.000000 -0.000001 -0.000000 0.500000 -0.500000 0 0 0 0 0.000000 0.000000 0.000000 0.000000
-0.228600 -4.572001 5.943600 -0.000001 1.000000 0.000000 1.000000 0.000001 -0.000000 -0.187500 -4.875000 0 0 0 0 0.000000 0.000000 0.000000 0.000000
IndexCount: 468
6 1 0
7 9 0
0 1 8
0 8 7
18 7 10
68 10 7
68 7 8
34 8 1
68 8 34
1 35 34
34 55 68
35 55 34
1 26 35
55 35 26
52 56 55
55 26 52
54 53 52
54 52 26
26 86 54
46 84 86
86 27 46
26 27 86
78 85 84
78 84 83
46 83 84
141 85 78
79 139 141
141 78 79
80 79 78
139 79 80
80 90 139
78 81 80
80 140 93
80 93 90
93 91 90
93 92 91
94 91 89
94 89 87
94 87 96
96 95 94
89 88 87
101 88 92
101 92 100
104 97 101
104 101 100
104 103 102
104 102 99
104 99 97
99 98 97
102 137 98
138 137 136
138 136 132
132 133 138
136 135 131
136 131 132
130 133 132
130 132 131
130 120 133
126 119 130
126 130 129
130 134 120
130 131 64
114 130 64
120 119 126
126 125 120
125 121 120
125 124 123
125 123 122
125 122 121
106 124 125
106 125 127
106 128 124
108 107 106
108 106 105
106 107 128
109 112 108
109 108 105
109 105 111
109 61 113
109 113 112
111 110 109
62 61 67
65 63 62
67 65 62
67 66 65
67 118 116
67 116 117
65 117 116
65 116 115
115 114 65
64 65 114
65 64 60
60 59 58
60 58 57
65 60 57
57 58 76
65 57 63
57 76 77
57 77 63
68 76 75
68 75 74
68 74 73
68 73 72
72 71 68
68 71 70
68 70 69
68 69 17
68 17 10
10 17 16
10 16 15
10 15 14
10 14 13
13 11 10
18 10 11
13 12 11
78 41 81
78 82 47
78 47 41
83 82 78
42 41 47
47 46 42
47 82 83
47 83 46
46 43 42
51 42 43
46 27 32
46 32 45
46 45 44
46 44 43
51 43 50
44 45 49
44 49 48
29 33 32
29 32 28
26 30 29
26 29 28
28 27 26
26 31 30
1 31 26
30 31 36
1 36 31
6 2 1
19 1 2
1 19 36
6 5 4
6 4 3
6 3 2
2 3 25
2 25 22
24 23 22
22 23 2
24 20 23
2 21 20
2 20 19
40 38 37
40 39 38
