VertexCount: 32
-8.001000 -3.657602 11.582399 0.000000 -1.000000 -0.000000 1.000000 0.000000 0.000000 -6.000000 18.250000 0 0 0 0 0.000000 0.000000 0.000000 0.000000
-8.001000 -3.657602 11.429999 0.000000 -1.000000 -0.000000 1.000000 0.000000 0.000000 -6.000000 18.000000 0 0 0 0 0.000000 0.000000 0.000000 0.000000
-8.610600 -3.657602 11.429999 0.000000 -1.000000 -0.000000 1.000000 0.000000 0.000000 -6.500000 18.000000 0 0 0 0 0.000000 0.000000 0.000000 0.000000
-8.610600 -3.657602 11.582399 0.000000 -1.000000 -0.000000 1.000000 0.000000 0.000000 -6.500000 18.250000 0 0 0 0 0.000000 0.000000 0.000000 0.000000
-8.001000 -2.743202 11.582399 1.000000 0.000000 0.000000 0.000000 1.000000 0.000000 -1.500000 18.250000 0 0 0 0 0.000000 0.000000 0.000000 0.000000
-8.001000 -2.743202 11.429999 1.000000 0.000000 0.000000 0.000000 1.000000 0.000000 -1.500000 18.000000 0 0 0 0 0.000000 0.000000 0.000000 0.000000
-8.001000 -3.657602 11.429999 1.000000 0.000000 0.000000 0.000000 1.000000 0.000000 -2.250000 18.000000 0 0 0 0 0.000000 0.000000 0.000000 0.000000
-8.001000 -3.657602 11.582399 1.000000 0.000000 0.000000 0.000000 1.000000 0.000000 -2.250000 18.250000 0 0 0 0 0.000000 0.000000 0.000000 0.000000
-8.001000 -2.743202 11.582399 0.000000 1.000000 0.000000 1.000000 0.000000 0.000000 -6.000000 18.250000 0 0 0 0 0.000000 0.000000 0.000000 0.000000
-8.610600 -2.743202 11.582399 0.000000 1.000000 0.000000 1.000000 0.000000 0.000000 -6.500000 18.250000 0 0 0 0 0.000000 0.000000 0.000000 0.000000
-8.610600 -2.743202 11.429999 0.000000 1.000000 0.000000 1.000000 0.000000 0.000000 -6.500000 18.000000 0 0 0 0 0.000000 0.000000 0.000000 0.000000
-8.001000 -2.743202 11.429999 0.000000 1.000000 0.000000 1.000000 0.000000 0.000000 -6.000000 18.000000 0 0 0 0 0.000000 0.000000 0.000000 0.000000
-8.610600 -2.743202 11.582399 -1.000000 0.000000 0.000000 0.000000 1.000000 0.000000 -1.500000 18.250000 0 0 0 0 0.000000 0.000000 0.000000 0.000000
-8.610600 -3.657602 11.582399 -1.000000 0.000000 0.000000 0.000000 1.000000 0.000000 -2.250000 18.250000 0 0 0 0 0.000000 0.000000 0.000000 0.000000
-8.610600 -3.657602 11.429999 -1.000000 0.000000 0.000000 0.000000 1.000000 0.000000 -2.250000 18.000000 0 0 0 0 0.000000 0.000000 0.000000 0.000000
-8.610600 -2.743202 11.429999 -1.000000 0.000000 0.000000 0.000000 1.000000 0.000000 -1.500000 18.000000 0 0 0 0 0.000000 0.000000 0.000000 0.000000
-6.248400 -3.333747 -18.592800 0.000000 -1.000000 -0.000000 0.000000 -0.000000 1.000000 -14.500000 10.000000 0 0 0 0 0.000000 0.000000 0.000000 0.000000
-6.096000 -3.333747 -18.592800 0.000000 -1.000000 -0.000000 0.000000 -0.000000 1.000000 -14.500000 9.750000 0 0 0 0 0.000000 0.000000 0.000000 0.000000
-6.096000 -3.333747 -19.202400 0.000000 -1.000000 -0.000000 0.000000 -0.000000 1.000000 -15.000000 9.750000 0 0 0 0 0.000000 0.000000 0.000000 0.000000
-6.248400 -3.333747 -19.202400 0.000000 -1.000000 -0.000000 0.000000 -0.000000 1.000000 -15.000000 10.000000 0 0 0 0 0.000000 0.000000 0.000000 0.000000
-6.248400 -2.419347 -18.592800 0.000000 -0.000000 1.000000 0.000000 1.000000 0.000000 -1.500000 10.000000 0 0 0 0 0.000000 0.000000 0.000000 0.000000
-6.096000 -2.419347 -18.592800 0.000000 -0.000000 1.000000 0.000000 1.000000 0.000000 -1.500000 9.750000 0 0 0 0 0.000000 0.000000 0.000000 0.000000
-6.096000 -3.333747 -18.592800 0.000000 -0.000000 1.000000 0.000000 1.000000 0.000000 -2.250000 9.750000 0 0 0 0 0.000000 0.000000 0.000000 0.000000
-6.248400 -3.333747 -18.592800 0.000000 -0.000000 1.000000 0.000000 1.000000 0.000000 -2.250000 10.000000 0 0 0 0 0.000000 0.000000 0.000000 0.000000
-6.248400 -2.419347 -19.202400 0.000000 1.000000 0.000000 0.000000 -0.000000 1.000000 -15.000000 10.000000 0 0 0 0 0.000000 0.000000 0.000000 0.000000
-6.096000 -2.419347 -19.202400 0.000000 1.000000 0.000000 0.000000 -0.000000 1.000000 -15.000000 9.750000 0 0 0 0 0.000000 0.000000 0.000000 0.000000
-6.096000 -2.419347 -18.592800 0.000000 1.000000 0.000000 0.000000 -0.000000 1.000000 -14.500000 9.750000 0 0 0 0 0.000000 0.000000 0.000000 0.000000
-6.248400 -2.419347 -18.592800 0.000000 1.000000 0.000000 0.000000 -0.000000 1.000000 -14.500000 10.000000 0 0 0 0 0.000000 0.000000 0.000000 0.000000
-6.248400 -2.419347 -19.202400 0.000000 0.000000 -1.000000 0.000000 1.000000 0.000000 -1.500000 10.000000 0 0 0 0 0.000000 0.000000 0.000000 0.000000
-6.248400 -3.333747 -19.202400 0.000000 0.000000 -1.000000 0.000000 1.000000 0.000000 -2.250000 10.000000 0 0 0 0 0.000000 0.000000 0.000000 0.000000
-6.096000 -3.333747 -19.202400 0.000000 0.000000 -1.000000 0.000000 1.000000 0.000000 -2.250000 9.750000 0 0 0 0 0.000000 0.000000 0.000000 0.000000
-6.096000 -2.419347 -19.202400 0.000000 0.000000 -1.000000 0.000000 1.000000 0.000000 -1.500000 9.750000 0 0 0 0 0.000000 0.000000 0.000000 0.000000
IndexCount: 48
3 1 0
3 2 1
7 5 4
7 6 5
11 9 8
11 10 9
15 13 12
15 14 13
19 17 16
19 18 17
23 21 20
23 22 21
27 25 24
27 26 25
31 29 28
31 30 29