VertexCount: 12
-16.306799 -2.286000 -7.696202 0.000000 0.000000 -1.000000 1.000000 -0.000000 0.000000 -27.000000 3.000000 0 0 0 0 0.000000 0.000000 0.000000 0.000000
-16.306799 -4.114800 -7.696202 0.000000 0.000000 -1.000000 1.000000 -0.000000 0.000000 -27.000000 6.000000 0 0 0 0 0.000000 0.000000 0.000000 0.000000
-15.697198 -4.114800 -7.696202 0.000000 0.000000 -1.000000 1.000000 0.000001 0.000000 -26.000000 6.000000 0 0 0 0 0.000000 0.000000 0.000000 0.000000
-15.697198 -2.286000 -7.696202 0.000000 0.000000 -1.000000 1.000000 -0.000000 0.000000 -26.000000 3.000000 0 0 0 0 0.000000 0.000000 0.000000 0.000000
-17.068798 -2.286000 -7.696202 0.000000 0.000000 -1.000000 1.000000 0.000000 0.000000 -28.000000 3.000000 0 0 0 0 0.000000 0.000000 0.000000 0.000000
-17.068798 -4.114800 -7.696202 0.000000 0.000000 -1.000000 1.000000 0.000000 0.000000 -28.000000 6.000000 0 0 0 0 0.000000 0.000000 0.000000 0.000000
-16.459198 -4.114800 -7.696202 0.000000 0.000000 -1.000000 1.000000 -0.000000 0.000000 -27.000000 6.000000 0 0 0 0 0.000000 0.000000 0.000000 0.000000
-16.459198 -2.286000 -7.696202 0.000000 0.000000 -1.000000 1.000000 0.000000 0.000000 -27.000000 3.000000 0 0 0 0 0.000000 0.000000 0.000000 0.000000
-17.297398 -2.285999 -16.306801 -0.000000 -0.000000 1.000000 1.000000 0.000000 0.000000 -28.000000 3.000000 0 0 0 0 0.000000 0.000000 0.000000 0.000000
-17.297398 -4.114799 -16.306803 -0.000000 -0.000000 1.000000 1.000000 0.000000 0.000000 -28.000000 6.000000 0 0 0 0 0.000000 0.000000 0.000000 0.000000
-17.887949 -4.114799 -16.306803 -0.000000 -0.000000 1.000000 1.000000 -0.000000 0.000000 -28.968750 6.000000 0 0 0 0 0.000000 0.000000 0.000000 0.000000
-17.887949 -2.285999 -16.306801 -0.000000 -0.000000 1.000000 1.000000 0.000000 0.000000 -28.968750 3.000000 0 0 0 0 0.000000 0.000000 0.000000 0.000000
IndexCount: 18
3 2 1
3 1 0
7 6 5
7 5 4
11 10 9
11 9 8
