VertexCount: 8
-5.029201 -3.657601 6.019799 1.000000 0.000000 0.000000 -0.000000 -0.000000 1.000000 2.000000 1.000000 0 0 0 0 0.000000 0.000000 0.000000 0.000000
-5.029201 -1.219201 6.019800 1.000000 0.000000 0.000000 -0.000000 -0.000000 1.000000 2.000000 0.000000 0 0 0 0 0.000000 0.000000 0.000000 0.000000
-5.029201 -1.219201 5.714999 1.000000 0.000000 0.000000 -0.000000 -0.000000 1.000000 1.875000 0.000000 0 0 0 0 0.000000 0.000000 0.000000 0.000000
-5.029201 -1.219201 3.581399 1.000000 0.000000 0.000000 -0.000000 -0.000000 1.000000 1.000000 0.000000 0 0 0 0 0.000000 0.000000 0.000000 0.000000
-5.029200 -3.657601 3.581399 1.000000 0.000000 0.000000 -0.000000 -0.000000 1.000000 1.000000 1.000000 0 0 0 0 0.000000 0.000000 0.000000 0.000000
-5.029200 -3.657601 4.571999 1.000000 0.000000 0.000000 0.000000 0.000000 -1.000000 1.406250 1.000000 0 0 0 0 0.000000 0.000000 0.000000 0.000000
-5.029200 -3.657601 4.876799 1.000000 0.000000 0.000000 -0.000000 -0.000000 1.000000 1.531250 1.000000 0 0 0 0 0.000000 0.000000 0.000000 0.000000
-5.029201 -3.657601 5.867399 1.000000 0.000000 0.000000 0.000000 0.000000 -1.000000 1.937500 1.000000 0 0 0 0 0.000000 0.000000 0.000000 0.000000
IndexCount: 18
0 7 6
6 5 4
6 4 3
6 3 2
6 2 1
6 1 0
