VertexCount: 12
4.191002 -1.600196 -23.888700 0.000000 -1.000000 -0.000000 0.000000 -0.000000 1.000000 -98.906250 18.000000 0 0 0 0 0.000000 0.000000 0.000000 0.000000
3.962402 -1.600196 -23.888700 0.000000 -1.000000 -0.000000 0.000000 -0.000000 1.000000 -98.906250 17.062500 0 0 0 0 0.000000 0.000000 0.000000 0.000000
3.962402 -1.600196 -23.660099 0.000000 -1.000000 -0.000000 0.000000 -0.000000 1.000000 -97.968750 17.062500 0 0 0 0 0.000000 0.000000 0.000000 0.000000
4.191002 -1.600196 -23.660099 0.000000 -1.000000 -0.000000 0.000000 -0.000000 1.000000 -97.968750 18.000000 0 0 0 0 0.000000 0.000000 0.000000 0.000000
-11.429998 -1.054035 -17.983202 -0.000000 -0.262901 0.964823 1.000000 0.000000 0.000000 -36.875000 -3.645625 0 0 0 0 0.000000 0.000000 0.000000 0.000000
-11.201399 -1.054034 -17.983202 -0.000000 -0.262901 0.964823 1.000000 0.000000 0.000000 -36.125000 -3.645625 0 0 0 0 0.000000 0.000000 0.000000 0.000000
-11.201399 -1.123948 -18.002253 -0.000000 -0.262901 0.964823 1.000000 0.000000 0.000000 -36.125000 -3.875000 0 0 0 0 0.000000 0.000000 0.000000 0.000000
-11.429998 -1.123948 -18.002253 -0.000000 -0.262901 0.964823 1.000000 0.000000 0.000000 -36.875000 -3.875000 0 0 0 0 0.000000 0.000000 0.000000 0.000000
-12.268198 -1.054035 -17.983202 -0.000000 -0.262902 0.964822 1.000000 0.000000 0.000000 -39.875000 -3.645625 0 0 0 0 0.000000 0.000000 0.000000 0.000000
-12.039599 -1.054035 -17.983202 -0.000000 -0.262902 0.964822 1.000000 0.000000 0.000000 -39.125000 -3.645625 0 0 0 0 0.000000 0.000000 0.000000 0.000000
-12.039599 -1.123948 -18.002253 -0.000000 -0.262902 0.964822 1.000000 0.000000 0.000000 -39.125000 -3.875000 0 0 0 0 0.000000 0.000000 0.000000 0.000000
-12.268198 -1.123948 -18.002253 -0.000000 -0.262902 0.964822 1.000000 0.000000 0.000000 -39.875000 -3.875000 0 0 0 0 0.000000 0.000000 0.000000 0.000000
IndexCount: 18
3 2 1
3 1 0
7 6 5
7 5 4
11 10 9
11 9 8
