VertexCount: 4
-6.400799 -3.409949 -7.581901 0.000001 -1.000000 -0.000000 1.000000 0.000001 -0.000001 -9.458334 11.074405 0 0 0 0 0.000000 0.000000 0.000000 0.000000
-6.515100 -3.409949 -7.772401 0.000001 -1.000000 -0.000000 1.000000 0.000001 -0.000001 -9.636905 11.372025 0 0 0 0 0.000000 0.000000 0.000000 0.000000
-6.858000 -3.409949 -7.581901 0.000001 -1.000000 -0.000000 1.000000 0.000001 0.000001 -10.172619 11.074405 0 0 0 0 0.000000 0.000000 0.000000 0.000000
-6.743699 -3.409949 -7.391401 0.000001 -1.000000 -0.000000 1.000000 0.000001 -0.000001 -9.994048 10.776786 0 0 0 0 0.000000 0.000000 0.000000 0.000000
IndexCount: 6
3 2 1
3 1 0
