VertexCount: 22
13.639799 -1.676400 5.867401 -0.000000 1.000000 0.000000 1.000000 0.000000 -0.000000 44.750000 -18.750000 0 0 0 0 0.000000 0.000000 0.000000 0.000000
13.639799 -1.676400 6.172202 -0.000000 1.000000 0.000000 1.000000 0.000000 -0.000000 44.750000 -19.750000 0 0 0 0 0.000000 0.000000 0.000000 0.000000
13.335000 -1.676400 6.172202 -0.000000 1.000000 0.000000 1.000000 0.000000 0.000000 43.750000 -19.750000 0 0 0 0 0.000000 0.000000 0.000000 0.000000
13.335000 -1.676400 5.867401 -0.000000 1.000000 0.000000 1.000000 0.000000 -0.000000 43.750000 -18.750000 0 0 0 0 0.000000 0.000000 0.000000 0.000000
9.372600 -1.676400 5.867400 -0.000000 1.000000 0.000000 1.000000 0.000000 0.000000 30.750000 -18.750000 0 0 0 0 0.000000 0.000000 0.000000 0.000000
9.372600 -1.676400 6.172201 -0.000000 1.000000 0.000000 1.000000 0.000000 0.000000 30.750000 -19.750000 0 0 0 0 0.000000 0.000000 0.000000 0.000000
9.067800 -1.676400 6.172201 -0.000000 1.000000 0.000000 1.000000 0.000000 0.000000 29.750000 -19.750000 0 0 0 0 0.000000 0.000000 0.000000 0.000000
9.067800 -1.676400 5.867400 -0.000000 1.000000 0.000000 1.000000 0.000000 0.000000 29.750000 -18.750000 0 0 0 0 0.000000 0.000000 0.000000 0.000000
-8.381998 -1.066797 -20.878798 -0.000000 1.000000 0.000000 1.000000 0.000000 0.000000 -30.000000 67.500000 0 0 0 0 0.000000 0.000000 0.000000 0.000000
-8.686798 -1.066797 -20.878798 -0.000000 1.000000 0.000000 1.000000 0.000000 0.000000 -31.000000 67.500000 0 0 0 0 0.000000 0.000000 0.000000 0.000000
-8.686798 -1.066797 -21.183598 -0.000000 1.000000 0.000000 1.000000 0.000000 -0.000000 -31.000000 68.500000 0 0 0 0 0.000000 0.000000 0.000000 0.000000
-8.381998 -1.066797 -21.183598 -0.000000 1.000000 0.000000 1.000000 0.000000 0.000000 -30.000000 68.500000 0 0 0 0 0.000000 0.000000 0.000000 0.000000
-10.515599 -1.066797 -20.878798 -0.000000 1.000000 0.000000 1.000000 0.000000 -0.000000 -37.000000 67.500000 0 0 0 0 0.000000 0.000000 0.000000 0.000000
-10.629898 -1.066797 -20.878798 -0.000000 1.000000 0.000000 1.000000 0.000000 -0.000000 -37.375000 67.500000 0 0 0 0 0.000000 0.000000 0.000000 0.000000
-10.629897 -1.066797 -21.183598 -0.000000 1.000000 0.000000 1.000000 0.000000 0.000000 -37.375000 68.500000 0 0 0 0 0.000000 0.000000 0.000000 0.000000
-10.515598 -1.066797 -21.183598 -0.000000 1.000000 0.000000 1.000000 0.000000 -0.000000 -37.000000 68.500000 0 0 0 0 0.000000 0.000000 0.000000 0.000000
-10.820399 -1.066797 -20.878798 -0.000000 1.000000 0.000000 1.000000 0.000000 0.000000 -38.000000 67.500000 0 0 0 0 0.000000 0.000000 0.000000 0.000000
-10.820397 -1.066797 -21.183598 -0.000000 1.000000 0.000000 1.000000 0.000000 0.000000 -38.000000 68.500000 0 0 0 0 0.000000 0.000000 0.000000 0.000000
-11.582398 -1.066798 -19.812002 -0.000000 1.000000 0.000000 1.000000 0.000000 0.000000 -40.500000 64.000000 0 0 0 0 0.000000 0.000000 0.000000 0.000000
-11.887199 -1.066798 -19.812002 -0.000000 1.000000 0.000000 1.000000 0.000000 0.000000 -41.500000 64.000000 0 0 0 0 0.000000 0.000000 0.000000 0.000000
-11.887199 -1.066798 -20.116802 -0.000000 1.000000 0.000000 1.000000 0.000000 -0.000000 -41.500000 65.000000 0 0 0 0 0.000000 0.000000 0.000000 0.000000
-11.582398 -1.066798 -20.116802 -0.000000 1.000000 0.000000 1.000000 0.000000 0.000000 -40.500000 65.000000 0 0 0 0 0.000000 0.000000 0.000000 0.000000
IndexCount: 36
3 1 0
3 2 1
7 5 4
7 6 5
11 9 8
11 10 9
15 13 12
15 14 13
14 16 13
14 17 16
21 19 18
21 20 19
