VertexCount: 433
-6.134101 -1.524003 13.620750 0.000000 -1.000000 -0.000000 1.000000 0.000000 0.000001 -2.390625 -11.671875 0 0 0 0 0.000000 0.000000 0.000000 0.000000
-7.010401 -1.524003 13.866113 0.000000 -1.000000 -0.000000 1.000000 0.000000 0.000001 -2.750000 -11.873125 0 0 0 0 0.000000 0.000000 0.000000 0.000000
-7.010401 -1.524003 13.868400 0.000000 -1.000000 -0.000000 0.000000 0.000000 -1.000000 -2.750000 -11.875000 0 0 0 0 0.000000 0.000000 0.000000 0.000000
-7.010401 -1.524003 14.520670 0.000000 -1.000000 -0.000000 1.000000 0.000000 0.000000 -2.750000 -12.410000 0 0 0 0 0.000000 0.000000 0.000000 0.000000
-5.429252 -1.524003 12.896851 0.000000 -1.000000 -0.000000 1.000000 0.000000 -0.000002 -2.101562 -11.078125 0 0 0 0 0.000000 0.000000 0.000000 0.000000
-7.010401 -1.524003 14.630398 0.000000 -1.000000 -0.000000 1.000000 0.000000 -0.000002 -2.750000 -12.500000 0 0 0 0 0.000000 0.000000 0.000000 0.000000
-6.400801 -1.524003 14.630399 0.000000 -1.000000 -0.000000 1.000000 0.000000 0.000002 -2.500000 -12.500000 0 0 0 0 0.000000 0.000000 0.000000 0.000000
-5.854447 -1.524003 14.630399 0.000000 -1.000000 -0.000000 1.000000 0.000000 0.000000 -2.275938 -12.500000 0 0 0 0 0.000000 0.000000 0.000000 0.000000
-0.304801 -1.524002 11.887200 0.000000 -1.000000 -0.000000 1.000000 0.000000 0.000000 0.000000 -10.250000 0 0 0 0 0.000000 0.000000 0.000000 0.000000
-0.914401 -1.524002 11.887200 0.000000 -1.000000 -0.000000 1.000000 0.000000 0.000000 -0.250000 -10.250000 0 0 0 0 0.000000 0.000000 0.000000 0.000000
-1.587247 -1.524002 11.887200 0.000000 -1.000000 -0.000000 1.000000 0.000000 -0.000000 -0.525938 -10.250000 0 0 0 0 0.000000 0.000000 0.000000 0.000000
-1.587247 -1.524003 14.630399 0.000000 -1.000000 -0.000000 1.000000 0.000000 0.000000 -0.525938 -12.500000 0 0 0 0 0.000000 0.000000 0.000000 0.000000
-0.304801 -1.524003 14.630399 0.000000 -1.000000 -0.000000 1.000000 0.000000 -0.000000 0.000000 -12.500000 0 0 0 0 0.000000 0.000000 0.000000 0.000000
-5.181602 -1.524003 11.887200 0.000000 -1.000000 -0.000000 1.000000 0.000000 0.000000 -2.000000 -10.250000 0 0 0 0 0.000000 0.000000 0.000000 0.000000
-3.962401 -1.524003 14.630399 0.000000 -1.000000 -0.000000 1.000000 0.000000 0.000000 -1.500000 -12.500000 0 0 0 0 0.000000 0.000000 0.000000 0.000000
-2.743201 -1.524003 14.630399 0.000000 -1.000000 -0.000000 1.000000 0.000000 0.000000 -1.000000 -12.500000 0 0 0 0 0.000000 0.000000 0.000000 0.000000
-2.743201 -1.524003 16.154400 0.000000 -1.000000 -0.000000 1.000000 0.000000 -0.000000 -1.000000 -13.750000 0 0 0 0 0.000000 0.000000 0.000000 0.000000
-0.304801 -1.524003 16.154400 0.000000 -1.000000 -0.000000 1.000000 0.000000 -0.000000 0.000000 -13.750000 0 0 0 0 0.000000 0.000000 0.000000 0.000000
-2.743201 -1.524003 17.373600 0.000000 -1.000000 -0.000000 1.000000 0.000000 -0.000000 -1.000000 -14.750000 0 0 0 0 0.000000 0.000000 0.000000 0.000000
-1.524001 -1.524003 17.373600 0.000000 -1.000000 -0.000000 1.000000 0.000000 -0.000000 -0.500000 -14.750000 0 0 0 0 0.000000 0.000000 0.000000 0.000000
-0.304801 -1.524003 17.373600 0.000000 -1.000000 -0.000000 1.000000 0.000000 0.000000 0.000000 -14.750000 0 0 0 0 0.000000 0.000000 0.000000 0.000000
-3.962401 -1.524003 16.154400 0.000000 -1.000000 -0.000000 1.000000 0.000000 -0.000000 -1.500000 -13.750000 0 0 0 0 0.000000 0.000000 0.000000 0.000000
-6.400801 -1.524003 16.154400 0.000000 -1.000000 -0.000000 1.000000 0.000000 0.000000 -2.500000 -13.750000 0 0 0 0 0.000000 0.000000 0.000000 0.000000
-7.010401 -1.524003 16.154398 0.000000 -1.000000 -0.000000 1.000000 0.000000 0.000002 -2.750000 -13.750000 0 0 0 0 0.000000 0.000000 0.000000 0.000000
-7.010401 -1.524004 17.373598 0.000000 -1.000000 -0.000000 1.000000 0.000000 -0.000000 -2.750000 -14.750000 0 0 0 0 0.000000 0.000000 0.000000 0.000000
-6.362701 -1.524003 17.373600 0.000000 -1.000000 -0.000000 1.000000 0.000000 0.000002 -2.484375 -14.750000 0 0 0 0 0.000000 0.000000 0.000000 0.000000
-3.962401 -1.524003 17.373600 0.000000 -1.000000 -0.000000 1.000000 0.000000 0.000000 -1.500000 -14.750000 0 0 0 0 0.000000 0.000000 0.000000 0.000000
-3.962401 -1.524003 14.630399 0.000000 -1.000000 -0.000000 1.000000 0.000000 0.000000 -1.500000 -12.500000 0 0 0 0 0.000000 0.000000 0.000000 0.000000
-5.854447 -1.524003 14.630399 0.000000 -1.000000 -0.000000 1.000000 0.000000 0.000000 -2.275938 -12.500000 0 0 0 0 0.000000 0.000000 0.000000 0.000000
-6.400801 -1.524003 14.630399 0.000000 -1.000000 -0.000000 1.000000 0.000000 0.000000 -2.500000 -12.500000 0 0 0 0 0.000000 0.000000 0.000000 0.000000
-7.620001 -1.524003 14.630398 0.000000 -1.000000 -0.000000 1.000000 0.000000 0.000000 -3.000000 -12.500000 0 0 0 0 0.000000 0.000000 0.000000 0.000000
-10.058401 -1.524003 14.630398 0.000000 -1.000000 -0.000000 1.000000 0.000000 -0.000000 -4.000000 -12.500000 0 0 0 0 0.000000 0.000000 0.000000 0.000000
-10.058401 -1.524004 16.154398 0.000000 -1.000000 -0.000000 1.000000 0.000000 0.000000 -4.000000 -13.750000 0 0 0 0 0.000000 0.000000 0.000000 0.000000
-7.620001 -1.524003 16.154398 0.000000 -1.000000 -0.000000 1.000000 0.000000 0.000000 -3.000000 -13.750000 0 0 0 0 0.000000 0.000000 0.000000 0.000000
-7.010401 -1.524003 16.154398 0.000000 -1.000000 -0.000000 1.000000 0.000000 0.000000 -2.750000 -13.750000 0 0 0 0 0.000000 0.000000 0.000000 0.000000
-7.620001 -1.524003 16.154398 0.000000 -1.000000 -0.000000 1.000000 0.000000 0.000000 -3.000000 -13.750000 0 0 0 0 0.000000 0.000000 0.000000 0.000000
-10.058401 -1.524004 16.154398 0.000000 -1.000000 -0.000000 1.000000 0.000000 0.000000 -4.000000 -13.750000 0 0 0 0 0.000000 0.000000 0.000000 0.000000
-10.629901 -1.524004 16.154398 0.000000 -1.000000 -0.000000 1.000000 0.000000 -0.000000 -4.234375 -13.750000 0 0 0 0 0.000000 0.000000 0.000000 0.000000
-10.629901 -1.524004 17.373598 0.000000 -1.000000 -0.000000 1.000000 0.000000 0.000000 -4.234375 -14.750000 0 0 0 0 0.000000 0.000000 0.000000 0.000000
-7.010401 -1.524003 13.868400 0.000000 -1.000000 -0.000000 1.000000 0.000000 0.000001 -2.750000 -11.875000 0 0 0 0 0.000000 0.000000 0.000000 0.000000
-10.629901 -1.524003 13.868400 0.000000 -1.000000 -0.000000 1.000000 0.000000 -0.000000 -4.234375 -11.875000 0 0 0 0 0.000000 0.000000 0.000000 0.000000
-10.629901 -1.524003 14.630398 0.000000 -1.000000 -0.000000 1.000000 0.000000 0.000000 -4.234375 -12.500000 0 0 0 0 0.000000 0.000000 0.000000 0.000000
-7.010401 -1.524003 14.520670 0.000000 -1.000000 -0.000000 -0.000000 -0.000000 1.000000 -2.750000 -12.410000 0 0 0 0 0.000000 0.000000 0.000000 0.000000
-0.304801 -1.524002 11.582399 0.000000 -1.000000 -0.000000 1.000000 0.000000 0.000000 0.000000 -10.000000 0 0 0 0 0.000000 0.000000 0.000000 0.000000
-0.914401 -1.524002 11.582399 0.000000 -1.000000 -0.000000 1.000000 0.000000 0.000000 -0.250000 -10.000000 0 0 0 0 0.000000 0.000000 0.000000 0.000000
-5.181602 -1.524002 11.582399 0.000000 -1.000000 -0.000000 1.000000 0.000000 0.000000 -2.000000 -10.000000 0 0 0 0 0.000000 0.000000 0.000000 0.000000
-4.267200 -1.066800 -3.543301 0.000000 -1.000000 -0.000000 -0.000000 -0.000000 1.000000 -1.453125 -3.828125 0 0 0 0 0.000000 0.000000 0.000000 0.000000
-4.267200 -1.066800 -1.219200 0.000000 -1.000000 -0.000000 -0.000000 -0.000000 1.000000 -0.500000 -3.828125 0 0 0 0 0.000000 0.000000 0.000000 0.000000
-3.048000 -1.066800 -1.219200 0.000000 -1.000000 -0.000000 -0.000000 -0.000000 1.000000 -0.500000 -2.828125 0 0 0 0 0.000000 0.000000 0.000000 0.000000
-3.048000 -1.066800 -3.543301 0.000000 -1.000000 -0.000000 -0.000000 -0.000000 1.000000 -1.453125 -2.828125 0 0 0 0 0.000000 0.000000 0.000000 0.000000
-4.267200 -1.066800 -3.543301 0.000000 -1.000000 -0.000000 1.000000 0.000000 0.000000 -1.453125 -3.828125 0 0 0 0 0.000000 0.000000 0.000000 0.000000
-5.714999 -1.066800 -3.543301 0.000000 -1.000000 -0.000000 1.000000 0.000000 0.000000 -1.453125 -5.015625 0 0 0 0 0.000000 0.000000 0.000000 0.000000
-7.238999 -1.066800 -3.543301 0.000000 -1.000000 -0.000000 1.000000 0.000000 0.000000 -1.453125 -6.265625 0 0 0 0 0.000000 0.000000 0.000000 0.000000
-8.534399 -1.066800 -3.543301 0.000000 -1.000000 -0.000000 -1.000000 -0.000000 -0.000000 -1.453125 -7.328125 0 0 0 0 0.000000 0.000000 0.000000 0.000000
-8.534400 -1.066800 -1.219201 0.000000 -1.000000 -0.000000 -0.000000 -0.000000 1.000000 -0.500000 -7.328125 0 0 0 0 0.000000 0.000000 0.000000 0.000000
-10.629900 1.371599 -1.219201 0.000000 -1.000000 -0.000000 1.000000 0.000000 0.000000 -4.234375 0.500000 0 0 0 0 0.000000 0.000000 0.000000 0.000000
-8.839200 1.371599 -1.219200 0.000000 -1.000000 -0.000000 1.000000 0.000000 0.000000 -3.500000 0.500000 0 0 0 0 0.000000 0.000000 0.000000 0.000000
-8.839200 1.371599 -1.371601 0.000000 -1.000000 -0.000000 1.000000 0.000000 0.000000 -3.500000 0.625000 0 0 0 0 0.000000 0.000000 0.000000 0.000000
-10.629900 1.371599 -1.371601 0.000000 -1.000000 -0.000000 1.000000 0.000000 0.000000 -4.234375 0.625000 0 0 0 0 0.000000 0.000000 0.000000 0.000000
-10.629900 1.371600 -3.543301 0.000000 -1.000000 -0.000000 1.000000 0.000000 0.000000 -4.234375 2.406250 0 0 0 0 0.000000 0.000000 0.000000 0.000000
-10.629900 1.371599 -2.286001 0.000000 -1.000000 -0.000000 1.000000 0.000000 0.000000 -4.234375 1.375000 0 0 0 0 0.000000 0.000000 0.000000 0.000000
-8.839200 1.371600 -2.286001 0.000000 -1.000000 -0.000000 1.000000 0.000000 0.000000 -3.500000 1.375000 0 0 0 0 0.000000 0.000000 0.000000 0.000000
-8.839199 1.371600 -3.543301 0.000000 -1.000000 -0.000000 1.000000 0.000000 0.000000 -3.500000 2.406250 0 0 0 0 0.000000 0.000000 0.000000 0.000000
-7.238999 -1.066800 -3.543301 0.000000 -1.000000 -0.000000 -0.000000 -0.000000 1.000000 -1.453125 -6.265625 0 0 0 0 0.000000 0.000000 0.000000 0.000000
-7.238999 -1.066800 -3.657601 0.000000 -1.000000 -0.000000 -0.000000 -0.000000 1.000000 -1.500000 -6.265625 0 0 0 0 0.000000 0.000000 0.000000 0.000000
-7.238999 -1.066800 -4.876801 0.000000 -1.000000 -0.000000 -0.000000 -0.000000 1.000000 -2.000000 -6.265625 0 0 0 0 0.000000 0.000000 0.000000 0.000000
-7.238999 -1.066800 -6.553201 0.000000 -1.000000 -0.000000 0.000000 0.000000 -1.000000 -2.687500 -6.265625 0 0 0 0 0.000000 0.000000 0.000000 0.000000
-8.534399 -1.066800 -6.553201 0.000000 -1.000000 -0.000000 -0.000000 -0.000000 1.000000 -2.687500 -7.328125 0 0 0 0 0.000000 0.000000 0.000000 0.000000
-8.534399 -1.066800 -4.267201 0.000000 -1.000000 -0.000000 -0.000000 -0.000000 1.000000 -1.750000 -7.328125 0 0 0 0 0.000000 0.000000 0.000000 0.000000
-8.534399 -1.066800 -3.543301 0.000000 -1.000000 -0.000000 0.000000 -0.000000 1.000000 -1.453125 -7.328125 0 0 0 0 0.000000 0.000000 0.000000 0.000000
-7.238999 -1.066800 -6.553201 0.000000 -1.000000 -0.000000 0.000000 -0.000000 1.000000 -2.687500 -6.265625 0 0 0 0 0.000000 0.000000 0.000000 0.000000
-7.238999 -1.066799 -7.315200 0.000000 -1.000000 -0.000000 0.000000 -0.000000 1.000000 -3.000000 -6.265625 0 0 0 0 0.000000 0.000000 0.000000 0.000000
-7.238999 -1.066799 -8.534400 0.000000 -1.000000 -0.000000 -0.000000 -0.000000 1.000000 -3.500000 -6.265625 0 0 0 0 0.000000 0.000000 0.000000 0.000000
-7.238999 -1.066799 -10.820401 0.000000 -1.000000 -0.000000 -0.000000 -0.000000 1.000000 -4.437500 -6.265625 0 0 0 0 0.000000 0.000000 0.000000 0.000000
-8.534399 -1.066799 -10.820401 0.000000 -1.000000 -0.000000 0.000000 -0.000000 1.000000 -4.437500 -7.328125 0 0 0 0 0.000000 0.000000 0.000000 0.000000
-8.534399 -1.066799 -10.058401 0.000000 -1.000000 -0.000000 -0.000001 -0.000000 1.000000 -4.125000 -7.328125 0 0 0 0 0.000000 0.000000 0.000000 0.000000
-8.534399 -1.066799 -8.229601 0.000000 -1.000000 -0.000000 -0.000000 -0.000000 1.000000 -3.375000 -7.328125 0 0 0 0 0.000000 0.000000 0.000000 0.000000
-8.534399 -1.066800 -7.315200 0.000000 -1.000000 -0.000000 -0.000000 -0.000000 1.000000 -3.000000 -7.328125 0 0 0 0 0.000000 0.000000 0.000000 0.000000
-5.714999 -1.066799 -8.534400 0.000000 -1.000000 -0.000000 -0.000000 -0.000000 1.000000 -3.500000 -5.015625 0 0 0 0 0.000000 0.000000 0.000000 0.000000
-5.714999 -1.066799 -10.820400 0.000000 -1.000000 -0.000000 -0.000000 -0.000000 1.000000 -4.437500 -5.015625 0 0 0 0 0.000000 0.000000 0.000000 0.000000
-6.057899 -1.066799 -10.820400 0.000000 -1.000000 -0.000000 -0.000000 -0.000000 1.000000 -4.437500 -5.296875 0 0 0 0 0.000000 0.000000 0.000000 0.000000
-6.515099 -1.066799 -10.820400 0.000000 -1.000000 -0.000000 -0.000000 -0.000000 1.000000 -4.437500 -5.671875 0 0 0 0 0.000000 0.000000 0.000000 0.000000
-3.048000 -1.066799 -5.943600 0.000000 -1.000000 -0.000000 -0.000000 -0.000000 1.000000 -2.437500 -2.828125 0 0 0 0 0.000000 0.000000 0.000000 0.000000
-3.048000 -1.066799 -6.553200 0.000000 -1.000000 -0.000000 -0.000000 -0.000000 1.000000 -2.687500 -2.828125 0 0 0 0 0.000000 0.000000 0.000000 0.000000
-5.714999 -1.066799 -6.553201 0.000000 -1.000000 -0.000000 -0.000000 -0.000000 1.000000 -2.687500 -5.015625 0 0 0 0 0.000000 0.000000 0.000000 0.000000
-5.714999 -1.066800 -4.876801 0.000000 -1.000000 -0.000000 0.000000 -0.000000 1.000000 -2.000000 -5.015625 0 0 0 0 0.000000 0.000000 0.000000 0.000000
-5.714999 -1.066800 -3.657601 0.000000 -1.000000 -0.000000 0.000000 -0.000000 1.000000 -1.500000 -5.015625 0 0 0 0 0.000000 0.000000 0.000000 0.000000
-5.714999 -1.066800 -3.543301 0.000000 -1.000000 -0.000000 0.000000 -0.000000 1.000000 -1.453125 -5.015625 0 0 0 0 0.000000 0.000000 0.000000 0.000000
-4.267200 -1.066800 -3.543301 0.000000 -1.000000 -0.000000 -1.000000 -0.000000 -0.000000 -1.453125 -3.828125 0 0 0 0 0.000000 0.000000 0.000000 0.000000
-3.048000 -1.066799 -8.382000 0.000000 -1.000000 -0.000000 0.000000 -0.000000 1.000000 -3.437500 -2.828125 0 0 0 0 0.000000 0.000000 0.000000 0.000000
-3.047999 -1.066798 -10.820400 0.000000 -1.000000 -0.000000 -0.000000 -0.000000 1.000000 -4.437500 -2.828125 0 0 0 0 0.000000 0.000000 0.000000 0.000000
-5.714999 -1.066799 -7.315200 0.000000 -1.000000 -0.000000 -0.000000 -0.000000 1.000000 -3.000000 -5.015625 0 0 0 0 0.000000 0.000000 0.000000 0.000000
-5.714999 -1.066800 -4.876801 0.000000 -1.000000 -0.000000 0.000000 -0.000000 1.000000 -2.000000 -5.015625 0 0 0 0 0.000000 0.000000 0.000000 0.000000
-5.714999 -1.066799 -6.553201 0.000000 -1.000000 -0.000000 0.000000 -0.000000 1.000000 -2.687500 -5.015625 0 0 0 0 0.000000 0.000000 0.000000 0.000000
-5.714999 -1.066799 -7.315200 0.000000 -1.000000 -0.000000 0.000000 -0.000000 1.000000 -3.000000 -5.015625 0 0 0 0 0.000000 0.000000 0.000000 0.000000
-7.238999 -1.066800 -4.876801 0.000000 -1.000000 -0.000000 -0.000000 -0.000000 1.000000 -2.000000 -6.265625 0 0 0 0 0.000000 0.000000 0.000000 0.000000
-7.238999 -1.066800 -3.657601 0.000000 -1.000000 -0.000000 -0.000000 -0.000000 1.000000 -1.500000 -6.265625 0 0 0 0 0.000000 0.000000 0.000000 0.000000
-7.238999 -1.066800 -3.543301 0.000000 -1.000000 -0.000000 0.000000 -0.000000 1.000000 -1.453125 -6.265625 0 0 0 0 0.000000 0.000000 0.000000 0.000000
-10.629898 1.371600 -7.924801 0.000000 -1.000000 -0.000000 1.000000 0.000000 0.000000 -4.234375 6.000000 0 0 0 0 0.000000 0.000000 0.000000 0.000000
-8.839199 1.371601 -7.924800 0.000000 -1.000000 -0.000000 1.000000 0.000000 0.000000 -3.500000 6.000000 0 0 0 0 0.000000 0.000000 0.000000 0.000000
-8.839199 1.371601 -9.829801 0.000000 -1.000000 -0.000000 1.000000 0.000000 0.000000 -3.500000 7.562500 0 0 0 0 0.000000 0.000000 0.000000 0.000000
-8.839198 1.371601 -12.192001 0.000000 -1.000000 -0.000000 1.000000 0.000000 0.000001 -3.500000 9.500000 0 0 0 0 0.000000 0.000000 0.000000 0.000000
-9.143999 1.371601 -12.192001 0.000000 -1.000000 -0.000000 1.000000 0.000000 0.000000 -3.625000 9.500000 0 0 0 0 0.000000 0.000000 0.000000 0.000000
-10.629898 1.371601 -12.192001 0.000000 -1.000000 -0.000000 1.000000 0.000000 -0.000000 -4.234375 9.500000 0 0 0 0 0.000000 0.000000 0.000000 0.000000
-8.839198 1.371602 -14.097000 0.000000 -1.000000 -0.000000 1.000000 0.000000 0.000000 -3.500000 11.062500 0 0 0 0 0.000000 0.000000 0.000000 0.000000
-9.143999 1.371602 -14.097000 0.000000 -1.000000 -0.000000 1.000000 0.000000 0.000000 -3.625000 11.062500 0 0 0 0 0.000000 0.000000 0.000000 0.000000
-10.629898 1.371601 -14.097000 0.000000 -1.000000 -0.000000 1.000000 0.000000 0.000000 -4.234375 11.062500 0 0 0 0 0.000000 0.000000 0.000000 0.000000
-10.629898 1.371601 -13.106401 0.000000 -1.000000 -0.000000 1.000000 0.000000 0.000000 -4.234375 10.250000 0 0 0 0 0.000000 0.000000 0.000000 0.000000
-10.058399 1.371601 -13.106401 0.000000 -1.000000 -0.000000 1.000000 0.000000 0.000000 -4.000000 10.250000 0 0 0 0 0.000000 0.000000 0.000000 0.000000
-10.058399 1.371601 -14.097000 0.000000 -1.000000 -0.000000 1.000000 -0.000000 -0.000000 -4.000000 11.062500 0 0 0 0 0.000000 0.000000 0.000000 0.000000
-10.210798 1.371601 -14.097000 0.000000 -1.000000 -0.000000 1.000000 0.000000 0.000000 -4.062500 11.062500 0 0 0 0 0.000000 0.000000 0.000000 0.000000
-8.839199 1.371600 -7.010401 0.000000 -1.000000 -0.000000 1.000000 0.000000 0.000000 -3.500000 5.250000 0 0 0 0 0.000000 0.000000 0.000000 0.000000
-10.629898 1.371600 -7.010401 0.000000 -1.000000 -0.000000 1.000000 0.000000 -0.000000 -4.234375 5.250000 0 0 0 0 0.000000 0.000000 0.000000 0.000000
-10.210798 1.371601 -14.097000 -0.000000 -1.000000 -0.000000 1.000000 -0.000000 -0.000000 -4.062500 11.062500 0 0 0 0 0.000000 0.000000 0.000000 0.000000
-10.058398 1.371602 -17.640301 -0.000000 -1.000000 -0.000000 1.000000 -0.000000 -0.000000 -4.000000 13.968750 0 0 0 0 0.000000 0.000000 0.000000 0.000000
-10.058398 1.371602 -17.678400 -0.000000 -1.000000 -0.000000 1.000000 -0.000000 -0.000342 -4.000000 14.000000 0 0 0 0 0.000000 0.000000 0.000000 0.000000
-10.210798 1.371602 -17.678400 -0.000000 -1.000000 -0.000000 1.000000 -0.000000 -0.000000 -4.062500 14.000000 0 0 0 0 0.000000 0.000000 0.000000 0.000000
-10.210798 1.371602 -17.373600 -0.000000 -1.000000 -0.000000 0.000000 0.000000 -1.000000 -4.062500 13.750000 0 0 0 0 0.000000 0.000000 0.000000 0.000000
-9.143998 1.371602 -17.640301 0.000000 -1.000000 -0.000000 1.000000 0.000000 0.000085 -3.625000 13.968750 0 0 0 0 0.000000 0.000000 0.000000 0.000000
-9.143998 1.371602 -17.678400 0.000000 -1.000000 -0.000000 1.000000 0.000000 -0.000000 -3.625000 14.000000 0 0 0 0 0.000000 0.000000 0.000000 0.000000
-8.839198 1.371602 -17.678400 0.000000 -1.000000 -0.000000 1.000000 0.000000 0.000000 -3.500000 14.000000 0 0 0 0 0.000000 0.000000 0.000000 0.000000
-10.210798 1.371602 -17.373600 0.000000 -1.000000 -0.000000 1.000000 0.000000 0.000000 -4.062500 13.750000 0 0 0 0 0.000000 0.000000 0.000000 0.000000
-10.629898 1.371602 -17.373600 0.000000 -1.000000 -0.000000 1.000000 0.000000 -0.000000 -4.234375 13.750000 0 0 0 0 0.000000 0.000000 0.000000 0.000000
-10.629898 1.371601 -14.249401 0.000000 -1.000000 -0.000000 -0.000000 0.000000 -1.000000 -4.234375 11.187500 0 0 0 0 0.000000 0.000000 0.000000 0.000000
-10.629901 -1.524003 13.868400 0.000000 -1.000000 -0.000000 1.000000 0.000000 0.000000 -4.234375 -11.875000 0 0 0 0 0.000000 0.000000 0.000000 0.000000
-11.887202 -1.524003 13.868400 0.000000 -1.000000 -0.000000 1.000000 0.000000 0.000000 -4.750000 -11.875000 0 0 0 0 0.000000 0.000000 0.000000 0.000000
-12.496801 -1.524003 13.868400 0.000000 -1.000000 -0.000000 1.000000 0.000000 0.000000 -5.000000 -11.875000 0 0 0 0 0.000000 0.000000 0.000000 0.000000
-13.106401 -1.524003 13.868400 0.000000 -1.000000 -0.000000 1.000000 0.000000 0.000000 -5.250000 -11.875000 0 0 0 0 0.000000 0.000000 0.000000 0.000000
-13.106401 -1.524004 14.630398 0.000000 -1.000000 -0.000000 1.000000 0.000000 0.000000 -5.250000 -12.500000 0 0 0 0 0.000000 0.000000 0.000000 0.000000
-11.277601 -1.524003 14.630398 0.000000 -1.000000 -0.000000 1.000000 0.000000 0.000000 -4.500000 -12.500000 0 0 0 0 0.000000 0.000000 0.000000 0.000000
-14.935201 -1.524004 13.868400 0.000000 -1.000000 -0.000000 1.000000 0.000000 -0.000000 -6.000000 -11.875000 0 0 0 0 0.000000 0.000000 0.000000 0.000000
-17.373600 -1.524004 13.868400 0.000000 -1.000000 -0.000000 1.000000 0.000000 -0.000000 -7.000000 -11.875000 0 0 0 0 0.000000 0.000000 0.000000 0.000000
-17.373600 -1.524004 14.520670 0.000000 -1.000000 -0.000000 1.000000 -0.000000 0.000001 -7.000000 -12.410000 0 0 0 0 0.000000 0.000000 0.000000 0.000000
-17.373600 -1.524004 14.630398 0.000000 -1.000000 -0.000000 1.000000 0.000000 0.000001 -7.000000 -12.500000 0 0 0 0 0.000000 0.000000 0.000000 0.000000
-14.935201 -1.524004 14.630398 0.000000 -1.000000 -0.000000 1.000000 0.000000 -0.000000 -6.000000 -12.500000 0 0 0 0 0.000000 0.000000 0.000000 0.000000
-13.716002 -1.524004 14.630398 0.000000 -1.000000 -0.000000 1.000000 0.000000 -0.000000 -5.500000 -12.500000 0 0 0 0 0.000000 0.000000 0.000000 0.000000
-11.277601 -1.524004 16.154398 0.000000 -1.000000 -0.000000 1.000000 0.000000 -0.000000 -4.500000 -13.750000 0 0 0 0 0.000000 0.000000 0.000000 0.000000
-13.106401 -1.524004 16.154398 0.000000 -1.000000 -0.000000 1.000000 0.000000 -0.000000 -5.250000 -13.750000 0 0 0 0 0.000000 0.000000 0.000000 0.000000
-13.106401 -1.524004 17.373598 0.000000 -1.000000 -0.000000 1.000000 0.000000 -0.000000 -5.250000 -14.750000 0 0 0 0 0.000000 0.000000 0.000000 0.000000
-13.716002 -1.524004 16.154398 0.000000 -1.000000 -0.000000 1.000000 0.000000 0.000000 -5.500000 -13.750000 0 0 0 0 0.000000 0.000000 0.000000 0.000000
-14.935201 -1.524004 16.154398 0.000000 -1.000000 -0.000000 1.000000 0.000000 0.000000 -6.000000 -13.750000 0 0 0 0 0.000000 0.000000 0.000000 0.000000
-17.373600 -1.524004 16.154398 0.000000 -1.000000 -0.000000 1.000000 0.000000 0.000000 -7.000000 -13.750000 0 0 0 0 0.000000 0.000000 0.000000 0.000000
-17.373600 -1.524004 17.373598 0.000000 -1.000000 -0.000000 1.000000 0.000000 0.000000 -7.000000 -14.750000 0 0 0 0 0.000000 0.000000 0.000000 0.000000
-14.630400 -1.524004 17.373598 0.000000 -1.000000 -0.000000 1.000000 0.000000 -0.000000 -5.875000 -14.750000 0 0 0 0 0.000000 0.000000 0.000000 0.000000
-11.277601 -1.524003 14.630398 0.000000 -1.000000 -0.000000 1.000000 0.000000 0.000000 -4.500000 -12.500000 0 0 0 0 0.000000 0.000000 0.000000 0.000000
-13.106401 -1.524004 14.630398 0.000000 -1.000000 -0.000000 1.000000 0.000000 0.000000 -5.250000 -12.500000 0 0 0 0 0.000000 0.000000 0.000000 0.000000
-13.716002 -1.524004 14.630398 0.000000 -1.000000 -0.000000 1.000000 0.000000 0.000000 -5.500000 -12.500000 0 0 0 0 0.000000 0.000000 0.000000 0.000000
-13.716002 -1.524004 16.154398 0.000000 -1.000000 -0.000000 1.000000 0.000000 0.000000 -5.500000 -13.750000 0 0 0 0 0.000000 0.000000 0.000000 0.000000
-13.106401 -1.524004 16.154398 0.000000 -1.000000 -0.000000 1.000000 0.000000 0.000000 -5.250000 -13.750000 0 0 0 0 0.000000 0.000000 0.000000 0.000000
-11.277601 -1.524004 16.154398 0.000000 -1.000000 -0.000000 1.000000 0.000000 0.000000 -4.500000 -13.750000 0 0 0 0 0.000000 0.000000 0.000000 0.000000
-17.373600 -1.524004 16.154398 0.000000 -1.000000 -0.000000 1.000000 0.000000 0.000000 -7.000000 -13.750000 0 0 0 0 0.000000 0.000000 0.000000 0.000000
-14.935201 -1.524004 16.154398 0.000000 -1.000000 -0.000000 1.000000 0.000000 -0.000000 -6.000000 -13.750000 0 0 0 0 0.000000 0.000000 0.000000 0.000000
-22.250402 -1.524004 14.630397 0.000000 -1.000000 -0.000000 1.000000 0.000000 -0.000000 -9.000000 -12.500000 0 0 0 0 0.000000 0.000000 0.000000 0.000000
-23.164803 -1.524004 14.630397 0.000000 -1.000000 -0.000000 1.000000 0.000000 0.000000 -9.375000 -12.500000 0 0 0 0 0.000000 0.000000 0.000000 0.000000
-23.164803 -1.524005 16.154396 0.000000 -1.000000 -0.000000 1.000000 0.000000 -0.000000 -9.375000 -13.750000 0 0 0 0 0.000000 0.000000 0.000000 0.000000
-22.250402 -1.524005 16.154396 0.000000 -1.000000 -0.000000 1.000000 0.000000 -0.000000 -9.000000 -13.750000 0 0 0 0 0.000000 0.000000 0.000000 0.000000
-18.592802 -1.524004 14.630398 0.000000 -1.000000 -0.000000 1.000000 0.000000 0.000000 -7.500000 -12.500000 0 0 0 0 0.000000 0.000000 0.000000 0.000000
-18.897600 -1.524004 14.630398 0.000000 -1.000000 -0.000000 1.000000 0.000000 0.000000 -7.625000 -12.500000 0 0 0 0 0.000000 0.000000 0.000000 0.000000
-21.031202 -1.524004 14.630397 0.000000 -1.000000 -0.000000 1.000000 0.000000 0.000000 -8.500000 -12.500000 0 0 0 0 0.000000 0.000000 0.000000 0.000000
-21.031202 -1.524004 16.154396 0.000000 -1.000000 -0.000000 1.000000 0.000000 0.000000 -8.500000 -13.750000 0 0 0 0 0.000000 0.000000 0.000000 0.000000
-18.897600 -1.524004 16.154398 0.000000 -1.000000 -0.000000 1.000000 0.000000 0.000001 -7.625000 -13.750000 0 0 0 0 0.000000 0.000000 0.000000 0.000000
-18.592802 -1.524004 16.154398 0.000000 -1.000000 -0.000000 1.000000 0.000000 0.000000 -7.500000 -13.750000 0 0 0 0 0.000000 0.000000 0.000000 0.000000
-18.592802 -1.524004 16.154398 0.000000 -1.000000 -0.000000 1.000000 0.000000 -0.000000 -7.500000 -13.750000 0 0 0 0 0.000000 0.000000 0.000000 0.000000
-18.897600 -1.524004 16.154398 0.000000 -1.000000 -0.000000 1.000000 0.000000 0.000000 -7.625000 -13.750000 0 0 0 0 0.000000 0.000000 0.000000 0.000000
-18.897600 -1.524004 17.373598 0.000000 -1.000000 -0.000000 1.000000 0.000000 0.000000 -7.625000 -14.750000 0 0 0 0 0.000000 0.000000 0.000000 0.000000
-21.031202 -1.524004 16.154396 0.000000 -1.000000 -0.000000 1.000000 0.000000 0.000000 -8.500000 -13.750000 0 0 0 0 0.000000 0.000000 0.000000 0.000000
-22.250402 -1.524005 16.154396 0.000000 -1.000000 -0.000000 1.000000 0.000000 0.000000 -9.000000 -13.750000 0 0 0 0 0.000000 0.000000 0.000000 0.000000
-23.164803 -1.524005 16.154396 0.000000 -1.000000 -0.000000 -1.000000 -0.000000 -0.000000 -9.375000 -13.750000 0 0 0 0 0.000000 0.000000 0.000000 0.000000
-23.164803 -1.524005 16.611597 0.000000 -1.000000 -0.000000 1.000000 0.000000 0.000000 -9.375000 -14.125000 0 0 0 0 0.000000 0.000000 0.000000 0.000000
-23.164803 -1.524005 17.373596 0.000000 -1.000000 -0.000000 1.000000 0.000000 0.000000 -9.375000 -14.750000 0 0 0 0 0.000000 0.000000 0.000000 0.000000
-18.249903 -1.524004 13.620749 -0.000000 -1.000000 -0.000000 1.000000 -0.000000 -0.000000 -7.359375 -11.671875 0 0 0 0 0.000000 0.000000 0.000000 0.000000
-17.373600 -1.524004 13.868400 -0.000000 -1.000000 -0.000000 -0.000000 -0.000000 1.000000 -7.000000 -11.875000 0 0 0 0 0.000000 0.000000 0.000000 0.000000
-17.373600 -1.524004 13.866113 -0.000000 -1.000000 -0.000000 1.000000 -0.000000 -0.000000 -7.000000 -11.873125 0 0 0 0 0.000000 0.000000 0.000000 0.000000
-18.954750 -1.524004 12.896849 -0.000000 -1.000000 -0.000000 1.000000 -0.000000 0.000003 -7.648438 -11.078125 0 0 0 0 0.000000 0.000000 0.000000 0.000000
-18.529554 -1.524004 14.630398 -0.000000 -1.000000 -0.000000 1.000000 -0.000000 -0.000000 -7.474062 -12.500000 0 0 0 0 0.000000 0.000000 0.000000 0.000000
-18.897600 -1.524004 13.129871 0.000000 -1.000000 -0.000000 1.000000 0.000000 0.000000 -7.625000 -11.269253 0 0 0 0 0.000000 0.000000 0.000000 0.000000
-18.592802 -1.524004 14.630398 0.000000 -1.000000 -0.000000 -1.000000 -0.000000 -0.000000 -7.500000 -12.500000 0 0 0 0 0.000000 0.000000 0.000000 0.000000
-19.202400 -1.524004 11.887199 0.000000 -1.000000 -0.000000 1.000000 0.000000 0.000000 -7.750000 -10.250000 0 0 0 0 0.000000 0.000000 0.000000 0.000000
-23.164799 -1.524004 11.887198 0.000000 -1.000000 -0.000000 1.000000 0.000000 0.000000 -9.375000 -10.250000 0 0 0 0 0.000000 0.000000 0.000000 0.000000
-23.164799 -1.524004 12.344398 0.000000 -1.000000 -0.000000 1.000000 0.000000 0.000000 -9.375000 -10.625000 0 0 0 0 0.000000 0.000000 0.000000 0.000000
-19.202400 -1.524004 11.582398 0.000000 -1.000000 -0.000000 1.000000 0.000000 0.000000 -7.750000 -10.000000 0 0 0 0 0.000000 0.000000 0.000000 0.000000
-23.164799 -1.524004 11.582397 0.000000 -1.000000 -0.000000 1.000000 0.000000 0.000000 -9.375000 -10.000000 0 0 0 0 0.000000 0.000000 0.000000 0.000000
-14.630399 1.371599 -1.371601 0.000000 -1.000000 -0.000000 1.000000 0.000000 0.000000 -5.875000 0.625000 0 0 0 0 0.000000 0.000000 0.000000 0.000000
-14.630399 1.371599 -1.219201 0.000000 -1.000000 -0.000000 1.000000 0.000000 0.000000 -5.875000 0.500000 0 0 0 0 0.000000 0.000000 0.000000 0.000000
-11.429999 1.371600 -3.543301 0.000000 -1.000000 -0.000000 1.000000 0.000000 -0.000000 -4.562500 2.406250 0 0 0 0 0.000000 0.000000 0.000000 0.000000
-11.429999 1.371599 -2.286001 0.000000 -1.000000 -0.000000 1.000000 0.000000 0.000000 -4.562500 1.375000 0 0 0 0 0.000000 0.000000 0.000000 0.000000
-12.344400 1.371599 -2.286001 0.000000 -1.000000 -0.000000 1.000000 0.000000 -0.000000 -4.937500 1.375000 0 0 0 0 0.000000 0.000000 0.000000 0.000000
-12.344400 1.371600 -3.543301 0.000000 -1.000000 -0.000000 1.000000 0.000000 -0.000000 -4.937500 2.406250 0 0 0 0 0.000000 0.000000 0.000000 0.000000
-13.411200 1.371599 -3.543301 0.000000 -1.000000 -0.000000 1.000000 0.000000 -0.000000 -5.375000 2.406250 0 0 0 0 0.000000 0.000000 0.000000 0.000000
-14.249432 1.371599 -3.543301 0.000000 -1.000000 -0.000000 1.000000 0.000000 -0.000000 -5.718763 2.406250 0 0 0 0 0.000000 0.000000 0.000000 0.000000
-14.630399 1.371599 -3.543301 0.000000 -1.000000 -0.000000 1.000000 0.000000 -0.000000 -5.875000 2.406250 0 0 0 0 0.000000 0.000000 0.000000 0.000000
-14.630399 1.371599 -2.286001 0.000000 -1.000000 -0.000000 1.000000 0.000000 0.000000 -5.875000 1.375000 0 0 0 0 0.000000 0.000000 0.000000 0.000000
-35.356800 -2.514605 13.106396 0.000000 -1.000000 -0.000000 0.000000 -0.000000 1.000000 5.507812 -28.765625 0 0 0 0 0.000000 0.000000 0.000000 0.000000
-33.832802 -2.514605 13.106398 0.000000 -1.000000 -0.000000 0.000000 -0.000000 1.000000 5.507812 -27.515625 0 0 0 0 0.000000 0.000000 0.000000 0.000000
-33.832802 -2.514605 12.344398 0.000000 -1.000000 -0.000000 0.000000 -0.000000 1.000000 5.195312 -27.515625 0 0 0 0 0.000000 0.000000 0.000000 0.000000
-33.832802 -2.514605 11.887198 0.000000 -1.000000 -0.000000 -0.000000 -0.000000 1.000000 5.007812 -27.515625 0 0 0 0 0.000000 0.000000 0.000000 0.000000
-35.356800 -2.514605 11.887197 0.000000 -1.000000 -0.000000 0.000000 -0.000000 1.000000 5.007812 -28.765625 0 0 0 0 0.000000 0.000000 0.000000 0.000000
-35.356800 -2.514605 10.667996 0.000000 -1.000000 -0.000000 -0.000000 -0.000000 1.000000 4.507812 -28.765625 0 0 0 0 0.000000 0.000000 0.000000 0.000000
-33.832802 -2.514605 10.667997 0.000000 -1.000000 -0.000000 -0.000000 -0.000000 1.000000 4.507812 -27.515625 0 0 0 0 0.000000 0.000000 0.000000 0.000000
-33.832802 -2.514604 8.229596 0.000000 -1.000000 -0.000000 -0.000000 -0.000000 1.000000 3.507812 -27.515625 0 0 0 0 0.000000 0.000000 0.000000 0.000000
-35.356800 -2.514604 8.229596 0.000000 -1.000000 -0.000000 -0.000000 -0.000000 1.000000 3.507812 -28.765625 0 0 0 0 0.000000 0.000000 0.000000 0.000000
-32.613602 -2.514604 7.315196 0.000000 -1.000000 -0.000000 -0.000000 -0.000000 1.000000 3.132812 -26.515625 0 0 0 0 0.000000 0.000000 0.000000 0.000000
-33.832802 -2.514604 7.315196 0.000000 -1.000000 -0.000000 0.000000 -0.000000 1.000000 3.132812 -27.515625 0 0 0 0 0.000000 0.000000 0.000000 0.000000
-33.832802 -2.514604 8.077196 0.000000 -1.000000 -0.000000 -0.000000 -0.000000 1.000000 3.445312 -27.515625 0 0 0 0 0.000000 0.000000 0.000000 0.000000
-32.613602 -2.514604 8.077196 0.000000 -1.000000 -0.000000 -0.000000 -0.000000 1.000000 3.445312 -26.515625 0 0 0 0 0.000000 0.000000 0.000000 0.000000
-32.461201 -2.514605 13.106398 0.000000 -1.000000 -0.000000 -0.000000 -0.000000 1.000000 5.507812 -26.390625 0 0 0 0 0.000000 0.000000 0.000000 0.000000
-32.461201 -2.514605 12.344398 0.000000 -1.000000 -0.000000 0.000000 -0.000000 1.000000 5.195312 -26.390625 0 0 0 0 0.000000 0.000000 0.000000 0.000000
-33.832802 -2.514604 8.077196 0.000000 -1.000000 -0.000000 0.000000 0.000000 -1.000000 3.445312 -27.515625 0 0 0 0 0.000000 0.000000 0.000000 0.000000
-33.832802 -2.514604 8.229596 0.000000 -1.000000 -0.000000 0.000000 0.000000 -1.000000 3.507812 -27.515625 0 0 0 0 0.000000 0.000000 0.000000 0.000000
-33.832802 -2.514605 10.667997 0.000000 -1.000000 -0.000000 0.000000 0.000000 -1.000000 4.507812 -27.515625 0 0 0 0 0.000000 0.000000 0.000000 0.000000
-33.832802 -2.514605 11.887198 0.000000 -1.000000 -0.000000 0.000000 0.000000 -1.000000 5.007812 -27.515625 0 0 0 0 0.000000 0.000000 0.000000 0.000000
-33.832802 -2.514605 12.344398 0.000000 -1.000000 -0.000000 0.000000 0.000000 -1.000000 5.195312 -27.515625 0 0 0 0 0.000000 0.000000 0.000000 0.000000
-32.461201 -2.514604 8.077196 0.000000 -1.000000 -0.000000 -0.000000 -0.000000 1.000000 3.445312 -26.390625 0 0 0 0 0.000000 0.000000 0.000000 0.000000
-32.613602 -2.514604 8.077196 0.000000 -1.000000 -0.000000 1.000000 0.000000 -0.000000 3.445312 -26.515625 0 0 0 0 0.000000 0.000000 0.000000 0.000000
-36.728401 -2.514605 11.582396 0.000000 -1.000000 -0.000000 -0.000000 -0.000000 1.000000 4.882812 -29.890625 0 0 0 0 0.000000 0.000000 0.000000 0.000000
-36.728401 -2.514605 13.106396 0.000000 -1.000000 -0.000000 -0.000000 -0.000000 1.000000 5.507812 -29.890625 0 0 0 0 0.000000 0.000000 0.000000 0.000000
-35.356800 -2.514605 11.582396 0.000000 -1.000000 -0.000000 0.000000 -0.000000 1.000000 4.882812 -28.765625 0 0 0 0 0.000000 0.000000 0.000000 0.000000
-36.728401 -2.514604 7.315196 0.000000 -1.000000 -0.000000 -0.000000 0.000000 -1.000000 3.132812 -29.890625 0 0 0 0 0.000000 0.000000 0.000000 0.000000
-36.728401 -2.514605 10.667996 0.000000 -1.000000 -0.000000 -0.000000 0.000000 -1.000000 4.507812 -29.890625 0 0 0 0 0.000000 0.000000 0.000000 0.000000
-36.728401 -2.514605 11.582396 0.000000 -1.000000 -0.000000 -0.000000 0.000000 -1.000000 4.882812 -29.890625 0 0 0 0 0.000000 0.000000 0.000000 0.000000
-35.356800 -2.514604 7.315196 0.000000 -1.000000 -0.000000 -0.000000 -0.000000 1.000000 3.132812 -28.765625 0 0 0 0 0.000000 0.000000 0.000000 0.000000
-36.728401 -2.514604 3.962396 0.000000 -1.000000 -0.000000 0.000000 0.000000 -1.000000 1.757812 -29.890625 0 0 0 0 0.000000 0.000000 0.000000 0.000000
-36.728401 -2.514604 4.114796 0.000000 -1.000000 -0.000000 0.000000 0.000000 -1.000000 1.820312 -29.890625 0 0 0 0 0.000000 0.000000 0.000000 0.000000
-35.356800 -2.514604 7.010396 0.000000 -1.000000 -0.000000 0.000000 -0.000000 1.000000 3.007812 -28.765625 0 0 0 0 0.000000 0.000000 0.000000 0.000000
-35.356800 -2.514604 4.571997 0.000000 -1.000000 -0.000000 -0.000000 -0.000000 1.000000 2.007812 -28.765625 0 0 0 0 0.000000 0.000000 0.000000 0.000000
-35.356800 -2.514604 3.962396 0.000000 -1.000000 -0.000000 -0.000000 -0.000000 1.000000 1.757812 -28.765625 0 0 0 0 0.000000 0.000000 0.000000 0.000000
-36.728401 -2.514604 3.962396 0.000000 -1.000000 -0.000000 0.000000 -0.000000 1.000000 1.757812 -29.890625 0 0 0 0 0.000000 0.000000 0.000000 0.000000
-35.356800 -2.514604 3.352797 0.000000 -1.000000 -0.000000 0.000000 -0.000000 1.000000 1.507812 -28.765625 0 0 0 0 0.000000 0.000000 0.000000 0.000000
-35.356800 -2.514603 -0.304803 0.000000 -1.000000 -0.000000 -0.000000 -0.000000 1.000000 0.007812 -28.765625 0 0 0 0 0.000000 0.000000 0.000000 0.000000
-36.728401 -2.514603 -0.304804 0.000000 -1.000000 -0.000000 0.000000 -0.000000 1.000000 0.007812 -29.890625 0 0 0 0 0.000000 0.000000 0.000000 0.000000
-32.613602 -2.514604 4.876797 0.000000 -1.000000 -0.000000 0.000000 -0.000000 1.000000 2.132812 -26.515625 0 0 0 0 0.000000 0.000000 0.000000 0.000000
-32.613602 -2.514604 4.114797 0.000000 -1.000000 -0.000000 -0.000000 -0.000000 1.000000 1.820312 -26.515625 0 0 0 0 0.000000 0.000000 0.000000 0.000000
-33.832802 -2.514604 4.114797 0.000000 -1.000000 -0.000000 0.000000 -0.000000 1.000000 1.820312 -27.515625 0 0 0 0 0.000000 0.000000 0.000000 0.000000
-33.832802 -2.514604 4.571997 0.000000 -1.000000 -0.000000 0.000000 -0.000000 1.000000 2.007812 -27.515625 0 0 0 0 0.000000 0.000000 0.000000 0.000000
-33.832802 -2.514604 7.010396 0.000000 -1.000000 -0.000000 -0.000000 -0.000000 1.000000 3.007812 -27.515625 0 0 0 0 0.000000 0.000000 0.000000 0.000000
-33.832802 -2.514604 4.114797 0.000000 -1.000000 -0.000000 -1.000000 -0.000000 -0.000000 1.820312 -27.515625 0 0 0 0 0.000000 0.000000 0.000000 0.000000
-32.613602 -2.514604 4.114797 0.000000 -1.000000 -0.000000 -1.000000 -0.000000 -0.000000 1.820312 -26.515625 0 0 0 0 0.000000 0.000000 0.000000 0.000000
-32.461201 -2.514604 4.114797 0.000000 -1.000000 -0.000000 -1.000000 -0.000000 -0.000000 1.820312 -26.390625 0 0 0 0 0.000000 0.000000 0.000000 0.000000
-32.461201 -2.514603 -0.304803 0.000000 -1.000000 -0.000000 -0.000000 -0.000000 1.000000 0.007812 -26.390625 0 0 0 0 0.000000 0.000000 0.000000 0.000000
-33.832802 -2.514603 -0.304803 0.000000 -1.000000 -0.000000 -0.000000 -0.000000 1.000000 0.007812 -27.515625 0 0 0 0 0.000000 0.000000 0.000000 0.000000
-33.832802 -2.514604 3.352797 0.000000 -1.000000 -0.000000 0.000000 0.000000 -1.000000 1.507812 -27.515625 0 0 0 0 0.000000 0.000000 0.000000 0.000000
-33.832802 -2.514604 3.352797 0.000000 -1.000000 -0.000000 -0.000000 -0.000000 1.000000 1.507812 -27.515625 0 0 0 0 0.000000 0.000000 0.000000 0.000000
-14.325599 1.371601 -11.190541 0.000000 -1.000000 -0.000000 1.000000 0.000000 0.000000 -5.750000 8.678594 0 0 0 0 0.000000 0.000000 0.000000 0.000000
-14.325599 1.371601 -13.106401 0.000000 -1.000000 -0.000000 1.000000 0.000000 0.000000 -5.750000 10.250000 0 0 0 0 0.000000 0.000000 0.000000 0.000000
-14.630398 1.371601 -13.106401 0.000000 -1.000000 -0.000000 1.000000 0.000000 0.000000 -5.875000 10.250000 0 0 0 0 0.000000 0.000000 0.000000 0.000000
-14.630398 1.371601 -11.190541 0.000000 -1.000000 -0.000000 1.000000 0.000000 0.000000 -5.875000 8.678594 0 0 0 0 0.000000 0.000000 0.000000 0.000000
-14.630398 1.371600 -9.982201 0.000000 -1.000000 -0.000000 1.000000 0.000000 -0.000000 -5.875000 7.687500 0 0 0 0 0.000000 0.000000 0.000000 0.000000
-14.630398 1.371600 -7.010401 0.000000 -1.000000 -0.000000 1.000000 0.000000 0.000000 -5.875000 5.250000 0 0 0 0 0.000000 0.000000 0.000000 0.000000
-14.325601 1.371600 -6.923342 0.000000 -1.000000 -0.000000 1.000000 0.000000 -0.000002 -5.750000 5.178594 0 0 0 0 0.000000 0.000000 0.000000 0.000000
-14.325599 1.371600 -7.010401 0.000000 -1.000000 -0.000000 1.000000 0.000000 0.000000 -5.750000 5.250000 0 0 0 0 0.000000 0.000000 0.000000 0.000000
-14.325599 1.371600 -8.839201 0.000000 -1.000000 -0.000000 -0.000000 -0.000000 1.000000 -5.750000 6.750000 0 0 0 0 0.000000 0.000000 0.000000 0.000000
-13.411200 1.371600 -5.410201 0.000000 -1.000000 -0.000000 1.000000 -0.000000 0.000000 -5.375000 3.937500 0 0 0 0 0.000000 0.000000 0.000000 0.000000
-13.563601 1.371600 -5.943602 0.000000 -1.000000 -0.000000 1.000000 -0.000000 0.000001 -5.437500 4.375000 0 0 0 0 0.000000 0.000000 0.000000 0.000000
-13.716001 1.371600 -5.410201 0.000000 -1.000000 -0.000000 1.000000 0.000000 -0.000001 -5.500000 3.937500 0 0 0 0 0.000000 0.000000 0.000000 0.000000
-14.096999 1.371600 -5.029201 0.000000 -1.000000 -0.000000 1.000000 0.000000 -0.000001 -5.656250 3.625000 0 0 0 0 0.000000 0.000000 0.000000 0.000000
-14.630399 1.371599 -4.495801 0.000000 -1.000000 -0.000000 1.000000 0.000000 -0.000000 -5.875000 3.187500 0 0 0 0 0.000000 0.000000 0.000000 0.000000
-14.630399 1.371600 -4.876801 0.000000 -1.000000 -0.000000 1.000000 0.000000 -0.000001 -5.875000 3.500000 0 0 0 0 0.000000 0.000000 0.000000 0.000000
-12.344399 1.371600 -7.010401 0.000000 -1.000000 -0.000000 1.000000 0.000000 0.000000 -4.937500 5.250000 0 0 0 0 0.000000 0.000000 0.000000 0.000000
-13.411199 1.371600 -7.010401 0.000000 -1.000000 -0.000000 1.000000 0.000000 0.000000 -5.375000 5.250000 0 0 0 0 0.000000 0.000000 0.000000 0.000000
-13.411200 1.371600 -6.661976 0.000000 -1.000000 -0.000000 1.000000 0.000000 -0.000002 -5.375000 4.964219 0 0 0 0 0.000000 0.000000 0.000000 0.000000
-13.411200 1.371600 -6.172202 0.000000 -1.000000 -0.000000 1.000000 -0.000000 0.000002 -5.375000 4.562500 0 0 0 0 0.000000 0.000000 0.000000 0.000000
-13.411199 1.371601 -12.192001 0.000000 -1.000000 -0.000000 1.000000 0.000000 -0.000000 -5.375000 9.500000 0 0 0 0 0.000000 0.000000 0.000000 0.000000
-13.411199 1.371600 -7.924801 0.000000 -1.000000 -0.000000 1.000000 0.000000 0.000000 -5.375000 6.000000 0 0 0 0 0.000000 0.000000 0.000000 0.000000
-14.096999 1.371600 -6.858002 -0.000000 -1.000000 -0.000000 1.000000 0.000000 0.000001 -5.656250 5.125000 0 0 0 0 0.000000 0.000000 0.000000 0.000000
-13.716001 1.371600 -6.477001 0.000000 -1.000000 -0.000000 1.000000 -0.000000 0.000000 -5.500000 4.812500 0 0 0 0 0.000000 0.000000 0.000000 0.000000
-11.429998 1.371600 -7.010401 0.000000 -1.000000 -0.000000 1.000000 0.000000 0.000000 -4.562500 5.250000 0 0 0 0 0.000000 0.000000 0.000000 0.000000
-10.629898 1.371601 -14.249401 0.000000 -1.000000 -0.000000 1.000000 0.000000 0.000001 -4.234375 11.187500 0 0 0 0 0.000000 0.000000 0.000000 0.000000
-13.258799 1.371601 -14.249401 0.000000 -1.000000 -0.000000 1.000000 0.000000 0.000000 -5.312500 11.187500 0 0 0 0 0.000000 0.000000 0.000000 0.000000
-14.630398 1.371601 -14.249401 0.000000 -1.000000 -0.000000 1.000000 0.000000 -0.000000 -5.875000 11.187500 0 0 0 0 0.000000 0.000000 0.000000 0.000000
-17.811749 -1.066800 -7.010402 0.000000 -1.000000 -0.000000 0.000000 -0.000000 1.000000 -2.875000 -13.937500 0 0 0 0 0.000000 0.000000 0.000000 0.000000
-17.811749 -1.066800 -9.601202 0.000000 -1.000000 -0.000000 0.000000 -0.000000 1.000000 -3.937500 -13.937500 0 0 0 0 0.000000 0.000000 0.000000 0.000000
-17.811749 -1.066800 -9.982202 0.000000 -1.000000 -0.000000 0.000000 -0.000000 1.000000 -4.093750 -13.937500 0 0 0 0 0.000000 0.000000 0.000000 0.000000
-19.526249 -1.066800 -9.982202 0.000000 -1.000000 -0.000000 -0.000000 -0.000000 1.000000 -4.093750 -15.343750 0 0 0 0 0.000000 0.000000 0.000000 0.000000
-19.526249 -1.066800 -9.601202 0.000000 -1.000000 -0.000000 -0.000000 -0.000000 1.000000 -3.937500 -15.343750 0 0 0 0 0.000000 0.000000 0.000000 0.000000
-19.526249 -1.066800 -7.010402 0.000000 -1.000000 -0.000000 0.000000 -0.000000 1.000000 -2.875000 -15.343750 0 0 0 0 0.000000 0.000000 0.000000 0.000000
-17.811749 -1.066800 -11.201401 0.000000 -1.000000 -0.000000 0.000000 -0.000000 1.000000 -4.593750 -13.937500 0 0 0 0 0.000000 0.000000 0.000000 0.000000
-17.811749 -1.066799 -13.411201 0.000000 -1.000000 -0.000000 0.000000 -0.000000 1.000000 -5.500000 -13.937500 0 0 0 0 0.000000 0.000000 0.000000 0.000000
-17.811749 -1.066799 -14.249401 0.000000 -1.000000 -0.000000 -0.000000 0.000000 -1.000000 -5.843750 -13.937500 0 0 0 0 0.000000 0.000000 0.000000 0.000000
-19.526249 -1.066799 -14.249401 0.000000 -1.000000 -0.000000 -0.000000 -0.000000 1.000000 -5.843750 -15.343750 0 0 0 0 0.000000 0.000000 0.000000 0.000000
-19.526249 -1.066800 -13.411201 0.000000 -1.000000 -0.000000 -0.000000 -0.000000 1.000000 -5.500000 -15.343750 0 0 0 0 0.000000 0.000000 0.000000 0.000000
-19.526249 -1.066800 -11.201401 0.000000 -1.000000 -0.000000 0.000000 -0.000000 1.000000 -4.593750 -15.343750 0 0 0 0 0.000000 0.000000 0.000000 0.000000
-16.516348 -1.066800 -11.201401 0.000000 -1.000000 -0.000000 -0.000000 -0.000000 1.000000 -4.593750 -12.875000 0 0 0 0 0.000000 0.000000 0.000000 0.000000
-16.516348 -1.066799 -13.411201 0.000000 -1.000000 -0.000000 -0.000000 -0.000000 1.000000 -5.500000 -12.875000 0 0 0 0 0.000000 0.000000 0.000000 0.000000
-17.811749 -1.066799 -13.411201 0.000000 -1.000000 -0.000000 0.000000 -0.000000 1.000000 -5.500000 -13.937500 0 0 0 0 0.000000 0.000000 0.000000 0.000000
-17.811749 -1.066800 -11.201401 0.000000 -1.000000 -0.000000 -0.000000 -0.000000 1.000000 -4.593750 -13.937500 0 0 0 0 0.000000 0.000000 0.000000 0.000000
-14.935199 -1.066800 -7.010401 0.000000 -1.000000 -0.000000 0.000000 -0.000000 1.000000 -2.875000 -11.578125 0 0 0 0 0.000000 0.000000 0.000000 0.000000
-14.935199 -1.066800 -8.534401 0.000000 -1.000000 -0.000000 0.000000 -0.000000 1.000000 -3.500000 -11.578125 0 0 0 0 0.000000 0.000000 0.000000 0.000000
-14.935199 -1.066800 -9.982201 0.000000 -1.000000 -0.000000 -0.000000 -0.000000 1.000000 -4.093750 -11.578125 0 0 0 0 0.000000 0.000000 0.000000 0.000000
-16.516348 -1.066800 -9.982201 0.000000 -1.000000 -0.000000 -0.000000 -0.000000 1.000000 -4.093750 -12.875000 0 0 0 0 0.000000 0.000000 0.000000 0.000000
-16.516348 -1.066800 -9.601201 0.000000 -1.000000 -0.000000 0.000000 -0.000000 1.000000 -3.937500 -12.875000 0 0 0 0 0.000000 0.000000 0.000000 0.000000
-16.516348 -1.066800 -7.010401 0.000000 -1.000000 -0.000000 -0.000000 -0.000000 1.000000 -2.875000 -12.875000 0 0 0 0 0.000000 0.000000 0.000000 0.000000
-14.935199 -1.066800 -10.058401 0.000000 -1.000000 -0.000000 -0.000000 -0.000000 1.000000 -4.125000 -11.578125 0 0 0 0 0.000000 0.000000 0.000000 0.000000
-14.935199 -1.066799 -11.582401 0.000000 -1.000000 -0.000000 -0.000000 -0.000000 1.000000 -4.750000 -11.578125 0 0 0 0 0.000000 0.000000 0.000000 0.000000
-14.935199 -1.066799 -13.106401 0.000000 -1.000000 -0.000000 0.000000 0.000000 -1.000000 -5.375000 -11.578125 0 0 0 0 0.000000 0.000000 0.000000 0.000000
-14.935199 -1.066799 -14.249401 0.000000 -1.000000 -0.000000 0.000000 0.000000 -1.000000 -5.843750 -11.578125 0 0 0 0 0.000000 0.000000 0.000000 0.000000
-16.516348 -1.066799 -14.249401 0.000000 -1.000000 -0.000000 0.000000 -0.000000 1.000000 -5.843750 -12.875000 0 0 0 0 0.000000 0.000000 0.000000 0.000000
-20.821650 -1.066800 -13.411201 0.000000 -1.000000 -0.000000 -0.000000 -0.000000 1.000000 -5.500000 -16.406250 0 0 0 0 0.000000 0.000000 0.000000 0.000000
-20.821650 -1.066800 -11.201401 0.000000 -1.000000 -0.000000 0.000000 -0.000000 1.000000 -4.593750 -16.406250 0 0 0 0 0.000000 0.000000 0.000000 0.000000
-20.821650 -1.066801 -7.010402 0.000000 -1.000000 -0.000000 0.000000 -0.000000 1.000000 -2.875000 -16.406250 0 0 0 0 0.000000 0.000000 0.000000 0.000000
-20.821650 -1.066800 -9.601202 0.000000 -1.000000 -0.000000 0.000000 -0.000000 1.000000 -3.937500 -16.406250 0 0 0 0 0.000000 0.000000 0.000000 0.000000
-20.821650 -1.066800 -9.982202 0.000000 -1.000000 -0.000000 0.000000 -0.000000 1.000000 -4.093750 -16.406250 0 0 0 0 0.000000 0.000000 0.000000 0.000000
-21.640800 -1.066800 -9.982202 0.000000 -1.000000 -0.000000 -0.000000 -0.000000 1.000000 -4.093750 -17.078125 0 0 0 0 0.000000 0.000000 0.000000 0.000000
-21.640800 -1.066801 -7.010402 0.000000 -1.000000 -0.000000 -0.000000 -0.000000 1.000000 -2.875000 -17.078125 0 0 0 0 0.000000 0.000000 0.000000 0.000000
-20.821650 -1.066800 -9.982202 0.000000 -1.000000 -0.000000 -0.000000 -0.000000 1.000000 -4.093750 -16.406250 0 0 0 0 0.000000 0.000000 0.000000 0.000000
-20.821648 -1.066799 -14.249401 0.000000 -1.000000 -0.000000 -0.000003 -0.000000 1.000000 -5.843750 -16.406250 0 0 0 0 0.000000 0.000000 0.000000 0.000000
-21.640799 -1.066800 -14.249403 0.000000 -1.000000 -0.000000 -0.000000 -0.000000 1.000000 -5.843750 -17.078125 0 0 0 0 0.000000 0.000000 0.000000 0.000000
-20.821650 -1.066800 -9.601202 0.000000 -1.000000 -0.000000 -0.000000 -0.000000 1.000000 -3.937500 -16.406250 0 0 0 0 0.000000 0.000000 0.000000 0.000000
-20.821650 -1.066801 -7.010402 0.000000 -1.000000 -0.000000 0.000000 -0.000000 1.000000 -2.875000 -16.406250 0 0 0 0 0.000000 0.000000 0.000000 0.000000
-17.811749 -1.066800 -9.601202 0.000000 -1.000000 -0.000000 -0.000000 -0.000000 1.000000 -3.937500 -13.937500 0 0 0 0 0.000000 0.000000 0.000000 0.000000
-17.811749 -1.066800 -7.010402 0.000000 -1.000000 -0.000000 0.000000 -0.000000 1.000000 -2.875000 -13.937500 0 0 0 0 0.000000 0.000000 0.000000 0.000000
-17.373598 -1.066800 -7.010401 0.000000 -1.000000 -0.000000 -1.000000 -0.000000 -0.000000 -2.875000 -13.578125 0 0 0 0 0.000000 0.000000 0.000000 0.000000
-20.821650 -1.066800 -11.201401 -0.000000 -0.000000 1.000000 -0.000000 1.000000 0.000000 0.562500 -16.406250 0 0 0 0 0.000000 0.000000 0.000000 0.000000
-20.821650 -0.762000 -11.201401 -0.000000 -0.000000 1.000000 -0.000000 1.000000 0.000000 0.687500 -16.406250 0 0 0 0 0.000000 0.000000 0.000000 0.000000
-19.526249 -0.762000 -11.201401 -0.000000 -0.000000 1.000000 -0.000000 1.000000 0.000000 0.687500 -15.343750 0 0 0 0 0.000000 0.000000 0.000000 0.000000
-19.526249 -1.066800 -11.201401 -0.000000 -0.000000 1.000000 -0.000000 1.000000 0.000000 0.562500 -15.343750 0 0 0 0 0.000000 0.000000 0.000000 0.000000
-17.811749 -1.066800 -11.201401 -0.000000 -0.000000 1.000000 -0.000000 1.000000 0.000000 0.562500 -13.937500 0 0 0 0 0.000000 0.000000 0.000000 0.000000
-17.811749 -0.762000 -11.201401 -0.000000 -0.000000 1.000000 -0.000000 1.000000 0.000000 0.687500 -13.937500 0 0 0 0 0.000000 0.000000 0.000000 0.000000
-16.516348 -0.762000 -11.201401 -0.000000 -0.000000 1.000000 -0.000000 1.000000 0.000000 0.687500 -12.875000 0 0 0 0 0.000000 0.000000 0.000000 0.000000
-16.516348 -1.066800 -11.201401 -0.000000 -0.000000 1.000000 -0.000000 1.000000 0.000000 0.562500 -12.875000 0 0 0 0 0.000000 0.000000 0.000000 0.000000
-17.811749 -1.066800 -11.201401 1.000000 0.000000 0.000000 0.000000 0.000000 -1.000000 0.562500 -8.515625 0 0 0 0 0.000000 0.000000 0.000000 0.000000
-17.811749 -1.066800 -9.982202 1.000000 0.000000 0.000000 0.000000 0.000000 -1.000000 0.562500 -7.515625 0 0 0 0 0.000000 0.000000 0.000000 0.000000
-17.811749 -1.066800 -9.601202 1.000000 0.000000 0.000000 0.000000 0.000000 -1.000000 0.562500 -7.203125 0 0 0 0 0.000000 0.000000 0.000000 0.000000
-17.811749 -0.762000 -9.601202 1.000000 0.000000 0.000000 -0.000000 1.000000 -0.000000 0.687500 -7.203125 0 0 0 0 0.000000 0.000000 0.000000 0.000000
-17.811749 -0.762000 -11.201401 1.000000 0.000000 0.000000 -0.000000 1.000000 -0.000000 0.687500 -8.515625 0 0 0 0 0.000000 0.000000 0.000000 0.000000
-16.516348 -1.066800 -9.601201 0.000000 0.000000 -1.000000 -0.000000 1.000000 0.000000 0.562500 -12.875000 0 0 0 0 0.000000 0.000000 0.000000 0.000000
-16.516348 -0.762000 -9.601201 0.000000 0.000000 -1.000000 -0.000000 1.000000 0.000000 0.687500 -12.875000 0 0 0 0 0.000000 0.000000 0.000000 0.000000
-17.811749 -0.762000 -9.601202 0.000000 0.000000 -1.000000 -0.000000 1.000000 0.000000 0.687500 -13.937500 0 0 0 0 0.000000 0.000000 0.000000 0.000000
-17.811749 -1.066800 -9.601202 0.000000 0.000000 -1.000000 -0.000000 1.000000 0.000000 0.562500 -13.937500 0 0 0 0 0.000000 0.000000 0.000000 0.000000
-16.516348 -1.066800 -9.601201 -1.000000 -0.000000 -0.000000 -0.000000 -0.000000 1.000000 0.562500 -7.203125 0 0 0 0 0.000000 0.000000 0.000000 0.000000
-16.516348 -1.066800 -9.982201 -1.000000 -0.000000 -0.000000 -0.000000 -0.000000 1.000000 0.562500 -7.515625 0 0 0 0 0.000000 0.000000 0.000000 0.000000
-16.516348 -1.066800 -11.201401 -1.000000 -0.000000 -0.000000 -0.000000 -0.000000 1.000000 0.562500 -8.515625 0 0 0 0 0.000000 0.000000 0.000000 0.000000
-16.516348 -0.762000 -11.201401 -1.000000 -0.000000 -0.000000 -0.000000 1.000000 -0.000000 0.687500 -8.515625 0 0 0 0 0.000000 0.000000 0.000000 0.000000
-16.516348 -0.762000 -9.601201 -1.000000 -0.000000 -0.000000 -0.000000 1.000000 -0.000000 0.687500 -7.203125 0 0 0 0 0.000000 0.000000 0.000000 0.000000
-17.811749 -0.762000 -11.201401 0.000000 -1.000000 -0.000000 -0.000000 -0.000000 1.000000 -4.593750 -13.937500 0 0 0 0 0.000000 0.000000 0.000000 0.000000
-17.811749 -0.762000 -9.601202 0.000000 -1.000000 -0.000000 -0.000000 -0.000000 1.000000 -3.937500 -13.937500 0 0 0 0 0.000000 0.000000 0.000000 0.000000
-16.516348 -0.762000 -9.601201 0.000000 -1.000000 -0.000000 0.000000 -0.000000 1.000000 -3.937500 -12.875000 0 0 0 0 0.000000 0.000000 0.000000 0.000000
-16.516348 -0.762000 -11.201401 0.000000 -1.000000 -0.000000 -0.000000 -0.000000 1.000000 -4.593750 -12.875000 0 0 0 0 0.000000 0.000000 0.000000 0.000000
-19.526249 -1.066800 -9.601202 0.000000 0.000000 -1.000000 -0.000000 1.000000 0.000000 0.562500 -15.343750 0 0 0 0 0.000000 0.000000 0.000000 0.000000
-19.526249 -0.762000 -9.601202 0.000000 0.000000 -1.000000 -0.000000 1.000000 0.000000 0.687500 -15.343750 0 0 0 0 0.000000 0.000000 0.000000 0.000000
-20.821650 -0.762000 -9.601202 0.000000 0.000000 -1.000000 -0.000000 1.000000 0.000000 0.687500 -16.406250 0 0 0 0 0.000000 0.000000 0.000000 0.000000
-20.821650 -1.066800 -9.601202 0.000000 0.000000 -1.000000 -0.000000 1.000000 0.000000 0.562500 -16.406250 0 0 0 0 0.000000 0.000000 0.000000 0.000000
-19.526249 -1.066800 -9.601202 -1.000000 -0.000000 -0.000000 -0.000000 -0.000000 1.000000 0.562500 -7.203125 0 0 0 0 0.000000 0.000000 0.000000 0.000000
-19.526249 -1.066800 -9.982202 -1.000000 -0.000000 -0.000000 -0.000000 -0.000000 1.000000 0.562500 -7.515625 0 0 0 0 0.000000 0.000000 0.000000 0.000000
-19.526249 -1.066800 -11.201401 -1.000000 -0.000000 -0.000000 -0.000000 -0.000000 1.000000 0.562500 -8.515625 0 0 0 0 0.000000 0.000000 0.000000 0.000000
-19.526249 -0.762000 -11.201401 -1.000000 -0.000000 -0.000000 -0.000000 1.000000 -0.000000 0.687500 -8.515625 0 0 0 0 0.000000 0.000000 0.000000 0.000000
-19.526249 -0.762000 -9.601202 -1.000000 -0.000000 -0.000000 -0.000000 1.000000 -0.000000 0.687500 -7.203125 0 0 0 0 0.000000 0.000000 0.000000 0.000000
-20.821650 -1.066800 -11.201401 1.000000 0.000000 0.000000 0.000000 0.000000 -1.000000 0.562500 -8.515625 0 0 0 0 0.000000 0.000000 0.000000 0.000000
-20.821650 -1.066800 -9.982202 1.000000 0.000000 0.000000 0.000000 0.000000 -1.000000 0.562500 -7.515625 0 0 0 0 0.000000 0.000000 0.000000 0.000000
-20.821650 -1.066800 -9.601202 1.000000 0.000000 0.000000 0.000000 0.000000 -1.000000 0.562500 -7.203125 0 0 0 0 0.000000 0.000000 0.000000 0.000000
-20.821650 -0.762000 -9.601202 1.000000 0.000000 0.000000 -0.000000 1.000000 -0.000000 0.687500 -7.203125 0 0 0 0 0.000000 0.000000 0.000000 0.000000
-20.821650 -0.762000 -11.201401 1.000000 0.000000 0.000000 -0.000000 1.000000 -0.000000 0.687500 -8.515625 0 0 0 0 0.000000 0.000000 0.000000 0.000000
-20.821650 -0.762000 -11.201401 0.000000 -1.000000 -0.000000 0.000000 -0.000000 1.000000 -4.593750 -16.406250 0 0 0 0 0.000000 0.000000 0.000000 0.000000
-20.821650 -0.762000 -9.601202 0.000000 -1.000000 -0.000000 0.000000 -0.000000 1.000000 -3.937500 -16.406250 0 0 0 0 0.000000 0.000000 0.000000 0.000000
-19.526249 -0.762000 -9.601202 0.000000 -1.000000 -0.000000 -0.000000 -0.000000 1.000000 -3.937500 -15.343750 0 0 0 0 0.000000 0.000000 0.000000 0.000000
-19.526249 -0.762000 -11.201401 0.000000 -1.000000 -0.000000 0.000000 -0.000000 1.000000 -4.593750 -15.343750 0 0 0 0 0.000000 0.000000 0.000000 0.000000
-17.811749 -1.066799 -14.249401 1.000000 0.000000 0.000000 -0.000000 1.000000 -0.000000 0.562500 -11.015625 0 0 0 0 0.000000 0.000000 0.000000 0.000000
-17.811749 -1.066799 -13.411201 1.000000 0.000000 0.000000 -0.000000 1.000000 -0.000000 0.562500 -10.328125 0 0 0 0 0.000000 0.000000 0.000000 0.000000
-17.811749 -0.761999 -13.411201 1.000000 0.000000 0.000000 -0.000000 1.000000 -0.000000 0.687500 -10.328125 0 0 0 0 0.000000 0.000000 0.000000 0.000000
-17.811749 -0.761999 -14.249401 1.000000 0.000000 0.000000 -0.000000 1.000000 -0.000000 0.687500 -11.015625 0 0 0 0 0.000000 0.000000 0.000000 0.000000
-16.516348 -1.066799 -13.411201 0.000000 0.000000 -1.000000 -0.000000 1.000000 0.000000 0.562500 -12.875000 0 0 0 0 0.000000 0.000000 0.000000 0.000000
-16.516348 -0.761999 -13.411201 0.000000 0.000000 -1.000000 -0.000000 1.000000 0.000000 0.687500 -12.875000 0 0 0 0 0.000000 0.000000 0.000000 0.000000
-17.811749 -0.761999 -13.411201 0.000000 0.000000 -1.000000 -0.000000 1.000000 0.000000 0.687500 -13.937500 0 0 0 0 0.000000 0.000000 0.000000 0.000000
-17.811749 -1.066799 -13.411201 0.000000 0.000000 -1.000000 -0.000000 1.000000 0.000000 0.562500 -13.937500 0 0 0 0 0.000000 0.000000 0.000000 0.000000
-16.516348 -1.066799 -13.411201 -1.000000 -0.000000 -0.000000 -0.000000 1.000000 -0.000000 0.562500 -10.328125 0 0 0 0 0.000000 0.000000 0.000000 0.000000
-16.516348 -1.066799 -14.249401 -1.000000 -0.000000 -0.000000 -0.000000 1.000000 -0.000000 0.562500 -11.015625 0 0 0 0 0.000000 0.000000 0.000000 0.000000
-16.516348 -0.761999 -14.249401 -1.000000 -0.000000 -0.000000 -0.000000 1.000000 -0.000000 0.687500 -11.015625 0 0 0 0 0.000000 0.000000 0.000000 0.000000
-16.516348 -0.761999 -13.411201 -1.000000 -0.000000 -0.000000 -0.000000 1.000000 -0.000000 0.687500 -10.328125 0 0 0 0 0.000000 0.000000 0.000000 0.000000
-17.811749 -0.761999 -14.249401 0.000000 -1.000000 -0.000000 -0.000000 -0.000000 1.000000 -5.843750 -13.937500 0 0 0 0 0.000000 0.000000 0.000000 0.000000
-17.811749 -0.761999 -13.411201 0.000000 -1.000000 -0.000000 -0.000000 -0.000000 1.000000 -5.500000 -13.937500 0 0 0 0 0.000000 0.000000 0.000000 0.000000
-16.516348 -0.761999 -13.411201 0.000000 -1.000000 -0.000000 -0.000000 -0.000000 1.000000 -5.500000 -12.875000 0 0 0 0 0.000000 0.000000 0.000000 0.000000
-16.516348 -0.761999 -14.249401 0.000000 -1.000000 -0.000000 0.000000 -0.000000 1.000000 -5.843750 -12.875000 0 0 0 0 0.000000 0.000000 0.000000 0.000000
-19.526249 -1.066800 -13.411201 -1.000000 -0.000000 -0.000000 -0.000000 1.000000 -0.000000 0.562500 -10.328125 0 0 0 0 0.000000 0.000000 0.000000 0.000000
-19.526249 -1.066799 -14.249401 -1.000000 -0.000000 -0.000000 -0.000000 1.000000 -0.000000 0.562500 -11.015625 0 0 0 0 0.000000 0.000000 0.000000 0.000000
-19.526249 -0.761999 -14.249401 -1.000000 -0.000000 -0.000000 -0.000000 1.000000 -0.000000 0.687500 -11.015625 0 0 0 0 0.000000 0.000000 0.000000 0.000000
-19.526249 -0.762000 -13.411201 -1.000000 -0.000000 -0.000000 -0.000000 1.000000 -0.000000 0.687500 -10.328125 0 0 0 0 0.000000 0.000000 0.000000 0.000000
-19.526249 -1.066800 -13.411201 0.000000 0.000000 -1.000000 -0.000000 1.000000 0.000000 0.562500 -15.343750 0 0 0 0 0.000000 0.000000 0.000000 0.000000
-19.526249 -0.762000 -13.411201 0.000000 0.000000 -1.000000 -0.000000 1.000000 0.000000 0.687500 -15.343750 0 0 0 0 0.000000 0.000000 0.000000 0.000000
-20.821650 -0.762000 -13.411201 0.000000 0.000000 -1.000000 -0.000000 1.000000 0.000000 0.687500 -16.406250 0 0 0 0 0.000000 0.000000 0.000000 0.000000
-20.821650 -1.066800 -13.411201 0.000000 0.000000 -1.000000 -0.000000 1.000000 0.000000 0.562500 -16.406250 0 0 0 0 0.000000 0.000000 0.000000 0.000000
-20.821648 -1.066799 -14.249401 1.000000 0.000000 0.000000 -0.000000 1.000000 -0.000000 0.562500 -11.015625 0 0 0 0 0.000000 0.000000 0.000000 0.000000
-20.821650 -1.066800 -13.411201 1.000000 0.000000 0.000000 -0.000000 1.000000 -0.000000 0.562500 -10.328125 0 0 0 0 0.000000 0.000000 0.000000 0.000000
-20.821650 -0.762000 -13.411201 1.000000 0.000000 0.000000 -0.000000 1.000000 -0.000000 0.687500 -10.328125 0 0 0 0 0.000000 0.000000 0.000000 0.000000
-20.821648 -0.761999 -14.249401 1.000000 0.000000 0.000000 -0.000000 1.000000 -0.000000 0.687500 -11.015625 0 0 0 0 0.000000 0.000000 0.000000 0.000000
-20.821648 -0.761999 -14.249401 0.000000 -1.000000 -0.000000 -0.000002 -0.000000 1.000000 -5.843750 -16.406250 0 0 0 0 0.000000 0.000000 0.000000 0.000000
-20.821650 -0.762000 -13.411201 0.000000 -1.000000 -0.000000 -0.000003 -0.000000 1.000000 -5.500000 -16.406250 0 0 0 0 0.000000 0.000000 0.000000 0.000000
-19.526249 -0.762000 -13.411201 0.000000 -1.000000 -0.000000 -0.000000 -0.000000 1.000000 -5.500000 -15.343750 0 0 0 0 0.000000 0.000000 0.000000 0.000000
-19.526249 -0.761999 -14.249401 0.000000 -1.000000 -0.000000 -0.000002 -0.000000 1.000000 -5.843750 -15.343750 0 0 0 0 0.000000 0.000000 0.000000 0.000000
-13.258799 1.371602 -17.373600 0.000000 -1.000000 -0.000000 1.000000 0.000000 0.000000 -5.312500 13.750000 0 0 0 0 0.000000 0.000000 0.000000 0.000000
-13.258799 1.371601 -14.249401 -0.000000 -1.000000 -0.000000 -0.000000 -0.000000 1.000000 -5.312500 11.187500 0 0 0 0 0.000000 0.000000 0.000000 0.000000
-13.258799 1.371602 -17.373600 -0.000000 -1.000000 -0.000000 -0.000000 -0.000000 1.000000 -5.312500 13.750000 0 0 0 0 0.000000 0.000000 0.000000 0.000000
-13.258799 1.371602 -17.678400 -0.000000 -1.000000 -0.000000 -0.000000 -0.000000 1.000000 -5.312500 14.000000 0 0 0 0 0.000000 0.000000 0.000000 0.000000
-14.630398 1.371602 -17.678400 -0.000000 -1.000000 -0.000000 1.000000 -0.000000 -0.000000 -5.875000 14.000000 0 0 0 0 0.000000 0.000000 0.000000 0.000000
-17.811749 -0.761999 -15.011401 0.000000 -1.000000 -0.000000 -0.000000 -0.000000 1.000000 -6.156250 -13.937500 0 0 0 0 0.000000 0.000000 0.000000 0.000000
-16.516348 -0.761999 -15.011401 0.000000 -1.000000 -0.000000 -0.000000 -0.000000 1.000000 -6.156250 -12.875000 0 0 0 0 0.000000 0.000000 0.000000 0.000000
-20.821648 -0.761999 -15.011401 0.000000 -1.000000 -0.000000 0.000000 -0.000000 1.000000 -6.156250 -16.406250 0 0 0 0 0.000000 0.000000 0.000000 0.000000
-19.526249 -0.761999 -15.011401 0.000000 -1.000000 -0.000000 0.000000 -0.000000 1.000000 -6.156250 -15.343750 0 0 0 0 0.000000 0.000000 0.000000 0.000000
-20.821648 -1.066799 -14.249401 0.000000 -1.000000 -0.000000 0.000000 -0.000000 1.000000 -5.843750 -16.406250 0 0 0 0 0.000000 0.000000 0.000000 0.000000
-20.821648 -1.066799 -15.011401 0.000000 -1.000000 -0.000000 0.000000 -0.000000 1.000000 -6.156250 -16.406250 0 0 0 0 0.000000 0.000000 0.000000 0.000000
-20.821648 -1.066799 -17.068800 0.000000 -1.000000 -0.000000 0.000000 -0.000000 1.000000 -7.000000 -16.406250 0 0 0 0 0.000000 0.000000 0.000000 0.000000
-21.640799 -1.066799 -17.068802 0.000000 -1.000000 -0.000000 0.000000 -0.000000 1.000000 -7.000000 -17.078125 0 0 0 0 0.000000 0.000000 0.000000 0.000000
-19.526249 -1.066799 -15.011401 0.000000 -1.000000 -0.000000 0.000000 -0.000000 1.000000 -6.156250 -15.343750 0 0 0 0 0.000000 0.000000 0.000000 0.000000
-19.526249 -1.066799 -17.068800 0.000000 -1.000000 -0.000000 -0.000000 -0.000000 1.000000 -7.000000 -15.343750 0 0 0 0 0.000000 0.000000 0.000000 0.000000
-20.821648 -1.066799 -17.068800 0.000000 -1.000000 -0.000000 -0.000000 -0.000000 1.000000 -7.000000 -16.406250 0 0 0 0 0.000000 0.000000 0.000000 0.000000
-20.821648 -1.066799 -15.011401 0.000000 -1.000000 -0.000000 0.000000 -0.000000 1.000000 -6.156250 -16.406250 0 0 0 0 0.000000 0.000000 0.000000 0.000000
-14.935199 -1.066799 -14.249401 0.000000 -1.000000 -0.000000 0.000000 -0.000000 1.000000 -5.843750 -11.578125 0 0 0 0 0.000000 0.000000 0.000000 0.000000
-14.935199 -1.066799 -14.478002 0.000000 -1.000000 -0.000000 0.000000 -0.000000 1.000000 -5.937500 -11.578125 0 0 0 0 0.000000 0.000000 0.000000 0.000000
-14.935199 -1.066799 -16.306801 0.000000 -1.000000 -0.000000 0.000000 -0.000000 1.000000 -6.687500 -11.578125 0 0 0 0 0.000000 0.000000 0.000000 0.000000
-14.935199 -1.066799 -17.068800 0.000000 -1.000000 -0.000000 0.000000 -0.000000 1.000000 -7.000000 -11.578125 0 0 0 0 0.000000 0.000000 0.000000 0.000000
-16.516348 -1.066799 -17.068800 0.000000 -1.000000 -0.000000 -0.000000 -0.000000 1.000000 -7.000000 -12.875000 0 0 0 0 0.000000 0.000000 0.000000 0.000000
-16.516348 -1.066799 -15.011401 0.000000 -1.000000 -0.000000 -0.000000 -0.000000 1.000000 -6.156250 -12.875000 0 0 0 0 0.000000 0.000000 0.000000 0.000000
-17.297398 -1.066799 -17.068800 0.000000 -1.000000 -0.000000 -0.000000 -0.000000 1.000000 -7.000000 -13.515625 0 0 0 0 0.000000 0.000000 0.000000 0.000000
-17.811749 -1.066799 -17.068800 0.000000 -1.000000 -0.000000 -0.000001 -0.000000 1.000000 -7.000000 -13.937500 0 0 0 0 0.000000 0.000000 0.000000 0.000000
-17.811749 -1.066799 -15.011401 0.000000 -1.000000 -0.000000 0.000000 -0.000000 1.000000 -6.156250 -13.937500 0 0 0 0 0.000000 0.000000 0.000000 0.000000
-17.811749 -1.066799 -14.249401 0.000000 -1.000000 -0.000000 0.000000 -0.000000 1.000000 -5.843750 -13.937500 0 0 0 0 0.000000 0.000000 0.000000 0.000000
-17.811749 -1.066799 -15.011401 0.000000 -1.000000 -0.000000 0.000000 -0.000000 1.000000 -6.156250 -13.937500 0 0 0 0 0.000000 0.000000 0.000000 0.000000
-17.811749 -1.066799 -17.068800 0.000000 -1.000000 -0.000000 0.000000 -0.000000 1.000000 -7.000000 -13.937500 0 0 0 0 0.000000 0.000000 0.000000 0.000000
-17.887949 -1.066799 -17.068800 0.000000 -1.000000 -0.000000 0.000000 -0.000000 1.000000 -7.000000 -14.000000 0 0 0 0 0.000000 0.000000 0.000000 0.000000
-17.811749 -1.066799 -15.011401 1.000000 0.000000 0.000000 -0.000000 1.000000 -0.000000 0.562500 -11.640625 0 0 0 0 0.000000 0.000000 0.000000 0.000000
-17.811749 -0.761999 -15.011401 1.000000 0.000000 0.000000 -0.000000 1.000000 -0.000000 0.687500 -11.640625 0 0 0 0 0.000000 0.000000 0.000000 0.000000
-17.811749 -1.066799 -15.011401 -0.000000 -0.000000 1.000000 -0.000000 1.000000 0.000000 0.562500 -13.937500 0 0 0 0 0.000000 0.000000 0.000000 0.000000
-17.811749 -0.761999 -15.011401 -0.000000 -0.000000 1.000000 -0.000000 1.000000 0.000000 0.687500 -13.937500 0 0 0 0 0.000000 0.000000 0.000000 0.000000
-16.516348 -0.761999 -15.011401 -0.000000 -0.000000 1.000000 -0.000000 1.000000 0.000000 0.687500 -12.875000 0 0 0 0 0.000000 0.000000 0.000000 0.000000
-16.516348 -1.066799 -15.011401 -0.000000 -0.000000 1.000000 -0.000000 1.000000 0.000000 0.562500 -12.875000 0 0 0 0 0.000000 0.000000 0.000000 0.000000
-16.516348 -1.066799 -15.011401 -1.000000 -0.000000 -0.000000 -0.000000 1.000000 -0.000000 0.562500 -11.640625 0 0 0 0 0.000000 0.000000 0.000000 0.000000
-16.516348 -0.761999 -15.011401 -1.000000 -0.000000 -0.000000 -0.000000 1.000000 -0.000000 0.687500 -11.640625 0 0 0 0 0.000000 0.000000 0.000000 0.000000
-19.526249 -1.066799 -15.011401 -1.000000 -0.000000 -0.000000 -0.000000 1.000000 -0.000000 0.562500 -11.640625 0 0 0 0 0.000000 0.000000 0.000000 0.000000
-19.526249 -0.761999 -15.011401 -1.000000 -0.000000 -0.000000 -0.000000 1.000000 -0.000000 0.687500 -11.640625 0 0 0 0 0.000000 0.000000 0.000000 0.000000
-20.821648 -1.066799 -15.011401 -0.000000 -0.000000 1.000000 -0.000000 1.000000 0.000000 0.562500 -16.406250 0 0 0 0 0.000000 0.000000 0.000000 0.000000
-20.821648 -0.761999 -15.011401 -0.000000 -0.000000 1.000000 -0.000000 1.000000 0.000000 0.687500 -16.406250 0 0 0 0 0.000000 0.000000 0.000000 0.000000
-19.526249 -0.761999 -15.011401 -0.000000 -0.000000 1.000000 -0.000000 1.000000 0.000000 0.687500 -15.343750 0 0 0 0 0.000000 0.000000 0.000000 0.000000
-19.526249 -1.066799 -15.011401 -0.000000 -0.000000 1.000000 -0.000000 1.000000 0.000000 0.562500 -15.343750 0 0 0 0 0.000000 0.000000 0.000000 0.000000
-20.821648 -1.066799 -15.011401 1.000000 0.000000 0.000000 -0.000000 1.000000 -0.000000 0.562500 -11.640625 0 0 0 0 0.000000 0.000000 0.000000 0.000000
-20.821648 -0.761999 -15.011401 1.000000 0.000000 0.000000 -0.000000 1.000000 -0.000000 0.687500 -11.640625 0 0 0 0 0.000000 0.000000 0.000000 0.000000
IndexCount: 1092
3 1 0
3 2 1
5 3 4
4 6 5
39 42 5
39 5 30
4 7 6
10 14 7
7 13 10
10 15 14
11 10 9
10 11 15
44 9 10
44 10 13
13 45 44
8 9 44
8 44 43
11 9 8
8 12 11
16 15 11
16 11 12
12 17 16
18 16 17
16 18 26
16 26 25
16 25 24
24 21 16
17 20 19
17 19 18
24 22 21
27 21 22
24 23 22
34 24 38
27 22 29
29 28 27
34 38 37
37 38 138
37 35 34
37 36 35
37 138 137
137 136 37
137 138 143
137 143 142
137 142 141
141 139 137
141 142 164
141 140 139
141 164 163
163 162 141
163 164 169
163 169 168
163 168 167
163 167 166
166 165 163
33 31 30
39 30 31
33 32 31
39 31 41
41 40 39
124 41 129
124 129 128
124 128 127
127 125 124
127 128 135
127 135 134
127 134 133
151 133 134
127 133 132
151 150 133
133 174 173
133 173 132
127 132 131
172 171 132
172 132 170
131 130 127
127 126 125
174 176 157
174 157 175
159 158 157
159 157 156
175 157 158
156 160 159
156 161 160
175 158 152
155 153 152
175 152 153
155 154 153
175 153 179
175 179 178
178 177 175
178 181 180
178 180 177
49 47 46
49 48 47
50 47 54
50 54 53
50 53 52
52 51 50
49 88 87
49 87 86
49 86 85
49 85 84
84 82 49
97 86 87
97 96 86
84 83 82
83 84 91
83 91 78
83 78 79
79 89 83
78 72 73
78 73 81
78 81 80
80 79 78
79 90 89
74 73 72
74 72 71
70 75 74
74 71 70
92 70 71
92 71 94
70 67 77
70 77 76
70 76 75
92 95 70
94 93 92
63 68 67
63 67 66
63 69 68
63 66 65
65 64 63
58 56 55
183 58 55
58 57 56
183 182 58
62 60 59
112 62 59
185 184 59
185 59 60
184 112 59
62 61 60
112 111 62
184 265 112
98 103 102
98 102 101
98 101 100
100 99 98
262 103 98
262 261 103
101 102 105
101 105 104
104 105 118
104 118 119
119 120 104
115 119 118
115 118 114
113 116 115
113 115 114
114 109 113
113 117 116
121 113 106
106 122 121
106 123 122
267 387 122
267 122 266
243 268 267
243 267 266
243 266 106
245 244 243
245 243 242
243 244 268
243 106 107
388 268 391
388 391 390
390 389 388
108 107 106
106 109 108
106 110 109
242 250 249
249 245 242
249 246 245
249 248 247
249 247 246
263 248 249
263 249 258
263 258 259
264 263 259
187 259 258
258 257 187
187 260 259
264 259 260
252 264 260
187 251 260
252 260 251
188 187 186
187 188 251
189 252 251
189 251 188
186 189 188
186 191 190
186 190 189
189 190 255
189 255 254
254 253 189
255 256 254
144 149 148
144 148 147
144 147 146
146 145 144
192 196 195
192 195 194
194 193 192
214 196 192
192 215 214
214 216 196
217 197 216
217 216 219
200 198 197
217 200 197
200 199 198
217 220 200
221 223 220
221 220 217
221 225 224
221 224 223
217 222 221
224 234 223
224 233 234
201 202 234
201 234 233
201 233 232
204 202 201
232 230 201
204 203 202
232 231 230
219 218 217
227 225 226
226 228 227
228 241 227
226 229 228
228 239 241
235 240 239
235 239 238
235 238 237
237 236 235
206 205 193
206 193 194
207 212 206
207 206 211
207 213 212
211 208 207
211 210 209
211 209 208
269 274 273
269 273 272
269 272 271
271 270 269
307 273 274
307 306 273
271 272 280
271 280 279
271 279 278
271 278 277
271 277 276
276 275 271
297 279 280
297 296 279
305 296 297
305 297 303
305 304 296
303 301 305
396 305 399
298 302 301
298 301 300
300 299 298
396 399 398
398 397 396
413 278 400
413 400 401
413 401 416
413 416 415
415 414 413
403 401 400
403 402 401
284 282 281
287 288 281
287 281 282
284 283 282
287 282 295
287 295 294
404 295 409
287 294 293
287 293 292
292 291 287
285 288 287
287 286 285
285 290 289
285 289 288
290 310 309
290 309 308
308 289 290
404 409 408
409 412 411
409 411 410
410 408 409
404 408 407
407 405 404
407 406 405
314 312 311
314 313 312
318 316 315
318 317 316
319 323 322
319 322 321
321 320 319
327 325 324
327 326 325
328 332 331
328 331 330
330 329 328
336 334 333
336 335 334
340 338 337
340 339 338
341 345 344
341 344 343
343 342 341
346 350 349
346 349 348
348 347 346
354 352 351
354 353 352
358 356 355
418 358 355
418 355 417
358 357 356
362 360 359
362 361 360
366 364 363
366 365 364
365 423 364
365 424 423
370 368 367
393 370 367
393 367 392
370 369 368
374 372 371
374 373 372
373 425 372
373 426 425
378 376 375
378 377 376
382 380 379
432 382 379
432 379 431
382 381 380
386 384 383
395 386 383
395 383 394
386 385 384
422 420 419
422 421 420
430 428 427
430 429 428
