VertexCount: 44
6.248400 -1.066801 7.543800 0.000000 -1.000000 -0.000000 -0.000000 -0.000000 1.000000 5.137500 24.937500 0 0 0 0 0.000000 0.000000 0.000000 0.000000
6.248400 -1.066801 7.315200 0.000000 -1.000000 -0.000000 -0.000000 -0.000000 1.000000 4.987500 24.937500 0 0 0 0 0.000000 0.000000 0.000000 0.000000
5.638799 -1.066801 7.315200 0.000000 -1.000000 -0.000000 -0.000000 -0.000000 1.000000 4.987500 22.937500 0 0 0 0 0.000000 0.000000 0.000000 0.000000
5.638799 -1.066801 7.543800 0.000000 -1.000000 -0.000000 -0.000000 -0.000000 1.000000 5.137500 22.937500 0 0 0 0 0.000000 0.000000 0.000000 0.000000
6.248400 -1.066801 7.543800 0.000000 0.000000 -1.000000 0.000000 1.000000 0.000000 -0.512500 24.937500 0 0 0 0 0.000000 0.000000 0.000000 0.000000
5.638799 -1.066801 7.543800 0.000000 0.000000 -1.000000 0.000000 1.000000 0.000000 -0.512500 22.937500 0 0 0 0 0.000000 0.000000 0.000000 0.000000
5.638799 -2.133601 7.543800 0.000000 0.000000 -1.000000 0.000000 1.000000 0.000000 -1.212500 22.937500 0 0 0 0 0.000000 0.000000 0.000000 0.000000
6.248400 -2.133600 7.543800 0.000000 0.000000 -1.000000 0.000000 1.000000 0.000000 -1.212500 24.937500 0 0 0 0 0.000000 0.000000 0.000000 0.000000
6.248400 -4.572001 7.543800 0.000000 0.000000 -1.000000 0.000000 1.000000 0.000000 -2.812500 24.937500 0 0 0 0 0.000000 0.000000 0.000000 0.000000
5.638800 -4.572001 7.543800 0.000000 0.000000 -1.000000 0.000000 1.000000 0.000000 -2.812500 22.937500 0 0 0 0 0.000000 0.000000 0.000000 0.000000
5.638800 -5.638801 7.543799 0.000000 0.000000 -1.000000 0.000000 1.000000 0.000000 -3.512500 22.937500 0 0 0 0 0.000000 0.000000 0.000000 0.000000
6.248400 -5.638801 7.543799 0.000000 0.000000 -1.000000 0.000000 1.000000 0.000000 -3.512500 24.937500 0 0 0 0 0.000000 0.000000 0.000000 0.000000
5.638799 -2.133601 7.562850 0.000000 0.000000 -1.000000 -0.000000 1.000000 0.000000 -1.212500 22.937500 0 0 0 0 0.000000 0.000000 0.000000 0.000000
5.638800 -4.572001 7.562850 0.000000 0.000000 -1.000000 -0.000000 1.000000 0.000000 -2.812500 22.937500 0 0 0 0 0.000000 0.000000 0.000000 0.000000
6.248400 -4.572001 7.562850 0.000000 0.000000 -1.000000 -0.000000 1.000000 0.000000 -2.812500 24.937500 0 0 0 0 0.000000 0.000000 0.000000 0.000000
6.248400 -2.133600 7.562850 0.000000 0.000000 -1.000000 -0.000000 1.000000 0.000000 -1.212500 24.937500 0 0 0 0 0.000000 0.000000 0.000000 0.000000
6.248400 -5.638801 7.315199 -0.000000 1.000000 0.000000 0.000000 -0.000000 1.000000 4.987500 24.937500 0 0 0 0 0.000000 0.000000 0.000000 0.000000
6.248400 -5.638801 7.543799 -0.000000 1.000000 0.000000 0.000000 -0.000000 1.000000 5.137500 24.937500 0 0 0 0 0.000000 0.000000 0.000000 0.000000
5.638800 -5.638801 7.543799 -0.000000 1.000000 0.000000 0.000000 -0.000000 1.000000 5.137500 22.937500 0 0 0 0 0.000000 0.000000 0.000000 0.000000
5.638800 -5.638801 7.315199 -0.000000 1.000000 0.000000 0.000000 -0.000000 1.000000 4.987500 22.937500 0 0 0 0 0.000000 0.000000 0.000000 0.000000
6.248400 -1.066800 4.495800 0.000000 -1.000000 -0.000000 0.000000 -0.000000 1.000000 3.137500 24.937500 0 0 0 0 0.000000 0.000000 0.000000 0.000000
5.638799 -1.066800 4.495800 0.000000 -1.000000 -0.000000 0.000000 -0.000000 1.000000 3.137500 22.937500 0 0 0 0 0.000000 0.000000 0.000000 0.000000
6.248400 -5.638800 4.495800 -0.000000 1.000000 0.000000 -0.000000 -0.000000 1.000000 3.137500 24.937500 0 0 0 0 0.000000 0.000000 0.000000 0.000000
5.638800 -5.638800 4.495800 -0.000000 1.000000 0.000000 -0.000000 -0.000000 1.000000 3.137500 22.937500 0 0 0 0 0.000000 0.000000 0.000000 0.000000
5.638799 -1.066800 4.495800 -0.000000 -0.000000 1.000000 -0.000000 1.000000 0.000000 -0.512500 22.937500 0 0 0 0 0.000000 0.000000 0.000000 0.000000
6.248400 -1.066800 4.495800 -0.000000 -0.000000 1.000000 -0.000000 1.000000 0.000000 -0.512500 24.937500 0 0 0 0 0.000000 0.000000 0.000000 0.000000
6.248400 -2.133600 4.495800 -0.000000 -0.000000 1.000000 -0.000000 1.000000 0.000000 -1.212500 24.937500 0 0 0 0 0.000000 0.000000 0.000000 0.000000
6.248400 -2.362200 4.495800 -0.000000 -0.000000 1.000000 -0.000000 1.000000 0.000000 -1.362500 24.937500 0 0 0 0 0.000000 0.000000 0.000000 0.000000
6.248400 -2.743200 4.495800 -0.000000 -0.000000 1.000000 -0.000000 1.000000 0.000000 -1.612500 24.937500 0 0 0 0 0.000000 0.000000 0.000000 0.000000
6.248400 -3.962400 4.495800 -0.000000 -0.000000 1.000000 -0.000001 1.000000 0.000000 -2.412500 24.937500 0 0 0 0 0.000000 0.000000 0.000000 0.000000
6.248400 -4.343400 4.495800 -0.000000 -0.000000 1.000000 -0.000000 1.000000 0.000000 -2.662500 24.937500 0 0 0 0 0.000000 0.000000 0.000000 0.000000
6.248400 -4.572001 4.495800 -0.000000 -0.000000 1.000000 -0.000000 1.000000 0.000000 -2.812500 24.937500 0 0 0 0 0.000000 0.000000 0.000000 0.000000
6.248400 -5.638800 4.495800 -0.000000 -0.000000 1.000000 0.000000 1.000000 0.000000 -3.512500 24.937500 0 0 0 0 0.000000 0.000000 0.000000 0.000000
5.638800 -5.638800 4.495800 -0.000000 -0.000000 1.000000 0.000000 1.000000 0.000000 -3.512500 22.937500 0 0 0 0 0.000000 0.000000 0.000000 0.000000
5.638800 -4.572001 4.495800 -0.000000 -0.000000 1.000000 -0.000000 -1.000000 -0.000000 -2.812500 22.937500 0 0 0 0 0.000000 0.000000 0.000000 0.000000
5.638800 -4.343400 4.495800 -0.000000 -0.000000 1.000000 0.000000 -1.000000 -0.000000 -2.662500 22.937500 0 0 0 0 0.000000 0.000000 0.000000 0.000000
5.638800 -3.962400 4.495800 -0.000000 -0.000000 1.000000 -0.000000 1.000000 0.000000 -2.412500 22.937500 0 0 0 0 0.000000 0.000000 0.000000 0.000000
5.638799 -2.743200 4.495800 -0.000000 -0.000000 1.000000 0.000000 -1.000000 -0.000000 -1.612500 22.937500 0 0 0 0 0.000000 0.000000 0.000000 0.000000
5.638799 -2.362200 4.495800 -0.000000 -0.000000 1.000000 -0.000000 1.000000 0.000000 -1.362500 22.937500 0 0 0 0 0.000000 0.000000 0.000000 0.000000
5.638799 -2.133600 4.495800 -0.000000 -0.000000 1.000000 0.000000 -1.000000 -0.000000 -1.212500 22.937500 0 0 0 0 0.000000 0.000000 0.000000 0.000000
4.076702 -1.828796 -19.812000 0.000000 -1.000000 -0.000000 -0.000000 -0.000000 1.000000 -9.550000 10.850962 0 0 0 0 0.000000 0.000000 0.000000 0.000000
4.076702 -1.828796 -22.250401 0.000000 -1.000000 -0.000000 -0.000000 -0.000000 1.000000 -10.780769 10.850962 0 0 0 0 0.000000 0.000000 0.000000 0.000000
3.695702 -1.828796 -22.250401 0.000000 -1.000000 -0.000000 -0.000000 -0.000000 1.000000 -10.780769 9.889423 0 0 0 0 0.000000 0.000000 0.000000 0.000000
3.695702 -1.828796 -19.812000 0.000000 -1.000000 -0.000000 -0.000000 -0.000000 1.000000 -9.550000 9.889423 0 0 0 0 0.000000 0.000000 0.000000 0.000000
IndexCount: 90
3 1 0
3 2 1
2 20 1
2 21 20
7 5 4
7 6 5
11 9 8
11 10 9
15 13 12
15 14 13
19 17 16
23 19 16
23 16 22
19 18 17
24 39 38
36 25 24
38 36 24
38 37 36
36 35 34
36 34 33
36 33 32
36 32 31
36 31 30
36 30 29
36 29 28
36 28 27
36 27 26
36 26 25
43 41 40
43 42 41
