VertexCount: 20
-6.210299 -1.676399 -10.706100 -0.000000 -0.000000 1.000000 1.000000 -0.000000 0.000000 -20.250000 5.312500 0 0 0 0 0.000000 0.000000 0.000000 0.000000
-6.210299 -1.752599 -10.706100 -0.000000 -0.000000 1.000000 1.000000 -0.000000 0.000000 -20.250000 5.562500 0 0 0 0 0.000000 0.000000 0.000000 0.000000
-6.362699 -1.752599 -10.706100 -0.000000 -0.000000 1.000000 1.000000 -0.000000 0.000000 -20.750000 5.562500 0 0 0 0 0.000000 0.000000 0.000000 0.000000
-6.362699 -1.676399 -10.706100 -0.000000 -0.000000 1.000000 1.000000 -0.000000 0.000000 -20.750000 5.312500 0 0 0 0 0.000000 0.000000 0.000000 0.000000
-6.362699 -1.676399 -10.706100 -0.707100 -0.000000 0.707113 0.707113 0.000001 0.707100 -35.000000 5.312500 0 0 0 0 0.000000 0.000000 0.000000 0.000000
-6.362699 -1.752599 -10.706100 -0.707100 -0.000000 0.707113 0.707113 0.000001 0.707100 -35.000000 5.562500 0 0 0 0 0.000000 0.000000 0.000000 0.000000
-6.400799 -1.790699 -10.744199 -0.707100 -0.000000 0.707113 0.707113 -0.000001 0.707100 -35.125000 5.687500 0 0 0 0 0.000000 0.000000 0.000000 0.000000
-6.400799 -1.638299 -10.744199 -0.707100 -0.000000 0.707113 0.707113 0.000001 0.707100 -35.125000 5.187500 0 0 0 0 0.000000 0.000000 0.000000 0.000000
-6.172199 -1.638299 -10.744199 -0.000000 0.707102 0.707111 1.000000 0.000000 0.000000 -20.125000 35.062500 0 0 0 0 0.000000 0.000000 0.000000 0.000000
-6.210299 -1.676399 -10.706100 -0.000000 0.707102 0.707111 1.000000 0.000000 0.000000 -20.250000 34.937500 0 0 0 0 0.000000 0.000000 0.000000 0.000000
-6.362699 -1.676399 -10.706100 -0.000000 0.707102 0.707111 1.000000 0.000000 0.000000 -20.750000 34.937500 0 0 0 0 0.000000 0.000000 0.000000 0.000000
-6.400799 -1.638299 -10.744199 -0.000000 0.707102 0.707111 1.000000 0.000000 0.000000 -20.875000 35.062500 0 0 0 0 0.000000 0.000000 0.000000 0.000000
-6.172199 -1.638299 -10.744199 0.707107 -0.000000 0.707106 -0.707106 0.000001 0.707107 -35.125000 5.187500 0 0 0 0 0.000000 0.000000 0.000000 0.000000
-6.172199 -1.790699 -10.744199 0.707107 -0.000000 0.707106 -0.707106 0.000001 0.707107 -35.125000 5.687500 0 0 0 0 0.000000 0.000000 0.000000 0.000000
-6.210299 -1.752599 -10.706100 0.707107 -0.000000 0.707106 -0.707106 -0.000001 0.707107 -35.000000 5.562500 0 0 0 0 0.000000 0.000000 0.000000 0.000000
-6.210299 -1.676399 -10.706100 0.707107 -0.000000 0.707106 -0.707106 0.000001 0.707107 -35.000000 5.312500 0 0 0 0 0.000000 0.000000 0.000000 0.000000
-6.210299 -1.752599 -10.706100 -0.000000 -0.707103 0.707111 1.000000 -0.000000 0.000000 -20.250000 34.937500 0 0 0 0 0.000000 0.000000 0.000000 0.000000
-6.172199 -1.790699 -10.744199 -0.000000 -0.707103 0.707111 1.000000 -0.000000 0.000000 -20.125000 35.062500 0 0 0 0 0.000000 0.000000 0.000000 0.000000
-6.400799 -1.790699 -10.744199 -0.000000 -0.707103 0.707111 1.000000 -0.000000 0.000000 -20.875000 35.062500 0 0 0 0 0.000000 0.000000 0.000000 0.000000
-6.362699 -1.752599 -10.706100 -0.000000 -0.707103 0.707111 1.000000 -0.000000 0.000000 -20.750000 34.937500 0 0 0 0 0.000000 0.000000 0.000000 0.000000
IndexCount: 30
3 1 0
3 2 1
7 5 4
7 6 5
11 9 8
11 10 9
15 13 12
15 14 13
19 17 16
19 18 17
