VertexCount: 4
0.076202 -1.904997 -20.878798 0.000000 -1.000000 -0.000000 1.000000 0.000000 0.000000 0.000000 68.000000 0 0 0 0 0.000000 0.000000 0.000000 0.000000
0.076202 -1.904996 -21.183598 0.000000 -1.000000 -0.000000 1.000000 0.000000 0.000000 0.000000 69.000000 0 0 0 0 0.000000 0.000000 0.000000 0.000000
-0.228598 -1.904997 -21.183598 0.000000 -1.000000 -0.000000 1.000000 0.000000 -0.000000 -1.000000 69.000000 0 0 0 0 0.000000 0.000000 0.000000 0.000000
-0.228598 -1.904997 -20.878798 0.000000 -1.000000 -0.000000 1.000000 0.000000 0.000000 -1.000000 68.000000 0 0 0 0 0.000000 0.000000 0.000000 0.000000
IndexCount: 6
3 2 1
3 1 0
