VertexCount: 48
-21.640800 -1.600198 -12.287251 -0.000000 1.000000 0.000000 1.000000 0.000000 0.000010 -13.362500 8.250000 0 0 0 0 0.000000 0.000000 0.000000 0.000000
-21.564600 -1.600198 -12.211049 -0.000000 1.000000 0.000000 1.000000 0.000000 0.000010 -13.312500 8.200000 0 0 0 0 0.000000 0.000000 0.000000 0.000000
-21.564600 -1.600198 -11.906250 -0.000000 1.000000 0.000000 1.000000 0.000000 0.000005 -13.312500 8.000000 0 0 0 0 0.000000 0.000000 0.000000 0.000000
-21.640800 -1.600198 -11.830050 -0.000000 1.000000 0.000000 1.000000 0.000000 0.000010 -13.362500 7.950000 0 0 0 0 0.000000 0.000000 0.000000 0.000000
-21.564600 -1.600198 -12.211049 1.000000 0.000000 0.000000 0.000000 0.000000 1.000000 -7.525000 1.550000 0 0 0 0 0.000000 0.000000 0.000000 0.000000
-21.564600 -1.828798 -12.211049 1.000000 0.000000 0.000000 0.000000 0.000000 1.000000 -7.525000 1.700000 0 0 0 0 0.000000 0.000000 0.000000 0.000000
-21.564600 -1.828798 -11.906250 1.000000 0.000000 0.000000 0.000000 0.000000 1.000000 -7.325000 1.700000 0 0 0 0 0.000000 0.000000 0.000000 0.000000
-21.564600 -1.600198 -11.906250 1.000000 0.000000 0.000000 0.000000 0.000000 1.000000 -7.325000 1.550000 0 0 0 0 0.000000 0.000000 0.000000 0.000000
-21.640800 -1.828798 -11.830050 0.000001 -1.000000 -0.000000 1.000000 0.000001 0.000006 -13.362500 7.750000 0 0 0 0 0.000000 0.000000 0.000000 0.000000
-21.564600 -1.828798 -11.906250 0.000001 -1.000000 -0.000000 1.000000 0.000001 0.000006 -13.312500 7.800000 0 0 0 0 0.000000 0.000000 0.000000 0.000000
-21.564600 -1.828798 -12.211049 0.000001 -1.000000 -0.000000 1.000000 0.000001 0.000011 -13.312500 8.000000 0 0 0 0 0.000000 0.000000 0.000000 0.000000
-21.640800 -1.828798 -12.287251 0.000001 -1.000000 -0.000000 1.000000 0.000001 0.000006 -13.362500 8.050000 0 0 0 0 0.000000 0.000000 0.000000 0.000000
-21.640800 -1.600198 -11.830050 -1.000000 0.000000 0.000000 0.000000 0.000000 1.000000 -7.275000 1.550000 0 0 0 0 0.000000 0.000000 0.000000 0.000000
-21.640800 -1.828798 -11.830050 -1.000000 0.000000 0.000000 0.000000 0.000000 1.000000 -7.275000 1.700000 0 0 0 0 0.000000 0.000000 0.000000 0.000000
-21.640800 -1.828798 -12.287251 -1.000000 0.000000 0.000000 0.000000 0.000000 1.000000 -7.575000 1.700000 0 0 0 0 0.000000 0.000000 0.000000 0.000000
-21.640800 -1.600198 -12.287251 -1.000000 0.000000 0.000000 0.000000 0.000000 1.000000 -7.575000 1.550000 0 0 0 0 0.000000 0.000000 0.000000 0.000000
-21.564600 -1.600198 -11.906250 0.707104 -0.000000 0.707109 -0.707109 -0.000000 0.707104 -7.862500 1.550000 0 0 0 0 0.000000 0.000000 0.000000 0.000000
-21.564600 -1.828798 -11.906250 0.707104 -0.000000 0.707109 -0.707109 -0.000000 0.707104 -7.862500 1.700000 0 0 0 0 0.000000 0.000000 0.000000 0.000000
-21.640800 -1.828798 -11.830050 0.707104 -0.000000 0.707109 -0.707109 -0.000000 0.707104 -7.812500 1.700000 0 0 0 0 0.000000 0.000000 0.000000 0.000000
-21.640800 -1.600198 -11.830050 0.707104 -0.000000 0.707109 -0.707109 -0.000000 0.707104 -7.812500 1.550000 0 0 0 0 0.000000 0.000000 0.000000 0.000000
-21.640800 -1.600198 -12.287251 0.707109 0.000000 -0.707105 0.707105 -0.000000 0.707109 -8.112500 1.550000 0 0 0 0 0.000000 0.000000 0.000000 0.000000
-21.640800 -1.828798 -12.287251 0.707109 0.000000 -0.707105 0.707105 -0.000000 0.707109 -8.112500 1.700000 0 0 0 0 0.000000 0.000000 0.000000 0.000000
-21.564600 -1.828798 -12.211049 0.707109 0.000000 -0.707105 0.707105 -0.000000 0.707109 -8.062500 1.700000 0 0 0 0 0.000000 0.000000 0.000000 0.000000
-21.564600 -1.600198 -12.211049 0.707109 0.000000 -0.707105 0.707105 -0.000000 0.707109 -8.062500 1.550000 0 0 0 0 0.000000 0.000000 0.000000 0.000000
-17.373600 -2.133601 8.305799 0.000001 -1.000000 -0.000000 1.000000 0.000001 0.000005 -12.362500 -5.250000 0 0 0 0 0.000000 0.000000 0.000000 0.000000
-17.297400 -2.133601 8.229599 0.000001 -1.000000 -0.000000 1.000000 0.000001 0.000005 -12.312500 -5.200000 0 0 0 0 0.000000 0.000000 0.000000 0.000000
-17.297400 -2.133601 7.924799 0.000001 -1.000000 -0.000000 1.000000 0.000001 -0.000007 -12.312500 -5.000000 0 0 0 0 0.000000 0.000000 0.000000 0.000000
-17.373600 -2.133601 7.848599 0.000001 -1.000000 -0.000000 1.000000 0.000001 0.000005 -12.362500 -4.950000 0 0 0 0 0.000000 0.000000 0.000000 0.000000
-17.297400 -1.905001 7.924799 1.000000 0.000000 0.000000 0.000000 -0.000001 1.000000 4.475000 1.550000 0 0 0 0 0.000000 0.000000 0.000000 0.000000
-17.297400 -2.133601 7.924799 1.000000 0.000000 0.000000 0.000000 -0.000001 1.000000 4.475000 1.700000 0 0 0 0 0.000000 0.000000 0.000000 0.000000
-17.297400 -2.133601 8.229599 1.000000 0.000000 0.000000 0.000000 -0.000001 1.000000 4.675000 1.700000 0 0 0 0 0.000000 0.000000 0.000000 0.000000
-17.297400 -1.905001 8.229599 1.000000 0.000000 0.000000 0.000000 -0.000001 1.000000 4.675000 1.550000 0 0 0 0 0.000000 0.000000 0.000000 0.000000
-17.373600 -1.905001 7.848599 0.000002 1.000000 0.000000 1.000000 -0.000002 -0.000005 -12.362500 -4.750000 0 0 0 0 0.000000 0.000000 0.000000 0.000000
-17.297400 -1.905001 7.924799 0.000002 1.000000 0.000000 1.000000 -0.000002 -0.000005 -12.312500 -4.800000 0 0 0 0 0.000000 0.000000 0.000000 0.000000
-17.297400 -1.905001 8.229599 0.000002 1.000000 0.000000 1.000000 -0.000002 0.000007 -12.312500 -5.000000 0 0 0 0 0.000000 0.000000 0.000000 0.000000
-17.373600 -1.905001 8.305799 0.000002 1.000000 0.000000 1.000000 -0.000002 -0.000005 -12.362500 -5.050000 0 0 0 0 0.000000 0.000000 0.000000 0.000000
-17.373600 -1.905001 8.305799 -1.000000 0.000000 0.000000 0.000000 -0.000000 1.000000 4.725000 1.550000 0 0 0 0 0.000000 0.000000 0.000000 0.000000
-17.373600 -2.133601 8.305799 -1.000000 0.000000 0.000000 0.000000 -0.000000 1.000000 4.725000 1.700000 0 0 0 0 0.000000 0.000000 0.000000 0.000000
-17.373600 -2.133601 7.848599 -1.000000 0.000000 0.000000 0.000000 -0.000000 1.000000 4.425000 1.700000 0 0 0 0 0.000000 0.000000 0.000000 0.000000
-17.373600 -1.905001 7.848599 -1.000000 0.000000 0.000000 0.000000 -0.000000 1.000000 4.425000 1.550000 0 0 0 0 0.000000 0.000000 0.000000 0.000000
-17.373600 -1.905001 7.848599 0.707106 0.000000 -0.707107 0.707107 0.000000 0.707106 4.887500 1.550000 0 0 0 0 0.000000 0.000000 0.000000 0.000000
-17.373600 -2.133601 7.848599 0.707106 0.000000 -0.707107 0.707107 0.000000 0.707106 4.887500 1.700000 0 0 0 0 0.000000 0.000000 0.000000 0.000000
-17.297400 -2.133601 7.924799 0.707106 0.000000 -0.707107 0.707107 0.000000 0.707106 4.937500 1.700000 0 0 0 0 0.000000 0.000000 0.000000 0.000000
-17.297400 -1.905001 7.924799 0.707106 0.000000 -0.707107 0.707107 0.000000 0.707106 4.937500 1.550000 0 0 0 0 0.000000 0.000000 0.000000 0.000000
-17.297400 -1.905001 8.229599 0.707109 -0.000000 0.707105 -0.707105 -0.000000 0.707109 5.137500 1.550000 0 0 0 0 0.000000 0.000000 0.000000 0.000000
-17.297400 -2.133601 8.229599 0.707109 -0.000000 0.707105 -0.707105 -0.000000 0.707109 5.137500 1.700000 0 0 0 0 0.000000 0.000000 0.000000 0.000000
-17.373600 -2.133601 8.305799 0.707109 -0.000000 0.707105 -0.707105 -0.000000 0.707109 5.187500 1.700000 0 0 0 0 0.000000 0.000000 0.000000 0.000000
-17.373600 -1.905001 8.305799 0.707109 -0.000000 0.707105 -0.707105 -0.000000 0.707109 5.187500 1.550000 0 0 0 0 0.000000 0.000000 0.000000 0.000000
IndexCount: 72
3 1 0
3 2 1
7 5 4
7 6 5
11 9 8
11 10 9
15 13 12
15 14 13
19 17 16
19 18 17
23 21 20
23 22 21
27 25 24
27 26 25
31 29 28
31 30 29
35 33 32
35 34 33
39 37 36
39 38 37
43 41 40
43 42 41
47 45 44
47 46 45