VertexCount: 15
-27.889198 -4.754910 7.772397 0.000000 0.000000 -1.000000 1.000000 -0.000000 0.000000 -11.437500 1.060009 0 0 0 0 0.000000 0.000000 0.000000 0.000000
-26.822399 -4.572004 7.772397 0.000000 0.000000 -1.000000 1.000000 -0.000000 0.000000 -11.000000 1.000000 0 0 0 0 0.000000 0.000000 0.000000 0.000000
-26.822399 -4.267204 7.772397 0.000000 0.000000 -1.000000 1.000000 0.000000 0.000000 -11.000000 0.900000 0 0 0 0 0.000000 0.000000 0.000000 0.000000
-27.889198 -4.267204 7.772397 0.000000 0.000000 -1.000000 1.000000 -0.000000 0.000000 -11.437500 0.900000 0 0 0 0 0.000000 0.000000 0.000000 0.000000
-30.099001 -5.133788 7.772397 0.000000 0.000000 -1.000000 1.000000 -0.000000 0.000000 -12.343750 1.184312 0 0 0 0 0.000000 0.000000 0.000000 0.000000
-32.156399 -4.267204 7.772396 0.000000 0.000000 -1.000000 1.000000 0.000000 0.000000 -13.187500 0.900000 0 0 0 0 0.000000 0.000000 0.000000 0.000000
-32.156399 -5.486404 7.772396 0.000000 0.000000 -1.000000 1.000000 0.000000 0.000000 -13.187500 1.300000 0 0 0 0 0.000000 0.000000 0.000000 0.000000
-24.231598 -4.572003 7.772398 0.000000 0.000000 -1.000000 1.000000 0.000000 0.000000 -9.937500 1.000000 0 0 0 0 0.000000 0.000000 0.000000 0.000000
-24.231598 -4.267203 7.772398 0.000000 0.000000 -1.000000 1.000000 0.000000 0.000000 -9.937500 0.900000 0 0 0 0 0.000000 0.000000 0.000000 0.000000
-27.889198 -1.524004 7.772398 0.000000 0.000000 -1.000000 1.000000 0.000000 0.000000 -11.437500 0.000000 0 0 0 0 0.000000 0.000000 0.000000 0.000000
-27.889198 -3.810004 7.772397 0.000000 0.000000 -1.000000 1.000000 0.000000 0.000000 -11.437500 0.750000 0 0 0 0 0.000000 0.000000 0.000000 0.000000
-24.231598 -3.810003 7.772398 0.000000 0.000000 -1.000000 1.000000 0.000000 0.000000 -9.937500 0.750000 0 0 0 0 0.000000 0.000000 0.000000 0.000000
-24.231598 -1.524003 7.772398 0.000000 0.000000 -1.000000 1.000000 0.000000 0.000000 -9.937500 0.000000 0 0 0 0 0.000000 0.000000 0.000000 0.000000
-32.156399 -1.524004 7.772397 0.000000 0.000000 -1.000000 1.000000 0.000000 0.000000 -13.187500 0.000000 0 0 0 0 0.000000 0.000000 0.000000 0.000000
-32.156399 -3.810004 7.772396 0.000000 0.000000 -1.000000 1.000000 0.000000 0.000000 -13.187500 0.750000 0 0 0 0 0.000000 0.000000 0.000000 0.000000
IndexCount: 33
3 1 0
3 0 4
3 2 1
4 5 3
8 7 1
8 1 2
4 6 5
12 10 9
10 13 9
12 11 10
10 14 13
