VertexCount: 12
3.657600 -3.714751 3.905249 -1.000000 0.000000 0.000000 0.000000 0.000000 -1.000000 -13.000000 -11.968750 0 0 0 0 0.000000 0.000000 0.000000 0.000000
3.657600 -3.409950 3.905249 -1.000000 0.000000 0.000000 0.000000 0.000000 -1.000000 -13.000000 -10.968750 0 0 0 0 0.000000 0.000000 0.000000 0.000000
3.657600 -3.409950 4.210049 -1.000000 0.000000 0.000000 0.000000 0.000000 -1.000000 -14.000000 -10.968750 0 0 0 0 0.000000 0.000000 0.000000 0.000000
3.657600 -3.714751 4.210049 -1.000000 0.000000 0.000000 0.000000 0.000000 -1.000000 -14.000000 -11.968750 0 0 0 0 0.000000 0.000000 0.000000 0.000000
-20.421600 -2.990849 -7.962901 0.707105 0.000000 -0.707108 0.707108 0.000000 0.707105 -29.059029 8.052083 0 0 0 0 0.000000 0.000000 0.000000 0.000000
-20.688301 -2.990849 -8.229601 0.707105 0.000000 -0.707108 0.707108 0.000000 0.707105 -30.031252 8.052083 0 0 0 0 0.000000 0.000000 0.000000 0.000000
-20.688301 -3.371849 -8.229601 0.707105 0.000000 -0.707108 0.707108 0.000000 0.707105 -30.031252 9.093750 0 0 0 0 0.000000 0.000000 0.000000 0.000000
-20.421600 -3.371849 -7.962901 0.707105 0.000000 -0.707108 0.707108 0.000000 0.707105 -29.059029 9.093750 0 0 0 0 0.000000 0.000000 0.000000 0.000000
-20.764500 -2.990847 -15.925800 0.707108 -0.000000 0.707105 -0.707105 0.000000 0.707108 -58.024307 8.052083 0 0 0 0 0.000000 0.000000 0.000000 0.000000
-20.497799 -2.990847 -16.192501 0.707108 -0.000000 0.707105 -0.707105 0.000000 0.707108 -58.996532 8.052083 0 0 0 0 0.000000 0.000000 0.000000 0.000000
-20.497799 -3.371847 -16.192501 0.707108 -0.000000 0.707105 -0.707105 0.000000 0.707108 -58.996532 9.093750 0 0 0 0 0.000000 0.000000 0.000000 0.000000
-20.764500 -3.371847 -15.925800 0.707108 -0.000000 0.707105 -0.707105 0.000000 0.707108 -58.024307 9.093750 0 0 0 0 0.000000 0.000000 0.000000 0.000000
IndexCount: 18
3 2 1
3 1 0
7 6 5
7 5 4
11 10 9
11 9 8