VertexCount: 25
-5.181600 -3.657602 9.220200 1.000000 0.000000 0.000000 -0.000000 -0.000000 1.000000 6.984375 4.000000 0 0 0 0 0.000000 0.000000 0.000000 0.000000
-5.181600 -4.572002 9.220200 1.000000 0.000000 0.000000 -0.000000 -0.000000 1.000000 6.984375 5.000000 0 0 0 0 0.000000 0.000000 0.000000 0.000000
-5.181600 -4.572002 10.439398 1.000000 0.000000 0.000000 -0.000000 -0.000000 1.000000 7.984375 5.000000 0 0 0 0 0.000000 0.000000 0.000000 0.000000
-5.181600 -3.657602 10.439399 1.000000 0.000000 0.000000 -0.000000 -0.000000 1.000000 7.984375 4.000000 0 0 0 0 0.000000 0.000000 0.000000 0.000000
-5.791200 -3.657602 10.439399 -1.000000 -0.000000 -0.000000 -0.000000 -0.000000 1.000000 7.984375 4.000000 0 0 0 0 0.000000 0.000000 0.000000 0.000000
-5.791200 -4.572002 10.439398 -1.000000 -0.000000 -0.000000 -0.000000 -0.000000 1.000000 7.984375 5.000000 0 0 0 0 0.000000 0.000000 0.000000 0.000000
-5.791200 -4.572002 10.210798 -1.000000 -0.000000 -0.000000 -0.000000 -0.000000 1.000000 7.796875 5.000000 0 0 0 0 0.000000 0.000000 0.000000 0.000000
-5.791200 -4.572002 9.220200 -1.000000 -0.000000 -0.000000 -0.000000 -0.000000 1.000000 6.984375 5.000000 0 0 0 0 0.000000 0.000000 0.000000 0.000000
-5.791200 -3.657602 9.220200 -1.000000 -0.000000 -0.000000 -0.000000 -0.000000 1.000000 6.984375 4.000000 0 0 0 0 0.000000 0.000000 0.000000 0.000000
-5.715000 -3.657602 9.220200 1.000000 0.000000 0.000000 -0.000000 -0.000000 1.000000 6.984375 4.000000 0 0 0 0 0.000000 0.000000 0.000000 0.000000
-5.715000 -4.572002 9.220200 1.000000 0.000000 0.000000 -0.000000 -0.000000 1.000000 6.984375 5.000000 0 0 0 0 0.000000 0.000000 0.000000 0.000000
-5.715000 -4.572002 10.439398 1.000000 0.000000 0.000000 -0.000000 -0.000000 1.000000 7.984375 5.000000 0 0 0 0 0.000000 0.000000 0.000000 0.000000
-5.715000 -3.657602 10.439399 1.000000 0.000000 0.000000 -0.000000 -0.000000 1.000000 7.984375 4.000000 0 0 0 0 0.000000 0.000000 0.000000 0.000000
-5.257800 -3.657602 10.439399 -1.000000 -0.000000 -0.000000 -0.000000 -0.000000 1.000000 7.984375 4.000000 0 0 0 0 0.000000 0.000000 0.000000 0.000000
-5.257800 -4.572002 10.439398 -1.000000 -0.000000 -0.000000 -0.000000 -0.000000 1.000000 7.984375 5.000000 0 0 0 0 0.000000 0.000000 0.000000 0.000000
-5.257800 -4.572002 9.220200 -1.000000 -0.000000 -0.000000 -0.000000 -0.000000 1.000000 6.984375 5.000000 0 0 0 0 0.000000 0.000000 0.000000 0.000000
-5.257800 -3.657602 9.220200 -1.000000 -0.000000 -0.000000 -0.000000 -0.000000 1.000000 6.984375 4.000000 0 0 0 0 0.000000 0.000000 0.000000 0.000000
-16.002001 -1.600201 0.609598 -0.000000 -0.000000 1.000000 1.000000 0.000000 0.000000 -13.015625 2.000000 0 0 0 0 0.000000 0.000000 0.000000 0.000000
-16.002001 -2.514601 0.609598 -0.000000 -0.000000 1.000000 1.000000 0.000000 0.000000 -13.015625 3.000000 0 0 0 0 0.000000 0.000000 0.000000 0.000000
-17.221201 -2.514602 0.609598 -0.000000 -0.000000 1.000000 1.000000 0.000000 0.000000 -14.015625 3.000000 0 0 0 0 0.000000 0.000000 0.000000 0.000000
-17.221201 -1.600202 0.609598 -0.000000 -0.000000 1.000000 1.000000 0.000000 0.000000 -14.015625 2.000000 0 0 0 0 0.000000 0.000000 0.000000 0.000000
-17.221201 -1.600201 0.533398 0.000000 0.000000 -1.000000 1.000000 -0.000000 0.000000 -14.015625 2.000000 0 0 0 0 0.000000 0.000000 0.000000 0.000000
-17.221201 -2.514601 0.533398 0.000000 0.000000 -1.000000 1.000000 -0.000000 0.000000 -14.015625 3.000000 0 0 0 0 0.000000 0.000000 0.000000 0.000000
-16.002001 -2.514601 0.533398 0.000000 0.000000 -1.000000 1.000000 -0.000000 0.000000 -13.015625 3.000000 0 0 0 0 0.000000 0.000000 0.000000 0.000000
-16.002001 -1.600201 0.533398 0.000000 0.000000 -1.000000 1.000000 -0.000000 0.000000 -13.015625 2.000000 0 0 0 0 0.000000 0.000000 0.000000 0.000000
IndexCount: 39
3 1 0
3 2 1
4 8 7
4 7 6
6 5 4
12 10 9
12 11 10
16 14 13
16 15 14
20 18 17
20 19 18
24 22 21
24 23 22
