VertexCount: 521
-5.181600 -4.572002 8.458200 -0.000000 -0.000000 1.000000 1.000000 -0.000000 0.000000 -1.812500 1.000000 0 0 0 0 0.000000 0.000000 0.000000 0.000000
-5.181600 -3.657602 8.458200 -0.000000 -0.000000 1.000000 1.000000 -0.000000 0.000000 -1.812500 0.700000 0 0 0 0 0.000000 0.000000 0.000000 0.000000
-5.029201 -3.657602 8.458200 -0.000000 -0.000000 1.000000 1.000000 -0.000000 0.000000 -1.750000 0.700000 0 0 0 0 0.000000 0.000000 0.000000 0.000000
-4.876800 -3.657602 8.458200 -0.000000 -0.000000 1.000000 1.000000 -0.000000 0.000000 -1.687500 0.700000 0 0 0 0 0.000000 0.000000 0.000000 0.000000
-4.876800 -4.572002 8.458200 -0.000000 -0.000000 1.000000 1.000000 -0.000000 0.000000 -1.687500 1.000000 0 0 0 0 0.000000 0.000000 0.000000 0.000000
-4.876800 -3.657601 7.296148 1.000000 0.000000 0.000000 -0.000000 -0.000000 1.000000 3.304688 0.700000 0 0 0 0 0.000000 0.000000 0.000000 0.000000
-4.876800 -4.572001 7.296148 1.000000 0.000000 0.000000 -0.000000 -0.000000 1.000000 3.304688 1.000000 0 0 0 0 0.000000 0.000000 0.000000 0.000000
-4.876800 -4.572002 8.458200 1.000000 0.000000 0.000000 -0.000000 -0.000000 1.000000 3.781250 1.000000 0 0 0 0 0.000000 0.000000 0.000000 0.000000
-4.876800 -3.657602 8.458200 1.000000 0.000000 0.000000 -0.000000 -0.000000 1.000000 3.781250 0.700000 0 0 0 0 0.000000 0.000000 0.000000 0.000000
-4.876800 -3.657601 7.467599 1.000000 0.000000 0.000000 -0.000000 -0.000000 1.000000 3.375000 0.700000 0 0 0 0 0.000000 0.000000 0.000000 0.000000
-0.617682 -3.886201 7.296149 0.888955 0.000006 0.457995 -0.457980 -0.000000 0.888963 2.992188 1.075000 0 0 0 0 0.000000 0.000000 0.000000 0.000000
-0.617672 -4.572001 7.296149 0.888955 0.000006 0.457995 -0.457980 -0.000000 0.888963 2.992188 1.300000 0 0 0 0 0.000000 0.000000 0.000000 0.000000
-0.666750 -4.572001 7.391399 0.888955 0.000006 0.457995 -0.457995 0.000000 0.888955 3.031250 1.300000 0 0 0 0 0.000000 0.000000 0.000000 0.000000
-0.666750 -3.886201 7.391399 0.888955 0.000006 0.457995 -0.457995 -0.000000 0.888955 3.031250 1.075000 0 0 0 0 0.000000 0.000000 0.000000 0.000000
-1.752601 -3.886201 7.943849 -1.000000 -0.000000 -0.000000 -0.000000 0.000000 1.000000 3.257812 1.075000 0 0 0 0 0.000000 0.000000 0.000000 0.000000
-1.752600 -4.572001 7.943849 -1.000000 -0.000000 -0.000000 -0.000000 0.000000 1.000000 3.257812 1.300000 0 0 0 0 0.000000 0.000000 0.000000 0.000000
-1.752600 -4.572001 7.791450 -1.000000 -0.000000 -0.000000 -0.000000 0.000000 1.000000 3.195312 1.300000 0 0 0 0 0.000000 0.000000 0.000000 0.000000
-1.752600 -3.886201 7.791450 -1.000000 -0.000000 -0.000000 -0.000000 0.000000 1.000000 3.195312 1.075000 0 0 0 0 0.000000 0.000000 0.000000 0.000000
-0.666750 -3.886201 7.391399 0.628337 -0.000000 0.777941 0.777941 -0.000000 -0.628337 -0.273438 1.075000 0 0 0 0 0.000000 0.000000 0.000000 0.000000
-0.666750 -4.572001 7.391399 0.628337 -0.000000 0.777941 0.777941 -0.000000 -0.628337 -0.273438 1.300000 0 0 0 0 0.000000 0.000000 0.000000 0.000000
-1.162050 -4.572001 7.791450 0.628337 -0.000000 0.777941 0.777941 -0.000000 -0.628337 -0.476562 1.300000 0 0 0 0 0.000000 0.000000 0.000000 0.000000
-1.162050 -3.886201 7.791450 0.628337 -0.000000 0.777941 0.777941 -0.000000 -0.628337 -0.476562 1.075000 0 0 0 0 0.000000 0.000000 0.000000 0.000000
-0.933450 -3.886201 7.296149 -1.000000 -0.000000 -0.000000 -0.000000 -0.000000 1.000000 2.992188 1.075000 0 0 0 0 0.000000 0.000000 0.000000 0.000000
-0.933450 -3.886201 7.410449 -1.000000 -0.000000 -0.000000 -0.000000 -0.000000 1.000000 3.039062 1.075000 0 0 0 0 0.000000 0.000000 0.000000 0.000000
-0.933450 -3.962401 7.410449 -1.000000 -0.000000 -0.000000 -0.000000 -0.000000 1.000000 3.039062 1.100000 0 0 0 0 0.000000 0.000000 0.000000 0.000000
-0.933450 -3.962401 7.296149 -1.000000 -0.000000 -0.000000 -0.000000 -0.000000 1.000000 2.992188 1.100000 0 0 0 0 0.000000 0.000000 0.000000 0.000000
-0.802822 -3.962401 7.296149 -0.656201 0.000074 -0.754586 0.754255 -0.000000 -0.656582 -0.329241 1.100000 0 0 0 0 0.000000 0.000000 0.000000 0.000000
-0.933450 -3.962401 7.409688 -0.656201 0.000074 -0.754586 0.754586 0.000000 -0.656201 -0.382812 1.100000 0 0 0 0 0.000000 0.000000 0.000000 0.000000
-0.933450 -4.572001 7.409688 -0.656201 0.000074 -0.754586 0.754621 -0.000000 -0.656161 -0.382812 1.300000 0 0 0 0 0.000000 0.000000 0.000000 0.000000
-0.802958 -4.572001 7.296149 -0.656201 0.000074 -0.754586 0.754255 -0.000000 -0.656582 -0.329297 1.300000 0 0 0 0 0.000000 0.000000 0.000000 0.000000
-1.752600 -3.886201 7.791450 -0.242535 0.000000 -0.970143 0.970143 0.000001 -0.242535 -0.718750 1.075000 0 0 0 0 0.000000 0.000000 0.000000 0.000000
-1.752600 -4.572001 7.791450 -0.242535 0.000000 -0.970143 0.970143 0.000001 -0.242535 -0.718750 1.300000 0 0 0 0 0.000000 0.000000 0.000000 0.000000
-1.219200 -4.572001 7.658099 -0.242535 0.000000 -0.970143 0.970143 0.000001 -0.242535 -0.500000 1.300000 0 0 0 0 0.000000 0.000000 0.000000 0.000000
-1.219200 -3.886201 7.658099 -0.242535 0.000000 -0.970143 0.970143 0.000001 -0.242535 -0.500000 1.075000 0 0 0 0 0.000000 0.000000 0.000000 0.000000
-0.933450 -3.886201 7.409688 -0.656079 0.000000 -0.754692 0.754692 0.000000 -0.656079 -0.382812 1.075000 0 0 0 0 0.000000 0.000000 0.000000 0.000000
-1.219200 -3.886201 7.658099 -0.656079 0.000000 -0.754692 0.754692 0.000000 -0.656079 -0.500000 1.075000 0 0 0 0 0.000000 0.000000 0.000000 0.000000
-1.219200 -4.572001 7.658099 -0.656079 0.000000 -0.754692 0.754692 0.000000 -0.656079 -0.500000 1.300000 0 0 0 0 0.000000 0.000000 0.000000 0.000000
-0.933450 -4.572001 7.409688 -0.656079 0.000000 -0.754692 0.754621 -0.000000 -0.656161 -0.382812 1.300000 0 0 0 0 0.000000 0.000000 0.000000 0.000000
-0.933450 -3.962401 7.409688 -0.656079 0.000000 -0.754692 0.000000 -1.000000 -0.000000 -0.382812 1.100000 0 0 0 0 0.000000 0.000000 0.000000 0.000000
-1.162050 -3.886201 7.791450 0.249878 -0.000000 0.968277 0.968277 0.000001 -0.249878 -0.476562 1.075000 0 0 0 0 0.000000 0.000000 0.000000 0.000000
-1.162050 -4.572001 7.791450 0.249878 -0.000000 0.968277 0.968277 0.000001 -0.249878 -0.476562 1.300000 0 0 0 0 0.000000 0.000000 0.000000 0.000000
-1.752600 -4.572001 7.943849 0.249878 -0.000000 0.968277 0.968277 0.000000 -0.249878 -0.718750 1.300000 0 0 0 0 0.000000 0.000000 0.000000 0.000000
-1.752601 -3.886201 7.943849 0.249878 -0.000000 0.968277 0.968277 0.000001 -0.249878 -0.718750 1.075000 0 0 0 0 0.000000 0.000000 0.000000 0.000000
-5.715000 -3.657602 9.220200 -0.000000 -0.000000 1.000000 1.000000 0.000001 0.000000 -2.343750 0.700000 0 0 0 0 0.000000 0.000000 0.000000 0.000000
-5.257800 -3.657602 9.220200 -0.000000 -0.000000 1.000000 1.000000 0.000001 0.000000 -2.156250 0.700000 0 0 0 0 0.000000 0.000000 0.000000 0.000000
-5.257800 -4.572002 9.220200 -0.000000 -0.000000 1.000000 1.000000 0.000001 0.000000 -2.156250 1.000000 0 0 0 0 0.000000 0.000000 0.000000 0.000000
-5.715000 -4.572002 9.220200 -0.000000 -0.000000 1.000000 1.000000 0.000001 0.000000 -2.343750 1.000000 0 0 0 0 0.000000 0.000000 0.000000 0.000000
-5.257800 -3.657602 9.220200 0.000000 -1.000000 -0.000000 1.000000 0.000000 -0.000000 -2.156250 -3.525000 0 0 0 0 0.000000 0.000000 0.000000 0.000000
-5.715000 -3.657602 9.220200 0.000000 -1.000000 -0.000000 1.000000 0.000000 -0.000000 -2.343750 -3.525000 0 0 0 0 0.000000 0.000000 0.000000 0.000000
-5.715000 -3.657602 10.439399 0.000000 -1.000000 -0.000000 1.000000 0.000000 0.000000 -2.343750 -3.925000 0 0 0 0 0.000000 0.000000 0.000000 0.000000
-5.257800 -3.657602 10.439399 0.000000 -1.000000 -0.000000 1.000000 0.000000 -0.000000 -2.156250 -3.925000 0 0 0 0 0.000000 0.000000 0.000000 0.000000
-5.715000 -4.572002 10.439398 0.000000 0.000000 -1.000000 1.000000 -0.000000 0.000000 -2.343750 1.000000 0 0 0 0 0.000000 0.000000 0.000000 0.000000
-5.257800 -4.572002 10.439398 0.000000 0.000000 -1.000000 1.000000 -0.000000 0.000000 -2.156250 1.000000 0 0 0 0 0.000000 0.000000 0.000000 0.000000
-5.257800 -3.657602 10.439399 0.000000 0.000000 -1.000000 1.000000 -0.000000 0.000000 -2.156250 0.700000 0 0 0 0 0.000000 0.000000 0.000000 0.000000
-5.715000 -3.657602 10.439399 0.000000 0.000000 -1.000000 1.000000 -0.000000 0.000000 -2.343750 0.700000 0 0 0 0 0.000000 0.000000 0.000000 0.000000
-5.257800 -4.572002 10.439398 -0.000000 1.000000 0.000000 1.000000 0.000000 0.000000 -2.156250 -3.925000 0 0 0 0 0.000000 0.000000 0.000000 0.000000
-5.715000 -4.572002 10.439398 -0.000000 1.000000 0.000000 1.000000 0.000000 0.000000 -2.343750 -3.925000 0 0 0 0 0.000000 0.000000 0.000000 0.000000
-5.715000 -4.572002 9.220200 -0.000000 1.000000 0.000000 1.000000 0.000000 -0.000000 -2.343750 -3.525000 0 0 0 0 0.000000 0.000000 0.000000 0.000000
-5.257800 -4.572002 9.220200 -0.000000 1.000000 0.000000 1.000000 0.000000 0.000000 -2.156250 -3.525000 0 0 0 0 0.000000 0.000000 0.000000 0.000000
-4.876800 -4.572001 3.581399 0.000000 0.000000 -1.000000 1.000000 -0.000000 0.000000 -1.687500 1.000000 0 0 0 0 0.000000 0.000000 0.000000 0.000000
-4.876800 -3.657601 3.581399 0.000000 0.000000 -1.000000 1.000000 -0.000000 0.000000 -1.687500 0.700000 0 0 0 0 0.000000 0.000000 0.000000 0.000000
-5.029200 -3.657601 3.581399 0.000000 0.000000 -1.000000 1.000000 -0.000000 0.000000 -1.750000 0.700000 0 0 0 0 0.000000 0.000000 0.000000 0.000000
-5.181600 -3.657601 3.581399 0.000000 0.000000 -1.000000 1.000000 -0.000000 0.000000 -1.812500 0.700000 0 0 0 0 0.000000 0.000000 0.000000 0.000000
-5.181600 -4.572001 3.581399 0.000000 0.000000 -1.000000 1.000000 -0.000000 0.000000 -1.812500 1.000000 0 0 0 0 0.000000 0.000000 0.000000 0.000000
-4.876800 -3.657601 7.162799 1.000000 0.000000 0.000000 -0.000000 -0.000000 1.000000 3.250000 0.700000 0 0 0 0 0.000000 0.000000 0.000000 0.000000
-4.876800 -3.657601 6.172199 1.000000 0.000000 0.000000 -0.000000 -0.000000 1.000000 2.843750 0.700000 0 0 0 0 0.000000 0.000000 0.000000 0.000000
-4.876800 -3.657601 5.867399 1.000000 0.000000 0.000000 -0.000000 -0.000000 1.000000 2.718750 0.700000 0 0 0 0 0.000000 0.000000 0.000000 0.000000
-4.876800 -3.657601 4.876799 1.000000 0.000000 0.000000 -0.000000 -0.000000 1.000000 2.312500 0.700000 0 0 0 0 0.000000 0.000000 0.000000 0.000000
-4.876800 -3.657601 4.571999 1.000000 0.000000 0.000000 -0.000000 -0.000000 1.000000 2.187500 0.700000 0 0 0 0 0.000000 0.000000 0.000000 0.000000
-4.876800 -3.657601 3.581399 1.000000 0.000000 0.000000 -0.000000 -0.000000 1.000000 1.781250 0.700000 0 0 0 0 0.000000 0.000000 0.000000 0.000000
-4.876800 -4.572001 3.581399 1.000000 0.000000 0.000000 -0.000000 -0.000000 1.000000 1.781250 1.000000 0 0 0 0 0.000000 0.000000 0.000000 0.000000
-1.752600 -3.886201 4.286249 -1.000000 -0.000000 -0.000000 -0.000000 -0.000000 1.000000 1.757812 1.075000 0 0 0 0 0.000000 0.000000 0.000000 0.000000
-1.752600 -4.572001 4.286249 -1.000000 -0.000000 -0.000000 -0.000000 -0.000000 1.000000 1.757812 1.300000 0 0 0 0 0.000000 0.000000 0.000000 0.000000
-1.752600 -4.572001 4.133849 -1.000000 -0.000000 -0.000000 -0.000000 -0.000000 1.000000 1.695312 1.300000 0 0 0 0 0.000000 0.000000 0.000000 0.000000
-1.752600 -3.886201 4.133849 -1.000000 -0.000000 -0.000000 -0.000000 -0.000000 1.000000 1.695312 1.075000 0 0 0 0 0.000000 0.000000 0.000000 0.000000
-0.228600 -4.572001 6.134099 1.000000 0.000000 0.000000 -0.000000 -0.000000 1.000000 2.515625 1.300000 0 0 0 0 0.000000 0.000000 0.000000 0.000000
-0.228600 -3.886201 6.134099 1.000000 0.000000 0.000000 -0.000000 -0.000000 1.000000 2.515625 1.075000 0 0 0 0 0.000000 0.000000 0.000000 0.000000
-0.228600 -3.886201 6.038849 1.000000 0.000000 0.000000 -0.000000 -0.000000 1.000000 2.476562 1.075000 0 0 0 0 0.000000 0.000000 0.000000 0.000000
-0.228600 -3.886201 5.943600 1.000000 0.000000 0.000000 -0.000000 0.000000 1.000000 2.437500 1.075000 0 0 0 0 0.000000 0.000000 0.000000 0.000000
-0.228600 -4.572001 5.943600 1.000000 0.000000 0.000000 -0.000000 0.000000 1.000000 2.437500 1.300000 0 0 0 0 0.000000 0.000000 0.000000 0.000000
-1.752600 -3.886201 4.133849 0.249878 0.000000 -0.968277 0.968277 0.000000 0.249878 -0.718750 1.075000 0 0 0 0 0.000000 0.000000 0.000000 0.000000
-1.752600 -4.572001 4.133849 0.249878 0.000000 -0.968277 0.968277 0.000000 0.249878 -0.718750 1.300000 0 0 0 0 0.000000 0.000000 0.000000 0.000000
-1.162050 -4.572001 4.286249 0.249878 0.000000 -0.968277 0.968277 0.000000 0.249878 -0.476562 1.300000 0 0 0 0 0.000000 0.000000 0.000000 0.000000
-1.162050 -3.886201 4.286249 0.249878 0.000000 -0.968277 0.968277 0.000000 0.249878 -0.476562 1.075000 0 0 0 0 0.000000 0.000000 0.000000 0.000000
-0.617682 -3.886201 7.296149 0.888978 0.000006 0.457950 -0.457980 -0.000000 0.888963 2.992188 1.075000 0 0 0 0 0.000000 0.000000 0.000000 0.000000
-0.342900 -3.886201 6.762750 0.888978 0.000006 0.457950 -0.457950 0.000000 0.888978 2.773438 1.075000 0 0 0 0 0.000000 0.000000 0.000000 0.000000
-0.342900 -4.572001 6.762750 0.888978 0.000006 0.457950 -0.457950 -0.000000 0.888978 2.773438 1.300000 0 0 0 0 0.000000 0.000000 0.000000 0.000000
-0.617672 -4.572001 7.296149 0.888978 0.000006 0.457950 -0.457980 -0.000000 0.888963 2.992188 1.300000 0 0 0 0 0.000000 0.000000 0.000000 0.000000
-1.162050 -3.886201 4.286249 0.628337 0.000000 -0.777941 0.777941 0.000000 0.628337 -0.476562 1.075000 0 0 0 0 0.000000 0.000000 0.000000 0.000000
-1.162050 -4.572001 4.286249 0.628337 0.000000 -0.777941 0.777941 0.000000 0.628337 -0.476562 1.300000 0 0 0 0 0.000000 0.000000 0.000000 0.000000
-0.666750 -4.572001 4.686300 0.628337 0.000000 -0.777941 0.777941 0.000000 0.628337 -0.273438 1.300000 0 0 0 0 0.000000 0.000000 0.000000 0.000000
-0.666750 -3.886201 4.686300 0.628337 0.000000 -0.777941 0.777941 0.000000 0.628337 -0.273438 1.075000 0 0 0 0 0.000000 0.000000 0.000000 0.000000
-0.802822 -3.962401 7.296149 -0.657343 0.000073 -0.753591 0.754255 -0.000000 -0.656582 -0.329241 1.100000 0 0 0 0 0.000000 0.000000 0.000000 0.000000
-0.802958 -4.572001 7.296149 -0.657343 0.000073 -0.753591 0.754255 -0.000000 -0.656582 -0.329297 1.300000 0 0 0 0 0.000000 0.000000 0.000000 0.000000
-0.781050 -4.572001 7.277100 -0.657343 0.000073 -0.753591 0.753591 0.000000 -0.657343 -0.320312 1.300000 0 0 0 0 0.000000 0.000000 0.000000 0.000000
-0.781050 -3.962401 7.277100 -0.657343 0.000073 -0.753591 0.753591 -0.000000 -0.657343 -0.320312 1.100000 0 0 0 0 0.000000 0.000000 0.000000 0.000000
-0.666750 -3.886201 4.686300 0.888974 0.000000 -0.457957 0.457957 -0.000000 0.888975 1.921875 1.075000 0 0 0 0 0.000000 0.000000 0.000000 0.000000
-0.666750 -4.572001 4.686300 0.888974 0.000000 -0.457957 0.457957 -0.000000 0.888975 1.921875 1.300000 0 0 0 0 0.000000 0.000000 0.000000 0.000000
-0.342900 -4.572001 5.314949 0.888974 0.000000 -0.457957 0.457957 -0.000000 0.888975 2.179688 1.300000 0 0 0 0 0.000000 0.000000 0.000000 0.000000
-0.342900 -3.886201 5.314949 0.888974 0.000000 -0.457957 0.457957 -0.000000 0.888975 2.179688 1.075000 0 0 0 0 0.000000 0.000000 0.000000 0.000000
-0.228600 -3.886201 6.134099 0.983870 0.000000 0.178886 -0.178886 -0.000000 0.983870 2.515625 1.075000 0 0 0 0 0.000000 0.000000 0.000000 0.000000
-0.228600 -4.572001 6.134099 0.983870 0.000000 0.178886 -0.178886 -0.000000 0.983870 2.515625 1.300000 0 0 0 0 0.000000 0.000000 0.000000 0.000000
-0.342900 -4.572001 6.762750 0.983870 0.000000 0.178886 -0.178886 -0.000000 0.983870 2.773438 1.300000 0 0 0 0 0.000000 0.000000 0.000000 0.000000
-0.342900 -3.886201 6.762750 0.983870 0.000000 0.178886 -0.178886 -0.000000 0.983870 2.773438 1.075000 0 0 0 0 0.000000 0.000000 0.000000 0.000000
-0.381000 -3.962401 6.038849 -0.989950 -0.000000 0.141421 0.141421 0.000000 0.989950 2.476562 1.100000 0 0 0 0 0.000000 0.000000 0.000000 0.000000
-0.381000 -4.572001 6.038849 -0.989950 -0.000000 0.141421 0.141421 0.000000 0.989950 2.476562 1.300000 0 0 0 0 0.000000 0.000000 0.000000 0.000000
-0.476250 -4.572001 5.372099 -0.989950 -0.000000 0.141421 0.141421 0.000000 0.989950 2.203125 1.300000 0 0 0 0 0.000000 0.000000 0.000000 0.000000
-0.476250 -3.962401 5.372099 -0.989950 -0.000000 0.141421 0.141421 0.000000 0.989950 2.203125 1.100000 0 0 0 0 0.000000 0.000000 0.000000 0.000000
-0.781050 -3.962401 7.277100 -0.882353 -0.000000 -0.470589 -0.470589 -0.000000 0.882353 2.984375 1.100000 0 0 0 0 0.000000 0.000000 0.000000 0.000000
-0.781050 -4.572001 7.277100 -0.882353 -0.000000 -0.470589 -0.470589 -0.000000 0.882353 2.984375 1.300000 0 0 0 0 0.000000 0.000000 0.000000 0.000000
-0.476250 -4.572001 6.705599 -0.882353 -0.000000 -0.470589 -0.470588 -0.000000 0.882353 2.750000 1.300000 0 0 0 0 0.000000 0.000000 0.000000 0.000000
-0.476250 -3.962401 6.705599 -0.882353 -0.000000 -0.470589 -0.470589 -0.000000 0.882353 2.750000 1.100000 0 0 0 0 0.000000 0.000000 0.000000 0.000000
-0.476250 -3.962401 5.372099 -0.882353 -0.000000 0.470588 0.470588 -0.000000 0.882353 2.203125 1.100000 0 0 0 0 0.000000 0.000000 0.000000 0.000000
-0.476250 -4.572001 5.372099 -0.882353 -0.000000 0.470588 0.470588 -0.000000 0.882353 2.203125 1.300000 0 0 0 0 0.000000 0.000000 0.000000 0.000000
-0.781050 -4.572001 4.800599 -0.882353 -0.000000 0.470588 0.470588 -0.000000 0.882353 1.968750 1.300000 0 0 0 0 0.000000 0.000000 0.000000 0.000000
-0.781050 -3.962401 4.800599 -0.882353 -0.000000 0.470588 0.470588 -0.000000 0.882353 1.968750 1.100000 0 0 0 0 0.000000 0.000000 0.000000 0.000000
-0.476250 -3.962401 6.705599 -0.989949 -0.000000 -0.141421 -0.141421 -0.000000 0.989949 2.750000 1.100000 0 0 0 0 0.000000 0.000000 0.000000 0.000000
-0.476250 -4.572001 6.705599 -0.989949 -0.000000 -0.141421 -0.141421 -0.000000 0.989949 2.750000 1.300000 0 0 0 0 0.000000 0.000000 0.000000 0.000000
-0.381000 -4.572001 6.038849 -0.989949 -0.000000 -0.141421 -0.141421 -0.000000 0.989949 2.476562 1.300000 0 0 0 0 0.000000 0.000000 0.000000 0.000000
-0.381000 -3.962401 6.038849 -0.989949 -0.000000 -0.141421 -0.141421 -0.000000 0.989949 2.476562 1.100000 0 0 0 0 0.000000 0.000000 0.000000 0.000000
-0.933450 -3.886201 6.515100 -1.000000 -0.000000 -0.000000 -0.000000 -0.000000 1.000000 2.671875 1.075000 0 0 0 0 0.000000 0.000000 0.000000 0.000000
-0.933450 -3.886201 7.067549 -1.000000 -0.000000 -0.000000 0.000000 0.000000 -1.000000 2.898438 1.075000 0 0 0 0 0.000000 0.000000 0.000000 0.000000
-0.933450 -3.886201 7.105649 -1.000000 -0.000000 -0.000000 0.000000 0.000000 -1.000000 2.914062 1.075000 0 0 0 0 0.000000 0.000000 0.000000 0.000000
-0.933450 -3.886201 7.124700 -1.000000 -0.000000 -0.000000 0.000000 0.000000 -1.000000 2.921875 1.075000 0 0 0 0 0.000000 0.000000 0.000000 0.000000
-0.933450 -3.886201 7.162799 -1.000000 -0.000000 -0.000000 0.000000 0.000000 -1.000000 2.937500 1.075000 0 0 0 0 0.000000 0.000000 0.000000 0.000000
-0.933450 -3.886201 7.296149 -1.000000 -0.000000 -0.000000 0.000000 0.000000 -1.000000 2.992188 1.075000 0 0 0 0 0.000000 0.000000 0.000000 0.000000
-0.933450 -3.962401 6.610350 -1.000000 -0.000000 -0.000000 -0.000000 -0.000000 1.000000 2.710938 1.100000 0 0 0 0 0.000000 0.000000 0.000000 0.000000
-0.933450 -3.962401 6.515100 -1.000000 -0.000000 -0.000000 -0.000000 0.000000 1.000000 2.671875 1.100000 0 0 0 0 0.000000 0.000000 0.000000 0.000000
-0.933450 -3.886201 6.515100 -1.000000 -0.000000 -0.000000 -0.000000 -0.000000 1.000000 2.671875 1.075000 0 0 0 0 0.000000 0.000000 0.000000 0.000000
-0.933450 -3.962401 4.667249 -1.000000 -0.000000 -0.000000 -0.000000 -0.000000 1.000000 1.914062 1.100000 0 0 0 0 0.000000 0.000000 0.000000 0.000000
-0.933450 -3.886201 4.667249 -1.000000 -0.000000 -0.000000 -0.000000 -0.000000 1.000000 1.914062 1.075000 0 0 0 0 0.000000 0.000000 0.000000 0.000000
-0.933450 -3.886201 6.229349 -1.000000 -0.000000 -0.000000 -0.000000 -0.000000 1.000000 2.554688 1.075000 0 0 0 0 0.000000 0.000000 0.000000 0.000000
-0.933450 -3.962401 4.668011 -0.656365 -0.000000 0.754443 0.754443 -0.000000 0.656366 -0.382812 1.100000 0 0 0 0 0.000000 0.000000 0.000000 0.000000
-0.781050 -3.962401 4.800599 -0.656365 -0.000000 0.754443 0.754443 -0.000000 0.656366 -0.320312 1.100000 0 0 0 0 0.000000 0.000000 0.000000 0.000000
-0.781050 -4.572001 4.800599 -0.656365 -0.000000 0.754443 0.754443 -0.000000 0.656366 -0.320312 1.300000 0 0 0 0 0.000000 0.000000 0.000000 0.000000
-0.933450 -4.572001 4.668011 -0.656365 -0.000000 0.754443 0.754443 -0.000000 0.656366 -0.382812 1.300000 0 0 0 0 0.000000 0.000000 0.000000 0.000000
-0.933450 -3.886201 4.668011 -0.656079 -0.000000 0.754692 -0.000000 1.000000 0.000000 -0.382812 1.075000 0 0 0 0 0.000000 0.000000 0.000000 0.000000
-0.933450 -3.962401 4.668011 -0.656079 -0.000000 0.754692 -0.000000 1.000000 0.000000 -0.382812 1.100000 0 0 0 0 0.000000 0.000000 0.000000 0.000000
-0.933450 -4.572001 4.668011 -0.656079 -0.000000 0.754692 -0.000000 1.000000 0.000000 -0.382812 1.300000 0 0 0 0 0.000000 0.000000 0.000000 0.000000
-1.219200 -4.572001 4.419599 -0.656079 -0.000000 0.754692 0.754692 0.000000 0.656079 -0.500000 1.300000 0 0 0 0 0.000000 0.000000 0.000000 0.000000
-1.219200 -3.886201 4.419599 -0.656079 -0.000000 0.754692 0.754692 0.000000 0.656079 -0.500000 1.075000 0 0 0 0 0.000000 0.000000 0.000000 0.000000
-0.342900 -3.886201 5.314949 0.983870 0.000000 -0.178885 0.178885 0.000000 0.983870 2.179688 1.075000 0 0 0 0 0.000000 0.000000 0.000000 0.000000
-0.342900 -4.572001 5.314949 0.983870 0.000000 -0.178885 0.178885 0.000000 0.983870 2.179688 1.300000 0 0 0 0 0.000000 0.000000 0.000000 0.000000
-0.228600 -4.572001 5.943600 0.983870 0.000000 -0.178885 0.178885 0.000000 0.983870 2.437500 1.300000 0 0 0 0 0.000000 0.000000 0.000000 0.000000
-0.228600 -3.886201 5.943600 0.983870 0.000000 -0.178885 0.178885 0.000000 0.983870 2.437500 1.075000 0 0 0 0 0.000000 0.000000 0.000000 0.000000
-8.534399 -1.524000 -3.543301 1.000000 0.000000 0.000000 0.000000 -0.000000 1.000000 -2.203125 0.150000 0 0 0 0 0.000000 0.000000 0.000000 0.000000
-8.534400 -1.524001 -1.676401 1.000000 0.000000 0.000000 -0.000000 -0.000000 1.000000 -1.437500 0.150000 0 0 0 0 0.000000 0.000000 0.000000 0.000000
-8.534400 -1.524001 -1.219201 1.000000 0.000000 0.000000 -0.000000 -0.000000 1.000000 -1.250000 0.150000 0 0 0 0 0.000000 0.000000 0.000000 0.000000
-8.534400 -1.066800 -1.219201 1.000000 0.000000 0.000000 -0.000000 -0.000000 1.000000 -1.250000 0.000000 0 0 0 0 0.000000 0.000000 0.000000 0.000000
-8.534399 -1.066800 -3.543301 1.000000 0.000000 0.000000 0.000000 -0.000000 1.000000 -2.203125 0.000000 0 0 0 0 0.000000 0.000000 0.000000 0.000000
-8.534399 -4.114800 -3.543301 1.000000 0.000000 0.000000 0.000000 -0.000001 1.000000 -2.203125 1.000000 0 0 0 0 0.000000 0.000000 0.000000 0.000000
-8.534399 -4.114800 -1.676401 1.000000 0.000000 0.000000 -0.000000 -0.000000 1.000000 -1.437500 1.000000 0 0 0 0 0.000000 0.000000 0.000000 0.000000
-3.047999 -4.114799 -10.820401 -1.000000 -0.000000 -0.000000 -0.000000 -0.000000 1.000000 -6.000000 1.000000 0 0 0 0 0.000000 0.000000 0.000000 0.000000
-3.047999 -1.066798 -10.820400 -1.000000 -0.000000 -0.000000 -0.000000 -0.000000 1.000000 -6.000000 0.000000 0 0 0 0 0.000000 0.000000 0.000000 0.000000
-3.048000 -1.066799 -8.382000 -1.000000 -0.000000 -0.000000 -0.000000 -0.000000 1.000000 -5.000000 0.000000 0 0 0 0 0.000000 0.000000 0.000000 0.000000
-3.047999 -4.114799 -8.382001 -1.000000 -0.000000 -0.000000 -0.000000 -0.000000 1.000000 -5.000000 1.000000 0 0 0 0 0.000000 0.000000 0.000000 0.000000
-3.047999 -4.114799 -8.763000 -1.000000 -0.000000 -0.000000 -0.000000 -0.000000 1.000000 -5.156250 1.000000 0 0 0 0 0.000000 0.000000 0.000000 0.000000
-8.534399 -3.352800 -5.715001 1.000000 0.000000 0.000000 -0.000000 -0.000000 1.000000 -3.093750 0.750000 0 0 0 0 0.000000 0.000000 0.000000 0.000000
-8.534399 -1.676400 -5.715001 1.000000 0.000000 0.000000 -0.000000 -0.000000 1.000000 -3.093750 0.200000 0 0 0 0 0.000000 0.000000 0.000000 0.000000
-8.534399 -1.676400 -5.867400 1.000000 0.000000 0.000000 -0.000000 -0.000000 1.000000 -3.156250 0.200000 0 0 0 0 0.000000 0.000000 0.000000 0.000000
-8.534399 -3.352800 -5.867401 1.000000 0.000000 0.000000 -0.000000 -0.000000 1.000000 -3.156250 0.750000 0 0 0 0 0.000000 0.000000 0.000000 0.000000
-8.534399 -4.114800 -4.267201 1.000000 0.000000 0.000000 0.000000 -0.000000 1.000000 -2.500000 1.000000 0 0 0 0 0.000000 0.000000 0.000000 0.000000
-8.534399 -3.352800 -4.267201 1.000000 0.000000 0.000000 -0.000000 -0.000000 1.000000 -2.500000 0.750000 0 0 0 0 0.000000 0.000000 0.000000 0.000000
-8.534399 -3.352800 -7.315201 1.000000 0.000000 0.000000 -0.000000 0.000000 1.000000 -3.750000 0.750000 0 0 0 0 0.000000 0.000000 0.000000 0.000000
-8.534399 -4.114799 -7.315201 1.000000 0.000000 0.000000 -0.000000 0.000000 1.000000 -3.750000 1.000000 0 0 0 0 0.000000 0.000000 0.000000 0.000000
-8.534399 -4.114799 -6.934202 1.000000 0.000000 0.000000 -0.000000 -0.000000 1.000000 -3.593750 1.000000 0 0 0 0 0.000000 0.000000 0.000000 0.000000
-8.534399 -1.676400 -4.267201 1.000000 0.000000 0.000000 0.000000 -0.000000 1.000000 -2.500000 0.200000 0 0 0 0 0.000000 0.000000 0.000000 0.000000
-8.534399 -1.066800 -4.267201 1.000000 0.000000 0.000000 0.000000 -0.000000 1.000000 -2.500000 0.000000 0 0 0 0 0.000000 0.000000 0.000000 0.000000
-8.534399 -1.066800 -6.553201 1.000000 0.000000 0.000000 -0.000000 -0.000000 1.000000 -3.437500 0.000000 0 0 0 0 0.000000 0.000000 0.000000 0.000000
-8.534399 -1.066800 -7.315200 1.000000 0.000000 0.000000 -0.000000 -0.000000 1.000000 -3.750000 0.000000 0 0 0 0 0.000000 0.000000 0.000000 0.000000
-8.534399 -1.676399 -7.315200 1.000000 0.000000 0.000000 -0.000000 -0.000000 1.000000 -3.750000 0.200000 0 0 0 0 0.000000 0.000000 0.000000 0.000000
-8.534399 -1.676400 -5.867400 1.000000 0.000000 0.000000 0.000000 0.000000 -1.000000 -3.156250 0.200000 0 0 0 0 0.000000 0.000000 0.000000 0.000000
-8.534399 -4.114800 -3.810001 1.000000 0.000000 -0.000001 0.000001 0.000000 1.000000 -2.312500 1.000000 0 0 0 0 0.000000 0.000000 0.000000 0.000000
-8.534399 -3.352800 -4.267201 1.000000 0.000000 -0.000001 -0.000000 1.000000 0.000000 -2.500000 0.750000 0 0 0 0 0.000000 0.000000 0.000000 0.000000
-8.534399 -1.066799 -10.058401 1.000000 0.000000 0.000000 -0.000000 -0.000000 1.000000 -4.875000 0.000000 0 0 0 0 0.000000 0.000000 0.000000 0.000000
-8.534399 -1.676399 -10.058401 1.000000 0.000000 0.000000 -0.000000 -0.000000 1.000000 -4.875000 0.200000 0 0 0 0 0.000000 0.000000 0.000000 0.000000
-8.534399 -1.676399 -9.753600 1.000000 0.000000 0.000000 -0.000000 -0.000000 1.000000 -4.750000 0.200000 0 0 0 0 0.000000 0.000000 0.000000 0.000000
-8.534399 -1.676399 -8.534400 1.000000 0.000000 0.000000 -0.000000 -0.000000 1.000000 -4.250000 0.200000 0 0 0 0 0.000000 0.000000 0.000000 0.000000
-8.534399 -1.676399 -8.229601 1.000000 0.000000 0.000000 -0.000000 -0.000000 1.000000 -4.125000 0.200000 0 0 0 0 0.000000 0.000000 0.000000 0.000000
-8.534399 -1.066799 -8.229601 1.000000 0.000000 0.000000 -0.000000 -0.000000 1.000000 -4.125000 0.000000 0 0 0 0 0.000000 0.000000 0.000000 0.000000
-8.534399 -1.066799 -10.820401 1.000000 0.000000 0.000000 -0.000000 0.000000 1.000000 -5.187500 0.000000 0 0 0 0 0.000000 0.000000 0.000000 0.000000
-8.534398 -4.114799 -10.820402 1.000000 0.000000 0.000000 -0.000000 0.000000 1.000000 -5.187500 1.000000 0 0 0 0 0.000000 0.000000 0.000000 0.000000
-8.534399 -4.114799 -10.058401 1.000000 0.000000 0.000000 -0.000000 0.000000 1.000000 -4.875000 1.000000 0 0 0 0 0.000000 0.000000 0.000000 0.000000
-8.534399 -4.114799 -8.229601 1.000000 0.000000 0.000000 -0.000000 -0.000000 1.000000 -4.125000 1.000000 0 0 0 0 0.000000 0.000000 0.000000 0.000000
-8.839199 -1.676400 -5.715001 0.000000 -1.000000 -0.000000 -0.000000 -0.000000 1.000000 -3.093750 -3.275000 0 0 0 0 0.000000 0.000000 0.000000 0.000000
-8.839199 -1.676400 -4.267201 0.000000 -1.000000 -0.000000 -0.000000 -0.000000 1.000000 -2.500000 -3.275000 0 0 0 0 0.000000 0.000000 0.000000 0.000000
-8.534399 -1.676400 -4.267201 0.000000 -1.000000 -0.000000 0.000000 -0.000000 1.000000 -2.500000 -3.175000 0 0 0 0 0.000000 0.000000 0.000000 0.000000
-8.534399 -1.676400 -5.715001 0.000000 -1.000000 -0.000000 -0.000000 -0.000000 1.000000 -3.093750 -3.175000 0 0 0 0 0.000000 0.000000 0.000000 0.000000
-8.839199 -1.676400 -5.867400 0.000000 -1.000000 -0.000000 -0.000000 -0.000000 1.000000 -3.156250 -3.275000 0 0 0 0 0.000000 0.000000 0.000000 0.000000
-8.534399 -1.676400 -5.867400 0.000000 -1.000000 -0.000000 -0.000000 -0.000000 1.000000 -3.156250 -3.175000 0 0 0 0 0.000000 0.000000 0.000000 0.000000
-8.534399 -1.676399 -7.315200 0.000000 -1.000000 -0.000000 -0.000000 -0.000000 1.000000 -3.750000 -3.175000 0 0 0 0 0.000000 0.000000 0.000000 0.000000
-8.839199 -1.676399 -7.315200 0.000000 -1.000000 -0.000000 -0.000000 -0.000000 1.000000 -3.750000 -3.275000 0 0 0 0 0.000000 0.000000 0.000000 0.000000
-8.839199 -3.352800 -5.867401 0.000000 0.000000 -1.000000 1.000000 -0.000000 0.000000 -4.375000 0.750000 0 0 0 0 0.000000 0.000000 0.000000 0.000000
-8.534399 -3.352800 -5.867401 0.000000 0.000000 -1.000000 1.000000 -0.000000 0.000000 -4.250000 0.750000 0 0 0 0 0.000000 0.000000 0.000000 0.000000
-8.534399 -1.676400 -5.867400 0.000000 0.000000 -1.000000 1.000000 -0.000000 0.000000 -4.250000 0.200000 0 0 0 0 0.000000 0.000000 0.000000 0.000000
-8.839199 -1.676400 -5.867400 0.000000 0.000000 -1.000000 1.000000 -0.000000 0.000000 -4.375000 0.200000 0 0 0 0 0.000000 0.000000 0.000000 0.000000
-8.839199 -3.352800 -5.715001 -0.000000 1.000000 0.000000 -0.000000 -0.000000 1.000000 -3.093750 -3.275000 0 0 0 0 0.000000 0.000000 0.000000 0.000000
-8.534399 -3.352800 -5.715001 -0.000000 1.000000 0.000000 -0.000000 -0.000000 1.000000 -3.093750 -3.175000 0 0 0 0 0.000000 0.000000 0.000000 0.000000
-8.534399 -3.352800 -4.267201 -0.000000 1.000000 0.000000 -0.000000 -0.000000 1.000000 -2.500000 -3.175000 0 0 0 0 0.000000 0.000000 0.000000 0.000000
-8.839199 -3.352800 -4.267201 -0.000000 1.000000 0.000000 -0.000000 -0.000000 1.000000 -2.500000 -3.275000 0 0 0 0 0.000000 0.000000 0.000000 0.000000
-8.839199 -1.676400 -4.267201 0.000000 0.000000 -1.000000 1.000000 0.000001 0.000000 -4.375000 0.200000 0 0 0 0 0.000000 0.000000 0.000000 0.000000
-8.839199 -3.352800 -4.267201 0.000000 0.000000 -1.000000 1.000000 0.000001 0.000000 -4.375000 0.750000 0 0 0 0 0.000000 0.000000 0.000000 0.000000
-8.534399 -3.352800 -4.267201 0.000000 0.000000 -1.000000 1.000000 0.000000 0.000000 -4.250000 0.750000 0 0 0 0 0.000000 0.000000 0.000000 0.000000
-8.534399 -1.676400 -4.267201 0.000000 0.000000 -1.000000 1.000000 0.000001 0.000000 -4.250000 0.200000 0 0 0 0 0.000000 0.000000 0.000000 0.000000
-8.839199 -1.676400 -5.715001 -0.000000 -0.000000 1.000000 1.000000 -0.000000 0.000000 -4.375000 0.200000 0 0 0 0 0.000000 0.000000 0.000000 0.000000
-8.534399 -1.676400 -5.715001 -0.000000 -0.000000 1.000000 1.000000 -0.000000 0.000000 -4.250000 0.200000 0 0 0 0 0.000000 0.000000 0.000000 0.000000
-8.534399 -3.352800 -5.715001 -0.000000 -0.000000 1.000000 1.000000 -0.000000 0.000000 -4.250000 0.750000 0 0 0 0 0.000000 0.000000 0.000000 0.000000
-8.839199 -3.352800 -5.715001 -0.000000 -0.000000 1.000000 1.000000 -0.000000 0.000000 -4.375000 0.750000 0 0 0 0 0.000000 0.000000 0.000000 0.000000
-8.839199 -3.352800 -7.315201 -0.000000 -0.000000 1.000000 1.000000 -0.000000 0.000000 -4.375000 0.750000 0 0 0 0 0.000000 0.000000 0.000000 0.000000
-8.839199 -1.676399 -7.315200 -0.000000 -0.000000 1.000000 1.000000 -0.000000 0.000000 -4.375000 0.200000 0 0 0 0 0.000000 0.000000 0.000000 0.000000
-8.534399 -1.676399 -7.315200 -0.000000 -0.000000 1.000000 1.000000 -0.000000 0.000000 -4.250000 0.200000 0 0 0 0 0.000000 0.000000 0.000000 0.000000
-8.534399 -3.352800 -7.315201 -0.000000 -0.000000 1.000000 1.000000 -0.000000 0.000000 -4.250000 0.750000 0 0 0 0 0.000000 0.000000 0.000000 0.000000
-8.839199 -3.352800 -5.867401 -0.000000 1.000000 0.000000 0.000000 -0.000000 1.000000 -3.156250 -3.275000 0 0 0 0 0.000000 0.000000 0.000000 0.000000
-8.839199 -3.352800 -7.315201 -0.000000 1.000000 0.000000 0.000000 -0.000000 1.000000 -3.750000 -3.275000 0 0 0 0 0.000000 0.000000 0.000000 0.000000
-8.534399 -3.352800 -7.315201 -0.000000 1.000000 0.000000 0.000000 -0.000000 1.000000 -3.750000 -3.175000 0 0 0 0 0.000000 0.000000 0.000000 0.000000
-8.534399 -3.352800 -5.867401 -0.000000 1.000000 0.000000 0.000000 -0.000000 1.000000 -3.156250 -3.175000 0 0 0 0 0.000000 0.000000 0.000000 0.000000
-12.496801 -4.572003 13.868398 -0.000000 -0.000000 1.000000 1.000000 -0.000000 0.000000 -4.992188 1.000000 0 0 0 0 0.000000 0.000000 0.000000 0.000000
-12.496801 -1.524003 13.868400 -0.000000 -0.000000 1.000000 1.000000 -0.000000 0.000000 -4.992188 0.000000 0 0 0 0 0.000000 0.000000 0.000000 0.000000
-11.887202 -1.524003 13.868400 -0.000000 -0.000000 1.000000 1.000000 -0.000000 0.000000 -4.742188 0.000000 0 0 0 0 0.000000 0.000000 0.000000 0.000000
-11.887202 -4.572003 13.868398 -0.000000 -0.000000 1.000000 1.000000 -0.000000 0.000000 -4.742188 1.000000 0 0 0 0 0.000000 0.000000 0.000000 0.000000
-18.688093 -1.524003 7.315197 -0.759277 -0.000005 -0.650768 -0.650801 -0.000000 0.759248 3.015625 0.000000 0 0 0 0 0.000000 0.000000 0.000000 0.000000
-19.030952 -1.524003 7.715248 -0.759277 -0.000005 -0.650768 -0.650768 -0.000000 0.759277 3.179688 0.000000 0 0 0 0 0.000000 0.000000 0.000000 0.000000
-19.030952 -4.572003 7.715248 -0.759277 -0.000005 -0.650768 -0.650768 -0.000001 0.759277 3.179688 1.000000 0 0 0 0 0.000000 0.000000 0.000000 0.000000
-18.688049 -4.572003 7.315197 -0.759277 -0.000005 -0.650768 -0.650801 -0.000000 0.759248 3.015625 1.000000 0 0 0 0 0.000000 0.000000 0.000000 0.000000
-19.202400 -1.524003 8.420098 -0.971668 -0.000000 -0.236350 -0.236350 -0.000000 0.971668 3.515625 0.000000 0 0 0 0 0.000000 0.000000 0.000000 0.000000
-19.202400 -4.572003 8.420097 -0.971668 -0.000000 -0.236350 -0.236350 -0.000000 0.971668 3.515625 1.000000 0 0 0 0 0.000000 0.000000 0.000000 0.000000
-19.030952 -4.572003 7.715248 -0.971668 -0.000000 -0.236350 -0.236350 0.000000 0.971668 3.226562 1.000000 0 0 0 0 0.000000 0.000000 0.000000 0.000000
-19.030952 -1.524003 7.715248 -0.971668 -0.000000 -0.236350 -0.236350 -0.000000 0.971668 3.226562 0.000000 0 0 0 0 0.000000 0.000000 0.000000 0.000000
-17.373600 -3.352801 -1.216916 -1.000000 -0.000000 0.000342 0.000205 0.000000 1.000000 -0.499063 0.600000 0 0 0 0 0.000000 0.000000 0.000000 0.000000
-17.373600 -4.572001 -1.216916 -1.000000 -0.000000 0.000342 0.000342 0.000000 1.000000 -0.499063 1.000000 0 0 0 0 0.000000 0.000000 0.000000 0.000000
-17.373600 -4.572001 -1.219202 -1.000000 -0.000000 0.000342 0.000342 0.000000 1.000000 -0.500000 1.000000 0 0 0 0 0.000000 0.000000 0.000000 0.000000
-17.373600 -4.114801 -1.219202 -1.000000 -0.000000 0.000342 0.000342 0.000000 1.000000 -0.500000 0.850000 0 0 0 0 0.000000 0.000000 0.000000 0.000000
-17.373600 -3.352801 -1.219202 -1.000000 -0.000000 0.000342 0.000205 0.000000 1.000000 -0.500000 0.600000 0 0 0 0 0.000000 0.000000 0.000000 0.000000
-17.373600 -3.352801 -1.216916 -1.000000 -0.000000 -0.000000 0.000205 0.000000 1.000000 -0.499063 0.600000 0 0 0 0 0.000000 0.000000 0.000000 0.000000
-17.373600 -3.352801 -1.219202 -1.000000 -0.000000 -0.000000 0.000205 0.000000 1.000000 -0.500000 0.600000 0 0 0 0 0.000000 0.000000 0.000000 0.000000
-17.373600 -1.524001 -1.219202 -1.000000 -0.000000 -0.000000 -0.000000 -0.000000 1.000000 -0.500000 0.000000 0 0 0 0 0.000000 0.000000 0.000000 0.000000
-17.373600 0.914399 -1.219201 -1.000000 -0.000000 -0.000000 -0.000000 0.000111 1.000000 -0.500000 -0.800000 0 0 0 0 0.000000 0.000000 0.000000 0.000000
-17.373600 0.914399 -1.216915 -1.000000 -0.000000 -0.000000 -0.000000 0.000111 1.000000 -0.499063 -0.800000 0 0 0 0 0.000000 0.000000 0.000000 0.000000
-17.373600 -1.524001 -1.216916 -1.000000 -0.000000 -0.000000 -0.000000 1.000000 0.000000 -0.499063 0.000000 0 0 0 0 0.000000 0.000000 0.000000 0.000000
-17.373600 -4.572001 0.609598 -0.000000 -0.000000 1.000000 1.000000 0.000000 0.000000 -7.125000 1.000000 0 0 0 0 0.000000 0.000000 0.000000 0.000000
-17.373600 -1.524002 0.609598 -0.000000 -0.000000 1.000000 1.000000 0.000000 0.000000 -7.125000 0.000000 0 0 0 0 0.000000 0.000000 0.000000 0.000000
-17.221201 -1.524002 0.609598 -0.000000 -0.000000 1.000000 1.000000 0.000000 0.000000 -7.062500 0.000000 0 0 0 0 0.000000 0.000000 0.000000 0.000000
-17.221201 -1.600202 0.609598 -0.000000 -0.000000 1.000000 1.000000 0.000000 0.000000 -7.062500 0.025000 0 0 0 0 0.000000 0.000000 0.000000 0.000000
-17.221201 -2.514602 0.609598 -0.000000 -0.000000 1.000000 1.000000 0.000000 0.000000 -7.062500 0.325000 0 0 0 0 0.000000 0.000000 0.000000 0.000000
-17.221201 -2.743201 0.609598 -0.000000 -0.000000 1.000000 1.000000 0.000007 0.000000 -7.062500 0.400000 0 0 0 0 0.000000 0.000000 0.000000 0.000000
-17.221201 -3.962401 0.609598 -0.000000 -0.000000 1.000000 1.000000 0.000003 0.000000 -7.062500 0.800000 0 0 0 0 0.000000 0.000000 0.000000 0.000000
-17.221201 -4.572001 0.609598 -0.000000 -0.000000 1.000000 1.000000 0.000000 0.000000 -7.062500 1.000000 0 0 0 0 0.000000 0.000000 0.000000 0.000000
-16.021049 -2.514601 0.304798 -0.000000 1.000000 0.000000 1.000000 0.000000 0.000000 -6.570312 -0.600000 0 0 0 0 0.000000 0.000000 0.000000 0.000000
-17.221201 -2.514601 0.304798 -0.000000 1.000000 0.000000 1.000000 0.000000 0.000000 -7.062500 -0.600000 0 0 0 0 0.000000 0.000000 0.000000 0.000000
-17.221201 -2.514601 -1.219202 -0.000000 1.000000 0.000000 1.000000 0.000000 0.000000 -7.062500 -0.100000 0 0 0 0 0.000000 0.000000 0.000000 0.000000
-16.021049 -2.514601 -1.219202 -0.000000 1.000000 0.000000 1.000000 0.000000 0.000000 -6.570312 -0.100000 0 0 0 0 0.000000 0.000000 0.000000 0.000000
-17.221201 -2.514601 0.533398 1.000000 0.000000 0.000000 -0.000000 -0.000000 1.000000 0.218750 0.325000 0 0 0 0 0.000000 0.000000 0.000000 0.000000
-17.221201 -1.600201 0.533398 1.000000 0.000000 0.000000 -0.000000 -0.000000 1.000000 0.218750 0.025000 0 0 0 0 0.000000 0.000000 0.000000 0.000000
-17.221201 -1.600201 0.304798 1.000000 0.000000 0.000000 -0.000000 -0.000000 1.000000 0.125000 0.025000 0 0 0 0 0.000000 0.000000 0.000000 0.000000
-17.221201 -1.600201 -1.219202 1.000000 0.000000 0.000000 -0.000000 -0.000000 1.000000 -0.500000 0.025000 0 0 0 0 0.000000 0.000000 0.000000 0.000000
-17.221201 -2.514601 -1.219202 1.000000 0.000000 0.000000 -0.000000 -0.000000 1.000000 -0.500000 0.325000 0 0 0 0 0.000000 0.000000 0.000000 0.000000
-17.221201 -2.514601 0.304798 1.000000 0.000000 0.000000 0.000000 0.000000 -1.000000 0.125000 0.325000 0 0 0 0 0.000000 0.000000 0.000000 0.000000
-16.002001 -1.600201 0.304798 -0.000000 -0.000000 1.000000 1.000000 0.000008 0.000000 -6.562500 0.925000 0 0 0 0 0.000000 0.000000 0.000000 0.000000
-16.002001 -2.514601 0.304798 -0.000000 -0.000000 1.000000 1.000000 0.000008 0.000000 -6.562500 1.225000 0 0 0 0 0.000000 0.000000 0.000000 0.000000
-16.021049 -2.514601 0.304798 -0.000000 -0.000000 1.000000 1.000000 0.000007 0.000000 -6.570312 1.225000 0 0 0 0 0.000000 0.000000 0.000000 0.000000
-16.021049 -1.600201 0.304798 -0.000000 -0.000000 1.000000 1.000000 0.000008 0.000000 -6.570312 0.925000 0 0 0 0 0.000000 0.000000 0.000000 0.000000
-16.021049 -2.514601 -1.219202 -1.000000 -0.000000 -0.000000 -0.000000 -0.000000 1.000000 -0.500000 1.225000 0 0 0 0 0.000000 0.000000 0.000000 0.000000
-16.021049 -1.600201 -1.219202 -1.000000 -0.000000 -0.000000 -0.000000 -0.000000 1.000000 -0.500000 0.925000 0 0 0 0 0.000000 0.000000 0.000000 0.000000
-16.021049 -1.600201 0.304798 -1.000000 -0.000000 -0.000000 -0.000000 -0.000000 1.000000 0.125000 0.925000 0 0 0 0 0.000000 0.000000 0.000000 0.000000
-16.021049 -2.514601 0.304798 -1.000000 -0.000000 -0.000000 -0.000000 -0.000000 1.000000 0.125000 1.225000 0 0 0 0 0.000000 0.000000 0.000000 0.000000
-19.202400 -4.572002 0.761998 -1.000000 -0.000000 -0.000000 -0.000000 -0.000000 1.000000 0.312500 1.000000 0 0 0 0 0.000000 0.000000 0.000000 0.000000
-19.202400 -1.524002 0.761998 -1.000000 -0.000000 -0.000000 -0.000000 -0.000000 1.000000 0.312500 0.000000 0 0 0 0 0.000000 0.000000 0.000000 0.000000
-19.202400 -1.524002 3.771898 -1.000000 -0.000000 -0.000000 -0.000000 -0.000000 1.000000 1.546875 0.000000 0 0 0 0 0.000000 0.000000 0.000000 0.000000
-19.202400 -4.572002 3.771898 -1.000000 -0.000000 -0.000000 -0.000000 -0.000000 1.000000 1.546875 1.000000 0 0 0 0 0.000000 0.000000 0.000000 0.000000
-19.202400 -4.572002 3.047998 -1.000000 -0.000000 -0.000000 -0.000000 -0.000000 1.000000 1.250000 1.000000 0 0 0 0 0.000000 0.000000 0.000000 0.000000
-17.983202 -1.524003 7.008112 -1.000000 -0.000000 -0.000000 -0.000000 -0.000001 1.000000 2.874063 0.000000 0 0 0 0 0.000000 0.000000 0.000000 0.000000
-17.983202 -2.133603 7.008112 -1.000000 -0.000000 -0.000000 -0.000000 -0.000001 1.000000 2.874063 0.200000 0 0 0 0 0.000000 0.000000 0.000000 0.000000
-17.983200 -2.133603 6.705597 -1.000000 -0.000000 -0.000000 -0.000000 -0.000001 1.000000 2.750000 0.200000 0 0 0 0 0.000000 0.000000 0.000000 0.000000
-17.983200 -2.133602 5.486398 -1.000000 -0.000000 -0.000000 -0.000000 -0.000000 1.000000 2.250000 0.200000 0 0 0 0 0.000000 0.000000 0.000000 0.000000
-17.983200 -2.133602 5.183884 -1.000000 -0.000000 -0.000000 -0.000000 -0.000000 1.000000 2.125937 0.200000 0 0 0 0 0.000000 0.000000 0.000000 0.000000
-17.983200 -1.524003 5.183884 -1.000000 -0.000000 -0.000000 -0.000000 -0.000000 1.000000 2.125937 0.000000 0 0 0 0 0.000000 0.000000 0.000000 0.000000
-17.983200 -1.524003 6.492809 -1.000000 -0.000000 -0.000000 0.000000 0.000000 -1.000000 2.662734 0.000000 0 0 0 0 0.000000 0.000000 0.000000 0.000000
-17.678400 -4.572002 5.181598 -0.000000 -0.000000 1.000000 1.000000 0.000000 0.000000 -7.250000 1.000000 0 0 0 0 0.000000 0.000000 0.000000 0.000000
-17.678400 -2.133602 5.181598 -0.000000 -0.000000 1.000000 1.000000 0.000000 0.000000 -7.250000 0.200000 0 0 0 0 0.000000 0.000000 0.000000 0.000000
-17.678400 -1.524003 5.181598 -0.000000 -0.000000 1.000000 1.000000 0.000001 0.000000 -7.250000 0.000000 0 0 0 0 0.000000 0.000000 0.000000 0.000000
-17.373600 -1.524002 5.181599 -0.000000 -0.000000 1.000000 1.000000 0.000000 0.000000 -7.125000 0.000000 0 0 0 0 0.000000 0.000000 0.000000 0.000000
-17.373600 -4.572002 5.181598 -0.000000 -0.000000 1.000000 1.000000 0.000000 0.000000 -7.125000 1.000000 0 0 0 0 0.000000 0.000000 0.000000 0.000000
-18.573751 -1.524003 7.181848 -0.282233 0.000000 -0.959346 0.959346 0.000000 -0.282233 -7.617188 0.000000 0 0 0 0 0.000000 0.000000 0.000000 0.000000
-18.573751 -4.572003 7.181848 -0.282233 0.000000 -0.959346 0.959346 0.000000 -0.282233 -7.617188 1.000000 0 0 0 0 0.000000 0.000000 0.000000 0.000000
-17.983202 -4.572003 7.008112 -0.282233 0.000000 -0.959346 0.959346 0.000000 -0.282233 -7.375000 1.000000 0 0 0 0 0.000000 0.000000 0.000000 0.000000
-17.983202 -2.133603 7.008112 -0.282233 0.000000 -0.959346 0.959346 0.000000 -0.282233 -7.375000 0.200000 0 0 0 0 0.000000 0.000000 0.000000 0.000000
-17.983202 -1.524003 7.008112 -0.282233 0.000000 -0.959346 0.959346 0.000000 -0.282233 -7.375000 0.000000 0 0 0 0 0.000000 0.000000 0.000000 0.000000
-19.030951 -1.524003 4.476748 -0.971668 -0.000000 0.236350 0.236350 -0.000000 0.971668 1.835938 0.000000 0 0 0 0 0.000000 0.000000 0.000000 0.000000
-19.030951 -4.572002 4.476748 -0.971668 -0.000000 0.236350 0.236350 -0.000000 0.971668 1.835938 1.000000 0 0 0 0 0.000000 0.000000 0.000000 0.000000
-19.202400 -4.572002 3.771898 -0.971668 -0.000000 0.236350 0.236350 -0.000000 0.971668 1.546875 1.000000 0 0 0 0 0.000000 0.000000 0.000000 0.000000
-19.202400 -1.524002 3.771898 -0.971668 -0.000000 0.236350 0.236350 -0.000000 0.971668 1.546875 0.000000 0 0 0 0 0.000000 0.000000 0.000000 0.000000
-17.983200 -1.524003 5.183884 -0.282234 -0.000000 0.959346 0.000000 1.000000 0.000000 -7.375000 0.000000 0 0 0 0 0.000000 0.000000 0.000000 0.000000
-17.983200 -2.133602 5.183884 -0.282234 -0.000000 0.959346 0.000000 1.000000 0.000000 -7.375000 0.200000 0 0 0 0 0.000000 0.000000 0.000000 0.000000
-17.983200 -4.572002 5.183884 -0.282234 -0.000000 0.959346 0.000000 1.000000 0.000000 -7.375000 1.000000 0 0 0 0 0.000000 0.000000 0.000000 0.000000
-18.573750 -4.572002 5.010148 -0.282234 -0.000000 0.959346 0.959346 -0.000000 0.282234 -7.617188 1.000000 0 0 0 0 0.000000 0.000000 0.000000 0.000000
-18.573750 -1.524003 5.010148 -0.282234 -0.000000 0.959346 0.959346 -0.000000 0.282234 -7.617188 0.000000 0 0 0 0 0.000000 0.000000 0.000000 0.000000
-18.573750 -1.524003 5.010148 -0.759255 -0.000000 0.650793 0.650793 0.000000 0.759255 2.054688 0.000000 0 0 0 0 0.000000 0.000000 0.000000 0.000000
-18.573750 -4.572002 5.010148 -0.759255 -0.000000 0.650793 0.650793 0.000000 0.759255 2.054688 1.000000 0 0 0 0 0.000000 0.000000 0.000000 0.000000
-19.030951 -4.572002 4.476748 -0.759255 -0.000000 0.650793 0.650793 0.000000 0.759255 1.835938 1.000000 0 0 0 0 0.000000 0.000000 0.000000 0.000000
-19.030951 -1.524003 4.476748 -0.759255 -0.000000 0.650793 0.650793 0.000000 0.759255 1.835938 0.000000 0 0 0 0 0.000000 0.000000 0.000000 0.000000
-18.688093 -1.524003 7.315197 -0.759191 -0.000005 -0.650868 -0.650801 -0.000000 0.759248 3.015625 0.000000 0 0 0 0 0.000000 0.000000 0.000000 0.000000
-18.688049 -4.572003 7.315197 -0.759191 -0.000005 -0.650868 -0.650801 -0.000000 0.759248 3.015625 1.000000 0 0 0 0 0.000000 0.000000 0.000000 0.000000
-18.573751 -4.572003 7.181848 -0.759191 -0.000005 -0.650868 -0.650868 -0.000000 0.759191 2.960938 1.000000 0 0 0 0 0.000000 0.000000 0.000000 0.000000
-18.573751 -1.524003 7.181848 -0.759191 -0.000005 -0.650868 -0.650868 -0.000001 0.759191 2.960938 0.000000 0 0 0 0 0.000000 0.000000 0.000000 0.000000
-32.308800 -4.876805 13.106396 0.000000 0.000000 -1.000000 1.000000 -0.000000 0.000000 -13.250000 0.775000 0 0 0 0 0.000000 0.000000 0.000000 0.000000
-32.308800 -3.505205 13.106398 0.000000 0.000000 -1.000000 1.000000 -0.000000 0.000000 -13.250000 0.325000 0 0 0 0 0.000000 0.000000 0.000000 0.000000
-32.461201 -3.505205 13.106398 0.000000 0.000000 -1.000000 1.000000 -0.000000 0.000000 -13.312500 0.325000 0 0 0 0 0.000000 0.000000 0.000000 0.000000
-32.461201 -4.876805 13.106396 0.000000 0.000000 -1.000000 1.000000 -0.000000 0.000000 -13.312500 0.775000 0 0 0 0 0.000000 0.000000 0.000000 0.000000
-32.461201 -5.486405 13.106396 0.000000 0.000000 -1.000000 -0.000000 -1.000000 -0.000000 -13.312500 0.975000 0 0 0 0 0.000000 0.000000 0.000000 0.000000
-32.461201 -4.876805 13.106396 0.000000 0.000000 -1.000000 -0.000000 -1.000000 -0.000000 -13.312500 0.775000 0 0 0 0 0.000000 0.000000 0.000000 0.000000
-32.461201 -3.505205 13.106398 0.000000 0.000000 -1.000000 -0.000000 -1.000000 -0.000000 -13.312500 0.325000 0 0 0 0 0.000000 0.000000 0.000000 0.000000
-32.461201 -2.514605 13.106398 0.000000 0.000000 -1.000000 0.000000 1.000000 0.000000 -13.312500 0.000000 0 0 0 0 0.000000 0.000000 0.000000 0.000000
-33.832802 -2.514605 13.106398 0.000000 0.000000 -1.000000 1.000000 -0.000000 0.000000 -13.875000 0.000000 0 0 0 0 0.000000 0.000000 0.000000 0.000000
-35.356800 -2.514605 13.106396 0.000000 0.000000 -1.000000 1.000000 0.000000 0.000000 -14.500000 0.000000 0 0 0 0 0.000000 0.000000 0.000000 0.000000
-36.728401 -2.514605 13.106396 0.000000 0.000000 -1.000000 1.000000 0.000000 0.000000 -15.062500 0.000000 0 0 0 0 0.000000 0.000000 0.000000 0.000000
-36.728401 -5.486405 13.106395 0.000000 0.000000 -1.000000 1.000000 0.000000 0.000000 -15.062500 0.975000 0 0 0 0 0.000000 0.000000 0.000000 0.000000
-32.461201 -4.876805 12.344397 -1.000000 -0.000000 -0.000000 -0.000000 -0.000000 1.000000 5.062500 0.775000 0 0 0 0 0.000000 0.000000 0.000000 0.000000
-32.461201 -4.876805 13.106396 -1.000000 -0.000000 -0.000000 -0.000000 -0.000000 1.000000 5.375000 0.775000 0 0 0 0 0.000000 0.000000 0.000000 0.000000
-32.461201 -5.486405 13.106396 -1.000000 -0.000000 -0.000000 -0.000000 -0.000000 1.000000 5.375000 0.975000 0 0 0 0 0.000000 0.000000 0.000000 0.000000
-32.461201 -5.486405 12.344397 -1.000000 -0.000000 -0.000000 -0.000000 -0.000000 1.000000 5.062500 0.975000 0 0 0 0 0.000000 0.000000 0.000000 0.000000
-32.461201 -5.486404 8.839196 -1.000000 -0.000000 -0.000000 -0.000000 -0.000000 1.000000 3.625000 0.975000 0 0 0 0 0.000000 0.000000 0.000000 0.000000
-32.461201 -5.486404 8.077196 -1.000000 -0.000000 -0.000000 -0.000000 -0.000000 1.000000 3.312500 0.975000 0 0 0 0 0.000000 0.000000 0.000000 0.000000
-32.461201 -4.876804 8.077196 -1.000000 -0.000000 -0.000000 -0.000000 -0.000000 1.000000 3.312500 0.775000 0 0 0 0 0.000000 0.000000 0.000000 0.000000
-32.461201 -4.876804 8.839196 -1.000000 -0.000000 -0.000000 0.000000 0.000000 -1.000000 3.625000 0.775000 0 0 0 0 0.000000 0.000000 0.000000 0.000000
-32.461201 -2.514605 12.344398 -1.000000 -0.000000 -0.000000 -0.000000 -0.000000 1.000000 5.062500 0.000000 0 0 0 0 0.000000 0.000000 0.000000 0.000000
-32.461201 -2.514605 13.106398 -1.000000 -0.000000 -0.000000 -0.000000 -0.000000 1.000000 5.375000 0.000000 0 0 0 0 0.000000 0.000000 0.000000 0.000000
-32.461201 -3.505205 13.106398 -1.000000 -0.000000 -0.000000 -0.000000 -0.000000 1.000000 5.375000 0.325000 0 0 0 0 0.000000 0.000000 0.000000 0.000000
-32.461201 -3.505205 12.344398 -1.000000 -0.000000 -0.000000 -0.000000 -0.000000 1.000000 5.062500 0.325000 0 0 0 0 0.000000 0.000000 0.000000 0.000000
-32.461201 -3.505204 8.839196 -1.000000 -0.000000 -0.000000 -0.000000 -0.000000 1.000000 3.625000 0.325000 0 0 0 0 0.000000 0.000000 0.000000 0.000000
-32.461201 -3.505204 8.077196 -1.000000 -0.000000 -0.000000 -0.000000 -0.000000 1.000000 3.312500 0.325000 0 0 0 0 0.000000 0.000000 0.000000 0.000000
-32.461201 -2.514604 8.077196 -1.000000 -0.000000 -0.000000 -0.000000 -0.000000 1.000000 3.312500 0.000000 0 0 0 0 0.000000 0.000000 0.000000 0.000000
-36.804600 -3.657605 10.667996 0.000000 0.000000 -1.000000 1.000000 -0.000000 0.000000 -15.093750 0.375000 0 0 0 0 0.000000 0.000000 0.000000 0.000000
-36.804600 -4.876805 10.667995 0.000000 0.000000 -1.000000 1.000000 -0.000000 0.000000 -15.093750 0.775000 0 0 0 0 0.000000 0.000000 0.000000 0.000000
-36.728401 -4.876805 10.667995 0.000000 0.000000 -1.000000 1.000000 -0.000000 0.000000 -15.062500 0.775000 0 0 0 0 0.000000 0.000000 0.000000 0.000000
-36.728401 -3.657605 10.667996 0.000000 0.000000 -1.000000 1.000000 -0.000000 0.000000 -15.062500 0.375000 0 0 0 0 0.000000 0.000000 0.000000 0.000000
-32.461201 -2.514603 -0.304803 -0.000000 -0.000000 1.000000 1.000000 0.000000 0.000000 -13.312500 0.000000 0 0 0 0 0.000000 0.000000 0.000000 0.000000
-32.461201 -3.505203 -0.304803 -0.000000 -0.000000 1.000000 1.000000 0.000000 0.000000 -13.312500 0.325000 0 0 0 0 0.000000 0.000000 0.000000 0.000000
-32.461201 -4.876802 -0.304804 -0.000000 -0.000000 1.000000 1.000000 -0.000000 0.000000 -13.312500 0.775000 0 0 0 0 0.000000 0.000000 0.000000 0.000000
-32.461201 -5.486403 -0.304804 -0.000000 -0.000000 1.000000 1.000000 0.000001 0.000000 -13.312500 0.975000 0 0 0 0 0.000000 0.000000 0.000000 0.000000
-36.728401 -5.486403 -0.304804 -0.000000 -0.000000 1.000000 1.000000 -0.000000 0.000000 -15.062500 0.975000 0 0 0 0 0.000000 0.000000 0.000000 0.000000
-36.728401 -2.514603 -0.304804 -0.000000 -0.000000 1.000000 1.000000 0.000000 0.000000 -15.062500 0.000000 0 0 0 0 0.000000 0.000000 0.000000 0.000000
-35.356800 -2.514603 -0.304803 -0.000000 -0.000000 1.000000 -1.000000 -0.000000 -0.000000 -14.500000 0.000000 0 0 0 0 0.000000 0.000000 0.000000 0.000000
-33.832802 -2.514603 -0.304803 -0.000000 -0.000000 1.000000 1.000000 0.000000 0.000000 -13.875000 0.000000 0 0 0 0 0.000000 0.000000 0.000000 0.000000
-32.308800 -3.505203 -0.304803 -0.000000 -0.000000 1.000000 1.000000 0.000000 0.000000 -13.250000 0.325000 0 0 0 0 0.000000 0.000000 0.000000 0.000000
-32.308800 -4.876802 -0.304804 -0.000000 -0.000000 1.000000 1.000000 0.000000 0.000000 -13.250000 0.775000 0 0 0 0 0.000000 0.000000 0.000000 0.000000
-32.461201 -4.876803 4.114796 -1.000000 -0.000000 -0.000000 -0.000000 -0.000000 1.000000 1.687500 0.775000 0 0 0 0 0.000000 0.000000 0.000000 0.000000
-32.461201 -5.486403 4.114796 -1.000000 -0.000000 -0.000000 -0.000000 -0.000000 1.000000 1.687500 0.975000 0 0 0 0 0.000000 0.000000 0.000000 0.000000
-32.461201 -5.486403 -0.304804 -1.000000 -0.000000 -0.000000 -0.000000 -0.000000 1.000000 -0.125000 0.975000 0 0 0 0 0.000000 0.000000 0.000000 0.000000
-32.461201 -4.876802 -0.304804 -1.000000 -0.000000 -0.000000 -0.000000 -0.000000 1.000000 -0.125000 0.775000 0 0 0 0 0.000000 0.000000 0.000000 0.000000
-32.461201 -2.514604 4.114797 -1.000000 -0.000000 -0.000000 -0.000000 -0.000000 1.000000 1.687500 0.000000 0 0 0 0 0.000000 0.000000 0.000000 0.000000
-32.461201 -3.505203 4.114797 -1.000000 -0.000000 -0.000000 -0.000000 -0.000000 1.000000 1.687500 0.325000 0 0 0 0 0.000000 0.000000 0.000000 0.000000
-32.461201 -3.505203 -0.304803 -1.000000 -0.000000 -0.000000 -0.000000 -0.000000 1.000000 -0.125000 0.325000 0 0 0 0 0.000000 0.000000 0.000000 0.000000
-32.461201 -2.514603 -0.304803 -1.000000 -0.000000 -0.000000 -0.000000 -0.000000 1.000000 -0.125000 0.000000 0 0 0 0 0.000000 0.000000 0.000000 0.000000
-36.804600 -3.657604 4.114796 -0.000000 -0.000000 1.000000 1.000000 -0.000000 0.000000 -15.093750 0.375000 0 0 0 0 0.000000 0.000000 0.000000 0.000000
-36.728401 -3.657604 4.114796 -0.000000 -0.000000 1.000000 1.000000 -0.000000 0.000000 -15.062500 0.375000 0 0 0 0 0.000000 0.000000 0.000000 0.000000
-36.728401 -4.876804 4.114796 -0.000000 -0.000000 1.000000 1.000000 -0.000000 0.000000 -15.062500 0.775000 0 0 0 0 0.000000 0.000000 0.000000 0.000000
-36.804600 -4.876804 4.114796 -0.000000 -0.000000 1.000000 1.000000 -0.000000 0.000000 -15.093750 0.775000 0 0 0 0 0.000000 0.000000 0.000000 0.000000
-17.373598 -3.429000 -7.010402 0.000000 0.000000 -1.000000 1.000000 -0.000000 0.000000 -7.125000 0.775000 0 0 0 0 0.000000 0.000000 0.000000 0.000000
-14.935199 -3.429000 -7.010402 0.000000 0.000000 -1.000000 1.000000 -0.000000 0.000000 -6.125000 0.775000 0 0 0 0 0.000000 0.000000 0.000000 0.000000
-14.935199 -1.066800 -7.010401 0.000000 0.000000 -1.000000 1.000000 -0.000000 0.000000 -6.125000 0.000000 0 0 0 0 0.000000 0.000000 0.000000 0.000000
-16.516348 -1.066800 -7.010401 0.000000 0.000000 -1.000000 1.000000 -0.000000 0.000000 -6.773438 0.000000 0 0 0 0 0.000000 0.000000 0.000000 0.000000
-17.373598 -1.066800 -7.010401 0.000000 0.000000 -1.000000 1.000000 0.000000 0.000000 -7.125000 0.000000 0 0 0 0 0.000000 0.000000 0.000000 0.000000
-21.640800 -3.429001 -7.010403 0.000000 0.000000 -1.000000 -1.000000 -0.000000 -0.000000 -8.875000 0.775000 0 0 0 0 0.000000 0.000000 0.000000 0.000000
-17.983198 -3.429000 -7.010403 0.000000 0.000000 -1.000000 -1.000000 -0.000000 -0.000000 -7.375000 0.775000 0 0 0 0 0.000000 0.000000 0.000000 0.000000
-17.373598 -3.429000 -7.010402 0.000000 0.000000 -1.000000 -1.000000 -0.000000 -0.000000 -7.125000 0.775000 0 0 0 0 0.000000 0.000000 0.000000 0.000000
-17.811749 -1.066800 -7.010402 0.000000 0.000000 -1.000000 1.000000 0.000000 0.000000 -7.304688 0.000000 0 0 0 0 0.000000 0.000000 0.000000 0.000000
-19.526249 -1.066800 -7.010402 0.000000 0.000000 -1.000000 1.000000 -0.000000 0.000000 -8.007812 0.000000 0 0 0 0 0.000000 0.000000 0.000000 0.000000
-20.821650 -1.066801 -7.010402 0.000000 0.000000 -1.000000 1.000000 0.000000 0.000000 -8.539062 0.000000 0 0 0 0 0.000000 0.000000 0.000000 0.000000
-21.640800 -1.066801 -7.010402 0.000000 0.000000 -1.000000 1.000000 0.000000 0.000000 -8.875000 0.000000 0 0 0 0 0.000000 0.000000 0.000000 0.000000
-18.364199 -3.505201 -7.010403 0.000000 0.000000 -1.000000 1.000000 0.000000 0.000000 -7.531250 0.800000 0 0 0 0 0.000000 0.000000 0.000000 0.000000
-18.364199 -4.114800 -7.010403 0.000000 0.000000 -1.000000 1.000000 0.000000 0.000000 -7.531250 1.000000 0 0 0 0 0.000000 0.000000 0.000000 0.000000
-14.935199 -4.114800 -7.010402 0.000000 0.000000 -1.000000 1.000000 0.000000 0.000000 -6.125000 1.000000 0 0 0 0 0.000000 0.000000 0.000000 0.000000
-14.935199 -3.505200 -7.010402 0.000000 0.000000 -1.000000 1.000000 0.000000 0.000000 -6.125000 0.800000 0 0 0 0 0.000000 0.000000 0.000000 0.000000
-17.983198 -3.505200 -7.010403 0.000000 0.000000 -1.000000 1.000000 0.000000 0.000000 -7.375000 0.800000 0 0 0 0 0.000000 0.000000 0.000000 0.000000
-18.516598 -4.114800 -7.010403 0.000000 0.000000 -1.000000 1.000000 -0.000000 0.000000 -7.593750 1.000000 0 0 0 0 0.000000 0.000000 0.000000 0.000000
-18.516598 -3.505201 -7.010403 0.000000 0.000000 -1.000000 1.000000 -0.000000 0.000000 -7.593750 0.800000 0 0 0 0 0.000000 0.000000 0.000000 0.000000
-20.231098 -3.505201 -7.010403 0.000000 0.000000 -1.000000 1.000000 -0.000000 0.000000 -8.296875 0.800000 0 0 0 0 0.000000 0.000000 0.000000 0.000000
-21.526501 -3.505201 -7.010403 0.000000 0.000000 -1.000000 1.000000 -0.000000 0.000000 -8.828125 0.800000 0 0 0 0 0.000000 0.000000 0.000000 0.000000
-21.640800 -3.505201 -7.010403 0.000000 0.000000 -1.000000 1.000000 -0.000000 0.000000 -8.875000 0.800000 0 0 0 0 0.000000 0.000000 0.000000 0.000000
-21.640800 -4.114800 -7.010403 0.000000 0.000000 -1.000000 1.000000 -0.000000 0.000000 -8.875000 1.000000 0 0 0 0 0.000000 0.000000 0.000000 0.000000
-21.526501 -4.114800 -7.010403 0.000000 0.000000 -1.000000 1.000000 -0.000000 0.000000 -8.828125 1.000000 0 0 0 0 0.000000 0.000000 0.000000 0.000000
-20.726400 -4.114800 -7.010403 0.000000 0.000000 -1.000000 -1.000000 0.000000 -0.000000 -8.500000 1.000000 0 0 0 0 0.000000 0.000000 0.000000 0.000000
-17.983198 -3.429000 -7.010403 0.000000 0.000000 -1.000000 1.000000 0.000000 0.000000 -7.375000 0.775000 0 0 0 0 0.000000 0.000000 0.000000 0.000000
-17.983198 -3.505200 -7.010403 0.000000 0.000000 -1.000000 1.000000 0.000000 0.000000 -7.375000 0.800000 0 0 0 0 0.000000 0.000000 0.000000 0.000000
-17.373598 -3.429000 -7.010402 0.000000 0.000000 -1.000000 1.000000 0.000000 0.000000 -7.125000 0.775000 0 0 0 0 0.000000 0.000000 0.000000 0.000000
-21.640800 -1.066800 -9.982202 1.000000 0.000000 0.000000 -0.000000 -0.000000 1.000000 -4.093750 0.000000 0 0 0 0 0.000000 0.000000 0.000000 0.000000
-21.640800 -3.429000 -9.982202 1.000000 0.000000 0.000000 -0.000000 -0.000000 1.000000 -4.093750 0.775000 0 0 0 0 0.000000 0.000000 0.000000 0.000000
-21.640800 -3.429001 -8.496303 1.000000 0.000000 0.000000 -0.000000 -0.000000 1.000000 -3.484375 0.775000 0 0 0 0 0.000000 0.000000 0.000000 0.000000
-21.640800 -3.429001 -7.010403 1.000000 0.000000 0.000000 -0.000000 -0.000000 1.000000 -2.875000 0.775000 0 0 0 0 0.000000 0.000000 0.000000 0.000000
-21.640800 -1.066801 -7.010402 1.000000 0.000000 0.000000 -0.000000 -0.000000 1.000000 -2.875000 0.000000 0 0 0 0 0.000000 0.000000 0.000000 0.000000
-21.640799 -1.066800 -14.249403 1.000000 0.000000 0.000000 -0.000000 -0.000000 1.000000 -5.843750 0.000000 0 0 0 0 0.000000 0.000000 0.000000 0.000000
-21.640799 -3.429000 -14.249403 1.000000 0.000000 0.000000 -0.000000 -0.000000 1.000000 -5.843750 0.775000 0 0 0 0 0.000000 0.000000 0.000000 0.000000
-21.640800 -3.429000 -13.716003 1.000000 0.000000 0.000000 -0.000000 -0.000000 1.000000 -5.625000 0.775000 0 0 0 0 0.000000 0.000000 0.000000 0.000000
-21.640800 -3.429000 -10.363203 1.000000 0.000000 0.000000 -0.000000 -0.000000 1.000000 -4.250000 0.775000 0 0 0 0 0.000000 0.000000 0.000000 0.000000
-21.640800 -3.505200 -13.716003 1.000000 0.000000 0.000000 -0.000000 -0.000000 1.000000 -5.625000 0.800000 0 0 0 0 0.000000 0.000000 0.000000 0.000000
-21.640800 -3.505200 -10.363203 1.000000 0.000000 0.000000 -0.000000 -0.000000 1.000000 -4.250000 0.800000 0 0 0 0 0.000000 0.000000 0.000000 0.000000
-21.640800 -4.114800 -9.982202 1.000000 0.000000 0.000000 -0.000000 -0.000000 1.000000 -4.093750 1.000000 0 0 0 0 0.000000 0.000000 0.000000 0.000000
-21.640800 -3.505200 -9.982202 1.000000 0.000000 0.000000 -0.000000 -0.000000 1.000000 -4.093750 0.800000 0 0 0 0 0.000000 0.000000 0.000000 0.000000
-21.640799 -3.505200 -14.097002 1.000000 0.000000 0.000000 -0.000000 0.000000 1.000000 -5.781250 0.800000 0 0 0 0 0.000000 0.000000 0.000000 0.000000
-21.640799 -4.114799 -14.097003 1.000000 0.000000 0.000000 -0.000000 -0.000000 1.000000 -5.781250 1.000000 0 0 0 0 0.000000 0.000000 0.000000 0.000000
-21.640800 -3.505200 -9.829802 1.000000 0.000000 0.000000 -0.000000 -0.000000 1.000000 -4.031250 0.800000 0 0 0 0 0.000000 0.000000 0.000000 0.000000
-21.640800 -4.114800 -9.829802 1.000000 0.000000 0.000000 -0.000000 -0.000000 1.000000 -4.031250 1.000000 0 0 0 0 0.000000 0.000000 0.000000 0.000000
-21.640800 -4.114800 -8.420102 1.000000 0.000000 0.000000 -0.000000 -0.000000 1.000000 -3.453125 1.000000 0 0 0 0 0.000000 0.000000 0.000000 0.000000
-21.640800 -4.114800 -7.124702 1.000000 0.000000 0.000000 -0.000000 -0.000000 1.000000 -2.921875 1.000000 0 0 0 0 0.000000 0.000000 0.000000 0.000000
-21.640800 -4.114800 -7.010403 1.000000 0.000000 0.000000 -0.000000 -0.000000 1.000000 -2.875000 1.000000 0 0 0 0 0.000000 0.000000 0.000000 0.000000
-21.640800 -3.505201 -7.010403 1.000000 0.000000 0.000000 -0.000000 -0.000000 1.000000 -2.875000 0.800000 0 0 0 0 0.000000 0.000000 0.000000 0.000000
-21.640800 -3.505201 -7.124702 1.000000 0.000000 0.000000 -0.000000 -0.000000 1.000000 -2.921875 0.800000 0 0 0 0 0.000000 0.000000 0.000000 0.000000
-21.640800 -3.505201 -8.420102 1.000000 0.000000 0.000000 -0.000000 -0.000000 1.000000 -3.453125 0.800000 0 0 0 0 0.000000 0.000000 0.000000 0.000000
-14.935199 -4.114800 -8.534402 -1.000000 -0.000000 -0.000000 0.000000 0.000000 -1.000000 -3.500000 1.000000 0 0 0 0 0.000000 0.000000 0.000000 0.000000
-14.935199 -3.352800 -8.534402 -1.000000 -0.000000 -0.000000 -0.000000 -0.000000 1.000000 -3.500000 0.750000 0 0 0 0 0.000000 0.000000 0.000000 0.000000
-14.935199 -1.676400 -8.534401 -1.000000 -0.000000 -0.000000 -0.000000 -0.000000 1.000000 -3.500000 0.200000 0 0 0 0 0.000000 0.000000 0.000000 0.000000
-14.935199 -1.066800 -8.534401 -1.000000 -0.000000 -0.000000 -0.000000 -0.000000 1.000000 -3.500000 0.000000 0 0 0 0 0.000000 0.000000 0.000000 0.000000
-14.935199 -1.066800 -7.010401 -1.000000 -0.000000 -0.000000 -0.000000 -0.000000 1.000000 -2.875000 0.000000 0 0 0 0 0.000000 0.000000 0.000000 0.000000
-14.935199 -3.429000 -7.010402 -1.000000 -0.000000 -0.000000 -0.000000 -0.000008 1.000000 -2.875000 0.775000 0 0 0 0 0.000000 0.000000 0.000000 0.000000
-14.935199 -3.505200 -7.010402 -1.000000 -0.000000 -0.000000 -0.000000 0.000015 1.000000 -2.875000 0.800000 0 0 0 0 0.000000 0.000000 0.000000 0.000000
-14.935199 -4.114800 -7.010402 -1.000000 -0.000000 -0.000000 -0.000000 -0.000004 1.000000 -2.875000 1.000000 0 0 0 0 0.000000 0.000000 0.000000 0.000000
-14.935199 -4.114800 -7.086602 -1.000000 -0.000000 -0.000000 0.000000 0.000000 -1.000000 -2.906250 1.000000 0 0 0 0 0.000000 0.000000 0.000000 0.000000
-14.935199 -4.114800 -7.924801 -1.000000 -0.000000 -0.000000 0.000000 0.000000 -1.000000 -3.250000 1.000000 0 0 0 0 0.000000 0.000000 0.000000 0.000000
-14.935199 -4.114799 -10.058402 -1.000000 -0.000000 -0.000000 -0.000000 -0.000000 1.000000 -4.125000 1.000000 0 0 0 0 0.000000 0.000000 0.000000 0.000000
-14.935199 -3.352800 -10.058402 -1.000000 -0.000000 -0.000000 -0.000000 -0.000000 1.000000 -4.125000 0.750000 0 0 0 0 0.000000 0.000000 0.000000 0.000000
-14.935199 -4.114800 -8.534402 -1.000000 -0.000000 -0.000000 -0.000000 -0.000000 1.000000 -3.500000 1.000000 0 0 0 0 0.000000 0.000000 0.000000 0.000000
-14.935199 -4.114799 -11.582402 -1.000000 -0.000000 0.000000 0.000000 -0.000000 1.000000 -4.750000 1.000000 0 0 0 0 0.000000 0.000000 0.000000 0.000000
-14.935199 -3.352799 -11.582401 -1.000000 -0.000000 0.000000 0.000000 -0.000000 1.000000 -4.750000 0.750000 0 0 0 0 0.000000 0.000000 0.000000 0.000000
-14.935199 -1.676399 -11.582401 -1.000000 -0.000000 0.000000 0.000000 -0.000000 1.000000 -4.750000 0.200000 0 0 0 0 0.000000 0.000000 0.000000 0.000000
-14.935199 -1.066799 -11.582401 -1.000000 -0.000000 0.000000 0.000000 -0.000000 1.000000 -4.750000 0.000000 0 0 0 0 0.000000 0.000000 0.000000 0.000000
-14.935199 -1.066800 -10.058401 -1.000000 -0.000000 0.000000 0.000000 -0.000000 1.000000 -4.125000 0.000000 0 0 0 0 0.000000 0.000000 0.000000 0.000000
-14.935199 -1.676400 -10.058401 -1.000000 -0.000000 0.000000 0.000000 -0.000000 1.000000 -4.125000 0.200000 0 0 0 0 0.000000 0.000000 0.000000 0.000000
-14.935199 -4.114799 -14.249403 -1.000000 -0.000000 -0.000001 -0.000001 -0.000000 1.000000 -5.843750 1.000000 0 0 0 0 0.000000 0.000000 0.000000 0.000000
-14.935199 -1.066799 -14.249401 -1.000000 -0.000000 -0.000001 -0.000001 -0.000000 1.000000 -5.843750 0.000000 0 0 0 0 0.000000 0.000000 0.000000 0.000000
-14.935199 -1.066799 -13.106401 -1.000000 -0.000000 -0.000001 -0.000001 -0.000000 1.000000 -5.375000 0.000000 0 0 0 0 0.000000 0.000000 0.000000 0.000000
-14.935199 -1.676399 -13.106401 -1.000000 -0.000000 -0.000001 -0.000001 -0.000000 1.000000 -5.375000 0.200000 0 0 0 0 0.000000 0.000000 0.000000 0.000000
-14.935199 -3.352799 -13.106401 -1.000000 -0.000000 -0.000001 -0.000001 0.000000 1.000000 -5.375000 0.750000 0 0 0 0 0.000000 0.000000 0.000000 0.000000
-14.935199 -4.114799 -13.106402 -1.000000 -0.000000 -0.000001 -0.000001 -0.000000 1.000000 -5.375000 1.000000 0 0 0 0 0.000000 0.000000 0.000000 0.000000
-14.935199 -4.114799 -12.192003 -1.000000 -0.000000 -0.000000 -0.000000 -0.000000 1.000000 -5.000000 1.000000 0 0 0 0 0.000000 0.000000 0.000000 0.000000
-14.935199 -1.066800 -9.982201 -1.000000 -0.000000 -0.000000 -0.000000 -0.000000 1.000000 -4.093750 0.000000 0 0 0 0 0.000000 0.000000 0.000000 0.000000
-14.630398 -1.676400 -10.058401 -0.000000 -0.000000 1.000000 1.000000 -0.000000 0.000000 -5.625000 0.200000 0 0 0 0 0.000000 0.000000 0.000000 0.000000
-14.630398 -3.352800 -10.058402 -0.000000 -0.000000 1.000000 1.000000 -0.000000 0.000000 -5.625000 0.750000 0 0 0 0 0.000000 0.000000 0.000000 0.000000
-14.935199 -3.352800 -10.058402 -0.000000 -0.000000 1.000000 1.000000 -0.000000 0.000000 -5.750000 0.750000 0 0 0 0 0.000000 0.000000 0.000000 0.000000
-14.935199 -1.676400 -10.058401 -0.000000 -0.000000 1.000000 1.000000 -0.000000 0.000000 -5.750000 0.200000 0 0 0 0 0.000000 0.000000 0.000000 0.000000
-14.630398 -3.352800 -8.534402 -0.000000 1.000000 0.000000 1.000000 0.000000 0.000000 -5.609375 2.331250 0 0 0 0 0.000000 0.000000 0.000000 0.000000
-14.935199 -3.352800 -8.534402 -0.000000 1.000000 0.000000 1.000000 0.000000 0.000000 -5.734375 2.331250 0 0 0 0 0.000000 0.000000 0.000000 0.000000
-14.935199 -3.352800 -10.058402 -0.000000 1.000000 0.000000 1.000000 0.000000 0.000000 -5.734375 2.831250 0 0 0 0 0.000000 0.000000 0.000000 0.000000
-14.630398 -3.352800 -10.058402 -0.000000 1.000000 0.000000 1.000000 0.000000 0.000000 -5.609375 2.831250 0 0 0 0 0.000000 0.000000 0.000000 0.000000
-14.630398 -3.352800 -8.534402 0.000000 0.000000 -1.000000 1.000000 -0.000000 0.000000 -5.625000 0.750000 0 0 0 0 0.000000 0.000000 0.000000 0.000000
-14.630398 -1.676400 -8.534401 0.000000 0.000000 -1.000000 1.000000 -0.000000 0.000000 -5.625000 0.200000 0 0 0 0 0.000000 0.000000 0.000000 0.000000
-14.935199 -1.676400 -8.534401 0.000000 0.000000 -1.000000 1.000000 -0.000000 0.000000 -5.750000 0.200000 0 0 0 0 0.000000 0.000000 0.000000 0.000000
-14.935199 -3.352800 -8.534402 0.000000 0.000000 -1.000000 1.000000 -0.000000 0.000000 -5.750000 0.750000 0 0 0 0 0.000000 0.000000 0.000000 0.000000
-14.630398 -1.676400 -10.058401 0.000000 -1.000000 -0.000000 1.000000 0.000000 0.000000 -5.609375 2.831250 0 0 0 0 0.000000 0.000000 0.000000 0.000000
-14.935199 -1.676400 -10.058401 0.000000 -1.000000 -0.000000 1.000000 0.000000 0.000000 -5.734375 2.831250 0 0 0 0 0.000000 0.000000 0.000000 0.000000
-14.935199 -1.676400 -8.534401 0.000000 -1.000000 -0.000000 1.000000 0.000000 0.000000 -5.734375 2.331250 0 0 0 0 0.000000 0.000000 0.000000 0.000000
-14.630398 -1.676400 -8.534401 0.000000 -1.000000 -0.000000 1.000000 0.000000 0.000000 -5.609375 2.331250 0 0 0 0 0.000000 0.000000 0.000000 0.000000
-14.630398 -3.352799 -11.582401 0.000000 0.000000 -1.000000 1.000000 -0.000000 0.000000 -5.625000 0.750000 0 0 0 0 0.000000 0.000000 0.000000 0.000000
-14.630398 -1.676399 -11.582401 0.000000 0.000000 -1.000000 1.000000 -0.000000 0.000000 -5.625000 0.200000 0 0 0 0 0.000000 0.000000 0.000000 0.000000
-14.935199 -1.676399 -11.582401 0.000000 0.000000 -1.000000 1.000000 -0.000000 0.000000 -5.750000 0.200000 0 0 0 0 0.000000 0.000000 0.000000 0.000000
-14.935199 -3.352799 -11.582401 0.000000 0.000000 -1.000000 1.000000 -0.000000 0.000000 -5.750000 0.750000 0 0 0 0 0.000000 0.000000 0.000000 0.000000
-14.630398 -3.352799 -11.582401 -0.000000 1.000000 0.000000 1.000000 0.000000 0.000000 -5.609375 3.331250 0 0 0 0 0.000000 0.000000 0.000000 0.000000
-14.935199 -3.352799 -11.582401 -0.000000 1.000000 0.000000 1.000000 0.000000 0.000000 -5.734375 3.331250 0 0 0 0 0.000000 0.000000 0.000000 0.000000
-14.935199 -3.352799 -13.106401 -0.000000 1.000000 0.000000 1.000000 0.000000 0.000000 -5.734375 3.831250 0 0 0 0 0.000000 0.000000 0.000000 0.000000
-14.630398 -3.352799 -13.106401 -0.000000 1.000000 0.000000 1.000000 0.000000 0.000000 -5.609375 3.831250 0 0 0 0 0.000000 0.000000 0.000000 0.000000
-14.630398 -1.676399 -13.106401 -0.000000 -0.000000 1.000000 1.000000 0.000001 0.000000 -5.625000 0.200000 0 0 0 0 0.000000 0.000000 0.000000 0.000000
-14.630398 -3.352799 -13.106401 -0.000000 -0.000000 1.000000 1.000000 0.000001 0.000000 -5.625000 0.750000 0 0 0 0 0.000000 0.000000 0.000000 0.000000
-14.935199 -3.352799 -13.106401 -0.000000 -0.000000 1.000000 1.000000 -0.000000 0.000000 -5.750000 0.750000 0 0 0 0 0.000000 0.000000 0.000000 0.000000
-14.935199 -1.676399 -13.106401 -0.000000 -0.000000 1.000000 1.000000 0.000001 0.000000 -5.750000 0.200000 0 0 0 0 0.000000 0.000000 0.000000 0.000000
-14.630398 -1.676399 -13.106401 0.000000 -1.000000 -0.000000 1.000000 0.000000 -0.000000 -5.609375 3.831250 0 0 0 0 0.000000 0.000000 0.000000 0.000000
-14.935199 -1.676399 -13.106401 0.000000 -1.000000 -0.000000 1.000000 0.000000 -0.000000 -5.734375 3.831250 0 0 0 0 0.000000 0.000000 0.000000 0.000000
-14.935199 -1.676399 -11.582401 0.000000 -1.000000 -0.000000 1.000000 0.000000 0.000000 -5.734375 3.331250 0 0 0 0 0.000000 0.000000 0.000000 0.000000
-14.630398 -1.676399 -11.582401 0.000000 -1.000000 -0.000000 1.000000 0.000000 -0.000000 -5.609375 3.331250 0 0 0 0 0.000000 0.000000 0.000000 0.000000
-14.935199 -1.066799 -14.478002 -1.000000 -0.000000 -0.000000 -0.000001 -0.000001 1.000000 -5.937500 0.000000 0 0 0 0 0.000000 0.000000 0.000000 0.000000
-14.935199 -1.676399 -14.478002 -1.000000 -0.000000 -0.000000 -0.000001 -0.000000 1.000000 -5.937500 0.200000 0 0 0 0 0.000000 0.000000 0.000000 0.000000
-14.935199 -1.676399 -14.782802 -1.000000 -0.000000 -0.000000 -0.000000 -0.000000 1.000000 -6.062500 0.200000 0 0 0 0 0.000000 0.000000 0.000000 0.000000
-14.935199 -1.676399 -16.002001 -1.000000 -0.000000 -0.000000 -0.000000 -0.000000 1.000000 -6.562500 0.200000 0 0 0 0 0.000000 0.000000 0.000000 0.000000
-14.935199 -1.676399 -16.306801 -1.000000 -0.000000 -0.000000 -0.000000 -0.000000 1.000000 -6.687500 0.200000 0 0 0 0 0.000000 0.000000 0.000000 0.000000
-14.935199 -1.066799 -16.306801 -1.000000 -0.000000 -0.000000 -0.000000 -0.000000 1.000000 -6.687500 0.000000 0 0 0 0 0.000000 0.000000 0.000000 0.000000
-14.935199 -4.114799 -17.068802 -1.000000 -0.000000 -0.000000 -0.000000 -0.000000 1.000000 -7.000000 1.000000 0 0 0 0 0.000000 0.000000 0.000000 0.000000
-14.935199 -1.066799 -17.068800 -1.000000 -0.000000 -0.000000 -0.000000 -0.000000 1.000000 -7.000000 0.000000 0 0 0 0 0.000000 0.000000 0.000000 0.000000
-14.935199 -4.114799 -16.306803 -1.000000 -0.000000 -0.000000 -0.000000 -0.000000 1.000000 -6.687500 1.000000 0 0 0 0 0.000000 0.000000 0.000000 0.000000
-14.935199 -4.114799 -14.478003 -1.000000 -0.000000 -0.000001 -0.000001 -0.000000 1.000000 -5.937500 1.000000 0 0 0 0 0.000000 0.000000 0.000000 0.000000
-21.640799 -1.066799 -17.068802 1.000000 0.000000 0.000000 -0.000000 -0.000000 1.000000 -7.000000 0.000000 0 0 0 0 0.000000 0.000000 0.000000 0.000000
-21.640799 -3.428999 -17.068802 1.000000 0.000000 0.000000 -0.000000 -0.000000 1.000000 -7.000000 0.775000 0 0 0 0 0.000000 0.000000 0.000000 0.000000
-21.640799 -4.114799 -14.249404 1.000000 0.000000 0.000000 -0.000000 -0.000000 1.000000 -5.843750 1.000000 0 0 0 0 0.000000 0.000000 0.000000 0.000000
-21.640799 -3.505200 -14.249403 1.000000 0.000000 0.000000 -0.000000 -0.000000 1.000000 -5.843750 0.800000 0 0 0 0 0.000000 0.000000 0.000000 0.000000
-21.640799 -3.505199 -15.659102 1.000000 0.000000 0.000000 -0.000000 -0.000000 1.000000 -6.421875 0.800000 0 0 0 0 0.000000 0.000000 0.000000 0.000000
-21.640799 -3.505199 -16.954502 1.000000 0.000000 0.000000 -0.000000 -0.000000 1.000000 -6.953125 0.800000 0 0 0 0 0.000000 0.000000 0.000000 0.000000
-21.640799 -3.505199 -17.068802 1.000000 0.000000 0.000000 -0.000000 -0.000000 1.000000 -7.000000 0.800000 0 0 0 0 0.000000 0.000000 0.000000 0.000000
-21.640799 -4.114799 -17.068804 1.000000 0.000000 0.000000 -0.000000 -0.000000 1.000000 -7.000000 1.000000 0 0 0 0 0.000000 0.000000 0.000000 0.000000
-21.640799 -4.114799 -16.954504 1.000000 0.000000 0.000000 -0.000000 -0.000000 1.000000 -6.953125 1.000000 0 0 0 0 0.000000 0.000000 0.000000 0.000000
-21.640799 -4.114799 -15.659103 1.000000 0.000000 0.000000 -0.000000 -0.000000 1.000000 -6.421875 1.000000 0 0 0 0 0.000000 0.000000 0.000000 0.000000
-17.297398 -4.114799 -17.068802 -0.000000 -0.000000 1.000000 -0.000000 -1.000000 -0.000000 -7.093750 1.000000 0 0 0 0 0.000000 0.000000 0.000000 0.000000
-17.297398 -2.285999 -17.068800 -0.000000 -0.000000 1.000000 -0.000000 -1.000000 -0.000000 -7.093750 0.400000 0 0 0 0 0.000000 0.000000 0.000000 0.000000
-17.297398 -1.066799 -17.068800 -0.000000 -0.000000 1.000000 -0.000000 -1.000000 -0.000000 -7.093750 0.000000 0 0 0 0 0.000000 0.000000 0.000000 0.000000
-16.516348 -1.066799 -17.068800 -0.000000 -0.000000 1.000000 1.000000 -0.000000 0.000000 -6.773438 0.000000 0 0 0 0 0.000000 0.000000 0.000000 0.000000
-14.935199 -1.066799 -17.068800 -0.000000 -0.000000 1.000000 1.000000 0.000000 0.000000 -6.125000 0.000000 0 0 0 0 0.000000 0.000000 0.000000 0.000000
-14.935199 -4.114799 -17.068802 -0.000000 -0.000000 1.000000 1.000000 0.000000 0.000000 -6.125000 1.000000 0 0 0 0 0.000000 0.000000 0.000000 0.000000
-17.297398 -1.066799 -17.068800 -0.000000 -0.000001 1.000000 1.000000 0.000000 0.000000 -7.093750 0.000000 0 0 0 0 0.000000 0.000000 0.000000 0.000000
-17.297398 -2.285999 -17.068800 -0.000000 -0.000001 1.000000 1.000000 0.000000 0.000000 -7.093750 0.400000 0 0 0 0 0.000000 0.000000 0.000000 0.000000
-17.887949 -2.285999 -17.068800 -0.000000 -0.000001 1.000000 1.000000 -0.000000 0.000000 -7.335938 0.400000 0 0 0 0 0.000000 0.000000 0.000000 0.000000
-17.887949 -1.066799 -17.068800 -0.000000 -0.000001 1.000000 1.000000 0.000000 0.000000 -7.335938 0.000000 0 0 0 0 0.000000 0.000000 0.000000 0.000000
-17.811749 -1.066799 -17.068800 -0.000000 -0.000001 1.000000 1.000000 0.000000 0.000000 -7.304688 0.000000 0 0 0 0 0.000000 0.000000 0.000000 0.000000
-21.640799 -3.428999 -17.068802 -0.000000 -0.000000 1.000000 1.000000 0.000000 0.000000 -8.875000 0.775000 0 0 0 0 0.000000 0.000000 0.000000 0.000000
-21.640799 -1.066799 -17.068802 -0.000000 -0.000000 1.000000 1.000000 0.000000 0.000000 -8.875000 0.000000 0 0 0 0 0.000000 0.000000 0.000000 0.000000
-20.821648 -1.066799 -17.068800 -0.000000 -0.000000 1.000000 1.000000 0.000000 0.000000 -8.539062 0.000000 0 0 0 0 0.000000 0.000000 0.000000 0.000000
-19.526249 -1.066799 -17.068800 -0.000000 -0.000000 1.000000 1.000000 -0.000000 0.000000 -8.007812 0.000000 0 0 0 0 0.000000 0.000000 0.000000 0.000000
-17.887949 -3.428999 -17.068800 -0.000000 -0.000000 1.000000 1.000000 -0.000000 0.000000 -7.335938 0.775000 0 0 0 0 0.000000 0.000000 0.000000 0.000000
-17.983198 -3.428999 -17.068800 -0.000000 -0.000000 1.000000 1.000000 0.000000 0.000000 -7.375000 0.775000 0 0 0 0 0.000000 0.000000 0.000000 0.000000
-19.735798 -3.428999 -17.068800 -0.000000 -0.000000 1.000000 1.000000 0.000000 0.000000 -8.093750 0.775000 0 0 0 0 0.000000 0.000000 0.000000 0.000000
-17.983198 -4.114799 -17.068802 -0.000000 -0.000000 1.000000 -0.000000 -1.000000 -0.000000 -7.375000 1.000000 0 0 0 0 0.000000 0.000000 0.000000 0.000000
-17.983198 -3.505199 -17.068800 -0.000000 -0.000000 1.000000 -0.000000 -1.000000 -0.000000 -7.375000 0.800000 0 0 0 0 0.000000 0.000000 0.000000 0.000000
-17.983198 -3.428999 -17.068800 -0.000000 -0.000000 1.000000 -0.000000 -1.000000 -0.000000 -7.375000 0.775000 0 0 0 0 0.000000 0.000000 0.000000 0.000000
-17.887949 -4.114799 -17.068802 -0.000000 -0.000000 1.000000 1.000000 -0.000000 0.000000 -7.335938 1.000000 0 0 0 0 0.000000 0.000000 0.000000 0.000000
-21.640799 -4.114799 -17.068804 -0.000000 -0.000002 1.000000 1.000000 -0.000000 0.000000 -8.875000 1.000000 0 0 0 0 0.000000 0.000000 0.000000 0.000000
-21.640799 -3.505199 -17.068802 -0.000000 -0.000002 1.000000 1.000000 -0.000000 0.000000 -8.875000 0.800000 0 0 0 0 0.000000 0.000000 0.000000 0.000000
-21.526499 -3.505199 -17.068802 -0.000000 -0.000002 1.000000 1.000000 -0.000000 0.000000 -8.828125 0.800000 0 0 0 0 0.000000 0.000000 0.000000 0.000000
-20.231098 -3.505199 -17.068800 -0.000000 -0.000002 1.000000 1.000000 0.000000 0.000000 -8.296875 0.800000 0 0 0 0 0.000000 0.000000 0.000000 0.000000
-18.516598 -3.505199 -17.068800 -0.000000 -0.000002 1.000000 1.000000 0.000000 0.000000 -7.593750 0.800000 0 0 0 0 0.000000 0.000000 0.000000 0.000000
-18.516598 -4.114799 -17.068802 -0.000000 -0.000002 1.000000 1.000000 0.000000 0.000000 -7.593750 1.000000 0 0 0 0 0.000000 0.000000 0.000000 0.000000
-20.726398 -4.114799 -17.068802 -0.000000 -0.000002 1.000000 1.000000 0.000000 0.000000 -8.500000 1.000000 0 0 0 0 0.000000 0.000000 0.000000 0.000000
-21.526499 -4.114799 -17.068804 -0.000000 -0.000002 1.000000 1.000000 0.000000 0.000000 -8.828125 1.000000 0 0 0 0 0.000000 0.000000 0.000000 0.000000
-18.364199 -4.114799 -17.068802 -0.000000 -0.000000 1.000000 1.000000 -0.000000 0.000000 -7.531250 1.000000 0 0 0 0 0.000000 0.000000 0.000000 0.000000
-18.364199 -3.505199 -17.068800 -0.000000 -0.000000 1.000000 1.000000 -0.000000 0.000000 -7.531250 0.800000 0 0 0 0 0.000000 0.000000 0.000000 0.000000
-17.983198 -3.505199 -17.068800 -0.000000 -0.000000 1.000000 1.000000 -0.000000 0.000000 -7.375000 0.800000 0 0 0 0 0.000000 0.000000 0.000000 0.000000
-17.983198 -4.114799 -17.068802 -0.000000 -0.000000 1.000000 1.000000 -0.000000 0.000000 -7.375000 1.000000 0 0 0 0 0.000000 0.000000 0.000000 0.000000
IndexCount: 1044
0 4 3
0 3 2
2 1 0
5 9 8
5 8 7
7 6 5
5 6 70
5 70 69
13 11 10
13 12 11
17 15 14
17 16 15
21 19 18
21 20 19
25 23 22
25 24 23
120 126 25
120 25 125
120 127 126
121 120 125
125 124 123
125 123 121
123 122 121
131 129 127
131 127 128
131 130 129
29 27 26
29 28 27
33 31 30
33 32 31
34 38 37
34 37 36
36 35 34
42 40 39
42 41 40
46 44 43
46 45 44
50 48 47
50 49 48
54 52 51
54 53 52
58 56 55
58 57 56
59 63 62
59 62 61
61 60 59
66 65 64
68 67 66
74 72 71
74 73 72
75 79 78
75 78 77
77 76 75
83 81 80
83 82 81
87 85 84
87 86 85
91 89 88
91 90 89
95 93 92
95 94 93
99 97 96
99 98 97
103 101 100
103 102 101
107 105 104
107 106 105
111 109 108
111 110 109
115 113 112
115 114 113
119 117 116
119 118 117
135 133 132
135 134 133
136 140 139
136 139 138
138 137 136
144 142 141
144 143 142
145 149 148
148 146 145
145 146 151
145 151 150
166 149 145
166 145 150
166 167 149
158 167 166
161 173 166
166 150 172
166 172 161
158 168 167
158 169 168
158 170 169
179 169 170
158 171 170
179 170 163
174 179 178
164 178 179
179 163 164
165 164 163
165 163 160
164 183 178
174 178 177
174 177 176
176 175 174
180 174 175
180 175 182
182 181 180
160 159 158
160 158 157
165 160 157
165 157 162
165 162 161
148 147 146
152 156 155
152 155 154
154 153 152
187 185 184
187 186 185
191 189 188
191 190 189
195 193 192
195 194 193
199 197 196
199 198 197
203 201 200
203 202 201
207 205 204
207 206 205
211 209 208
211 210 209
215 213 212
215 214 213
219 217 216
219 218 217
223 221 220
223 222 221
227 225 224
227 226 225
228 232 231
228 231 230
230 229 228
233 238 237
233 237 236
233 236 235
235 234 233
239 246 245
239 245 244
239 244 243
239 243 242
239 242 241
241 240 239
250 248 247
250 249 248
251 256 255
251 255 254
251 254 253
253 252 251
260 258 257
260 259 258
264 262 261
264 263 262
269 266 265
269 268 267
269 267 266
270 276 275
270 275 274
270 274 273
270 273 272
272 271 270
277 281 280
280 278 277
280 279 278
282 286 285
282 285 284
284 283 282
290 288 287
290 289 288
291 295 294
291 294 293
293 292 291
299 297 296
299 298 297
303 301 300
303 302 301
307 305 304
307 306 305
308 315 314
308 314 313
308 313 312
308 312 311
308 311 310
310 309 308
319 317 316
316 323 322
316 322 321
316 321 320
320 319 316
319 318 317
327 325 324
324 330 329
324 329 328
328 327 324
327 326 325
334 332 331
334 333 332
342 336 335
342 337 336
344 343 336
344 336 337
342 338 337
342 339 338
342 341 340
342 340 339
348 346 345
348 347 346
352 350 349
352 351 350
356 354 353
356 355 354
357 361 360
357 360 359
359 358 357
362 365 361
362 361 364
362 368 367
362 367 366
362 366 365
364 363 362
382 384 358
382 358 372
372 383 382
369 373 372
369 372 371
371 370 369
374 381 380
380 375 374
380 379 378
380 378 377
380 377 376
380 376 375
385 389 388
385 388 387
387 386 385
385 386 393
385 393 392
385 392 391
391 390 385
395 392 393
395 394 392
396 394 395
395 397 396
396 398 394
396 399 398
391 477 390
391 478 477
407 401 400
407 402 401
407 406 405
407 405 404
407 404 403
407 403 402
416 409 408
417 416 408
416 410 409
420 409 419
416 411 410
426 410 411
416 412 411
426 411 434
421 419 426
421 426 425
434 425 426
420 419 418
421 418 419
425 422 421
432 433 421
421 422 431
421 431 432
425 424 423
425 423 422
423 424 429
423 429 430
427 430 429
429 428 427
427 431 430
427 432 431
427 428 467
427 467 468
468 476 427
467 472 471
467 471 470
467 470 469
469 468 467
473 471 472
472 474 473
473 475 471
416 413 412
416 415 414
416 414 413
438 436 435
438 437 436
442 440 439
442 441 440
446 444 443
446 445 444
450 448 447
450 449 448
454 452 451
454 453 452
458 456 455
458 457 456
462 460 459
462 461 460
466 464 463
466 465 464
480 479 486
485 481 480
486 485 480
485 484 483
485 483 482
485 482 481
487 492 491
487 491 490
487 490 489
489 488 487
497 494 493
497 496 495
497 495 494
503 495 496
503 496 501
503 502 495
498 504 503
503 501 500
503 500 499
503 499 498
505 508 502
505 502 507
507 506 505
509 516 515
509 515 514
509 514 513
509 513 512
509 512 511
511 510 509
520 518 517
520 519 518
