VertexCount: 4
-21.621750 -2.057399 -9.753600 1.000000 0.000000 0.000000 0.000000 -0.000000 1.000000 -9.991667 2.000000 0 0 0 0 0.000000 0.000000 0.000000 0.000000
-21.621750 -2.781298 -9.753600 1.000000 0.000000 0.000000 0.000000 -0.000000 1.000000 -9.991667 2.989583 0 0 0 0 0.000000 0.000000 0.000000 0.000000
-21.621750 -2.781298 -8.839200 1.000000 0.000000 0.000000 0.000000 0.000000 1.000000 -8.991667 2.989583 0 0 0 0 0.000000 0.000000 0.000000 0.000000
-21.621750 -2.057399 -8.839200 1.000000 0.000000 0.000000 0.000000 -0.000000 1.000000 -8.991667 2.000000 0 0 0 0 0.000000 0.000000 0.000000 0.000000
IndexCount: 6
3 2 1
3 1 0