VertexCount: 56
-10.629901 -4.114802 7.619998 -0.000000 -0.000000 1.000000 1.000000 0.000000 0.000000 -5.645833 1.812500 0 0 0 0 0.000000 0.000000 0.000000 0.000000
-10.629901 -2.133602 7.619998 -0.000000 -0.000000 1.000000 1.000000 0.000000 0.000000 -5.645833 1.000000 0 0 0 0 0.000000 0.000000 0.000000 0.000000
-10.020300 -2.133602 7.619998 -0.000000 -0.000000 1.000000 1.000000 0.000000 0.000000 -5.312500 1.000000 0 0 0 0 0.000000 0.000000 0.000000 0.000000
-9.448800 -2.133602 7.619998 -0.000000 -0.000000 1.000000 1.000000 -0.000000 0.000000 -5.000000 1.000000 0 0 0 0 0.000000 0.000000 0.000000 0.000000
-9.448800 -4.114802 7.619998 -0.000000 -0.000000 1.000000 1.000000 0.000000 0.000000 -5.000000 1.812500 0 0 0 0 0.000000 0.000000 0.000000 0.000000
-10.629900 -4.114801 4.267199 -0.000000 -0.000000 1.000000 1.000000 0.000000 0.000000 -5.645833 1.812500 0 0 0 0 0.000000 0.000000 0.000000 0.000000
-10.629900 -2.133602 4.267199 -0.000000 -0.000000 1.000000 1.000000 0.000000 0.000000 -5.645833 1.000000 0 0 0 0 0.000000 0.000000 0.000000 0.000000
-10.020300 -2.133601 4.267199 -0.000000 -0.000000 1.000000 1.000000 0.000000 0.000000 -5.312500 1.000000 0 0 0 0 0.000000 0.000000 0.000000 0.000000
-9.448800 -2.133601 4.267199 -0.000000 -0.000000 1.000000 1.000000 -0.000000 0.000000 -5.000000 1.000000 0 0 0 0 0.000000 0.000000 0.000000 0.000000
-9.448800 -4.114801 4.267199 -0.000000 -0.000000 1.000000 1.000000 -0.000000 0.000000 -5.000000 1.812500 0 0 0 0 0.000000 0.000000 0.000000 0.000000
-11.277601 -4.114802 7.619998 -0.000000 -0.000000 1.000000 1.000000 -0.000000 0.000000 -6.000000 1.812500 0 0 0 0 0.000000 0.000000 0.000000 0.000000
-11.277601 -2.133602 7.619998 -0.000000 -0.000000 1.000000 1.000000 -0.000000 0.000000 -6.000000 1.000000 0 0 0 0 0.000000 0.000000 0.000000 0.000000
-10.706102 -2.133602 7.619998 -0.000000 -0.000000 1.000000 1.000000 -0.000000 0.000000 -5.687500 1.000000 0 0 0 0 0.000000 0.000000 0.000000 0.000000
-15.240001 -4.114802 7.619998 -0.000000 -0.000000 1.000000 1.000000 -0.000000 0.000000 -8.000000 1.812500 0 0 0 0 0.000000 0.000000 0.000000 0.000000
-15.240001 -2.133603 7.619998 -0.000000 -0.000000 1.000000 1.000000 -0.000000 0.000000 -8.000000 1.000000 0 0 0 0 0.000000 0.000000 0.000000 0.000000
-14.668501 -2.133603 7.619998 -0.000000 -0.000000 1.000000 1.000000 -0.000000 0.000000 -7.687500 1.000000 0 0 0 0 0.000000 0.000000 0.000000 0.000000
-13.982701 -2.133602 7.619998 -0.000000 -0.000000 1.000000 1.000000 -0.000000 0.000000 -7.312500 1.000000 0 0 0 0 0.000000 0.000000 0.000000 0.000000
-13.411201 -2.133602 7.619998 -0.000000 -0.000000 1.000000 1.000000 -0.000000 0.000000 -7.000000 1.000000 0 0 0 0 0.000000 0.000000 0.000000 0.000000
-13.411201 -4.114802 7.619998 -0.000000 -0.000000 1.000000 1.000000 -0.000000 0.000000 -7.000000 1.812500 0 0 0 0 0.000000 0.000000 0.000000 0.000000
-13.411201 -4.114802 7.010398 0.000000 0.000000 -1.000000 1.000000 -0.000000 0.000000 -7.000000 1.812500 0 0 0 0 0.000000 0.000000 0.000000 0.000000
-13.411201 -2.133602 7.010398 0.000000 0.000000 -1.000000 1.000000 -0.000000 0.000000 -7.000000 1.000000 0 0 0 0 0.000000 0.000000 0.000000 0.000000
-13.982701 -2.133602 7.010398 0.000000 0.000000 -1.000000 1.000000 -0.000000 0.000000 -7.312500 1.000000 0 0 0 0 0.000000 0.000000 0.000000 0.000000
-14.668501 -2.133602 7.010398 0.000000 0.000000 -1.000000 1.000000 0.000000 0.000000 -7.687500 1.000000 0 0 0 0 0.000000 0.000000 0.000000 0.000000
-15.240001 -2.133602 7.010398 0.000000 0.000000 -1.000000 1.000000 -0.000000 0.000000 -8.000000 1.000000 0 0 0 0 0.000000 0.000000 0.000000 0.000000
-15.240001 -4.114802 7.010398 0.000000 0.000000 -1.000000 1.000000 -0.000000 0.000000 -8.000000 1.812500 0 0 0 0 0.000000 0.000000 0.000000 0.000000
-13.258800 -4.572002 3.657598 -1.000000 -0.000000 -0.000000 -0.000000 -0.000000 1.000000 1.416667 2.000000 0 0 0 0 0.000000 0.000000 0.000000 0.000000
-13.258800 -4.114802 3.657598 -1.000000 -0.000000 -0.000000 -0.000000 -0.000000 1.000000 1.416667 1.812500 0 0 0 0 0.000000 0.000000 0.000000 0.000000
-13.258800 -4.114802 4.267198 -1.000000 -0.000000 -0.000000 -0.000000 -0.000000 1.000000 1.750000 1.812500 0 0 0 0 0.000000 0.000000 0.000000 0.000000
-13.258800 -4.572002 4.267198 -1.000000 -0.000000 -0.000000 -0.000000 -0.000000 1.000000 1.750000 2.000000 0 0 0 0 0.000000 0.000000 0.000000 0.000000
-11.429999 -4.572002 4.267199 1.000000 0.000000 0.000000 -0.000000 -0.000001 1.000000 1.750000 2.000000 0 0 0 0 0.000000 0.000000 0.000000 0.000000
-11.429999 -4.114802 4.267199 1.000000 0.000000 0.000000 -0.000000 -0.000001 1.000000 1.750000 1.812500 0 0 0 0 0.000000 0.000000 0.000000 0.000000
-11.429999 -4.114801 3.657598 1.000000 0.000000 0.000000 -0.000000 -0.000001 1.000000 1.416667 1.812500 0 0 0 0 0.000000 0.000000 0.000000 0.000000
-11.429999 -4.572001 3.657598 1.000000 0.000000 0.000000 -0.000000 -0.000001 1.000000 1.416667 2.000000 0 0 0 0 0.000000 0.000000 0.000000 0.000000
-11.277600 -4.114802 4.267199 -0.000000 -0.000000 1.000000 1.000000 0.000000 0.000000 -6.000000 1.812500 0 0 0 0 0.000000 0.000000 0.000000 0.000000
-11.277600 -2.133602 4.267199 -0.000000 -0.000000 1.000000 1.000000 0.000000 0.000000 -6.000000 1.000000 0 0 0 0 0.000000 0.000000 0.000000 0.000000
-10.706100 -2.133602 4.267199 -0.000000 -0.000000 1.000000 1.000000 -0.000000 0.000000 -5.687500 1.000000 0 0 0 0 0.000000 0.000000 0.000000 0.000000
-11.277600 -4.572001 3.657598 -1.000000 -0.000000 -0.000000 -0.000000 -0.000001 1.000000 1.333333 2.000000 0 0 0 0 0.000000 0.000000 0.000000 0.000000
-11.277600 -4.114801 3.657598 -1.000000 -0.000000 -0.000000 -0.000000 -0.000001 1.000000 1.333333 1.812500 0 0 0 0 0.000000 0.000000 0.000000 0.000000
-11.277600 -4.114802 4.267199 -1.000000 -0.000000 -0.000000 -0.000000 -0.000001 1.000000 1.666667 1.812500 0 0 0 0 0.000000 0.000000 0.000000 0.000000
-11.277600 -4.572002 4.267199 -1.000000 -0.000000 -0.000000 -0.000000 -0.000001 1.000000 1.666667 2.000000 0 0 0 0 0.000000 0.000000 0.000000 0.000000
-11.429999 -4.114801 3.657598 0.000000 0.000000 -1.000000 1.000000 0.000000 0.000000 -6.000000 1.812500 0 0 0 0 0.000000 0.000000 0.000000 0.000000
-11.429999 -2.133601 3.657598 0.000000 0.000000 -1.000000 1.000000 0.000000 0.000000 -6.000000 1.000000 0 0 0 0 0.000000 0.000000 0.000000 0.000000
-12.001500 -2.133602 3.657598 0.000000 0.000000 -1.000000 1.000000 0.000000 0.000000 -6.312500 1.000000 0 0 0 0 0.000000 0.000000 0.000000 0.000000
-12.687300 -2.133602 3.657598 0.000000 0.000000 -1.000000 1.000000 0.000000 0.000000 -6.687500 1.000000 0 0 0 0 0.000000 0.000000 0.000000 0.000000
-13.258800 -2.133602 3.657598 0.000000 0.000000 -1.000000 1.000000 0.000000 0.000000 -7.000000 1.000000 0 0 0 0 0.000000 0.000000 0.000000 0.000000
-13.258800 -4.114802 3.657598 0.000000 0.000000 -1.000000 1.000000 0.000000 0.000000 -7.000000 1.812500 0 0 0 0 0.000000 0.000000 0.000000 0.000000
-15.240000 -4.114802 4.267198 -0.000000 -0.000000 1.000000 1.000000 -0.000000 0.000000 -8.000000 1.812500 0 0 0 0 0.000000 0.000000 0.000000 0.000000
-15.240000 -2.133602 4.267199 -0.000000 -0.000000 1.000000 1.000000 -0.000000 0.000000 -8.000000 1.000000 0 0 0 0 0.000000 0.000000 0.000000 0.000000
-14.668499 -2.133602 4.267199 -0.000000 -0.000000 1.000000 1.000000 -0.000000 0.000000 -7.687500 1.000000 0 0 0 0 0.000000 0.000000 0.000000 0.000000
-13.982700 -2.133602 4.267199 -0.000000 -0.000000 1.000000 1.000000 -0.000000 0.000000 -7.312500 1.000000 0 0 0 0 0.000000 0.000000 0.000000 0.000000
-13.411200 -2.133602 4.267199 -0.000000 -0.000000 1.000000 1.000000 0.000000 0.000000 -7.000000 1.000000 0 0 0 0 0.000000 0.000000 0.000000 0.000000
-13.411200 -4.114802 4.267198 -0.000000 -0.000000 1.000000 1.000000 0.000000 0.000000 -7.000000 1.812500 0 0 0 0 0.000000 0.000000 0.000000 0.000000
-13.411200 -4.572002 4.267198 1.000000 0.000000 0.000000 -0.000000 -0.000000 1.000000 1.833333 2.000000 0 0 0 0 0.000000 0.000000 0.000000 0.000000
-13.411200 -4.114802 4.267198 1.000000 0.000000 0.000000 -0.000000 -0.000000 1.000000 1.833333 1.812500 0 0 0 0 0.000000 0.000000 0.000000 0.000000
-13.411200 -4.114802 3.657598 1.000000 0.000000 0.000000 -0.000000 -0.000000 1.000000 1.500000 1.812500 0 0 0 0 0.000000 0.000000 0.000000 0.000000
-13.411200 -4.572002 3.657598 1.000000 0.000000 0.000000 -0.000000 -0.000000 1.000000 1.500000 2.000000 0 0 0 0 0.000000 0.000000 0.000000 0.000000
IndexCount: 108
0 4 3
0 3 2
2 1 0
0 1 12
0 12 11
11 10 0
5 9 8
5 8 7
7 6 5
5 6 35
5 35 34
34 33 5
13 18 17
13 17 16
13 16 15
15 14 13
19 24 23
19 23 22
19 22 21
21 20 19
28 26 25
28 27 26
32 30 29
32 31 30
39 37 36
39 38 37
40 45 44
40 44 43
40 43 42
42 41 40
46 51 50
46 50 49
46 49 48
48 47 46
55 53 52
55 54 53
