VertexCount: 194
-10.629901 -1.905003 11.125198 -0.000000 1.000000 0.000000 -1.000000 -0.000000 0.000000 -11.500000 -4.437500 0 0 0 0 0.000000 0.000000 0.000000 0.000000
-9.601201 -1.905003 11.125198 -0.000000 1.000000 0.000000 -1.000000 -0.000000 0.000000 -10.375000 -4.437500 0 0 0 0 0.000000 0.000000 0.000000 0.000000
-9.448801 -1.905003 11.125198 -0.000000 1.000000 0.000000 -1.000000 -0.000000 0.000000 -10.208333 -4.437500 0 0 0 0 0.000000 0.000000 0.000000 0.000000
-9.448801 -1.905003 11.582398 -0.000000 1.000000 0.000000 1.000000 0.000000 -0.000000 -10.208333 -4.625000 0 0 0 0 0.000000 0.000000 0.000000 0.000000
-10.629901 -1.905003 11.582398 -0.000000 1.000000 0.000000 1.000000 0.000000 0.000000 -11.500000 -4.625000 0 0 0 0 0.000000 0.000000 0.000000 0.000000
-5.943601 -1.905002 7.296148 -0.000000 1.000000 0.000000 1.000000 0.000000 0.000000 -6.375000 -2.867188 0 0 0 0 0.000000 0.000000 0.000000 0.000000
-5.791201 -1.905002 7.296148 -0.000000 1.000000 0.000000 1.000000 -0.000000 -0.000000 -6.208333 -2.867188 0 0 0 0 0.000000 0.000000 0.000000 0.000000
-5.791201 -1.905002 7.619998 -0.000000 1.000000 0.000000 1.000000 0.000000 0.000000 -6.208333 -3.000000 0 0 0 0 0.000000 0.000000 0.000000 0.000000
-5.943601 -1.905002 7.619998 -0.000000 1.000000 0.000000 1.000000 0.000000 -0.000000 -6.375000 -3.000000 0 0 0 0 0.000000 0.000000 0.000000 0.000000
-5.943601 -1.905002 7.467599 -0.000000 1.000000 0.000000 -0.000000 -0.000000 1.000000 -6.375000 -2.937500 0 0 0 0 0.000000 0.000000 0.000000 0.000000
-9.601200 -4.114803 10.820397 -1.000000 -0.000000 -0.000000 -0.000000 -0.000000 1.000000 11.958333 1.812500 0 0 0 0 0.000000 0.000000 0.000000 0.000000
-9.601200 -4.114803 11.582397 -1.000000 -0.000000 -0.000000 -0.000000 -0.000000 1.000000 12.791667 1.812500 0 0 0 0 0.000000 0.000000 0.000000 0.000000
-9.601200 -4.572003 11.582397 -1.000000 -0.000000 -0.000000 -0.000000 -0.000000 1.000000 12.791667 2.000000 0 0 0 0 0.000000 0.000000 0.000000 0.000000
-9.601200 -4.572003 10.820397 -1.000000 -0.000000 -0.000000 -0.000000 -0.000000 1.000000 11.958333 2.000000 0 0 0 0 0.000000 0.000000 0.000000 0.000000
-9.601200 -4.114802 10.667997 -1.000000 -0.000000 -0.000000 -0.000000 -0.000000 1.000000 11.791667 1.812500 0 0 0 0 0.000000 0.000000 0.000000 0.000000
-9.601200 -3.962402 10.667997 -1.000000 -0.000000 -0.000000 -0.000000 -0.000001 1.000000 11.791667 1.750000 0 0 0 0 0.000000 0.000000 0.000000 0.000000
-9.601200 -3.962403 11.125197 -1.000000 -0.000000 -0.000000 -0.000000 -0.000001 1.000000 12.291667 1.750000 0 0 0 0 0.000000 0.000000 0.000000 0.000000
-9.601200 -3.962403 11.277597 -1.000000 -0.000000 -0.000000 -0.000000 -0.000000 1.000000 12.458333 1.750000 0 0 0 0 0.000000 0.000000 0.000000 0.000000
-9.601200 -3.962403 11.582397 -1.000000 -0.000000 -0.000000 -0.000000 -0.000000 1.000000 12.791667 1.750000 0 0 0 0 0.000000 0.000000 0.000000 0.000000
-9.601200 -4.114803 10.820397 -1.000000 -0.000000 -0.000000 -0.000000 -0.000000 1.000000 11.958333 1.812500 0 0 0 0 0.000000 0.000000 0.000000 0.000000
-9.601201 -2.209803 11.277598 -1.000000 -0.000000 -0.000000 -0.000000 -0.000000 1.000000 12.458333 1.031250 0 0 0 0 0.000000 0.000000 0.000000 0.000000
-9.601201 -2.209803 11.582398 -1.000000 -0.000000 -0.000000 -0.000000 -0.000000 1.000000 12.791667 1.031250 0 0 0 0 0.000000 0.000000 0.000000 0.000000
-9.601200 -4.114802 10.210798 -1.000000 -0.000000 -0.000000 -0.000000 0.000000 1.000000 11.291667 1.812500 0 0 0 0 0.000000 0.000000 0.000000 0.000000
-9.601200 -4.572002 10.667997 -1.000000 -0.000000 -0.000000 -0.000000 0.000000 1.000000 11.791667 2.000000 0 0 0 0 0.000000 0.000000 0.000000 0.000000
-9.601200 -4.572002 10.210798 -1.000000 -0.000000 -0.000000 -0.000000 0.000000 1.000000 11.291667 2.000000 0 0 0 0 0.000000 0.000000 0.000000 0.000000
-9.448800 -3.962402 10.210798 0.000000 0.000000 -1.000000 1.000000 -0.000000 0.000000 -10.208333 1.750000 0 0 0 0 0.000000 0.000000 0.000000 0.000000
-9.601200 -3.962402 10.210798 0.000000 0.000000 -1.000000 1.000000 -0.000000 0.000000 -10.375000 1.750000 0 0 0 0 0.000000 0.000000 0.000000 0.000000
-9.601200 -4.114802 10.210798 0.000000 0.000000 -1.000000 1.000000 -0.000000 0.000000 -10.375000 1.812500 0 0 0 0 0.000000 0.000000 0.000000 0.000000
-9.601200 -4.572002 10.210798 0.000000 0.000000 -1.000000 1.000000 0.000001 0.000000 -10.375000 2.000000 0 0 0 0 0.000000 0.000000 0.000000 0.000000
-9.448800 -4.572002 10.210798 0.000000 0.000000 -1.000000 1.000000 -0.000000 0.000000 -10.208333 2.000000 0 0 0 0 0.000000 0.000000 0.000000 0.000000
-9.448800 -3.962402 10.210798 1.000000 0.000000 0.000000 -0.000000 -0.000000 1.000000 11.291667 1.750000 0 0 0 0 0.000000 0.000000 0.000000 0.000000
-9.448800 -4.572002 10.210798 1.000000 0.000000 0.000000 -0.000000 -0.000000 1.000000 11.291667 2.000000 0 0 0 0 0.000000 0.000000 0.000000 0.000000
-9.448800 -4.572002 10.667997 1.000000 0.000000 0.000000 -0.000000 -0.000000 1.000000 11.791667 2.000000 0 0 0 0 0.000000 0.000000 0.000000 0.000000
-9.448800 -3.810002 10.667997 1.000000 0.000000 0.000000 -0.000000 -0.000000 1.000000 11.791667 1.687500 0 0 0 0 0.000000 0.000000 0.000000 0.000000
-9.448801 -3.352803 11.125198 1.000000 0.000000 0.000000 -0.000000 -0.000001 1.000000 12.291667 1.500000 0 0 0 0 0.000000 0.000000 0.000000 0.000000
-9.448800 -4.572003 11.582397 1.000000 0.000000 0.000000 -0.000000 -0.000000 1.000000 12.791667 2.000000 0 0 0 0 0.000000 0.000000 0.000000 0.000000
-9.448801 -3.352803 11.582398 1.000000 0.000000 0.000000 -0.000000 -0.000000 1.000000 12.791667 1.500000 0 0 0 0 0.000000 0.000000 0.000000 0.000000
-9.448801 -1.905003 11.582398 1.000000 0.000000 0.000000 -0.000000 -0.000000 1.000000 12.791667 0.906250 0 0 0 0 0.000000 0.000000 0.000000 0.000000
-9.448801 -1.905003 11.125198 1.000000 0.000000 0.000000 -0.000000 -0.000000 1.000000 12.291667 0.906250 0 0 0 0 0.000000 0.000000 0.000000 0.000000
-9.448801 -1.905003 11.125198 0.000000 0.000000 -1.000000 1.000000 -0.000000 0.000000 -10.208333 0.906250 0 0 0 0 0.000000 0.000000 0.000000 0.000000
-9.601201 -1.905003 11.125198 0.000000 0.000000 -1.000000 1.000000 0.000000 0.000000 -10.375000 0.906250 0 0 0 0 0.000000 0.000000 0.000000 0.000000
-9.601201 -2.209802 11.125198 0.000000 0.000000 -1.000000 1.000000 0.000000 0.000000 -10.375000 1.031250 0 0 0 0 0.000000 0.000000 0.000000 0.000000
-9.601201 -2.743203 11.125198 0.000000 0.000000 -1.000000 1.000000 -0.000001 0.000000 -10.375000 1.250000 0 0 0 0 0.000000 0.000000 0.000000 0.000000
-9.601201 -3.352803 11.125198 0.000000 0.000000 -1.000000 1.000000 0.000002 0.000000 -10.375000 1.500000 0 0 0 0 0.000000 0.000000 0.000000 0.000000
-9.448801 -3.352803 11.125198 0.000000 0.000000 -1.000000 1.000000 -0.000000 0.000000 -10.208333 1.500000 0 0 0 0 0.000000 0.000000 0.000000 0.000000
-9.601200 -4.114802 10.667997 0.000000 0.000000 -1.000000 1.000000 0.000000 0.000000 -10.375000 1.812500 0 0 0 0 0.000000 0.000000 0.000000 0.000000
-10.629901 -4.114803 10.667997 0.000000 0.000000 -1.000000 1.000000 0.000000 0.000000 -11.500000 1.812500 0 0 0 0 0.000000 0.000000 0.000000 0.000000
-10.629901 -4.572003 10.667997 0.000000 0.000000 -1.000000 1.000000 0.000000 0.000000 -11.500000 2.000000 0 0 0 0 0.000000 0.000000 0.000000 0.000000
-9.601200 -4.572002 10.667997 0.000000 0.000000 -1.000000 1.000000 0.000000 0.000000 -10.375000 2.000000 0 0 0 0 0.000000 0.000000 0.000000 0.000000
-9.601201 -2.209803 11.277598 0.000000 -1.000000 -0.000000 1.000000 0.000000 0.000000 -10.375000 -4.500000 0 0 0 0 0.000000 0.000000 0.000000 0.000000
-10.629901 -2.209803 11.277598 0.000000 -1.000000 -0.000000 1.000000 0.000000 0.000000 -11.500000 -4.500000 0 0 0 0 0.000000 0.000000 0.000000 0.000000
-10.629901 -2.209803 11.582398 0.000000 -1.000000 -0.000000 1.000000 0.000000 0.000000 -11.500000 -4.625000 0 0 0 0 0.000000 0.000000 0.000000 0.000000
-9.601201 -2.209803 11.582398 0.000000 -1.000000 -0.000000 1.000000 0.000000 0.000000 -10.375000 -4.625000 0 0 0 0 0.000000 0.000000 0.000000 0.000000
-10.629901 -1.905003 11.125198 0.000000 0.000000 -1.000000 1.000000 0.000000 0.000000 -11.500000 0.906250 0 0 0 0 0.000000 0.000000 0.000000 0.000000
-10.629901 -2.209803 11.125198 0.000000 0.000000 -1.000000 1.000000 0.000000 0.000000 -11.500000 1.031250 0 0 0 0 0.000000 0.000000 0.000000 0.000000
-6.858000 -3.962402 7.467599 -1.000000 -0.000000 -0.000000 -0.000000 -0.000000 1.000000 8.291667 1.750000 0 0 0 0 0.000000 0.000000 0.000000 0.000000
-6.858000 -3.962402 7.619998 -1.000000 -0.000000 -0.000000 -0.000000 -0.000000 1.000000 8.458333 1.750000 0 0 0 0 0.000000 0.000000 0.000000 0.000000
-6.858000 -4.572002 7.619998 -1.000000 -0.000000 -0.000000 -0.000000 -0.000000 1.000000 8.458333 2.000000 0 0 0 0 0.000000 0.000000 0.000000 0.000000
-6.858000 -4.572002 7.467599 -1.000000 -0.000000 -0.000000 -0.000000 -0.000000 1.000000 8.291667 2.000000 0 0 0 0 0.000000 0.000000 0.000000 0.000000
-6.858000 -4.038601 7.467599 -1.000000 -0.000000 -0.000000 0.000000 -1.000000 0.000000 8.291667 1.781250 0 0 0 0 0.000000 0.000000 0.000000 0.000000
-6.400800 -4.038601 7.296148 -1.000000 -0.000000 -0.000000 -0.000000 -0.000000 1.000000 8.104167 1.781250 0 0 0 0 0.000000 0.000000 0.000000 0.000000
-6.400800 -4.038601 7.467599 -1.000000 -0.000000 -0.000000 -0.000000 -0.000000 1.000000 8.291667 1.781250 0 0 0 0 0.000000 0.000000 0.000000 0.000000
-6.400800 -4.572002 7.467599 -1.000000 -0.000000 -0.000000 -0.000000 -0.000000 1.000000 8.291667 2.000000 0 0 0 0 0.000000 0.000000 0.000000 0.000000
-6.400800 -4.572002 7.296148 -1.000000 -0.000000 -0.000000 -0.000000 -0.000000 1.000000 8.104167 2.000000 0 0 0 0 0.000000 0.000000 0.000000 0.000000
-6.248400 -3.962402 7.467599 0.000000 0.000001 -1.000000 1.000000 -0.000000 0.000000 -6.708333 1.750000 0 0 0 0 0.000000 0.000000 0.000000 0.000000
-6.248400 -4.572002 7.467599 0.000000 0.000001 -1.000000 1.000000 -0.000000 0.000000 -6.708333 2.000000 0 0 0 0 0.000000 0.000000 0.000000 0.000000
-5.791200 -4.572002 7.467599 0.000000 0.000001 -1.000000 1.000000 -0.000000 0.000000 -6.208333 2.000000 0 0 0 0 0.000000 0.000000 0.000000 0.000000
-5.791200 -3.962402 7.467599 0.000000 0.000001 -1.000000 1.000000 -0.000000 0.000000 -6.208333 1.750000 0 0 0 0 0.000000 0.000000 0.000000 0.000000
-5.943600 -3.962402 7.467599 0.000000 0.000001 -1.000000 1.000000 -0.000000 0.000000 -6.375000 1.750000 0 0 0 0 0.000000 0.000000 0.000000 0.000000
-6.400800 -3.810002 7.619998 -0.000000 -0.000000 1.000000 1.000000 -0.000000 0.000000 -6.875000 1.687500 0 0 0 0 0.000000 0.000000 0.000000 0.000000
-5.943601 -3.352802 7.619998 -0.000000 -0.000000 1.000000 1.000000 0.000000 0.000000 -6.375000 1.500000 0 0 0 0 0.000000 0.000000 0.000000 0.000000
-5.791201 -3.352802 7.619998 -0.000000 -0.000000 1.000000 1.000000 -0.000000 0.000000 -6.208333 1.500000 0 0 0 0 0.000000 0.000000 0.000000 0.000000
-5.791200 -4.572002 7.619998 -0.000000 -0.000000 1.000000 1.000000 -0.000000 0.000000 -6.208333 2.000000 0 0 0 0 0.000000 0.000000 0.000000 0.000000
-6.400800 -4.572002 7.619998 -0.000000 -0.000000 1.000000 1.000000 -0.000000 0.000000 -6.875000 2.000000 0 0 0 0 0.000000 0.000000 0.000000 0.000000
-5.943601 -1.905002 7.619998 -0.000000 -0.000000 1.000000 1.000000 0.000001 0.000000 -6.375000 0.906250 0 0 0 0 0.000000 0.000000 0.000000 0.000000
-5.791201 -1.905002 7.619998 -0.000000 -0.000000 1.000000 1.000000 0.000001 0.000000 -6.208333 0.906250 0 0 0 0 0.000000 0.000000 0.000000 0.000000
-5.943601 -1.905002 7.467599 -1.000000 -0.000000 -0.000002 -0.000002 -0.000001 1.000000 8.291667 0.906250 0 0 0 0 0.000000 0.000000 0.000000 0.000000
-5.943601 -1.905002 7.619998 -1.000000 -0.000000 -0.000002 -0.000002 -0.000001 1.000000 8.458333 0.906250 0 0 0 0 0.000000 0.000000 0.000000 0.000000
-5.943601 -3.352802 7.619998 -1.000000 -0.000000 -0.000002 -0.000002 -0.000001 1.000000 8.458333 1.500000 0 0 0 0 0.000000 0.000000 0.000000 0.000000
-5.943601 -3.352802 7.467599 -1.000000 -0.000000 -0.000002 -0.000002 -0.000000 1.000000 8.291667 1.500000 0 0 0 0 0.000000 0.000000 0.000000 0.000000
-5.943601 -2.743202 7.467599 -1.000000 -0.000000 -0.000002 0.000000 -1.000000 0.000000 8.291667 1.250000 0 0 0 0 0.000000 0.000000 0.000000 0.000000
-5.943601 -2.209802 7.467599 -1.000000 -0.000000 -0.000002 0.000000 -1.000000 0.000000 8.291667 1.031250 0 0 0 0 0.000000 0.000000 0.000000 0.000000
-5.943601 -1.905002 7.296148 -1.000000 -0.000000 -0.000000 -0.000000 -0.000000 1.000000 8.104167 0.906250 0 0 0 0 0.000000 0.000000 0.000000 0.000000
-5.943601 -2.209802 7.467599 -1.000000 -0.000000 -0.000000 -0.000000 -0.000000 1.000000 8.291667 1.031250 0 0 0 0 0.000000 0.000000 0.000000 0.000000
-5.943601 -2.209802 7.296148 -1.000000 -0.000000 -0.000000 -0.000000 -0.000000 1.000000 8.104167 1.031250 0 0 0 0 0.000000 0.000000 0.000000 0.000000
-6.248400 -3.962402 7.467599 1.000000 0.000000 0.000000 -0.000000 -0.000000 1.000000 8.291667 1.750000 0 0 0 0 0.000000 0.000000 0.000000 0.000000
-6.248400 -3.962402 7.296148 1.000000 0.000000 0.000000 -0.000000 -0.000000 1.000000 8.104167 1.750000 0 0 0 0 0.000000 0.000000 0.000000 0.000000
-6.248400 -4.572002 7.296148 1.000000 0.000000 0.000000 -0.000000 -0.000000 1.000000 8.104167 2.000000 0 0 0 0 0.000000 0.000000 0.000000 0.000000
-6.248400 -4.572002 7.467599 1.000000 0.000000 0.000000 -0.000000 -0.000000 1.000000 8.291667 2.000000 0 0 0 0 0.000000 0.000000 0.000000 0.000000
-6.858000 -4.038601 7.467599 0.000000 0.000000 -1.000000 1.000000 -0.000000 0.000000 -7.375000 1.781250 0 0 0 0 0.000000 0.000000 0.000000 0.000000
-6.858000 -4.572002 7.467599 0.000000 0.000000 -1.000000 1.000000 -0.000000 0.000000 -7.375000 2.000000 0 0 0 0 0.000000 0.000000 0.000000 0.000000
-6.400800 -4.572002 7.467599 0.000000 0.000000 -1.000000 1.000000 -0.000000 0.000000 -6.875000 2.000000 0 0 0 0 0.000000 0.000000 0.000000 0.000000
-6.400800 -4.038601 7.467599 0.000000 0.000000 -1.000000 1.000000 -0.000000 0.000000 -6.875000 1.781250 0 0 0 0 0.000000 0.000000 0.000000 0.000000
-6.858000 -3.962402 7.619998 -0.000000 -0.000000 1.000000 1.000000 -0.000000 0.000000 -7.375000 1.750000 0 0 0 0 0.000000 0.000000 0.000000 0.000000
-6.858000 -4.572002 7.619998 -0.000000 -0.000000 1.000000 1.000000 -0.000000 0.000000 -7.375000 2.000000 0 0 0 0 0.000000 0.000000 0.000000 0.000000
-5.943600 -3.352801 2.743199 0.000000 0.000000 -1.000000 1.000000 -0.000000 0.000000 -6.375000 1.500000 0 0 0 0 0.000000 0.000000 0.000000 0.000000
-6.400799 -3.810001 2.743199 0.000000 0.000000 -1.000000 1.000000 -0.000000 0.000000 -6.875000 1.687500 0 0 0 0 0.000000 0.000000 0.000000 0.000000
-6.400799 -4.572001 2.743199 0.000000 0.000000 -1.000000 1.000000 -0.000000 0.000000 -6.875000 2.000000 0 0 0 0 0.000000 0.000000 0.000000 0.000000
-5.791199 -4.572001 2.743199 0.000000 0.000000 -1.000000 1.000000 -0.000000 0.000000 -6.208333 2.000000 0 0 0 0 0.000000 0.000000 0.000000 0.000000
-5.791200 -3.352801 2.743199 0.000000 0.000000 -1.000000 1.000000 -0.000000 0.000000 -6.208333 1.500000 0 0 0 0 0.000000 0.000000 0.000000 0.000000
-5.791200 -1.905001 2.743199 0.000000 0.000000 -1.000000 1.000000 -0.000000 0.000000 -6.208333 0.906250 0 0 0 0 0.000000 0.000000 0.000000 0.000000
-5.943600 -1.905001 2.743199 0.000000 0.000000 -1.000000 1.000000 -0.000000 0.000000 -6.375000 0.906250 0 0 0 0 0.000000 0.000000 0.000000 0.000000
-6.858000 -3.962401 2.743199 0.000000 0.000000 -1.000000 1.000000 -0.000000 0.000000 -7.375000 1.750000 0 0 0 0 0.000000 0.000000 0.000000 0.000000
-6.858000 -4.572001 2.743199 0.000000 0.000000 -1.000000 1.000000 -0.000000 0.000000 -7.375000 2.000000 0 0 0 0 0.000000 0.000000 0.000000 0.000000
-5.943601 -1.905002 7.296148 0.000001 1.000000 0.000000 -0.000000 -0.000000 1.000000 -6.375000 -2.867188 0 0 0 0 0.000000 0.000000 0.000000 0.000000
-5.943600 -1.905001 2.895599 0.000001 1.000000 0.000000 -0.000000 -0.000000 1.000000 -6.375000 -1.062500 0 0 0 0 0.000000 0.000000 0.000000 0.000000
-5.943600 -1.905001 2.743199 0.000001 1.000000 0.000000 -0.000000 -0.000000 1.000000 -6.375000 -1.000000 0 0 0 0 0.000000 0.000000 0.000000 0.000000
-5.791200 -1.905001 2.743199 0.000001 1.000000 0.000000 1.000000 -0.000001 -0.000000 -6.208333 -1.000000 0 0 0 0 0.000000 0.000000 0.000000 0.000000
-5.791201 -1.905001 4.876799 0.000001 1.000000 0.000000 1.000000 -0.000001 0.000000 -6.208333 -1.875000 0 0 0 0 0.000000 0.000000 0.000000 0.000000
-6.248400 -3.962401 2.895599 -0.000000 -0.000000 1.000000 -1.000000 0.000000 -0.000000 -6.708333 1.750000 0 0 0 0 0.000000 0.000000 0.000000 0.000000
-5.943600 -3.962401 2.895599 -0.000000 -0.000000 1.000000 -1.000000 0.000000 -0.000000 -6.375000 1.750000 0 0 0 0 0.000000 0.000000 0.000000 0.000000
-5.791199 -3.962401 2.895599 -0.000000 -0.000000 1.000000 -1.000000 0.000000 -0.000000 -6.208333 1.750000 0 0 0 0 0.000000 0.000000 0.000000 0.000000
-5.791199 -4.572001 2.895599 -0.000000 -0.000000 1.000000 1.000000 -0.000000 0.000000 -6.208333 2.000000 0 0 0 0 0.000000 0.000000 0.000000 0.000000
-6.248400 -4.572001 2.895599 -0.000000 -0.000000 1.000000 1.000000 -0.000000 0.000000 -6.708333 2.000000 0 0 0 0 0.000000 0.000000 0.000000 0.000000
-6.858000 -4.038601 2.895599 -0.000000 -0.000000 1.000000 1.000000 0.000001 0.000000 -7.375000 1.781250 0 0 0 0 0.000000 0.000000 0.000000 0.000000
-6.400799 -4.038600 2.895599 -0.000000 -0.000000 1.000000 1.000000 0.000001 0.000000 -6.875000 1.781250 0 0 0 0 0.000000 0.000000 0.000000 0.000000
-6.400799 -4.572001 2.895599 -0.000000 -0.000000 1.000000 1.000000 0.000001 0.000000 -6.875000 2.000000 0 0 0 0 0.000000 0.000000 0.000000 0.000000
-6.858000 -4.572001 2.895599 -0.000000 -0.000000 1.000000 1.000000 0.000001 0.000000 -7.375000 2.000000 0 0 0 0 0.000000 0.000000 0.000000 0.000000
-5.943600 -1.905001 2.895599 -1.000000 -0.000000 -0.000000 0.000001 -0.000000 1.000000 3.291667 0.906250 0 0 0 0 0.000000 0.000000 0.000000 0.000000
-5.943601 -2.209801 5.882638 -1.000000 -0.000000 -0.000000 -0.000000 -0.000000 1.000000 6.558333 1.031250 0 0 0 0 0.000000 0.000000 0.000000 0.000000
-5.943600 -2.209801 2.895599 -1.000000 -0.000000 -0.000000 0.000001 -0.000000 1.000000 3.291667 1.031250 0 0 0 0 0.000000 0.000000 0.000000 0.000000
-6.248400 -3.962401 2.895599 1.000000 0.000000 0.000000 -0.000000 -0.000000 1.000000 3.291667 1.750000 0 0 0 0 0.000000 0.000000 0.000000 0.000000
-6.248400 -4.572001 2.895599 1.000000 0.000000 0.000000 -0.000000 -0.000000 1.000000 3.291667 2.000000 0 0 0 0 0.000000 0.000000 0.000000 0.000000
-6.400799 -4.038600 2.895599 -1.000000 -0.000000 -0.000000 -0.000000 -0.000000 1.000000 3.291667 1.781250 0 0 0 0 0.000000 0.000000 0.000000 0.000000
-6.400800 -4.572002 6.934199 -1.000000 -0.000000 -0.000000 -0.000000 -0.000000 1.000000 7.708333 2.000000 0 0 0 0 0.000000 0.000000 0.000000 0.000000
-6.400800 -4.572001 4.343399 -1.000000 -0.000000 -0.000000 -0.000000 -0.000000 1.000000 4.875000 2.000000 0 0 0 0 0.000000 0.000000 0.000000 0.000000
-6.400800 -4.572001 3.581399 -1.000000 -0.000000 -0.000000 -0.000000 -0.000000 1.000000 4.041667 2.000000 0 0 0 0 0.000000 0.000000 0.000000 0.000000
-6.400799 -4.572001 2.895599 -1.000000 -0.000000 -0.000000 -0.000000 -0.000000 1.000000 3.291667 2.000000 0 0 0 0 0.000000 0.000000 0.000000 0.000000
-6.858000 -3.962401 2.743199 -1.000000 -0.000000 -0.000000 -0.000000 -0.000002 1.000000 3.125000 1.750000 0 0 0 0 0.000000 0.000000 0.000000 0.000000
-6.858000 -3.962401 2.895599 -1.000000 -0.000000 -0.000000 -0.000000 -0.000002 1.000000 3.291667 1.750000 0 0 0 0 0.000000 0.000000 0.000000 0.000000
-6.858000 -4.038601 2.895599 -1.000000 -0.000000 -0.000000 -0.000000 -0.000002 1.000000 3.291667 1.781250 0 0 0 0 0.000000 0.000000 0.000000 0.000000
-6.858000 -4.572001 2.895599 -1.000000 -0.000000 -0.000000 -0.000000 -0.000001 1.000000 3.291667 2.000000 0 0 0 0 0.000000 0.000000 0.000000 0.000000
-6.858000 -4.572001 2.743199 -1.000000 -0.000000 -0.000000 -0.000000 -0.000002 1.000000 3.125000 2.000000 0 0 0 0 0.000000 0.000000 0.000000 0.000000
-5.943600 -1.905001 2.743199 -1.000000 -0.000000 0.000002 0.000002 0.000000 1.000000 3.125000 0.906250 0 0 0 0 0.000000 0.000000 0.000000 0.000000
-5.943600 -2.743201 2.895599 -1.000000 -0.000000 0.000002 0.000002 0.000001 1.000000 3.291667 1.250000 0 0 0 0 0.000000 0.000000 0.000000 0.000000
-5.943600 -3.352801 2.895599 -1.000000 -0.000000 0.000002 0.000002 -0.000001 1.000000 3.291667 1.500000 0 0 0 0 0.000000 0.000000 0.000000 0.000000
-5.943600 -3.352801 2.743199 -1.000000 -0.000000 0.000002 0.000002 0.000000 1.000000 3.125000 1.500000 0 0 0 0 0.000000 0.000000 0.000000 0.000000
-15.697201 -3.962403 10.210798 0.000000 0.000000 -1.000000 1.000000 -0.000000 0.000000 -17.041666 1.750000 0 0 0 0 0.000000 0.000000 0.000000 0.000000
-15.849601 -3.962403 10.210798 0.000000 0.000000 -1.000000 1.000000 -0.000000 0.000000 -17.208334 1.750000 0 0 0 0 0.000000 0.000000 0.000000 0.000000
-15.849601 -4.572003 10.210798 0.000000 0.000000 -1.000000 1.000000 -0.000000 0.000000 -17.208334 2.000000 0 0 0 0 0.000000 0.000000 0.000000 0.000000
-15.697201 -4.572003 10.210798 0.000000 0.000000 -1.000000 1.000000 -0.000000 0.000000 -17.041666 2.000000 0 0 0 0 0.000000 0.000000 0.000000 0.000000
-15.697201 -4.114803 10.210798 0.000000 0.000000 -1.000000 0.000000 -1.000000 -0.000000 -17.041666 1.812500 0 0 0 0 0.000000 0.000000 0.000000 0.000000
-11.430001 -4.114803 10.667997 0.000000 0.000000 -1.000000 1.000000 -0.000000 0.000000 -12.375000 1.812500 0 0 0 0 0.000000 0.000000 0.000000 0.000000
-11.430001 -4.572003 10.667997 0.000000 0.000000 -1.000000 1.000000 0.000000 0.000000 -12.375000 2.000000 0 0 0 0 0.000000 0.000000 0.000000 0.000000
-11.430001 -4.114803 10.667997 0.000000 0.000000 -1.000000 1.000000 0.000000 0.000000 -12.375000 1.812500 0 0 0 0 0.000000 0.000000 0.000000 0.000000
-13.487401 -4.114803 10.667997 0.000000 0.000000 -1.000000 1.000000 0.000000 0.000000 -14.625000 1.812500 0 0 0 0 0.000000 0.000000 0.000000 0.000000
-13.868402 -4.114803 10.667997 0.000000 0.000000 -1.000000 1.000000 -0.000000 0.000000 -15.041667 1.812500 0 0 0 0 0.000000 0.000000 0.000000 0.000000
-15.697201 -4.114803 10.667997 0.000000 0.000000 -1.000000 1.000000 0.000000 0.000000 -17.041666 1.812500 0 0 0 0 0.000000 0.000000 0.000000 0.000000
-15.697201 -4.572003 10.667997 0.000000 0.000000 -1.000000 1.000000 0.000000 0.000000 -17.041666 2.000000 0 0 0 0 0.000000 0.000000 0.000000 0.000000
-15.849601 -3.810003 10.667997 -1.000000 -0.000000 -0.000000 -0.000000 -0.000001 1.000000 11.791667 1.687500 0 0 0 0 0.000000 0.000000 0.000000 0.000000
-15.849601 -3.352803 11.125198 -1.000000 -0.000000 -0.000000 -0.000000 -0.000000 1.000000 12.291667 1.500000 0 0 0 0 0.000000 0.000000 0.000000 0.000000
-15.849601 -3.352803 11.582398 -1.000000 -0.000000 -0.000000 -0.000000 -0.000001 1.000000 12.791667 1.500000 0 0 0 0 0.000000 0.000000 0.000000 0.000000
-15.849601 -4.572003 11.582397 -1.000000 -0.000000 -0.000000 -0.000000 -0.000000 1.000000 12.791667 2.000000 0 0 0 0 0.000000 0.000000 0.000000 0.000000
-15.849601 -4.572003 10.667997 -1.000000 -0.000000 -0.000000 -0.000000 -0.000000 1.000000 11.791667 2.000000 0 0 0 0 0.000000 0.000000 0.000000 0.000000
-15.849601 -1.905003 11.125198 -1.000000 -0.000000 -0.000000 -0.000000 -0.000000 1.000000 12.291667 0.906250 0 0 0 0 0.000000 0.000000 0.000000 0.000000
-15.849601 -1.905003 11.582398 -1.000000 -0.000000 -0.000000 -0.000000 -0.000000 1.000000 12.791667 0.906250 0 0 0 0 0.000000 0.000000 0.000000 0.000000
-11.582401 -1.905003 11.125198 -0.000000 1.000000 0.000000 -1.000000 -0.000000 0.000000 -12.541667 -4.437500 0 0 0 0 0.000000 0.000000 0.000000 0.000000
-11.430001 -1.905003 11.125198 -0.000000 1.000000 0.000000 -1.000000 -0.000000 0.000000 -12.375000 -4.437500 0 0 0 0 0.000000 0.000000 0.000000 0.000000
-11.582401 -1.905003 11.582398 -0.000000 1.000000 0.000000 1.000000 0.000000 -0.000000 -12.541667 -4.625000 0 0 0 0 0.000000 0.000000 0.000000 0.000000
-11.582401 -1.905003 11.125198 -0.000000 1.000000 0.000000 1.000000 0.000000 0.000000 -12.541667 -4.437500 0 0 0 0 0.000000 0.000000 0.000000 0.000000
-15.849601 -1.905003 11.582398 -0.000000 1.000000 0.000000 1.000000 0.000000 0.000000 -17.208334 -4.625000 0 0 0 0 0.000000 0.000000 0.000000 0.000000
-15.849601 -1.905003 11.125198 -0.000000 1.000000 0.000000 1.000000 0.000000 0.000000 -17.208334 -4.437500 0 0 0 0 0.000000 0.000000 0.000000 0.000000
-15.697201 -1.905003 11.125198 -0.000000 1.000000 0.000000 -1.000000 -0.000000 -0.000000 -17.041666 -4.437500 0 0 0 0 0.000000 0.000000 0.000000 0.000000
-15.697201 -3.962403 11.277597 1.000000 0.000000 -0.000002 0.000001 -0.000000 1.000000 12.458333 1.750000 0 0 0 0 0.000000 0.000000 0.000000 0.000000
-15.697201 -3.962403 11.582397 1.000000 0.000000 -0.000002 0.000001 0.000000 1.000000 12.791667 1.750000 0 0 0 0 0.000000 0.000000 0.000000 0.000000
-15.697201 -2.209803 11.582398 1.000000 0.000000 -0.000002 0.000002 0.000001 1.000000 12.791667 1.031250 0 0 0 0 0.000000 0.000000 0.000000 0.000000
-15.697201 -2.209803 11.277598 1.000000 0.000000 -0.000002 0.000002 0.000000 1.000000 12.458333 1.031250 0 0 0 0 0.000000 0.000000 0.000000 0.000000
-15.697201 -2.743203 11.277598 1.000000 0.000000 -0.000002 0.000002 0.000000 1.000000 12.458333 1.250000 0 0 0 0 0.000000 0.000000 0.000000 0.000000
-15.697201 -3.962403 10.667997 1.000000 0.000000 0.000000 -0.000000 -0.000001 1.000000 11.791667 1.750000 0 0 0 0 0.000000 0.000000 0.000000 0.000000
-15.697201 -4.114803 10.667997 1.000000 0.000000 0.000000 -0.000000 -0.000000 1.000000 11.791667 1.812500 0 0 0 0 0.000000 0.000000 0.000000 0.000000
-15.697201 -4.114803 10.820397 1.000000 0.000000 0.000000 -0.000000 -0.000000 1.000000 11.958333 1.812500 0 0 0 0 0.000000 0.000000 0.000000 0.000000
-15.697201 -4.114803 11.582397 1.000000 0.000000 0.000000 -0.000000 -0.000000 1.000000 12.791667 1.812500 0 0 0 0 0.000000 0.000000 0.000000 0.000000
-15.697201 -3.962403 11.125197 1.000000 0.000000 0.000000 -0.000000 -0.000001 1.000000 12.291667 1.750000 0 0 0 0 0.000000 0.000000 0.000000 0.000000
-15.697201 -4.572003 10.820397 1.000000 0.000000 0.000000 -0.000000 -0.000000 1.000000 11.958333 2.000000 0 0 0 0 0.000000 0.000000 0.000000 0.000000
-15.697201 -4.572003 11.582397 1.000000 0.000000 0.000000 -0.000000 -0.000000 1.000000 12.791667 2.000000 0 0 0 0 0.000000 0.000000 0.000000 0.000000
-11.430001 -2.209803 11.277598 0.000000 -1.000000 -0.000000 1.000000 0.000000 -0.000000 -12.375000 -4.500000 0 0 0 0 0.000000 0.000000 0.000000 0.000000
-11.430001 -2.209803 11.582398 0.000000 -1.000000 -0.000000 1.000000 0.000000 -0.000000 -12.375000 -4.625000 0 0 0 0 0.000000 0.000000 0.000000 0.000000
-15.697201 -2.209803 11.277598 0.000000 -1.000000 -0.000000 1.000000 0.000000 0.000000 -17.041666 -4.500000 0 0 0 0 0.000000 0.000000 0.000000 0.000000
-15.697201 -2.209803 11.582398 0.000000 -1.000000 -0.000000 1.000000 0.000000 0.000000 -17.041666 -4.625000 0 0 0 0 0.000000 0.000000 0.000000 0.000000
-11.430001 -1.905003 11.125198 0.000000 0.000000 -1.000000 1.000000 0.000000 0.000000 -12.375000 0.906250 0 0 0 0 0.000000 0.000000 0.000000 0.000000
-11.430001 -2.209803 11.125198 0.000000 0.000000 -1.000000 1.000000 0.000000 0.000000 -12.375000 1.031250 0 0 0 0 0.000000 0.000000 0.000000 0.000000
-11.582401 -1.905003 11.125198 0.000000 0.000000 -1.000000 1.000000 0.000001 0.000000 -12.541667 0.906250 0 0 0 0 0.000000 0.000000 0.000000 0.000000
-15.697201 -1.905003 11.125198 0.000000 0.000000 -1.000000 1.000000 0.000000 0.000000 -17.041666 0.906250 0 0 0 0 0.000000 0.000000 0.000000 0.000000
-15.697201 -2.209803 11.125198 0.000000 0.000000 -1.000000 1.000000 0.000001 0.000000 -17.041666 1.031250 0 0 0 0 0.000000 0.000000 0.000000 0.000000
-15.849601 -1.905003 11.125198 0.000000 0.000000 -1.000000 1.000000 -0.000000 0.000000 -17.208334 0.906250 0 0 0 0 0.000000 0.000000 0.000000 0.000000
-15.849601 -3.352803 11.125198 0.000000 0.000000 -1.000000 1.000000 -0.000000 0.000000 -17.208334 1.500000 0 0 0 0 0.000000 0.000000 0.000000 0.000000
-15.697201 -3.352803 11.125198 0.000000 0.000000 -1.000000 1.000000 -0.000000 0.000000 -17.041666 1.500000 0 0 0 0 0.000000 0.000000 0.000000 0.000000
-15.697201 -2.743203 11.125198 0.000000 0.000000 -1.000000 0.000000 -1.000000 -0.000000 -17.041666 1.250000 0 0 0 0 0.000000 0.000000 0.000000 0.000000
-15.697201 -2.209803 11.125198 0.000000 0.000000 -1.000000 0.000000 -1.000000 -0.000000 -17.041666 1.031250 0 0 0 0 0.000000 0.000000 0.000000 0.000000
-15.697201 -4.114803 10.210798 1.000000 0.000000 0.000000 -0.000000 -0.000000 1.000000 11.291667 1.812500 0 0 0 0 0.000000 0.000000 0.000000 0.000000
-15.697201 -4.572003 10.210798 1.000000 0.000000 0.000000 -0.000000 -0.000000 1.000000 11.291667 2.000000 0 0 0 0 0.000000 0.000000 0.000000 0.000000
-15.697201 -4.572003 10.667997 1.000000 0.000000 0.000000 -0.000000 -0.000000 1.000000 11.791667 2.000000 0 0 0 0 0.000000 0.000000 0.000000 0.000000
-15.849601 -3.962403 10.210798 -1.000000 -0.000000 -0.000000 -0.000000 -0.000000 1.000000 11.291667 1.750000 0 0 0 0 0.000000 0.000000 0.000000 0.000000
-15.849601 -4.572003 10.210798 -1.000000 -0.000000 -0.000000 -0.000000 -0.000000 1.000000 11.291667 2.000000 0 0 0 0 0.000000 0.000000 0.000000 0.000000
IndexCount: 426
0 4 3
0 3 2
2 1 0
156 4 0
0 157 156
156 158 4
160 158 159
159 161 160
159 162 161
5 9 8
5 8 7
7 6 5
104 6 108
104 108 107
104 107 106
106 105 104
13 11 10
13 12 11
14 19 11
14 11 18
14 18 17
17 18 21
14 17 16
17 21 20
16 15 14
24 23 14
24 14 22
25 29 28
25 28 27
27 26 25
33 31 30
33 32 31
32 33 34
34 35 32
34 36 35
36 34 38
36 38 37
39 44 43
39 43 42
39 42 41
41 40 39
41 54 53
41 53 40
54 180 179
54 179 53
179 180 183
183 181 179
183 182 181
182 188 187
182 187 186
182 186 185
185 184 182
48 46 45
48 47 46
47 142 46
47 143 142
144 143 148
144 148 147
147 145 144
147 146 145
52 50 49
52 51 50
51 175 50
51 176 175
176 177 175
176 178 177
55 59 58
55 58 57
57 56 55
63 61 60
63 60 123
63 62 61
123 124 63
123 127 126
123 126 125
123 125 124
64 68 67
64 67 66
66 65 64
69 73 72
69 72 71
71 70 69
94 73 69
94 69 93
70 71 75
70 75 74
76 81 80
76 80 79
76 79 78
78 77 76
84 83 76
84 76 82
118 119 84
84 82 118
118 120 119
120 118 133
133 134 120
133 136 135
133 135 134
88 86 85
88 87 86
87 121 86
87 122 121
92 90 89
92 91 90
95 99 98
95 98 97
97 96 95
99 95 101
99 101 100
96 97 103
96 103 102
109 113 112
109 112 111
111 110 109
117 115 114
117 116 115
128 132 131
128 131 130
130 129 128
137 141 140
137 140 139
139 138 137
149 153 152
149 152 151
151 150 149
193 153 149
193 149 192
150 151 155
150 155 154
167 164 163
168 172 163
163 164 171
163 171 170
163 170 169
163 169 168
167 166 165
167 165 164
169 191 190
169 190 189
171 173 170
171 174 173
