VertexCount: 529
-10.629901 -4.572002 7.696198 -0.000000 -0.000000 1.000000 1.000000 0.000000 0.000000 -11.187500 2.000000 0 0 0 0 0.000000 0.000000 0.000000 0.000000
-10.629901 -4.114802 7.696198 -0.000000 -0.000000 1.000000 1.000000 0.000000 0.000000 -11.187500 1.812500 0 0 0 0 0.000000 0.000000 0.000000 0.000000
-9.448800 -4.114802 7.696198 -0.000000 -0.000000 1.000000 1.000000 0.000000 0.000000 -9.895833 1.812500 0 0 0 0 0.000000 0.000000 0.000000 0.000000
-9.448800 -4.572002 7.696198 -0.000000 -0.000000 1.000000 1.000000 0.000000 0.000000 -9.895833 2.000000 0 0 0 0 0.000000 0.000000 0.000000 0.000000
-9.601200 -4.572002 7.696198 -0.000000 -0.000000 1.000000 1.000000 0.000000 0.000000 -10.062500 2.000000 0 0 0 0 0.000000 0.000000 0.000000 0.000000
-9.448800 -4.572002 7.696198 -0.000000 -0.000000 1.000000 0.000000 -1.000000 -0.000000 -9.895833 2.000000 0 0 0 0 0.000000 0.000000 0.000000 0.000000
-9.448800 -4.114802 7.696198 -0.000000 -0.000000 1.000000 0.000000 -1.000000 -0.000000 -9.895833 1.812500 0 0 0 0 0.000000 0.000000 0.000000 0.000000
-9.448800 -2.133602 7.696198 -0.000000 -0.000000 1.000000 0.000000 -1.000000 -0.000000 -9.895833 1.000000 0 0 0 0 0.000000 0.000000 0.000000 0.000000
-9.372602 -2.133602 7.696198 -0.000000 -0.000000 1.000000 1.000000 0.000000 0.000000 -9.812500 1.000000 0 0 0 0 0.000000 0.000000 0.000000 0.000000
-9.372601 -4.572002 7.696198 -0.000000 -0.000000 1.000000 1.000000 -0.000000 0.000000 -9.812500 2.000000 0 0 0 0 0.000000 0.000000 0.000000 0.000000
-10.629901 -1.981202 7.696198 -0.000000 -0.000000 1.000000 1.000000 -0.000000 0.000000 -11.500000 0.937500 0 0 0 0 0.000000 0.000000 0.000000 0.000000
-9.372602 -1.981202 7.696198 -0.000000 -0.000000 1.000000 1.000000 0.000000 0.000000 -10.125000 0.937500 0 0 0 0 0.000000 0.000000 0.000000 0.000000
-9.372602 -2.133602 7.696198 -0.000000 -0.000000 1.000000 1.000000 0.000000 0.000000 -10.125000 1.000000 0 0 0 0 0.000000 0.000000 0.000000 0.000000
-9.448800 -2.133602 7.696198 -0.000000 -0.000000 1.000000 1.000000 -0.000000 0.000000 -10.208333 1.000000 0 0 0 0 0.000000 0.000000 0.000000 0.000000
-10.020300 -2.133602 7.696198 -0.000000 -0.000000 1.000000 1.000000 -0.000000 0.000000 -10.833333 1.000000 0 0 0 0 0.000000 0.000000 0.000000 0.000000
-10.629901 -2.133602 7.696198 -0.000000 -0.000000 1.000000 1.000000 -0.000000 0.000000 -11.500000 1.000000 0 0 0 0 0.000000 0.000000 0.000000 0.000000
-9.372602 -1.981202 7.696198 1.000000 0.000000 0.000000 -0.000000 -0.000000 1.000000 8.854167 0.937500 0 0 0 0 0.000000 0.000000 0.000000 0.000000
-9.372602 -1.981202 7.296148 1.000000 0.000000 0.000000 -0.000000 -0.000000 1.000000 8.416667 0.937500 0 0 0 0 0.000000 0.000000 0.000000 0.000000
-9.372601 -4.572002 7.296148 1.000000 0.000000 0.000000 -0.000000 -0.000000 1.000000 8.416667 2.000000 0 0 0 0 0.000000 0.000000 0.000000 0.000000
-9.372601 -4.572002 7.619998 1.000000 0.000000 0.000000 -0.000000 -0.000000 1.000000 8.770833 2.000000 0 0 0 0 0.000000 0.000000 0.000000 0.000000
-9.372601 -4.572002 7.696198 1.000000 0.000000 0.000000 -0.000000 -0.000000 1.000000 8.854167 2.000000 0 0 0 0 0.000000 0.000000 0.000000 0.000000
-9.372602 -2.133602 7.696198 1.000000 0.000000 0.000000 0.000000 -1.000000 -0.000000 8.854167 1.000000 0 0 0 0 0.000000 0.000000 0.000000 0.000000
-9.448800 -4.114802 7.696198 -0.000000 1.000000 0.000000 1.000000 0.000000 0.000001 -9.895833 -3.031250 0 0 0 0 0.000000 0.000000 0.000000 0.000000
-10.629901 -4.114802 7.696198 -0.000000 1.000000 0.000000 1.000000 0.000000 0.000000 -11.187500 -3.031250 0 0 0 0 0.000000 0.000000 0.000000 0.000000
-10.629901 -4.114802 7.619998 -0.000000 1.000000 0.000000 1.000000 0.000000 0.000000 -11.187500 -3.000000 0 0 0 0 0.000000 0.000000 0.000000 0.000000
-9.448800 -4.114802 7.619998 -0.000000 1.000000 0.000000 1.000000 0.000000 0.000001 -9.895833 -3.000000 0 0 0 0 0.000000 0.000000 0.000000 0.000000
-9.448800 -2.133602 7.619998 0.000000 -1.000000 -0.000000 1.000000 0.000000 0.000000 -9.895833 -3.000000 0 0 0 0 0.000000 0.000000 0.000000 0.000000
-10.020300 -2.133602 7.619998 0.000000 -1.000000 -0.000000 1.000000 0.000000 0.000000 -10.520833 -3.000000 0 0 0 0 0.000000 0.000000 0.000000 0.000000
-10.020300 -2.133602 7.696198 0.000000 -1.000000 -0.000000 1.000000 0.000000 0.000000 -10.520833 -3.031250 0 0 0 0 0.000000 0.000000 0.000000 0.000000
-9.448800 -2.133602 7.696198 0.000000 -1.000000 -0.000000 1.000000 0.000000 0.000000 -9.895833 -3.031250 0 0 0 0 0.000000 0.000000 0.000000 0.000000
-10.629901 -1.981202 7.296148 -0.000000 1.000000 0.000000 1.000000 0.000000 0.000000 -11.500000 -2.828125 0 0 0 0 0.000000 0.000000 0.000000 0.000000
-9.372602 -1.981202 7.296148 -0.000000 1.000000 0.000000 1.000000 0.000000 0.000000 -10.125000 -2.828125 0 0 0 0 0.000000 0.000000 0.000000 0.000000
-9.372602 -1.981202 7.696198 -0.000000 1.000000 0.000000 1.000000 0.000000 0.000001 -10.125000 -2.992188 0 0 0 0 0.000000 0.000000 0.000000 0.000000
-10.629901 -1.981202 7.696198 -0.000000 1.000000 0.000000 1.000000 0.000000 0.000000 -11.500000 -2.992188 0 0 0 0 0.000000 0.000000 0.000000 0.000000
-10.629901 -1.981202 7.315197 -0.000000 1.000000 0.000000 1.000000 0.000000 0.000000 -11.500000 -2.835938 0 0 0 0 0.000000 0.000000 0.000000 0.000000
-9.448800 -4.114802 7.619998 -1.000000 -0.000000 -0.000000 -0.000000 -0.000000 1.000000 8.770833 1.812500 0 0 0 0 0.000000 0.000000 0.000000 0.000000
-9.448800 -2.133602 7.619998 -1.000000 -0.000000 -0.000000 -0.000000 -0.000000 1.000000 8.770833 1.000000 0 0 0 0 0.000000 0.000000 0.000000 0.000000
-9.448800 -2.133602 7.696198 -1.000000 -0.000000 -0.000000 -0.000000 -0.000000 1.000000 8.854167 1.000000 0 0 0 0 0.000000 0.000000 0.000000 0.000000
-9.448800 -4.114802 7.696198 -1.000000 -0.000000 -0.000000 -0.000000 -0.000000 1.000000 8.854167 1.812500 0 0 0 0 0.000000 0.000000 0.000000 0.000000
-9.372601 -4.572001 3.581398 1.000000 0.000000 0.000000 -0.000000 -0.000000 1.000000 4.041667 2.000000 0 0 0 0 0.000000 0.000000 0.000000 0.000000
-9.372601 -4.572001 4.343399 1.000000 0.000000 0.000000 -0.000000 -0.000000 1.000000 4.875000 2.000000 0 0 0 0 0.000000 0.000000 0.000000 0.000000
-9.372602 -2.133601 4.343399 1.000000 0.000000 0.000000 -0.000000 -0.000000 1.000000 4.875000 1.000000 0 0 0 0 0.000000 0.000000 0.000000 0.000000
-9.372602 -1.981201 4.343399 1.000000 0.000000 0.000000 -0.000000 -0.000000 1.000000 4.875000 0.937500 0 0 0 0 0.000000 0.000000 0.000000 0.000000
-9.372602 -1.981201 3.581399 1.000000 0.000000 0.000000 -0.000000 -0.000000 1.000000 4.041667 0.937500 0 0 0 0 0.000000 0.000000 0.000000 0.000000
-9.372602 -2.133601 3.581399 1.000000 0.000000 0.000000 -0.000000 -0.000000 1.000000 4.041667 1.000000 0 0 0 0 0.000000 0.000000 0.000000 0.000000
-9.372602 -1.981202 6.934199 1.000000 0.000000 0.000000 -0.000000 -0.000000 1.000000 8.020833 0.937500 0 0 0 0 0.000000 0.000000 0.000000 0.000000
-9.372602 -2.133602 6.934199 1.000000 0.000000 0.000000 -0.000000 -0.000000 1.000000 8.020833 1.000000 0 0 0 0 0.000000 0.000000 0.000000 0.000000
-9.372601 -4.572002 6.934199 1.000000 0.000000 0.000000 -0.000000 0.000000 1.000000 8.020833 2.000000 0 0 0 0 0.000000 0.000000 0.000000 0.000000
-9.448800 -4.572001 4.343399 -0.000000 -0.000000 1.000000 0.000000 -1.000000 -0.000000 -10.208333 2.000000 0 0 0 0 0.000000 0.000000 0.000000 0.000000
-9.448800 -4.114801 4.343399 -0.000000 -0.000000 1.000000 0.000000 -1.000000 -0.000000 -10.208333 1.812500 0 0 0 0 0.000000 0.000000 0.000000 0.000000
-9.448800 -2.133601 4.343399 -0.000000 -0.000000 1.000000 0.000000 -1.000000 -0.000000 -10.208333 1.000000 0 0 0 0 0.000000 0.000000 0.000000 0.000000
-9.372602 -2.133601 4.343399 -0.000000 -0.000000 1.000000 1.000000 0.000000 0.000000 -10.125000 1.000000 0 0 0 0 0.000000 0.000000 0.000000 0.000000
-9.372601 -4.572001 4.343399 -0.000000 -0.000000 1.000000 1.000000 -0.000000 0.000000 -10.125000 2.000000 0 0 0 0 0.000000 0.000000 0.000000 0.000000
-10.629900 -4.572001 4.343399 -0.000000 -0.000000 1.000000 1.000000 -0.000000 0.000000 -11.500000 2.000000 0 0 0 0 0.000000 0.000000 0.000000 0.000000
-10.629900 -4.114801 4.343399 -0.000000 -0.000000 1.000000 1.000000 -0.000000 0.000000 -11.500000 1.812500 0 0 0 0 0.000000 0.000000 0.000000 0.000000
-9.448800 -4.114801 4.343399 -0.000000 -0.000000 1.000000 1.000000 -0.000000 0.000000 -10.208333 1.812500 0 0 0 0 0.000000 0.000000 0.000000 0.000000
-9.448800 -4.572001 4.343399 -0.000000 -0.000000 1.000000 1.000000 -0.000000 0.000000 -10.208333 2.000000 0 0 0 0 0.000000 0.000000 0.000000 0.000000
-10.629900 -2.133602 4.343399 -0.000000 0.000001 1.000000 1.000000 0.000000 0.000000 -11.500000 1.000000 0 0 0 0 0.000000 0.000000 0.000000 0.000000
-10.629900 -1.981202 4.343399 -0.000000 0.000001 1.000000 1.000000 0.000000 0.000000 -11.500000 0.937500 0 0 0 0 0.000000 0.000000 0.000000 0.000000
-9.372602 -1.981201 4.343399 -0.000000 0.000001 1.000000 1.000000 0.000000 0.000000 -10.125000 0.937500 0 0 0 0 0.000000 0.000000 0.000000 0.000000
-9.448800 -2.133601 4.343399 -0.000000 0.000001 1.000000 1.000000 0.000000 0.000000 -10.208333 1.000000 0 0 0 0 0.000000 0.000000 0.000000 0.000000
-10.020300 -2.133601 4.343399 -0.000000 0.000001 1.000000 1.000000 0.000000 0.000000 -10.833333 1.000000 0 0 0 0 0.000000 0.000000 0.000000 0.000000
-10.629900 -2.133602 6.934198 0.000000 -0.000005 -1.000000 -1.000000 0.000000 -0.000000 -11.500000 1.000000 0 0 0 0 0.000000 0.000000 0.000000 0.000000
-10.020300 -2.133602 6.934199 0.000000 -0.000005 -1.000000 -1.000000 0.000000 -0.000000 -10.833333 1.000000 0 0 0 0 0.000000 0.000000 0.000000 0.000000
-9.448800 -2.133602 6.934199 0.000000 -0.000005 -1.000000 -1.000000 -0.000000 -0.000000 -10.208333 1.000000 0 0 0 0 0.000000 0.000000 0.000000 0.000000
-9.372602 -2.133602 6.934199 0.000000 -0.000005 -1.000000 -1.000000 0.000000 -0.000000 -10.125000 1.000000 0 0 0 0 0.000000 0.000000 0.000000 0.000000
-9.372602 -1.981202 6.934199 0.000000 -0.000005 -1.000000 1.000000 -0.000000 0.000000 -10.125000 0.937500 0 0 0 0 0.000000 0.000000 0.000000 0.000000
-10.629900 -1.981202 6.934198 0.000000 -0.000005 -1.000000 1.000000 0.000000 0.000000 -11.500000 0.937500 0 0 0 0 0.000000 0.000000 0.000000 0.000000
-9.372601 -4.572002 6.934199 0.000000 0.000000 -1.000000 1.000000 -0.000000 0.000000 -9.812500 2.000000 0 0 0 0 0.000000 0.000000 0.000000 0.000000
-9.372602 -2.133602 6.934199 0.000000 0.000000 -1.000000 1.000000 -0.000000 0.000000 -9.812500 1.000000 0 0 0 0 0.000000 0.000000 0.000000 0.000000
-9.448800 -2.133602 6.934199 0.000000 0.000000 -1.000000 1.000000 -0.000000 0.000000 -9.895833 1.000000 0 0 0 0 0.000000 0.000000 0.000000 0.000000
-9.448800 -4.114802 6.934199 0.000000 0.000000 -1.000000 1.000000 0.000000 0.000000 -9.895833 1.812500 0 0 0 0 0.000000 0.000000 0.000000 0.000000
-9.448800 -4.572002 6.934199 0.000000 0.000000 -1.000000 1.000000 0.000000 0.000000 -9.895833 2.000000 0 0 0 0 0.000000 0.000000 0.000000 0.000000
-10.629900 -4.572002 6.934198 0.000000 0.000000 -1.000000 1.000000 0.000000 0.000000 -11.500000 2.000000 0 0 0 0 0.000000 0.000000 0.000000 0.000000
-9.448800 -4.572002 6.934199 0.000000 0.000000 -1.000000 1.000000 0.000000 0.000000 -10.208333 2.000000 0 0 0 0 0.000000 0.000000 0.000000 0.000000
-9.448800 -4.114802 6.934199 0.000000 0.000000 -1.000000 1.000000 0.000000 0.000000 -10.208333 1.812500 0 0 0 0 0.000000 0.000000 0.000000 0.000000
-10.629900 -4.114802 6.934198 0.000000 0.000000 -1.000000 1.000000 0.000000 0.000000 -11.500000 1.812500 0 0 0 0 0.000000 0.000000 0.000000 0.000000
-9.448800 -4.114802 7.010399 -0.000000 1.000000 0.000000 1.000000 0.000000 0.000001 -10.208333 -2.750000 0 0 0 0 0.000000 0.000000 0.000000 0.000000
-10.629901 -4.114802 7.010398 -0.000000 1.000000 0.000000 1.000000 0.000000 0.000000 -11.500000 -2.750000 0 0 0 0 0.000000 0.000000 0.000000 0.000000
-10.629900 -4.114802 6.934198 -0.000000 1.000000 0.000000 1.000000 0.000000 0.000000 -11.500000 -2.718750 0 0 0 0 0.000000 0.000000 0.000000 0.000000
-9.448800 -4.114802 6.934199 -0.000000 1.000000 0.000000 1.000000 0.000000 0.000001 -10.208333 -2.718750 0 0 0 0 0.000000 0.000000 0.000000 0.000000
-9.448800 -2.133602 7.010399 0.000000 -1.000000 -0.000000 1.000000 0.000000 0.000000 -9.895833 -2.750000 0 0 0 0 0.000000 0.000000 0.000000 0.000000
-9.448800 -2.133602 6.934199 0.000000 -1.000000 -0.000000 1.000000 0.000000 0.000000 -9.895833 -2.718750 0 0 0 0 0.000000 0.000000 0.000000 0.000000
-10.020300 -2.133602 6.934199 0.000000 -1.000000 -0.000000 1.000000 0.000000 0.000000 -10.520833 -2.718750 0 0 0 0 0.000000 0.000000 0.000000 0.000000
-10.020300 -2.133602 7.010399 0.000000 -1.000000 -0.000000 1.000000 0.000000 0.000000 -10.520833 -2.750000 0 0 0 0 0.000000 0.000000 0.000000 0.000000
-10.629900 -1.981202 6.934198 -0.000000 1.000000 0.000000 1.000000 0.000000 0.000000 -11.500000 -2.679688 0 0 0 0 0.000000 0.000000 0.000000 0.000000
-9.372602 -1.981202 6.934199 -0.000000 1.000000 0.000000 1.000000 0.000000 0.000000 -10.125000 -2.679688 0 0 0 0 0.000000 0.000000 0.000000 0.000000
-9.448800 -4.114802 7.010399 -1.000000 -0.000000 -0.000000 -0.000000 -0.000000 1.000000 8.104167 1.812500 0 0 0 0 0.000000 0.000000 0.000000 0.000000
-9.448800 -4.114802 6.934199 -1.000000 -0.000000 -0.000000 -0.000000 -0.000000 1.000000 8.020833 1.812500 0 0 0 0 0.000000 0.000000 0.000000 0.000000
-9.448800 -2.133602 6.934199 -1.000000 -0.000000 -0.000000 -0.000000 -0.000000 1.000000 8.020833 1.000000 0 0 0 0 0.000000 0.000000 0.000000 0.000000
-9.448800 -2.133602 7.010399 -1.000000 -0.000000 -0.000000 -0.000000 -0.000000 1.000000 8.104167 1.000000 0 0 0 0 0.000000 0.000000 0.000000 0.000000
-9.448800 -2.133601 3.657598 0.000000 -1.000000 -0.000000 1.000000 0.000000 -0.000000 -10.208333 -1.375000 0 0 0 0 0.000000 0.000000 0.000000 0.000000
-9.448800 -2.133601 3.581399 0.000000 -1.000000 -0.000000 1.000000 0.000000 -0.000000 -10.208333 -1.343750 0 0 0 0 0.000000 0.000000 0.000000 0.000000
-10.020300 -2.133601 3.581399 0.000000 -1.000000 -0.000000 1.000000 0.000000 -0.000000 -10.833333 -1.343750 0 0 0 0 0.000000 0.000000 0.000000 0.000000
-10.020300 -2.133601 3.657598 0.000000 -1.000000 -0.000000 1.000000 0.000000 -0.000000 -10.833333 -1.375000 0 0 0 0 0.000000 0.000000 0.000000 0.000000
-9.448800 -2.133601 4.267199 0.000000 -1.000000 -0.000000 1.000000 0.000000 0.000000 -10.208333 -1.625000 0 0 0 0 0.000000 0.000000 0.000000 0.000000
-10.020300 -2.133601 4.267199 0.000000 -1.000000 -0.000000 1.000000 0.000000 0.000000 -10.833333 -1.625000 0 0 0 0 0.000000 0.000000 0.000000 0.000000
-10.020300 -2.133601 4.343399 0.000000 -1.000000 -0.000000 1.000000 0.000000 0.000000 -10.833333 -1.656250 0 0 0 0 0.000000 0.000000 0.000000 0.000000
-9.448800 -2.133601 4.343399 0.000000 -1.000000 -0.000000 1.000000 0.000000 0.000000 -10.208333 -1.656250 0 0 0 0 0.000000 0.000000 0.000000 0.000000
-10.629900 -1.981201 3.581399 0.000000 0.000000 -1.000000 1.000000 -0.000000 0.000000 -11.500000 0.937500 0 0 0 0 0.000000 0.000000 0.000000 0.000000
-10.629900 -2.133601 3.581399 0.000000 0.000000 -1.000000 1.000000 -0.000000 0.000000 -11.500000 1.000000 0 0 0 0 0.000000 0.000000 0.000000 0.000000
-10.020300 -2.133601 3.581399 0.000000 0.000000 -1.000000 1.000000 -0.000000 0.000000 -10.833333 1.000000 0 0 0 0 0.000000 0.000000 0.000000 0.000000
-9.448800 -2.133601 3.581399 0.000000 0.000000 -1.000000 1.000000 0.000000 0.000000 -10.208333 1.000000 0 0 0 0 0.000000 0.000000 0.000000 0.000000
-9.372602 -2.133601 3.581399 0.000000 0.000000 -1.000000 1.000000 -0.000000 0.000000 -10.125000 1.000000 0 0 0 0 0.000000 0.000000 0.000000 0.000000
-9.372602 -1.981201 3.581399 0.000000 0.000000 -1.000000 1.000000 0.000000 0.000000 -10.125000 0.937500 0 0 0 0 0.000000 0.000000 0.000000 0.000000
-10.629900 -1.981202 4.343399 -0.000000 1.000000 0.000000 1.000000 0.000000 0.000000 -11.500000 -1.656250 0 0 0 0 0.000000 0.000000 0.000000 0.000000
-10.629900 -1.981201 3.581399 -0.000000 1.000000 0.000000 1.000000 0.000000 0.000000 -11.500000 -1.343750 0 0 0 0 0.000000 0.000000 0.000000 0.000000
-9.372602 -1.981201 3.581399 -0.000000 1.000000 0.000000 1.000000 0.000000 -0.000000 -10.125000 -1.343750 0 0 0 0 0.000000 0.000000 0.000000 0.000000
-9.372602 -1.981201 4.343399 -0.000000 1.000000 0.000000 1.000000 0.000000 -0.000000 -10.125000 -1.656250 0 0 0 0 0.000000 0.000000 0.000000 0.000000
-10.629900 -4.572001 3.581398 0.000000 0.000000 -1.000000 1.000000 -0.000000 0.000000 -11.500000 2.000000 0 0 0 0 0.000000 0.000000 0.000000 0.000000
-9.448800 -4.572001 3.581398 0.000000 0.000000 -1.000000 1.000000 -0.000000 0.000000 -10.208333 2.000000 0 0 0 0 0.000000 0.000000 0.000000 0.000000
-9.448800 -4.114801 3.581398 0.000000 0.000000 -1.000000 1.000000 0.000000 0.000000 -10.208333 1.812500 0 0 0 0 0.000000 0.000000 0.000000 0.000000
-10.629900 -4.114801 3.581398 0.000000 0.000000 -1.000000 1.000000 -0.000000 0.000000 -11.500000 1.812500 0 0 0 0 0.000000 0.000000 0.000000 0.000000
-9.372601 -4.572001 3.581398 0.000000 0.000000 -1.000000 1.000000 -0.000000 0.000000 -10.125000 2.000000 0 0 0 0 0.000000 0.000000 0.000000 0.000000
-9.448800 -4.114801 3.657598 -0.000000 1.000000 0.000000 1.000000 0.000000 0.000000 -10.208333 -1.375000 0 0 0 0 0.000000 0.000000 0.000000 0.000000
-10.629900 -4.114801 3.657598 -0.000000 1.000000 0.000000 1.000000 0.000000 0.000000 -11.500000 -1.375000 0 0 0 0 0.000000 0.000000 0.000000 0.000000
-10.629900 -4.114801 3.581398 -0.000000 1.000000 0.000000 1.000000 0.000000 0.000000 -11.500000 -1.343750 0 0 0 0 0.000000 0.000000 0.000000 0.000000
-9.448800 -4.114801 3.581398 -0.000000 1.000000 0.000000 1.000000 0.000000 0.000000 -10.208333 -1.343750 0 0 0 0 0.000000 0.000000 0.000000 0.000000
-9.448800 -4.114801 4.343399 -0.000000 1.000000 0.000000 1.000000 0.000000 0.000000 -10.208333 -1.656250 0 0 0 0 0.000000 0.000000 0.000000 0.000000
-10.629900 -4.114801 4.343399 -0.000000 1.000000 0.000000 1.000000 0.000000 0.000000 -11.500000 -1.656250 0 0 0 0 0.000000 0.000000 0.000000 0.000000
-10.629900 -4.114801 4.267199 -0.000000 1.000000 0.000000 1.000000 0.000000 -0.000000 -11.500000 -1.625000 0 0 0 0 0.000000 0.000000 0.000000 0.000000
-9.448800 -4.114801 4.267199 -0.000000 1.000000 0.000000 1.000000 0.000000 0.000000 -10.208333 -1.625000 0 0 0 0 0.000000 0.000000 0.000000 0.000000
-9.448800 -4.114801 3.657598 -1.000000 -0.000000 -0.000000 -0.000000 -0.000000 1.000000 4.125000 1.812500 0 0 0 0 0.000000 0.000000 0.000000 0.000000
-9.448800 -4.114801 3.581398 -1.000000 -0.000000 -0.000000 -0.000000 -0.000000 1.000000 4.041667 1.812500 0 0 0 0 0.000000 0.000000 0.000000 0.000000
-9.448800 -2.133601 3.581399 -1.000000 -0.000000 -0.000000 -0.000000 -0.000000 1.000000 4.041667 1.000000 0 0 0 0 0.000000 0.000000 0.000000 0.000000
-9.448800 -2.133601 3.657598 -1.000000 -0.000000 -0.000000 -0.000000 -0.000000 1.000000 4.125000 1.000000 0 0 0 0 0.000000 0.000000 0.000000 0.000000
-9.448800 -4.114801 4.267199 -1.000000 -0.000000 -0.000000 -0.000000 -0.000000 1.000000 4.791667 1.812500 0 0 0 0 0.000000 0.000000 0.000000 0.000000
-9.448800 -2.133601 4.267199 -1.000000 -0.000000 -0.000000 -0.000000 -0.000000 1.000000 4.791667 1.000000 0 0 0 0 0.000000 0.000000 0.000000 0.000000
-9.448800 -2.133601 4.343399 -1.000000 -0.000000 -0.000000 -0.000000 -0.000000 1.000000 4.875000 1.000000 0 0 0 0 0.000000 0.000000 0.000000 0.000000
-9.448800 -4.114801 4.343399 -1.000000 -0.000000 -0.000000 -0.000000 -0.000000 1.000000 4.875000 1.812500 0 0 0 0 0.000000 0.000000 0.000000 0.000000
-3.048000 -4.114800 -1.676401 0.000000 0.000000 -1.000000 1.000000 -0.000000 0.000000 -3.000000 2.000000 0 0 0 0 0.000000 0.000000 0.000000 0.000000
-3.048000 -1.524000 -1.676401 0.000000 0.000000 -1.000000 1.000000 -0.000000 0.000000 -3.000000 0.937500 0 0 0 0 0.000000 0.000000 0.000000 0.000000
-4.267200 -1.524000 -1.676401 0.000000 0.000000 -1.000000 1.000000 0.000000 0.000000 -4.333333 0.937500 0 0 0 0 0.000000 0.000000 0.000000 0.000000
-5.791200 -1.524000 -1.676401 0.000000 0.000000 -1.000000 1.000000 0.000000 0.000000 -6.000000 0.937500 0 0 0 0 0.000000 0.000000 0.000000 0.000000
-5.791199 -4.114800 -1.676401 0.000000 0.000000 -1.000000 1.000000 0.000000 0.000000 -6.000000 2.000000 0 0 0 0 0.000000 0.000000 0.000000 0.000000
-4.267200 -4.114800 -1.676401 0.000000 0.000000 -1.000000 1.000000 -0.000000 0.000000 -4.333333 2.000000 0 0 0 0 0.000000 0.000000 0.000000 0.000000
-7.619999 -4.114800 -1.676401 0.000000 0.000000 -1.000000 1.000000 0.000000 0.000000 -8.000000 2.000000 0 0 0 0 0.000000 0.000000 0.000000 0.000000
-7.620000 -1.524001 -1.676401 0.000000 0.000000 -1.000000 1.000000 0.000000 0.000000 -8.000000 0.937500 0 0 0 0 0.000000 0.000000 0.000000 0.000000
-8.534400 -1.524001 -1.676401 0.000000 0.000000 -1.000000 1.000000 0.000000 0.000000 -9.000000 0.937500 0 0 0 0 0.000000 0.000000 0.000000 0.000000
-8.534399 -4.114800 -1.676401 0.000000 0.000000 -1.000000 1.000000 0.000000 0.000000 -9.000000 2.000000 0 0 0 0 0.000000 0.000000 0.000000 0.000000
-4.267200 -1.524000 -1.219201 -0.000000 1.000000 0.000000 1.000000 0.000000 0.000000 -4.333333 0.812500 0 0 0 0 0.000000 0.000000 0.000000 0.000000
-4.267200 -1.524000 -1.676401 -0.000000 1.000000 0.000000 1.000000 0.000000 0.000000 -4.333333 1.000000 0 0 0 0 0.000000 0.000000 0.000000 0.000000
-3.048000 -1.524000 -1.676401 -0.000000 1.000000 0.000000 1.000000 0.000000 -0.000000 -3.000000 1.000000 0 0 0 0 0.000000 0.000000 0.000000 0.000000
-3.048000 -1.524000 -1.219200 -0.000000 1.000000 0.000000 1.000000 0.000000 0.000000 -3.000000 0.812500 0 0 0 0 0.000000 0.000000 0.000000 0.000000
-8.534400 -1.524001 -1.219201 -0.000000 1.000000 0.000000 1.000000 0.000000 0.000000 -9.000000 0.812500 0 0 0 0 0.000000 0.000000 0.000000 0.000000
-8.534400 -1.524001 -1.676401 -0.000000 1.000000 0.000000 1.000000 0.000000 0.000000 -9.000000 1.000000 0 0 0 0 0.000000 0.000000 0.000000 0.000000
-7.620000 -1.524001 -1.676401 -0.000000 1.000000 0.000000 1.000000 0.000000 0.000000 -8.000000 1.000000 0 0 0 0 0.000000 0.000000 0.000000 0.000000
-6.705600 -1.524000 -1.676401 -0.000000 1.000000 0.000000 1.000000 0.000000 -0.000000 -7.000000 1.000000 0 0 0 0 0.000000 0.000000 0.000000 0.000000
-5.791200 -1.524000 -1.676401 -0.000000 1.000000 0.000000 1.000000 0.000000 0.000000 -6.000000 1.000000 0 0 0 0 0.000000 0.000000 0.000000 0.000000
-5.791199 -1.524000 -3.810001 -0.000000 1.000000 0.000000 1.000000 0.000000 0.000000 -6.000000 1.875000 0 0 0 0 0.000000 0.000000 0.000000 0.000000
-5.791199 -1.524000 -4.267201 -0.000000 1.000000 0.000000 1.000000 0.000000 0.000000 -6.000000 2.062500 0 0 0 0 0.000000 0.000000 0.000000 0.000000
-4.876800 -1.524000 -4.267200 -0.000000 1.000000 0.000000 1.000000 0.000000 0.000000 -5.000000 2.062500 0 0 0 0 0.000000 0.000000 0.000000 0.000000
-3.962399 -1.524000 -4.267200 -0.000000 1.000000 0.000000 1.000000 0.000000 0.000000 -4.000000 2.062500 0 0 0 0 0.000000 0.000000 0.000000 0.000000
-3.048000 -1.524000 -4.267200 -0.000000 1.000000 0.000000 1.000000 0.000000 -0.000000 -3.000000 2.062500 0 0 0 0 0.000000 0.000000 0.000000 0.000000
-3.048000 -1.524000 -3.810000 -0.000000 1.000000 0.000000 1.000000 0.000000 0.000000 -3.000000 1.875000 0 0 0 0 0.000000 0.000000 0.000000 0.000000
-3.048000 -4.114799 -4.267201 0.000000 0.000000 -1.000000 1.000000 -0.000000 0.000000 -3.000000 2.000000 0 0 0 0 0.000000 0.000000 0.000000 0.000000
-3.048000 -1.524000 -4.267200 0.000000 0.000000 -1.000000 1.000000 -0.000000 0.000000 -3.000000 0.937500 0 0 0 0 0.000000 0.000000 0.000000 0.000000
-3.962399 -1.524000 -4.267200 0.000000 0.000000 -1.000000 1.000000 -0.000000 0.000000 -4.000000 0.937500 0 0 0 0 0.000000 0.000000 0.000000 0.000000
-3.962399 -4.114799 -4.267201 0.000000 0.000000 -1.000000 1.000000 -0.000000 0.000000 -4.000000 2.000000 0 0 0 0 0.000000 0.000000 0.000000 0.000000
-5.791199 -4.114799 -4.267201 -1.000000 -0.000000 -0.000000 -0.000000 -0.000001 1.000000 -5.479167 2.000000 0 0 0 0 0.000000 0.000000 0.000000 0.000000
-5.791199 -1.524000 -4.267201 -1.000000 -0.000000 -0.000000 -0.000000 -0.000001 1.000000 -5.479167 0.937500 0 0 0 0 0.000000 0.000000 0.000000 0.000000
-5.791199 -1.524000 -3.810001 -1.000000 -0.000000 -0.000000 -0.000000 -0.000000 1.000000 -4.979167 0.937500 0 0 0 0 0.000000 0.000000 0.000000 0.000000
-5.791199 -4.114800 -3.810001 -1.000000 -0.000000 -0.000000 -0.000000 -0.000001 1.000000 -4.979167 2.000000 0 0 0 0 0.000000 0.000000 0.000000 0.000000
-5.791199 -4.114800 -3.810001 -0.000000 -0.000000 1.000000 1.000000 0.000000 0.000000 -6.062500 2.000000 0 0 0 0 0.000000 0.000000 0.000000 0.000000
-5.791199 -1.524000 -3.810001 -0.000000 -0.000000 1.000000 1.000000 0.000000 0.000000 -6.062500 0.937500 0 0 0 0 0.000000 0.000000 0.000000 0.000000
-3.048000 -1.524000 -3.810000 -0.000000 -0.000000 1.000000 1.000000 0.000000 0.000000 -3.062500 0.937500 0 0 0 0 0.000000 0.000000 0.000000 0.000000
-3.048000 -4.114799 -3.810001 -0.000000 -0.000000 1.000000 1.000000 -0.000000 0.000000 -3.062500 2.000000 0 0 0 0 0.000000 0.000000 0.000000 0.000000
-4.267200 -4.114799 -3.810001 -0.000000 -0.000000 1.000000 1.000000 0.000000 0.000000 -4.395833 2.000000 0 0 0 0 0.000000 0.000000 0.000000 0.000000
-13.335001 -4.572002 7.315197 1.000000 0.000000 0.000000 -0.000000 0.000000 1.000000 8.437500 2.000000 0 0 0 0 0.000000 0.000000 0.000000 0.000000
-13.335001 -4.572002 7.696198 1.000000 0.000000 0.000000 -0.000000 -0.000000 1.000000 8.854167 2.000000 0 0 0 0 0.000000 0.000000 0.000000 0.000000
-13.335001 -2.133602 7.696198 1.000000 0.000000 0.000000 -0.000000 -0.000000 1.000000 8.854167 1.000000 0 0 0 0 0.000000 0.000000 0.000000 0.000000
-13.335001 -2.133602 7.315197 1.000000 0.000000 0.000000 -0.000000 -0.000000 1.000000 8.437500 1.000000 0 0 0 0 0.000000 0.000000 0.000000 0.000000
-13.335001 -2.133602 7.315197 1.000000 0.000000 0.000000 -0.000000 -0.000000 1.000000 8.125000 1.000000 0 0 0 0 0.000000 0.000000 0.000000 0.000000
-13.335001 -2.133602 7.696198 1.000000 0.000000 0.000000 -0.000000 -0.000000 1.000000 8.541667 1.000000 0 0 0 0 0.000000 0.000000 0.000000 0.000000
-13.335001 -1.981202 7.696198 1.000000 0.000000 0.000000 -0.000000 -0.000000 1.000000 8.541667 0.937500 0 0 0 0 0.000000 0.000000 0.000000 0.000000
-13.335001 -1.981202 7.315197 1.000000 0.000000 0.000000 -0.000000 -0.000000 1.000000 8.125000 0.937500 0 0 0 0 0.000000 0.000000 0.000000 0.000000
-11.353801 -1.981202 7.696198 -0.000000 1.000000 0.000000 1.000000 0.000000 -0.000000 -12.291667 -2.992188 0 0 0 0 0.000000 0.000000 0.000000 0.000000
-11.353801 -1.981202 7.315197 -0.000000 1.000000 0.000000 1.000000 0.000000 0.000000 -12.291667 -2.835938 0 0 0 0 0.000000 0.000000 0.000000 0.000000
-10.706102 -2.133602 7.696198 -0.000000 -0.000004 1.000000 1.000000 -0.000000 0.000000 -11.583333 1.000000 0 0 0 0 0.000000 0.000000 0.000000 0.000000
-11.277601 -2.133602 7.696198 -0.000000 -0.000004 1.000000 1.000000 0.000000 0.000000 -12.208333 1.000000 0 0 0 0 0.000000 0.000000 0.000000 0.000000
-11.353801 -2.133602 7.696198 -0.000000 -0.000004 1.000000 1.000000 -0.000000 0.000000 -12.291667 1.000000 0 0 0 0 0.000000 0.000000 0.000000 0.000000
-11.353801 -1.981202 7.696198 -0.000000 -0.000004 1.000000 1.000000 0.000000 0.000000 -12.291667 0.937500 0 0 0 0 0.000000 0.000000 0.000000 0.000000
-11.353801 -4.572002 7.696198 -0.000000 -0.000000 1.000000 1.000000 -0.000000 0.000000 -11.979167 2.000000 0 0 0 0 0.000000 0.000000 0.000000 0.000000
-11.353801 -2.133602 7.696198 -0.000000 -0.000000 1.000000 1.000000 -0.000000 0.000000 -11.979167 1.000000 0 0 0 0 0.000000 0.000000 0.000000 0.000000
-11.277601 -2.133602 7.696198 -0.000000 -0.000000 1.000000 1.000000 0.000000 0.000000 -11.895833 1.000000 0 0 0 0 0.000000 0.000000 0.000000 0.000000
-11.277601 -4.114802 7.696198 -0.000000 -0.000000 1.000000 1.000000 -0.000000 0.000000 -11.895833 1.812500 0 0 0 0 0.000000 0.000000 0.000000 0.000000
-11.277601 -4.572002 7.696198 -0.000000 -0.000000 1.000000 1.000000 -0.000000 0.000000 -11.895833 2.000000 0 0 0 0 0.000000 0.000000 0.000000 0.000000
-11.277601 -4.114802 7.619998 1.000000 0.000000 0.000000 -0.000000 -0.000000 1.000000 8.770833 1.812500 0 0 0 0 0.000000 0.000000 0.000000 0.000000
-11.277601 -4.114802 7.696198 1.000000 0.000000 0.000000 -0.000000 -0.000000 1.000000 8.854167 1.812500 0 0 0 0 0.000000 0.000000 0.000000 0.000000
-11.277601 -2.133602 7.696198 1.000000 0.000000 0.000000 -0.000000 -0.000000 1.000000 8.854167 1.000000 0 0 0 0 0.000000 0.000000 0.000000 0.000000
-11.277601 -2.133602 7.619998 1.000000 0.000000 0.000000 -0.000000 -0.000000 1.000000 8.770833 1.000000 0 0 0 0 0.000000 0.000000 0.000000 0.000000
-11.277601 -4.114802 7.696198 -0.000000 1.000000 0.000000 1.000000 0.000000 0.000000 -11.895833 -3.031250 0 0 0 0 0.000000 0.000000 0.000000 0.000000
-11.277601 -4.114802 7.619998 -0.000000 1.000000 0.000000 1.000000 0.000000 0.000000 -11.895833 -3.000000 0 0 0 0 0.000000 0.000000 0.000000 0.000000
-10.706102 -2.133602 7.619998 0.000000 -1.000000 -0.000000 1.000000 0.000000 -0.000000 -11.270833 -3.000000 0 0 0 0 0.000000 0.000000 0.000000 0.000000
-11.277601 -2.133602 7.619998 0.000000 -1.000000 -0.000000 1.000000 0.000000 -0.000000 -11.895833 -3.000000 0 0 0 0 0.000000 0.000000 0.000000 0.000000
-11.277601 -2.133602 7.696198 0.000000 -1.000000 -0.000000 1.000000 0.000000 -0.000000 -11.895833 -3.031250 0 0 0 0 0.000000 0.000000 0.000000 0.000000
-10.706102 -2.133602 7.696198 0.000000 -1.000000 -0.000000 1.000000 0.000000 -0.000000 -11.270833 -3.031250 0 0 0 0 0.000000 0.000000 0.000000 0.000000
-11.353801 -1.981202 7.315197 -1.000000 -0.000000 -0.000002 -0.000001 -0.000000 1.000000 8.437500 0.937500 0 0 0 0 0.000000 0.000000 0.000000 0.000000
-11.353801 -1.981202 7.696198 -1.000000 -0.000000 -0.000002 -0.000002 -0.000000 1.000000 8.854167 0.937500 0 0 0 0 0.000000 0.000000 0.000000 0.000000
-11.353801 -2.133602 7.696198 -1.000000 -0.000000 -0.000002 -0.000002 -0.000000 1.000000 8.854167 1.000000 0 0 0 0 0.000000 0.000000 0.000000 0.000000
-11.353801 -4.572002 7.696198 -1.000000 -0.000000 -0.000002 -0.000002 -0.000001 1.000000 8.854167 2.000000 0 0 0 0 0.000000 0.000000 0.000000 0.000000
-11.353801 -4.572002 7.315197 -1.000000 -0.000000 -0.000002 -0.000001 0.000000 1.000000 8.437500 2.000000 0 0 0 0 0.000000 0.000000 0.000000 0.000000
-15.316201 -4.572002 7.696198 -1.000000 -0.000000 0.000001 0.000001 0.000000 1.000000 8.854167 2.000000 0 0 0 0 0.000000 0.000000 0.000000 0.000000
-15.316201 -4.572002 7.315197 -1.000000 -0.000000 0.000001 0.000000 0.000000 1.000000 8.437500 2.000000 0 0 0 0 0.000000 0.000000 0.000000 0.000000
-15.316201 -1.981202 7.315197 -1.000000 -0.000000 0.000001 0.000000 0.000000 1.000000 8.437500 0.937500 0 0 0 0 0.000000 0.000000 0.000000 0.000000
-15.316201 -1.981202 7.696198 -1.000000 -0.000000 0.000001 0.000001 0.000000 1.000000 8.854167 0.937500 0 0 0 0 0.000000 0.000000 0.000000 0.000000
-15.316201 -2.133603 7.696198 -1.000000 -0.000000 0.000001 -0.000000 1.000000 0.000000 8.854167 1.000000 0 0 0 0 0.000000 0.000000 0.000000 0.000000
-14.668501 -2.133603 7.619998 0.000000 -1.000000 -0.000000 1.000000 0.000000 0.000000 -15.916667 -3.000000 0 0 0 0 0.000000 0.000000 0.000000 0.000000
-15.240001 -2.133603 7.619998 0.000000 -1.000000 -0.000000 1.000000 0.000000 0.000000 -16.541666 -3.000000 0 0 0 0 0.000000 0.000000 0.000000 0.000000
-15.240001 -2.133603 7.696198 0.000000 -1.000000 -0.000000 1.000000 0.000000 0.000000 -16.541666 -3.031250 0 0 0 0 0.000000 0.000000 0.000000 0.000000
-14.668501 -2.133603 7.696198 0.000000 -1.000000 -0.000000 1.000000 0.000000 0.000000 -15.916667 -3.031250 0 0 0 0 0.000000 0.000000 0.000000 0.000000
-13.411201 -2.133602 7.619998 0.000000 -1.000000 -0.000000 1.000000 0.000000 0.000000 -14.541667 -3.000000 0 0 0 0 0.000000 0.000000 0.000000 0.000000
-13.982701 -2.133602 7.619998 0.000000 -1.000000 -0.000000 1.000000 0.000000 0.000000 -15.166667 -3.000000 0 0 0 0 0.000000 0.000000 0.000000 0.000000
-13.982701 -2.133602 7.696198 0.000000 -1.000000 -0.000000 1.000000 0.000000 0.000000 -15.166667 -3.031250 0 0 0 0 0.000000 0.000000 0.000000 0.000000
-13.411201 -2.133602 7.696198 0.000000 -1.000000 -0.000000 1.000000 0.000000 0.000000 -14.541667 -3.031250 0 0 0 0 0.000000 0.000000 0.000000 0.000000
-15.316201 -2.133603 7.696198 -0.000000 -0.000000 1.000000 1.000000 0.000000 0.000000 -16.625000 1.000000 0 0 0 0 0.000000 0.000000 0.000000 0.000000
-15.316201 -1.981202 7.696198 -0.000000 -0.000000 1.000000 1.000000 0.000000 0.000000 -16.625000 0.937500 0 0 0 0 0.000000 0.000000 0.000000 0.000000
-13.335001 -1.981202 7.696198 -0.000000 -0.000000 1.000000 1.000000 0.000000 0.000000 -14.458333 0.937500 0 0 0 0 0.000000 0.000000 0.000000 0.000000
-13.335001 -2.133602 7.696198 -0.000000 -0.000000 1.000000 1.000000 -0.000000 0.000000 -14.458333 1.000000 0 0 0 0 0.000000 0.000000 0.000000 0.000000
-13.411201 -2.133602 7.696198 -0.000000 -0.000000 1.000000 1.000000 -0.000000 0.000000 -14.541667 1.000000 0 0 0 0 0.000000 0.000000 0.000000 0.000000
-13.982701 -2.133602 7.696198 -0.000000 -0.000000 1.000000 1.000000 0.000000 0.000000 -15.166667 1.000000 0 0 0 0 0.000000 0.000000 0.000000 0.000000
-14.668501 -2.133603 7.696198 -0.000000 -0.000000 1.000000 1.000000 0.000000 0.000000 -15.916667 1.000000 0 0 0 0 0.000000 0.000000 0.000000 0.000000
-15.240001 -2.133603 7.696198 -0.000000 -0.000000 1.000000 1.000000 -0.000000 0.000000 -16.541666 1.000000 0 0 0 0 0.000000 0.000000 0.000000 0.000000
-15.316201 -1.981202 7.696198 -0.000000 1.000000 0.000000 1.000000 0.000000 0.000000 -16.625000 -3.031250 0 0 0 0 0.000000 0.000000 0.000000 0.000000
-15.316201 -1.981202 7.315197 -0.000000 1.000000 0.000000 1.000000 0.000000 -0.000000 -16.625000 -2.875000 0 0 0 0 0.000000 0.000000 0.000000 0.000000
-13.335001 -1.981202 7.315197 -0.000000 1.000000 0.000000 1.000000 0.000000 -0.000000 -14.458333 -2.875000 0 0 0 0 0.000000 0.000000 0.000000 0.000000
-13.335001 -1.981202 7.696198 -0.000000 1.000000 0.000000 1.000000 0.000000 0.000000 -14.458333 -3.031250 0 0 0 0 0.000000 0.000000 0.000000 0.000000
-15.316201 -4.572002 7.696198 -0.000000 -0.000000 1.000000 1.000000 -0.000000 0.000000 -16.312500 2.000000 0 0 0 0 0.000000 0.000000 0.000000 0.000000
-15.316201 -2.133603 7.696198 -0.000000 -0.000000 1.000000 1.000000 0.000000 0.000000 -16.312500 1.000000 0 0 0 0 0.000000 0.000000 0.000000 0.000000
-15.240001 -2.133603 7.696198 -0.000000 -0.000000 1.000000 1.000000 -0.000000 0.000000 -16.229166 1.000000 0 0 0 0 0.000000 0.000000 0.000000 0.000000
-15.240001 -4.114802 7.696198 -0.000000 -0.000000 1.000000 1.000000 -0.000000 0.000000 -16.229166 1.812500 0 0 0 0 0.000000 0.000000 0.000000 0.000000
-15.240001 -4.572002 7.696198 -0.000000 -0.000000 1.000000 1.000000 -0.000000 0.000000 -16.229166 2.000000 0 0 0 0 0.000000 0.000000 0.000000 0.000000
-13.411201 -4.572002 7.696198 -0.000000 -0.000000 1.000000 0.000000 -1.000000 -0.000000 -14.229167 2.000000 0 0 0 0 0.000000 0.000000 0.000000 0.000000
-13.411201 -4.114802 7.696198 -0.000000 -0.000000 1.000000 0.000000 -1.000000 -0.000000 -14.229167 1.812500 0 0 0 0 0.000000 0.000000 0.000000 0.000000
-13.411201 -2.133602 7.696198 -0.000000 -0.000000 1.000000 0.000000 -1.000000 -0.000000 -14.229167 1.000000 0 0 0 0 0.000000 0.000000 0.000000 0.000000
-13.335001 -2.133602 7.696198 -0.000000 -0.000000 1.000000 1.000000 -0.000000 0.000000 -14.145833 1.000000 0 0 0 0 0.000000 0.000000 0.000000 0.000000
-13.335001 -4.572002 7.696198 -0.000000 -0.000000 1.000000 1.000000 -0.000000 0.000000 -14.145833 2.000000 0 0 0 0 0.000000 0.000000 0.000000 0.000000
-15.240001 -4.572002 7.696198 -0.000000 -0.000000 1.000000 1.000000 -0.000000 0.000000 -16.541666 2.000000 0 0 0 0 0.000000 0.000000 0.000000 0.000000
-15.240001 -4.114802 7.696198 -0.000000 -0.000000 1.000000 1.000000 -0.000000 0.000000 -16.541666 1.812500 0 0 0 0 0.000000 0.000000 0.000000 0.000000
-13.411201 -4.114802 7.696198 -0.000000 -0.000000 1.000000 1.000000 -0.000000 0.000000 -14.541667 1.812500 0 0 0 0 0.000000 0.000000 0.000000 0.000000
-13.411201 -4.572002 7.696198 -0.000000 -0.000000 1.000000 1.000000 -0.000000 0.000000 -14.541667 2.000000 0 0 0 0 0.000000 0.000000 0.000000 0.000000
-13.411201 -4.114802 7.696198 -0.000000 1.000000 0.000000 1.000000 0.000000 0.000000 -14.541667 -3.031250 0 0 0 0 0.000000 0.000000 0.000000 0.000000
-15.240001 -4.114802 7.696198 -0.000000 1.000000 0.000000 1.000000 0.000000 0.000000 -16.541666 -3.031250 0 0 0 0 0.000000 0.000000 0.000000 0.000000
-15.240001 -4.114802 7.619998 -0.000000 1.000000 0.000000 1.000000 0.000000 0.000000 -16.541666 -3.000000 0 0 0 0 0.000000 0.000000 0.000000 0.000000
-13.411201 -4.114802 7.619998 -0.000000 1.000000 0.000000 1.000000 0.000000 0.000000 -14.541667 -3.000000 0 0 0 0 0.000000 0.000000 0.000000 0.000000
-13.411201 -4.114802 7.619998 -1.000000 -0.000000 -0.000000 -0.000000 -0.000000 1.000000 8.770833 1.812500 0 0 0 0 0.000000 0.000000 0.000000 0.000000
-13.411201 -2.133602 7.619998 -1.000000 -0.000000 -0.000000 -0.000000 -0.000000 1.000000 8.770833 1.000000 0 0 0 0 0.000000 0.000000 0.000000 0.000000
-13.411201 -2.133602 7.696198 -1.000000 -0.000000 -0.000000 -0.000000 -0.000000 1.000000 8.854167 1.000000 0 0 0 0 0.000000 0.000000 0.000000 0.000000
-13.411201 -4.114802 7.696198 -1.000000 -0.000000 -0.000000 -0.000000 -0.000000 1.000000 8.854167 1.812500 0 0 0 0 0.000000 0.000000 0.000000 0.000000
-15.240001 -4.114802 7.619998 1.000000 0.000000 0.000000 -0.000000 -0.000000 1.000000 8.770833 1.812500 0 0 0 0 0.000000 0.000000 0.000000 0.000000
-15.240001 -4.114802 7.696198 1.000000 0.000000 0.000000 -0.000000 -0.000000 1.000000 8.854167 1.812500 0 0 0 0 0.000000 0.000000 0.000000 0.000000
-15.240001 -2.133603 7.696198 1.000000 0.000000 0.000000 -0.000000 -0.000000 1.000000 8.854167 1.000000 0 0 0 0 0.000000 0.000000 0.000000 0.000000
-15.240001 -2.133603 7.619998 1.000000 0.000000 0.000000 -0.000000 -0.000000 1.000000 8.770833 1.000000 0 0 0 0 0.000000 0.000000 0.000000 0.000000
-11.353800 -1.981202 6.934198 -0.000000 1.000000 0.000000 1.000000 0.000000 -0.000000 -12.291667 -2.679688 0 0 0 0 0.000000 0.000000 0.000000 0.000000
-15.316199 -1.981202 6.934198 -0.000000 1.000000 0.000000 1.000000 0.000000 -0.000000 -16.625000 -2.718750 0 0 0 0 0.000000 0.000000 0.000000 0.000000
-13.335000 -1.981202 6.934198 -0.000000 1.000000 0.000000 1.000000 0.000000 0.000000 -14.458333 -2.718750 0 0 0 0 0.000000 0.000000 0.000000 0.000000
-11.049000 -1.981202 4.343399 -0.000000 1.000000 0.000000 1.000000 0.000000 0.000000 -11.958333 -1.656250 0 0 0 0 0.000000 0.000000 0.000000 0.000000
-11.049000 -1.981201 3.581399 -0.000000 1.000000 0.000000 1.000000 0.000000 0.000000 -11.958333 -1.343750 0 0 0 0 0.000000 0.000000 0.000000 0.000000
-15.316199 -1.981202 4.343399 -0.000000 1.000000 0.000000 1.000000 0.000000 0.000000 -16.625000 -1.656250 0 0 0 0 0.000000 0.000000 0.000000 0.000000
-15.316199 -1.981202 3.581398 -0.000000 1.000000 0.000000 1.000000 0.000000 0.000000 -16.625000 -1.343750 0 0 0 0 0.000000 0.000000 0.000000 0.000000
-11.049000 -1.981201 3.581399 0.000000 0.000002 -1.000000 1.000000 0.000000 0.000000 -11.958333 0.937500 0 0 0 0 0.000000 0.000000 0.000000 0.000000
-11.049000 -2.133601 3.581399 0.000000 0.000002 -1.000000 1.000000 -0.000000 0.000000 -11.958333 1.000000 0 0 0 0 0.000000 0.000000 0.000000 0.000000
-10.706100 -2.133601 3.581399 0.000000 0.000002 -1.000000 1.000000 -0.000000 0.000000 -11.583333 1.000000 0 0 0 0 0.000000 0.000000 0.000000 0.000000
-15.316199 -1.981202 3.581398 0.000000 -0.000001 -1.000000 1.000000 0.000000 0.000000 -16.625000 0.937500 0 0 0 0 0.000000 0.000000 0.000000 0.000000
-15.316199 -2.133602 3.581398 0.000000 -0.000001 -1.000000 1.000000 0.000000 0.000000 -16.625000 1.000000 0 0 0 0 0.000000 0.000000 0.000000 0.000000
-15.240000 -2.133602 3.581398 0.000000 -0.000001 -1.000000 1.000000 0.000000 0.000000 -16.541666 1.000000 0 0 0 0 0.000000 0.000000 0.000000 0.000000
-14.668499 -2.133602 3.581398 0.000000 -0.000001 -1.000000 1.000000 0.000000 0.000000 -15.916667 1.000000 0 0 0 0 0.000000 0.000000 0.000000 0.000000
-13.982700 -2.133602 3.581398 0.000000 -0.000001 -1.000000 1.000000 0.000000 0.000000 -15.166667 1.000000 0 0 0 0 0.000000 0.000000 0.000000 0.000000
-13.411200 -2.133602 3.581398 0.000000 -0.000001 -1.000000 1.000000 0.000000 0.000000 -14.541667 1.000000 0 0 0 0 0.000000 0.000000 0.000000 0.000000
-13.258800 -2.133602 3.581398 0.000000 -0.000001 -1.000000 1.000000 0.000001 0.000000 -14.375000 1.000000 0 0 0 0 0.000000 0.000000 0.000000 0.000000
-12.687300 -2.133602 3.581398 0.000000 -0.000001 -1.000000 1.000000 0.000000 0.000000 -13.750000 1.000000 0 0 0 0 0.000000 0.000000 0.000000 0.000000
-12.001500 -2.133602 3.581399 0.000000 -0.000001 -1.000000 1.000000 -0.000000 0.000000 -13.000000 1.000000 0 0 0 0 0.000000 0.000000 0.000000 0.000000
-11.429999 -2.133601 3.581399 0.000000 -0.000001 -1.000000 1.000000 0.000000 0.000000 -12.375000 1.000000 0 0 0 0 0.000000 0.000000 0.000000 0.000000
-11.277600 -2.133601 3.581399 0.000000 -0.000001 -1.000000 1.000000 0.000000 0.000000 -12.208333 1.000000 0 0 0 0 0.000000 0.000000 0.000000 0.000000
-10.972800 -4.572001 3.581398 0.000000 0.000000 -1.000000 1.000000 -0.000000 0.000000 -11.875000 2.000000 0 0 0 0 0.000000 0.000000 0.000000 0.000000
-10.972800 -4.114801 3.581398 0.000000 0.000000 -1.000000 1.000000 -0.000000 0.000000 -11.875000 1.812500 0 0 0 0 0.000000 0.000000 0.000000 0.000000
-11.277600 -4.114801 3.581398 0.000000 0.000000 -1.000000 1.000000 -0.000000 0.000000 -12.208333 1.812500 0 0 0 0 0.000000 0.000000 0.000000 0.000000
-11.429999 -4.114801 3.581398 0.000000 0.000000 -1.000000 1.000000 -0.000000 0.000000 -12.375000 1.812500 0 0 0 0 0.000000 0.000000 0.000000 0.000000
-13.258800 -4.114802 3.581398 0.000000 0.000000 -1.000000 1.000000 0.000000 0.000000 -14.375000 1.812500 0 0 0 0 0.000000 0.000000 0.000000 0.000000
-13.411200 -4.114802 3.581398 0.000000 0.000000 -1.000000 1.000000 -0.000000 0.000000 -14.541667 1.812500 0 0 0 0 0.000000 0.000000 0.000000 0.000000
-15.240000 -4.114802 3.581398 0.000000 0.000000 -1.000000 1.000000 -0.000000 0.000000 -16.541666 1.812500 0 0 0 0 0.000000 0.000000 0.000000 0.000000
-15.240000 -4.572002 3.581398 0.000000 0.000000 -1.000000 1.000000 0.000000 0.000000 -16.541666 2.000000 0 0 0 0 0.000000 0.000000 0.000000 0.000000
-13.106400 -4.572002 3.581398 0.000000 0.000000 -1.000000 -1.000000 -0.000000 -0.000000 -14.208333 2.000000 0 0 0 0 0.000000 0.000000 0.000000 0.000000
-15.240000 -4.572002 3.581398 0.000000 0.000000 -1.000000 0.000000 -1.000000 -0.000000 -16.541666 2.000000 0 0 0 0 0.000000 0.000000 0.000000 0.000000
-15.240000 -4.114802 3.581398 0.000000 0.000000 -1.000000 0.000000 -1.000000 -0.000000 -16.541666 1.812500 0 0 0 0 0.000000 0.000000 0.000000 0.000000
-15.240000 -2.133602 3.581398 0.000000 0.000000 -1.000000 0.000000 -1.000000 -0.000000 -16.541666 1.000000 0 0 0 0 0.000000 0.000000 0.000000 0.000000
-15.316199 -4.572002 3.581398 0.000000 0.000000 -1.000000 1.000000 -0.000000 0.000000 -16.625000 2.000000 0 0 0 0 0.000000 0.000000 0.000000 0.000000
-15.316199 -4.572002 4.343398 -1.000000 -0.000000 -0.000000 -0.000000 -0.000000 1.000000 4.875000 2.000000 0 0 0 0 0.000000 0.000000 0.000000 0.000000
-15.316199 -4.572002 3.581398 -1.000000 -0.000000 -0.000000 -0.000000 -0.000000 1.000000 4.041667 2.000000 0 0 0 0 0.000000 0.000000 0.000000 0.000000
-15.316199 -2.133602 3.581398 -1.000000 -0.000000 -0.000000 -0.000000 -0.000000 1.000000 4.041667 1.000000 0 0 0 0 0.000000 0.000000 0.000000 0.000000
-15.316199 -1.981202 3.581398 -1.000000 -0.000000 -0.000000 -0.000000 -0.000000 1.000000 4.041667 0.937500 0 0 0 0 0.000000 0.000000 0.000000 0.000000
-15.316199 -1.981202 4.343399 -1.000000 -0.000000 -0.000000 -0.000000 -0.000000 1.000000 4.875000 0.937500 0 0 0 0 0.000000 0.000000 0.000000 0.000000
-15.316199 -2.133602 4.343399 -1.000000 -0.000000 -0.000000 -0.000000 1.000000 0.000000 4.875000 1.000000 0 0 0 0 0.000000 0.000000 0.000000 0.000000
-15.316199 -4.572002 6.934198 -1.000000 -0.000000 -0.000001 -0.000001 0.000000 1.000000 8.020833 2.000000 0 0 0 0 0.000000 0.000000 0.000000 0.000000
-15.316199 -2.133602 6.934198 -1.000000 -0.000000 -0.000001 -0.000001 0.000000 1.000000 8.020833 1.000000 0 0 0 0 0.000000 0.000000 0.000000 0.000000
-15.316199 -1.981202 6.934198 -1.000000 -0.000000 -0.000001 -0.000001 0.000000 1.000000 8.020833 0.937500 0 0 0 0 0.000000 0.000000 0.000000 0.000000
-13.411200 -4.114802 4.343398 -0.000000 -0.000000 1.000000 1.000000 0.000000 0.000000 -14.541667 1.812500 0 0 0 0 0.000000 0.000000 0.000000 0.000000
-13.411200 -2.133602 4.343399 -0.000000 -0.000000 1.000000 1.000000 -0.000000 0.000000 -14.541667 1.000000 0 0 0 0 0.000000 0.000000 0.000000 0.000000
-13.258800 -2.133602 4.343399 -0.000000 -0.000000 1.000000 1.000000 -0.000000 0.000000 -14.375000 1.000000 0 0 0 0 0.000000 0.000000 0.000000 0.000000
-13.258800 -4.114802 4.343398 -0.000000 -0.000000 1.000000 1.000000 -0.000000 0.000000 -14.375000 1.812500 0 0 0 0 0.000000 0.000000 0.000000 0.000000
-11.429999 -4.114802 4.343399 -0.000000 -0.000000 1.000000 1.000000 -0.000000 0.000000 -12.375000 1.812500 0 0 0 0 0.000000 0.000000 0.000000 0.000000
-11.429999 -2.133602 4.343399 -0.000000 -0.000000 1.000000 1.000000 -0.000000 0.000000 -12.375000 1.000000 0 0 0 0 0.000000 0.000000 0.000000 0.000000
-11.277600 -2.133602 4.343399 -0.000000 -0.000000 1.000000 1.000000 -0.000000 0.000000 -12.208333 1.000000 0 0 0 0 0.000000 0.000000 0.000000 0.000000
-11.277600 -4.114802 4.343399 -0.000000 -0.000000 1.000000 1.000000 -0.000000 0.000000 -12.208333 1.812500 0 0 0 0 0.000000 0.000000 0.000000 0.000000
-15.316199 -4.572002 4.343398 -0.000000 -0.000000 1.000000 1.000000 -0.000000 0.000000 -16.625000 2.000000 0 0 0 0 0.000000 0.000000 0.000000 0.000000
-15.316199 -2.133602 4.343399 -0.000000 -0.000000 1.000000 1.000000 -0.000000 0.000000 -16.625000 1.000000 0 0 0 0 0.000000 0.000000 0.000000 0.000000
-15.240000 -2.133602 4.343399 -0.000000 -0.000000 1.000000 1.000000 -0.000000 0.000000 -16.541666 1.000000 0 0 0 0 0.000000 0.000000 0.000000 0.000000
-15.240000 -4.114802 4.343398 -0.000000 -0.000000 1.000000 1.000000 -0.000000 0.000000 -16.541666 1.812500 0 0 0 0 0.000000 0.000000 0.000000 0.000000
-15.240000 -4.572002 4.343398 -0.000000 -0.000000 1.000000 1.000000 -0.000000 0.000000 -16.541666 2.000000 0 0 0 0 0.000000 0.000000 0.000000 0.000000
-10.972800 -4.572001 4.343399 -0.000000 -0.000000 1.000000 1.000000 -0.000000 0.000000 -11.875000 2.000000 0 0 0 0 0.000000 0.000000 0.000000 0.000000
-10.972800 -4.114801 4.343399 -0.000000 -0.000000 1.000000 1.000000 0.000000 0.000000 -11.875000 1.812500 0 0 0 0 0.000000 0.000000 0.000000 0.000000
-10.972800 -4.572001 4.343399 -0.000000 0.000000 1.000000 1.000000 0.000000 0.000000 -11.875000 2.000000 0 0 0 0 0.000000 0.000000 0.000000 0.000000
-13.106400 -4.572002 4.343398 -0.000000 0.000000 1.000000 1.000000 0.000000 0.000000 -14.208333 2.000000 0 0 0 0 0.000000 0.000000 0.000000 0.000000
-15.240000 -4.572002 4.343398 -0.000000 0.000000 1.000000 1.000000 0.000000 0.000000 -16.541666 2.000000 0 0 0 0 0.000000 0.000000 0.000000 0.000000
-10.629900 -2.133602 4.343399 -0.000000 -0.000000 1.000000 1.000000 -0.000000 0.000000 -11.500000 1.000000 0 0 0 0 0.000000 0.000000 0.000000 0.000000
-10.706100 -2.133602 4.343399 -0.000000 -0.000000 1.000000 1.000000 -0.000000 0.000000 -11.583333 1.000000 0 0 0 0 0.000000 0.000000 0.000000 0.000000
-11.049000 -2.133602 4.343399 -0.000000 -0.000000 1.000000 1.000000 -0.000000 0.000000 -11.958333 1.000000 0 0 0 0 0.000000 0.000000 0.000000 0.000000
-11.049000 -1.981202 4.343399 -0.000000 -0.000000 1.000000 1.000000 0.000000 0.000000 -11.958333 0.937500 0 0 0 0 0.000000 0.000000 0.000000 0.000000
-11.277600 -2.133602 4.343399 -0.000000 -0.000003 1.000000 1.000000 -0.000000 0.000000 -12.208333 1.000000 0 0 0 0 0.000000 0.000000 0.000000 0.000000
-11.429999 -2.133602 4.343399 -0.000000 -0.000003 1.000000 1.000000 -0.000000 0.000000 -12.375000 1.000000 0 0 0 0 0.000000 0.000000 0.000000 0.000000
-12.001500 -2.133602 4.343399 -0.000000 -0.000003 1.000000 1.000000 0.000000 0.000000 -13.000000 1.000000 0 0 0 0 0.000000 0.000000 0.000000 0.000000
-12.687300 -2.133602 4.343399 -0.000000 -0.000003 1.000000 1.000000 0.000000 0.000000 -13.750000 1.000000 0 0 0 0 0.000000 0.000000 0.000000 0.000000
-13.258800 -2.133602 4.343399 -0.000000 -0.000003 1.000000 1.000000 -0.000000 0.000000 -14.375000 1.000000 0 0 0 0 0.000000 0.000000 0.000000 0.000000
-13.411200 -2.133602 4.343399 -0.000000 -0.000003 1.000000 1.000000 0.000000 0.000000 -14.541667 1.000000 0 0 0 0 0.000000 0.000000 0.000000 0.000000
-13.982700 -2.133602 4.343399 -0.000000 -0.000003 1.000000 1.000000 0.000000 0.000000 -15.166667 1.000000 0 0 0 0 0.000000 0.000000 0.000000 0.000000
-14.668499 -2.133602 4.343399 -0.000000 -0.000003 1.000000 1.000000 -0.000000 0.000000 -15.916667 1.000000 0 0 0 0 0.000000 0.000000 0.000000 0.000000
-15.240000 -2.133602 4.343399 -0.000000 -0.000003 1.000000 1.000000 -0.000000 0.000000 -16.541666 1.000000 0 0 0 0 0.000000 0.000000 0.000000 0.000000
-15.316199 -2.133602 4.343399 -0.000000 -0.000003 1.000000 1.000000 0.000000 0.000000 -16.625000 1.000000 0 0 0 0 0.000000 0.000000 0.000000 0.000000
-15.316199 -1.981202 4.343399 -0.000000 -0.000003 1.000000 1.000000 0.000000 0.000000 -16.625000 0.937500 0 0 0 0 0.000000 0.000000 0.000000 0.000000
-13.335000 -1.981202 6.934198 1.000000 0.000000 0.000000 -0.000000 0.000000 1.000000 7.708333 0.937500 0 0 0 0 0.000000 0.000000 0.000000 0.000000
-13.335000 -2.133602 6.934198 1.000000 0.000000 0.000000 -0.000000 0.000000 1.000000 7.708333 1.000000 0 0 0 0 0.000000 0.000000 0.000000 0.000000
-13.335000 -2.133602 6.934198 1.000000 0.000000 0.000000 -0.000000 0.000000 1.000000 8.020833 1.000000 0 0 0 0 0.000000 0.000000 0.000000 0.000000
-13.335000 -4.572002 6.934198 1.000000 0.000000 0.000000 -0.000000 0.000000 1.000000 8.020833 2.000000 0 0 0 0 0.000000 0.000000 0.000000 0.000000
-11.277600 -4.114802 6.934198 0.000000 0.000000 -1.000000 1.000000 -0.000000 0.000000 -12.208333 1.812500 0 0 0 0 0.000000 0.000000 0.000000 0.000000
-11.277600 -4.572002 6.934198 0.000000 0.000000 -1.000000 1.000000 -0.000000 0.000000 -12.208333 2.000000 0 0 0 0 0.000000 0.000000 0.000000 0.000000
-11.277600 -4.572002 6.934198 0.000000 0.000000 -1.000000 0.000000 -1.000000 -0.000000 -11.895833 2.000000 0 0 0 0 0.000000 0.000000 0.000000 0.000000
-11.277600 -4.114802 6.934198 0.000000 0.000000 -1.000000 0.000000 -1.000000 -0.000000 -11.895833 1.812500 0 0 0 0 0.000000 0.000000 0.000000 0.000000
-11.277600 -2.133602 6.934198 0.000000 0.000000 -1.000000 0.000000 -1.000000 -0.000000 -11.895833 1.000000 0 0 0 0 0.000000 0.000000 0.000000 0.000000
-11.353800 -2.133602 6.934198 0.000000 0.000000 -1.000000 1.000000 -0.000000 0.000000 -11.979167 1.000000 0 0 0 0 0.000000 0.000000 0.000000 0.000000
-11.353800 -4.572002 6.934198 0.000000 0.000000 -1.000000 1.000000 -0.000000 0.000000 -11.979167 2.000000 0 0 0 0 0.000000 0.000000 0.000000 0.000000
-10.629900 -2.133602 6.934198 0.000000 0.000002 -1.000000 1.000000 0.000000 0.000000 -11.500000 1.000000 0 0 0 0 0.000000 0.000000 0.000000 0.000000
-11.353800 -1.981202 6.934198 0.000000 0.000002 -1.000000 1.000000 0.000000 0.000000 -12.291667 0.937500 0 0 0 0 0.000000 0.000000 0.000000 0.000000
-11.353800 -2.133602 6.934198 0.000000 0.000002 -1.000000 1.000000 -0.000000 0.000000 -12.291667 1.000000 0 0 0 0 0.000000 0.000000 0.000000 0.000000
-11.277600 -2.133602 6.934198 0.000000 0.000002 -1.000000 1.000000 0.000000 0.000000 -12.208333 1.000000 0 0 0 0 0.000000 0.000000 0.000000 0.000000
-10.706100 -2.133602 6.934198 0.000000 0.000002 -1.000000 -1.000000 -0.000000 -0.000000 -11.583333 1.000000 0 0 0 0 0.000000 0.000000 0.000000 0.000000
-11.353800 -1.981202 6.934198 -1.000000 -0.000000 0.000002 0.000002 0.000000 1.000000 8.020833 0.937500 0 0 0 0 0.000000 0.000000 0.000000 0.000000
-11.353800 -4.572002 6.934198 -1.000000 -0.000000 0.000002 0.000002 0.000000 1.000000 8.020833 2.000000 0 0 0 0 0.000000 0.000000 0.000000 0.000000
-11.353800 -2.133602 6.934198 -1.000000 -0.000000 0.000002 0.000000 -1.000000 -0.000000 8.020833 1.000000 0 0 0 0 0.000000 0.000000 0.000000 0.000000
-11.277601 -4.114802 7.010398 -0.000000 1.000000 0.000000 1.000000 0.000000 0.000000 -12.208333 -2.750000 0 0 0 0 0.000000 0.000000 0.000000 0.000000
-11.277600 -4.114802 6.934198 -0.000000 1.000000 0.000000 1.000000 0.000000 0.000000 -12.208333 -2.718750 0 0 0 0 0.000000 0.000000 0.000000 0.000000
-11.277601 -2.133602 7.010398 0.000000 -1.000000 -0.000000 1.000000 0.000000 0.000000 -11.895833 -2.750000 0 0 0 0 0.000000 0.000000 0.000000 0.000000
-10.706102 -2.133602 7.010398 0.000000 -1.000000 -0.000000 1.000000 0.000000 0.000000 -11.270833 -2.750000 0 0 0 0 0.000000 0.000000 0.000000 0.000000
-10.706100 -2.133602 6.934198 0.000000 -1.000000 -0.000000 1.000000 0.000000 0.000000 -11.270833 -2.718750 0 0 0 0 0.000000 0.000000 0.000000 0.000000
-11.277600 -2.133602 6.934198 0.000000 -1.000000 -0.000000 1.000000 0.000000 0.000000 -11.895833 -2.718750 0 0 0 0 0.000000 0.000000 0.000000 0.000000
-11.277601 -4.114802 7.010398 1.000000 0.000000 0.000000 -0.000000 0.000000 1.000000 8.104167 1.812500 0 0 0 0 0.000000 0.000000 0.000000 0.000000
-11.277601 -2.133602 7.010398 1.000000 0.000000 0.000000 -0.000000 0.000000 1.000000 8.104167 1.000000 0 0 0 0 0.000000 0.000000 0.000000 0.000000
-11.277600 -2.133602 6.934198 1.000000 0.000000 0.000000 -0.000000 0.000000 1.000000 8.020833 1.000000 0 0 0 0 0.000000 0.000000 0.000000 0.000000
-11.277600 -4.114802 6.934198 1.000000 0.000000 0.000000 -0.000000 0.000000 1.000000 8.020833 1.812500 0 0 0 0 0.000000 0.000000 0.000000 0.000000
-15.316199 -1.981202 6.934198 0.000000 0.000001 -1.000000 1.000000 -0.000000 0.000000 -16.625000 0.937500 0 0 0 0 0.000000 0.000000 0.000000 0.000000
-15.316199 -2.133602 6.934198 0.000000 0.000001 -1.000000 1.000000 -0.000000 0.000000 -16.625000 1.000000 0 0 0 0 0.000000 0.000000 0.000000 0.000000
-15.240000 -2.133602 6.934198 0.000000 0.000001 -1.000000 1.000000 -0.000000 0.000000 -16.541666 1.000000 0 0 0 0 0.000000 0.000000 0.000000 0.000000
-14.668499 -2.133602 6.934198 0.000000 0.000001 -1.000000 1.000000 -0.000000 0.000000 -15.916667 1.000000 0 0 0 0 0.000000 0.000000 0.000000 0.000000
-13.982700 -2.133602 6.934198 0.000000 0.000001 -1.000000 1.000000 0.000000 0.000000 -15.166667 1.000000 0 0 0 0 0.000000 0.000000 0.000000 0.000000
-13.411200 -2.133602 6.934198 0.000000 0.000001 -1.000000 1.000000 -0.000000 0.000000 -14.541667 1.000000 0 0 0 0 0.000000 0.000000 0.000000 0.000000
-13.335000 -2.133602 6.934198 0.000000 0.000001 -1.000000 1.000000 -0.000000 0.000000 -14.458333 1.000000 0 0 0 0 0.000000 0.000000 0.000000 0.000000
-13.335000 -1.981202 6.934198 0.000000 0.000001 -1.000000 1.000000 0.000000 0.000000 -14.458333 0.937500 0 0 0 0 0.000000 0.000000 0.000000 0.000000
-13.411200 -4.572002 6.934198 0.000000 0.000000 -1.000000 1.000000 -0.000000 0.000000 -14.541667 2.000000 0 0 0 0 0.000000 0.000000 0.000000 0.000000
-13.411200 -4.114802 6.934198 0.000000 0.000000 -1.000000 1.000000 0.000000 0.000000 -14.541667 1.812500 0 0 0 0 0.000000 0.000000 0.000000 0.000000
-15.240000 -4.114802 6.934198 0.000000 0.000000 -1.000000 1.000000 -0.000000 0.000000 -16.541666 1.812500 0 0 0 0 0.000000 0.000000 0.000000 0.000000
-15.240000 -4.572002 6.934198 0.000000 0.000000 -1.000000 1.000000 -0.000000 0.000000 -16.541666 2.000000 0 0 0 0 0.000000 0.000000 0.000000 0.000000
-13.335000 -4.572002 6.934198 0.000000 0.000000 -1.000000 1.000000 -0.000000 0.000000 -14.145833 2.000000 0 0 0 0 0.000000 0.000000 0.000000 0.000000
-13.335000 -2.133602 6.934198 0.000000 0.000000 -1.000000 1.000000 -0.000000 0.000000 -14.145833 1.000000 0 0 0 0 0.000000 0.000000 0.000000 0.000000
-13.411200 -2.133602 6.934198 0.000000 0.000000 -1.000000 1.000000 -0.000000 0.000000 -14.229167 1.000000 0 0 0 0 0.000000 0.000000 0.000000 0.000000
-13.411200 -4.114802 6.934198 0.000000 0.000000 -1.000000 1.000000 0.000000 0.000000 -14.229167 1.812500 0 0 0 0 0.000000 0.000000 0.000000 0.000000
-13.411200 -4.572002 6.934198 0.000000 0.000000 -1.000000 1.000000 -0.000000 0.000000 -14.229167 2.000000 0 0 0 0 0.000000 0.000000 0.000000 0.000000
-15.240000 -4.572002 6.934198 0.000000 0.000000 -1.000000 0.000000 -1.000000 -0.000000 -16.229166 2.000000 0 0 0 0 0.000000 0.000000 0.000000 0.000000
-15.240000 -4.114802 6.934198 0.000000 0.000000 -1.000000 0.000000 -1.000000 -0.000000 -16.229166 1.812500 0 0 0 0 0.000000 0.000000 0.000000 0.000000
-15.240000 -2.133602 6.934198 0.000000 0.000000 -1.000000 0.000000 -1.000000 -0.000000 -16.229166 1.000000 0 0 0 0 0.000000 0.000000 0.000000 0.000000
-15.316199 -2.133602 6.934198 0.000000 0.000000 -1.000000 1.000000 -0.000000 0.000000 -16.312500 1.000000 0 0 0 0 0.000000 0.000000 0.000000 0.000000
-15.316199 -4.572002 6.934198 0.000000 0.000000 -1.000000 1.000000 -0.000000 0.000000 -16.312500 2.000000 0 0 0 0 0.000000 0.000000 0.000000 0.000000
-13.411201 -4.114802 7.010398 -0.000000 1.000000 0.000000 1.000000 0.000000 0.000000 -14.541667 -2.750000 0 0 0 0 0.000000 0.000000 0.000000 0.000000
-15.240001 -4.114802 7.010398 -0.000000 1.000000 0.000000 1.000000 0.000000 0.000000 -16.541666 -2.750000 0 0 0 0 0.000000 0.000000 0.000000 0.000000
-15.240000 -4.114802 6.934198 -0.000000 1.000000 0.000000 1.000000 0.000000 0.000000 -16.541666 -2.718750 0 0 0 0 0.000000 0.000000 0.000000 0.000000
-13.411200 -4.114802 6.934198 -0.000000 1.000000 0.000000 1.000000 0.000000 0.000000 -14.541667 -2.718750 0 0 0 0 0.000000 0.000000 0.000000 0.000000
-15.240001 -2.133602 7.010398 0.000000 -1.000000 -0.000000 1.000000 0.000000 0.000000 -16.541666 -2.750000 0 0 0 0 0.000000 0.000000 0.000000 0.000000
-14.668501 -2.133602 7.010398 0.000000 -1.000000 -0.000000 1.000000 0.000000 0.000000 -15.916667 -2.750000 0 0 0 0 0.000000 0.000000 0.000000 0.000000
-14.668499 -2.133602 6.934198 0.000000 -1.000000 -0.000000 1.000000 0.000000 0.000000 -15.916667 -2.718750 0 0 0 0 0.000000 0.000000 0.000000 0.000000
-15.240000 -2.133602 6.934198 0.000000 -1.000000 -0.000000 1.000000 0.000000 0.000000 -16.541666 -2.718750 0 0 0 0 0.000000 0.000000 0.000000 0.000000
-13.411201 -2.133602 7.010398 0.000000 -1.000000 -0.000000 1.000000 0.000000 0.000000 -14.541667 -2.750000 0 0 0 0 0.000000 0.000000 0.000000 0.000000
-13.411200 -2.133602 6.934198 0.000000 -1.000000 -0.000000 1.000000 0.000000 0.000000 -14.541667 -2.718750 0 0 0 0 0.000000 0.000000 0.000000 0.000000
-13.982700 -2.133602 6.934198 0.000000 -1.000000 -0.000000 1.000000 0.000000 0.000000 -15.166667 -2.718750 0 0 0 0 0.000000 0.000000 0.000000 0.000000
-13.982701 -2.133602 7.010398 0.000000 -1.000000 -0.000000 1.000000 0.000000 0.000000 -15.166667 -2.750000 0 0 0 0 0.000000 0.000000 0.000000 0.000000
-15.240001 -4.114802 7.010398 1.000000 0.000000 0.000000 -0.000000 0.000000 1.000000 8.104167 1.812500 0 0 0 0 0.000000 0.000000 0.000000 0.000000
-15.240001 -2.133602 7.010398 1.000000 0.000000 0.000000 -0.000000 0.000000 1.000000 8.104167 1.000000 0 0 0 0 0.000000 0.000000 0.000000 0.000000
-15.240000 -2.133602 6.934198 1.000000 0.000000 0.000000 -0.000000 0.000000 1.000000 8.020833 1.000000 0 0 0 0 0.000000 0.000000 0.000000 0.000000
-15.240000 -4.114802 6.934198 1.000000 0.000000 0.000000 -0.000000 0.000000 1.000000 8.020833 1.812500 0 0 0 0 0.000000 0.000000 0.000000 0.000000
-13.411201 -4.114802 7.010398 -1.000000 -0.000000 -0.000000 -0.000000 0.000000 1.000000 8.104167 1.812500 0 0 0 0 0.000000 0.000000 0.000000 0.000000
-13.411200 -4.114802 6.934198 -1.000000 -0.000000 -0.000000 -0.000000 0.000000 1.000000 8.020833 1.812500 0 0 0 0 0.000000 0.000000 0.000000 0.000000
-13.411200 -2.133602 6.934198 -1.000000 -0.000000 -0.000000 -0.000000 0.000000 1.000000 8.020833 1.000000 0 0 0 0 0.000000 0.000000 0.000000 0.000000
-13.411201 -2.133602 7.010398 -1.000000 -0.000000 -0.000000 -0.000000 0.000000 1.000000 8.104167 1.000000 0 0 0 0 0.000000 0.000000 0.000000 0.000000
-13.258800 -4.114802 4.267198 1.000000 0.000000 0.000000 -0.000000 -0.000000 1.000000 4.791667 1.812500 0 0 0 0 0.000000 0.000000 0.000000 0.000000
-13.258800 -4.114802 4.343398 1.000000 0.000000 0.000000 -0.000000 -0.000000 1.000000 4.875000 1.812500 0 0 0 0 0.000000 0.000000 0.000000 0.000000
-13.258800 -2.133602 4.343399 1.000000 0.000000 0.000000 -0.000000 -0.000000 1.000000 4.875000 1.000000 0 0 0 0 0.000000 0.000000 0.000000 0.000000
-13.258800 -2.133602 4.267199 1.000000 0.000000 0.000000 -0.000000 -0.000000 1.000000 4.791667 1.000000 0 0 0 0 0.000000 0.000000 0.000000 0.000000
-13.258800 -4.114802 3.657598 1.000000 0.000000 0.000000 -0.000000 -0.000000 1.000000 4.125000 1.812500 0 0 0 0 0.000000 0.000000 0.000000 0.000000
-13.258800 -2.133602 3.657598 1.000000 0.000000 0.000000 -0.000000 -0.000000 1.000000 4.125000 1.000000 0 0 0 0 0.000000 0.000000 0.000000 0.000000
-13.258800 -2.133602 3.581398 1.000000 0.000000 0.000000 -0.000000 -0.000002 1.000000 4.041667 1.000000 0 0 0 0 0.000000 0.000000 0.000000 0.000000
-13.258800 -4.114802 3.581398 1.000000 0.000000 0.000000 -0.000000 -0.000000 1.000000 4.041667 1.812500 0 0 0 0 0.000000 0.000000 0.000000 0.000000
-11.429999 -4.114802 4.267199 -1.000000 -0.000000 -0.000000 -0.000000 -0.000000 1.000000 4.791667 1.812500 0 0 0 0 0.000000 0.000000 0.000000 0.000000
-11.429999 -2.133602 4.267199 -1.000000 -0.000000 -0.000000 -0.000000 -0.000000 1.000000 4.791667 1.000000 0 0 0 0 0.000000 0.000000 0.000000 0.000000
-11.429999 -2.133602 4.343399 -1.000000 -0.000000 -0.000000 -0.000000 -0.000000 1.000000 4.875000 1.000000 0 0 0 0 0.000000 0.000000 0.000000 0.000000
-11.429999 -4.114802 4.343399 -1.000000 -0.000000 -0.000000 -0.000000 -0.000000 1.000000 4.875000 1.812500 0 0 0 0 0.000000 0.000000 0.000000 0.000000
-11.429999 -4.114801 3.657598 -1.000000 -0.000000 -0.000000 -0.000000 -0.000000 1.000000 4.125000 1.812500 0 0 0 0 0.000000 0.000000 0.000000 0.000000
-11.429999 -4.114801 3.581398 -1.000000 -0.000000 -0.000000 -0.000000 -0.000000 1.000000 4.041667 1.812500 0 0 0 0 0.000000 0.000000 0.000000 0.000000
-11.429999 -2.133601 3.581399 -1.000000 -0.000000 -0.000000 -0.000000 -0.000000 1.000000 4.041667 1.000000 0 0 0 0 0.000000 0.000000 0.000000 0.000000
-11.429999 -2.133601 3.657598 -1.000000 -0.000000 -0.000000 -0.000000 -0.000000 1.000000 4.125000 1.000000 0 0 0 0 0.000000 0.000000 0.000000 0.000000
-11.277600 -4.114802 4.267199 0.000000 -1.000000 -0.000000 1.000000 0.000000 0.000000 -12.208333 -1.625000 0 0 0 0 0.000000 0.000000 0.000000 0.000000
-11.277600 -4.114801 3.657598 0.000000 -1.000000 -0.000000 1.000000 0.000000 0.000000 -12.208333 -1.375000 0 0 0 0 0.000000 0.000000 0.000000 0.000000
-11.429999 -4.114801 3.657598 0.000000 -1.000000 -0.000000 1.000000 0.000000 0.000000 -12.375000 -1.375000 0 0 0 0 0.000000 0.000000 0.000000 0.000000
-11.429999 -4.114802 4.267199 0.000000 -1.000000 -0.000000 1.000000 0.000000 0.000000 -12.375000 -1.625000 0 0 0 0 0.000000 0.000000 0.000000 0.000000
-10.629900 -4.114801 4.343399 -0.000000 1.000000 0.000000 1.000000 0.000000 -0.000000 -11.500000 -1.656250 0 0 0 0 0.000000 0.000000 0.000000 0.000000
-10.972800 -4.114801 4.343399 -0.000000 1.000000 0.000000 1.000000 0.000000 -0.000000 -11.875000 -1.656250 0 0 0 0 0.000000 0.000000 0.000000 0.000000
-11.277600 -4.114802 4.343399 -0.000000 1.000000 0.000000 1.000000 0.000000 -0.000000 -12.208333 -1.656250 0 0 0 0 0.000000 0.000000 0.000000 0.000000
-11.277600 -4.114802 4.267199 -0.000000 1.000000 0.000000 1.000000 0.000000 -0.000000 -12.208333 -1.625000 0 0 0 0 0.000000 0.000000 0.000000 0.000000
-11.277600 -4.114801 3.657598 -0.000000 1.000000 0.000000 1.000000 0.000000 0.000000 -12.208333 -1.375000 0 0 0 0 0.000000 0.000000 0.000000 0.000000
-11.277600 -4.114801 3.581398 -0.000000 1.000000 0.000000 1.000000 0.000000 0.000000 -12.208333 -1.343750 0 0 0 0 0.000000 0.000000 0.000000 0.000000
-10.972800 -4.114801 3.581398 -0.000000 1.000000 0.000000 1.000000 0.000000 0.000000 -11.875000 -1.343750 0 0 0 0 0.000000 0.000000 0.000000 0.000000
-11.277600 -2.133601 3.657598 0.000000 -1.000000 -0.000000 1.000000 0.000000 0.000000 -12.208333 -1.375000 0 0 0 0 0.000000 0.000000 0.000000 0.000000
-10.706100 -2.133601 3.657598 0.000000 -1.000000 -0.000000 1.000000 0.000000 0.000000 -11.583333 -1.375000 0 0 0 0 0.000000 0.000000 0.000000 0.000000
-10.706100 -2.133601 3.581399 0.000000 -1.000000 -0.000000 1.000000 0.000000 0.000000 -11.583333 -1.343750 0 0 0 0 0.000000 0.000000 0.000000 0.000000
-11.049000 -2.133601 3.581399 0.000000 -1.000000 -0.000000 1.000000 0.000000 0.000000 -11.958333 -1.343750 0 0 0 0 0.000000 0.000000 0.000000 0.000000
-11.277600 -2.133601 3.581399 0.000000 -1.000000 -0.000000 1.000000 0.000000 0.000000 -12.208333 -1.343750 0 0 0 0 0.000000 0.000000 0.000000 0.000000
-10.706100 -2.133602 4.267199 0.000000 -1.000000 -0.000000 1.000000 0.000000 0.000000 -11.583333 -1.625000 0 0 0 0 0.000000 0.000000 0.000000 0.000000
-11.277600 -2.133602 4.267199 0.000000 -1.000000 -0.000000 1.000000 0.000000 0.000000 -12.208333 -1.625000 0 0 0 0 0.000000 0.000000 0.000000 0.000000
-11.277600 -2.133602 4.343399 0.000000 -1.000000 -0.000000 1.000000 0.000000 0.000000 -12.208333 -1.656250 0 0 0 0 0.000000 0.000000 0.000000 0.000000
-11.049000 -2.133602 4.343399 0.000000 -1.000000 -0.000000 1.000000 0.000000 0.000000 -11.958333 -1.656250 0 0 0 0 0.000000 0.000000 0.000000 0.000000
-10.706100 -2.133602 4.343399 0.000000 -1.000000 -0.000000 1.000000 0.000000 0.000000 -11.583333 -1.656250 0 0 0 0 0.000000 0.000000 0.000000 0.000000
-11.277600 -4.114801 3.657598 1.000000 0.000000 0.000000 -0.000000 -0.000000 1.000000 4.125000 1.812500 0 0 0 0 0.000000 0.000000 0.000000 0.000000
-11.277600 -2.133601 3.657598 1.000000 0.000000 0.000000 -0.000000 -0.000000 1.000000 4.125000 1.000000 0 0 0 0 0.000000 0.000000 0.000000 0.000000
-11.277600 -2.133601 3.581399 1.000000 0.000000 0.000000 -0.000000 -0.000000 1.000000 4.041667 1.000000 0 0 0 0 0.000000 0.000000 0.000000 0.000000
-11.277600 -4.114801 3.581398 1.000000 0.000000 0.000000 -0.000000 -0.000000 1.000000 4.041667 1.812500 0 0 0 0 0.000000 0.000000 0.000000 0.000000
-11.277600 -4.114802 4.267199 1.000000 0.000000 0.000000 -0.000000 -0.000000 1.000000 4.791667 1.812500 0 0 0 0 0.000000 0.000000 0.000000 0.000000
-11.277600 -4.114802 4.343399 1.000000 0.000000 0.000000 -0.000000 -0.000000 1.000000 4.875000 1.812500 0 0 0 0 0.000000 0.000000 0.000000 0.000000
-11.277600 -2.133602 4.343399 1.000000 0.000000 0.000000 -0.000000 -0.000000 1.000000 4.875000 1.000000 0 0 0 0 0.000000 0.000000 0.000000 0.000000
-11.277600 -2.133602 4.267199 1.000000 0.000000 0.000000 -0.000000 -0.000000 1.000000 4.791667 1.000000 0 0 0 0 0.000000 0.000000 0.000000 0.000000
-11.429999 -4.572002 4.267199 0.000000 0.000000 -1.000000 1.000000 -0.000000 0.000000 -12.375000 2.000000 0 0 0 0 0.000000 0.000000 0.000000 0.000000
-11.277600 -4.572002 4.267199 0.000000 0.000000 -1.000000 1.000000 -0.000000 0.000000 -12.208333 2.000000 0 0 0 0 0.000000 0.000000 0.000000 0.000000
-11.277600 -4.114802 4.267199 0.000000 0.000000 -1.000000 1.000000 -0.000000 0.000000 -12.208333 1.812500 0 0 0 0 0.000000 0.000000 0.000000 0.000000
-11.429999 -4.114802 4.267199 0.000000 0.000000 -1.000000 1.000000 -0.000000 0.000000 -12.375000 1.812500 0 0 0 0 0.000000 0.000000 0.000000 0.000000
-11.277600 -4.572001 3.657598 -0.000000 -0.000000 1.000000 1.000000 -0.000000 0.000000 -12.208333 2.000000 0 0 0 0 0.000000 0.000000 0.000000 0.000000
-11.429999 -4.572001 3.657598 -0.000000 -0.000000 1.000000 1.000000 -0.000000 0.000000 -12.375000 2.000000 0 0 0 0 0.000000 0.000000 0.000000 0.000000
-11.429999 -4.114801 3.657598 -0.000000 -0.000000 1.000000 1.000000 -0.000000 0.000000 -12.375000 1.812500 0 0 0 0 0.000000 0.000000 0.000000 0.000000
-11.277600 -4.114801 3.657598 -0.000000 -0.000000 1.000000 1.000000 -0.000000 0.000000 -12.208333 1.812500 0 0 0 0 0.000000 0.000000 0.000000 0.000000
-11.429999 -4.114802 4.343399 -0.000000 1.000000 0.000000 1.000000 0.000000 0.000000 -12.375000 -1.656250 0 0 0 0 0.000000 0.000000 0.000000 0.000000
-13.258800 -4.114802 4.343398 -0.000000 1.000000 0.000000 1.000000 0.000000 0.000000 -14.375000 -1.656250 0 0 0 0 0.000000 0.000000 0.000000 0.000000
-13.258800 -4.114802 4.267198 -0.000000 1.000000 0.000000 1.000000 0.000000 0.000000 -14.375000 -1.625000 0 0 0 0 0.000000 0.000000 0.000000 0.000000
-11.429999 -4.114802 4.267199 -0.000000 1.000000 0.000000 1.000000 0.000000 0.000000 -12.375000 -1.625000 0 0 0 0 0.000000 0.000000 0.000000 0.000000
-11.429999 -4.114801 3.657598 -0.000000 1.000000 0.000000 1.000000 0.000000 0.000000 -12.375000 -1.375000 0 0 0 0 0.000000 0.000000 0.000000 0.000000
-13.258800 -4.114802 3.657598 -0.000000 1.000000 0.000000 1.000000 0.000000 0.000000 -14.375000 -1.375000 0 0 0 0 0.000000 0.000000 0.000000 0.000000
-13.258800 -4.114802 3.581398 -0.000000 1.000000 0.000000 1.000000 0.000000 0.000000 -14.375000 -1.343750 0 0 0 0 0.000000 0.000000 0.000000 0.000000
-11.429999 -4.114801 3.581398 -0.000000 1.000000 0.000000 1.000000 0.000000 0.000000 -12.375000 -1.343750 0 0 0 0 0.000000 0.000000 0.000000 0.000000
-13.258800 -2.133602 3.657598 0.000000 -1.000000 -0.000000 1.000000 0.000000 -0.000000 -14.375000 -1.375000 0 0 0 0 0.000000 0.000000 0.000000 0.000000
-12.687300 -2.133602 3.657598 0.000000 -1.000000 -0.000000 1.000000 0.000000 -0.000000 -13.750000 -1.375000 0 0 0 0 0.000000 0.000000 0.000000 0.000000
-12.687300 -2.133602 3.581398 0.000000 -1.000000 -0.000000 1.000000 0.000000 0.000000 -13.750000 -1.343750 0 0 0 0 0.000000 0.000000 0.000000 0.000000
-13.258800 -2.133602 3.581398 0.000000 -1.000000 -0.000000 1.000000 0.000000 -0.000000 -14.375000 -1.343750 0 0 0 0 0.000000 0.000000 0.000000 0.000000
-12.687300 -2.133602 4.267199 0.000000 -1.000000 -0.000000 1.000000 0.000000 0.000000 -13.750000 -1.625000 0 0 0 0 0.000000 0.000000 0.000000 0.000000
-13.258800 -2.133602 4.267199 0.000000 -1.000000 -0.000000 1.000000 0.000000 0.000000 -14.375000 -1.625000 0 0 0 0 0.000000 0.000000 0.000000 0.000000
-13.258800 -2.133602 4.343399 0.000000 -1.000000 -0.000000 1.000000 0.000000 0.000000 -14.375000 -1.656250 0 0 0 0 0.000000 0.000000 0.000000 0.000000
-12.687300 -2.133602 4.343399 0.000000 -1.000000 -0.000000 1.000000 0.000000 0.000000 -13.750000 -1.656250 0 0 0 0 0.000000 0.000000 0.000000 0.000000
-11.429999 -2.133601 3.657598 0.000000 -1.000000 -0.000000 1.000000 0.000000 -0.000000 -12.375000 -1.375000 0 0 0 0 0.000000 0.000000 0.000000 0.000000
-11.429999 -2.133601 3.581399 0.000000 -1.000000 -0.000000 1.000000 0.000000 -0.000000 -12.375000 -1.343750 0 0 0 0 0.000000 0.000000 0.000000 0.000000
-12.001500 -2.133602 3.581399 0.000000 -1.000000 -0.000000 1.000000 0.000000 -0.000000 -13.000000 -1.343750 0 0 0 0 0.000000 0.000000 0.000000 0.000000
-12.001500 -2.133602 3.657598 0.000000 -1.000000 -0.000000 1.000000 0.000000 -0.000000 -13.000000 -1.375000 0 0 0 0 0.000000 0.000000 0.000000 0.000000
-11.429999 -2.133602 4.267199 0.000000 -1.000000 -0.000000 1.000000 0.000000 0.000000 -12.375000 -1.625000 0 0 0 0 0.000000 0.000000 0.000000 0.000000
-12.001500 -2.133602 4.267199 0.000000 -1.000000 -0.000000 1.000000 0.000000 0.000000 -13.000000 -1.625000 0 0 0 0 0.000000 0.000000 0.000000 0.000000
-12.001500 -2.133602 4.343399 0.000000 -1.000000 -0.000000 1.000000 0.000000 -0.000000 -13.000000 -1.656250 0 0 0 0 0.000000 0.000000 0.000000 0.000000
-11.429999 -2.133602 4.343399 0.000000 -1.000000 -0.000000 1.000000 0.000000 0.000000 -12.375000 -1.656250 0 0 0 0 0.000000 0.000000 0.000000 0.000000
-13.411200 -4.114802 3.657598 -0.000000 1.000000 0.000000 1.000000 0.000000 0.000000 -14.541667 -1.375000 0 0 0 0 0.000000 0.000000 0.000000 0.000000
-15.240000 -4.114802 3.657598 -0.000000 1.000000 0.000000 1.000000 0.000000 0.000000 -16.541666 -1.375000 0 0 0 0 0.000000 0.000000 0.000000 0.000000
-15.240000 -4.114802 3.581398 -0.000000 1.000000 0.000000 1.000000 0.000000 0.000000 -16.541666 -1.343750 0 0 0 0 0.000000 0.000000 0.000000 0.000000
-13.411200 -4.114802 3.581398 -0.000000 1.000000 0.000000 1.000000 0.000000 0.000000 -14.541667 -1.343750 0 0 0 0 0.000000 0.000000 0.000000 0.000000
-13.411200 -4.114802 4.343398 -0.000000 1.000000 0.000000 1.000000 0.000000 -0.000000 -14.541667 -1.656250 0 0 0 0 0.000000 0.000000 0.000000 0.000000
-15.240000 -4.114802 4.343398 -0.000000 1.000000 0.000000 1.000000 0.000000 -0.000000 -16.541666 -1.656250 0 0 0 0 0.000000 0.000000 0.000000 0.000000
-15.240000 -4.114802 4.267198 -0.000000 1.000000 0.000000 1.000000 0.000000 -0.000000 -16.541666 -1.625000 0 0 0 0 0.000000 0.000000 0.000000 0.000000
-13.411200 -4.114802 4.267198 -0.000000 1.000000 0.000000 1.000000 0.000000 -0.000000 -14.541667 -1.625000 0 0 0 0 0.000000 0.000000 0.000000 0.000000
-13.258800 -4.114802 4.267198 0.000000 -1.000000 -0.000000 1.000000 0.000000 0.000000 -14.375000 -1.625000 0 0 0 0 0.000000 0.000000 0.000000 0.000000
-13.258800 -4.114802 3.657598 0.000000 -1.000000 -0.000000 1.000000 0.000000 0.000000 -14.375000 -1.375000 0 0 0 0 0.000000 0.000000 0.000000 0.000000
-13.411200 -4.114802 3.657598 0.000000 -1.000000 -0.000000 1.000000 0.000000 0.000000 -14.541667 -1.375000 0 0 0 0 0.000000 0.000000 0.000000 0.000000
-13.411200 -4.114802 4.267198 0.000000 -1.000000 -0.000000 1.000000 0.000000 0.000000 -14.541667 -1.625000 0 0 0 0 0.000000 0.000000 0.000000 0.000000
-14.668499 -2.133602 4.267199 0.000000 -1.000000 -0.000000 1.000000 0.000000 0.000000 -15.916667 -1.625000 0 0 0 0 0.000000 0.000000 0.000000 0.000000
-15.240000 -2.133602 4.267199 0.000000 -1.000000 -0.000000 1.000000 0.000000 0.000000 -16.541666 -1.625000 0 0 0 0 0.000000 0.000000 0.000000 0.000000
-15.240000 -2.133602 4.343399 0.000000 -1.000000 -0.000000 1.000000 0.000000 0.000000 -16.541666 -1.656250 0 0 0 0 0.000000 0.000000 0.000000 0.000000
-14.668499 -2.133602 4.343399 0.000000 -1.000000 -0.000000 1.000000 0.000000 0.000000 -15.916667 -1.656250 0 0 0 0 0.000000 0.000000 0.000000 0.000000
-15.240000 -2.133602 3.657598 0.000000 -1.000000 -0.000000 1.000000 0.000000 -0.000000 -16.541666 -1.375000 0 0 0 0 0.000000 0.000000 0.000000 0.000000
-14.668499 -2.133602 3.657598 0.000000 -1.000000 -0.000000 1.000000 0.000000 -0.000000 -15.916667 -1.375000 0 0 0 0 0.000000 0.000000 0.000000 0.000000
-14.668499 -2.133602 3.581398 0.000000 -1.000000 -0.000000 1.000000 0.000000 -0.000000 -15.916667 -1.343750 0 0 0 0 0.000000 0.000000 0.000000 0.000000
-15.240000 -2.133602 3.581398 0.000000 -1.000000 -0.000000 1.000000 0.000000 -0.000000 -16.541666 -1.343750 0 0 0 0 0.000000 0.000000 0.000000 0.000000
-13.411200 -2.133602 4.267199 0.000000 -1.000000 -0.000000 1.000000 0.000000 -0.000000 -14.541667 -1.625000 0 0 0 0 0.000000 0.000000 0.000000 0.000000
-13.982700 -2.133602 4.267199 0.000000 -1.000000 -0.000000 1.000000 0.000000 -0.000000 -15.166667 -1.625000 0 0 0 0 0.000000 0.000000 0.000000 0.000000
-13.982700 -2.133602 4.343399 0.000000 -1.000000 -0.000000 1.000000 0.000000 -0.000000 -15.166667 -1.656250 0 0 0 0 0.000000 0.000000 0.000000 0.000000
-13.411200 -2.133602 4.343399 0.000000 -1.000000 -0.000000 1.000000 0.000000 -0.000000 -14.541667 -1.656250 0 0 0 0 0.000000 0.000000 0.000000 0.000000
-13.411200 -2.133602 3.657598 0.000000 -1.000000 -0.000000 1.000000 0.000000 0.000000 -14.541667 -1.375000 0 0 0 0 0.000000 0.000000 0.000000 0.000000
-13.411200 -2.133602 3.581398 0.000000 -1.000000 -0.000000 1.000000 0.000000 0.000000 -14.541667 -1.343750 0 0 0 0 0.000000 0.000000 0.000000 0.000000
-13.982700 -2.133602 3.581398 0.000000 -1.000000 -0.000000 1.000000 0.000000 0.000000 -15.166667 -1.343750 0 0 0 0 0.000000 0.000000 0.000000 0.000000
-13.982700 -2.133602 3.657598 0.000000 -1.000000 -0.000000 1.000000 0.000000 0.000000 -15.166667 -1.375000 0 0 0 0 0.000000 0.000000 0.000000 0.000000
-13.411200 -4.114802 4.267198 -1.000000 -0.000000 -0.000000 -0.000000 -0.000000 1.000000 4.791667 1.812500 0 0 0 0 0.000000 0.000000 0.000000 0.000000
-13.411200 -2.133602 4.267199 -1.000000 -0.000000 -0.000000 -0.000000 -0.000000 1.000000 4.791667 1.000000 0 0 0 0 0.000000 0.000000 0.000000 0.000000
-13.411200 -2.133602 4.343399 -1.000000 -0.000000 -0.000000 -0.000000 -0.000000 1.000000 4.875000 1.000000 0 0 0 0 0.000000 0.000000 0.000000 0.000000
-13.411200 -4.114802 4.343398 -1.000000 -0.000000 -0.000000 -0.000000 -0.000000 1.000000 4.875000 1.812500 0 0 0 0 0.000000 0.000000 0.000000 0.000000
-13.411200 -4.114802 3.657598 -1.000000 -0.000000 -0.000000 -0.000000 -0.000000 1.000000 4.125000 1.812500 0 0 0 0 0.000000 0.000000 0.000000 0.000000
-13.411200 -4.114802 3.581398 -1.000000 -0.000000 -0.000000 -0.000000 -0.000000 1.000000 4.041667 1.812500 0 0 0 0 0.000000 0.000000 0.000000 0.000000
-13.411200 -2.133602 3.581398 -1.000000 -0.000000 -0.000000 -0.000000 -0.000000 1.000000 4.041667 1.000000 0 0 0 0 0.000000 0.000000 0.000000 0.000000
-13.411200 -2.133602 3.657598 -1.000000 -0.000000 -0.000000 -0.000000 -0.000000 1.000000 4.125000 1.000000 0 0 0 0 0.000000 0.000000 0.000000 0.000000
-15.240000 -4.114802 4.267198 1.000000 0.000000 0.000000 -0.000000 -0.000000 1.000000 4.791667 1.812500 0 0 0 0 0.000000 0.000000 0.000000 0.000000
-15.240000 -4.114802 4.343398 1.000000 0.000000 0.000000 -0.000000 -0.000000 1.000000 4.875000 1.812500 0 0 0 0 0.000000 0.000000 0.000000 0.000000
-15.240000 -2.133602 4.343399 1.000000 0.000000 0.000000 -0.000000 -0.000000 1.000000 4.875000 1.000000 0 0 0 0 0.000000 0.000000 0.000000 0.000000
-15.240000 -2.133602 4.267199 1.000000 0.000000 0.000000 -0.000000 -0.000000 1.000000 4.791667 1.000000 0 0 0 0 0.000000 0.000000 0.000000 0.000000
-15.240000 -4.114802 3.657598 1.000000 0.000000 0.000000 -0.000000 -0.000000 1.000000 4.125000 1.812500 0 0 0 0 0.000000 0.000000 0.000000 0.000000
-15.240000 -2.133602 3.657598 1.000000 0.000000 0.000000 -0.000000 -0.000000 1.000000 4.125000 1.000000 0 0 0 0 0.000000 0.000000 0.000000 0.000000
-15.240000 -2.133602 3.581398 1.000000 0.000000 0.000000 -0.000000 -0.000000 1.000000 4.041667 1.000000 0 0 0 0 0.000000 0.000000 0.000000 0.000000
-15.240000 -4.114802 3.581398 1.000000 0.000000 0.000000 -0.000000 -0.000000 1.000000 4.041667 1.812500 0 0 0 0 0.000000 0.000000 0.000000 0.000000
-13.258800 -4.572002 3.657598 -0.000000 -0.000000 1.000000 1.000000 -0.000000 0.000000 -14.375000 2.000000 0 0 0 0 0.000000 0.000000 0.000000 0.000000
-13.411200 -4.572002 3.657598 -0.000000 -0.000000 1.000000 1.000000 -0.000000 0.000000 -14.541667 2.000000 0 0 0 0 0.000000 0.000000 0.000000 0.000000
-13.411200 -4.114802 3.657598 -0.000000 -0.000000 1.000000 1.000000 -0.000000 0.000000 -14.541667 1.812500 0 0 0 0 0.000000 0.000000 0.000000 0.000000
-13.258800 -4.114802 3.657598 -0.000000 -0.000000 1.000000 1.000000 -0.000000 0.000000 -14.375000 1.812500 0 0 0 0 0.000000 0.000000 0.000000 0.000000
-13.411200 -4.572002 4.267198 0.000000 0.000000 -1.000000 1.000000 -0.000000 0.000000 -14.541667 2.000000 0 0 0 0 0.000000 0.000000 0.000000 0.000000
-13.258800 -4.572002 4.267198 0.000000 0.000000 -1.000000 1.000000 -0.000000 0.000000 -14.375000 2.000000 0 0 0 0 0.000000 0.000000 0.000000 0.000000
-13.258800 -4.114802 4.267198 0.000000 0.000000 -1.000000 1.000000 -0.000000 0.000000 -14.375000 1.812500 0 0 0 0 0.000000 0.000000 0.000000 0.000000
-13.411200 -4.114802 4.267198 0.000000 0.000000 -1.000000 1.000000 -0.000000 0.000000 -14.541667 1.812500 0 0 0 0 0.000000 0.000000 0.000000 0.000000
IndexCount: 1029
0 4 3
0 3 2
2 1 0
1 186 0
1 185 186
182 186 185
182 185 184
184 183 182
5 9 8
5 8 7
7 6 5
10 15 14
10 14 13
10 13 12
12 11 10
10 181 180
10 180 179
10 179 178
178 15 10
16 21 20
16 20 19
16 19 18
18 17 16
17 18 47
17 47 46
46 45 17
25 23 22
25 24 23
24 191 23
24 192 191
29 27 26
29 28 27
34 31 30
31 85 30
177 34 30
177 30 85
34 33 32
34 32 31
177 33 34
31 86 85
85 253 177
177 176 33
38 36 35
38 37 36
44 40 39
44 43 42
44 42 41
44 41 40
48 52 51
48 51 50
50 49 48
61 60 51
61 51 59
61 59 58
61 58 57
314 58 317
314 317 316
316 315 314
316 317 328
316 328 327
319 318 316
327 326 325
327 325 324
327 324 323
323 322 321
323 321 320
56 54 53
54 309 53
56 55 54
54 310 309
311 310 303
303 302 301
303 301 300
311 303 300
311 300 299
299 298 297
299 297 296
311 299 296
311 296 307
304 308 307
304 307 306
311 307 313
306 305 304
313 312 311
62 67 66
62 66 65
65 63 62
343 341 67
343 67 340
340 344 343
343 342 341
65 64 63
68 72 71
68 71 70
70 69 68
76 74 73
334 76 73
76 75 74
334 333 76
80 78 77
80 79 78
79 348 78
79 349 348
84 82 81
84 83 82
90 88 87
90 89 88
94 92 91
94 93 92
98 96 95
98 97 96
99 104 103
99 103 102
99 102 101
101 100 99
99 100 262
99 262 261
261 260 99
102 103 113
113 111 102
113 110 111
112 111 110
112 110 109
275 112 109
275 109 274
276 275 274
274 277 276
277 273 276
274 278 277
277 272 273
260 261 273
260 273 272
260 272 271
260 271 270
260 270 269
260 269 268
279 268 269
279 269 278
274 279 278
274 280 279
274 282 281
274 281 280
260 268 267
260 267 266
260 266 265
260 265 264
264 263 260
283 286 264
283 264 285
285 284 283
108 106 105
106 256 105
108 107 106
106 257 256
257 258 256
257 259 258
117 115 114
117 116 115
115 116 426
115 426 425
425 424 115
121 119 118
121 120 119
420 120 423
420 423 422
422 421 420
125 123 122
125 124 123
129 127 126
129 128 127
135 131 130
135 134 133
135 133 132
135 132 131
139 137 136
139 138 137
143 141 140
140 141 148
140 148 147
140 147 146
140 146 145
145 144 140
143 142 141
149 154 153
149 153 152
149 152 151
151 150 149
158 156 155
158 157 156
162 160 159
162 161 160
167 164 163
167 166 165
167 165 164
171 169 168
332 171 168
171 170 169
332 331 171
175 173 172
330 175 172
175 174 173
330 329 175
190 188 187
190 189 188
196 194 193
196 195 194
197 201 200
197 200 199
199 198 197
201 197 345
345 346 201
345 347 346
202 206 205
202 205 204
204 203 202
203 204 295
203 295 294
294 293 203
210 208 207
210 209 208
214 212 211
214 213 212
215 222 221
215 221 220
220 216 215
220 219 218
220 218 217
220 217 216
226 224 223
226 225 224
225 254 224
225 255 254
227 231 230
227 230 229
229 228 227
232 236 235
232 235 234
234 233 232
240 238 237
240 239 238
244 242 241
244 243 242
248 246 245
248 247 246
252 250 249
252 251 250
287 292 291
287 291 290
287 290 289
289 288 287
335 339 338
335 338 337
337 336 335
353 351 350
353 352 351
357 355 354
357 356 355
358 365 364
358 364 363
358 363 362
358 362 361
358 361 360
360 359 358
369 367 366
369 368 367
370 374 373
370 373 372
372 371 370
375 379 378
375 378 377
377 376 375
383 381 380
383 382 381
387 385 384
387 386 385
391 389 388
391 390 389
395 393 392
395 394 393
399 397 396
399 398 397
403 401 400
403 402 401
407 405 404
407 406 405
411 409 408
411 410 409
415 413 412
415 414 413
419 417 416
419 418 417
427 431 430
427 430 429
429 428 427
432 436 435
432 435 434
434 433 432
440 438 437
440 439 438
444 442 441
444 443 442
448 446 445
448 447 446
452 450 449
452 451 450
456 454 453
456 455 454
460 458 457
460 459 458
464 462 461
464 463 462
468 466 465
468 467 466
472 470 469
472 471 470
476 474 473
476 475 474
480 478 477
480 479 478
484 482 481
484 483 482
488 486 485
488 487 486
492 490 489
492 491 490
496 494 493
496 495 494
500 498 497
500 499 498
504 502 501
504 503 502
508 506 505
508 507 506
512 510 509
512 511 510
516 514 513
516 515 514
520 518 517
520 519 518
524 522 521
524 523 522
528 526 525
528 527 526
