VertexCount: 4
2.133602 -2.857497 -19.850100 0.000000 0.000000 -1.000000 1.000000 -0.000000 0.000000 15.000000 13.000000 0 0 0 0 0.000000 0.000000 0.000000 0.000000
2.133602 -3.086097 -19.850100 0.000000 0.000000 -1.000000 1.000000 -0.000000 0.000000 15.000000 14.000000 0 0 0 0 0.000000 0.000000 0.000000 0.000000
2.286002 -3.086097 -19.850100 0.000000 0.000000 -1.000000 1.000000 -0.000000 0.000000 16.000000 14.000000 0 0 0 0 0.000000 0.000000 0.000000 0.000000
2.286002 -2.857497 -19.850100 0.000000 0.000000 -1.000000 1.000000 -0.000000 0.000000 16.000000 13.000000 0 0 0 0 0.000000 0.000000 0.000000 0.000000
IndexCount: 6
3 2 1
3 1 0
