VertexCount: 10
4.114800 -4.572000 1.219200 -0.000000 -0.000000 1.000000 1.000000 -0.000000 0.000000 8.109375 10.000000 0 0 0 0 0.000000 0.000000 0.000000 0.000000
4.114800 -3.657599 1.219200 -0.000000 -0.000000 1.000000 1.000000 -0.000000 0.000000 8.109375 8.000000 0 0 0 0 0.000000 0.000000 0.000000 0.000000
4.210050 -3.657599 1.219200 -0.000000 -0.000000 1.000000 1.000000 -0.000000 0.000000 8.282987 8.000000 0 0 0 0 0.000000 0.000000 0.000000 0.000000
4.267200 -3.657599 1.219200 -0.000000 -0.000000 1.000000 1.000000 -0.000000 0.000000 8.387154 8.000000 0 0 0 0 0.000000 0.000000 0.000000 0.000000
4.267200 -4.572000 1.219200 -0.000000 -0.000000 1.000000 1.000000 -0.000000 0.000000 8.387154 10.000000 0 0 0 0 0.000000 0.000000 0.000000 0.000000
3.657600 -3.657599 0.762000 -1.000000 -0.000000 -0.000000 -0.000000 -0.000000 1.000000 0.998264 8.000000 0 0 0 0 0.000000 0.000000 0.000000 0.000000
3.657600 -4.572000 0.762000 -1.000000 -0.000000 -0.000000 -0.000000 -0.000000 1.000000 0.998264 10.000000 0 0 0 0 0.000000 0.000000 0.000000 0.000000
3.657600 -4.572000 0.609600 -1.000000 -0.000000 -0.000000 -0.000000 -0.000000 1.000000 0.720486 10.000000 0 0 0 0 0.000000 0.000000 0.000000 0.000000
3.657600 -3.657599 0.609600 -1.000000 -0.000000 -0.000000 -0.000000 -0.000000 1.000000 0.720486 8.000000 0 0 0 0 0.000000 0.000000 0.000000 0.000000
3.657600 -3.657599 0.666750 -1.000000 -0.000000 -0.000000 -0.000000 -0.000000 1.000000 0.824653 8.000000 0 0 0 0 0.000000 0.000000 0.000000 0.000000
IndexCount: 18
0 4 3
0 3 2
2 1 0
9 8 7
9 7 6
9 6 5
