VertexCount: 54
-6.134099 -1.828799 -10.744199 0.000000 -1.000000 -0.000000 1.000000 0.000000 0.000000 -3.225000 6.887500 0 0 0 0 0.000000 0.000000 0.000000 0.000000
-6.057899 -1.828799 -10.820400 0.000000 -1.000000 -0.000000 1.000000 0.000000 0.000000 -3.175000 6.937500 0 0 0 0 0.000000 0.000000 0.000000 0.000000
-6.515099 -1.828799 -10.820400 0.000000 -1.000000 -0.000000 1.000000 0.000000 0.000000 -3.475000 6.937500 0 0 0 0 0.000000 0.000000 0.000000 0.000000
-6.438899 -1.828799 -10.744199 0.000000 -1.000000 -0.000000 1.000000 0.000000 0.000000 -3.425000 6.887500 0 0 0 0 0.000000 0.000000 0.000000 0.000000
-6.400799 -1.828799 -10.744199 0.000000 -1.000000 -0.000000 -1.000000 -0.000000 -0.000000 -3.400000 6.887500 0 0 0 0 0.000000 0.000000 0.000000 0.000000
-6.172199 -1.828799 -10.744199 0.000000 -1.000000 -0.000000 -1.000000 -0.000000 -0.000000 -3.250000 6.887500 0 0 0 0 0.000000 0.000000 0.000000 0.000000
-6.057899 -1.600199 -10.820400 -0.000000 1.000000 0.000000 1.000000 0.000000 0.000000 -3.175000 6.137500 0 0 0 0 0.000000 0.000000 0.000000 0.000000
-6.134099 -1.600199 -10.744199 -0.000000 1.000000 0.000000 1.000000 0.000000 0.000000 -3.225000 6.087500 0 0 0 0 0.000000 0.000000 0.000000 0.000000
-6.172199 -1.600199 -10.744199 -0.000000 1.000000 0.000000 1.000000 0.000000 0.000000 -3.250000 6.087500 0 0 0 0 0.000000 0.000000 0.000000 0.000000
-6.400799 -1.600199 -10.744199 -0.000000 1.000000 0.000000 1.000000 0.000000 0.000000 -3.400000 6.087500 0 0 0 0 0.000000 0.000000 0.000000 0.000000
-6.438899 -1.600199 -10.744199 -0.000000 1.000000 0.000000 1.000000 0.000000 0.000000 -3.425000 6.087500 0 0 0 0 0.000000 0.000000 0.000000 0.000000
-6.515099 -1.600199 -10.820400 -0.000000 1.000000 0.000000 1.000000 0.000000 0.000000 -3.475000 6.137500 0 0 0 0 0.000000 0.000000 0.000000 0.000000
-6.400799 -1.638299 -10.744199 -0.000000 -0.000000 1.000000 1.000000 -0.000000 0.000000 -3.887500 0.575000 0 0 0 0 0.000000 0.000000 0.000000 0.000000
-6.400799 -1.600199 -10.744199 -0.000000 -0.000000 1.000000 1.000000 -0.000000 0.000000 -3.887500 0.550000 0 0 0 0 0.000000 0.000000 0.000000 0.000000
-6.172199 -1.600199 -10.744199 -0.000000 -0.000000 1.000000 1.000000 -0.000000 0.000000 -3.737500 0.550000 0 0 0 0 0.000000 0.000000 0.000000 0.000000
-6.172199 -1.638299 -10.744199 -0.000000 -0.000000 1.000000 1.000000 -0.000000 0.000000 -3.737500 0.575000 0 0 0 0 0.000000 0.000000 0.000000 0.000000
-6.400799 -1.790699 -10.744199 -0.000000 -0.000000 1.000000 1.000000 -0.000000 0.000000 -3.887500 0.675000 0 0 0 0 0.000000 0.000000 0.000000 0.000000
-6.172199 -1.790699 -10.744199 -0.000000 -0.000000 1.000000 1.000000 -0.000000 0.000000 -3.737500 0.675000 0 0 0 0 0.000000 0.000000 0.000000 0.000000
-6.172199 -1.828799 -10.744199 -0.000000 -0.000000 1.000000 1.000000 -0.000000 0.000000 -3.737500 0.700000 0 0 0 0 0.000000 0.000000 0.000000 0.000000
-6.400799 -1.828799 -10.744199 -0.000000 -0.000000 1.000000 1.000000 -0.000000 0.000000 -3.887500 0.700000 0 0 0 0 0.000000 0.000000 0.000000 0.000000
-6.134099 -1.600199 -10.744199 -0.000000 -0.000000 1.000000 1.000000 -0.000000 0.000000 -3.712500 0.550000 0 0 0 0 0.000000 0.000000 0.000000 0.000000
-6.134099 -1.828799 -10.744199 -0.000000 -0.000000 1.000000 1.000000 -0.000000 0.000000 -3.712500 0.700000 0 0 0 0 0.000000 0.000000 0.000000 0.000000
-6.172199 -1.790699 -10.744199 -0.000000 -0.000000 1.000000 0.000000 -1.000000 -0.000000 -3.737500 0.675000 0 0 0 0 0.000000 0.000000 0.000000 0.000000
-6.172199 -1.638299 -10.744199 -0.000000 -0.000000 1.000000 0.000000 -1.000000 -0.000000 -3.737500 0.575000 0 0 0 0 0.000000 0.000000 0.000000 0.000000
-6.400799 -1.600199 -10.744199 -0.000000 -0.000000 1.000000 -0.000000 1.000000 0.000000 -3.887500 0.550000 0 0 0 0 0.000000 0.000000 0.000000 0.000000
-6.400799 -1.638299 -10.744199 -0.000000 -0.000000 1.000000 -0.000000 1.000000 0.000000 -3.887500 0.575000 0 0 0 0 0.000000 0.000000 0.000000 0.000000
-6.400799 -1.790699 -10.744199 -0.000000 -0.000000 1.000000 -0.000000 1.000000 0.000000 -3.887500 0.675000 0 0 0 0 0.000000 0.000000 0.000000 0.000000
-6.400799 -1.828799 -10.744199 -0.000000 -0.000000 1.000000 0.000000 -1.000000 -0.000000 -3.887500 0.700000 0 0 0 0 0.000000 0.000000 0.000000 0.000000
-6.438899 -1.828799 -10.744199 -0.000000 -0.000000 1.000000 1.000000 -0.000000 0.000000 -3.912500 0.700000 0 0 0 0 0.000000 0.000000 0.000000 0.000000
-6.438899 -1.600199 -10.744199 -0.000000 -0.000000 1.000000 1.000000 -0.000000 0.000000 -3.912500 0.550000 0 0 0 0 0.000000 0.000000 0.000000 0.000000
-6.438899 -1.600199 -10.744199 -0.707109 -0.000000 0.707105 0.707105 0.000000 0.707109 -6.275000 0.550000 0 0 0 0 0.000000 0.000000 0.000000 0.000000
-6.438899 -1.828799 -10.744199 -0.707109 -0.000000 0.707105 0.707105 0.000000 0.707109 -6.275000 0.700000 0 0 0 0 0.000000 0.000000 0.000000 0.000000
-6.515099 -1.828799 -10.820400 -0.707109 -0.000000 0.707105 0.707105 0.000000 0.707109 -6.325000 0.700000 0 0 0 0 0.000000 0.000000 0.000000 0.000000
-6.515099 -1.600199 -10.820400 -0.707109 -0.000000 0.707105 0.707105 0.000000 0.707109 -6.325000 0.550000 0 0 0 0 0.000000 0.000000 0.000000 0.000000
-6.057899 -1.600199 -10.820400 0.707109 -0.000000 0.707105 -0.707105 0.000000 0.707109 -7.000000 0.550000 0 0 0 0 0.000000 0.000000 0.000000 0.000000
-6.057899 -1.828799 -10.820400 0.707109 -0.000000 0.707105 -0.707105 0.000000 0.707109 -7.000000 0.700000 0 0 0 0 0.000000 0.000000 0.000000 0.000000
-6.134099 -1.828799 -10.744199 0.707109 -0.000000 0.707105 -0.707105 0.000000 0.707109 -6.950000 0.700000 0 0 0 0 0.000000 0.000000 0.000000 0.000000
-6.134099 -1.600199 -10.744199 0.707109 -0.000000 0.707105 -0.707105 0.000000 0.707109 -6.950000 0.550000 0 0 0 0 0.000000 0.000000 0.000000 0.000000
2.228852 -4.095747 -19.831051 0.000000 -1.000000 -0.000000 1.000000 0.000000 0.000000 1.462500 13.012500 0 0 0 0 0.000000 0.000000 0.000000 0.000000
2.190752 -4.095747 -19.831051 0.000000 -1.000000 -0.000000 1.000000 0.000000 0.000000 1.437500 13.012500 0 0 0 0 0.000000 0.000000 0.000000 0.000000
2.190752 -4.095747 -19.812002 0.000000 -1.000000 -0.000000 1.000000 0.000000 0.000000 1.437500 13.000000 0 0 0 0 0.000000 0.000000 0.000000 0.000000
2.228852 -4.095747 -19.812002 0.000000 -1.000000 -0.000000 1.000000 0.000000 0.000000 1.462500 13.000000 0 0 0 0 0.000000 0.000000 0.000000 0.000000
2.190752 -3.086097 -19.812000 -1.000000 -0.000000 -0.000000 -0.000000 -0.000000 1.000000 -13.000000 3.025000 0 0 0 0 0.000000 0.000000 0.000000 0.000000
2.190752 -4.095747 -19.812002 -1.000000 -0.000000 -0.000000 -0.000000 -0.000000 1.000000 -13.000000 3.687500 0 0 0 0 0.000000 0.000000 0.000000 0.000000
2.190752 -4.095747 -19.831051 -1.000000 -0.000000 -0.000000 -0.000000 -0.000000 1.000000 -13.012500 3.687500 0 0 0 0 0.000000 0.000000 0.000000 0.000000
2.190752 -3.086097 -19.831051 -1.000000 -0.000000 -0.000000 -0.000000 -0.000000 1.000000 -13.012500 3.025000 0 0 0 0 0.000000 0.000000 0.000000 0.000000
2.190752 -3.086097 -19.831051 0.000000 0.000000 -1.000000 1.000000 -0.000000 0.000000 1.437500 3.025000 0 0 0 0 0.000000 0.000000 0.000000 0.000000
2.190752 -4.095747 -19.831051 0.000000 0.000000 -1.000000 1.000000 -0.000000 0.000000 1.437500 3.687500 0 0 0 0 0.000000 0.000000 0.000000 0.000000
2.228852 -4.095747 -19.831051 0.000000 0.000000 -1.000000 1.000000 -0.000000 0.000000 1.462500 3.687500 0 0 0 0 0.000000 0.000000 0.000000 0.000000
2.228852 -3.086097 -19.831051 0.000000 0.000000 -1.000000 1.000000 -0.000000 0.000000 1.462500 3.025000 0 0 0 0 0.000000 0.000000 0.000000 0.000000
2.228852 -3.086097 -19.831051 1.000000 0.000000 0.000000 -0.000000 -0.000000 1.000000 -13.012500 3.025000 0 0 0 0 0.000000 0.000000 0.000000 0.000000
2.228852 -4.095747 -19.831051 1.000000 0.000000 0.000000 -0.000000 -0.000000 1.000000 -13.012500 3.687500 0 0 0 0 0.000000 0.000000 0.000000 0.000000
2.228852 -4.095747 -19.812002 1.000000 0.000000 0.000000 -0.000000 -0.000000 1.000000 -13.000000 3.687500 0 0 0 0 0.000000 0.000000 0.000000 0.000000
2.228852 -3.086097 -19.812000 1.000000 0.000000 0.000000 -0.000000 -0.000000 1.000000 -13.000000 3.025000 0 0 0 0 0.000000 0.000000 0.000000 0.000000
IndexCount: 96
0 5 4
0 4 3
3 1 0
3 2 1
6 11 10
6 10 9
6 9 8
8 7 6
15 13 12
15 14 13
14 23 22
14 22 18
14 18 21
21 20 14
19 18 17
19 17 16
24 29 28
24 28 27
24 27 26
26 25 24
33 31 30
33 32 31
37 35 34
37 36 35
41 39 38
41 40 39
45 43 42
45 44 43
49 47 46
49 48 47
53 51 50
53 52 51