VertexCount: 46
6.248400 -3.352801 7.543799 0.000000 -0.000000 1.000000 0.000000 -1.000000 -0.000000 5.468750 7.696429 0 0 0 0 0.000000 0.000000 0.000000 0.000000
6.248400 -4.572001 7.543799 0.000000 -0.000000 1.000000 0.000000 -1.000000 -0.000000 7.468750 7.696429 0 0 0 0 0.000000 0.000000 0.000000 0.000000
5.638800 -4.572001 7.543799 0.000000 -0.000000 1.000000 0.000000 -1.000000 -0.000000 7.468750 6.982143 0 0 0 0 0.000000 0.000000 0.000000 0.000000
5.638800 -3.352801 7.543799 0.000000 -0.000000 1.000000 0.000000 -1.000000 -0.000000 5.468750 6.982143 0 0 0 0 0.000000 0.000000 0.000000 0.000000
5.638800 -3.352801 4.495800 0.000000 0.000000 -1.000000 0.000000 -1.000000 -0.000000 5.468750 6.982143 0 0 0 0 0.000000 0.000000 0.000000 0.000000
5.638800 -4.572001 4.495800 0.000000 0.000000 -1.000000 0.000000 -1.000000 -0.000000 7.468750 6.982143 0 0 0 0 0.000000 0.000000 0.000000 0.000000
6.248400 -4.572001 4.495800 0.000000 0.000000 -1.000000 0.000000 -1.000000 -0.000000 7.468750 7.696429 0 0 0 0 0.000000 0.000000 0.000000 0.000000
6.248400 -3.352801 4.495800 0.000000 0.000000 -1.000000 0.000000 -1.000000 -0.000000 5.468750 7.696429 0 0 0 0 0.000000 0.000000 0.000000 0.000000
6.248400 -4.572001 4.495800 0.000000 -1.000000 -0.000000 0.000000 0.000000 -1.000000 -7.406250 7.696429 0 0 0 0 0.000000 0.000000 0.000000 0.000000
5.638800 -4.572001 4.495800 0.000000 -1.000000 -0.000000 0.000000 0.000000 -1.000000 -7.406250 6.982143 0 0 0 0 0.000000 0.000000 0.000000 0.000000
5.638800 -4.572001 7.543799 0.000000 -1.000000 -0.000000 0.000000 0.000000 -1.000000 -12.406250 6.982143 0 0 0 0 0.000000 0.000000 0.000000 0.000000
6.248400 -4.572001 7.543799 0.000000 -1.000000 -0.000000 0.000000 0.000000 -1.000000 -12.406250 7.696429 0 0 0 0 0.000000 0.000000 0.000000 0.000000
6.248400 -3.352801 7.543799 0.000000 1.000000 0.000000 0.000000 0.000000 -1.000000 -12.406250 7.696429 0 0 0 0 0.000000 0.000000 0.000000 0.000000
5.638800 -3.352801 7.543799 0.000000 1.000000 0.000000 0.000000 0.000000 -1.000000 -12.406250 6.982143 0 0 0 0 0.000000 0.000000 0.000000 0.000000
5.638800 -3.352801 4.495800 0.000000 1.000000 0.000000 0.000000 0.000000 -1.000000 -7.406250 6.982143 0 0 0 0 0.000000 0.000000 0.000000 0.000000
6.248400 -3.352801 4.495800 0.000000 1.000000 0.000000 0.000000 0.000000 -1.000000 -7.406250 7.696429 0 0 0 0 0.000000 0.000000 0.000000 0.000000
6.248400 -2.133601 7.543799 0.000000 -0.000000 1.000000 0.000000 -1.000000 -0.000000 3.468750 7.696429 0 0 0 0 0.000000 0.000000 0.000000 0.000000
5.638800 -2.133601 7.543799 0.000000 -0.000000 1.000000 0.000000 -1.000000 -0.000000 3.468750 6.982143 0 0 0 0 0.000000 0.000000 0.000000 0.000000
5.638800 -2.133601 4.495800 0.000000 0.000000 -1.000000 0.000000 -1.000000 -0.000000 3.468750 6.982143 0 0 0 0 0.000000 0.000000 0.000000 0.000000
6.248400 -2.133601 4.495800 0.000000 0.000000 -1.000000 0.000000 -1.000000 -0.000000 3.468750 7.696429 0 0 0 0 0.000000 0.000000 0.000000 0.000000
6.248400 -3.352801 4.495800 0.000000 -1.000000 -0.000000 0.000000 0.000000 -1.000000 -7.406250 7.696429 0 0 0 0 0.000000 0.000000 0.000000 0.000000
5.638800 -3.352801 4.495800 0.000000 -1.000000 -0.000000 0.000000 0.000000 -1.000000 -7.406250 6.982143 0 0 0 0 0.000000 0.000000 0.000000 0.000000
5.638800 -3.352801 7.543799 0.000000 -1.000000 -0.000000 0.000000 0.000000 -1.000000 -12.406250 6.982143 0 0 0 0 0.000000 0.000000 0.000000 0.000000
6.248400 -3.352801 7.543799 0.000000 -1.000000 -0.000000 0.000000 0.000000 -1.000000 -12.406250 7.696429 0 0 0 0 0.000000 0.000000 0.000000 0.000000
6.248400 -2.133601 7.543799 0.000000 1.000000 0.000000 0.000000 0.000000 -1.000000 -12.406250 7.696429 0 0 0 0 0.000000 0.000000 0.000000 0.000000
5.638800 -2.133601 7.543799 0.000000 1.000000 0.000000 0.000000 0.000000 -1.000000 -12.406250 6.982143 0 0 0 0 0.000000 0.000000 0.000000 0.000000
5.638800 -2.133601 4.495800 0.000000 1.000000 0.000000 0.000000 0.000000 -1.000000 -7.406250 6.982143 0 0 0 0 0.000000 0.000000 0.000000 0.000000
6.248400 -2.133601 4.495800 0.000000 1.000000 0.000000 0.000000 0.000000 -1.000000 -7.406250 7.696429 0 0 0 0 0.000000 0.000000 0.000000 0.000000
15.582900 -4.572001 7.543799 0.000000 -0.000000 1.000000 0.000000 -1.000000 -0.000000 7.531250 18.727678 0 0 0 0 0.000000 0.000000 0.000000 0.000000
14.973299 -4.572001 7.543799 0.000000 -0.000000 1.000000 0.000000 -1.000000 -0.000000 7.531250 18.013393 0 0 0 0 0.000000 0.000000 0.000000 0.000000
14.973299 -2.133601 7.543799 0.000000 -0.000000 1.000000 0.000000 -1.000000 -0.000000 3.531250 18.013393 0 0 0 0 0.000000 0.000000 0.000000 0.000000
15.582900 -2.133601 7.543799 0.000000 -0.000000 1.000000 0.000000 -1.000000 -0.000000 3.531250 18.727678 0 0 0 0 0.000000 0.000000 0.000000 0.000000
15.582900 -3.352801 7.543799 0.000000 -0.000000 1.000000 0.000000 1.000000 0.000000 5.531250 18.727678 0 0 0 0 0.000000 0.000000 0.000000 0.000000
14.973299 -4.572001 4.495800 0.000000 0.000000 -1.000000 0.000000 -1.000000 -0.000000 7.531250 18.013393 0 0 0 0 0.000000 0.000000 0.000000 0.000000
15.582900 -4.572001 4.495800 0.000000 0.000000 -1.000000 0.000000 -1.000000 -0.000000 7.531250 18.727678 0 0 0 0 0.000000 0.000000 0.000000 0.000000
15.582900 -3.352801 4.495800 0.000000 0.000000 -1.000000 0.000000 -1.000000 -0.000000 5.531250 18.727678 0 0 0 0 0.000000 0.000000 0.000000 0.000000
15.582900 -2.133601 4.495800 0.000000 0.000000 -1.000000 0.000000 -1.000000 -0.000000 3.531250 18.727678 0 0 0 0 0.000000 0.000000 0.000000 0.000000
14.973299 -2.133601 4.495800 0.000000 0.000000 -1.000000 0.000000 -1.000000 -0.000000 3.531250 18.013393 0 0 0 0 0.000000 0.000000 0.000000 0.000000
15.582900 -4.572001 4.495800 0.000000 -1.000000 -0.000000 0.000000 0.000000 -1.000000 -6.937500 18.727678 0 0 0 0 0.000000 0.000000 0.000000 0.000000
14.973299 -4.572001 4.495800 0.000000 -1.000000 -0.000000 0.000000 0.000000 -1.000000 -6.937500 18.013393 0 0 0 0 0.000000 0.000000 0.000000 0.000000
14.973299 -4.572001 7.543799 0.000000 -1.000000 -0.000000 0.000000 0.000000 -1.000000 -11.937500 18.013393 0 0 0 0 0.000000 0.000000 0.000000 0.000000
15.582900 -4.572001 7.543799 0.000000 -1.000000 -0.000000 0.000000 0.000000 -1.000000 -11.937500 18.727678 0 0 0 0 0.000000 0.000000 0.000000 0.000000
15.582900 -2.133601 7.543799 0.000000 1.000000 0.000000 0.000000 0.000000 -1.000000 -11.937500 18.727678 0 0 0 0 0.000000 0.000000 0.000000 0.000000
14.973299 -2.133601 7.543799 0.000000 1.000000 0.000000 0.000000 0.000000 -1.000000 -11.937500 18.013393 0 0 0 0 0.000000 0.000000 0.000000 0.000000
14.973299 -2.133601 4.495800 0.000000 1.000000 0.000000 0.000000 0.000000 -1.000000 -6.937500 18.013393 0 0 0 0 0.000000 0.000000 0.000000 0.000000
15.582900 -2.133601 4.495800 0.000000 1.000000 0.000000 0.000000 0.000000 -1.000000 -6.937500 18.727678 0 0 0 0 0.000000 0.000000 0.000000 0.000000
IndexCount: 78
3 1 0
17 3 0
17 0 16
3 2 1
7 5 4
19 7 4
19 4 18
7 6 5
11 9 8
11 10 9
15 13 12
15 14 13
23 21 20
23 22 21
27 25 24
27 26 25
28 32 31
28 31 30
30 29 28
33 37 36
33 36 35
35 34 33
41 39 38
41 40 39
45 43 42
45 44 43