VertexCount: 96
-14.706600 -3.352798 -10.058401 0.000000 -1.000000 -0.000000 1.000000 0.000000 0.000000 -6.031250 4.125000 0 0 0 0 0.000000 0.000000 0.000000 0.000000
-14.859000 -3.352798 -10.058401 0.000000 -1.000000 -0.000000 1.000000 0.000000 0.000000 -6.093750 4.125000 0 0 0 0 0.000000 0.000000 0.000000 0.000000
-14.859000 -3.352798 -8.534400 0.000000 -1.000000 -0.000000 1.000000 0.000000 0.000000 -6.093750 3.500000 0 0 0 0 0.000000 0.000000 0.000000 0.000000
-14.706600 -3.352798 -8.534400 0.000000 -1.000000 -0.000000 1.000000 0.000000 0.000000 -6.031250 3.500000 0 0 0 0 0.000000 0.000000 0.000000 0.000000
-14.859000 -1.676398 -10.058400 0.000000 0.000000 -1.000000 1.000000 0.000000 0.000000 -6.093750 0.687500 0 0 0 0 0.000000 0.000000 0.000000 0.000000
-14.859000 -3.352798 -10.058401 0.000000 0.000000 -1.000000 1.000000 0.000000 0.000000 -6.093750 1.375000 0 0 0 0 0.000000 0.000000 0.000000 0.000000
-14.706600 -3.352798 -10.058401 0.000000 0.000000 -1.000000 1.000000 0.000000 0.000000 -6.031250 1.375000 0 0 0 0 0.000000 0.000000 0.000000 0.000000
-14.706600 -1.676398 -10.058400 0.000000 0.000000 -1.000000 1.000000 0.000000 0.000000 -6.031250 0.687500 0 0 0 0 0.000000 0.000000 0.000000 0.000000
-14.706600 -1.676399 -8.534400 0.000000 1.000000 0.000000 1.000000 0.000000 0.000000 -6.031250 3.500000 0 0 0 0 0.000000 0.000000 0.000000 0.000000
-14.859000 -1.676399 -8.534400 0.000000 1.000000 0.000000 1.000000 0.000000 0.000000 -6.093750 3.500000 0 0 0 0 0.000000 0.000000 0.000000 0.000000
-14.859000 -1.676398 -10.058400 0.000000 1.000000 0.000000 1.000000 0.000000 0.000000 -6.093750 4.125000 0 0 0 0 0.000000 0.000000 0.000000 0.000000
-14.706600 -1.676398 -10.058400 0.000000 1.000000 0.000000 1.000000 0.000000 0.000000 -6.031250 4.125000 0 0 0 0 0.000000 0.000000 0.000000 0.000000
-14.706600 -1.676399 -8.534400 0.000000 -0.000000 1.000000 1.000000 0.000000 0.000000 -6.031250 0.687500 0 0 0 0 0.000000 0.000000 0.000000 0.000000
-14.706600 -3.352798 -8.534400 0.000000 -0.000000 1.000000 1.000000 0.000000 0.000000 -6.031250 1.375000 0 0 0 0 0.000000 0.000000 0.000000 0.000000
-14.859000 -3.352798 -8.534400 0.000000 -0.000000 1.000000 1.000000 0.000000 0.000000 -6.093750 1.375000 0 0 0 0 0.000000 0.000000 0.000000 0.000000
-14.859000 -1.676399 -8.534400 0.000000 -0.000000 1.000000 1.000000 0.000000 0.000000 -6.093750 0.687500 0 0 0 0 0.000000 0.000000 0.000000 0.000000
-14.859000 -1.676399 -8.534400 -1.000000 0.000000 0.000000 0.000000 -0.000000 1.000000 -3.500000 0.687500 0 0 0 0 0.000000 0.000000 0.000000 0.000000
-14.859000 -3.352798 -8.534400 -1.000000 0.000000 0.000000 0.000000 -0.000000 1.000000 -3.500000 1.375000 0 0 0 0 0.000000 0.000000 0.000000 0.000000
-14.859000 -3.352798 -10.058401 -1.000000 0.000000 0.000000 0.000000 0.000000 1.000000 -4.125000 1.375000 0 0 0 0 0.000000 0.000000 0.000000 0.000000
-14.859000 -1.676398 -10.058400 -1.000000 0.000000 0.000000 0.000000 -0.000000 1.000000 -4.125000 0.687500 0 0 0 0 0.000000 0.000000 0.000000 0.000000
-14.706600 -1.676398 -10.058400 1.000000 0.000000 0.000000 0.000000 -0.000000 1.000000 -4.125000 0.687500 0 0 0 0 0.000000 0.000000 0.000000 0.000000
-14.706600 -3.352798 -10.058401 1.000000 0.000000 0.000000 0.000000 -0.000000 1.000000 -4.125000 1.375000 0 0 0 0 0.000000 0.000000 0.000000 0.000000
-14.706600 -3.352798 -8.534400 1.000000 0.000000 0.000000 0.000000 0.000000 1.000000 -3.500000 1.375000 0 0 0 0 0.000000 0.000000 0.000000 0.000000
-14.706600 -1.676399 -8.534400 1.000000 0.000000 0.000000 0.000000 -0.000000 1.000000 -3.500000 0.687500 0 0 0 0 0.000000 0.000000 0.000000 0.000000
-14.706600 -3.352798 -13.106400 0.000000 -1.000000 -0.000000 1.000000 0.000000 0.000000 -6.031250 5.375000 0 0 0 0 0.000000 0.000000 0.000000 0.000000
-14.859000 -3.352798 -13.106400 0.000000 -1.000000 -0.000000 1.000000 0.000000 0.000000 -6.093750 5.375000 0 0 0 0 0.000000 0.000000 0.000000 0.000000
-14.859000 -3.352798 -11.582399 0.000000 -1.000000 -0.000000 1.000000 0.000000 0.000000 -6.093750 4.750000 0 0 0 0 0.000000 0.000000 0.000000 0.000000
-14.706600 -3.352798 -11.582399 0.000000 -1.000000 -0.000000 1.000000 0.000000 0.000000 -6.031250 4.750000 0 0 0 0 0.000000 0.000000 0.000000 0.000000
-14.859000 -1.676398 -13.106400 0.000000 0.000000 -1.000000 1.000000 0.000000 0.000000 -6.093750 0.687500 0 0 0 0 0.000000 0.000000 0.000000 0.000000
-14.859000 -3.352798 -13.106400 0.000000 0.000000 -1.000000 1.000000 0.000000 0.000000 -6.093750 1.375000 0 0 0 0 0.000000 0.000000 0.000000 0.000000
-14.706600 -3.352798 -13.106400 0.000000 0.000000 -1.000000 1.000000 0.000000 0.000000 -6.031250 1.375000 0 0 0 0 0.000000 0.000000 0.000000 0.000000
-14.706600 -1.676398 -13.106400 0.000000 0.000000 -1.000000 1.000000 0.000000 0.000000 -6.031250 0.687500 0 0 0 0 0.000000 0.000000 0.000000 0.000000
-14.706600 -1.676398 -11.582399 0.000000 1.000000 0.000000 1.000000 0.000000 0.000000 -6.031250 4.750000 0 0 0 0 0.000000 0.000000 0.000000 0.000000
-14.859000 -1.676398 -11.582399 0.000000 1.000000 0.000000 1.000000 0.000000 0.000000 -6.093750 4.750000 0 0 0 0 0.000000 0.000000 0.000000 0.000000
-14.859000 -1.676398 -13.106400 0.000000 1.000000 0.000000 1.000000 0.000000 0.000000 -6.093750 5.375000 0 0 0 0 0.000000 0.000000 0.000000 0.000000
-14.706600 -1.676398 -13.106400 0.000000 1.000000 0.000000 1.000000 0.000000 0.000000 -6.031250 5.375000 0 0 0 0 0.000000 0.000000 0.000000 0.000000
-14.706600 -1.676398 -11.582399 0.000000 -0.000000 1.000000 1.000000 0.000000 0.000000 -6.031250 0.687500 0 0 0 0 0.000000 0.000000 0.000000 0.000000
-14.706600 -3.352798 -11.582399 0.000000 -0.000000 1.000000 1.000000 0.000000 0.000000 -6.031250 1.375000 0 0 0 0 0.000000 0.000000 0.000000 0.000000
-14.859000 -3.352798 -11.582399 0.000000 -0.000000 1.000000 1.000000 0.000000 0.000000 -6.093750 1.375000 0 0 0 0 0.000000 0.000000 0.000000 0.000000
-14.859000 -1.676398 -11.582399 0.000000 -0.000000 1.000000 1.000000 0.000000 0.000000 -6.093750 0.687500 0 0 0 0 0.000000 0.000000 0.000000 0.000000
-14.859000 -1.676398 -11.582399 -1.000000 0.000000 0.000000 0.000000 -0.000000 1.000000 -4.750000 0.687500 0 0 0 0 0.000000 0.000000 0.000000 0.000000
-14.859000 -3.352798 -11.582399 -1.000000 0.000000 0.000000 0.000000 -0.000000 1.000000 -4.750000 1.375000 0 0 0 0 0.000000 0.000000 0.000000 0.000000
-14.859000 -3.352798 -13.106400 -1.000000 0.000000 0.000000 0.000000 -0.000000 1.000000 -5.375000 1.375000 0 0 0 0 0.000000 0.000000 0.000000 0.000000
-14.859000 -1.676398 -13.106400 -1.000000 0.000000 0.000000 0.000000 -0.000000 1.000000 -5.375000 0.687500 0 0 0 0 0.000000 0.000000 0.000000 0.000000
-14.706600 -1.676398 -13.106400 1.000000 0.000000 0.000000 0.000000 -0.000000 1.000000 -5.375000 0.687500 0 0 0 0 0.000000 0.000000 0.000000 0.000000
-14.706600 -3.352798 -13.106400 1.000000 0.000000 0.000000 0.000000 -0.000000 1.000000 -5.375000 1.375000 0 0 0 0 0.000000 0.000000 0.000000 0.000000
-14.706600 -3.352798 -11.582399 1.000000 0.000000 0.000000 0.000000 -0.000000 1.000000 -4.750000 1.375000 0 0 0 0 0.000000 0.000000 0.000000 0.000000
-14.706600 -1.676398 -11.582399 1.000000 0.000000 0.000000 0.000000 -0.000000 1.000000 -4.750000 0.687500 0 0 0 0 0.000000 0.000000 0.000000 0.000000
-8.610600 -3.352799 -5.715001 0.000000 -1.000000 -0.000000 1.000000 0.000000 0.000000 -3.531250 2.343750 0 0 0 0 0.000000 0.000000 0.000000 0.000000
-8.763000 -3.352799 -5.715001 0.000000 -1.000000 -0.000000 1.000000 0.000000 0.000000 -3.593750 2.343750 0 0 0 0 0.000000 0.000000 0.000000 0.000000
-8.763000 -3.352799 -4.267200 0.000000 -1.000000 -0.000000 1.000000 0.000000 0.000000 -3.593750 1.750000 0 0 0 0 0.000000 0.000000 0.000000 0.000000
-8.610600 -3.352799 -4.267200 0.000000 -1.000000 -0.000000 1.000000 0.000000 0.000000 -3.531250 1.750000 0 0 0 0 0.000000 0.000000 0.000000 0.000000
-8.763000 -1.676399 -5.715000 0.000000 0.000000 -1.000000 1.000000 0.000000 0.000000 -3.593750 0.687500 0 0 0 0 0.000000 0.000000 0.000000 0.000000
-8.763000 -3.352799 -5.715001 0.000000 0.000000 -1.000000 1.000000 0.000000 0.000000 -3.593750 1.375000 0 0 0 0 0.000000 0.000000 0.000000 0.000000
-8.610600 -3.352799 -5.715001 0.000000 0.000000 -1.000000 1.000000 0.000000 0.000000 -3.531250 1.375000 0 0 0 0 0.000000 0.000000 0.000000 0.000000
-8.610600 -1.676399 -5.715000 0.000000 0.000000 -1.000000 1.000000 0.000000 0.000000 -3.531250 0.687500 0 0 0 0 0.000000 0.000000 0.000000 0.000000
-8.610600 -1.676399 -4.267200 0.000000 1.000000 0.000000 1.000000 0.000000 0.000000 -3.531250 1.750000 0 0 0 0 0.000000 0.000000 0.000000 0.000000
-8.763000 -1.676399 -4.267200 0.000000 1.000000 0.000000 1.000000 0.000000 0.000000 -3.593750 1.750000 0 0 0 0 0.000000 0.000000 0.000000 0.000000
-8.763000 -1.676399 -5.715000 0.000000 1.000000 0.000000 1.000000 0.000000 0.000000 -3.593750 2.343750 0 0 0 0 0.000000 0.000000 0.000000 0.000000
-8.610600 -1.676399 -5.715000 0.000000 1.000000 0.000000 1.000000 0.000000 0.000000 -3.531250 2.343750 0 0 0 0 0.000000 0.000000 0.000000 0.000000
-8.610600 -1.676399 -4.267200 0.000000 -0.000000 1.000000 1.000000 0.000000 0.000000 -3.531250 0.687500 0 0 0 0 0.000000 0.000000 0.000000 0.000000
-8.610600 -3.352799 -4.267200 0.000000 -0.000000 1.000000 1.000000 0.000000 0.000000 -3.531250 1.375000 0 0 0 0 0.000000 0.000000 0.000000 0.000000
-8.763000 -3.352799 -4.267200 0.000000 -0.000000 1.000000 1.000000 0.000000 0.000000 -3.593750 1.375000 0 0 0 0 0.000000 0.000000 0.000000 0.000000
-8.763000 -1.676399 -4.267200 0.000000 -0.000000 1.000000 1.000000 0.000000 0.000000 -3.593750 0.687500 0 0 0 0 0.000000 0.000000 0.000000 0.000000
-8.763000 -1.676399 -4.267200 -1.000000 0.000000 0.000000 0.000000 -0.000000 1.000000 -1.750000 0.687500 0 0 0 0 0.000000 0.000000 0.000000 0.000000
-8.763000 -3.352799 -4.267200 -1.000000 0.000000 0.000000 0.000000 -0.000000 1.000000 -1.750000 1.375000 0 0 0 0 0.000000 0.000000 0.000000 0.000000
-8.763000 -3.352799 -5.715001 -1.000000 0.000000 0.000000 0.000000 -0.000000 1.000000 -2.343750 1.375000 0 0 0 0 0.000000 0.000000 0.000000 0.000000
-8.763000 -1.676399 -5.715000 -1.000000 0.000000 0.000000 0.000000 -0.000000 1.000000 -2.343750 0.687500 0 0 0 0 0.000000 0.000000 0.000000 0.000000
-8.610600 -1.676399 -5.715000 1.000000 0.000000 0.000000 0.000000 -0.000000 1.000000 -2.343750 0.687500 0 0 0 0 0.000000 0.000000 0.000000 0.000000
-8.610600 -3.352799 -5.715001 1.000000 0.000000 0.000000 0.000000 -0.000000 1.000000 -2.343750 1.375000 0 0 0 0 0.000000 0.000000 0.000000 0.000000
-8.610600 -3.352799 -4.267200 1.000000 0.000000 0.000000 0.000000 -0.000000 1.000000 -1.750000 1.375000 0 0 0 0 0.000000 0.000000 0.000000 0.000000
-8.610600 -1.676399 -4.267200 1.000000 0.000000 0.000000 0.000000 -0.000000 1.000000 -1.750000 0.687500 0 0 0 0 0.000000 0.000000 0.000000 0.000000
-8.610600 -3.352799 -7.315200 0.000000 -1.000000 -0.000000 1.000000 0.000000 0.000000 -3.531250 3.000000 0 0 0 0 0.000000 0.000000 0.000000 0.000000
-8.763000 -3.352799 -7.315200 0.000000 -1.000000 -0.000000 1.000000 0.000000 0.000000 -3.593750 3.000000 0 0 0 0 0.000000 0.000000 0.000000 0.000000
-8.763000 -3.352799 -5.867400 0.000000 -1.000000 -0.000000 1.000000 0.000000 0.000000 -3.593750 2.406250 0 0 0 0 0.000000 0.000000 0.000000 0.000000
-8.610600 -3.352799 -5.867400 0.000000 -1.000000 -0.000000 1.000000 0.000000 0.000000 -3.531250 2.406250 0 0 0 0 0.000000 0.000000 0.000000 0.000000
-8.610600 -1.676399 -5.867400 0.000000 -0.000000 1.000000 1.000000 0.000000 0.000000 -3.531250 0.687500 0 0 0 0 0.000000 0.000000 0.000000 0.000000
-8.610600 -3.352799 -5.867400 0.000000 -0.000000 1.000000 1.000000 0.000000 0.000000 -3.531250 1.375000 0 0 0 0 0.000000 0.000000 0.000000 0.000000
-8.763000 -3.352799 -5.867400 0.000000 -0.000000 1.000000 1.000000 0.000000 0.000000 -3.593750 1.375000 0 0 0 0 0.000000 0.000000 0.000000 0.000000
-8.763000 -1.676399 -5.867400 0.000000 -0.000000 1.000000 1.000000 0.000000 0.000000 -3.593750 0.687500 0 0 0 0 0.000000 0.000000 0.000000 0.000000
-8.610600 -1.676399 -5.867400 0.000000 1.000000 0.000000 1.000000 0.000000 0.000000 -3.531250 2.406250 0 0 0 0 0.000000 0.000000 0.000000 0.000000
-8.763000 -1.676399 -5.867400 0.000000 1.000000 0.000000 1.000000 0.000000 0.000000 -3.593750 2.406250 0 0 0 0 0.000000 0.000000 0.000000 0.000000
-8.763000 -1.676399 -7.315199 0.000000 1.000000 0.000000 1.000000 0.000000 0.000000 -3.593750 3.000000 0 0 0 0 0.000000 0.000000 0.000000 0.000000
-8.610600 -1.676399 -7.315199 0.000000 1.000000 0.000000 1.000000 0.000000 0.000000 -3.531250 3.000000 0 0 0 0 0.000000 0.000000 0.000000 0.000000
-8.763000 -1.676399 -7.315199 0.000000 0.000000 -1.000000 1.000000 0.000000 0.000000 -3.593750 0.687500 0 0 0 0 0.000000 0.000000 0.000000 0.000000
-8.763000 -3.352799 -7.315200 0.000000 0.000000 -1.000000 1.000000 0.000000 0.000000 -3.593750 1.375000 0 0 0 0 0.000000 0.000000 0.000000 0.000000
-8.610600 -3.352799 -7.315200 0.000000 0.000000 -1.000000 1.000000 0.000000 0.000000 -3.531250 1.375000 0 0 0 0 0.000000 0.000000 0.000000 0.000000
-8.610600 -1.676399 -7.315199 0.000000 0.000000 -1.000000 1.000000 0.000000 0.000000 -3.531250 0.687500 0 0 0 0 0.000000 0.000000 0.000000 0.000000
-8.763000 -1.676399 -5.867400 -1.000000 0.000000 0.000000 0.000000 -0.000000 1.000000 -2.406250 0.687500 0 0 0 0 0.000000 0.000000 0.000000 0.000000
-8.763000 -3.352799 -5.867400 -1.000000 0.000000 0.000000 0.000000 -0.000000 1.000000 -2.406250 1.375000 0 0 0 0 0.000000 0.000000 0.000000 0.000000
-8.763000 -3.352799 -7.315200 -1.000000 0.000000 0.000000 0.000000 -0.000000 1.000000 -3.000000 1.375000 0 0 0 0 0.000000 0.000000 0.000000 0.000000
-8.763000 -1.676399 -7.315199 -1.000000 0.000000 0.000000 0.000000 -0.000000 1.000000 -3.000000 0.687500 0 0 0 0 0.000000 0.000000 0.000000 0.000000
-8.610600 -1.676399 -7.315199 1.000000 0.000000 0.000000 0.000000 -0.000000 1.000000 -3.000000 0.687500 0 0 0 0 0.000000 0.000000 0.000000 0.000000
-8.610600 -3.352799 -7.315200 1.000000 0.000000 0.000000 0.000000 -0.000000 1.000000 -3.000000 1.375000 0 0 0 0 0.000000 0.000000 0.000000 0.000000
-8.610600 -3.352799 -5.867400 1.000000 0.000000 0.000000 0.000000 -0.000000 1.000000 -2.406250 1.375000 0 0 0 0 0.000000 0.000000 0.000000 0.000000
-8.610600 -1.676399 -5.867400 1.000000 0.000000 0.000000 0.000000 -0.000000 1.000000 -2.406250 0.687500 0 0 0 0 0.000000 0.000000 0.000000 0.000000
IndexCount: 144
3 1 0
3 2 1
7 5 4
7 6 5
11 9 8
11 10 9
15 13 12
15 14 13
19 17 16
19 18 17
23 21 20
23 22 21
27 25 24
27 26 25
31 29 28
31 30 29
35 33 32
35 34 33
39 37 36
39 38 37
43 41 40
43 42 41
47 45 44
47 46 45
51 49 48
51 50 49
55 53 52
55 54 53
59 57 56
59 58 57
63 61 60
63 62 61
67 65 64
67 66 65
71 69 68
71 70 69
75 73 72
75 74 73
79 77 76
79 78 77
83 81 80
83 82 81
87 85 84
87 86 85
91 89 88
91 90 89
95 93 92
95 94 93