VertexCount: 47
-1.524001 -2.438403 17.373600 0.000000 0.000002 -1.000000 1.000000 0.000000 0.000000 -0.625000 0.300000 0 0 0 0 0.000000 0.000000 0.000000 0.000000
-1.524001 -1.524003 17.373600 0.000000 0.000002 -1.000000 1.000000 0.000000 0.000000 -0.625000 0.000000 0 0 0 0 0.000000 0.000000 0.000000 0.000000
-2.743201 -1.524003 17.373600 0.000000 0.000002 -1.000000 1.000000 0.000000 0.000000 -1.125000 0.000000 0 0 0 0 0.000000 0.000000 0.000000 0.000000
-3.962401 -1.524003 17.373600 0.000000 0.000002 -1.000000 1.000000 0.000000 0.000000 -1.625000 0.000000 0 0 0 0 0.000000 0.000000 0.000000 0.000000
-3.962401 -2.438403 17.373600 0.000000 0.000002 -1.000000 1.000000 0.000000 0.000000 -1.625000 0.300000 0 0 0 0 0.000000 0.000000 0.000000 0.000000
-1.524001 -4.572003 17.373598 0.000000 -0.000001 -1.000000 1.000000 0.000000 0.000000 -0.625000 1.000000 0 0 0 0 0.000000 0.000000 0.000000 0.000000
-1.524001 -3.581403 17.373600 0.000000 -0.000001 -1.000000 1.000000 0.000000 0.000000 -0.625000 0.675000 0 0 0 0 0.000000 0.000000 0.000000 0.000000
-3.962401 -3.581403 17.373600 0.000000 -0.000001 -1.000000 1.000000 0.000000 0.000000 -1.625000 0.675000 0 0 0 0 0.000000 0.000000 0.000000 0.000000
-3.962401 -4.572003 17.373598 0.000000 -0.000001 -1.000000 1.000000 0.000000 0.000000 -1.625000 1.000000 0 0 0 0 0.000000 0.000000 0.000000 0.000000
-2.260093 -4.572003 17.373598 0.000000 -0.000001 -1.000000 1.000000 0.000000 0.000000 -0.926875 1.000000 0 0 0 0 0.000000 0.000000 0.000000 0.000000
-6.362701 -1.524003 17.373600 0.000000 0.000000 -1.000000 1.000000 0.000000 0.000000 -2.609375 0.000000 0 0 0 0 0.000000 0.000000 0.000000 0.000000
-6.362700 -4.572003 17.373598 0.000000 0.000000 -1.000000 1.000000 0.000000 0.000000 -2.609375 1.000000 0 0 0 0 0.000000 0.000000 0.000000 0.000000
-7.010401 -1.524004 17.373598 0.000000 0.000000 -1.000000 1.000000 0.000000 0.000000 -2.875000 0.000000 0 0 0 0 0.000000 0.000000 0.000000 0.000000
-10.629901 -1.524004 17.373598 0.000000 0.000000 -1.000000 1.000000 0.000000 0.000000 -4.359375 0.000000 0 0 0 0 0.000000 0.000000 0.000000 0.000000
-10.629901 -4.572004 17.373596 0.000000 0.000000 -1.000000 1.000000 0.000000 0.000000 -4.359375 1.000000 0 0 0 0 0.000000 0.000000 0.000000 0.000000
-7.010401 -4.572003 17.373596 0.000000 0.000000 -1.000000 1.000000 0.000000 0.000000 -2.875000 1.000000 0 0 0 0 0.000000 0.000000 0.000000 0.000000
-6.527293 -4.572003 17.373598 0.000000 0.000000 -1.000000 1.000000 0.000000 0.000000 -2.676875 1.000000 0 0 0 0 0.000000 0.000000 0.000000 0.000000
-23.164803 -4.572005 16.611597 1.000000 0.000000 0.000000 -0.000000 -0.000000 1.000000 6.812500 1.000000 0 0 0 0 0.000000 0.000000 0.000000 0.000000
-23.164803 -4.572005 17.373596 1.000000 0.000000 0.000000 -0.000000 -0.000000 1.000000 7.125000 1.000000 0 0 0 0 0.000000 0.000000 0.000000 0.000000
-23.164803 -1.524005 17.373596 1.000000 0.000000 0.000000 -0.000000 -0.000000 1.000000 7.125000 0.000000 0 0 0 0 0.000000 0.000000 0.000000 0.000000
-23.164803 -1.524005 16.611597 1.000000 0.000000 0.000000 -0.000000 -0.000000 1.000000 6.812500 0.000000 0 0 0 0 0.000000 0.000000 0.000000 0.000000
-23.164799 -4.572004 12.344397 1.000000 0.000000 0.000000 0.000000 0.000000 -1.000000 5.062500 1.000000 0 0 0 0 0.000000 0.000000 0.000000 0.000000
-23.164799 -4.572004 13.106396 1.000000 0.000000 0.000000 0.000000 0.000000 -1.000000 5.375000 1.000000 0 0 0 0 0.000000 0.000000 0.000000 0.000000
-23.164803 -4.572005 16.611597 1.000000 0.000000 0.000000 0.000000 0.000000 -1.000000 6.812500 1.000000 0 0 0 0 0.000000 0.000000 0.000000 0.000000
-23.164803 -1.524005 16.154396 1.000000 0.000000 0.000000 -0.000000 -0.000000 1.000000 6.625000 0.000000 0 0 0 0 0.000000 0.000000 0.000000 0.000000
-23.164803 -1.524004 14.630397 1.000000 0.000000 0.000000 -0.000000 -0.000000 1.000000 6.000000 0.000000 0 0 0 0 0.000000 0.000000 0.000000 0.000000
-23.164799 -1.524004 12.344398 1.000000 0.000000 0.000000 0.000000 -0.000000 1.000000 5.062500 0.000000 0 0 0 0 0.000000 0.000000 0.000000 0.000000
-23.164799 -4.572004 12.344397 1.000000 0.000000 -0.000000 0.000000 0.000000 1.000000 5.062500 1.000000 0 0 0 0 0.000000 0.000000 0.000000 0.000000
-23.164799 -1.524004 11.887198 1.000000 0.000000 -0.000000 0.000000 0.000000 1.000000 4.875000 0.000000 0 0 0 0 0.000000 0.000000 0.000000 0.000000
-23.164799 -1.524004 11.582397 1.000000 0.000000 -0.000000 0.000000 0.000000 1.000000 4.750000 0.000000 0 0 0 0 0.000000 0.000000 0.000000 0.000000
-23.164799 -1.524003 8.077198 1.000000 0.000000 -0.000000 0.000000 -0.000000 1.000000 3.312500 0.000000 0 0 0 0 0.000000 0.000000 0.000000 0.000000
-23.164799 -3.352803 8.077197 1.000000 0.000000 -0.000000 0.000000 -0.000000 1.000000 3.312500 0.600000 0 0 0 0 0.000000 0.000000 0.000000 0.000000
-23.164799 -4.572003 8.077197 1.000000 0.000000 -0.000000 0.000000 -0.000000 1.000000 3.312500 1.000000 0 0 0 0 0.000000 0.000000 0.000000 0.000000
-23.164799 -4.572004 11.887197 1.000000 0.000000 -0.000000 -0.000000 0.000000 -1.000000 4.875000 1.000000 0 0 0 0 0.000000 0.000000 0.000000 0.000000
-10.629901 -1.524004 17.373598 0.000000 0.000000 -1.000000 1.000000 0.000000 0.000000 -4.359375 0.000000 0 0 0 0 0.000000 0.000000 0.000000 0.000000
-13.106401 -1.524004 17.373598 0.000000 0.000000 -1.000000 1.000000 0.000000 0.000000 -5.375000 0.000000 0 0 0 0 0.000000 0.000000 0.000000 0.000000
-14.630400 -1.524004 17.373598 0.000000 0.000000 -1.000000 1.000000 0.000000 0.000000 -6.000000 0.000000 0 0 0 0 0.000000 0.000000 0.000000 0.000000
-14.630400 -4.572004 17.373596 0.000000 0.000000 -1.000000 1.000000 0.000000 0.000000 -6.000000 1.000000 0 0 0 0 0.000000 0.000000 0.000000 0.000000
-13.106401 -4.572004 17.373596 0.000000 0.000000 -1.000000 1.000000 -0.000000 0.000000 -5.375000 1.000000 0 0 0 0 0.000000 0.000000 0.000000 0.000000
-17.373600 -1.524004 17.373598 0.000000 0.000000 -1.000000 1.000000 0.000000 0.000000 -7.125000 0.000000 0 0 0 0 0.000000 0.000000 0.000000 0.000000
-18.897600 -1.524004 17.373598 0.000000 0.000000 -1.000000 1.000000 0.000000 0.000000 -7.750000 0.000000 0 0 0 0 0.000000 0.000000 0.000000 0.000000
-18.897600 -4.572005 17.373596 0.000000 0.000000 -1.000000 1.000000 0.000000 0.000000 -7.750000 1.000000 0 0 0 0 0.000000 0.000000 0.000000 0.000000
-17.856710 -4.572004 17.373596 0.000000 0.000000 -1.000000 1.000000 0.000000 0.000000 -7.323125 1.000000 0 0 0 0 0.000000 0.000000 0.000000 0.000000
-17.373600 -4.572004 17.373596 0.000000 0.000000 -1.000000 1.000000 -0.000000 0.000000 -7.125000 1.000000 0 0 0 0 0.000000 0.000000 0.000000 0.000000
-18.897600 -1.524004 17.373598 0.000000 0.000000 -1.000000 1.000000 0.000000 0.000000 -7.750000 0.000000 0 0 0 0 0.000000 0.000000 0.000000 0.000000
-23.164803 -1.524005 17.373596 0.000000 0.000000 -1.000000 1.000000 0.000000 0.000000 -9.500000 0.000000 0 0 0 0 0.000000 0.000000 0.000000 0.000000
-23.164803 -4.572005 17.373596 0.000000 0.000000 -1.000000 1.000000 0.000000 0.000000 -9.500000 1.000000 0 0 0 0 0.000000 0.000000 0.000000 0.000000
IndexCount: 117
0 4 3
0 3 2
2 1 0
10 3 4
10 4 7
9 8 7
9 7 6
10 7 8
9 6 5
8 11 10
10 11 16
10 16 15
10 15 14
14 12 10
14 13 12
34 14 38
34 38 37
34 37 36
36 35 34
36 37 43
36 43 42
36 42 41
36 41 40
40 39 36
41 46 45
41 45 44
20 18 17
20 19 18
21 24 20
21 20 23
21 26 25
21 25 24
23 22 21
28 26 27
27 29 28
27 33 32
27 32 31
27 31 30
27 30 29
