VertexCount: 20
-13.334998 0.838201 -11.849101 -0.000000 -0.000000 1.000000 1.000000 -0.000000 0.000000 -43.250000 -2.250000 0 0 0 0 0.000000 0.000000 0.000000 0.000000
-13.296898 0.838201 -11.849101 -0.000000 -0.000000 1.000000 1.000000 -0.000000 0.000000 -43.125000 -2.250000 0 0 0 0 0.000000 0.000000 0.000000 0.000000
-13.296898 0.800101 -11.849101 -0.000000 -0.000000 1.000000 1.000000 -0.000000 0.000000 -43.125000 -2.125000 0 0 0 0 0.000000 0.000000 0.000000 0.000000
-13.334998 0.800101 -11.849101 -0.000000 -0.000000 1.000000 1.000000 -0.000000 0.000000 -43.250000 -2.125000 0 0 0 0 0.000000 0.000000 0.000000 0.000000
-13.296898 0.838201 -11.849101 -0.000000 1.000000 0.000000 1.000000 0.000000 0.000000 -43.125000 39.125000 0 0 0 0 0.000000 0.000000 0.000000 0.000000
-13.334998 0.838201 -11.849101 -0.000000 1.000000 0.000000 1.000000 0.000000 0.000000 -43.250000 39.125000 0 0 0 0 0.000000 0.000000 0.000000 0.000000
-13.334998 0.838201 -11.887202 -0.000000 1.000000 0.000000 1.000000 0.000000 0.000000 -43.250000 39.250000 0 0 0 0 0.000000 0.000000 0.000000 0.000000
-13.296898 0.838201 -11.887202 -0.000000 1.000000 0.000000 1.000000 0.000000 0.000000 -43.125000 39.250000 0 0 0 0 0.000000 0.000000 0.000000 0.000000
-13.296898 0.838201 -11.849101 1.000000 0.000000 0.000000 -0.000000 -0.000000 1.000000 -39.125000 -2.250000 0 0 0 0 0.000000 0.000000 0.000000 0.000000
-13.296898 0.838201 -11.887202 1.000000 0.000000 0.000000 -0.000000 -0.000000 1.000000 -39.250000 -2.250000 0 0 0 0 0.000000 0.000000 0.000000 0.000000
-13.296898 0.800101 -11.887202 1.000000 0.000000 0.000000 -0.000000 -0.000000 1.000000 -39.250000 -2.125000 0 0 0 0 0.000000 0.000000 0.000000 0.000000
-13.296898 0.800101 -11.849101 1.000000 0.000000 0.000000 -0.000000 -0.000000 1.000000 -39.125000 -2.125000 0 0 0 0 0.000000 0.000000 0.000000 0.000000
-13.334998 0.800101 -11.849101 0.000000 -1.000000 -0.000000 1.000000 0.000000 0.000000 -43.250000 39.125000 0 0 0 0 0.000000 0.000000 0.000000 0.000000
-13.296898 0.800101 -11.849101 0.000000 -1.000000 -0.000000 1.000000 0.000000 0.000000 -43.125000 39.125000 0 0 0 0 0.000000 0.000000 0.000000 0.000000
-13.296898 0.800101 -11.887202 0.000000 -1.000000 -0.000000 1.000000 0.000000 0.000000 -43.125000 39.250000 0 0 0 0 0.000000 0.000000 0.000000 0.000000
-13.334998 0.800101 -11.887202 0.000000 -1.000000 -0.000000 1.000000 0.000000 0.000000 -43.250000 39.250000 0 0 0 0 0.000000 0.000000 0.000000 0.000000
-13.334998 0.838201 -11.849101 -1.000000 -0.000000 -0.000000 -0.000000 -0.000000 1.000000 -39.125000 -2.250000 0 0 0 0 0.000000 0.000000 0.000000 0.000000
-13.334998 0.800101 -11.849101 -1.000000 -0.000000 -0.000000 -0.000000 -0.000000 1.000000 -39.125000 -2.125000 0 0 0 0 0.000000 0.000000 0.000000 0.000000
-13.334998 0.800101 -11.887202 -1.000000 -0.000000 -0.000000 -0.000000 -0.000000 1.000000 -39.250000 -2.125000 0 0 0 0 0.000000 0.000000 0.000000 0.000000
-13.334998 0.838201 -11.887202 -1.000000 -0.000000 -0.000000 -0.000000 -0.000000 1.000000 -39.250000 -2.250000 0 0 0 0 0.000000 0.000000 0.000000 0.000000
IndexCount: 30
3 1 0
3 2 1
7 5 4
7 6 5
11 9 8
11 10 9
15 13 12
15 14 13
19 17 16
19 18 17
