VertexCount: 35
2.666999 -4.572001 11.582398 0.000000 0.000000 -1.000000 1.000000 0.000000 0.000000 1.210938 1.000000 0 0 0 0 0.000000 0.000000 0.000000 0.000000
4.267200 -4.572001 11.582398 0.000000 0.000000 -1.000000 1.000000 -0.000000 0.000000 1.867188 1.000000 0 0 0 0 0.000000 0.000000 0.000000 0.000000
4.267199 -1.524002 11.582399 0.000000 0.000000 -1.000000 1.000000 0.000000 0.000000 1.867188 0.000000 0 0 0 0 0.000000 0.000000 0.000000 0.000000
2.666999 -1.524002 11.582399 0.000000 0.000000 -1.000000 1.000000 0.000000 0.000000 1.210938 0.000000 0 0 0 0 0.000000 0.000000 0.000000 0.000000
2.666999 -2.133602 11.582399 0.000000 0.000000 -1.000000 1.000000 0.000000 0.000000 1.210938 0.200000 0 0 0 0 0.000000 0.000000 0.000000 0.000000
2.666999 -3.505202 11.582399 0.000000 0.000000 -1.000000 0.000000 1.000000 0.000000 1.210938 0.650000 0 0 0 0 0.000000 0.000000 0.000000 0.000000
-0.304801 -4.572003 16.154398 -1.000000 -0.000000 -0.000000 -0.000000 0.000000 1.000000 6.937500 1.000000 0 0 0 0 0.000000 0.000000 0.000000 0.000000
-0.304801 -1.524003 16.154400 -1.000000 -0.000000 -0.000000 -0.000000 -0.000000 1.000000 6.937500 0.000000 0 0 0 0 0.000000 0.000000 0.000000 0.000000
-0.304801 -1.524003 17.373600 -1.000000 -0.000000 -0.000000 -0.000000 -0.000000 1.000000 7.437500 0.000000 0 0 0 0 0.000000 0.000000 0.000000 0.000000
-0.304801 -4.572003 17.373598 -1.000000 -0.000000 -0.000000 -0.000000 0.000000 1.000000 7.437500 1.000000 0 0 0 0 0.000000 0.000000 0.000000 0.000000
-0.304801 -4.572003 16.154398 -1.000000 -0.000000 -0.000000 -0.000000 -0.000000 1.000000 6.937500 1.000000 0 0 0 0 0.000000 0.000000 0.000000 0.000000
-0.304801 -4.572002 13.106399 -1.000000 -0.000000 -0.000000 -0.000000 -0.000000 1.000000 5.687500 1.000000 0 0 0 0 0.000000 0.000000 0.000000 0.000000
-0.304801 -4.572002 11.887199 -1.000000 -0.000000 -0.000000 -0.000000 -0.000000 1.000000 5.187500 1.000000 0 0 0 0 0.000000 0.000000 0.000000 0.000000
-0.304801 -1.524002 11.887200 -1.000000 -0.000000 -0.000000 -0.000000 -0.000000 1.000000 5.187500 0.000000 0 0 0 0 0.000000 0.000000 0.000000 0.000000
-0.304801 -1.524003 14.630399 -1.000000 -0.000000 -0.000000 -0.000000 -0.000000 1.000000 6.312500 0.000000 0 0 0 0 0.000000 0.000000 0.000000 0.000000
-0.304801 -4.572003 17.373598 0.000000 0.000000 -1.000000 1.000000 -0.000000 0.000000 0.187500 1.000000 0 0 0 0 0.000000 0.000000 0.000000 0.000000
-0.304801 -1.524003 17.373600 0.000000 0.000000 -1.000000 1.000000 -0.000000 0.000000 0.187500 0.000000 0 0 0 0 0.000000 0.000000 0.000000 0.000000
-1.524001 -1.524003 17.373600 0.000000 0.000000 -1.000000 1.000000 -0.000000 0.000000 -0.312500 0.000000 0 0 0 0 0.000000 0.000000 0.000000 0.000000
-1.524001 -2.438403 17.373600 0.000000 0.000000 -1.000000 1.000000 -0.000000 0.000000 -0.312500 0.300000 0 0 0 0 0.000000 0.000000 0.000000 0.000000
-1.524001 -3.581403 17.373600 0.000000 0.000000 -1.000000 1.000000 0.000001 0.000000 -0.312500 0.675000 0 0 0 0 0.000000 0.000000 0.000000 0.000000
-1.524001 -4.572003 17.373598 0.000000 0.000000 -1.000000 1.000000 0.000000 0.000000 -0.312500 1.000000 0 0 0 0 0.000000 0.000000 0.000000 0.000000
-0.304801 -4.572002 11.887199 -1.000000 -0.000000 -0.000000 -0.000000 -0.000000 1.000000 5.187500 1.000000 0 0 0 0 0.000000 0.000000 0.000000 0.000000
-0.304801 -4.572002 11.582398 -1.000000 -0.000000 -0.000000 -0.000000 -0.000000 1.000000 5.062500 1.000000 0 0 0 0 0.000000 0.000000 0.000000 0.000000
-0.304801 -1.524002 11.582399 -1.000000 -0.000000 -0.000000 -0.000000 -0.000000 1.000000 5.062500 0.000000 0 0 0 0 0.000000 0.000000 0.000000 0.000000
0.685799 -2.133602 11.582399 0.000000 0.000000 -1.000000 1.000000 0.000000 0.000000 0.398438 0.200000 0 0 0 0 0.000000 0.000000 0.000000 0.000000
0.685799 -1.524002 11.582399 0.000000 0.000000 -1.000000 1.000000 0.000000 0.000000 0.398438 0.000000 0 0 0 0 0.000000 0.000000 0.000000 0.000000
0.685799 -3.505202 11.582399 0.000000 0.000000 -1.000000 1.000000 0.000000 0.000000 0.398438 0.650000 0 0 0 0 0.000000 0.000000 0.000000 0.000000
0.685799 -4.572002 11.582398 0.000000 0.000000 -1.000000 1.000000 0.000000 0.000000 0.398438 1.000000 0 0 0 0 0.000000 0.000000 0.000000 0.000000
2.666999 -3.505202 11.582399 0.000000 0.000000 -1.000000 1.000000 0.000000 0.000000 1.210938 0.650000 0 0 0 0 0.000000 0.000000 0.000000 0.000000
0.685799 -4.572002 11.582398 0.000000 0.000000 -1.000000 0.000000 -1.000000 -0.000000 0.398438 1.000000 0 0 0 0 0.000000 0.000000 0.000000 0.000000
0.685799 -3.505202 11.582399 0.000000 0.000000 -1.000000 0.000000 -1.000000 -0.000000 0.398438 0.650000 0 0 0 0 0.000000 0.000000 0.000000 0.000000
0.685799 -2.133602 11.582399 0.000000 0.000000 -1.000000 0.000000 -1.000000 -0.000000 0.398438 0.200000 0 0 0 0 0.000000 0.000000 0.000000 0.000000
0.685799 -1.524002 11.582399 0.000000 0.000000 -1.000000 0.000000 -1.000000 -0.000000 0.398438 0.000000 0 0 0 0 0.000000 0.000000 0.000000 0.000000
-0.304801 -1.524002 11.582399 0.000000 0.000000 -1.000000 1.000000 -0.000000 0.000000 -0.007812 0.000000 0 0 0 0 0.000000 0.000000 0.000000 0.000000
-0.304801 -4.572002 11.582398 0.000000 0.000000 -1.000000 1.000000 -0.000000 0.000000 -0.007812 1.000000 0 0 0 0 0.000000 0.000000 0.000000 0.000000
IndexCount: 72
0 5 4
4 1 0
28 0 27
4 3 2
4 2 1
25 3 4
25 4 24
28 27 26
9 7 6
9 8 7
10 7 14
10 14 13
10 13 12
12 11 10
13 23 22
13 22 21
15 20 19
15 19 18
15 18 17
17 16 15
29 34 33
29 33 32
31 30 29
32 31 29
