VertexCount: 86
-6.362701 -0.609602 11.582399 0.000000 -1.000000 -0.000000 -0.000000 -0.000000 1.000000 10.000000 -6.000000 0 0 0 0 0.000000 0.000000 0.000000 0.000000
-5.791201 -0.609602 11.582399 0.000000 -1.000000 -0.000000 -0.000000 -0.000000 1.000000 10.000000 -5.531250 0 0 0 0 0.000000 0.000000 0.000000 0.000000
-5.791201 -0.609602 9.143999 0.000000 -1.000000 -0.000000 -0.000000 -0.000000 1.000000 8.000000 -5.531250 0 0 0 0 0.000000 0.000000 0.000000 0.000000
-6.362700 -0.609602 9.143999 0.000000 -1.000000 -0.000000 -0.000000 -0.000000 1.000000 8.000000 -6.000000 0 0 0 0 0.000000 0.000000 0.000000 0.000000
-10.629901 -0.609603 11.582398 0.000000 -1.000000 -0.000000 -0.000000 -0.000000 1.000000 10.000000 -9.500000 0 0 0 0 0.000000 0.000000 0.000000 0.000000
-7.924800 -0.609602 9.143999 0.000000 -1.000000 -0.000000 -0.000000 -0.000000 1.000000 8.000000 -7.281250 0 0 0 0 0.000000 0.000000 0.000000 0.000000
-9.448800 -0.609602 9.143999 0.000000 -1.000000 -0.000000 -0.000000 -0.000000 1.000000 8.000000 -8.531250 0 0 0 0 0.000000 0.000000 0.000000 0.000000
-10.629901 -0.609602 9.143999 0.000000 -1.000000 -0.000000 -0.000000 -0.000000 1.000000 8.000000 -9.500000 0 0 0 0 0.000000 0.000000 0.000000 0.000000
-6.362700 -0.609602 7.296149 0.000000 -1.000000 -0.000000 0.000000 -0.000000 1.000000 6.484375 -6.000000 0 0 0 0 0.000000 0.000000 0.000000 0.000000
-6.362700 -0.609602 7.924799 0.000000 -1.000000 -0.000000 0.000000 -0.000000 1.000000 7.000000 -6.000000 0 0 0 0 0.000000 0.000000 0.000000 0.000000
-5.791201 -0.609602 7.924799 0.000000 -1.000000 -0.000000 -0.000000 -0.000000 1.000000 7.000000 -5.531250 0 0 0 0 0.000000 0.000000 0.000000 0.000000
-5.791201 -0.609602 7.296149 0.000000 -1.000000 -0.000000 0.000000 -0.000000 1.000000 6.484375 -5.531250 0 0 0 0 0.000000 0.000000 0.000000 0.000000
-10.629901 -0.609602 7.296148 0.000000 -1.000000 -0.000000 0.000000 -0.000000 1.000000 6.484375 -9.500000 0 0 0 0 0.000000 0.000000 0.000000 0.000000
-10.629901 -0.609602 7.315198 0.000000 -1.000000 -0.000000 0.000000 -0.000000 1.000000 6.500000 -9.500000 0 0 0 0 0.000000 0.000000 0.000000 0.000000
-10.629901 -0.609602 7.924798 0.000000 -1.000000 -0.000000 0.000000 -0.000000 1.000000 7.000000 -9.500000 0 0 0 0 0.000000 0.000000 0.000000 0.000000
-9.448800 -0.609602 7.924799 0.000000 -1.000000 -0.000000 0.000001 -0.000000 1.000000 7.000000 -8.531250 0 0 0 0 0.000000 0.000000 0.000000 0.000000
-7.924800 -0.609602 7.924799 0.000000 -1.000000 -0.000000 0.000001 -0.000000 1.000000 7.000000 -7.281250 0 0 0 0 0.000000 0.000000 0.000000 0.000000
-6.362700 -0.609602 9.143999 0.000000 -1.000000 -0.000000 -1.000000 -0.000000 0.000000 8.000000 -6.000000 0 0 0 0 0.000000 0.000000 0.000000 0.000000
-10.629900 -0.609602 4.267199 0.000000 -1.000000 -0.000000 -0.000000 -0.000000 1.000000 4.000000 -9.500000 0 0 0 0 0.000000 0.000000 0.000000 0.000000
-9.448800 -0.609601 4.267199 0.000000 -1.000000 -0.000000 0.000000 -0.000000 1.000000 4.000000 -8.531250 0 0 0 0 0.000000 0.000000 0.000000 0.000000
-9.448800 -0.609601 3.047999 0.000000 -1.000000 -0.000000 -0.000001 -0.000000 1.000000 3.000000 -8.531250 0 0 0 0 0.000000 0.000000 0.000000 0.000000
-10.629900 -0.609601 3.047999 0.000000 -1.000000 -0.000000 -0.000000 -0.000000 1.000000 3.000000 -9.500000 0 0 0 0 0.000000 0.000000 0.000000 0.000000
-5.791201 -0.609601 4.267200 0.000000 -1.000000 -0.000000 -0.000000 -0.000000 1.000000 4.000000 -5.531250 0 0 0 0 0.000000 0.000000 0.000000 0.000000
-5.791200 -0.609601 3.048000 0.000000 -1.000000 -0.000000 -0.000000 -0.000000 1.000000 3.000000 -5.531250 0 0 0 0 0.000000 0.000000 0.000000 0.000000
-6.362700 -0.609601 3.048000 0.000000 -1.000000 -0.000000 -0.000000 -0.000000 1.000000 3.000000 -6.000000 0 0 0 0 0.000000 0.000000 0.000000 0.000000
-7.924799 -0.609601 3.048000 0.000000 -1.000000 -0.000000 -0.000001 -0.000000 1.000000 3.000000 -7.281250 0 0 0 0 0.000000 0.000000 0.000000 0.000000
-7.924800 -0.609601 4.267200 0.000000 -1.000000 -0.000000 -0.000000 -0.000000 1.000000 4.000000 -7.281250 0 0 0 0 0.000000 0.000000 0.000000 0.000000
-6.362700 -0.609601 4.267200 0.000000 -1.000000 -0.000000 -0.000000 -0.000000 1.000000 4.000000 -6.000000 0 0 0 0 0.000000 0.000000 0.000000 0.000000
-5.791201 -0.609601 6.172200 0.000000 -1.000000 -0.000000 0.000000 -0.000000 1.000000 5.562500 -5.531250 0 0 0 0 0.000000 0.000000 0.000000 0.000000
-6.362700 -0.609602 6.172200 0.000000 -1.000000 -0.000000 -0.000000 -0.000000 1.000000 5.562500 -6.000000 0 0 0 0 0.000000 0.000000 0.000000 0.000000
-8.496301 -0.609602 6.172200 0.000000 -1.000000 -0.000000 -0.000000 -0.000000 1.000000 5.562500 -7.750000 0 0 0 0 0.000000 0.000000 0.000000 0.000000
-10.629900 -0.609602 6.172199 0.000000 -1.000000 -0.000000 -0.000001 -0.000000 1.000000 5.562500 -9.500000 0 0 0 0 0.000000 0.000000 0.000000 0.000000
-6.362700 -0.609601 5.257800 0.000000 -1.000000 -0.000000 -0.000000 -0.000000 1.000000 4.812500 -6.000000 0 0 0 0 0.000000 0.000000 0.000000 0.000000
-5.791201 -0.609601 5.257800 0.000000 -1.000000 -0.000000 -0.000000 -0.000000 1.000000 4.812500 -5.531250 0 0 0 0 0.000000 0.000000 0.000000 0.000000
-5.791201 -0.609601 4.876799 0.000000 -1.000000 -0.000000 -0.000000 -0.000000 1.000000 4.500000 -5.531250 0 0 0 0 0.000000 0.000000 0.000000 0.000000
-10.629900 -0.609602 5.257799 0.000000 -1.000000 -0.000000 -1.000000 -0.000000 -0.000000 4.812500 -9.500000 0 0 0 0 0.000000 0.000000 0.000000 0.000000
-8.496301 -0.609602 5.257800 0.000000 -1.000000 -0.000000 -1.000000 -0.000000 -0.000000 4.812500 -7.750000 0 0 0 0 0.000000 0.000000 0.000000 0.000000
-6.362700 -0.609601 5.257800 0.000000 -1.000000 -0.000000 -1.000000 -0.000000 -0.000000 4.812500 -6.000000 0 0 0 0 0.000000 0.000000 0.000000 0.000000
-5.791200 -0.609601 0.609599 0.000000 -1.000000 -0.000000 0.000000 -0.000000 1.000000 1.000000 -5.531250 0 0 0 0 0.000000 0.000000 0.000000 0.000000
-6.362700 -0.609601 0.609599 0.000000 -1.000000 -0.000000 -0.000000 -0.000000 1.000000 1.000000 -6.000000 0 0 0 0 0.000000 0.000000 0.000000 0.000000
-10.629900 -0.609601 3.047999 0.000000 -1.000000 -0.000000 -1.000000 -0.000000 -0.000000 3.000000 -9.500000 0 0 0 0 0.000000 0.000000 0.000000 0.000000
-9.448800 -0.609601 3.047999 0.000000 -1.000000 -0.000000 -1.000000 -0.000000 -0.000000 3.000000 -8.531250 0 0 0 0 0.000000 0.000000 0.000000 0.000000
-7.924799 -0.609601 3.048000 0.000000 -1.000000 -0.000000 -1.000000 -0.000000 -0.000000 3.000000 -7.281250 0 0 0 0 0.000000 0.000000 0.000000 0.000000
-6.362700 -0.609601 3.048000 0.000000 -1.000000 -0.000000 1.000000 0.000000 0.000000 3.000000 -6.000000 0 0 0 0 0.000000 0.000000 0.000000 0.000000
-10.629900 -0.609601 0.609599 0.000000 -1.000000 -0.000000 -0.000000 -0.000000 1.000000 1.000000 -9.500000 0 0 0 0 0.000000 0.000000 0.000000 0.000000
-12.954001 -0.609602 7.924798 0.000000 -1.000000 -0.000000 0.000000 -0.000000 1.000000 7.000000 -11.406250 0 0 0 0 0.000000 0.000000 0.000000 0.000000
-12.954001 -0.609603 9.143999 0.000000 -1.000000 -0.000000 0.000000 -0.000000 1.000000 8.000000 -11.406250 0 0 0 0 0.000000 0.000000 0.000000 0.000000
-14.478002 -0.609603 9.143999 0.000000 -1.000000 -0.000000 0.000000 -0.000000 1.000000 8.000000 -12.656250 0 0 0 0 0.000000 0.000000 0.000000 0.000000
-14.478002 -0.609603 7.924798 0.000000 -1.000000 -0.000000 0.000000 -0.000000 1.000000 7.000000 -12.656250 0 0 0 0 0.000000 0.000000 0.000000 0.000000
-17.373600 -0.609603 7.924798 0.000000 -1.000000 -0.000000 -0.000000 -0.000000 1.000000 7.000000 -15.031250 0 0 0 0 0.000000 0.000000 0.000000 0.000000
-17.373600 -0.609603 9.143999 0.000000 -1.000000 -0.000000 0.000000 -0.000000 1.000000 8.000000 -15.031250 0 0 0 0 0.000000 0.000000 0.000000 0.000000
-13.106401 -0.609602 7.924798 0.000000 -1.000000 -0.000000 -1.000000 -0.000000 0.000000 7.000000 -11.531250 0 0 0 0 0.000000 0.000000 0.000000 0.000000
-12.954001 -0.609602 7.924798 0.000000 -1.000000 -0.000000 -1.000000 -0.000000 0.000000 7.000000 -11.406250 0 0 0 0 0.000000 0.000000 0.000000 0.000000
-10.629901 -0.609602 7.924798 0.000000 -1.000000 -0.000000 -1.000000 -0.000000 0.000000 7.000000 -9.500000 0 0 0 0 0.000000 0.000000 0.000000 0.000000
-13.106401 -0.609602 7.315198 0.000000 -1.000000 -0.000000 -0.000000 -0.000000 1.000000 6.500000 -11.531250 0 0 0 0 0.000000 0.000000 0.000000 0.000000
-13.106401 -0.609602 7.924798 0.000000 -1.000000 -0.000000 -0.000000 -0.000000 1.000000 7.000000 -11.531250 0 0 0 0 0.000000 0.000000 0.000000 0.000000
-17.373600 -0.609603 7.315198 0.000000 -1.000000 -0.000000 -0.000000 -0.000000 1.000000 6.500000 -15.031250 0 0 0 0 0.000000 0.000000 0.000000 0.000000
-14.478002 -0.609603 7.924798 0.000000 -1.000000 -0.000000 -1.000000 -0.000000 0.000000 7.000000 -12.656250 0 0 0 0 0.000000 0.000000 0.000000 0.000000
-13.106401 -0.609603 11.582398 0.000000 -1.000000 -0.000000 -0.000000 -0.000000 1.000000 10.000000 -11.531250 0 0 0 0 0.000000 0.000000 0.000000 0.000000
-13.106401 -0.609603 9.143999 0.000000 -1.000000 -0.000000 -0.000000 -0.000000 1.000000 8.000000 -11.531250 0 0 0 0 0.000000 0.000000 0.000000 0.000000
-17.373600 -0.609603 11.582398 0.000000 -1.000000 -0.000000 0.000000 -0.000000 1.000000 10.000000 -15.031250 0 0 0 0 0.000000 0.000000 0.000000 0.000000
-10.972800 -0.609602 6.172199 0.000000 -1.000000 -0.000000 0.000001 -0.000000 1.000000 5.562500 -9.781250 0 0 0 0 0.000000 0.000000 0.000000 0.000000
-13.106400 -0.609602 6.172199 0.000000 -1.000000 -0.000000 -0.000001 -0.000000 1.000000 5.562500 -11.531250 0 0 0 0 0.000000 0.000000 0.000000 0.000000
-15.240000 -0.609602 6.172199 0.000000 -1.000000 -0.000000 -0.000001 -0.000000 1.000000 5.562500 -13.281250 0 0 0 0 0.000000 0.000000 0.000000 0.000000
-17.373600 -0.609603 6.172199 0.000000 -1.000000 -0.000000 -0.000001 -0.000000 1.000000 5.562500 -15.031250 0 0 0 0 0.000000 0.000000 0.000000 0.000000
-13.106400 -0.609602 3.047999 0.000000 -1.000000 -0.000000 -0.000001 -0.000000 1.000000 3.000000 -11.531250 0 0 0 0 0.000000 0.000000 0.000000 0.000000
-12.954000 -0.609602 3.047999 0.000000 -1.000000 -0.000000 -0.000001 -0.000000 1.000000 3.000000 -11.406250 0 0 0 0 0.000000 0.000000 0.000000 0.000000
-13.106400 -0.609601 0.609599 0.000000 -1.000000 -0.000000 0.000000 -0.000000 1.000000 1.000000 -11.531250 0 0 0 0 0.000000 0.000000 0.000000 0.000000
-17.373600 -0.609602 0.609598 0.000000 -1.000000 -0.000000 0.000000 -0.000000 1.000000 1.000000 -15.031250 0 0 0 0 0.000000 0.000000 0.000000 0.000000
-17.373600 -0.609602 3.047999 0.000000 -1.000000 -0.000000 -0.000000 -0.000000 1.000000 3.000000 -15.031250 0 0 0 0 0.000000 0.000000 0.000000 0.000000
-14.478001 -0.609602 3.047999 0.000000 -1.000000 -0.000000 -1.000000 -0.000000 -0.000000 3.000000 -12.656250 0 0 0 0 0.000000 0.000000 0.000000 0.000000
-13.106400 -0.609602 5.257799 0.000000 -1.000000 -0.000000 -1.000000 -0.000000 -0.000000 4.812500 -11.531250 0 0 0 0 0.000000 0.000000 0.000000 0.000000
-10.972800 -0.609602 5.257799 0.000000 -1.000000 -0.000000 -1.000000 -0.000000 -0.000000 4.812500 -9.781250 0 0 0 0 0.000000 0.000000 0.000000 0.000000
-12.954000 -0.609602 4.267199 0.000000 -1.000000 -0.000000 0.000000 -0.000000 1.000000 4.000000 -11.406250 0 0 0 0 0.000000 0.000000 0.000000 0.000000
-13.106400 -0.609602 4.267199 0.000000 -1.000000 -0.000000 0.000000 -0.000000 1.000000 4.000000 -11.531250 0 0 0 0 0.000000 0.000000 0.000000 0.000000
-13.106400 -0.609602 5.257799 0.000000 -1.000000 -0.000000 0.000000 -0.000000 1.000000 4.812500 -11.531250 0 0 0 0 0.000000 0.000000 0.000000 0.000000
-14.478001 -0.609602 4.267199 0.000000 -1.000000 -0.000000 0.000000 -0.000000 1.000000 4.000000 -12.656250 0 0 0 0 0.000000 0.000000 0.000000 0.000000
-17.373600 -0.609602 4.267199 0.000000 -1.000000 -0.000000 0.000000 -0.000000 1.000000 4.000000 -15.031250 0 0 0 0 0.000000 0.000000 0.000000 0.000000
-17.373600 -0.609602 4.876798 0.000000 -1.000000 -0.000000 -0.000000 -0.000000 1.000000 4.500000 -15.031250 0 0 0 0 0.000000 0.000000 0.000000 0.000000
-17.373600 -0.609602 5.257799 0.000000 -1.000000 -0.000000 0.000000 -0.000000 1.000000 4.812500 -15.031250 0 0 0 0 0.000000 0.000000 0.000000 0.000000
-15.240000 -0.609602 5.257799 0.000000 -1.000000 -0.000000 -1.000000 -0.000000 0.000000 4.812500 -13.281250 0 0 0 0 0.000000 0.000000 0.000000 0.000000
-14.478001 -0.609602 3.047999 0.000000 -1.000000 -0.000000 0.000000 -0.000000 1.000000 3.000000 -12.656250 0 0 0 0 0.000000 0.000000 0.000000 0.000000
-21.945601 -1.524001 -4.876802 -0.000000 -0.000000 1.000000 1.000000 0.000000 0.000000 -18.000000 0.000000 0 0 0 0 0.000000 0.000000 0.000000 0.000000
-21.945601 -0.304801 -4.876801 -0.000000 -0.000000 1.000000 1.000000 0.000000 0.000000 -18.000000 -1.000000 0 0 0 0 0.000000 0.000000 0.000000 0.000000
-19.507198 -0.304801 -4.876801 -0.000000 -0.000000 1.000000 1.000000 0.000000 0.000000 -16.000000 -1.000000 0 0 0 0 0.000000 0.000000 0.000000 0.000000
-19.507198 -1.524001 -4.876802 -0.000000 -0.000000 1.000000 1.000000 0.000000 0.000000 -16.000000 0.000000 0 0 0 0 0.000000 0.000000 0.000000 0.000000
IndexCount: 264
3 1 0
3 0 4
3 2 1
4 5 3
4 7 6
4 6 5
7 4 58
2 17 5
2 5 16
2 16 9
9 10 2
8 9 16
8 16 15
11 10 9
11 9 8
29 28 11
29 11 8
12 30 29
29 8 12
13 12 8
12 31 30
54 31 12
12 13 54
8 14 13
51 54 13
51 13 53
53 52 51
56 54 55
54 62 61
54 61 31
54 56 64
54 64 63
63 62 54
55 49 56
55 57 49
50 49 48
50 48 47
58 60 50
58 50 47
47 59 58
58 59 46
58 46 7
46 45 14
46 14 7
14 6 7
8 15 14
14 15 6
21 19 18
35 18 19
71 73 18
71 18 35
73 21 18
21 20 19
44 21 66
73 66 21
35 19 26
27 26 25
35 26 27
27 25 24
27 24 23
27 23 22
32 27 22
35 27 37
39 23 24
39 38 23
40 44 39
40 39 43
40 43 42
42 41 40
65 67 44
44 66 65
65 70 69
65 69 68
68 67 65
77 69 81
75 78 77
75 77 76
77 81 76
75 80 79
75 79 78
76 74 75
71 74 73
35 72 71
37 36 35
32 22 34
34 33 32
85 83 82
85 84 83
