VertexCount: 26
-7.010401 -1.524003 13.866113 1.000000 0.000000 0.000000 -0.000000 -0.000000 1.000000 5.569375 0.000000 0 0 0 0 0.000000 0.000000 0.000000 0.000000
-7.010401 -4.572003 13.866112 1.000000 0.000000 0.000000 -0.000000 -0.000000 1.000000 5.569375 1.000000 0 0 0 0 0.000000 0.000000 0.000000 0.000000
-7.010401 -4.572003 13.868398 1.000000 0.000000 0.000000 -0.000000 -0.000000 1.000000 5.570312 1.000000 0 0 0 0 0.000000 0.000000 0.000000 0.000000
-7.010401 -1.524003 13.868400 1.000000 0.000000 0.000000 -0.000000 -0.000000 1.000000 5.570312 0.000000 0 0 0 0 0.000000 0.000000 0.000000 0.000000
-3.048000 -1.066799 -5.943600 -1.000000 -0.000000 -0.000000 -0.000000 0.000000 1.000000 -4.000000 0.000000 0 0 0 0 0.000000 0.000000 0.000000 0.000000
-3.048000 -1.523999 -5.943600 -1.000000 -0.000000 -0.000000 -0.000000 0.000000 1.000000 -4.000000 0.150000 0 0 0 0 0.000000 0.000000 0.000000 0.000000
-3.047999 -4.114799 -5.943601 -1.000000 -0.000000 -0.000000 -0.000000 -0.000000 1.000000 -4.000000 1.000000 0 0 0 0 0.000000 0.000000 0.000000 0.000000
-3.047999 -4.114799 -6.934201 -1.000000 -0.000000 -0.000000 -0.000000 0.000000 1.000000 -4.406250 1.000000 0 0 0 0 0.000000 0.000000 0.000000 0.000000
-3.047999 -4.114799 -8.382001 -1.000000 -0.000000 -0.000000 -0.000000 -0.000000 1.000000 -5.000000 1.000000 0 0 0 0 0.000000 0.000000 0.000000 0.000000
-3.048000 -1.066799 -8.382000 -1.000000 -0.000000 -0.000000 -0.000000 -0.000000 1.000000 -5.000000 0.000000 0 0 0 0 0.000000 0.000000 0.000000 0.000000
-3.048000 -1.066799 -6.553200 -1.000000 -0.000000 -0.000000 0.000000 0.000000 -1.000000 -4.250000 0.000000 0 0 0 0 0.000000 0.000000 0.000000 0.000000
-17.373600 -4.572004 13.866112 -1.000000 -0.000000 -0.000000 -0.000000 -0.000000 1.000000 5.569375 1.000000 0 0 0 0 0.000000 0.000000 0.000000 0.000000
-17.373600 -1.524004 13.866113 -1.000000 -0.000000 -0.000000 -0.000000 -0.000000 1.000000 5.569375 0.000000 0 0 0 0 0.000000 0.000000 0.000000 0.000000
-17.373600 -1.524004 13.868400 -1.000000 -0.000000 -0.000000 -0.000000 -0.000000 1.000000 5.570312 0.000000 0 0 0 0 0.000000 0.000000 0.000000 0.000000
-17.373600 -4.572004 13.868398 -1.000000 -0.000000 -0.000000 -0.000000 -0.000000 1.000000 5.570312 1.000000 0 0 0 0 0.000000 0.000000 0.000000 0.000000
-12.496801 -1.524003 13.868400 -0.000000 -0.000000 1.000000 1.000000 -0.000000 0.000000 -4.992188 0.000000 0 0 0 0 0.000000 0.000000 0.000000 0.000000
-12.496801 -4.572003 13.868398 -0.000000 -0.000000 1.000000 1.000000 -0.000000 0.000000 -4.992188 1.000000 0 0 0 0 0.000000 0.000000 0.000000 0.000000
-13.106401 -4.572003 13.868398 -0.000000 -0.000000 1.000000 1.000000 -0.000000 0.000000 -5.242188 1.000000 0 0 0 0 0.000000 0.000000 0.000000 0.000000
-14.935201 -4.572004 13.868398 -0.000000 -0.000000 1.000000 1.000000 0.000000 0.000000 -5.992188 1.000000 0 0 0 0 0.000000 0.000000 0.000000 0.000000
-14.935201 -1.524004 13.868400 -0.000000 -0.000000 1.000000 1.000000 0.000000 0.000000 -5.992188 0.000000 0 0 0 0 0.000000 0.000000 0.000000 0.000000
-13.106401 -1.524003 13.868400 -0.000000 -0.000000 1.000000 -1.000000 -0.000000 -0.000000 -5.242188 0.000000 0 0 0 0 0.000000 0.000000 0.000000 0.000000
-19.202400 -4.572003 8.420097 -1.000000 -0.000000 -0.000000 -0.000000 -0.000000 1.000000 3.101562 1.000000 0 0 0 0 0.000000 0.000000 0.000000 0.000000
-19.202400 -1.524003 8.420098 -1.000000 -0.000000 -0.000000 -0.000000 -0.000000 1.000000 3.101562 0.000000 0 0 0 0 0.000000 0.000000 0.000000 0.000000
-19.202400 -1.524004 11.582398 -1.000000 -0.000000 -0.000000 -0.000000 -0.000000 1.000000 4.398438 0.000000 0 0 0 0 0.000000 0.000000 0.000000 0.000000
-19.202400 -1.524004 11.887199 -1.000000 -0.000000 -0.000000 -0.000000 -0.000001 1.000000 4.523438 0.000000 0 0 0 0 0.000000 0.000000 0.000000 0.000000
-19.202400 -4.572004 11.887198 -1.000000 -0.000000 -0.000000 -0.000000 -0.000000 1.000000 4.523438 1.000000 0 0 0 0 0.000000 0.000000 0.000000 0.000000
IndexCount: 48
3 1 0
3 2 1
4 10 9
4 9 8
4 8 7
7 5 4
7 6 5
14 12 11
14 13 12
15 20 19
15 19 18
15 18 17
17 16 15
21 25 24
21 24 23
23 22 21
