VertexCount: 24
-0.723900 -3.848101 6.115049 -0.000000 0.986394 0.164400 0.000000 0.164400 -0.986394 -33.218750 4.243055 0 0 0 0 0.000000 0.000000 0.000000 0.000000
-0.723900 -3.867151 6.229349 -0.000000 0.986394 0.164400 0.000000 0.164400 -0.986394 -33.843750 4.243055 0 0 0 0 0.000000 0.000000 0.000000 0.000000
-0.914400 -3.867151 6.229349 -0.000000 0.986394 0.164400 -0.000000 0.164400 -0.986394 -33.843750 4.937500 0 0 0 0 0.000000 0.000000 0.000000 0.000000
-0.914400 -3.848101 6.115049 -0.000000 0.986394 0.164400 0.000000 0.164400 -0.986394 -33.218750 4.937500 0 0 0 0 0.000000 0.000000 0.000000 0.000000
-0.723900 -3.867151 6.000750 -0.000000 0.986394 -0.164401 0.000000 -0.164401 -0.986394 -32.156250 -1.284722 0 0 0 0 0.000000 0.000000 0.000000 0.000000
-0.723900 -3.848101 6.115049 -0.000000 0.986394 -0.164401 0.000000 -0.164401 -0.986394 -32.781250 -1.284722 0 0 0 0 0.000000 0.000000 0.000000 0.000000
-0.914400 -3.848101 6.115049 -0.000000 0.986394 -0.164401 0.000000 -0.164401 -0.986394 -32.781250 -1.979167 0 0 0 0 0.000000 0.000000 0.000000 0.000000
-0.914400 -3.867151 6.000750 -0.000000 0.986394 -0.164401 0.000000 -0.164401 -0.986394 -32.156250 -1.979167 0 0 0 0 0.000000 0.000000 0.000000 0.000000
-20.612099 -3.409950 -8.953502 -0.000000 0.996546 -0.083045 -0.000000 0.083045 0.996546 -23.822916 -37.027779 0 0 0 0 0.000000 0.000000 0.000000 0.000000
-20.612099 -3.390901 -8.724903 -0.000000 0.996546 -0.083045 -0.000000 0.083045 0.996546 -23.197916 -37.027779 0 0 0 0 0.000000 0.000000 0.000000 0.000000
-20.993099 -3.390901 -8.724903 -0.000000 0.996546 -0.083045 -0.000000 0.083045 0.996546 -23.197916 -37.722221 0 0 0 0 0.000000 0.000000 0.000000 0.000000
-20.993099 -3.409950 -8.953502 -0.000000 0.996546 -0.083045 -0.000000 0.083045 0.996546 -23.822916 -37.722221 0 0 0 0 0.000000 0.000000 0.000000 0.000000
-20.612099 -3.390901 -8.724903 -0.000000 0.996546 0.083045 0.000000 -0.083045 0.996546 -23.791666 -37.069443 0 0 0 0 0.000000 0.000000 0.000000 0.000000
-20.612099 -3.409950 -8.496303 -0.000000 0.996546 0.083045 0.000000 -0.083045 0.996546 -23.166666 -37.069443 0 0 0 0 0.000000 0.000000 0.000000 0.000000
-20.993099 -3.409950 -8.496303 -0.000000 0.996546 0.083045 0.000000 -0.083045 0.996546 -23.166666 -37.763889 0 0 0 0 0.000000 0.000000 0.000000 0.000000
-20.993099 -3.390901 -8.724903 -0.000000 0.996546 0.083045 0.000000 -0.083045 0.996546 -23.791666 -37.763889 0 0 0 0 0.000000 0.000000 0.000000 0.000000
-19.278599 -3.409949 -16.535400 0.083044 0.996546 0.000000 0.996546 -0.083044 0.000000 -52.145832 29.888887 0 0 0 0 0.000000 0.000000 0.000000 0.000000
-19.278599 -3.409949 -16.154400 0.083044 0.996546 0.000000 0.996546 -0.083044 0.000000 -52.145832 29.194445 0 0 0 0 0.000000 0.000000 0.000000 0.000000
-19.507198 -3.390899 -16.154400 0.083044 0.996546 0.000000 0.996546 -0.083044 0.000000 -52.770832 29.194445 0 0 0 0 0.000000 0.000000 0.000000 0.000000
-19.507198 -3.390899 -16.535400 0.083044 0.996546 0.000000 0.996546 -0.083044 0.000000 -52.770832 29.888887 0 0 0 0 0.000000 0.000000 0.000000 0.000000
-19.507198 -3.390899 -16.154400 -0.083044 0.996546 0.000000 0.996546 0.083044 0.000000 -53.208332 29.048611 0 0 0 0 0.000000 0.000000 0.000000 0.000000
-19.735798 -3.409949 -16.154400 -0.083044 0.996546 0.000000 0.996546 0.083044 0.000000 -53.833332 29.048611 0 0 0 0 0.000000 0.000000 0.000000 0.000000
-19.735798 -3.409949 -16.535400 -0.083044 0.996546 0.000000 0.996546 0.083044 0.000000 -53.833332 29.743055 0 0 0 0 0.000000 0.000000 0.000000 0.000000
-19.507198 -3.390899 -16.535400 -0.083044 0.996546 0.000000 0.996546 0.083044 0.000000 -53.208332 29.743055 0 0 0 0 0.000000 0.000000 0.000000 0.000000
IndexCount: 36
3 1 0
3 2 1
7 5 4
7 6 5
11 9 8
11 10 9
15 13 12
15 14 13
19 17 16
19 18 17
23 21 20
23 22 21
