VertexCount: 12
-12.725401 -3.962403 11.125197 0.000000 -1.000000 -0.000000 1.000000 0.000000 0.000000 -12.005682 -16.672619 0 0 0 0 0.000000 0.000000 0.000000 0.000000
-13.792201 -3.962403 11.125197 0.000000 -1.000000 -0.000000 1.000000 0.000000 0.000000 -13.066288 -16.672619 0 0 0 0 0.000000 0.000000 0.000000 0.000000
-13.792201 -3.962403 11.277597 0.000000 -1.000000 -0.000000 1.000000 0.000000 0.000000 -13.066288 -16.910715 0 0 0 0 0.000000 0.000000 0.000000 0.000000
-12.725401 -3.962403 11.277597 0.000000 -1.000000 -0.000000 1.000000 0.000000 0.000000 -12.005682 -16.910715 0 0 0 0 0.000000 0.000000 0.000000 0.000000
-12.725401 -3.352803 11.125198 0.000000 0.000000 -1.000000 1.000000 -0.000000 0.000000 -11.013888 5.946429 0 0 0 0 0.000000 0.000000 0.000000 0.000000
-12.725401 -2.743203 11.125198 0.000000 0.000000 -1.000000 1.000000 -0.000000 0.000000 -11.013888 4.994048 0 0 0 0 0.000000 0.000000 0.000000 0.000000
-13.792201 -2.743203 11.125198 0.000000 0.000000 -1.000000 1.000000 -0.000000 0.000000 -11.986111 4.994048 0 0 0 0 0.000000 0.000000 0.000000 0.000000
-13.792201 -3.352803 11.125198 0.000000 0.000000 -1.000000 1.000000 -0.000000 0.000000 -11.986111 5.946429 0 0 0 0 0.000000 0.000000 0.000000 0.000000
-12.725401 -2.743203 11.277598 -0.000000 -0.000000 1.000000 1.000000 -0.000000 0.000000 -12.005682 4.994048 0 0 0 0 0.000000 0.000000 0.000000 0.000000
-12.725401 -3.962403 11.277597 -0.000000 -0.000000 1.000000 1.000000 -0.000000 0.000000 -12.005682 6.898809 0 0 0 0 0.000000 0.000000 0.000000 0.000000
-13.792201 -3.962403 11.277597 -0.000000 -0.000000 1.000000 1.000000 -0.000000 0.000000 -13.066288 6.898809 0 0 0 0 0.000000 0.000000 0.000000 0.000000
-13.792201 -2.743203 11.277598 -0.000000 -0.000000 1.000000 1.000000 -0.000000 0.000000 -13.066288 4.994048 0 0 0 0 0.000000 0.000000 0.000000 0.000000
IndexCount: 18
3 2 1
3 1 0
7 6 5
7 5 4
11 10 9
11 9 8
