VertexCount: 4
-12.649200 -1.790701 0.533399 -0.000000 -0.000000 1.000000 1.000000 0.000000 0.000000 -17.944445 2.968750 0 0 0 0 0.000000 0.000000 0.000000 0.000000
-11.277600 -1.790701 0.533399 -0.000000 -0.000000 1.000000 1.000000 0.000000 0.000000 -15.944445 2.968750 0 0 0 0 0.000000 0.000000 0.000000 0.000000
-11.277600 -2.438401 0.533399 -0.000000 -0.000000 1.000000 1.000000 0.000000 0.000000 -15.944445 4.031250 0 0 0 0 0.000000 0.000000 0.000000 0.000000
-12.649200 -2.438401 0.533399 -0.000000 -0.000000 1.000000 1.000000 0.000000 0.000000 -17.944445 4.031250 0 0 0 0 0.000000 0.000000 0.000000 0.000000
IndexCount: 6
3 2 1
3 1 0
