VertexCount: 192
2.666999 -1.143002 11.582399 0.000000 0.000000 -1.000000 1.000000 0.000000 0.000000 1.093750 -0.156250 0 0 0 0 0.000000 0.000000 0.000000 0.000000
4.267199 -1.143002 11.582399 0.000000 0.000000 -1.000000 1.000000 -0.000000 0.000000 1.750000 -0.156250 0 0 0 0 0.000000 0.000000 0.000000 0.000000
4.267199 0.914398 11.582399 0.000000 0.000000 -1.000000 1.000000 0.000000 0.000000 1.750000 -1.000000 0 0 0 0 0.000000 0.000000 0.000000 0.000000
2.666999 0.914398 11.582399 0.000000 0.000000 -1.000000 1.000000 0.000000 0.000000 1.093750 -1.000000 0 0 0 0 0.000000 0.000000 0.000000 0.000000
2.667000 -1.143000 0.609600 -0.000000 -0.000000 1.000000 1.000000 0.000000 0.000000 1.093750 -0.156250 0 0 0 0 0.000000 0.000000 0.000000 0.000000
2.667000 0.914400 0.609600 -0.000000 -0.000000 1.000000 1.000000 0.000000 0.000000 1.093750 -1.000000 0 0 0 0 0.000000 0.000000 0.000000 0.000000
4.267200 0.914400 0.609600 -0.000000 -0.000000 1.000000 1.000000 0.000000 0.000000 1.750000 -1.000000 0 0 0 0 0.000000 0.000000 0.000000 0.000000
4.267200 -1.143000 0.609600 -0.000000 -0.000000 1.000000 1.000000 0.000000 0.000000 1.750000 -0.156250 0 0 0 0 0.000000 0.000000 0.000000 0.000000
-5.181601 -0.914402 8.458200 1.000000 0.000000 0.000000 0.000000 0.000000 -1.000000 3.468750 -0.250000 0 0 0 0 0.000000 0.000000 0.000000 0.000000
-5.181602 -0.914402 11.429999 1.000000 0.000000 0.000000 0.000000 0.000000 -1.000000 4.687500 -0.250000 0 0 0 0 0.000000 0.000000 0.000000 0.000000
-5.181602 -0.914402 11.582399 1.000000 0.000000 0.000000 0.000000 0.000000 -1.000000 4.750000 -0.250000 0 0 0 0 0.000000 0.000000 0.000000 0.000000
-5.181602 0.914398 11.582399 1.000000 0.000000 0.000000 -0.000000 -0.000000 1.000000 4.750000 -1.000000 0 0 0 0 0.000000 0.000000 0.000000 0.000000
-5.181601 0.914398 8.458200 1.000000 0.000000 0.000000 -0.000000 -0.000000 1.000000 3.468750 -1.000000 0 0 0 0 0.000000 0.000000 0.000000 0.000000
-5.181602 -1.143002 11.582399 1.000000 0.000000 0.000000 -0.000000 -0.000001 1.000000 4.750000 -0.156250 0 0 0 0 0.000000 0.000000 0.000000 0.000000
-5.181602 -0.914402 11.582399 1.000000 0.000000 0.000000 -0.000000 -0.000001 1.000000 4.750000 -0.250000 0 0 0 0 0.000000 0.000000 0.000000 0.000000
-5.181602 -0.914402 11.429999 1.000000 0.000000 0.000000 -0.000000 -0.000000 1.000000 4.687500 -0.250000 0 0 0 0 0.000000 0.000000 0.000000 0.000000
-5.181602 -1.143002 11.429999 1.000000 0.000000 0.000000 -0.000000 -0.000001 1.000000 4.687500 -0.156250 0 0 0 0 0.000000 0.000000 0.000000 0.000000
-5.181602 -1.295402 11.429999 1.000000 0.000000 0.000000 -0.000000 -0.000000 1.000000 4.687500 -0.093750 0 0 0 0 0.000000 0.000000 0.000000 0.000000
-5.181602 -1.524002 11.429999 1.000000 0.000000 0.000000 -0.000000 -0.000000 1.000000 4.687500 0.000000 0 0 0 0 0.000000 0.000000 0.000000 0.000000
-5.181602 -1.524002 11.582399 1.000000 0.000000 0.000000 -0.000000 -0.000000 1.000000 4.750000 0.000000 0 0 0 0 0.000000 0.000000 0.000000 0.000000
-5.181601 -0.914402 8.458200 1.000000 0.000000 0.000000 -0.000000 -0.000000 1.000000 3.468750 -0.250000 0 0 0 0 0.000000 0.000000 0.000000 0.000000
-5.181601 -1.524002 8.458200 1.000000 0.000000 0.000000 -0.000000 -0.000000 1.000000 3.468750 0.000000 0 0 0 0 0.000000 0.000000 0.000000 0.000000
-5.181601 -1.524002 9.220200 1.000000 0.000000 0.000000 0.000000 0.000000 -1.000000 3.781250 0.000000 0 0 0 0 0.000000 0.000000 0.000000 0.000000
-5.181601 -1.524002 10.439399 1.000000 0.000000 0.000000 -0.000000 -0.000000 1.000000 4.281250 0.000000 0 0 0 0 0.000000 0.000000 0.000000 0.000000
-5.181602 -1.295402 11.429999 1.000000 0.000000 0.000000 0.000000 -1.000000 0.000000 4.687500 -0.093750 0 0 0 0 0.000000 0.000000 0.000000 0.000000
-5.181602 -1.143002 11.429999 1.000000 0.000000 0.000000 0.000000 -1.000000 0.000000 4.687500 -0.156250 0 0 0 0 0.000000 0.000000 0.000000 0.000000
-5.181601 -0.914402 8.458200 -0.000000 -0.000000 1.000000 1.000000 -0.000000 0.000000 -2.125000 -0.250000 0 0 0 0 0.000000 0.000000 0.000000 0.000000
-5.181601 0.914398 8.458200 -0.000000 -0.000000 1.000000 1.000000 -0.000000 0.000000 -2.125000 -1.000000 0 0 0 0 0.000000 0.000000 0.000000 0.000000
-4.876801 0.914398 8.458200 -0.000000 -0.000000 1.000000 1.000000 -0.000000 0.000000 -2.000000 -1.000000 0 0 0 0 0.000000 0.000000 0.000000 0.000000
-4.876801 0.609598 8.458200 -0.000000 -0.000000 1.000000 1.000000 -0.000000 0.000000 -2.000000 -0.875000 0 0 0 0 0.000000 0.000000 0.000000 0.000000
-4.876801 -0.914402 8.458200 -0.000000 -0.000000 1.000000 1.000000 -0.000000 0.000000 -2.000000 -0.250000 0 0 0 0 0.000000 0.000000 0.000000 0.000000
-5.029201 -0.914402 8.458200 -0.000000 -0.000000 1.000000 1.000000 -0.000000 0.000000 -2.062500 -0.250000 0 0 0 0 0.000000 0.000000 0.000000 0.000000
-0.914401 -1.143002 11.582399 0.000000 0.000000 -1.000000 1.000000 0.000000 0.000000 -0.375000 -0.156250 0 0 0 0 0.000000 0.000000 0.000000 0.000000
-0.914401 0.914398 11.582399 0.000000 0.000000 -1.000000 1.000000 0.000000 0.000000 -0.375000 -1.000000 0 0 0 0 0.000000 0.000000 0.000000 0.000000
-5.181602 0.914398 11.582399 0.000000 0.000000 -1.000000 1.000000 0.000000 0.000000 -2.125000 -1.000000 0 0 0 0 0.000000 0.000000 0.000000 0.000000
-5.181602 -0.914402 11.582399 0.000000 0.000000 -1.000000 1.000000 0.000000 0.000000 -2.125000 -0.250000 0 0 0 0 0.000000 0.000000 0.000000 0.000000
-5.181602 -1.143002 11.582399 0.000000 0.000000 -1.000000 1.000000 0.000000 0.000000 -2.125000 -0.156250 0 0 0 0 0.000000 0.000000 0.000000 0.000000
-4.876801 0.609598 7.543799 1.000000 0.000000 0.000000 0.000000 -0.000000 1.000000 3.093750 -0.875000 0 0 0 0 0.000000 0.000000 0.000000 0.000000
-4.876801 -0.914402 7.543799 1.000000 0.000000 0.000000 -0.000000 -0.000000 1.000000 3.093750 -0.250000 0 0 0 0 0.000000 0.000000 0.000000 0.000000
-4.876801 -0.914402 8.458200 1.000000 0.000000 0.000000 -0.000000 -0.000000 1.000000 3.468750 -0.250000 0 0 0 0 0.000000 0.000000 0.000000 0.000000
-4.876801 0.609598 8.458200 1.000000 0.000000 0.000000 -0.000000 -0.000000 1.000000 3.468750 -0.875000 0 0 0 0 0.000000 0.000000 0.000000 0.000000
-4.876801 -0.914402 7.296149 1.000000 0.000000 -0.000000 -0.000000 0.000000 -1.000000 2.992188 -0.250000 0 0 0 0 0.000000 0.000000 0.000000 0.000000
-4.876801 -0.914402 7.467599 1.000000 0.000000 -0.000000 -0.000000 0.000000 -1.000000 3.062500 -0.250000 0 0 0 0 0.000000 0.000000 0.000000 0.000000
-4.876801 -0.914402 7.543799 1.000000 0.000000 -0.000000 -0.000000 0.000000 -1.000000 3.093750 -0.250000 0 0 0 0 0.000000 0.000000 0.000000 0.000000
-4.876801 0.914398 7.543799 1.000000 0.000000 -0.000000 0.000000 0.000002 1.000000 3.093750 -1.000000 0 0 0 0 0.000000 0.000000 0.000000 0.000000
-4.876801 0.914398 7.296149 1.000000 0.000000 -0.000000 0.000000 -0.000001 1.000000 2.992188 -1.000000 0 0 0 0 0.000000 0.000000 0.000000 0.000000
-5.791201 -0.609602 7.296149 -1.000000 -0.000000 -0.000000 -0.000000 -0.000000 1.000000 2.992188 -0.375000 0 0 0 0 0.000000 0.000000 0.000000 0.000000
-5.791201 -0.609602 7.924799 -1.000000 -0.000000 -0.000000 -0.000000 -0.000000 1.000000 3.250000 -0.375000 0 0 0 0 0.000000 0.000000 0.000000 0.000000
-5.791201 -0.609602 9.143999 -1.000000 -0.000000 -0.000000 -0.000000 -0.000000 1.000000 3.750000 -0.375000 0 0 0 0 0.000000 0.000000 0.000000 0.000000
-5.791201 -0.609602 11.582399 -1.000000 -0.000000 -0.000000 -0.000000 -0.000000 1.000000 4.750000 -0.375000 0 0 0 0 0.000000 0.000000 0.000000 0.000000
-5.791201 -1.524003 11.582399 -1.000000 -0.000000 -0.000000 -0.000000 -0.000000 1.000000 4.750000 0.000000 0 0 0 0 0.000000 0.000000 0.000000 0.000000
-5.791201 -1.524002 10.439399 -1.000000 -0.000000 -0.000000 -0.000000 -0.000000 1.000000 4.281250 0.000000 0 0 0 0 0.000000 0.000000 0.000000 0.000000
-5.791201 -1.524002 9.220200 -1.000000 -0.000000 -0.000000 -0.000000 -0.000000 1.000000 3.781250 0.000000 0 0 0 0 0.000000 0.000000 0.000000 0.000000
-5.791201 -1.524002 7.619999 -1.000000 -0.000000 -0.000000 -0.000000 -0.000000 1.000000 3.125000 0.000000 0 0 0 0 0.000000 0.000000 0.000000 0.000000
-5.791201 -1.524002 7.296149 -1.000000 -0.000000 -0.000000 -0.000000 -0.000000 1.000000 2.992188 0.000000 0 0 0 0 0.000000 0.000000 0.000000 0.000000
-6.362701 -0.609602 11.582399 0.000000 0.000000 -1.000000 1.000000 0.000000 0.000000 -2.609375 -0.375000 0 0 0 0 0.000000 0.000000 0.000000 0.000000
-6.362701 -1.524003 11.582399 0.000000 0.000000 -1.000000 1.000000 0.000000 0.000000 -2.609375 0.000000 0 0 0 0 0.000000 0.000000 0.000000 0.000000
-5.791201 -1.524003 11.582399 0.000000 0.000000 -1.000000 1.000000 -0.000000 0.000000 -2.375000 0.000000 0 0 0 0 0.000000 0.000000 0.000000 0.000000
-5.791201 -0.609602 11.582399 0.000000 0.000000 -1.000000 1.000000 0.000000 0.000000 -2.375000 -0.375000 0 0 0 0 0.000000 0.000000 0.000000 0.000000
-10.629901 -0.609603 11.582398 0.000000 0.000000 -1.000000 1.000000 0.000000 0.000000 -4.359375 -0.375000 0 0 0 0 0.000000 0.000000 0.000000 0.000000
-10.629901 -1.524003 11.582398 0.000000 0.000000 -1.000000 1.000000 0.000000 0.000000 -4.359375 0.000000 0 0 0 0 0.000000 0.000000 0.000000 0.000000
-5.181600 -1.143001 0.761999 1.000000 0.000000 0.000000 -0.000000 -0.000000 1.000000 0.312500 -0.156250 0 0 0 0 0.000000 0.000000 0.000000 0.000000
-5.181600 0.914399 0.762000 1.000000 0.000000 0.000000 -0.000000 -0.000000 1.000000 0.312500 -1.000000 0 0 0 0 0.000000 0.000000 0.000000 0.000000
-5.181600 0.914399 0.609600 1.000000 0.000000 0.000000 -0.000000 -0.000000 1.000000 0.250000 -1.000000 0 0 0 0 0.000000 0.000000 0.000000 0.000000
-5.181600 -1.143000 0.609599 1.000000 0.000000 0.000000 -0.000000 -0.000001 1.000000 0.250000 -0.156250 0 0 0 0 0.000000 0.000000 0.000000 0.000000
-5.181600 -1.295401 0.761999 1.000000 0.000000 0.000000 -0.000000 -0.000000 1.000000 0.312500 -0.093750 0 0 0 0 0.000000 0.000000 0.000000 0.000000
-5.181600 -1.524001 0.609599 1.000000 0.000000 0.000000 -0.000000 -0.000000 1.000000 0.250000 0.000000 0 0 0 0 0.000000 0.000000 0.000000 0.000000
-5.181600 -1.524001 0.761999 1.000000 0.000000 0.000000 -0.000000 -0.000000 1.000000 0.312500 0.000000 0 0 0 0 0.000000 0.000000 0.000000 0.000000
-5.181601 -1.524001 3.581399 1.000000 0.000000 0.000000 -0.000000 -0.000000 1.000000 1.468750 0.000000 0 0 0 0 0.000000 0.000000 0.000000 0.000000
-5.181601 -0.914401 3.581400 1.000000 0.000000 0.000000 -0.000000 -0.000000 1.000000 1.468750 -0.250000 0 0 0 0 0.000000 0.000000 0.000000 0.000000
-5.181601 0.914399 3.581400 1.000000 0.000000 0.000000 -0.000000 -0.000000 1.000000 1.468750 -1.000000 0 0 0 0 0.000000 0.000000 0.000000 0.000000
-5.181600 -1.295401 0.761999 1.000000 0.000000 0.000000 -0.000000 1.000000 0.000000 0.312500 -0.093750 0 0 0 0 0.000000 0.000000 0.000000 0.000000
-0.914400 -1.143000 0.609600 -0.000000 -0.000000 1.000000 1.000000 0.000000 0.000000 -0.375000 -0.156250 0 0 0 0 0.000000 0.000000 0.000000 0.000000
-0.914400 0.914400 0.609600 -0.000000 -0.000000 1.000000 1.000000 0.000000 0.000000 -0.375000 -1.000000 0 0 0 0 0.000000 0.000000 0.000000 0.000000
-5.181600 -1.143000 0.609599 -0.000000 -0.000000 1.000000 1.000000 0.000000 0.000000 -2.125000 -0.156250 0 0 0 0 0.000000 0.000000 0.000000 0.000000
-5.181600 0.914399 0.609600 -0.000000 -0.000000 1.000000 1.000000 0.000000 0.000000 -2.125000 -1.000000 0 0 0 0 0.000000 0.000000 0.000000 0.000000
-4.876800 -0.914401 3.581400 0.000000 0.000000 -1.000000 1.000000 -0.000000 0.000000 -2.000000 -0.250000 0 0 0 0 0.000000 0.000000 0.000000 0.000000
-4.876800 0.609599 3.581400 0.000000 0.000000 -1.000000 1.000000 -0.000000 0.000000 -2.000000 -0.875000 0 0 0 0 0.000000 0.000000 0.000000 0.000000
-4.876800 0.914399 3.581400 0.000000 0.000000 -1.000000 1.000000 -0.000000 0.000000 -2.000000 -1.000000 0 0 0 0 0.000000 0.000000 0.000000 0.000000
-5.181601 0.914399 3.581400 0.000000 0.000000 -1.000000 1.000000 0.000001 0.000000 -2.125000 -1.000000 0 0 0 0 0.000000 0.000000 0.000000 0.000000
-5.181601 -0.914401 3.581400 0.000000 0.000000 -1.000000 1.000000 0.000001 0.000000 -2.125000 -0.250000 0 0 0 0 0.000000 0.000000 0.000000 0.000000
-5.029201 -0.914401 3.581400 0.000000 0.000000 -1.000000 1.000000 -0.000000 0.000000 -2.062500 -0.250000 0 0 0 0 0.000000 0.000000 0.000000 0.000000
-4.876801 -0.914402 7.296149 1.000000 0.000000 0.000000 -0.000000 -0.000000 1.000000 2.992188 -0.250000 0 0 0 0 0.000000 0.000000 0.000000 0.000000
-4.876800 0.914399 4.495800 1.000000 0.000000 0.000000 -0.000000 -0.000000 1.000000 1.843750 -1.000000 0 0 0 0 0.000000 0.000000 0.000000 0.000000
-4.876800 0.609599 4.495800 1.000000 0.000000 0.000000 -0.000000 -0.000000 1.000000 1.843750 -0.875000 0 0 0 0 0.000000 0.000000 0.000000 0.000000
-4.876800 -0.914401 4.495800 1.000000 0.000000 0.000000 -0.000000 -0.000000 1.000000 1.843750 -0.250000 0 0 0 0 0.000000 0.000000 0.000000 0.000000
-4.876800 -0.914401 4.572000 1.000000 0.000000 0.000000 -0.000000 -0.000000 1.000000 1.875000 -0.250000 0 0 0 0 0.000000 0.000000 0.000000 0.000000
-4.876800 -0.914401 4.876800 1.000000 0.000000 0.000000 0.000000 0.000000 -1.000000 2.000000 -0.250000 0 0 0 0 0.000000 0.000000 0.000000 0.000000
-4.876801 -0.914401 5.867399 1.000000 0.000000 0.000000 -0.000000 -0.000000 1.000000 2.406250 -0.250000 0 0 0 0 0.000000 0.000000 0.000000 0.000000
-4.876801 -0.914401 6.172200 1.000000 0.000000 0.000000 0.000000 0.000000 -1.000000 2.531250 -0.250000 0 0 0 0 0.000000 0.000000 0.000000 0.000000
-4.876801 -0.914402 7.162799 1.000000 0.000000 0.000000 0.000000 0.000000 -1.000000 2.937500 -0.250000 0 0 0 0 0.000000 0.000000 0.000000 0.000000
-4.876800 0.609599 3.581400 1.000000 0.000000 0.000000 -0.000000 -0.000000 1.000000 1.468750 -0.875000 0 0 0 0 0.000000 0.000000 0.000000 0.000000
-4.876800 -0.914401 3.581400 1.000000 0.000000 0.000000 -0.000000 -0.000000 1.000000 1.468750 -0.250000 0 0 0 0 0.000000 0.000000 0.000000 0.000000
-6.362700 -0.609601 0.609599 -0.000000 -0.000000 1.000000 1.000000 0.000000 0.000000 -2.609375 -0.375000 0 0 0 0 0.000000 0.000000 0.000000 0.000000
-5.791200 -0.609601 0.609599 -0.000000 -0.000000 1.000000 1.000000 0.000000 0.000000 -2.375000 -0.375000 0 0 0 0 0.000000 0.000000 0.000000 0.000000
-5.791200 -1.524001 0.609599 -0.000000 -0.000000 1.000000 1.000000 0.000000 0.000000 -2.375000 0.000000 0 0 0 0 0.000000 0.000000 0.000000 0.000000
-6.362700 -1.524001 0.609599 -0.000000 -0.000000 1.000000 1.000000 0.000000 0.000000 -2.609375 0.000000 0 0 0 0 0.000000 0.000000 0.000000 0.000000
-10.629900 -0.609601 0.609599 -0.000000 -0.000000 1.000000 1.000000 0.000000 0.000000 -4.359375 -0.375000 0 0 0 0 0.000000 0.000000 0.000000 0.000000
-6.705600 -1.524001 0.609599 -0.000000 -0.000000 1.000000 1.000000 -0.000000 0.000000 -2.750000 0.000000 0 0 0 0 0.000000 0.000000 0.000000 0.000000
-10.629900 -1.524001 0.609599 -0.000000 -0.000000 1.000000 1.000000 0.000000 0.000000 -4.359375 0.000000 0 0 0 0 0.000000 0.000000 0.000000 0.000000
-5.791201 -1.219201 5.257800 -1.000000 -0.000000 -0.000000 -0.000000 -0.000000 1.000000 2.156250 -0.125000 0 0 0 0 0.000000 0.000000 0.000000 0.000000
-5.791201 -1.219201 6.172200 -1.000000 -0.000000 -0.000000 -0.000000 -0.000000 1.000000 2.531250 -0.125000 0 0 0 0 0.000000 0.000000 0.000000 0.000000
-5.791201 -1.524002 6.172200 -1.000000 -0.000000 -0.000000 -0.000000 -0.000000 1.000000 2.531250 0.000000 0 0 0 0 0.000000 0.000000 0.000000 0.000000
-5.791201 -1.524001 5.257800 -1.000000 -0.000000 -0.000000 -0.000000 -0.000000 1.000000 2.156250 0.000000 0 0 0 0 0.000000 0.000000 0.000000 0.000000
-5.791201 -1.524001 4.876799 -1.000000 -0.000000 -0.000000 -0.000000 -0.000000 1.000000 2.000000 0.000000 0 0 0 0 0.000000 0.000000 0.000000 0.000000
-5.791201 -0.609601 4.876799 -1.000000 -0.000000 -0.000000 -0.000000 -0.000000 1.000000 2.000000 -0.375000 0 0 0 0 0.000000 0.000000 0.000000 0.000000
-5.791201 -0.609601 5.257800 -1.000000 -0.000000 -0.000000 -0.000000 -0.000000 1.000000 2.156250 -0.375000 0 0 0 0 0.000000 0.000000 0.000000 0.000000
-5.791200 -1.524001 0.609599 -1.000000 -0.000000 -0.000000 -0.000000 -0.000000 1.000000 0.250000 0.000000 0 0 0 0 0.000000 0.000000 0.000000 0.000000
-5.791200 -0.609601 0.609599 -1.000000 -0.000000 -0.000000 -0.000000 -0.000000 1.000000 0.250000 -0.375000 0 0 0 0 0.000000 0.000000 0.000000 0.000000
-5.791200 -0.609601 3.048000 -1.000000 -0.000000 -0.000000 -0.000000 -0.000000 1.000000 1.250000 -0.375000 0 0 0 0 0.000000 0.000000 0.000000 0.000000
-5.791201 -0.609601 4.267200 -1.000000 -0.000000 -0.000000 -0.000000 -0.000000 1.000000 1.750000 -0.375000 0 0 0 0 0.000000 0.000000 0.000000 0.000000
-5.791201 -0.609601 6.172200 -1.000000 -0.000000 0.000000 0.000000 -0.000000 1.000000 2.531250 -0.375000 0 0 0 0 0.000000 0.000000 0.000000 0.000000
-17.373600 -1.524003 7.315198 1.000000 0.000000 0.000000 0.000000 -0.000000 1.000000 3.000000 0.000000 0 0 0 0 0.000000 0.000000 0.000000 0.000000
-17.373600 -1.524003 11.582398 1.000000 0.000000 0.000000 -0.000000 -0.000000 1.000000 4.750000 0.000000 0 0 0 0 0.000000 0.000000 0.000000 0.000000
-17.373600 -0.609603 11.582398 1.000000 0.000000 0.000000 -0.000000 -0.000000 1.000000 4.750000 -0.375000 0 0 0 0 0.000000 0.000000 0.000000 0.000000
-17.373600 -0.609603 9.143999 1.000000 0.000000 0.000000 -0.000000 -0.000000 1.000000 3.750000 -0.375000 0 0 0 0 0.000000 0.000000 0.000000 0.000000
-17.373600 -0.609603 7.924798 1.000000 0.000000 0.000000 -0.000000 -0.000000 1.000000 3.250000 -0.375000 0 0 0 0 0.000000 0.000000 0.000000 0.000000
-17.373600 -0.609603 7.315198 1.000000 0.000000 0.000000 0.000000 -0.000000 1.000000 3.000000 -0.375000 0 0 0 0 0.000000 0.000000 0.000000 0.000000
-13.106401 -0.609603 11.582398 0.000000 0.000000 -1.000000 1.000000 0.000000 0.000000 -5.375000 -0.375000 0 0 0 0 0.000000 0.000000 0.000000 0.000000
-13.106401 -1.524003 11.582398 0.000000 0.000000 -1.000000 1.000000 0.000000 0.000000 -5.375000 0.000000 0 0 0 0 0.000000 0.000000 0.000000 0.000000
-11.582401 -1.524003 11.582398 0.000000 0.000000 -1.000000 1.000000 0.000000 0.000000 -4.750000 0.000000 0 0 0 0 0.000000 0.000000 0.000000 0.000000
-17.373600 -0.609603 11.582398 0.000000 -0.000000 -1.000000 1.000000 0.000000 0.000000 -7.125000 -0.375000 0 0 0 0 0.000000 0.000000 0.000000 0.000000
-17.373600 -1.524003 11.582398 0.000000 -0.000000 -1.000000 1.000000 0.000000 0.000000 -7.125000 0.000000 0 0 0 0 0.000000 0.000000 0.000000 0.000000
-15.849601 -1.524003 11.582398 0.000000 -0.000000 -1.000000 1.000000 0.000000 0.000000 -6.500000 0.000000 0 0 0 0 0.000000 0.000000 0.000000 0.000000
-19.202400 0.914397 7.315197 -1.000000 -0.000000 -0.000000 -0.000000 -0.000000 1.000000 3.000000 -1.000000 0 0 0 0 0.000000 0.000000 0.000000 0.000000
-19.202400 0.914396 11.582398 -1.000000 -0.000000 -0.000000 -0.000000 -0.000000 1.000000 4.750000 -1.000000 0 0 0 0 0.000000 0.000000 0.000000 0.000000
-19.202400 -1.524004 11.582398 -1.000000 -0.000000 -0.000000 -0.000000 -0.000000 1.000000 4.750000 0.000000 0 0 0 0 0.000000 0.000000 0.000000 0.000000
-19.202400 -1.524003 8.420098 -1.000000 -0.000000 -0.000000 -0.000000 -0.000000 1.000000 3.453125 0.000000 0 0 0 0 0.000000 0.000000 0.000000 0.000000
-19.202400 -1.524003 7.315197 -1.000000 -0.000000 -0.000000 -0.000000 -0.000000 1.000000 3.000000 0.000000 0 0 0 0 0.000000 0.000000 0.000000 0.000000
-18.933651 -1.524003 7.315197 0.000000 -1.000000 -0.000000 0.000001 -0.000000 1.000000 3.000000 -8.389784 0 0 0 0 0.000000 0.000000 0.000000 0.000000
-19.202400 -1.524003 7.315197 0.000000 -1.000000 -0.000000 -0.000000 -0.000000 1.000000 3.000000 -8.500000 0 0 0 0 0.000000 0.000000 0.000000 0.000000
-19.202400 -1.524003 8.420098 0.000000 -1.000000 -0.000000 0.000000 -0.000000 1.000000 3.453125 -8.500000 0 0 0 0 0.000000 0.000000 0.000000 0.000000
-18.688093 -1.524003 7.315197 0.000000 -1.000000 -0.000000 0.000002 -0.000000 1.000000 3.000000 -8.289080 0 0 0 0 0.000000 0.000000 0.000000 0.000000
-19.030952 -1.524003 7.715248 0.000000 -1.000000 -0.000000 0.000004 -0.000000 1.000000 3.164062 -8.429688 0 0 0 0 0.000000 0.000000 0.000000 0.000000
-17.373600 -1.219203 6.172199 1.000000 0.000000 0.000000 0.000000 -0.000000 1.000000 2.531250 -0.125000 0 0 0 0 0.000000 0.000000 0.000000 0.000000
-17.373600 -1.219202 5.257799 1.000000 0.000000 0.000000 -0.000001 0.000000 1.000000 2.156250 -0.125000 0 0 0 0 0.000000 0.000000 0.000000 0.000000
-17.373600 -1.524003 5.257799 1.000000 0.000000 0.000000 -0.000001 -0.000001 1.000000 2.156250 0.000000 0 0 0 0 0.000000 0.000000 0.000000 0.000000
-17.373600 -1.524003 6.172199 1.000000 0.000000 0.000000 0.000000 -0.000000 1.000000 2.531250 0.000000 0 0 0 0 0.000000 0.000000 0.000000 0.000000
-17.373600 -0.609602 4.876798 1.000000 0.000000 0.000003 -0.000002 -0.000000 1.000000 2.000000 -0.375000 0 0 0 0 0.000000 0.000000 0.000000 0.000000
-17.373600 -1.524002 4.876798 1.000000 0.000000 0.000003 -0.000002 -0.000000 1.000000 2.000000 0.000000 0 0 0 0 0.000000 0.000000 0.000000 0.000000
-17.373600 -1.524002 5.181599 1.000000 0.000000 0.000003 -0.000003 -0.000000 1.000000 2.125000 0.000000 0 0 0 0 0.000000 0.000000 0.000000 0.000000
-17.373600 -0.609602 5.257799 1.000000 0.000000 0.000003 -0.000003 -0.000000 1.000000 2.156250 -0.375000 0 0 0 0 0.000000 0.000000 0.000000 0.000000
-17.373600 -0.609602 4.267199 1.000000 0.000000 0.000000 -0.000000 -0.000000 1.000000 1.750000 -0.375000 0 0 0 0 0.000000 0.000000 0.000000 0.000000
-17.373600 -0.609602 3.047999 1.000000 0.000000 0.000000 -0.000000 -0.000000 1.000000 1.250000 -0.375000 0 0 0 0 0.000000 0.000000 0.000000 0.000000
-17.373600 -0.609602 0.609598 1.000000 0.000000 0.000000 -0.000000 -0.000000 1.000000 0.250000 -0.375000 0 0 0 0 0.000000 0.000000 0.000000 0.000000
-17.373600 -1.524002 0.609598 1.000000 0.000000 0.000000 -0.000000 -0.000000 1.000000 0.250000 0.000000 0 0 0 0 0.000000 0.000000 0.000000 0.000000
-17.373600 -0.609603 6.172199 1.000000 0.000000 -0.000001 0.000001 -0.000000 1.000000 2.531250 -0.375000 0 0 0 0 0.000000 0.000000 0.000000 0.000000
-17.373600 -1.524003 7.010399 1.000000 0.000000 -0.000001 0.000001 -0.000001 1.000000 2.875000 0.000000 0 0 0 0 0.000000 0.000000 0.000000 0.000000
-13.106400 -0.609601 0.609599 -0.000000 -0.000000 1.000000 1.000000 0.000000 0.000000 -5.375000 -0.375000 0 0 0 0 0.000000 0.000000 0.000000 0.000000
-13.106400 -1.524001 0.609599 -0.000000 -0.000000 1.000000 1.000000 0.000000 0.000000 -5.375000 0.000000 0 0 0 0 0.000000 0.000000 0.000000 0.000000
-14.782800 -1.524001 0.609598 -0.000000 -0.000000 1.000000 1.000000 0.000000 0.000000 -6.062500 0.000000 0 0 0 0 0.000000 0.000000 0.000000 0.000000
-16.002001 -1.524002 0.609598 -0.000000 -0.000000 1.000000 1.000000 0.000000 0.000000 -6.562500 0.000000 0 0 0 0 0.000000 0.000000 0.000000 0.000000
-17.221201 -1.524002 0.609598 -0.000000 -0.000000 1.000000 1.000000 0.000000 0.000000 -7.062500 0.000000 0 0 0 0 0.000000 0.000000 0.000000 0.000000
-17.373600 -1.524002 0.609598 -0.000000 -0.000000 1.000000 1.000000 0.000000 0.000000 -7.125000 0.000000 0 0 0 0 0.000000 0.000000 0.000000 0.000000
-17.373600 -0.609602 0.609598 -0.000000 -0.000000 1.000000 1.000000 0.000000 0.000000 -7.125000 -0.375000 0 0 0 0 0.000000 0.000000 0.000000 0.000000
-18.636997 -1.524003 6.095998 -0.000000 -1.000000 -0.000000 -0.000000 -0.000000 1.000000 2.500000 -8.268126 0 0 0 0 0.000000 0.000000 0.000000 0.000000
-18.417349 -1.524003 5.192647 -0.000000 -1.000000 -0.000000 -0.002839 -0.000000 0.999996 2.129531 -8.178047 0 0 0 0 0.000000 0.000000 0.000000 0.000000
-19.030951 -1.524003 4.476748 -0.000000 -1.000000 -0.000000 -0.000000 -0.000000 1.000000 1.835938 -8.429688 0 0 0 0 0.000000 0.000000 0.000000 0.000000
-18.417349 -1.524003 6.999350 0.000000 -1.000000 -0.000000 -0.000001 -0.000000 1.000000 2.870469 -8.178047 0 0 0 0 0.000000 0.000000 0.000000 0.000000
-19.202400 -1.524002 3.771898 0.000000 -1.000000 -0.000000 -0.000002 -0.000000 1.000000 1.546875 -8.500000 0 0 0 0 0.000000 0.000000 0.000000 0.000000
-19.202400 -1.524003 5.029198 0.000000 -1.000000 -0.000000 0.000000 -0.000000 1.000000 2.062500 -8.500000 0 0 0 0 0.000000 0.000000 0.000000 0.000000
-18.933651 -1.524003 7.315197 0.000000 -1.000000 -0.000000 -1.000000 -0.000000 -0.000000 3.000000 -8.389784 0 0 0 0 0.000000 0.000000 0.000000 0.000000
-17.678400 -1.524003 5.181598 0.000000 -1.000000 -0.000000 -0.000001 -0.000000 1.000000 2.125000 -7.875000 0 0 0 0 0.000000 0.000000 0.000000 0.000000
-17.678400 -1.524003 7.010398 0.000000 -1.000000 -0.000000 -0.000001 -0.000000 1.000000 2.875000 -7.875000 0 0 0 0 0.000000 0.000000 0.000000 0.000000
-17.373600 -1.524003 7.010399 0.000000 -1.000000 -0.000000 -0.000001 -0.000000 1.000000 2.875000 -7.750000 0 0 0 0 0.000000 0.000000 0.000000 0.000000
-17.373600 -1.524003 6.172199 0.000000 -1.000000 -0.000000 -0.000001 -0.000000 1.000000 2.531250 -7.750000 0 0 0 0 0.000000 0.000000 0.000000 0.000000
-17.373600 -1.524003 5.257799 0.000000 -1.000000 -0.000000 -0.000000 -0.000000 1.000000 2.156250 -7.750000 0 0 0 0 0.000000 0.000000 0.000000 0.000000
-17.373600 -1.524002 5.181599 0.000000 -1.000000 -0.000000 -0.000000 -0.000000 1.000000 2.125000 -7.750000 0 0 0 0 0.000000 0.000000 0.000000 0.000000
-18.573750 -1.524003 5.010148 0.000000 -1.000000 -0.000000 0.000020 -0.000000 1.000000 2.054688 -8.242188 0 0 0 0 0.000000 0.000000 0.000000 0.000000
-18.386297 -1.524003 5.065203 0.000000 -1.000000 -0.000000 0.000014 -0.000000 1.000000 2.077266 -8.165312 0 0 0 0 0.000000 0.000000 0.000000 0.000000
-17.983200 -1.524003 6.492809 0.000000 -1.000000 -0.000000 -0.000000 -0.000000 1.000000 2.662734 -8.000000 0 0 0 0 0.000000 0.000000 0.000000 0.000000
-17.983200 -1.524003 5.183884 0.000000 -1.000000 -0.000000 0.000000 -0.000000 1.000000 2.125937 -8.000000 0 0 0 0 0.000000 0.000000 0.000000 0.000000
-18.573751 -1.524003 7.181848 -0.000000 -1.000000 -0.000000 -0.000002 -0.000000 1.000000 2.945312 -8.242188 0 0 0 0 0.000000 0.000000 0.000000 0.000000
-17.983202 -1.524003 7.008112 -0.000000 -1.000000 -0.000000 -0.000002 -0.000000 1.000000 2.874063 -8.000000 0 0 0 0 0.000000 0.000000 0.000000 0.000000
-19.202400 0.914397 5.029198 -1.000000 -0.000000 -0.000000 -0.000000 -0.000000 1.000000 2.062500 -1.000000 0 0 0 0 0.000000 0.000000 0.000000 0.000000
-19.202400 -1.524003 5.029198 -1.000000 -0.000000 -0.000000 -0.000000 -0.000000 1.000000 2.062500 0.000000 0 0 0 0 0.000000 0.000000 0.000000 0.000000
-19.202400 -1.524002 3.771898 -1.000000 -0.000000 -0.000000 -0.000000 -0.000000 1.000000 1.546875 0.000000 0 0 0 0 0.000000 0.000000 0.000000 0.000000
-19.202400 -1.524002 0.761998 -1.000000 -0.000000 -0.000000 -0.000000 -0.000000 1.000000 0.312500 0.000000 0 0 0 0 0.000000 0.000000 0.000000 0.000000
-19.202400 0.914398 0.761998 -1.000000 -0.000000 -0.000000 -0.000000 -0.000000 1.000000 0.312500 -1.000000 0 0 0 0 0.000000 0.000000 0.000000 0.000000
-19.202400 0.914398 3.047998 -1.000000 -0.000000 -0.000000 -0.000000 -0.000000 1.000000 1.250000 -1.000000 0 0 0 0 0.000000 0.000000 0.000000 0.000000
-19.202400 0.914398 0.761998 -0.971211 -0.000000 -0.238220 -0.238220 -0.000000 0.971211 0.312500 -1.000000 0 0 0 0 0.000000 0.000000 0.000000 0.000000
-19.202400 -1.524002 0.761998 -0.971211 -0.000000 -0.238220 -0.238220 -0.000000 0.971211 0.312500 0.000000 0 0 0 0 0.000000 0.000000 0.000000 0.000000
-18.954750 -1.524002 -0.247652 -0.971211 -0.000000 -0.238220 -0.238220 -0.000000 0.971211 -0.101562 0.000000 0 0 0 0 0.000000 0.000000 0.000000 0.000000
-18.954750 0.914398 -0.247652 -0.971211 -0.000000 -0.238220 -0.238220 -0.000000 0.971211 -0.101562 -1.000000 0 0 0 0 0.000000 0.000000 0.000000 0.000000
-18.249901 0.914398 -0.971551 -0.269630 0.000000 -0.962964 0.962964 0.000000 -0.269630 -7.484375 -1.000000 0 0 0 0 0.000000 0.000000 0.000000 0.000000
-18.249901 -1.524001 -0.971552 -0.269630 0.000000 -0.962964 0.962964 0.000000 -0.269630 -7.484375 0.000000 0 0 0 0 0.000000 0.000000 0.000000 0.000000
-17.373600 -1.524001 -1.216916 -0.269630 0.000000 -0.962964 0.962964 0.000000 -0.269630 -7.125000 0.000000 0 0 0 0 0.000000 0.000000 0.000000 0.000000
-17.373600 0.914399 -1.216915 -0.269630 0.000000 -0.962964 0.962964 0.000000 -0.269630 -7.125000 -1.000000 0 0 0 0 0.000000 0.000000 0.000000 0.000000
-18.954750 0.914398 -0.247652 -0.716471 0.000000 -0.697617 -0.697617 -0.000000 0.716471 -0.101562 -1.000000 0 0 0 0 0.000000 0.000000 0.000000 0.000000
-18.954750 -1.524002 -0.247652 -0.716471 0.000000 -0.697617 -0.697617 -0.000000 0.716471 -0.101562 0.000000 0 0 0 0 0.000000 0.000000 0.000000 0.000000
-18.249901 -1.524001 -0.971552 -0.716471 0.000000 -0.697617 -0.697617 -0.000000 0.716471 -0.398438 0.000000 0 0 0 0 0.000000 0.000000 0.000000 0.000000
-18.249901 0.914398 -0.971551 -0.716471 0.000000 -0.697617 -0.697617 -0.000000 0.716471 -0.398438 -1.000000 0 0 0 0 0.000000 0.000000 0.000000 0.000000
IndexCount: 444
3 1 0
33 3 0
33 0 32
3 2 1
32 36 35
32 35 34
34 33 32
7 5 4
5 72 4
7 6 5
5 73 72
73 74 72
73 75 74
8 12 11
8 11 10
10 9 8
16 14 13
16 15 14
15 25 24
15 24 18
23 20 15
18 23 15
19 18 17
23 22 21
23 21 20
26 31 30
26 30 29
26 29 28
28 27 26
40 38 37
41 44 37
41 37 43
40 39 38
43 42 41
41 45 44
86 83 45
88 86 45
88 45 82
88 87 86
86 85 84
86 84 83
82 89 88
82 90 89
92 91 84
92 84 85
46 54 53
46 53 52
46 52 51
46 51 50
50 47 46
46 111 101
46 101 102
102 54 46
50 49 48
50 48 47
103 102 101
103 101 100
104 103 100
104 100 106
106 105 104
104 105 110
104 110 109
104 109 108
108 107 104
58 56 55
56 59 55
58 57 56
56 60 59
59 60 120
59 120 119
119 118 59
118 119 123
118 123 122
122 121 118
64 62 61
67 71 61
61 62 70
61 70 69
61 69 68
61 68 67
64 63 62
67 66 65
81 77 76
81 80 79
81 79 78
81 78 77
96 94 93
96 93 97
96 95 94
97 98 96
97 99 98
149 99 97
149 97 148
150 149 148
148 154 153
148 153 152
148 152 151
148 151 150
112 117 116
112 116 115
112 115 114
114 113 112
147 117 112
147 146 117
147 137 134
147 134 146
137 136 135
137 135 134
138 135 136
138 136 140
138 141 135
140 139 138
138 139 145
145 142 138
145 144 143
145 143 142
124 128 127
124 127 126
126 125 124
175 128 124
175 124 174
179 176 175
179 175 174
179 178 177
179 177 176
131 130 129
133 129 132
132 161 130
132 130 160
132 160 159
159 158 132
170 158 155
155 171 170
170 173 172
157 156 155
155 156 169
155 169 171
169 156 168
162 167 166
162 166 165
162 165 164
164 163 162
183 181 180
183 182 181
187 185 184
187 186 185
191 189 188
191 190 189
