VertexCount: 4
-18.745201 -2.171699 -7.105650 0.000000 0.000000 -1.000000 1.000000 0.000000 0.000000 -12.015306 1.966518 0 0 0 0 0.000000 0.000000 0.000000 0.000000
-18.745201 -3.047999 -7.105650 0.000000 0.000000 -1.000000 1.000000 0.000000 0.000000 -12.015306 2.993304 0 0 0 0 0.000000 0.000000 0.000000 0.000000
-17.221201 -3.047999 -7.105650 0.000000 0.000000 -1.000000 1.000000 0.000000 0.000000 -10.994898 2.993304 0 0 0 0 0.000000 0.000000 0.000000 0.000000
-17.221201 -2.171699 -7.105650 0.000000 0.000000 -1.000000 1.000000 0.000000 0.000000 -10.994898 1.966518 0 0 0 0 0.000000 0.000000 0.000000 0.000000
IndexCount: 12
3 2 1
3 1 0
3 2 1
3 1 0