VertexCount: 111
-0.617682 -3.886201 7.296149 0.888955 0.000006 0.457995 -0.457980 -0.000000 0.888963 2.992188 1.075000 0 0 0 0 0.000000 0.000000 0.000000 0.000000
-0.617672 -4.572001 7.296149 0.888955 0.000006 0.457995 -0.457980 -0.000000 0.888963 2.992188 1.300000 0 0 0 0 0.000000 0.000000 0.000000 0.000000
-0.666750 -4.572001 7.391399 0.888955 0.000006 0.457995 -0.457995 0.000000 0.888955 3.031250 1.300000 0 0 0 0 0.000000 0.000000 0.000000 0.000000
-0.666750 -3.886201 7.391399 0.888955 0.000006 0.457995 -0.457995 -0.000000 0.888955 3.031250 1.075000 0 0 0 0 0.000000 0.000000 0.000000 0.000000
-1.752601 -3.886201 7.943849 -1.000000 -0.000000 -0.000000 -0.000000 0.000000 1.000000 3.257812 1.075000 0 0 0 0 0.000000 0.000000 0.000000 0.000000
-1.752600 -4.572001 7.943849 -1.000000 -0.000000 -0.000000 -0.000000 0.000000 1.000000 3.257812 1.300000 0 0 0 0 0.000000 0.000000 0.000000 0.000000
-1.752600 -4.572001 7.791450 -1.000000 -0.000000 -0.000000 -0.000000 0.000000 1.000000 3.195312 1.300000 0 0 0 0 0.000000 0.000000 0.000000 0.000000
-1.752600 -3.886201 7.791450 -1.000000 -0.000000 -0.000000 -0.000000 0.000000 1.000000 3.195312 1.075000 0 0 0 0 0.000000 0.000000 0.000000 0.000000
-0.666750 -3.886201 7.391399 0.628337 -0.000000 0.777941 0.777941 -0.000000 -0.628337 -0.273438 1.075000 0 0 0 0 0.000000 0.000000 0.000000 0.000000
-0.666750 -4.572001 7.391399 0.628337 -0.000000 0.777941 0.777941 -0.000000 -0.628337 -0.273438 1.300000 0 0 0 0 0.000000 0.000000 0.000000 0.000000
-1.162050 -4.572001 7.791450 0.628337 -0.000000 0.777941 0.777941 -0.000000 -0.628337 -0.476562 1.300000 0 0 0 0 0.000000 0.000000 0.000000 0.000000
-1.162050 -3.886201 7.791450 0.628337 -0.000000 0.777941 0.777941 -0.000000 -0.628337 -0.476562 1.075000 0 0 0 0 0.000000 0.000000 0.000000 0.000000
-0.933450 -3.886201 7.296149 -1.000000 -0.000000 -0.000000 -0.000000 -0.000000 1.000000 2.992188 1.075000 0 0 0 0 0.000000 0.000000 0.000000 0.000000
-0.933450 -3.886201 7.410449 -1.000000 -0.000000 -0.000000 -0.000000 -0.000000 1.000000 3.039062 1.075000 0 0 0 0 0.000000 0.000000 0.000000 0.000000
-0.933450 -3.962401 7.410449 -1.000000 -0.000000 -0.000000 -0.000000 -0.000000 1.000000 3.039062 1.100000 0 0 0 0 0.000000 0.000000 0.000000 0.000000
-0.933450 -3.962401 7.296149 -1.000000 -0.000000 -0.000000 -0.000000 -0.000000 1.000000 2.992188 1.100000 0 0 0 0 0.000000 0.000000 0.000000 0.000000
-0.802822 -3.962401 7.296149 -0.656201 0.000074 -0.754586 0.754255 -0.000000 -0.656582 -0.329241 1.100000 0 0 0 0 0.000000 0.000000 0.000000 0.000000
-0.933450 -3.962401 7.409688 -0.656201 0.000074 -0.754586 0.754586 0.000000 -0.656201 -0.382812 1.100000 0 0 0 0 0.000000 0.000000 0.000000 0.000000
-0.933450 -4.572001 7.409688 -0.656201 0.000074 -0.754586 0.754621 -0.000000 -0.656161 -0.382812 1.300000 0 0 0 0 0.000000 0.000000 0.000000 0.000000
-0.802958 -4.572001 7.296149 -0.656201 0.000074 -0.754586 0.754255 -0.000000 -0.656582 -0.329297 1.300000 0 0 0 0 0.000000 0.000000 0.000000 0.000000
-1.752600 -3.886201 7.791450 -0.242535 0.000000 -0.970143 0.970143 0.000001 -0.242535 -0.718750 1.075000 0 0 0 0 0.000000 0.000000 0.000000 0.000000
-1.752600 -4.572001 7.791450 -0.242535 0.000000 -0.970143 0.970143 0.000001 -0.242535 -0.718750 1.300000 0 0 0 0 0.000000 0.000000 0.000000 0.000000
-1.219200 -4.572001 7.658099 -0.242535 0.000000 -0.970143 0.970143 0.000001 -0.242535 -0.500000 1.300000 0 0 0 0 0.000000 0.000000 0.000000 0.000000
-1.219200 -3.886201 7.658099 -0.242535 0.000000 -0.970143 0.970143 0.000001 -0.242535 -0.500000 1.075000 0 0 0 0 0.000000 0.000000 0.000000 0.000000
-0.933450 -3.886201 7.409688 -0.656079 0.000000 -0.754692 0.754692 0.000000 -0.656079 -0.382812 1.075000 0 0 0 0 0.000000 0.000000 0.000000 0.000000
-1.219200 -3.886201 7.658099 -0.656079 0.000000 -0.754692 0.754692 0.000000 -0.656079 -0.500000 1.075000 0 0 0 0 0.000000 0.000000 0.000000 0.000000
-1.219200 -4.572001 7.658099 -0.656079 0.000000 -0.754692 0.754692 0.000000 -0.656079 -0.500000 1.300000 0 0 0 0 0.000000 0.000000 0.000000 0.000000
-0.933450 -4.572001 7.409688 -0.656079 0.000000 -0.754692 0.754621 -0.000000 -0.656161 -0.382812 1.300000 0 0 0 0 0.000000 0.000000 0.000000 0.000000
-0.933450 -3.962401 7.409688 -0.656079 0.000000 -0.754692 0.000000 -1.000000 -0.000000 -0.382812 1.100000 0 0 0 0 0.000000 0.000000 0.000000 0.000000
-1.162050 -3.886201 7.791450 0.249878 -0.000000 0.968277 0.968277 0.000001 -0.249878 -0.476562 1.075000 0 0 0 0 0.000000 0.000000 0.000000 0.000000
-1.162050 -4.572001 7.791450 0.249878 -0.000000 0.968277 0.968277 0.000001 -0.249878 -0.476562 1.300000 0 0 0 0 0.000000 0.000000 0.000000 0.000000
-1.752600 -4.572001 7.943849 0.249878 -0.000000 0.968277 0.968277 0.000000 -0.249878 -0.718750 1.300000 0 0 0 0 0.000000 0.000000 0.000000 0.000000
-1.752601 -3.886201 7.943849 0.249878 -0.000000 0.968277 0.968277 0.000001 -0.249878 -0.718750 1.075000 0 0 0 0 0.000000 0.000000 0.000000 0.000000
-1.752600 -3.886201 4.286249 -1.000000 -0.000000 -0.000000 -0.000000 -0.000000 1.000000 1.757812 1.075000 0 0 0 0 0.000000 0.000000 0.000000 0.000000
-1.752600 -4.572001 4.286249 -1.000000 -0.000000 -0.000000 -0.000000 -0.000000 1.000000 1.757812 1.300000 0 0 0 0 0.000000 0.000000 0.000000 0.000000
-1.752600 -4.572001 4.133849 -1.000000 -0.000000 -0.000000 -0.000000 -0.000000 1.000000 1.695312 1.300000 0 0 0 0 0.000000 0.000000 0.000000 0.000000
-1.752600 -3.886201 4.133849 -1.000000 -0.000000 -0.000000 -0.000000 -0.000000 1.000000 1.695312 1.075000 0 0 0 0 0.000000 0.000000 0.000000 0.000000
-0.228600 -4.572001 6.134099 1.000000 0.000000 0.000000 -0.000000 -0.000000 1.000000 2.515625 1.300000 0 0 0 0 0.000000 0.000000 0.000000 0.000000
-0.228600 -3.886201 6.134099 1.000000 0.000000 0.000000 -0.000000 -0.000000 1.000000 2.515625 1.075000 0 0 0 0 0.000000 0.000000 0.000000 0.000000
-0.228600 -3.886201 6.038849 1.000000 0.000000 0.000000 -0.000000 -0.000000 1.000000 2.476562 1.075000 0 0 0 0 0.000000 0.000000 0.000000 0.000000
-0.228600 -3.886201 5.943600 1.000000 0.000000 0.000000 -0.000000 0.000000 1.000000 2.437500 1.075000 0 0 0 0 0.000000 0.000000 0.000000 0.000000
-0.228600 -4.572001 5.943600 1.000000 0.000000 0.000000 -0.000000 0.000000 1.000000 2.437500 1.300000 0 0 0 0 0.000000 0.000000 0.000000 0.000000
-1.752600 -3.886201 4.133849 0.249878 0.000000 -0.968277 0.968277 0.000000 0.249878 -0.718750 1.075000 0 0 0 0 0.000000 0.000000 0.000000 0.000000
-1.752600 -4.572001 4.133849 0.249878 0.000000 -0.968277 0.968277 0.000000 0.249878 -0.718750 1.300000 0 0 0 0 0.000000 0.000000 0.000000 0.000000
-1.162050 -4.572001 4.286249 0.249878 0.000000 -0.968277 0.968277 0.000000 0.249878 -0.476562 1.300000 0 0 0 0 0.000000 0.000000 0.000000 0.000000
-1.162050 -3.886201 4.286249 0.249878 0.000000 -0.968277 0.968277 0.000000 0.249878 -0.476562 1.075000 0 0 0 0 0.000000 0.000000 0.000000 0.000000
-0.617682 -3.886201 7.296149 0.888978 0.000006 0.457950 -0.457980 -0.000000 0.888963 2.992188 1.075000 0 0 0 0 0.000000 0.000000 0.000000 0.000000
-0.342900 -3.886201 6.762750 0.888978 0.000006 0.457950 -0.457950 0.000000 0.888978 2.773438 1.075000 0 0 0 0 0.000000 0.000000 0.000000 0.000000
-0.342900 -4.572001 6.762750 0.888978 0.000006 0.457950 -0.457950 -0.000000 0.888978 2.773438 1.300000 0 0 0 0 0.000000 0.000000 0.000000 0.000000
-0.617672 -4.572001 7.296149 0.888978 0.000006 0.457950 -0.457980 -0.000000 0.888963 2.992188 1.300000 0 0 0 0 0.000000 0.000000 0.000000 0.000000
-1.162050 -3.886201 4.286249 0.628337 0.000000 -0.777941 0.777941 0.000000 0.628337 -0.476562 1.075000 0 0 0 0 0.000000 0.000000 0.000000 0.000000
-1.162050 -4.572001 4.286249 0.628337 0.000000 -0.777941 0.777941 0.000000 0.628337 -0.476562 1.300000 0 0 0 0 0.000000 0.000000 0.000000 0.000000
-0.666750 -4.572001 4.686300 0.628337 0.000000 -0.777941 0.777941 0.000000 0.628337 -0.273438 1.300000 0 0 0 0 0.000000 0.000000 0.000000 0.000000
-0.666750 -3.886201 4.686300 0.628337 0.000000 -0.777941 0.777941 0.000000 0.628337 -0.273438 1.075000 0 0 0 0 0.000000 0.000000 0.000000 0.000000
-0.802822 -3.962401 7.296149 -0.657343 0.000073 -0.753591 0.754255 -0.000000 -0.656582 -0.329241 1.100000 0 0 0 0 0.000000 0.000000 0.000000 0.000000
-0.802958 -4.572001 7.296149 -0.657343 0.000073 -0.753591 0.754255 -0.000000 -0.656582 -0.329297 1.300000 0 0 0 0 0.000000 0.000000 0.000000 0.000000
-0.781050 -4.572001 7.277100 -0.657343 0.000073 -0.753591 0.753591 0.000000 -0.657343 -0.320312 1.300000 0 0 0 0 0.000000 0.000000 0.000000 0.000000
-0.781050 -3.962401 7.277100 -0.657343 0.000073 -0.753591 0.753591 -0.000000 -0.657343 -0.320312 1.100000 0 0 0 0 0.000000 0.000000 0.000000 0.000000
-0.666750 -3.886201 4.686300 0.888974 0.000000 -0.457957 0.457957 -0.000000 0.888975 1.921875 1.075000 0 0 0 0 0.000000 0.000000 0.000000 0.000000
-0.666750 -4.572001 4.686300 0.888974 0.000000 -0.457957 0.457957 -0.000000 0.888975 1.921875 1.300000 0 0 0 0 0.000000 0.000000 0.000000 0.000000
-0.342900 -4.572001 5.314949 0.888974 0.000000 -0.457957 0.457957 -0.000000 0.888975 2.179688 1.300000 0 0 0 0 0.000000 0.000000 0.000000 0.000000
-0.342900 -3.886201 5.314949 0.888974 0.000000 -0.457957 0.457957 -0.000000 0.888975 2.179688 1.075000 0 0 0 0 0.000000 0.000000 0.000000 0.000000
-0.228600 -3.886201 6.134099 0.983870 0.000000 0.178886 -0.178886 -0.000000 0.983870 2.515625 1.075000 0 0 0 0 0.000000 0.000000 0.000000 0.000000
-0.228600 -4.572001 6.134099 0.983870 0.000000 0.178886 -0.178886 -0.000000 0.983870 2.515625 1.300000 0 0 0 0 0.000000 0.000000 0.000000 0.000000
-0.342900 -4.572001 6.762750 0.983870 0.000000 0.178886 -0.178886 -0.000000 0.983870 2.773438 1.300000 0 0 0 0 0.000000 0.000000 0.000000 0.000000
-0.342900 -3.886201 6.762750 0.983870 0.000000 0.178886 -0.178886 -0.000000 0.983870 2.773438 1.075000 0 0 0 0 0.000000 0.000000 0.000000 0.000000
-0.381000 -3.962401 6.038849 -0.989950 -0.000000 0.141421 0.141421 0.000000 0.989950 2.476562 1.100000 0 0 0 0 0.000000 0.000000 0.000000 0.000000
-0.381000 -4.572001 6.038849 -0.989950 -0.000000 0.141421 0.141421 0.000000 0.989950 2.476562 1.300000 0 0 0 0 0.000000 0.000000 0.000000 0.000000
-0.476250 -4.572001 5.372099 -0.989950 -0.000000 0.141421 0.141421 0.000000 0.989950 2.203125 1.300000 0 0 0 0 0.000000 0.000000 0.000000 0.000000
-0.476250 -3.962401 5.372099 -0.989950 -0.000000 0.141421 0.141421 0.000000 0.989950 2.203125 1.100000 0 0 0 0 0.000000 0.000000 0.000000 0.000000
-0.781050 -3.962401 7.277100 -0.882353 -0.000000 -0.470589 -0.470589 -0.000000 0.882353 2.984375 1.100000 0 0 0 0 0.000000 0.000000 0.000000 0.000000
-0.781050 -4.572001 7.277100 -0.882353 -0.000000 -0.470589 -0.470589 -0.000000 0.882353 2.984375 1.300000 0 0 0 0 0.000000 0.000000 0.000000 0.000000
-0.476250 -4.572001 6.705599 -0.882353 -0.000000 -0.470589 -0.470588 -0.000000 0.882353 2.750000 1.300000 0 0 0 0 0.000000 0.000000 0.000000 0.000000
-0.476250 -3.962401 6.705599 -0.882353 -0.000000 -0.470589 -0.470589 -0.000000 0.882353 2.750000 1.100000 0 0 0 0 0.000000 0.000000 0.000000 0.000000
-0.476250 -3.962401 5.372099 -0.882353 -0.000000 0.470588 0.470588 -0.000000 0.882353 2.203125 1.100000 0 0 0 0 0.000000 0.000000 0.000000 0.000000
-0.476250 -4.572001 5.372099 -0.882353 -0.000000 0.470588 0.470588 -0.000000 0.882353 2.203125 1.300000 0 0 0 0 0.000000 0.000000 0.000000 0.000000
-0.781050 -4.572001 4.800599 -0.882353 -0.000000 0.470588 0.470588 -0.000000 0.882353 1.968750 1.300000 0 0 0 0 0.000000 0.000000 0.000000 0.000000
-0.781050 -3.962401 4.800599 -0.882353 -0.000000 0.470588 0.470588 -0.000000 0.882353 1.968750 1.100000 0 0 0 0 0.000000 0.000000 0.000000 0.000000
-0.476250 -3.962401 6.705599 -0.989949 -0.000000 -0.141421 -0.141421 -0.000000 0.989949 2.750000 1.100000 0 0 0 0 0.000000 0.000000 0.000000 0.000000
-0.476250 -4.572001 6.705599 -0.989949 -0.000000 -0.141421 -0.141421 -0.000000 0.989949 2.750000 1.300000 0 0 0 0 0.000000 0.000000 0.000000 0.000000
-0.381000 -4.572001 6.038849 -0.989949 -0.000000 -0.141421 -0.141421 -0.000000 0.989949 2.476562 1.300000 0 0 0 0 0.000000 0.000000 0.000000 0.000000
-0.381000 -3.962401 6.038849 -0.989949 -0.000000 -0.141421 -0.141421 -0.000000 0.989949 2.476562 1.100000 0 0 0 0 0.000000 0.000000 0.000000 0.000000
-0.933450 -3.886201 6.515100 -1.000000 -0.000000 -0.000000 -0.000000 -0.000000 1.000000 2.671875 1.075000 0 0 0 0 0.000000 0.000000 0.000000 0.000000
-0.933450 -3.886201 7.067549 -1.000000 -0.000000 -0.000000 0.000000 0.000000 -1.000000 2.898438 1.075000 0 0 0 0 0.000000 0.000000 0.000000 0.000000
-0.933450 -3.886201 7.105649 -1.000000 -0.000000 -0.000000 0.000000 0.000000 -1.000000 2.914062 1.075000 0 0 0 0 0.000000 0.000000 0.000000 0.000000
-0.933450 -3.886201 7.124700 -1.000000 -0.000000 -0.000000 0.000000 0.000000 -1.000000 2.921875 1.075000 0 0 0 0 0.000000 0.000000 0.000000 0.000000
-0.933450 -3.886201 7.162799 -1.000000 -0.000000 -0.000000 0.000000 0.000000 -1.000000 2.937500 1.075000 0 0 0 0 0.000000 0.000000 0.000000 0.000000
-0.933450 -3.886201 7.296149 -1.000000 -0.000000 -0.000000 0.000000 0.000000 -1.000000 2.992188 1.075000 0 0 0 0 0.000000 0.000000 0.000000 0.000000
-0.933450 -3.962401 6.610350 -1.000000 -0.000000 -0.000000 -0.000000 -0.000000 1.000000 2.710938 1.100000 0 0 0 0 0.000000 0.000000 0.000000 0.000000
-0.933450 -3.962401 6.515100 -1.000000 -0.000000 -0.000000 -0.000000 0.000000 1.000000 2.671875 1.100000 0 0 0 0 0.000000 0.000000 0.000000 0.000000
-0.933450 -3.886201 6.515100 -1.000000 -0.000000 -0.000000 -0.000000 -0.000000 1.000000 2.671875 1.075000 0 0 0 0 0.000000 0.000000 0.000000 0.000000
-0.933450 -3.962401 4.667249 -1.000000 -0.000000 -0.000000 -0.000000 -0.000000 1.000000 1.914062 1.100000 0 0 0 0 0.000000 0.000000 0.000000 0.000000
-0.933450 -3.886201 4.667249 -1.000000 -0.000000 -0.000000 -0.000000 -0.000000 1.000000 1.914062 1.075000 0 0 0 0 0.000000 0.000000 0.000000 0.000000
-0.933450 -3.886201 6.229349 -1.000000 -0.000000 -0.000000 -0.000000 -0.000000 1.000000 2.554688 1.075000 0 0 0 0 0.000000 0.000000 0.000000 0.000000
-0.933450 -3.962401 4.668011 -0.656365 -0.000000 0.754443 0.754443 -0.000000 0.656366 -0.382812 1.100000 0 0 0 0 0.000000 0.000000 0.000000 0.000000
-0.781050 -3.962401 4.800599 -0.656365 -0.000000 0.754443 0.754443 -0.000000 0.656366 -0.320312 1.100000 0 0 0 0 0.000000 0.000000 0.000000 0.000000
-0.781050 -4.572001 4.800599 -0.656365 -0.000000 0.754443 0.754443 -0.000000 0.656366 -0.320312 1.300000 0 0 0 0 0.000000 0.000000 0.000000 0.000000
-0.933450 -4.572001 4.668011 -0.656365 -0.000000 0.754443 0.754443 -0.000000 0.656366 -0.382812 1.300000 0 0 0 0 0.000000 0.000000 0.000000 0.000000
-0.933450 -3.886201 4.668011 -0.656079 -0.000000 0.754692 -0.000000 1.000000 0.000000 -0.382812 1.075000 0 0 0 0 0.000000 0.000000 0.000000 0.000000
-0.933450 -3.962401 4.668011 -0.656079 -0.000000 0.754692 -0.000000 1.000000 0.000000 -0.382812 1.100000 0 0 0 0 0.000000 0.000000 0.000000 0.000000
-0.933450 -4.572001 4.668011 -0.656079 -0.000000 0.754692 -0.000000 1.000000 0.000000 -0.382812 1.300000 0 0 0 0 0.000000 0.000000 0.000000 0.000000
-1.219200 -4.572001 4.419599 -0.656079 -0.000000 0.754692 0.754692 0.000000 0.656079 -0.500000 1.300000 0 0 0 0 0.000000 0.000000 0.000000 0.000000
-1.219200 -3.886201 4.419599 -0.656079 -0.000000 0.754692 0.754692 0.000000 0.656079 -0.500000 1.075000 0 0 0 0 0.000000 0.000000 0.000000 0.000000
-0.342900 -3.886201 5.314949 0.983870 0.000000 -0.178885 0.178885 0.000000 0.983870 2.179688 1.075000 0 0 0 0 0.000000 0.000000 0.000000 0.000000
-0.342900 -4.572001 5.314949 0.983870 0.000000 -0.178885 0.178885 0.000000 0.983870 2.179688 1.300000 0 0 0 0 0.000000 0.000000 0.000000 0.000000
-0.228600 -4.572001 5.943600 0.983870 0.000000 -0.178885 0.178885 0.000000 0.983870 2.437500 1.300000 0 0 0 0 0.000000 0.000000 0.000000 0.000000
-0.228600 -3.886201 5.943600 0.983870 0.000000 -0.178885 0.178885 0.000000 0.983870 2.437500 1.075000 0 0 0 0 0.000000 0.000000 0.000000 0.000000
-1.752600 -3.886201 4.286249 0.242535 0.000000 -0.970143 -0.970143 0.000001 0.242535 -0.718750 1.075000 0 0 0 0 0.000000 0.000000 0.000000 0.000000
-1.752600 -4.572001 4.286249 0.242535 0.000000 -0.970143 -0.970143 0.000001 0.242535 -0.718750 1.300000 0 0 0 0 0.000000 0.000000 0.000000 0.000000
-1.219200 -4.572001 4.419599 0.242535 0.000000 -0.970143 -0.970143 0.000001 0.242535 -0.500000 1.300000 0 0 0 0 0.000000 0.000000 0.000000 0.000000
-1.219200 -3.886201 4.419599 0.242535 0.000000 -0.970143 -0.970143 0.000001 0.242535 -0.500000 1.075000 0 0 0 0 0.000000 0.000000 0.000000 0.000000
IndexCount: 186
3 1 0
3 2 1
7 5 4
7 6 5
11 9 8
11 10 9
15 13 12
15 14 13
82 88 15
82 15 87
82 89 88
83 82 87
87 86 85
87 85 83
85 84 83
93 91 89
93 89 90
93 92 91
19 17 16
19 18 17
23 21 20
23 22 21
24 28 27
24 27 26
26 25 24
32 30 29
32 31 30
36 34 33
36 35 34
37 41 40
37 40 39
39 38 37
45 43 42
45 44 43
49 47 46
49 48 47
53 51 50
53 52 51
57 55 54
57 56 55
61 59 58
61 60 59
65 63 62
65 64 63
69 67 66
69 68 67
73 71 70
73 72 71
77 75 74
77 76 75
81 79 78
81 80 79
97 95 94
97 96 95
98 102 101
98 101 100
100 99 98
106 104 103
106 105 104
107 108 110
108 109 110