VertexCount: 75
-0.171450 0.038100 1.752601 -0.000001 1.000000 0.000000 -0.000000 -0.000000 1.000000 5.812500 -0.787500 0 0 0 0 0.000000 0.000000 0.000000 0.000000
-0.762001 0.038100 1.905000 -0.000001 1.000000 0.000000 -0.000001 -0.000000 1.000000 5.912500 -1.175000 0 0 0 0 0.000000 0.000000 0.000000 0.000000
-0.761999 0.038100 1.752601 -0.000001 1.000000 0.000000 -0.000001 -0.000000 1.000000 5.812500 -1.175000 0 0 0 0 0.000000 0.000000 0.000000 0.000000
-0.228600 0.038100 1.619250 -0.000001 1.000000 0.000000 -0.000001 -0.000000 1.000000 5.725000 -0.825000 0 0 0 0 0.000000 0.000000 0.000000 0.000000
0.372919 0.038100 1.257300 0.000001 1.000000 0.000000 -0.000001 -0.000000 1.000000 5.487500 -0.430303 0 0 0 0 0.000000 0.000000 0.000000 0.000000
0.323851 0.038100 1.352550 0.000001 1.000000 0.000000 -0.000001 -0.000000 1.000000 5.550000 -0.462500 0 0 0 0 0.000000 0.000000 0.000000 0.000000
0.187643 0.038100 1.257300 0.000001 1.000000 0.000000 -0.000001 -0.000000 1.000000 5.487500 -0.551875 0 0 0 0 0.000000 0.000000 0.000000 0.000000
0.228600 0.038100 1.257300 0.000001 1.000000 0.000000 -1.000000 0.000001 0.000000 5.487500 -0.525000 0 0 0 0 0.000000 0.000000 0.000000 0.000000
0.057150 0.038100 1.371600 -0.000000 1.000000 0.000000 0.000000 -0.000000 1.000000 5.562500 -0.637500 0 0 0 0 0.000000 0.000000 0.000000 0.000000
0.057150 0.038100 1.257300 -0.000000 1.000000 0.000000 0.000000 -0.000000 1.000000 5.487500 -0.637500 0 0 0 0 0.000000 0.000000 0.000000 0.000000
0.057150 -0.038100 1.257300 0.000000 -1.000000 -0.000000 -0.000000 -0.000000 1.000000 5.487500 -0.637500 0 0 0 0 0.000000 0.000000 0.000000 0.000000
0.057150 -0.038100 1.371600 0.000000 -1.000000 -0.000000 0.000000 -0.000000 1.000000 5.562500 -0.637500 0 0 0 0 0.000000 0.000000 0.000000 0.000000
0.187778 -0.038100 1.257300 0.000000 -1.000000 -0.000000 -0.000000 -0.000000 1.000000 5.487500 -0.551786 0 0 0 0 0.000000 0.000000 0.000000 0.000000
0.114301 0.038100 1.066800 -0.000000 1.000000 0.000000 0.000000 -0.000000 1.000000 5.362500 -0.600000 0 0 0 0 0.000000 0.000000 0.000000 0.000000
0.057150 0.038100 1.066800 -0.000000 1.000000 0.000000 0.000000 -0.000000 1.000000 5.362500 -0.637500 0 0 0 0 0.000000 0.000000 0.000000 0.000000
0.057150 0.038100 1.028700 -0.000000 1.000000 0.000000 0.000000 -0.000000 1.000000 5.337500 -0.637500 0 0 0 0 0.000000 0.000000 0.000000 0.000000
0.114301 0.038100 1.028700 -0.000000 1.000000 0.000000 0.000000 -0.000000 1.000000 5.337500 -0.600000 0 0 0 0 0.000000 0.000000 0.000000 0.000000
0.270510 0.038100 1.123950 -0.000000 1.000000 0.000000 -0.000005 -0.000000 1.000000 5.400000 -0.497500 0 0 0 0 0.000000 0.000000 0.000000 0.000000
0.266701 0.038100 1.123950 -0.000000 1.000000 0.000000 -0.000004 -0.000000 1.000000 5.400000 -0.500000 0 0 0 0 0.000000 0.000000 0.000000 0.000000
0.266701 0.038100 1.028700 -0.000000 1.000000 0.000000 0.000000 -0.000000 1.000000 5.337500 -0.500000 0 0 0 0 0.000000 0.000000 0.000000 0.000000
0.321373 0.038100 1.028700 -0.000000 1.000000 0.000000 -0.000004 -0.000000 1.000000 5.337500 -0.464125 0 0 0 0 0.000000 0.000000 0.000000 0.000000
0.266701 0.038100 -0.038099 -0.000000 1.000000 0.000000 -0.000000 -0.000000 1.000000 4.637500 -0.500000 0 0 0 0 0.000000 0.000000 0.000000 0.000000
0.076201 0.038100 -0.038099 -0.000000 1.000000 0.000000 -0.000000 -0.000000 1.000000 4.637500 -0.625000 0 0 0 0 0.000000 0.000000 0.000000 0.000000
0.076201 0.038100 -1.354836 -0.000000 1.000000 0.000000 -0.000000 -0.000000 1.000000 3.773500 -0.625000 0 0 0 0 0.000000 0.000000 0.000000 0.000000
0.209550 0.038100 -1.238250 -0.000000 1.000000 0.000000 -0.000000 -0.000000 1.000000 3.850000 -0.537500 0 0 0 0 0.000000 0.000000 0.000000 0.000000
0.266701 0.038100 -1.130998 -0.000000 1.000000 0.000000 -0.000000 -0.000000 1.000000 3.920375 -0.500000 0 0 0 0 0.000000 0.000000 0.000000 0.000000
0.076201 0.038100 0.190500 0.000011 1.000000 0.000000 0.000000 -0.000000 1.000000 4.787500 -0.625000 0 0 0 0 0.000000 0.000000 0.000000 0.000000
0.057150 0.038100 0.190500 0.000011 1.000000 0.000000 0.000000 -0.000000 1.000000 4.787500 -0.637500 0 0 0 0 0.000000 0.000000 0.000000 0.000000
0.057150 0.038100 -1.371600 0.000011 1.000000 0.000000 -0.000000 -0.000000 1.000000 3.762500 -0.637500 0 0 0 0 0.000000 0.000000 0.000000 0.000000
0.076201 0.038100 -1.354836 0.000011 1.000000 0.000000 -0.000000 -0.000000 1.000000 3.773500 -0.625000 0 0 0 0 0.000000 0.000000 0.000000 0.000000
0.076201 0.038100 -0.038099 0.000011 1.000000 0.000000 -0.000000 -0.000000 1.000000 4.637500 -0.625000 0 0 0 0 0.000000 0.000000 0.000000 0.000000
0.076201 0.038100 0.076200 0.000011 1.000000 0.000000 -0.000000 0.000000 -1.000000 4.712500 -0.625000 0 0 0 0 0.000000 0.000000 0.000000 0.000000
0.266701 0.038100 0.190500 0.000001 1.000000 0.000000 -0.000000 -0.000000 1.000000 4.787500 -0.500000 0 0 0 0 0.000000 0.000000 0.000000 0.000000
0.266701 0.038100 0.076200 0.000001 1.000000 0.000000 0.000000 -0.000000 1.000000 4.712500 -0.500000 0 0 0 0 0.000000 0.000000 0.000000 0.000000
0.514350 0.038100 -0.666750 0.000001 1.000000 0.000000 -0.000000 -0.000000 1.000000 4.225000 -0.337500 0 0 0 0 0.000000 0.000000 0.000000 0.000000
0.609600 0.038100 0.000000 0.000001 1.000000 0.000000 -0.000000 -0.000000 1.000000 4.662500 -0.275000 0 0 0 0 0.000000 0.000000 0.000000 0.000000
0.582359 0.038100 0.190500 0.000001 1.000000 0.000000 0.000001 -0.000000 1.000000 4.787500 -0.292875 0 0 0 0 0.000000 0.000000 0.000000 0.000000
0.057150 0.038100 1.028700 -0.000000 1.000000 0.000000 -1.000000 -0.000000 -0.000000 5.337500 -0.637500 0 0 0 0 0.000000 0.000000 0.000000 0.000000
0.057150 0.038100 0.476251 -0.000000 1.000000 0.000000 -0.000000 -0.000000 1.000000 4.975000 -0.637500 0 0 0 0 0.000000 0.000000 0.000000 0.000000
0.057150 0.038100 0.190500 -0.000000 1.000000 0.000000 0.000000 -0.000000 1.000000 4.787500 -0.637500 0 0 0 0 0.000000 0.000000 0.000000 0.000000
0.076201 0.038100 0.190500 -0.000000 1.000000 0.000000 0.000000 -0.000000 1.000000 4.787500 -0.625000 0 0 0 0 0.000000 0.000000 0.000000 0.000000
0.514350 0.038100 0.666750 -0.000000 1.000000 0.000000 -0.000000 -0.000000 1.000000 5.100000 -0.337500 0 0 0 0 0.000000 0.000000 0.000000 0.000000
0.266701 0.038100 1.028700 -0.000000 1.000000 0.000000 -1.000000 -0.000000 -0.000000 5.337500 -0.500000 0 0 0 0 0.000000 0.000000 0.000000 0.000000
0.114301 0.038100 1.028700 -0.000000 1.000000 0.000000 -1.000000 -0.000000 -0.000000 5.337500 -0.600000 0 0 0 0 0.000000 0.000000 0.000000 0.000000
0.057150 0.038100 1.123950 -0.000000 1.000000 0.000000 0.000000 -0.000000 1.000000 5.400000 -0.637500 0 0 0 0 0.000000 0.000000 0.000000 0.000000
0.114301 0.038100 1.123950 -0.000000 1.000000 0.000000 0.000000 -0.000000 1.000000 5.400000 -0.600000 0 0 0 0 0.000000 0.000000 0.000000 0.000000
0.209550 0.038100 1.238251 -0.000000 1.000000 0.000000 -0.000000 -0.000000 1.000000 5.475000 -0.537500 0 0 0 0 0.000000 0.000000 0.000000 0.000000
0.057150 0.038100 1.085851 -0.000000 1.000000 0.000000 0.000000 -0.000000 1.000000 5.375000 -0.637500 0 0 0 0 0.000000 0.000000 0.000000 0.000000
0.114301 0.038100 1.085851 -0.000000 1.000000 0.000000 0.000000 -0.000000 1.000000 5.375000 -0.600000 0 0 0 0 0.000000 0.000000 0.000000 0.000000
-0.761999 0.038100 -1.905000 -0.000000 1.000000 0.000000 0.000000 -0.000000 1.000000 3.412500 -1.175000 0 0 0 0 0.000000 0.000000 0.000000 0.000000
-0.171450 0.038100 -1.752600 -0.000000 1.000000 0.000000 0.000000 -0.000000 1.000000 3.512500 -0.787500 0 0 0 0 0.000000 0.000000 0.000000 0.000000
-0.228600 0.038100 -1.619250 -0.000000 1.000000 0.000000 0.000000 -0.000000 1.000000 3.600000 -0.825000 0 0 0 0 0.000000 0.000000 0.000000 0.000000
-0.761999 0.038100 -1.752600 -0.000000 1.000000 0.000000 0.000000 -0.000000 1.000000 3.512500 -1.175000 0 0 0 0 0.000000 0.000000 0.000000 0.000000
0.323851 0.038100 -1.352549 0.000001 1.000000 0.000000 -0.000000 -0.000000 1.000000 3.775000 -0.462500 0 0 0 0 0.000000 0.000000 0.000000 0.000000
0.647701 0.038100 -0.723900 -0.000000 1.000000 0.000000 -0.000000 -0.000000 1.000000 4.187500 -0.250000 0 0 0 0 0.000000 0.000000 0.000000 0.000000
0.762000 0.038100 -0.095249 -0.000000 1.000000 0.000000 -0.000000 -0.000000 1.000000 4.600000 -0.175000 0 0 0 0 0.000000 0.000000 0.000000 0.000000
0.762000 0.038100 0.000000 -0.000000 1.000000 0.000000 -0.000000 -0.000000 1.000000 4.662500 -0.175000 0 0 0 0 0.000000 0.000000 0.000000 0.000000
0.762000 0.038100 0.095250 -0.000000 1.000000 0.000000 0.000000 -0.000000 1.000000 4.725000 -0.175000 0 0 0 0 0.000000 0.000000 0.000000 0.000000
0.647701 0.038100 0.723901 -0.000000 1.000000 0.000000 0.000000 -0.000000 1.000000 5.137500 -0.250000 0 0 0 0 0.000000 0.000000 0.000000 0.000000
0.228600 0.038100 1.257300 0.000001 1.000000 0.000000 -0.000001 -0.000000 1.000000 5.487500 -0.525000 0 0 0 0 0.000000 0.000000 0.000000 0.000000
0.095251 -0.038100 0.476251 0.000000 -1.000000 -0.000000 -0.000001 -0.000000 1.000000 4.975000 -0.612500 0 0 0 0 0.000000 0.000000 0.000000 0.000000
0.057150 -0.038100 0.476251 0.000000 -1.000000 -0.000000 -0.000001 -0.000000 1.000000 4.975000 -0.637500 0 0 0 0 0.000000 0.000000 0.000000 0.000000
0.057150 -0.038100 0.571501 0.000000 -1.000000 -0.000000 -0.000001 -0.000000 1.000000 5.037500 -0.637500 0 0 0 0 0.000000 0.000000 0.000000 0.000000
0.095251 -0.038100 0.571501 0.000000 -1.000000 -0.000000 -0.000001 -0.000000 1.000000 5.037500 -0.612500 0 0 0 0 0.000000 0.000000 0.000000 0.000000
0.247650 -0.038100 0.476251 0.000000 -1.000000 -0.000000 -0.000001 -0.000000 1.000000 4.975000 -0.512500 0 0 0 0 0.000000 0.000000 0.000000 0.000000
0.247650 -0.038100 0.571501 0.000000 -1.000000 -0.000000 -0.000001 -0.000000 1.000000 5.037500 -0.512500 0 0 0 0 0.000000 0.000000 0.000000 0.000000
0.527875 -0.038100 0.571501 0.000000 -1.000000 -0.000000 -0.000001 -0.000000 1.000000 5.037500 -0.328625 0 0 0 0 0.000000 0.000000 0.000000 0.000000
0.541592 -0.038100 0.476251 0.000000 -1.000000 -0.000000 -0.000001 -0.000000 1.000000 4.975000 -0.319625 0 0 0 0 0.000000 0.000000 0.000000 0.000000
0.209550 -0.038100 1.238251 -0.000000 -1.000000 -0.000000 -0.000000 -0.000000 1.000000 5.475000 -0.537500 0 0 0 0 0.000000 0.000000 0.000000 0.000000
0.514350 -0.038100 0.666750 -0.000000 -1.000000 -0.000000 -0.000000 -0.000000 1.000000 5.100000 -0.337500 0 0 0 0 0.000000 0.000000 0.000000 0.000000
0.095251 -0.038100 0.571501 -0.000000 -1.000000 -0.000000 1.000000 -0.000000 -0.000000 5.037500 -0.612500 0 0 0 0 0.000000 0.000000 0.000000 0.000000
0.209550 -0.038100 -1.238250 -0.000000 -1.000000 -0.000000 -0.000000 -0.000000 1.000000 3.850000 -0.537500 0 0 0 0 0.000000 0.000000 0.000000 0.000000
0.057150 -0.038100 -1.371600 -0.000000 -1.000000 -0.000000 -0.000000 -0.000000 1.000000 3.762500 -0.637500 0 0 0 0 0.000000 0.000000 0.000000 0.000000
0.609600 -0.038100 0.000000 -0.000000 -1.000000 -0.000000 0.000000 -0.000000 1.000000 4.662500 -0.275000 0 0 0 0 0.000000 0.000000 0.000000 0.000000
0.514350 -0.038100 -0.666750 -0.000000 -1.000000 -0.000000 -0.000000 -0.000000 1.000000 4.225000 -0.337500 0 0 0 0 0.000000 0.000000 0.000000 0.000000
IndexCount: 216
3 1 0
6 3 0
6 0 5
3 2 1
6 5 4
4 7 6
59 4 58
58 46 59
46 6 59
56 41 58
58 57 56
58 41 17
58 17 46
6 46 17
20 18 17
6 17 18
20 19 18
42 20 41
42 41 36
56 35 41
32 36 35
42 36 32
32 35 34
54 34 35
54 35 56
34 33 32
42 32 40
34 25 21
34 21 33
24 34 54
24 54 53
56 55 54
21 25 24
21 24 23
53 51 24
23 22 21
52 51 50
53 50 51
52 50 49
42 40 39
42 39 38
42 38 37
43 42 37
6 18 45
9 8 6
6 45 44
44 9 6
48 44 45
48 47 44
12 11 10
65 12 10
65 10 62
65 68 12
65 69 68
67 66 65
67 65 64
62 70 65
65 66 69
63 62 61
63 61 60
71 60 61
61 72 71
71 64 60
71 67 64
71 73 67
71 74 73
16 14 13
16 15 14
26 31 30
30 27 26
30 29 28
30 28 27