VertexCount: 53
2.667000 11.506200 2.133600 1.000000 0.000000 -0.000000 0.000000 1.000000 0.000000 19.109375 2.250000 0 0 0 0 0.000000 0.000000 0.000000 0.000000
2.667000 11.506200 3.505200 1.000000 0.000000 -0.000000 0.000000 1.000000 0.000000 19.109375 4.500000 0 0 0 0 0.000000 0.000000 0.000000 0.000000
2.667000 11.582400 3.505200 1.000000 0.000000 -0.000000 0.000000 1.000000 0.000000 19.234375 4.500000 0 0 0 0 0.000000 0.000000 0.000000 0.000000
2.667000 11.582400 2.133600 1.000000 0.000000 -0.000000 0.000000 1.000000 0.000000 19.234375 2.250000 0 0 0 0 0.000000 0.000000 0.000000 0.000000
4.267200 10.210800 0.495300 0.000000 0.000000 -1.000000 1.000000 0.000025 0.000000 4.359375 -7.765625 0 0 0 0 0.000000 0.000000 0.000000 0.000000
4.191000 10.134600 0.495300 0.000000 0.000000 -1.000000 1.000000 0.000025 0.000000 4.296875 -7.703125 0 0 0 0 0.000000 0.000000 0.000000 0.000000
4.191000 10.096500 0.495300 0.000000 0.000000 -1.000000 1.000000 0.000025 0.000000 4.296875 -7.671875 0 0 0 0 0.000000 0.000000 0.000000 0.000000
4.191000 9.867900 0.495300 0.000000 0.000000 -1.000000 1.000000 -0.000006 0.000000 4.296875 -7.484375 0 0 0 0 0.000000 0.000000 0.000000 0.000000
4.191000 9.829800 0.495300 0.000000 0.000000 -1.000000 1.000000 -0.000025 0.000000 4.296875 -7.453125 0 0 0 0 0.000000 0.000000 0.000000 0.000000
4.267200 9.753600 0.495300 0.000000 0.000000 -1.000000 1.000000 0.000006 0.000000 4.359375 -7.390625 0 0 0 0 0.000000 0.000000 0.000000 0.000000
4.267200 9.753600 0.723900 0.000000 0.000000 1.000000 1.000000 0.000013 -0.000000 4.359375 -7.640625 0 0 0 0 0.000000 0.000000 0.000000 0.000000
4.191000 9.829800 0.723900 0.000000 0.000000 1.000000 1.000000 0.000013 -0.000000 4.296875 -7.703125 0 0 0 0 0.000000 0.000000 0.000000 0.000000
4.191000 9.867900 0.723900 0.000000 0.000000 1.000000 1.000000 0.000013 -0.000000 4.296875 -7.734375 0 0 0 0 0.000000 0.000000 0.000000 0.000000
4.191000 10.096500 0.723900 0.000000 0.000000 1.000000 1.000000 0.000006 -0.000000 4.296875 -7.921875 0 0 0 0 0.000000 0.000000 0.000000 0.000000
4.191000 10.134600 0.723900 0.000000 0.000000 1.000000 1.000000 -0.000088 -0.000000 4.296875 -7.953125 0 0 0 0 0.000000 0.000000 0.000000 0.000000
4.267200 10.210800 0.723900 0.000000 0.000000 1.000000 1.000000 0.000006 -0.000000 4.359375 -8.015625 0 0 0 0 0.000000 0.000000 0.000000 0.000000
4.191000 10.096500 0.495300 -1.000000 0.000000 -0.000000 0.000000 1.000000 0.000000 8.843750 0.687500 0 0 0 0 0.000000 0.000000 0.000000 0.000000
4.191000 10.134600 0.495300 -1.000000 0.000000 -0.000000 0.000000 1.000000 0.000000 8.875000 0.687500 0 0 0 0 0.000000 0.000000 0.000000 0.000000
4.191000 10.134600 0.723900 -1.000000 0.000000 -0.000000 0.000000 1.000000 0.000000 8.875000 0.875000 0 0 0 0 0.000000 0.000000 0.000000 0.000000
4.191000 10.096500 0.723900 -1.000000 0.000000 -0.000000 0.000000 1.000000 0.000000 8.843750 0.875000 0 0 0 0 0.000000 0.000000 0.000000 0.000000
4.191000 10.096500 0.685800 -1.000000 0.000000 -0.000000 0.000000 1.000000 0.000000 8.843750 0.843750 0 0 0 0 0.000000 0.000000 0.000000 0.000000
4.191000 10.096500 0.533400 -1.000000 0.000000 -0.000000 0.000000 0.000000 1.000000 8.843750 0.718750 0 0 0 0 0.000000 0.000000 0.000000 0.000000
4.191000 9.867900 0.495300 -1.000000 0.000003 -0.000000 0.000000 0.000000 -1.000000 8.656250 0.687500 0 0 0 0 0.000000 0.000000 0.000000 0.000000
4.191000 9.867900 0.533400 -1.000000 0.000005 -0.000000 0.000000 0.000000 -1.000000 8.656250 0.718750 0 0 0 0 0.000000 0.000000 0.000000 0.000000
4.191000 9.867900 0.685800 -1.000000 0.000005 -0.000000 0.000000 0.000000 -1.000000 8.656250 0.843750 0 0 0 0 0.000000 0.000000 0.000000 0.000000
4.191000 9.867900 0.723900 -1.000000 0.000003 -0.000000 0.000000 0.000000 -1.000000 8.656250 0.875000 0 0 0 0 0.000000 0.000000 0.000000 0.000000
4.191000 9.829800 0.723900 -1.000000 0.000007 -0.000000 0.000007 1.000000 0.000000 8.625000 0.875000 0 0 0 0 0.000000 0.000000 0.000000 0.000000
4.191000 9.829800 0.495300 -1.000000 0.000007 -0.000000 0.000007 1.000000 0.000000 8.625000 0.687500 0 0 0 0 0.000000 0.000000 0.000000 0.000000
4.191000 9.867900 0.685800 -1.000000 0.000005 -0.000000 0.000005 1.000000 0.000000 8.656250 0.843750 0 0 0 0 0.000000 0.000000 0.000000 0.000000
4.191000 9.867900 0.723900 -1.000000 0.000003 -0.000000 0.000003 1.000000 0.000000 8.656250 0.875000 0 0 0 0 0.000000 0.000000 0.000000 0.000000
4.191000 9.867900 0.533400 -1.000000 0.000005 -0.000000 0.000005 1.000000 0.000000 8.656250 0.718750 0 0 0 0 0.000000 0.000000 0.000000 0.000000
4.191000 9.867900 0.495300 -1.000000 0.000003 -0.000000 0.000003 1.000000 0.000000 8.656250 0.687500 0 0 0 0 0.000000 0.000000 0.000000 0.000000
4.191000 10.096500 0.533400 -1.000000 0.000000 -0.000000 0.000000 1.000000 0.000000 8.843750 0.718750 0 0 0 0 0.000000 0.000000 0.000000 0.000000
4.267200 10.210800 0.495300 -0.707109 0.707105 -0.000000 0.707105 0.707109 0.000000 9.328125 0.687500 0 0 0 0 0.000000 0.000000 0.000000 0.000000
4.267200 10.210800 0.723900 -0.707109 0.707105 -0.000000 0.707105 0.707109 0.000000 9.328125 0.875000 0 0 0 0 0.000000 0.000000 0.000000 0.000000
4.191000 10.134600 0.723900 -0.707109 0.707105 -0.000000 0.707105 0.707109 0.000000 9.265625 0.875000 0 0 0 0 0.000000 0.000000 0.000000 0.000000
4.191000 10.134600 0.495300 -0.707109 0.707105 -0.000000 0.707105 0.707109 0.000000 9.265625 0.687500 0 0 0 0 0.000000 0.000000 0.000000 0.000000
4.191000 9.829800 0.495300 -0.707104 -0.707109 -0.000000 -0.707109 0.707104 0.000000 7.625000 0.687500 0 0 0 0 0.000000 0.000000 0.000000 0.000000
4.191000 9.829800 0.723900 -0.707104 -0.707109 -0.000000 -0.707109 0.707104 0.000000 7.625000 0.875000 0 0 0 0 0.000000 0.000000 0.000000 0.000000
4.267200 9.753600 0.723900 -0.707104 -0.707109 -0.000000 -0.707109 0.707104 0.000000 7.562500 0.875000 0 0 0 0 0.000000 0.000000 0.000000 0.000000
4.267200 9.753600 0.495300 -0.707104 -0.707109 -0.000000 -0.707109 0.707104 0.000000 7.562500 0.687500 0 0 0 0 0.000000 0.000000 0.000000 0.000000
0.685800 11.582400 2.133600 -1.000000 0.000000 -0.000000 0.000000 1.000000 0.000000 19.234375 2.250000 0 0 0 0 0.000000 0.000000 0.000000 0.000000
0.685800 11.582400 3.505200 -1.000000 0.000000 -0.000000 0.000000 1.000000 0.000000 19.234375 4.500000 0 0 0 0 0.000000 0.000000 0.000000 0.000000
0.685800 11.506200 3.505200 -1.000000 0.000000 -0.000000 0.000000 1.000000 0.000000 19.109375 4.500000 0 0 0 0 0.000000 0.000000 0.000000 0.000000
0.685800 11.506200 2.133600 -1.000000 0.000000 -0.000000 0.000000 1.000000 0.000000 19.109375 2.250000 0 0 0 0 0.000000 0.000000 0.000000 0.000000
2.667000 11.506200 3.505200 0.000000 0.000000 1.000000 1.000000 0.000000 0.000000 4.609375 -20.125000 0 0 0 0 0.000000 0.000000 0.000000 0.000000
0.685800 11.506200 3.505200 0.000000 0.000000 1.000000 1.000000 0.000000 0.000000 1.359375 -20.125000 0 0 0 0 0.000000 0.000000 0.000000 0.000000
0.685800 11.582400 3.505200 0.000000 0.000000 1.000000 1.000000 0.000000 0.000000 1.359375 -20.250000 0 0 0 0 0.000000 0.000000 0.000000 0.000000
2.667000 11.582400 3.505200 0.000000 0.000000 1.000000 1.000000 0.000000 0.000000 4.609375 -20.250000 0 0 0 0 0.000000 0.000000 0.000000 0.000000
2.667000 11.582400 2.133600 0.000000 0.000000 -1.000000 1.000000 0.000000 0.000000 4.609375 -20.250000 0 0 0 0 0.000000 0.000000 0.000000 0.000000
0.685800 11.582400 2.133600 0.000000 0.000000 -1.000000 1.000000 0.000000 0.000000 1.359375 -20.250000 0 0 0 0 0.000000 0.000000 0.000000 0.000000
0.685800 11.506200 2.133600 0.000000 0.000000 -1.000000 1.000000 0.000000 0.000000 1.359375 -20.125000 0 0 0 0 0.000000 0.000000 0.000000 0.000000
2.667000 11.506200 2.133600 0.000000 0.000000 -1.000000 1.000000 0.000000 0.000000 4.609375 -20.125000 0 0 0 0 0.000000 0.000000 0.000000 0.000000
IndexCount: 96
3 1 0
3 2 1
4 9 8
4 8 7
4 7 6
6 5 4
10 15 14
10 14 13
10 13 12
12 11 10
16 21 20
20 17 16
32 16 31
20 19 18
20 18 17
29 19 20
29 20 28
32 31 30
22 27 26
22 26 25
25 23 22
25 24 23
36 34 33
36 35 34
40 38 37
40 39 38
44 42 41
44 43 42
48 46 45
48 47 46
52 50 49
52 51 50