VertexCount: 391
5.372099 -2.133601 7.315199 0.000000 0.000000 -1.000000 1.000000 -0.000000 0.000000 5.031250 0.750000 0 0 0 0 0.000000 0.000000 0.000000 0.000000
5.372099 -2.362201 7.315199 0.000000 0.000000 -1.000000 1.000000 -0.000000 0.000000 5.031250 0.843750 0 0 0 0 0.000000 0.000000 0.000000 0.000000
5.600699 -2.362201 7.315199 0.000000 0.000000 -1.000000 1.000000 -0.000000 0.000000 5.218750 0.843750 0 0 0 0 0.000000 0.000000 0.000000 0.000000
5.600699 -2.133601 7.315199 0.000000 0.000000 -1.000000 1.000000 -0.000000 0.000000 5.218750 0.750000 0 0 0 0 0.000000 0.000000 0.000000 0.000000
6.286500 -2.133600 7.315199 0.000000 0.000000 -1.000000 1.000000 -0.000000 0.000000 5.000000 0.750000 0 0 0 0 0.000000 0.000000 0.000000 0.000000
6.286500 -2.362200 7.315199 0.000000 0.000000 -1.000000 1.000000 -0.000000 0.000000 5.000000 0.843750 0 0 0 0 0.000000 0.000000 0.000000 0.000000
6.515100 -2.362200 7.315199 0.000000 0.000000 -1.000000 1.000000 -0.000000 0.000000 5.187500 0.843750 0 0 0 0 0.000000 0.000000 0.000000 0.000000
6.515100 -2.133600 7.315199 0.000000 0.000000 -1.000000 1.000000 -0.000000 0.000000 5.187500 0.750000 0 0 0 0 0.000000 0.000000 0.000000 0.000000
6.934200 -4.191000 7.924799 1.000000 0.000000 0.000002 -0.000002 0.000000 1.000000 7.390625 1.476562 0 0 0 0 0.000000 0.000000 0.000000 0.000000
6.934200 -2.133600 7.924799 1.000000 0.000000 0.000002 -0.000002 0.000000 1.000000 7.390625 0.632812 0 0 0 0 0.000000 0.000000 0.000000 0.000000
6.934200 -2.133600 7.543800 1.000000 0.000000 0.000002 -0.000002 -0.000000 1.000000 7.000000 0.632812 0 0 0 0 0.000000 0.000000 0.000000 0.000000
6.934200 -4.495800 7.543800 1.000000 0.000000 0.000002 -0.000002 0.000000 1.000000 7.000000 1.601562 0 0 0 0 0.000000 0.000000 0.000000 0.000000
14.325599 -4.191000 7.924800 -1.000000 -0.000000 -0.000000 -0.000000 0.000000 1.000000 7.390625 1.476562 0 0 0 0 0.000000 0.000000 0.000000 0.000000
14.325599 -4.495800 7.543800 -1.000000 -0.000000 -0.000000 -0.000000 0.000000 1.000000 7.000000 1.601562 0 0 0 0 0.000000 0.000000 0.000000 0.000000
14.325599 -2.133600 7.543800 -1.000000 -0.000000 -0.000000 -0.000000 -0.000000 1.000000 7.000000 0.632812 0 0 0 0 0.000000 0.000000 0.000000 0.000000
14.325599 -2.133600 7.924800 -1.000000 -0.000000 -0.000000 -0.000000 0.000000 1.000000 7.390625 0.632812 0 0 0 0 0.000000 0.000000 0.000000 0.000000
15.697198 -2.133600 7.543800 0.000000 0.000000 -1.000000 1.000000 0.000000 0.000000 13.156250 0.875000 0 0 0 0 0.000000 0.000000 0.000000 0.000000
14.325599 -2.133600 7.543800 0.000000 0.000000 -1.000000 1.000000 0.000000 0.000000 12.031250 0.875000 0 0 0 0 0.000000 0.000000 0.000000 0.000000
14.325599 -4.495800 7.543800 0.000000 0.000000 -1.000000 1.000000 0.000000 0.000000 12.031250 1.843750 0 0 0 0 0.000000 0.000000 0.000000 0.000000
14.325599 -4.572000 7.543800 0.000000 0.000000 -1.000000 1.000000 -0.000000 0.000000 12.031250 1.875000 0 0 0 0 0.000000 0.000000 0.000000 0.000000
15.697198 -4.572000 7.543800 0.000000 0.000000 -1.000000 1.000000 -0.000000 0.000000 13.156250 1.875000 0 0 0 0 0.000000 0.000000 0.000000 0.000000
6.248400 -2.133600 7.562850 0.000000 -1.000000 -0.000000 1.000000 0.000000 -0.000000 5.781250 -3.125000 0 0 0 0 0.000000 0.000000 0.000000 0.000000
6.248400 -2.133600 7.543800 0.000000 -1.000000 -0.000000 1.000000 0.000000 -0.000000 5.781250 -3.117188 0 0 0 0 0.000000 0.000000 0.000000 0.000000
5.638799 -2.133601 7.543800 0.000000 -1.000000 -0.000000 1.000000 0.000000 -0.000000 5.281250 -3.117188 0 0 0 0 0.000000 0.000000 0.000000 0.000000
5.638799 -2.133601 7.562850 0.000000 -1.000000 -0.000000 1.000000 0.000000 -0.000000 5.281250 -3.125000 0 0 0 0 0.000000 0.000000 0.000000 0.000000
5.372099 -2.133601 7.315199 0.000000 -1.000000 -0.000000 1.000000 0.000000 0.000000 5.804688 -2.757812 0 0 0 0 0.000000 0.000000 0.000000 0.000000
4.572000 -2.133601 7.315199 0.000000 -1.000000 -0.000000 1.000000 0.000000 -0.000001 4.984375 -2.757812 0 0 0 0 0.000000 0.000000 0.000000 0.000000
4.572000 -2.133601 7.543800 0.000000 -1.000000 -0.000000 1.000000 0.000000 0.000000 4.984375 -2.851562 0 0 0 0 0.000000 0.000000 0.000000 0.000000
5.219699 -2.133601 7.543800 0.000000 -1.000000 -0.000000 1.000000 0.000000 0.000000 5.648438 -2.851562 0 0 0 0 0.000000 0.000000 0.000000 0.000000
5.600699 -2.133601 7.315199 0.000000 -1.000000 -0.000000 1.000000 0.000000 0.000000 6.039062 -2.757812 0 0 0 0 0.000000 0.000000 0.000000 0.000000
5.600699 -2.133601 7.543800 0.000000 -1.000000 -0.000000 1.000000 0.000000 0.000000 6.039062 -2.851562 0 0 0 0 0.000000 0.000000 0.000000 0.000000
5.638799 -2.133601 7.543800 0.000000 -1.000000 -0.000000 1.000000 0.000000 -0.000000 6.078125 -2.851562 0 0 0 0 0.000000 0.000000 0.000000 0.000000
5.638799 -2.133601 7.315199 0.000000 -1.000000 -0.000000 1.000000 0.000000 0.000000 6.078125 -2.757812 0 0 0 0 0.000000 0.000000 0.000000 0.000000
6.553200 -3.962400 7.543800 0.000000 0.000000 -1.000000 1.000000 0.000000 0.000000 5.687500 1.625000 0 0 0 0 0.000000 0.000000 0.000000 0.000000
6.553199 -2.743201 7.543800 0.000000 0.000000 -1.000000 1.000000 -0.000000 0.000000 5.687500 1.125000 0 0 0 0 0.000000 0.000000 0.000000 0.000000
6.248400 -2.743201 7.543800 0.000000 0.000000 -1.000000 1.000000 -0.000000 0.000000 5.437500 1.125000 0 0 0 0 0.000000 0.000000 0.000000 0.000000
6.248400 -3.962400 7.543800 0.000000 0.000000 -1.000000 1.000000 -0.000000 0.000000 5.437500 1.625000 0 0 0 0 0.000000 0.000000 0.000000 0.000000
6.286500 -2.362200 7.543800 0.000000 0.000000 -1.000000 1.000000 -0.000000 0.000000 5.468750 0.968750 0 0 0 0 0.000000 0.000000 0.000000 0.000000
6.286500 -2.133600 7.543800 0.000000 0.000000 -1.000000 1.000000 -0.000000 0.000000 5.468750 0.875000 0 0 0 0 0.000000 0.000000 0.000000 0.000000
6.248400 -2.133600 7.543800 0.000000 0.000000 -1.000000 1.000000 -0.000000 0.000000 5.437500 0.875000 0 0 0 0 0.000000 0.000000 0.000000 0.000000
6.248400 -2.362200 7.543800 0.000000 0.000000 -1.000000 1.000000 -0.000000 0.000000 5.437500 0.968750 0 0 0 0 0.000000 0.000000 0.000000 0.000000
6.553200 -4.343400 7.543800 0.000000 0.000000 -1.000000 1.000000 -0.000003 0.000000 5.687500 1.781250 0 0 0 0 0.000000 0.000000 0.000000 0.000000
6.248400 -4.343400 7.543800 0.000000 0.000000 -1.000000 1.000000 -0.000000 0.000000 5.437500 1.781250 0 0 0 0 0.000000 0.000000 0.000000 0.000000
6.248400 -4.572001 7.543800 0.000000 0.000000 -1.000000 1.000000 -0.000000 0.000000 5.437500 1.875000 0 0 0 0 0.000000 0.000000 0.000000 0.000000
6.400800 -4.572001 7.543800 0.000000 0.000000 -1.000000 1.000000 -0.000000 0.000000 5.562500 1.875000 0 0 0 0 0.000000 0.000000 0.000000 0.000000
6.553200 -4.572001 7.543800 0.000000 0.000000 -1.000000 1.000000 -0.000005 0.000000 5.687500 1.875000 0 0 0 0 0.000000 0.000000 0.000000 0.000000
6.667499 -2.362200 7.543800 0.000000 0.000000 -1.000000 1.000000 -0.000000 0.000000 5.781250 0.968750 0 0 0 0 0.000000 0.000000 0.000000 0.000000
6.553199 -2.362200 7.543800 0.000000 0.000000 -1.000000 1.000000 -0.000000 0.000000 5.687500 0.968750 0 0 0 0 0.000000 0.000000 0.000000 0.000000
6.667500 -4.572001 7.543800 0.000000 0.000000 -1.000000 1.000000 -0.000000 0.000000 5.781250 1.875000 0 0 0 0 0.000000 0.000000 0.000000 0.000000
6.934200 -2.133600 7.543800 0.000000 0.000000 -1.000000 1.000000 -0.000000 0.000000 6.000000 0.875000 0 0 0 0 0.000000 0.000000 0.000000 0.000000
6.667499 -2.133600 7.543800 0.000000 0.000000 -1.000000 1.000000 -0.000000 0.000000 5.781250 0.875000 0 0 0 0 0.000000 0.000000 0.000000 0.000000
6.934200 -4.572001 7.543800 0.000000 0.000000 -1.000000 1.000000 -0.000000 0.000000 6.000000 1.875000 0 0 0 0 0.000000 0.000000 0.000000 0.000000
6.934200 -4.495800 7.543800 0.000000 0.000000 -1.000000 0.000000 -1.000000 -0.000000 6.000000 1.843750 0 0 0 0 0.000000 0.000000 0.000000 0.000000
6.248400 -4.572001 7.562850 -0.000000 1.000000 0.000000 1.000000 0.000000 0.000000 5.781250 -3.125000 0 0 0 0 0.000000 0.000000 0.000000 0.000000
5.638800 -4.572001 7.562850 -0.000000 1.000000 0.000000 1.000000 0.000000 0.000000 5.281250 -3.125000 0 0 0 0 0.000000 0.000000 0.000000 0.000000
5.638800 -4.572001 7.543800 -0.000000 1.000000 0.000000 1.000000 0.000000 0.000000 5.281250 -3.117188 0 0 0 0 0.000000 0.000000 0.000000 0.000000
6.248400 -4.572001 7.543800 -0.000000 1.000000 0.000000 1.000000 0.000000 0.000000 5.781250 -3.117188 0 0 0 0 0.000000 0.000000 0.000000 0.000000
6.248400 -4.572001 7.562850 -1.000000 -0.000000 -0.000008 -0.000008 -0.000000 1.000000 6.031250 0.976562 0 0 0 0 0.000000 0.000000 0.000000 0.000000
6.248400 -4.572001 7.543800 -1.000000 -0.000000 -0.000008 -0.000008 -0.000000 1.000000 6.015625 0.976562 0 0 0 0 0.000000 0.000000 0.000000 0.000000
6.248400 -4.343400 7.543800 -1.000000 -0.000000 -0.000008 -0.000005 -0.000000 1.000000 6.015625 0.882812 0 0 0 0 0.000000 0.000000 0.000000 0.000000
6.248400 -3.962400 7.543800 -1.000000 -0.000000 -0.000008 -0.000005 -0.000004 1.000000 6.015625 0.726562 0 0 0 0 0.000000 0.000000 0.000000 0.000000
6.248400 -2.743201 7.543800 -1.000000 -0.000000 -0.000008 -0.000005 -0.000011 1.000000 6.015625 0.226562 0 0 0 0 0.000000 0.000000 0.000000 0.000000
6.248400 -2.362200 7.543800 -1.000000 -0.000000 -0.000008 -0.000005 0.000034 1.000000 6.015625 0.070312 0 0 0 0 0.000000 0.000000 0.000000 0.000000
6.248400 -2.133600 7.543800 -1.000000 -0.000000 -0.000008 -0.000008 -0.000000 1.000000 6.015625 -0.023438 0 0 0 0 0.000000 0.000000 0.000000 0.000000
6.248400 -2.133600 7.562850 -1.000000 -0.000000 -0.000008 -0.000008 -0.000000 1.000000 6.031250 -0.023438 0 0 0 0 0.000000 0.000000 0.000000 0.000000
5.334000 -4.343400 7.543800 0.000000 -1.000000 -0.000000 1.000000 0.000000 0.000000 5.031250 -3.117188 0 0 0 0 0.000000 0.000000 0.000000 0.000000
5.638800 -4.343400 7.543800 0.000000 -1.000000 -0.000000 1.000000 0.000000 0.000000 5.281250 -3.117188 0 0 0 0 0.000000 0.000000 0.000000 0.000000
5.638800 -4.343400 7.505700 0.000000 -1.000000 -0.000000 1.000000 0.000000 0.000000 5.281250 -3.101562 0 0 0 0 0.000000 0.000000 0.000000 0.000000
5.334000 -4.343400 7.505700 0.000000 -1.000000 -0.000000 1.000000 0.000000 0.000000 5.031250 -3.101562 0 0 0 0 0.000000 0.000000 0.000000 0.000000
6.553200 -4.343400 7.505700 0.000000 -1.000000 -0.000000 1.000000 0.000000 0.000000 5.250000 -3.101562 0 0 0 0 0.000000 0.000000 0.000000 0.000000
6.248400 -4.343400 7.505700 0.000000 -1.000000 -0.000000 1.000000 0.000000 0.000000 5.000000 -3.101562 0 0 0 0 0.000000 0.000000 0.000000 0.000000
6.248400 -4.343400 7.543800 0.000000 -1.000000 -0.000000 1.000000 0.000000 0.000000 5.000000 -3.117188 0 0 0 0 0.000000 0.000000 0.000000 0.000000
6.553200 -4.343400 7.543800 0.000000 -1.000000 -0.000000 1.000000 0.000000 0.000000 5.250000 -3.117188 0 0 0 0 0.000000 0.000000 0.000000 0.000000
5.638800 -3.962400 7.505700 1.000000 0.000000 0.000000 -0.000000 -0.000000 1.000000 6.156250 1.625000 0 0 0 0 0.000000 0.000000 0.000000 0.000000
5.638800 -4.343400 7.505700 1.000000 0.000000 0.000000 -0.000000 -0.000000 1.000000 6.156250 1.781250 0 0 0 0 0.000000 0.000000 0.000000 0.000000
5.638800 -4.343400 7.543800 1.000000 0.000000 0.000000 -0.000000 -0.000000 1.000000 6.187500 1.781250 0 0 0 0 0.000000 0.000000 0.000000 0.000000
5.638800 -3.962400 7.543800 1.000000 0.000000 0.000000 -0.000000 -0.000000 1.000000 6.187500 1.625000 0 0 0 0 0.000000 0.000000 0.000000 0.000000
5.638799 -2.362201 7.505700 1.000000 0.000000 0.000000 -0.000000 -0.000000 1.000000 6.156250 0.968750 0 0 0 0 0.000000 0.000000 0.000000 0.000000
5.638799 -2.743201 7.505700 1.000000 0.000000 0.000000 -0.000000 -0.000000 1.000000 6.156250 1.125000 0 0 0 0 0.000000 0.000000 0.000000 0.000000
5.638799 -2.743201 7.543800 1.000000 0.000000 0.000000 -0.000000 -0.000000 1.000000 6.187500 1.125000 0 0 0 0 0.000000 0.000000 0.000000 0.000000
5.638799 -2.362201 7.543800 1.000000 0.000000 0.000000 -0.000000 -0.000000 1.000000 6.187500 0.968750 0 0 0 0 0.000000 0.000000 0.000000 0.000000
6.553199 -2.743201 7.505700 0.000000 -1.000000 -0.000000 1.000000 0.000000 0.000000 5.250000 -3.101562 0 0 0 0 0.000000 0.000000 0.000000 0.000000
6.248400 -2.743201 7.505700 0.000000 -1.000000 -0.000000 1.000000 0.000000 0.000000 5.000000 -3.101562 0 0 0 0 0.000000 0.000000 0.000000 0.000000
6.248400 -2.743201 7.543800 0.000000 -1.000000 -0.000000 1.000000 0.000000 0.000000 5.000000 -3.117188 0 0 0 0 0.000000 0.000000 0.000000 0.000000
6.553199 -2.743201 7.543800 0.000000 -1.000000 -0.000000 1.000000 0.000000 0.000000 5.250000 -3.117188 0 0 0 0 0.000000 0.000000 0.000000 0.000000
6.248400 -2.362200 7.543800 -1.000000 -0.000000 -0.000000 -0.000005 0.000034 1.000000 6.187500 0.968750 0 0 0 0 0.000000 0.000000 0.000000 0.000000
6.248400 -2.743201 7.543800 -1.000000 -0.000000 -0.000000 -0.000005 -0.000011 1.000000 6.187500 1.125000 0 0 0 0 0.000000 0.000000 0.000000 0.000000
6.248400 -2.743201 7.505700 -1.000000 -0.000000 -0.000000 -0.000000 -0.000000 1.000000 6.156250 1.125000 0 0 0 0 0.000000 0.000000 0.000000 0.000000
6.248400 -2.362200 7.505700 -1.000000 -0.000000 -0.000000 -0.000000 -0.000000 1.000000 6.156250 0.968750 0 0 0 0 0.000000 0.000000 0.000000 0.000000
6.642163 -2.362200 7.505700 0.000000 -1.000000 -0.000000 1.000000 0.000000 0.000000 5.291719 -3.101562 0 0 0 0 0.000000 0.000000 0.000000 0.000000
6.553199 -2.362200 7.505700 0.000000 -1.000000 -0.000000 1.000000 0.000000 0.000000 5.218750 -3.101562 0 0 0 0 0.000000 0.000000 0.000000 0.000000
6.553199 -2.362200 7.543800 0.000000 -1.000000 -0.000000 1.000000 0.000000 0.000000 5.218750 -3.117188 0 0 0 0 0.000000 0.000000 0.000000 0.000000
6.667499 -2.362200 7.543800 0.000000 -1.000000 -0.000000 1.000000 0.000000 0.000000 5.312500 -3.117188 0 0 0 0 0.000000 0.000000 0.000000 0.000000
6.515100 -2.362200 7.315199 0.000000 -1.000000 -0.000000 1.000000 0.000000 0.000000 5.187500 -3.023438 0 0 0 0 0.000000 0.000000 0.000000 0.000000
6.286500 -2.362200 7.315199 0.000000 -1.000000 -0.000000 1.000000 0.000000 0.000000 5.000000 -3.023438 0 0 0 0 0.000000 0.000000 0.000000 0.000000
6.286500 -2.362200 7.505700 0.000000 -1.000000 -0.000000 1.000000 0.000000 0.000000 5.000000 -3.101562 0 0 0 0 0.000000 0.000000 0.000000 0.000000
6.553199 -2.362200 7.505700 0.000000 -1.000000 -0.000000 -1.000000 -0.000000 -0.000000 5.218750 -3.101562 0 0 0 0 0.000000 0.000000 0.000000 0.000000
6.286500 -2.362200 7.543800 -0.000000 1.000000 0.000000 1.000000 0.000000 0.000000 5.031250 -3.117188 0 0 0 0 0.000000 0.000000 0.000000 0.000000
6.248400 -2.362200 7.543800 -0.000000 1.000000 0.000000 1.000000 0.000000 0.000000 5.000000 -3.117188 0 0 0 0 0.000000 0.000000 0.000000 0.000000
6.248400 -2.362200 7.505700 -0.000000 1.000000 0.000000 1.000000 0.000000 0.000000 5.000000 -3.101562 0 0 0 0 0.000000 0.000000 0.000000 0.000000
6.286500 -2.362200 7.505700 -0.000000 1.000000 0.000000 1.000000 0.000000 0.000000 5.031250 -3.101562 0 0 0 0 0.000000 0.000000 0.000000 0.000000
6.286500 -2.133600 7.543800 -1.000000 -0.000000 -0.000000 -0.000000 -0.000000 1.000000 6.234375 0.750000 0 0 0 0 0.000000 0.000000 0.000000 0.000000
6.286500 -2.362200 7.543800 -1.000000 -0.000000 -0.000000 -0.000000 -0.000000 1.000000 6.234375 0.843750 0 0 0 0 0.000000 0.000000 0.000000 0.000000
6.286500 -2.362200 7.505700 -1.000000 -0.000000 -0.000000 -0.000000 -0.000000 1.000000 6.203125 0.843750 0 0 0 0 0.000000 0.000000 0.000000 0.000000
6.286500 -2.362200 7.315199 -1.000000 -0.000000 -0.000000 -0.000000 -0.000000 1.000000 6.046875 0.843750 0 0 0 0 0.000000 0.000000 0.000000 0.000000
6.286500 -2.133600 7.315199 -1.000000 -0.000000 -0.000000 -0.000000 -0.000000 1.000000 6.046875 0.750000 0 0 0 0 0.000000 0.000000 0.000000 0.000000
6.515100 -2.133600 7.315199 0.832050 0.000000 -0.554700 0.554700 0.000000 0.832050 6.046875 0.750000 0 0 0 0 0.000000 0.000000 0.000000 0.000000
6.515100 -2.362200 7.315199 0.832050 0.000000 -0.554700 0.554700 0.000000 0.832050 6.046875 0.843750 0 0 0 0 0.000000 0.000000 0.000000 0.000000
6.667499 -2.362200 7.543800 0.832050 0.000000 -0.554700 0.554700 0.000000 0.832050 6.234375 0.843750 0 0 0 0 0.000000 0.000000 0.000000 0.000000
6.667499 -2.133600 7.543800 0.832050 0.000000 -0.554700 0.554700 0.000000 0.832050 6.234375 0.750000 0 0 0 0 0.000000 0.000000 0.000000 0.000000
6.553199 -2.362200 7.505700 1.000000 0.000000 0.000000 -0.000000 -0.000000 1.000000 6.203125 0.843750 0 0 0 0 0.000000 0.000000 0.000000 0.000000
6.553199 -2.743201 7.505700 1.000000 0.000000 0.000000 -0.000000 -0.000000 1.000000 6.203125 1.000000 0 0 0 0 0.000000 0.000000 0.000000 0.000000
6.553199 -2.743201 7.543800 1.000000 0.000000 0.000000 -0.000000 -0.000000 1.000000 6.234375 1.000000 0 0 0 0 0.000000 0.000000 0.000000 0.000000
6.553199 -2.362200 7.543800 1.000000 0.000000 0.000000 -0.000000 -0.000000 1.000000 6.234375 0.843750 0 0 0 0 0.000000 0.000000 0.000000 0.000000
6.248400 -2.362200 7.505700 0.000000 0.000000 -1.000000 1.000000 -0.000000 0.000000 5.000000 0.843750 0 0 0 0 0.000000 0.000000 0.000000 0.000000
6.248400 -2.743201 7.505700 0.000000 0.000000 -1.000000 1.000000 -0.000000 0.000000 5.000000 1.000000 0 0 0 0 0.000000 0.000000 0.000000 0.000000
6.553199 -2.743201 7.505700 0.000000 0.000000 -1.000000 1.000000 -0.000000 0.000000 5.250000 1.000000 0 0 0 0 0.000000 0.000000 0.000000 0.000000
6.553199 -2.362200 7.505700 0.000000 0.000000 -1.000000 1.000000 -0.000000 0.000000 5.250000 0.843750 0 0 0 0 0.000000 0.000000 0.000000 0.000000
6.286500 -2.362200 7.505700 0.000000 0.000000 -1.000000 1.000000 -0.000000 0.000000 5.031250 0.843750 0 0 0 0 0.000000 0.000000 0.000000 0.000000
6.553200 -3.962400 7.543800 -0.000000 1.000000 0.000000 1.000000 0.000000 0.000000 5.250000 -3.117188 0 0 0 0 0.000000 0.000000 0.000000 0.000000
6.248400 -3.962400 7.543800 -0.000000 1.000000 0.000000 1.000000 0.000000 0.000000 5.000000 -3.117188 0 0 0 0 0.000000 0.000000 0.000000 0.000000
6.248400 -3.962400 7.505700 -0.000000 1.000000 0.000000 1.000000 0.000000 0.000000 5.000000 -3.101562 0 0 0 0 0.000000 0.000000 0.000000 0.000000
6.553200 -3.962400 7.505700 -0.000000 1.000000 0.000000 1.000000 0.000000 0.000000 5.250000 -3.101562 0 0 0 0 0.000000 0.000000 0.000000 0.000000
6.248400 -3.962400 7.543800 -1.000000 -0.000000 -0.000000 -0.000005 -0.000004 1.000000 6.187500 1.625000 0 0 0 0 0.000000 0.000000 0.000000 0.000000
6.248400 -4.343400 7.543800 -1.000000 -0.000000 -0.000000 -0.000005 -0.000000 1.000000 6.187500 1.781250 0 0 0 0 0.000000 0.000000 0.000000 0.000000
6.248400 -4.343400 7.505700 -1.000000 -0.000000 -0.000000 -0.000000 -0.000000 1.000000 6.156250 1.781250 0 0 0 0 0.000000 0.000000 0.000000 0.000000
6.248400 -3.962400 7.505700 -1.000000 -0.000000 -0.000000 -0.000000 -0.000000 1.000000 6.156250 1.625000 0 0 0 0 0.000000 0.000000 0.000000 0.000000
6.553200 -3.962400 7.505700 1.000000 0.000000 0.000000 -0.000000 -0.000000 1.000000 6.203125 1.500000 0 0 0 0 0.000000 0.000000 0.000000 0.000000
6.553200 -4.343400 7.505700 1.000000 0.000000 0.000000 -0.000000 -0.000000 1.000000 6.203125 1.656250 0 0 0 0 0.000000 0.000000 0.000000 0.000000
6.553200 -4.343400 7.543800 1.000000 0.000000 0.000000 -0.000000 -0.000000 1.000000 6.234375 1.656250 0 0 0 0 0.000000 0.000000 0.000000 0.000000
6.553200 -3.962400 7.543800 1.000000 0.000000 0.000000 -0.000000 -0.000000 1.000000 6.234375 1.500000 0 0 0 0 0.000000 0.000000 0.000000 0.000000
6.248400 -3.962400 7.505700 0.000000 0.000000 -1.000000 1.000000 -0.000000 0.000000 5.000000 1.500000 0 0 0 0 0.000000 0.000000 0.000000 0.000000
6.248400 -4.343400 7.505700 0.000000 0.000000 -1.000000 1.000000 -0.000000 0.000000 5.000000 1.656250 0 0 0 0 0.000000 0.000000 0.000000 0.000000
6.553200 -4.343400 7.505700 0.000000 0.000000 -1.000000 1.000000 -0.000000 0.000000 5.250000 1.656250 0 0 0 0 0.000000 0.000000 0.000000 0.000000
6.553200 -3.962400 7.505700 0.000000 0.000000 -1.000000 1.000000 -0.000000 0.000000 5.250000 1.500000 0 0 0 0 0.000000 0.000000 0.000000 0.000000
5.334000 -2.743201 7.543800 0.000000 -1.000000 -0.000000 1.000000 0.000000 0.000000 5.031250 -3.117188 0 0 0 0 0.000000 0.000000 0.000000 0.000000
5.638799 -2.743201 7.543800 0.000000 -1.000000 -0.000000 1.000000 0.000000 0.000000 5.281250 -3.117188 0 0 0 0 0.000000 0.000000 0.000000 0.000000
5.638799 -2.743201 7.505700 0.000000 -1.000000 -0.000000 1.000000 0.000000 0.000000 5.281250 -3.101562 0 0 0 0 0.000000 0.000000 0.000000 0.000000
5.334000 -2.743201 7.505700 0.000000 -1.000000 -0.000000 1.000000 0.000000 0.000000 5.031250 -3.101562 0 0 0 0 0.000000 0.000000 0.000000 0.000000
5.600699 -2.362201 7.505700 -0.000000 1.000000 0.000000 1.000000 0.000000 0.000000 5.250000 -3.101562 0 0 0 0 0.000000 0.000000 0.000000 0.000000
5.638799 -2.362201 7.505700 -0.000000 1.000000 0.000000 1.000000 0.000000 0.000000 5.281250 -3.101562 0 0 0 0 0.000000 0.000000 0.000000 0.000000
5.638799 -2.362201 7.543800 -0.000000 1.000000 0.000000 1.000000 0.000000 0.000000 5.281250 -3.117188 0 0 0 0 0.000000 0.000000 0.000000 0.000000
5.600699 -2.362201 7.543800 -0.000000 1.000000 0.000000 1.000000 0.000000 0.000000 5.250000 -3.117188 0 0 0 0 0.000000 0.000000 0.000000 0.000000
5.600699 -2.362201 7.505700 0.000000 -1.000000 -0.000000 1.000000 0.000000 0.000000 5.218750 -3.101562 0 0 0 0 0.000000 0.000000 0.000000 0.000000
5.600699 -2.362201 7.315199 0.000000 -1.000000 -0.000000 1.000000 0.000000 0.000000 5.218750 -3.023438 0 0 0 0 0.000000 0.000000 0.000000 0.000000
5.372099 -2.362201 7.315199 0.000000 -1.000000 -0.000000 1.000000 0.000000 0.000000 5.031250 -3.023438 0 0 0 0 0.000000 0.000000 0.000000 0.000000
5.245035 -2.362201 7.505700 0.000000 -1.000000 -0.000000 1.000000 0.000000 0.000000 4.927031 -3.101562 0 0 0 0 0.000000 0.000000 0.000000 0.000000
5.334000 -2.362201 7.505700 0.000000 -1.000000 -0.000000 -1.000000 -0.000000 -0.000000 5.000000 -3.101562 0 0 0 0 0.000000 0.000000 0.000000 0.000000
5.334000 -2.362201 7.505700 0.000000 -1.000000 -0.000000 1.000000 0.000000 0.000000 5.000000 -3.101562 0 0 0 0 0.000000 0.000000 0.000000 0.000000
5.219699 -2.362201 7.543800 0.000000 -1.000000 -0.000000 1.000000 0.000000 0.000000 4.906250 -3.117188 0 0 0 0 0.000000 0.000000 0.000000 0.000000
5.334000 -2.362201 7.543800 0.000000 -1.000000 -0.000000 1.000000 0.000000 0.000000 5.000000 -3.117188 0 0 0 0 0.000000 0.000000 0.000000 0.000000
5.600699 -2.133601 7.315199 1.000000 0.000000 0.000000 -0.000000 -0.000000 1.000000 6.046875 0.750000 0 0 0 0 0.000000 0.000000 0.000000 0.000000
5.600699 -2.362201 7.315199 1.000000 0.000000 0.000000 -0.000000 -0.000000 1.000000 6.046875 0.843750 0 0 0 0 0.000000 0.000000 0.000000 0.000000
5.600699 -2.362201 7.505700 1.000000 0.000000 0.000000 -0.000000 -0.000000 1.000000 6.203125 0.843750 0 0 0 0 0.000000 0.000000 0.000000 0.000000
5.600699 -2.362201 7.543800 1.000000 0.000000 0.000000 -0.000000 -0.000000 1.000000 6.234375 0.843750 0 0 0 0 0.000000 0.000000 0.000000 0.000000
5.600699 -2.133601 7.543800 1.000000 0.000000 0.000000 -0.000000 -0.000000 1.000000 6.234375 0.750000 0 0 0 0 0.000000 0.000000 0.000000 0.000000
5.219699 -2.133601 7.543800 -0.832050 0.000000 -0.554700 -0.554700 0.000000 0.832050 6.234375 0.750000 0 0 0 0 0.000000 0.000000 0.000000 0.000000
5.219699 -2.362201 7.543800 -0.832050 0.000000 -0.554700 -0.554700 0.000000 0.832050 6.234375 0.843750 0 0 0 0 0.000000 0.000000 0.000000 0.000000
5.372099 -2.362201 7.315199 -0.832050 0.000000 -0.554700 -0.554700 0.000000 0.832050 6.046875 0.843750 0 0 0 0 0.000000 0.000000 0.000000 0.000000
5.372099 -2.133601 7.315199 -0.832050 0.000000 -0.554700 -0.554700 0.000000 0.832050 6.046875 0.750000 0 0 0 0 0.000000 0.000000 0.000000 0.000000
5.334000 -2.362201 7.543800 -1.000000 -0.000000 -0.000000 -0.000000 -0.000000 1.000000 6.234375 0.843750 0 0 0 0 0.000000 0.000000 0.000000 0.000000
5.334000 -2.743201 7.543800 -1.000000 -0.000000 -0.000000 -0.000000 -0.000000 1.000000 6.234375 1.000000 0 0 0 0 0.000000 0.000000 0.000000 0.000000
5.334000 -2.743201 7.505700 -1.000000 -0.000000 -0.000000 -0.000000 -0.000000 1.000000 6.203125 1.000000 0 0 0 0 0.000000 0.000000 0.000000 0.000000
5.334000 -2.362201 7.505700 -1.000000 -0.000000 -0.000000 -0.000000 -0.000000 1.000000 6.203125 0.843750 0 0 0 0 0.000000 0.000000 0.000000 0.000000
5.334000 -2.362201 7.505700 0.000000 -0.000000 -1.000000 1.000000 0.000000 0.000000 5.031250 0.843750 0 0 0 0 0.000000 0.000000 0.000000 0.000000
5.334000 -2.743201 7.505700 0.000000 -0.000000 -1.000000 1.000000 0.000000 0.000000 5.031250 1.000000 0 0 0 0 0.000000 0.000000 0.000000 0.000000
5.638799 -2.743201 7.505700 0.000000 -0.000000 -1.000000 1.000000 0.000000 0.000000 5.281250 1.000000 0 0 0 0 0.000000 0.000000 0.000000 0.000000
5.638799 -2.362201 7.505700 0.000000 -0.000000 -1.000000 1.000000 0.000000 0.000000 5.281250 0.843750 0 0 0 0 0.000000 0.000000 0.000000 0.000000
5.600699 -2.362201 7.505700 0.000000 -0.000000 -1.000000 1.000000 0.000000 0.000000 5.250000 0.843750 0 0 0 0 0.000000 0.000000 0.000000 0.000000
5.334000 -3.962400 7.505700 -0.000000 1.000000 0.000000 1.000000 0.000000 0.000000 5.031250 -3.101562 0 0 0 0 0.000000 0.000000 0.000000 0.000000
5.638800 -3.962400 7.505700 -0.000000 1.000000 0.000000 1.000000 0.000000 0.000000 5.281250 -3.101562 0 0 0 0 0.000000 0.000000 0.000000 0.000000
5.638800 -3.962400 7.543800 -0.000000 1.000000 0.000000 1.000000 0.000000 0.000000 5.281250 -3.117188 0 0 0 0 0.000000 0.000000 0.000000 0.000000
5.334000 -3.962400 7.543800 -0.000000 1.000000 0.000000 1.000000 0.000000 0.000000 5.031250 -3.117188 0 0 0 0 0.000000 0.000000 0.000000 0.000000
5.334000 -3.962400 7.543800 -1.000000 -0.000000 -0.000000 -0.000000 -0.000000 1.000000 6.234375 1.500000 0 0 0 0 0.000000 0.000000 0.000000 0.000000
5.334000 -4.343400 7.543800 -1.000000 -0.000000 -0.000000 -0.000000 -0.000000 1.000000 6.234375 1.656250 0 0 0 0 0.000000 0.000000 0.000000 0.000000
5.334000 -4.343400 7.505700 -1.000000 -0.000000 -0.000000 -0.000000 -0.000000 1.000000 6.203125 1.656250 0 0 0 0 0.000000 0.000000 0.000000 0.000000
5.334000 -3.962400 7.505700 -1.000000 -0.000000 -0.000000 -0.000000 -0.000000 1.000000 6.203125 1.500000 0 0 0 0 0.000000 0.000000 0.000000 0.000000
5.334000 -3.962400 7.505700 0.000000 0.000000 -1.000000 1.000000 -0.000000 0.000000 5.031250 1.500000 0 0 0 0 0.000000 0.000000 0.000000 0.000000
5.334000 -4.343400 7.505700 0.000000 0.000000 -1.000000 1.000000 -0.000000 0.000000 5.031250 1.656250 0 0 0 0 0.000000 0.000000 0.000000 0.000000
5.638800 -4.343400 7.505700 0.000000 0.000000 -1.000000 1.000000 -0.000000 0.000000 5.281250 1.656250 0 0 0 0 0.000000 0.000000 0.000000 0.000000
5.638800 -3.962400 7.505700 0.000000 0.000000 -1.000000 1.000000 -0.000000 0.000000 5.281250 1.500000 0 0 0 0 0.000000 0.000000 0.000000 0.000000
6.934200 -0.762001 6.934201 1.000000 0.000000 0.000000 -0.000000 -0.000000 1.000000 5.515625 0.070312 0 0 0 0 0.000000 0.000000 0.000000 0.000000
6.934200 -0.762000 5.105401 1.000000 0.000000 0.000000 -0.000000 -0.000000 1.000000 4.015625 0.070312 0 0 0 0 0.000000 0.000000 0.000000 0.000000
6.934200 -1.066800 5.105400 1.000000 0.000000 0.000000 -0.000000 -0.000000 1.000000 4.015625 0.195312 0 0 0 0 0.000000 0.000000 0.000000 0.000000
6.934200 -1.066800 6.934201 1.000000 0.000000 0.000000 -0.000000 -0.000000 1.000000 5.515625 0.195312 0 0 0 0 0.000000 0.000000 0.000000 0.000000
6.934200 -4.191000 4.114800 1.000000 0.000000 -0.000002 0.000002 -0.000000 1.000000 3.671875 1.718750 0 0 0 0 0.000000 0.000000 0.000000 0.000000
6.934200 -4.495800 4.495800 1.000000 0.000000 -0.000002 0.000002 -0.000000 1.000000 3.984375 1.843750 0 0 0 0 0.000000 0.000000 0.000000 0.000000
6.934200 -2.133600 4.495800 1.000000 0.000000 -0.000002 0.000002 -0.000000 1.000000 3.984375 0.875000 0 0 0 0 0.000000 0.000000 0.000000 0.000000
6.934200 -2.133600 4.114800 1.000000 0.000000 -0.000002 0.000002 -0.000000 1.000000 3.671875 0.875000 0 0 0 0 0.000000 0.000000 0.000000 0.000000
14.325601 -4.191000 4.114800 -1.000000 -0.000000 -0.000000 -0.000000 -0.000000 1.000000 3.671875 1.718750 0 0 0 0 0.000000 0.000000 0.000000 0.000000
14.325601 -2.133599 4.114801 -1.000000 -0.000000 -0.000000 -0.000000 -0.000000 1.000000 3.671875 0.875000 0 0 0 0 0.000000 0.000000 0.000000 0.000000
14.325601 -2.133600 4.495801 -1.000000 -0.000000 -0.000000 -0.000000 -0.000000 1.000000 3.984375 0.875000 0 0 0 0 0.000000 0.000000 0.000000 0.000000
14.325601 -4.495800 4.495800 -1.000000 -0.000000 -0.000000 -0.000000 -0.000000 1.000000 3.984375 1.843750 0 0 0 0 0.000000 0.000000 0.000000 0.000000
14.325601 -2.133600 4.495801 -0.000000 -0.000000 1.000000 1.000000 0.000000 0.000000 12.031250 0.875000 0 0 0 0 0.000000 0.000000 0.000000 0.000000
15.697200 -2.133599 4.495801 -0.000000 -0.000000 1.000000 1.000000 0.000000 0.000000 13.156250 0.875000 0 0 0 0 0.000000 0.000000 0.000000 0.000000
15.697200 -4.572000 4.495800 -0.000000 -0.000000 1.000000 1.000000 0.000000 0.000000 13.156250 1.875000 0 0 0 0 0.000000 0.000000 0.000000 0.000000
14.325601 -4.572000 4.495800 -0.000000 -0.000000 1.000000 1.000000 -0.000000 0.000000 12.031250 1.875000 0 0 0 0 0.000000 0.000000 0.000000 0.000000
14.325601 -4.495800 4.495800 -0.000000 -0.000000 1.000000 0.000000 -1.000000 -0.000000 12.031250 1.843750 0 0 0 0 0.000000 0.000000 0.000000 0.000000
5.638800 -3.962400 4.495800 1.000000 0.000000 0.000000 -0.000000 -0.000000 1.000000 3.687500 1.625000 0 0 0 0 0.000000 0.000000 0.000000 0.000000
5.638800 -4.343400 4.495800 1.000000 0.000000 0.000000 -0.000000 -0.000000 1.000000 3.687500 1.781250 0 0 0 0 0.000000 0.000000 0.000000 0.000000
5.638800 -4.343400 4.533900 1.000000 0.000000 0.000000 -0.000000 -0.000000 1.000000 3.718750 1.781250 0 0 0 0 0.000000 0.000000 0.000000 0.000000
5.638800 -3.962400 4.533900 1.000000 0.000000 0.000000 -0.000000 -0.000000 1.000000 3.718750 1.625000 0 0 0 0 0.000000 0.000000 0.000000 0.000000
5.638799 -2.362200 4.495800 1.000000 0.000000 0.000000 -0.000000 -0.000000 1.000000 3.687500 0.968750 0 0 0 0 0.000000 0.000000 0.000000 0.000000
5.638799 -2.743200 4.495800 1.000000 0.000000 0.000000 -0.000000 -0.000000 1.000000 3.687500 1.125000 0 0 0 0 0.000000 0.000000 0.000000 0.000000
5.638799 -2.743200 4.533900 1.000000 0.000000 0.000000 -0.000000 -0.000000 1.000000 3.718750 1.125000 0 0 0 0 0.000000 0.000000 0.000000 0.000000
5.638799 -2.362200 4.533900 1.000000 0.000000 0.000000 -0.000000 -0.000000 1.000000 3.718750 0.968750 0 0 0 0 0.000000 0.000000 0.000000 0.000000
6.667499 -2.133600 4.495800 -0.000000 -0.000000 1.000000 1.000000 -0.000000 0.000000 5.781250 0.875000 0 0 0 0 0.000000 0.000000 0.000000 0.000000
6.934200 -2.133600 4.495800 -0.000000 -0.000000 1.000000 1.000000 -0.000000 0.000000 6.000000 0.875000 0 0 0 0 0.000000 0.000000 0.000000 0.000000
6.934200 -4.495800 4.495800 -0.000000 -0.000000 1.000000 1.000000 -0.000001 0.000000 6.000000 1.843750 0 0 0 0 0.000000 0.000000 0.000000 0.000000
6.934200 -4.572000 4.495800 -0.000000 -0.000000 1.000000 1.000000 -0.000001 0.000000 6.000000 1.875000 0 0 0 0 0.000000 0.000000 0.000000 0.000000
6.667500 -4.572000 4.495800 -0.000000 -0.000000 1.000000 1.000000 -0.000000 0.000000 5.781250 1.875000 0 0 0 0 0.000000 0.000000 0.000000 0.000000
6.667500 -4.343400 4.495800 -0.000000 -0.000000 1.000000 1.000000 0.000001 0.000000 5.781250 1.781250 0 0 0 0 0.000000 0.000000 0.000000 0.000000
6.553200 -4.343400 4.495800 -0.000000 -0.000000 1.000000 0.000000 -1.000000 -0.000000 5.687500 1.781250 0 0 0 0 0.000000 0.000000 0.000000 0.000000
6.553200 -3.962400 4.495800 -0.000000 -0.000000 1.000000 0.000000 -1.000000 -0.000000 5.687500 1.625000 0 0 0 0 0.000000 0.000000 0.000000 0.000000
6.553199 -2.743200 4.495800 -0.000000 -0.000000 1.000000 0.000000 -1.000000 -0.000000 5.687500 1.125000 0 0 0 0 0.000000 0.000000 0.000000 0.000000
6.553199 -2.362200 4.495800 -0.000000 -0.000000 1.000000 0.000000 -1.000000 -0.000000 5.687500 0.968750 0 0 0 0 0.000000 0.000000 0.000000 0.000000
6.553199 -2.133600 4.495800 -0.000000 -0.000000 1.000000 0.000000 -1.000000 -0.000000 5.687500 0.875000 0 0 0 0 0.000000 0.000000 0.000000 0.000000
6.553199 -2.743200 4.495800 -0.000000 -0.000000 1.000000 1.000000 -0.000000 0.000000 5.687500 1.125000 0 0 0 0 0.000000 0.000000 0.000000 0.000000
6.553200 -3.962400 4.495800 -0.000000 -0.000000 1.000000 1.000000 -0.000000 0.000000 5.687500 1.625000 0 0 0 0 0.000000 0.000000 0.000000 0.000000
6.248400 -3.962400 4.495800 -0.000000 -0.000000 1.000000 1.000000 -0.000000 0.000000 5.437500 1.625000 0 0 0 0 0.000000 0.000000 0.000000 0.000000
6.248400 -2.743200 4.495800 -0.000000 -0.000000 1.000000 1.000000 -0.000000 0.000000 5.437500 1.125000 0 0 0 0 0.000000 0.000000 0.000000 0.000000
6.286500 -4.343400 4.495800 -0.000000 -0.000000 1.000000 1.000000 -0.000000 0.000000 5.468750 1.781250 0 0 0 0 0.000000 0.000000 0.000000 0.000000
6.286500 -4.572001 4.495800 -0.000000 -0.000000 1.000000 1.000000 -0.000000 0.000000 5.468750 1.875000 0 0 0 0 0.000000 0.000000 0.000000 0.000000
6.248400 -4.572001 4.495800 -0.000000 -0.000000 1.000000 1.000000 -0.000000 0.000000 5.437500 1.875000 0 0 0 0 0.000000 0.000000 0.000000 0.000000
6.248400 -4.343400 4.495800 -0.000000 -0.000000 1.000000 1.000000 -0.000000 0.000000 5.437500 1.781250 0 0 0 0 0.000000 0.000000 0.000000 0.000000
6.553199 -2.133600 4.495800 -0.000000 -0.000000 1.000000 1.000000 -0.000000 0.000000 5.687500 0.875000 0 0 0 0 0.000000 0.000000 0.000000 0.000000
6.553199 -2.362200 4.495800 -0.000000 -0.000000 1.000000 1.000000 -0.000000 0.000000 5.687500 0.968750 0 0 0 0 0.000000 0.000000 0.000000 0.000000
6.248400 -2.362200 4.495800 -0.000000 -0.000000 1.000000 1.000000 -0.000000 0.000000 5.437500 0.968750 0 0 0 0 0.000000 0.000000 0.000000 0.000000
6.248400 -2.133600 4.495800 -0.000000 -0.000000 1.000000 1.000000 -0.000000 0.000000 5.437500 0.875000 0 0 0 0 0.000000 0.000000 0.000000 0.000000
6.553199 -2.743200 4.495800 0.000000 -1.000000 -0.000000 1.000000 0.000000 0.000000 5.343750 -1.867188 0 0 0 0 0.000000 0.000000 0.000000 0.000000
6.248400 -2.743200 4.495800 0.000000 -1.000000 -0.000000 1.000000 0.000000 0.000000 5.093750 -1.867188 0 0 0 0 0.000000 0.000000 0.000000 0.000000
6.248400 -2.743200 4.533900 0.000000 -1.000000 -0.000000 1.000000 0.000000 0.000000 5.093750 -1.882812 0 0 0 0 0.000000 0.000000 0.000000 0.000000
6.553199 -2.743200 4.533900 0.000000 -1.000000 -0.000000 1.000000 0.000000 0.000000 5.343750 -1.882812 0 0 0 0 0.000000 0.000000 0.000000 0.000000
6.553199 -2.362200 4.533900 -0.000000 -0.000000 1.000000 1.000000 -0.000000 0.000000 5.343750 0.843750 0 0 0 0 0.000000 0.000000 0.000000 0.000000
6.553199 -2.743200 4.533900 -0.000000 -0.000000 1.000000 1.000000 -0.000000 0.000000 5.343750 1.000000 0 0 0 0 0.000000 0.000000 0.000000 0.000000
6.248400 -2.743200 4.533900 -0.000000 -0.000000 1.000000 1.000000 -0.000000 0.000000 5.093750 1.000000 0 0 0 0 0.000000 0.000000 0.000000 0.000000
6.248400 -2.362200 4.533900 -0.000000 -0.000000 1.000000 1.000000 -0.000000 0.000000 5.093750 0.843750 0 0 0 0 0.000000 0.000000 0.000000 0.000000
6.248400 -2.362200 4.533900 -1.000000 -0.000000 -0.000000 -0.000000 -0.000000 1.000000 3.718750 0.968750 0 0 0 0 0.000000 0.000000 0.000000 0.000000
6.248400 -2.743200 4.533900 -1.000000 -0.000000 -0.000000 -0.000000 -0.000000 1.000000 3.718750 1.125000 0 0 0 0 0.000000 0.000000 0.000000 0.000000
6.248400 -2.743200 4.495800 -1.000000 -0.000000 -0.000000 -0.000000 -0.000000 1.000000 3.687500 1.125000 0 0 0 0 0.000000 0.000000 0.000000 0.000000
6.248400 -2.362200 4.495800 -1.000000 -0.000000 -0.000000 -0.000000 -0.000000 1.000000 3.687500 0.968750 0 0 0 0 0.000000 0.000000 0.000000 0.000000
6.553199 -2.362200 4.495800 1.000000 0.000000 0.000000 -0.000000 -0.000000 1.000000 3.734375 0.843750 0 0 0 0 0.000000 0.000000 0.000000 0.000000
6.553199 -2.743200 4.495800 1.000000 0.000000 0.000000 -0.000000 -0.000000 1.000000 3.734375 1.000000 0 0 0 0 0.000000 0.000000 0.000000 0.000000
6.553199 -2.743200 4.533900 1.000000 0.000000 0.000000 -0.000000 -0.000000 1.000000 3.765625 1.000000 0 0 0 0 0.000000 0.000000 0.000000 0.000000
6.553199 -2.362200 4.533900 1.000000 0.000000 0.000000 -0.000000 -0.000000 1.000000 3.765625 0.843750 0 0 0 0 0.000000 0.000000 0.000000 0.000000
6.553199 -2.362200 4.533900 -0.000000 1.000000 0.000000 1.000000 0.000000 0.000000 5.343750 -1.882812 0 0 0 0 0.000000 0.000000 0.000000 0.000000
6.248400 -2.362200 4.533900 -0.000000 1.000000 0.000000 1.000000 0.000000 0.000000 5.093750 -1.882812 0 0 0 0 0.000000 0.000000 0.000000 0.000000
6.248400 -2.362200 4.495800 -0.000000 1.000000 0.000000 1.000000 0.000000 0.000000 5.093750 -1.867188 0 0 0 0 0.000000 0.000000 0.000000 0.000000
6.553199 -2.362200 4.495800 -0.000000 1.000000 0.000000 1.000000 0.000000 0.000000 5.343750 -1.867188 0 0 0 0 0.000000 0.000000 0.000000 0.000000
6.642164 -4.343400 4.533900 -0.000000 1.000000 0.000000 1.000000 0.000000 0.000000 5.291719 -1.882812 0 0 0 0 0.000000 0.000000 0.000000 0.000000
6.553200 -4.343400 4.533900 -0.000000 1.000000 0.000000 1.000000 0.000000 0.000000 5.218750 -1.882812 0 0 0 0 0.000000 0.000000 0.000000 0.000000
6.553200 -4.343400 4.495800 -0.000000 1.000000 0.000000 1.000000 0.000000 -0.000000 5.218750 -1.867188 0 0 0 0 0.000000 0.000000 0.000000 0.000000
6.667500 -4.343400 4.495800 -0.000000 1.000000 0.000000 1.000000 0.000000 0.000000 5.312500 -1.867188 0 0 0 0 0.000000 0.000000 0.000000 0.000000
6.515100 -4.343400 4.724400 -0.000000 1.000000 0.000000 1.000000 0.000000 0.000000 5.187500 -1.960938 0 0 0 0 0.000000 0.000000 0.000000 0.000000
6.286500 -4.343400 4.724400 -0.000000 1.000000 0.000000 1.000000 0.000000 0.000000 5.000000 -1.960938 0 0 0 0 0.000000 0.000000 0.000000 0.000000
6.286500 -4.343400 4.533900 -0.000000 1.000000 0.000000 1.000000 0.000000 0.000000 5.000000 -1.882812 0 0 0 0 0.000000 0.000000 0.000000 0.000000
6.553200 -4.343400 4.533900 -0.000000 1.000000 0.000000 -1.000000 -0.000000 -0.000000 5.218750 -1.882812 0 0 0 0 0.000000 0.000000 0.000000 0.000000
6.286500 -4.343400 4.495800 0.000000 -1.000000 -0.000000 1.000000 0.000000 0.000000 5.031250 -1.867188 0 0 0 0 0.000000 0.000000 0.000000 0.000000
6.248400 -4.343400 4.495800 0.000000 -1.000000 -0.000000 1.000000 0.000000 0.000000 5.000000 -1.867188 0 0 0 0 0.000000 0.000000 0.000000 0.000000
6.248400 -4.343400 4.533900 0.000000 -1.000000 -0.000000 1.000000 0.000000 0.000000 5.000000 -1.882812 0 0 0 0 0.000000 0.000000 0.000000 0.000000
6.286500 -4.343400 4.533900 0.000000 -1.000000 -0.000000 1.000000 0.000000 0.000000 5.031250 -1.882812 0 0 0 0 0.000000 0.000000 0.000000 0.000000
6.553200 -3.962400 4.533900 -0.000000 -0.000001 1.000000 1.000000 -0.000000 0.000000 5.250000 1.500000 0 0 0 0 0.000000 0.000000 0.000000 0.000000
6.553200 -4.343400 4.533900 -0.000000 -0.000001 1.000000 1.000000 -0.000000 0.000000 5.250000 1.656250 0 0 0 0 0.000000 0.000000 0.000000 0.000000
6.286500 -4.343400 4.533900 -0.000000 -0.000001 1.000000 1.000000 -0.000000 0.000000 5.031250 1.656250 0 0 0 0 0.000000 0.000000 0.000000 0.000000
6.248400 -4.343400 4.533900 -0.000000 -0.000001 1.000000 1.000000 -0.000000 0.000000 5.000000 1.656250 0 0 0 0 0.000000 0.000000 0.000000 0.000000
6.248400 -3.962400 4.533900 -0.000000 -0.000001 1.000000 1.000000 -0.000000 0.000000 5.000000 1.500000 0 0 0 0 0.000000 0.000000 0.000000 0.000000
6.553200 -3.962400 4.533900 -0.000000 1.000000 0.000000 1.000000 0.000000 0.000000 5.250000 -1.882812 0 0 0 0 0.000000 0.000000 0.000000 0.000000
6.248400 -3.962400 4.533900 -0.000000 1.000000 0.000000 1.000000 0.000000 0.000000 5.000000 -1.882812 0 0 0 0 0.000000 0.000000 0.000000 0.000000
6.248400 -3.962400 4.495800 -0.000000 1.000000 0.000000 1.000000 0.000000 0.000000 5.000000 -1.867188 0 0 0 0 0.000000 0.000000 0.000000 0.000000
6.553200 -3.962400 4.495800 -0.000000 1.000000 0.000000 1.000000 0.000000 0.000000 5.250000 -1.867188 0 0 0 0 0.000000 0.000000 0.000000 0.000000
6.248400 -3.962400 4.533900 -1.000000 -0.000000 -0.000000 -0.000000 -0.000000 1.000000 3.718750 1.625000 0 0 0 0 0.000000 0.000000 0.000000 0.000000
6.248400 -4.343400 4.533900 -1.000000 -0.000000 -0.000000 -0.000000 -0.000000 1.000000 3.718750 1.781250 0 0 0 0 0.000000 0.000000 0.000000 0.000000
6.248400 -4.343400 4.495800 -1.000000 -0.000000 -0.000000 -0.000000 -0.000000 1.000000 3.687500 1.781250 0 0 0 0 0.000000 0.000000 0.000000 0.000000
6.248400 -3.962400 4.495800 -1.000000 -0.000000 -0.000000 -0.000000 -0.000000 1.000000 3.687500 1.625000 0 0 0 0 0.000000 0.000000 0.000000 0.000000
6.553200 -3.962400 4.495800 1.000000 0.000000 0.000000 -0.000000 -0.000000 1.000000 3.734375 1.500000 0 0 0 0 0.000000 0.000000 0.000000 0.000000
6.553200 -4.343400 4.495800 1.000000 0.000000 0.000000 -0.000000 -0.000000 1.000000 3.734375 1.656250 0 0 0 0 0.000000 0.000000 0.000000 0.000000
6.553200 -4.343400 4.533900 1.000000 0.000000 0.000000 -0.000000 -0.000000 1.000000 3.765625 1.656250 0 0 0 0 0.000000 0.000000 0.000000 0.000000
6.553200 -3.962400 4.533900 1.000000 0.000000 0.000000 -0.000000 -0.000000 1.000000 3.765625 1.500000 0 0 0 0 0.000000 0.000000 0.000000 0.000000
6.515100 -4.343400 4.724400 -0.000000 -0.000001 1.000000 1.000000 -0.000000 0.000000 5.187500 1.656250 0 0 0 0 0.000000 0.000000 0.000000 0.000000
6.515100 -4.572001 4.724400 -0.000000 -0.000001 1.000000 1.000000 -0.000000 0.000000 5.187500 1.750000 0 0 0 0 0.000000 0.000000 0.000000 0.000000
6.400800 -4.572001 4.724400 -0.000000 -0.000001 1.000000 1.000000 -0.000000 0.000000 5.093750 1.750000 0 0 0 0 0.000000 0.000000 0.000000 0.000000
6.286500 -4.572001 4.724400 -0.000000 -0.000001 1.000000 1.000000 -0.000000 0.000000 5.000000 1.750000 0 0 0 0 0.000000 0.000000 0.000000 0.000000
6.286500 -4.343400 4.724400 -0.000000 -0.000001 1.000000 1.000000 -0.000000 0.000000 5.000000 1.656250 0 0 0 0 0.000000 0.000000 0.000000 0.000000
6.286500 -4.343400 4.724400 -1.000000 -0.000000 -0.000000 -0.000000 -0.000000 1.000000 3.921875 1.656250 0 0 0 0 0.000000 0.000000 0.000000 0.000000
6.286500 -4.572001 4.724400 -1.000000 -0.000000 -0.000000 -0.000000 -0.000000 1.000000 3.921875 1.750000 0 0 0 0 0.000000 0.000000 0.000000 0.000000
6.286500 -4.572001 4.495800 -1.000000 -0.000000 -0.000000 -0.000000 -0.000000 1.000000 3.734375 1.750000 0 0 0 0 0.000000 0.000000 0.000000 0.000000
6.286500 -4.343400 4.495800 -1.000000 -0.000000 -0.000000 -0.000000 -0.000000 1.000000 3.734375 1.656250 0 0 0 0 0.000000 0.000000 0.000000 0.000000
6.286500 -4.343400 4.533900 -1.000000 -0.000000 -0.000000 0.000000 0.000000 -1.000000 3.765625 1.656250 0 0 0 0 0.000000 0.000000 0.000000 0.000000
6.667500 -4.343400 4.495800 0.832050 -0.000000 0.554700 -0.554700 -0.000001 0.832050 3.734375 1.656250 0 0 0 0 0.000000 0.000000 0.000000 0.000000
6.667500 -4.572000 4.495800 0.832050 -0.000000 0.554700 -0.554700 -0.000001 0.832050 3.734375 1.750000 0 0 0 0 0.000000 0.000000 0.000000 0.000000
6.515100 -4.572001 4.724400 0.832050 -0.000000 0.554700 -0.554700 -0.000001 0.832050 3.921875 1.750000 0 0 0 0 0.000000 0.000000 0.000000 0.000000
6.515100 -4.343400 4.724400 0.832050 -0.000000 0.554700 -0.554700 -0.000001 0.832050 3.921875 1.656250 0 0 0 0 0.000000 0.000000 0.000000 0.000000
4.572000 -2.133600 4.495800 0.000000 -1.000000 -0.000000 1.000000 0.000000 0.000000 4.984375 -1.601562 0 0 0 0 0.000000 0.000000 0.000000 0.000000
4.572000 -2.133600 5.181600 0.000000 -1.000000 -0.000000 1.000000 0.000000 0.000000 4.984375 -1.882812 0 0 0 0 0.000000 0.000000 0.000000 0.000000
4.572000 -2.133600 5.486400 0.000000 -1.000000 -0.000000 1.000000 0.000000 -0.000000 4.984375 -2.007812 0 0 0 0 0.000000 0.000000 0.000000 0.000000
4.572000 -2.133600 6.553200 0.000000 -1.000000 -0.000000 1.000000 0.000000 0.000000 4.984375 -2.445312 0 0 0 0 0.000000 0.000000 0.000000 0.000000
4.572000 -2.133601 6.858000 0.000000 -1.000000 -0.000000 1.000000 0.000000 0.000003 4.984375 -2.570312 0 0 0 0 0.000000 0.000000 0.000000 0.000000
5.638799 -2.133600 4.495800 0.000000 -1.000000 -0.000000 1.000000 0.000000 0.000000 6.078125 -1.601562 0 0 0 0 0.000000 0.000000 0.000000 0.000000
5.334000 -2.133600 4.495800 0.000000 -1.000000 -0.000000 1.000000 0.000000 0.000000 5.765625 -1.601562 0 0 0 0 0.000000 0.000000 0.000000 0.000000
5.219699 -2.133600 4.495800 0.000000 -1.000000 -0.000000 1.000000 0.000000 0.000000 5.648438 -1.601562 0 0 0 0 0.000000 0.000000 0.000000 0.000000
5.600700 -4.343400 4.724400 -0.000000 -0.000001 1.000000 1.000000 -0.000000 0.000000 5.218750 1.656250 0 0 0 0 0.000000 0.000000 0.000000 0.000000
5.600700 -4.572001 4.724400 -0.000000 -0.000001 1.000000 1.000000 -0.000000 0.000000 5.218750 1.750000 0 0 0 0 0.000000 0.000000 0.000000 0.000000
5.486400 -4.572001 4.724400 -0.000000 -0.000001 1.000000 1.000000 -0.000000 0.000000 5.125000 1.750000 0 0 0 0 0.000000 0.000000 0.000000 0.000000
5.372099 -4.572001 4.724400 -0.000000 -0.000001 1.000000 1.000000 -0.000000 0.000000 5.031250 1.750000 0 0 0 0 0.000000 0.000000 0.000000 0.000000
5.372099 -4.343400 4.724400 -0.000000 -0.000001 1.000000 1.000000 -0.000000 0.000000 5.031250 1.656250 0 0 0 0 0.000000 0.000000 0.000000 0.000000
5.334000 -3.962400 4.495800 -0.000000 1.000000 0.000000 1.000000 0.000000 0.000000 5.031250 -1.867188 0 0 0 0 0.000000 0.000000 0.000000 0.000000
5.638800 -3.962400 4.495800 -0.000000 1.000000 0.000000 1.000000 0.000000 0.000000 5.281250 -1.867188 0 0 0 0 0.000000 0.000000 0.000000 0.000000
5.638800 -3.962400 4.533900 -0.000000 1.000000 0.000000 1.000000 0.000000 0.000000 5.281250 -1.882812 0 0 0 0 0.000000 0.000000 0.000000 0.000000
5.334000 -3.962400 4.533900 -0.000000 1.000000 0.000000 1.000000 0.000000 0.000000 5.031250 -1.882812 0 0 0 0 0.000000 0.000000 0.000000 0.000000
5.334000 -2.743200 4.533900 0.000000 -1.000000 -0.000000 1.000000 0.000000 0.000000 5.031250 -1.882812 0 0 0 0 0.000000 0.000000 0.000000 0.000000
5.638799 -2.743200 4.533900 0.000000 -1.000000 -0.000000 1.000000 0.000000 0.000000 5.281250 -1.882812 0 0 0 0 0.000000 0.000000 0.000000 0.000000
5.638799 -2.743200 4.495800 0.000000 -1.000000 -0.000000 1.000000 0.000000 0.000000 5.281250 -1.867188 0 0 0 0 0.000000 0.000000 0.000000 0.000000
5.334000 -2.743200 4.495800 0.000000 -1.000000 -0.000000 1.000000 0.000000 0.000000 5.031250 -1.867188 0 0 0 0 0.000000 0.000000 0.000000 0.000000
5.334000 -2.362200 4.533900 -1.000000 -0.000000 -0.000000 -0.000000 -0.000000 1.000000 3.765625 0.843750 0 0 0 0 0.000000 0.000000 0.000000 0.000000
5.334000 -2.743200 4.533900 -1.000000 -0.000000 -0.000000 -0.000000 -0.000000 1.000000 3.765625 1.000000 0 0 0 0 0.000000 0.000000 0.000000 0.000000
5.334000 -2.743200 4.495800 -1.000000 -0.000000 -0.000000 -0.000000 -0.000000 1.000000 3.734375 1.000000 0 0 0 0 0.000000 0.000000 0.000000 0.000000
5.334000 -2.362200 4.495800 -1.000000 -0.000000 -0.000000 -0.000000 -0.000000 1.000000 3.734375 0.843750 0 0 0 0 0.000000 0.000000 0.000000 0.000000
5.334000 -2.362200 4.495800 -0.000000 1.000000 0.000000 1.000000 0.000000 0.000000 5.031250 -1.867188 0 0 0 0 0.000000 0.000000 0.000000 0.000000
5.638799 -2.362200 4.495800 -0.000000 1.000000 0.000000 1.000000 0.000000 0.000000 5.281250 -1.867188 0 0 0 0 0.000000 0.000000 0.000000 0.000000
5.638799 -2.362200 4.533900 -0.000000 1.000000 0.000000 1.000000 0.000000 0.000000 5.281250 -1.882812 0 0 0 0 0.000000 0.000000 0.000000 0.000000
5.334000 -2.362200 4.533900 -0.000000 1.000000 0.000000 1.000000 0.000000 0.000000 5.031250 -1.882812 0 0 0 0 0.000000 0.000000 0.000000 0.000000
5.638799 -2.362200 4.533900 -0.000000 -0.000000 1.000000 1.000000 -0.000000 0.000000 5.281250 0.843750 0 0 0 0 0.000000 0.000000 0.000000 0.000000
5.638799 -2.743200 4.533900 -0.000000 -0.000000 1.000000 1.000000 -0.000000 0.000000 5.281250 1.000000 0 0 0 0 0.000000 0.000000 0.000000 0.000000
5.334000 -2.743200 4.533900 -0.000000 -0.000000 1.000000 1.000000 -0.000000 0.000000 5.031250 1.000000 0 0 0 0 0.000000 0.000000 0.000000 0.000000
5.334000 -2.362200 4.533900 -0.000000 -0.000000 1.000000 1.000000 -0.000000 0.000000 5.031250 0.843750 0 0 0 0 0.000000 0.000000 0.000000 0.000000
5.600700 -4.343400 4.533900 0.000000 -1.000000 -0.000000 1.000000 0.000000 0.000000 5.250000 -1.882812 0 0 0 0 0.000000 0.000000 0.000000 0.000000
5.638800 -4.343400 4.533900 0.000000 -1.000000 -0.000000 1.000000 0.000000 0.000000 5.281250 -1.882812 0 0 0 0 0.000000 0.000000 0.000000 0.000000
5.638800 -4.343400 4.495800 0.000000 -1.000000 -0.000000 1.000000 0.000000 0.000000 5.281250 -1.867188 0 0 0 0 0.000000 0.000000 0.000000 0.000000
5.600700 -4.343400 4.495800 0.000000 -1.000000 -0.000000 1.000000 0.000000 0.000000 5.250000 -1.867188 0 0 0 0 0.000000 0.000000 0.000000 0.000000
5.600700 -4.343400 4.533900 -0.000000 1.000000 0.000000 1.000000 0.000000 0.000000 5.218750 -1.882812 0 0 0 0 0.000000 0.000000 0.000000 0.000000
5.600700 -4.343400 4.724400 -0.000000 1.000000 0.000000 1.000000 0.000000 0.000000 5.218750 -1.960938 0 0 0 0 0.000000 0.000000 0.000000 0.000000
5.372099 -4.343400 4.724400 -0.000000 1.000000 0.000000 1.000000 0.000000 0.000000 5.031250 -1.960938 0 0 0 0 0.000000 0.000000 0.000000 0.000000
5.245036 -4.343400 4.533900 -0.000000 1.000000 0.000000 1.000000 0.000000 0.000000 4.927031 -1.882812 0 0 0 0 0.000000 0.000000 0.000000 0.000000
5.334000 -4.343400 4.533900 -0.000000 1.000000 0.000000 -1.000000 -0.000000 -0.000000 5.000000 -1.882812 0 0 0 0 0.000000 0.000000 0.000000 0.000000
5.334000 -4.343400 4.533900 -0.000000 1.000000 0.000000 1.000000 0.000000 0.000000 5.000000 -1.882812 0 0 0 0 0.000000 0.000000 0.000000 0.000000
5.219699 -4.343400 4.495800 -0.000000 1.000000 0.000000 1.000000 0.000000 0.000003 4.906250 -1.867188 0 0 0 0 0.000000 0.000000 0.000000 0.000000
5.334000 -4.343400 4.495800 -0.000000 1.000000 0.000000 1.000000 0.000000 0.000000 5.000000 -1.867188 0 0 0 0 0.000000 0.000000 0.000000 0.000000
5.334000 -3.962400 4.533900 -1.000000 -0.000000 -0.000000 -0.000000 -0.000000 1.000000 3.765625 1.500000 0 0 0 0 0.000000 0.000000 0.000000 0.000000
5.334000 -4.343400 4.533900 -1.000000 -0.000000 -0.000000 -0.000000 -0.000000 1.000000 3.765625 1.656250 0 0 0 0 0.000000 0.000000 0.000000 0.000000
5.334000 -4.343400 4.495800 -1.000000 -0.000000 -0.000000 -0.000000 -0.000000 1.000000 3.734375 1.656250 0 0 0 0 0.000000 0.000000 0.000000 0.000000
5.334000 -3.962400 4.495800 -1.000000 -0.000000 -0.000000 -0.000000 -0.000000 1.000000 3.734375 1.500000 0 0 0 0 0.000000 0.000000 0.000000 0.000000
5.638800 -3.962400 4.533900 -0.000000 -0.000000 1.000000 1.000000 -0.000000 0.000000 5.281250 1.500000 0 0 0 0 0.000000 0.000000 0.000000 0.000000
5.638800 -4.343400 4.533900 -0.000000 -0.000000 1.000000 1.000000 -0.000000 0.000000 5.281250 1.656250 0 0 0 0 0.000000 0.000000 0.000000 0.000000
5.600700 -4.343400 4.533900 -0.000000 -0.000000 1.000000 1.000000 -0.000000 0.000000 5.250000 1.656250 0 0 0 0 0.000000 0.000000 0.000000 0.000000
5.334000 -4.343400 4.533900 -0.000000 -0.000000 1.000000 1.000000 -0.000000 0.000000 5.031250 1.656250 0 0 0 0 0.000000 0.000000 0.000000 0.000000
5.334000 -3.962400 4.533900 -0.000000 -0.000000 1.000000 1.000000 -0.000000 0.000000 5.031250 1.500000 0 0 0 0 0.000000 0.000000 0.000000 0.000000
5.600700 -4.343400 4.495800 1.000000 0.000000 0.000000 -0.000000 -0.000000 1.000000 3.734375 1.656250 0 0 0 0 0.000000 0.000000 0.000000 0.000000
5.600700 -4.572001 4.495800 1.000000 0.000000 0.000000 -0.000000 -0.000000 1.000000 3.734375 1.750000 0 0 0 0 0.000000 0.000000 0.000000 0.000000
5.600700 -4.572001 4.724400 1.000000 0.000000 0.000000 -0.000000 -0.000000 1.000000 3.921875 1.750000 0 0 0 0 0.000000 0.000000 0.000000 0.000000
5.600700 -4.343400 4.724400 1.000000 0.000000 0.000000 -0.000000 -0.000000 1.000000 3.921875 1.656250 0 0 0 0 0.000000 0.000000 0.000000 0.000000
5.600700 -4.343400 4.533900 1.000000 0.000000 0.000000 -0.000000 -0.000000 1.000000 3.765625 1.656250 0 0 0 0 0.000000 0.000000 0.000000 0.000000
5.372099 -4.343400 4.724400 -0.832050 -0.000000 0.554700 0.554700 0.000000 0.832050 3.921875 1.656250 0 0 0 0 0.000000 0.000000 0.000000 0.000000
5.372099 -4.572001 4.724400 -0.832050 -0.000000 0.554700 0.554700 0.000000 0.832050 3.921875 1.750000 0 0 0 0 0.000000 0.000000 0.000000 0.000000
5.219699 -4.572001 4.495800 -0.832050 -0.000000 0.554700 0.554700 0.000000 0.832050 3.734375 1.750000 0 0 0 0 0.000000 0.000000 0.000000 0.000000
5.219699 -4.343400 4.495800 -0.832050 -0.000000 0.554700 0.554700 0.000000 0.832050 3.734375 1.656250 0 0 0 0 0.000000 0.000000 0.000000 0.000000
-7.315198 -3.505199 -6.781802 -0.000000 -0.000000 1.000000 -0.000008 1.000000 0.000000 -3.515625 -2.304688 0 0 0 0 0.000000 0.000000 0.000000 0.000000
-7.315199 -3.429000 -6.781802 -0.000000 -0.000000 1.000000 -0.000008 1.000000 0.000000 -3.453125 -2.304688 0 0 0 0 0.000000 0.000000 0.000000 0.000000
-6.096000 -3.429000 -6.781802 -0.000000 -0.000000 1.000000 -0.000008 1.000000 0.000000 -3.453125 -1.804688 0 0 0 0 0.000000 0.000000 0.000000 0.000000
-6.095999 -3.505199 -6.781802 -0.000000 -0.000000 1.000000 -0.000008 1.000000 0.000000 -3.515625 -1.804688 0 0 0 0 0.000000 0.000000 0.000000 0.000000
-6.095999 -3.505199 -6.781802 1.000000 0.000000 0.000000 -0.000000 1.000000 0.000000 -3.515625 -2.085938 0 0 0 0 0.000000 0.000000 0.000000 0.000000
-6.096000 -3.429000 -6.781802 1.000000 0.000000 0.000000 -0.000000 1.000000 0.000000 -3.453125 -2.085938 0 0 0 0 0.000000 0.000000 0.000000 0.000000
-6.096000 -3.428999 -8.915401 1.000000 0.000000 0.000000 -0.000000 1.000000 0.000001 -3.453125 -2.960938 0 0 0 0 0.000000 0.000000 0.000000 0.000000
-6.095999 -3.505199 -8.915401 1.000000 0.000000 0.000000 -0.000000 1.000000 0.000000 -3.515625 -2.960938 0 0 0 0 0.000000 0.000000 0.000000 0.000000
-6.095999 -3.505199 -8.763001 1.000000 0.000000 0.000000 -0.000000 1.000000 0.000000 -3.515625 -2.898438 0 0 0 0 0.000000 0.000000 0.000000 0.000000
-6.095999 -3.505199 -6.934202 1.000000 0.000000 0.000000 0.000000 0.000000 -1.000000 -3.515625 -2.148438 0 0 0 0 0.000000 0.000000 0.000000 0.000000
-6.095999 -3.505199 -8.915401 0.000000 0.000000 -1.000000 -0.000008 1.000000 0.000000 -3.515625 -1.804688 0 0 0 0 0.000000 0.000000 0.000000 0.000000
-6.096000 -3.428999 -8.915401 0.000000 0.000000 -1.000000 -0.000008 1.000000 0.000000 -3.453125 -1.804688 0 0 0 0 0.000000 0.000000 0.000000 0.000000
-7.315199 -3.428999 -8.915401 0.000000 0.000000 -1.000000 -0.000008 1.000000 0.000000 -3.453125 -2.304688 0 0 0 0 0.000000 0.000000 0.000000 0.000000
-7.315198 -3.505199 -8.915401 0.000000 0.000000 -1.000000 -0.000008 1.000000 0.000000 -3.515625 -2.304688 0 0 0 0 0.000000 0.000000 0.000000 0.000000
-7.315198 -3.505199 -8.915401 -1.000000 -0.000000 -0.000000 -0.000000 1.000000 0.000000 -3.515625 -2.960938 0 0 0 0 0.000000 0.000000 0.000000 0.000000
-7.315199 -3.428999 -8.915401 -1.000000 -0.000000 -0.000000 -0.000000 1.000000 0.000000 -3.453125 -2.960938 0 0 0 0 0.000000 0.000000 0.000000 0.000000
-7.315199 -3.429000 -6.781802 -1.000000 -0.000000 -0.000000 -0.000000 1.000000 0.000001 -3.453125 -2.085938 0 0 0 0 0.000000 0.000000 0.000000 0.000000
-7.315198 -3.505199 -6.781802 -1.000000 -0.000000 -0.000000 -0.000000 1.000000 0.000000 -3.515625 -2.085938 0 0 0 0 0.000000 0.000000 0.000000 0.000000
-7.315198 -3.505199 -6.934202 -1.000000 -0.000000 -0.000000 -0.000000 -0.000000 1.000000 -3.515625 -2.148438 0 0 0 0 0.000000 0.000000 0.000000 0.000000
-7.315198 -3.505199 -8.763001 -1.000000 -0.000000 -0.000000 -0.000000 1.000000 0.000000 -3.515625 -2.898438 0 0 0 0 0.000000 0.000000 0.000000 0.000000
-6.248399 -4.114799 -8.763001 0.000000 0.000000 -1.000000 -0.000000 1.000000 0.000000 -4.015625 -1.867188 0 0 0 0 0.000000 0.000000 0.000000 0.000000
-6.248399 -3.505199 -8.763001 0.000000 0.000000 -1.000000 -0.000000 1.000000 0.000000 -3.515625 -1.867188 0 0 0 0 0.000000 0.000000 0.000000 0.000000
-7.162799 -3.505199 -8.763001 0.000000 0.000000 -1.000000 -0.000000 1.000000 0.000000 -3.515625 -2.242188 0 0 0 0 0.000000 0.000000 0.000000 0.000000
-7.162799 -4.114799 -8.763001 0.000000 0.000000 -1.000000 -0.000000 1.000000 0.000000 -4.015625 -2.242188 0 0 0 0 0.000000 0.000000 0.000000 0.000000
-7.162799 -4.114799 -6.934202 -0.000000 -0.000000 1.000000 -0.000000 1.000000 0.000000 -4.015625 -2.242188 0 0 0 0 0.000000 0.000000 0.000000 0.000000
-7.162799 -3.505199 -6.934202 -0.000000 -0.000000 1.000000 -0.000000 1.000000 0.000000 -3.515625 -2.242188 0 0 0 0 0.000000 0.000000 0.000000 0.000000
-6.248399 -3.505199 -6.934202 -0.000000 -0.000000 1.000000 -0.000000 1.000000 0.000000 -3.515625 -1.867188 0 0 0 0 0.000000 0.000000 0.000000 0.000000
-6.248399 -4.114799 -6.934202 -0.000000 -0.000000 1.000000 -0.000000 1.000000 0.000000 -4.015625 -1.867188 0 0 0 0 0.000000 0.000000 0.000000 0.000000
-7.162799 -4.114799 -8.763001 -1.000000 -0.000000 -0.000000 -0.000000 1.000000 -0.000000 -4.015625 -2.898438 0 0 0 0 0.000000 0.000000 0.000000 0.000000
-7.162799 -3.505199 -8.763001 -1.000000 -0.000000 -0.000000 -0.000000 1.000000 -0.000000 -3.515625 -2.898438 0 0 0 0 0.000000 0.000000 0.000000 0.000000
-7.162799 -3.505199 -6.934202 -1.000000 -0.000000 -0.000000 -0.000000 1.000000 -0.000000 -3.515625 -2.148438 0 0 0 0 0.000000 0.000000 0.000000 0.000000
-7.162799 -4.114799 -6.934202 -1.000000 -0.000000 -0.000000 -0.000000 1.000000 -0.000000 -4.015625 -2.148438 0 0 0 0 0.000000 0.000000 0.000000 0.000000
-6.248399 -4.114799 -6.934202 1.000000 0.000000 0.000000 -0.000000 1.000000 -0.000000 -4.015625 -2.148438 0 0 0 0 0.000000 0.000000 0.000000 0.000000
-6.248399 -3.505199 -6.934202 1.000000 0.000000 0.000000 -0.000000 1.000000 -0.000000 -3.515625 -2.148438 0 0 0 0 0.000000 0.000000 0.000000 0.000000
-6.248399 -3.505199 -8.763001 1.000000 0.000000 0.000000 -0.000000 1.000000 -0.000000 -3.515625 -2.898438 0 0 0 0 0.000000 0.000000 0.000000 0.000000
-6.248399 -4.114799 -8.763001 1.000000 0.000000 0.000000 -0.000000 1.000000 -0.000000 -4.015625 -2.898438 0 0 0 0 0.000000 0.000000 0.000000 0.000000
IndexCount: 675
3 1 0
3 2 1
7 5 4
7 6 5
11 9 8
11 10 9
15 13 12
15 14 13
16 20 19
16 19 18
18 17 16
24 22 21
24 23 22
28 26 25
298 29 25
298 25 26
28 27 26
298 26 296
298 296 295
298 295 294
298 294 293
298 293 292
292 299 298
298 297 32
298 32 29
32 30 29
32 31 30
36 34 33
46 41 33
46 33 34
36 35 34
34 47 46
46 48 45
46 45 41
49 48 46
46 50 49
49 51 48
49 52 51
41 45 44
41 44 43
43 42 41
40 38 37
40 39 38
56 54 53
56 55 54
57 64 63
57 63 62
57 62 61
57 61 60
57 60 59
59 58 57
68 66 65
68 67 66
72 70 69
72 71 70
76 74 73
76 75 74
80 78 77
80 79 78
84 82 81
84 83 82
88 86 85
88 87 86
92 90 89
89 96 95
89 95 94
94 93 89
92 91 90
100 98 97
100 99 98
101 105 104
101 104 103
103 102 101
109 107 106
109 108 107
113 111 110
113 112 111
114 118 117
114 117 116
116 115 114
122 120 119
122 121 120
126 124 123
126 125 124
130 128 127
130 129 128
134 132 131
134 133 132
138 136 135
138 137 136
142 140 139
142 141 140
143 147 146
146 144 143
146 145 144
150 149 146
150 146 148
151 155 154
151 154 153
153 152 151
159 157 156
159 158 157
163 161 160
163 162 161
164 168 167
164 167 166
166 165 164
172 170 169
172 171 170
176 174 173
176 175 174
180 178 177
180 179 178
184 182 181
184 183 182
188 186 185
188 187 186
192 190 189
192 191 190
193 197 196
193 196 195
195 194 193
201 199 198
201 200 199
205 203 202
205 204 203
211 207 206
212 211 206
212 206 216
211 210 209
211 209 208
211 208 207
216 215 214
216 214 213
216 213 212
220 218 217
220 219 218
224 222 221
224 223 222
228 226 225
228 227 226
232 230 229
232 231 230
236 234 233
236 235 234
240 238 237
240 239 238
244 242 241
244 243 242
248 246 245
248 247 246
252 250 249
249 256 255
249 255 254
254 253 249
252 251 250
260 258 257
260 259 258
261 265 264
261 264 263
263 262 261
269 267 266
269 268 267
273 271 270
273 272 271
277 275 274
277 276 275
278 282 281
278 281 280
280 279 278
283 287 286
283 286 285
285 284 283
291 289 288
291 290 289
300 304 303
300 303 302
302 301 300
308 306 305
308 307 306
312 310 309
312 311 310
316 314 313
316 315 314
320 318 317
320 319 318
324 322 321
324 323 322
328 326 325
328 327 326
329 333 332
332 330 329
332 331 330
336 335 332
336 332 334
340 338 337
340 339 338
341 345 344
341 344 343
343 342 341
346 350 349
346 349 348
348 347 346
354 352 351
354 353 352
358 356 355
358 357 356
359 364 363
363 360 359
363 362 361
363 361 360
368 366 365
368 367 366
374 370 369
374 373 372
374 372 371
374 371 370
378 376 375
378 377 376
382 380 379
382 381 380
386 384 383
386 385 384
390 388 387
390 389 388